<svg width="378" height="461" viewBox="0 0 378 461" fill="none" xmlns="http://www.w3.org/2000/svg">
<rect width="378" height="461" rx="5" fill="white"/>
<path d="M54.34 46.104C54.7413 46.104 55.082 46.0387 55.362 45.908C55.6513 45.768 55.8847 45.586 56.062 45.362C56.2487 45.1287 56.384 44.8673 56.468 44.578C56.5613 44.2793 56.608 43.9667 56.608 43.64V43.472H57.784V43.64C57.784 44.1347 57.7093 44.6013 57.56 45.04C57.4107 45.4693 57.1913 45.8473 56.902 46.174C56.6127 46.4913 56.2533 46.7433 55.824 46.93C55.3947 47.1073 54.9 47.196 54.34 47.196C53.2573 47.196 52.4127 46.8553 51.806 46.174C51.1993 45.4927 50.896 44.4987 50.896 43.192V41.008C50.896 39.7387 51.1993 38.754 51.806 38.054C52.4127 37.354 53.2573 37.004 54.34 37.004C54.9 37.004 55.3947 37.0973 55.824 37.284C56.2533 37.4613 56.6127 37.7133 56.902 38.04C57.1913 38.3573 57.4107 38.7353 57.56 39.174C57.7093 39.6033 57.784 40.0653 57.784 40.56V40.728H56.608V40.56C56.5987 40.2427 56.5473 39.9347 56.454 39.636C56.37 39.3373 56.2347 39.076 56.048 38.852C55.8707 38.6187 55.642 38.4367 55.362 38.306C55.082 38.166 54.7413 38.096 54.34 38.096C53.584 38.096 53.0147 38.3713 52.632 38.922C52.2587 39.4727 52.072 40.196 52.072 41.092V43.108C52.072 44.0693 52.2587 44.8113 52.632 45.334C53.0147 45.8473 53.584 46.104 54.34 46.104ZM62.2123 41.008C62.2123 39.7387 62.5156 38.754 63.1223 38.054C63.7289 37.354 64.5736 37.004 65.6563 37.004C66.7389 37.004 67.5836 37.354 68.1903 38.054C68.7969 38.754 69.1003 39.7387 69.1003 41.008V43.192C69.1003 44.4987 68.7969 45.4927 68.1903 46.174C67.5836 46.8553 66.7389 47.196 65.6563 47.196C64.5736 47.196 63.7289 46.8553 63.1223 46.174C62.5156 45.4927 62.2123 44.4987 62.2123 43.192V41.008ZM65.6563 46.104C66.4123 46.104 66.9769 45.8473 67.3503 45.334C67.7329 44.8113 67.9243 44.0693 67.9243 43.108V41.092C67.9243 40.196 67.7329 39.4727 67.3503 38.922C66.9769 38.3713 66.4123 38.096 65.6563 38.096C64.9003 38.096 64.3309 38.3713 63.9483 38.922C63.5749 39.4727 63.3883 40.196 63.3883 41.092V43.108C63.3883 44.0693 63.5749 44.8113 63.9483 45.334C64.3309 45.8473 64.9003 46.104 65.6563 46.104ZM73.9625 37.2H75.1385V45.908H80.2625V47H73.9625V37.2ZM84.9568 41.008C84.9568 39.7387 85.2601 38.754 85.8668 38.054C86.4735 37.354 87.3181 37.004 88.4008 37.004C89.4835 37.004 90.3281 37.354 90.9348 38.054C91.5415 38.754 91.8448 39.7387 91.8448 41.008V43.192C91.8448 44.4987 91.5415 45.4927 90.9348 46.174C90.3281 46.8553 89.4835 47.196 88.4008 47.196C87.3181 47.196 86.4735 46.8553 85.8668 46.174C85.2601 45.4927 84.9568 44.4987 84.9568 43.192V41.008ZM88.4008 46.104C89.1568 46.104 89.7215 45.8473 90.0948 45.334C90.4775 44.8113 90.6688 44.0693 90.6688 43.108V41.092C90.6688 40.196 90.4775 39.4727 90.0948 38.922C89.7215 38.3713 89.1568 38.096 88.4008 38.096C87.6448 38.096 87.0755 38.3713 86.6928 38.922C86.3195 39.4727 86.1328 40.196 86.1328 41.092V43.108C86.1328 44.0693 86.3195 44.8113 86.6928 45.334C87.0755 45.8473 87.6448 46.104 88.4008 46.104ZM97.5891 37.2V43.696C97.5891 44.4893 97.7711 45.0913 98.1351 45.502C98.5084 45.9033 99.0544 46.104 99.7731 46.104C100.492 46.104 101.033 45.9033 101.397 45.502C101.77 45.0913 101.957 44.4893 101.957 43.696V37.2H103.133V43.696C103.133 44.8347 102.834 45.7027 102.237 46.3C101.64 46.8973 100.818 47.196 99.7731 47.196C98.7277 47.196 97.9064 46.8973 97.3091 46.3C96.7117 45.7027 96.4131 44.8347 96.4131 43.696V37.2H97.5891ZM114.211 47H113.035V43.724C113.035 43.4813 112.979 43.2947 112.867 43.164C112.755 43.0333 112.559 42.968 112.279 42.968H109.227V47H108.051V37.2H111.551C112.055 37.2 112.494 37.2747 112.867 37.424C113.241 37.564 113.549 37.7553 113.791 37.998C114.043 38.2407 114.23 38.5253 114.351 38.852C114.482 39.1693 114.547 39.5053 114.547 39.86V40.28C114.547 40.644 114.445 41.008 114.239 41.372C114.043 41.736 113.735 42.016 113.315 42.212V42.38C113.595 42.4267 113.815 42.5387 113.973 42.716C114.132 42.8933 114.211 43.1453 114.211 43.472V47ZM109.227 41.876H111.411C112.074 41.876 112.564 41.736 112.881 41.456C113.208 41.1667 113.371 40.7467 113.371 40.196V39.944C113.371 39.4493 113.208 39.0527 112.881 38.754C112.564 38.446 112.074 38.292 111.411 38.292H109.227V41.876ZM124.828 40.028C124.828 39.7107 124.762 39.4307 124.632 39.188C124.51 38.9453 124.342 38.7447 124.128 38.586C123.913 38.4273 123.666 38.306 123.386 38.222C123.106 38.138 122.812 38.096 122.504 38.096C122.233 38.096 121.976 38.1333 121.734 38.208C121.491 38.2733 121.272 38.3713 121.076 38.502C120.889 38.6327 120.74 38.796 120.628 38.992C120.516 39.1787 120.46 39.398 120.46 39.65V39.734C120.46 40.0047 120.516 40.238 120.628 40.434C120.74 40.6207 120.903 40.784 121.118 40.924C121.342 41.0547 121.617 41.1667 121.944 41.26C122.27 41.344 122.653 41.4187 123.092 41.484C124.118 41.6427 124.874 41.946 125.36 42.394C125.845 42.8327 126.088 43.4253 126.088 44.172V44.34C126.088 44.76 126.013 45.1473 125.864 45.502C125.724 45.8473 125.509 46.146 125.22 46.398C124.94 46.65 124.59 46.846 124.17 46.986C123.75 47.126 123.264 47.196 122.714 47.196C122.088 47.196 121.533 47.1073 121.048 46.93C120.572 46.7433 120.17 46.4913 119.844 46.174C119.526 45.8473 119.284 45.4693 119.116 45.04C118.948 44.6013 118.864 44.1253 118.864 43.612V43.192H120.04V43.528C120.04 44.3867 120.273 45.0307 120.74 45.46C121.216 45.8893 121.874 46.104 122.714 46.104C123.442 46.104 123.988 45.9453 124.352 45.628C124.725 45.3013 124.912 44.872 124.912 44.34V44.256C124.912 43.7427 124.72 43.3507 124.338 43.08C123.964 42.8093 123.353 42.6133 122.504 42.492C122.009 42.4267 121.561 42.3287 121.16 42.198C120.768 42.058 120.432 41.8807 120.152 41.666C119.872 41.442 119.657 41.176 119.508 40.868C119.358 40.56 119.284 40.196 119.284 39.776V39.608C119.284 39.2253 119.363 38.8753 119.522 38.558C119.68 38.2407 119.9 37.9653 120.18 37.732C120.469 37.4987 120.81 37.3213 121.202 37.2C121.603 37.0693 122.042 37.004 122.518 37.004C123.068 37.004 123.558 37.0833 123.988 37.242C124.426 37.4007 124.795 37.6153 125.094 37.886C125.392 38.1473 125.616 38.46 125.766 38.824C125.924 39.1787 126.004 39.552 126.004 39.944V40.532H124.828V40.028Z" fill="black"/>
<line x1="50.75" y1="69.25" x2="327.25" y2="69.25" stroke="#DBDBDB" stroke-width="1.5" stroke-linecap="round"/>
<path d="M50 125C50 122.239 52.2386 120 55 120H174C176.761 120 179 122.239 179 125V244C179 246.761 176.761 249 174 249H55C52.2386 249 50 246.761 50 244V125Z" fill="#FEB000"/>
<path d="M50 274C50 271.239 52.2386 269 55 269H174C176.761 269 179 271.239 179 274V393C179 395.761 176.761 398 174 398H55C52.2386 398 50 395.761 50 393V274Z" fill="#666666"/>
<path d="M199 125C199 122.239 201.239 120 204 120H323C325.761 120 328 122.239 328 125V244C328 246.761 325.761 249 323 249H204C201.239 249 199 246.761 199 244V125Z" fill="#FE9A05"/>
<path d="M199 274C199 271.239 201.239 269 204 269H323C325.761 269 328 271.239 328 274V393C328 395.761 325.761 398 323 398H204C201.239 398 199 395.761 199 393V274Z" fill="#231F20"/>
<path d="M81.9048 189.164V186.968H79.9608V189.164H78.6648V186.968H76.6848V185.672H78.6648V183.728H76.6848V182.432H78.6648V180.236H79.9608V182.432H81.9048V180.236H83.2008V182.432H85.1808V183.728H83.2008V185.672H85.1808V186.968H83.2008V189.164H81.9048ZM81.9048 183.728H79.9608V185.672H81.9048V183.728ZM87.9223 182.072H90.6763V179.804C90.6763 179.396 90.8023 179.06 91.0543 178.796C91.3183 178.532 91.6543 178.4 92.0623 178.4H95.5903V179.696H92.5663C92.2423 179.696 92.0803 179.876 92.0803 180.236V182.072H95.8063V183.368H92.0803V191H90.6763V183.368H87.9223V182.072ZM100.06 186.968C100.096 187.856 100.372 188.57 100.888 189.11C101.404 189.65 102.124 189.92 103.048 189.92C103.468 189.92 103.834 189.872 104.146 189.776C104.458 189.68 104.722 189.548 104.938 189.38C105.166 189.212 105.346 189.02 105.478 188.804C105.622 188.576 105.736 188.336 105.82 188.084L107.152 188.444C106.9 189.272 106.432 189.95 105.748 190.478C105.076 190.994 104.164 191.252 103.012 191.252C102.376 191.252 101.788 191.144 101.248 190.928C100.72 190.7 100.264 190.382 99.8798 189.974C99.4958 189.566 99.1958 189.08 98.9798 188.516C98.7638 187.952 98.6558 187.328 98.6558 186.644V186.212C98.6558 185.588 98.7638 185.006 98.9798 184.466C99.2078 183.926 99.5198 183.464 99.9158 183.08C100.312 182.684 100.774 182.378 101.302 182.162C101.842 181.934 102.424 181.82 103.048 181.82C103.78 181.82 104.41 181.958 104.938 182.234C105.478 182.498 105.916 182.828 106.252 183.224C106.6 183.62 106.852 184.052 107.008 184.52C107.176 184.988 107.26 185.42 107.26 185.816V186.968H100.06ZM103.048 183.152C102.652 183.152 102.28 183.218 101.932 183.35C101.596 183.47 101.296 183.644 101.032 183.872C100.78 184.1 100.57 184.37 100.402 184.682C100.246 184.982 100.144 185.312 100.096 185.672H105.856C105.832 185.288 105.736 184.94 105.568 184.628C105.412 184.316 105.202 184.052 104.938 183.836C104.686 183.62 104.392 183.452 104.056 183.332C103.732 183.212 103.396 183.152 103.048 183.152ZM111.135 191H109.731V178.4H111.135V183.476H111.351C111.663 182.936 112.095 182.528 112.647 182.252C113.199 181.964 113.799 181.82 114.447 181.82C114.999 181.82 115.521 181.922 116.013 182.126C116.505 182.33 116.937 182.624 117.309 183.008C117.693 183.392 117.993 183.866 118.209 184.43C118.437 184.994 118.551 185.636 118.551 186.356V186.716C118.551 187.448 118.443 188.096 118.227 188.66C118.011 189.224 117.711 189.698 117.327 190.082C116.955 190.466 116.517 190.76 116.013 190.964C115.509 191.156 114.975 191.252 114.411 191.252C114.123 191.252 113.829 191.216 113.529 191.144C113.229 191.084 112.941 190.988 112.665 190.856C112.401 190.712 112.155 190.544 111.927 190.352C111.699 190.148 111.507 189.908 111.351 189.632H111.135V191ZM114.123 189.92C114.555 189.92 114.951 189.848 115.311 189.704C115.671 189.548 115.983 189.332 116.247 189.056C116.523 188.78 116.733 188.444 116.877 188.048C117.033 187.652 117.111 187.208 117.111 186.716V186.356C117.111 185.876 117.033 185.444 116.877 185.06C116.733 184.664 116.523 184.328 116.247 184.052C115.983 183.764 115.665 183.542 115.293 183.386C114.933 183.23 114.543 183.152 114.123 183.152C113.703 183.152 113.313 183.236 112.953 183.404C112.593 183.56 112.275 183.782 111.999 184.07C111.735 184.358 111.525 184.706 111.369 185.114C111.213 185.51 111.135 185.948 111.135 186.428V186.644C111.135 187.136 111.213 187.586 111.369 187.994C111.525 188.39 111.735 188.732 111.999 189.02C112.275 189.308 112.593 189.53 112.953 189.686C113.313 189.842 113.703 189.92 114.123 189.92ZM120.591 183.296C120.591 181.664 120.981 180.398 121.761 179.498C122.541 178.598 123.627 178.148 125.019 178.148C126.411 178.148 127.497 178.598 128.277 179.498C129.057 180.398 129.447 181.664 129.447 183.296V186.104C129.447 187.784 129.057 189.062 128.277 189.938C127.497 190.814 126.411 191.252 125.019 191.252C123.627 191.252 122.541 190.814 121.761 189.938C120.981 189.062 120.591 187.784 120.591 186.104V183.296ZM125.019 189.884C125.991 189.884 126.717 189.548 127.197 188.876C127.689 188.192 127.935 187.232 127.935 185.996V183.404C127.935 182.828 127.875 182.306 127.755 181.838C127.635 181.358 127.449 180.95 127.197 180.614C126.957 180.266 126.651 179.996 126.279 179.804C125.919 179.612 125.499 179.516 125.019 179.516C124.527 179.516 124.101 179.612 123.741 179.804C123.381 179.996 123.075 180.266 122.823 180.614C122.583 180.95 122.403 181.358 122.283 181.838C122.163 182.306 122.103 182.828 122.103 183.404V185.996C122.103 187.232 122.343 188.192 122.823 188.876C123.315 189.548 124.047 189.884 125.019 189.884ZM123.867 184.7C123.867 184.388 123.981 184.118 124.209 183.89C124.437 183.662 124.707 183.548 125.019 183.548C125.331 183.548 125.601 183.662 125.829 183.89C126.057 184.118 126.171 184.388 126.171 184.7C126.171 185.012 126.057 185.282 125.829 185.51C125.601 185.738 125.331 185.852 125.019 185.852C124.707 185.852 124.437 185.738 124.209 185.51C123.981 185.282 123.867 185.012 123.867 184.7ZM131.612 183.296C131.612 181.664 132.002 180.398 132.782 179.498C133.562 178.598 134.648 178.148 136.04 178.148C137.432 178.148 138.518 178.598 139.298 179.498C140.078 180.398 140.468 181.664 140.468 183.296V186.104C140.468 187.784 140.078 189.062 139.298 189.938C138.518 190.814 137.432 191.252 136.04 191.252C134.648 191.252 133.562 190.814 132.782 189.938C132.002 189.062 131.612 187.784 131.612 186.104V183.296ZM136.04 189.884C137.012 189.884 137.738 189.548 138.218 188.876C138.71 188.192 138.956 187.232 138.956 185.996V183.404C138.956 182.828 138.896 182.306 138.776 181.838C138.656 181.358 138.47 180.95 138.218 180.614C137.978 180.266 137.672 179.996 137.3 179.804C136.94 179.612 136.52 179.516 136.04 179.516C135.548 179.516 135.122 179.612 134.762 179.804C134.402 179.996 134.096 180.266 133.844 180.614C133.604 180.95 133.424 181.358 133.304 181.838C133.184 182.306 133.124 182.828 133.124 183.404V185.996C133.124 187.232 133.364 188.192 133.844 188.876C134.336 189.548 135.068 189.884 136.04 189.884ZM134.888 184.7C134.888 184.388 135.002 184.118 135.23 183.89C135.458 183.662 135.728 183.548 136.04 183.548C136.352 183.548 136.622 183.662 136.85 183.89C137.078 184.118 137.192 184.388 137.192 184.7C137.192 185.012 137.078 185.282 136.85 185.51C136.622 185.738 136.352 185.852 136.04 185.852C135.728 185.852 135.458 185.738 135.23 185.51C135.002 185.282 134.888 185.012 134.888 184.7ZM142.634 183.296C142.634 181.664 143.024 180.398 143.804 179.498C144.584 178.598 145.67 178.148 147.062 178.148C148.454 178.148 149.54 178.598 150.32 179.498C151.1 180.398 151.49 181.664 151.49 183.296V186.104C151.49 187.784 151.1 189.062 150.32 189.938C149.54 190.814 148.454 191.252 147.062 191.252C145.67 191.252 144.584 190.814 143.804 189.938C143.024 189.062 142.634 187.784 142.634 186.104V183.296ZM147.062 189.884C148.034 189.884 148.76 189.548 149.24 188.876C149.732 188.192 149.978 187.232 149.978 185.996V183.404C149.978 182.828 149.918 182.306 149.798 181.838C149.678 181.358 149.492 180.95 149.24 180.614C149 180.266 148.694 179.996 148.322 179.804C147.962 179.612 147.542 179.516 147.062 179.516C146.57 179.516 146.144 179.612 145.784 179.804C145.424 179.996 145.118 180.266 144.866 180.614C144.626 180.95 144.446 181.358 144.326 181.838C144.206 182.306 144.146 182.828 144.146 183.404V185.996C144.146 187.232 144.386 188.192 144.866 188.876C145.358 189.548 146.09 189.884 147.062 189.884ZM145.91 184.7C145.91 184.388 146.024 184.118 146.252 183.89C146.48 183.662 146.75 183.548 147.062 183.548C147.374 183.548 147.644 183.662 147.872 183.89C148.1 184.118 148.214 184.388 148.214 184.7C148.214 185.012 148.1 185.282 147.872 185.51C147.644 185.738 147.374 185.852 147.062 185.852C146.75 185.852 146.48 185.738 146.252 185.51C146.024 185.282 145.91 185.012 145.91 184.7Z" fill="white"/>
<path d="M81.9048 338.164V335.968H79.9608V338.164H78.6648V335.968H76.6848V334.672H78.6648V332.728H76.6848V331.432H78.6648V329.236H79.9608V331.432H81.9048V329.236H83.2008V331.432H85.1808V332.728H83.2008V334.672H85.1808V335.968H83.2008V338.164H81.9048ZM81.9048 332.728H79.9608V334.672H81.9048V332.728ZM94.6003 331.072C94.6003 330.292 94.3603 329.668 93.8803 329.2C93.4003 328.72 92.7343 328.48 91.8823 328.48C91.4743 328.48 91.0963 328.552 90.7483 328.696C90.4123 328.84 90.1183 329.05 89.8663 329.326C89.6263 329.59 89.4343 329.908 89.2903 330.28C89.1583 330.652 89.0923 331.06 89.0923 331.504V333.376H89.3083C89.5963 332.848 90.0043 332.434 90.5323 332.134C91.0723 331.834 91.6723 331.684 92.3323 331.684C92.9083 331.684 93.4423 331.78 93.9343 331.972C94.4263 332.152 94.8463 332.422 95.1943 332.782C95.5543 333.142 95.8303 333.58 96.0223 334.096C96.2263 334.6 96.3283 335.176 96.3283 335.824V336.04C96.3283 336.664 96.2143 337.234 95.9863 337.75C95.7703 338.266 95.4643 338.71 95.0683 339.082C94.6843 339.454 94.2223 339.742 93.6823 339.946C93.1543 340.15 92.5783 340.252 91.9543 340.252C91.3303 340.252 90.7483 340.15 90.2083 339.946C89.6803 339.742 89.2183 339.46 88.8223 339.1C88.4383 338.728 88.1323 338.29 87.9043 337.786C87.6883 337.27 87.5803 336.706 87.5803 336.094V331.504C87.5803 330.844 87.6943 330.244 87.9223 329.704C88.1503 329.164 88.4623 328.708 88.8583 328.336C89.2543 327.952 89.7103 327.658 90.2263 327.454C90.7543 327.25 91.3183 327.148 91.9183 327.148C92.5183 327.148 93.0763 327.238 93.5923 327.418C94.1083 327.598 94.5523 327.862 94.9243 328.21C95.2963 328.546 95.5843 328.96 95.7883 329.452C96.0043 329.932 96.1123 330.472 96.1123 331.072H94.6003ZM91.9543 338.92C92.3863 338.92 92.7763 338.854 93.1243 338.722C93.4843 338.578 93.7903 338.38 94.0423 338.128C94.2943 337.876 94.4863 337.576 94.6183 337.228C94.7503 336.88 94.8163 336.496 94.8163 336.076V335.86C94.8163 335.44 94.7443 335.056 94.6003 334.708C94.4563 334.36 94.2583 334.06 94.0063 333.808C93.7543 333.556 93.4483 333.364 93.0883 333.232C92.7403 333.088 92.3623 333.016 91.9543 333.016C91.5463 333.016 91.1683 333.088 90.8203 333.232C90.4723 333.376 90.1663 333.574 89.9023 333.826C89.6503 334.078 89.4523 334.372 89.3083 334.708C89.1643 335.044 89.0923 335.404 89.0923 335.788V336.13C89.0923 336.526 89.1583 336.898 89.2903 337.246C89.4223 337.582 89.6143 337.876 89.8663 338.128C90.1183 338.38 90.4183 338.578 90.7663 338.722C91.1263 338.854 91.5223 338.92 91.9543 338.92ZM105.622 331.072C105.622 330.292 105.382 329.668 104.902 329.2C104.422 328.72 103.756 328.48 102.904 328.48C102.496 328.48 102.118 328.552 101.77 328.696C101.434 328.84 101.14 329.05 100.888 329.326C100.648 329.59 100.456 329.908 100.312 330.28C100.18 330.652 100.114 331.06 100.114 331.504V333.376H100.33C100.618 332.848 101.026 332.434 101.554 332.134C102.094 331.834 102.694 331.684 103.354 331.684C103.93 331.684 104.464 331.78 104.956 331.972C105.448 332.152 105.868 332.422 106.216 332.782C106.576 333.142 106.852 333.58 107.044 334.096C107.248 334.6 107.35 335.176 107.35 335.824V336.04C107.35 336.664 107.236 337.234 107.008 337.75C106.792 338.266 106.486 338.71 106.09 339.082C105.706 339.454 105.244 339.742 104.704 339.946C104.176 340.15 103.6 340.252 102.976 340.252C102.352 340.252 101.77 340.15 101.23 339.946C100.702 339.742 100.24 339.46 99.8438 339.1C99.4598 338.728 99.1538 338.29 98.9258 337.786C98.7098 337.27 98.6018 336.706 98.6018 336.094V331.504C98.6018 330.844 98.7158 330.244 98.9438 329.704C99.1718 329.164 99.4838 328.708 99.8798 328.336C100.276 327.952 100.732 327.658 101.248 327.454C101.776 327.25 102.34 327.148 102.94 327.148C103.54 327.148 104.098 327.238 104.614 327.418C105.13 327.598 105.574 327.862 105.946 328.21C106.318 328.546 106.606 328.96 106.81 329.452C107.026 329.932 107.134 330.472 107.134 331.072H105.622ZM102.976 338.92C103.408 338.92 103.798 338.854 104.146 338.722C104.506 338.578 104.812 338.38 105.064 338.128C105.316 337.876 105.508 337.576 105.64 337.228C105.772 336.88 105.838 336.496 105.838 336.076V335.86C105.838 335.44 105.766 335.056 105.622 334.708C105.478 334.36 105.28 334.06 105.028 333.808C104.776 333.556 104.47 333.364 104.11 333.232C103.762 333.088 103.384 333.016 102.976 333.016C102.568 333.016 102.19 333.088 101.842 333.232C101.494 333.376 101.188 333.574 100.924 333.826C100.672 334.078 100.474 334.372 100.33 334.708C100.186 335.044 100.114 335.404 100.114 335.788V336.13C100.114 336.526 100.18 336.898 100.312 337.246C100.444 337.582 100.636 337.876 100.888 338.128C101.14 338.38 101.44 338.578 101.788 338.722C102.148 338.854 102.544 338.92 102.976 338.92ZM116.643 331.072C116.643 330.292 116.403 329.668 115.923 329.2C115.443 328.72 114.777 328.48 113.925 328.48C113.517 328.48 113.139 328.552 112.791 328.696C112.455 328.84 112.161 329.05 111.909 329.326C111.669 329.59 111.477 329.908 111.333 330.28C111.201 330.652 111.135 331.06 111.135 331.504V333.376H111.351C111.639 332.848 112.047 332.434 112.575 332.134C113.115 331.834 113.715 331.684 114.375 331.684C114.951 331.684 115.485 331.78 115.977 331.972C116.469 332.152 116.889 332.422 117.237 332.782C117.597 333.142 117.873 333.58 118.065 334.096C118.269 334.6 118.371 335.176 118.371 335.824V336.04C118.371 336.664 118.257 337.234 118.029 337.75C117.813 338.266 117.507 338.71 117.111 339.082C116.727 339.454 116.265 339.742 115.725 339.946C115.197 340.15 114.621 340.252 113.997 340.252C113.373 340.252 112.791 340.15 112.251 339.946C111.723 339.742 111.261 339.46 110.865 339.1C110.481 338.728 110.175 338.29 109.947 337.786C109.731 337.27 109.623 336.706 109.623 336.094V331.504C109.623 330.844 109.737 330.244 109.965 329.704C110.193 329.164 110.505 328.708 110.901 328.336C111.297 327.952 111.753 327.658 112.269 327.454C112.797 327.25 113.361 327.148 113.961 327.148C114.561 327.148 115.119 327.238 115.635 327.418C116.151 327.598 116.595 327.862 116.967 328.21C117.339 328.546 117.627 328.96 117.831 329.452C118.047 329.932 118.155 330.472 118.155 331.072H116.643ZM113.997 338.92C114.429 338.92 114.819 338.854 115.167 338.722C115.527 338.578 115.833 338.38 116.085 338.128C116.337 337.876 116.529 337.576 116.661 337.228C116.793 336.88 116.859 336.496 116.859 336.076V335.86C116.859 335.44 116.787 335.056 116.643 334.708C116.499 334.36 116.301 334.06 116.049 333.808C115.797 333.556 115.491 333.364 115.131 333.232C114.783 333.088 114.405 333.016 113.997 333.016C113.589 333.016 113.211 333.088 112.863 333.232C112.515 333.376 112.209 333.574 111.945 333.826C111.693 334.078 111.495 334.372 111.351 334.708C111.207 335.044 111.135 335.404 111.135 335.788V336.13C111.135 336.526 111.201 336.898 111.333 337.246C111.465 337.582 111.657 337.876 111.909 338.128C112.161 338.38 112.461 338.578 112.809 338.722C113.169 338.854 113.565 338.92 113.997 338.92ZM127.665 331.072C127.665 330.292 127.425 329.668 126.945 329.2C126.465 328.72 125.799 328.48 124.947 328.48C124.539 328.48 124.161 328.552 123.813 328.696C123.477 328.84 123.183 329.05 122.931 329.326C122.691 329.59 122.499 329.908 122.355 330.28C122.223 330.652 122.157 331.06 122.157 331.504V333.376H122.373C122.661 332.848 123.069 332.434 123.597 332.134C124.137 331.834 124.737 331.684 125.397 331.684C125.973 331.684 126.507 331.78 126.999 331.972C127.491 332.152 127.911 332.422 128.259 332.782C128.619 333.142 128.895 333.58 129.087 334.096C129.291 334.6 129.393 335.176 129.393 335.824V336.04C129.393 336.664 129.279 337.234 129.051 337.75C128.835 338.266 128.529 338.71 128.133 339.082C127.749 339.454 127.287 339.742 126.747 339.946C126.219 340.15 125.643 340.252 125.019 340.252C124.395 340.252 123.813 340.15 123.273 339.946C122.745 339.742 122.283 339.46 121.887 339.1C121.503 338.728 121.197 338.29 120.969 337.786C120.753 337.27 120.645 336.706 120.645 336.094V331.504C120.645 330.844 120.759 330.244 120.987 329.704C121.215 329.164 121.527 328.708 121.923 328.336C122.319 327.952 122.775 327.658 123.291 327.454C123.819 327.25 124.383 327.148 124.983 327.148C125.583 327.148 126.141 327.238 126.657 327.418C127.173 327.598 127.617 327.862 127.989 328.21C128.361 328.546 128.649 328.96 128.853 329.452C129.069 329.932 129.177 330.472 129.177 331.072H127.665ZM125.019 338.92C125.451 338.92 125.841 338.854 126.189 338.722C126.549 338.578 126.855 338.38 127.107 338.128C127.359 337.876 127.551 337.576 127.683 337.228C127.815 336.88 127.881 336.496 127.881 336.076V335.86C127.881 335.44 127.809 335.056 127.665 334.708C127.521 334.36 127.323 334.06 127.071 333.808C126.819 333.556 126.513 333.364 126.153 333.232C125.805 333.088 125.427 333.016 125.019 333.016C124.611 333.016 124.233 333.088 123.885 333.232C123.537 333.376 123.231 333.574 122.967 333.826C122.715 334.078 122.517 334.372 122.373 334.708C122.229 335.044 122.157 335.404 122.157 335.788V336.13C122.157 336.526 122.223 336.898 122.355 337.246C122.487 337.582 122.679 337.876 122.931 338.128C123.183 338.38 123.483 338.578 123.831 338.722C124.191 338.854 124.587 338.92 125.019 338.92ZM138.686 331.072C138.686 330.292 138.446 329.668 137.966 329.2C137.486 328.72 136.82 328.48 135.968 328.48C135.56 328.48 135.182 328.552 134.834 328.696C134.498 328.84 134.204 329.05 133.952 329.326C133.712 329.59 133.52 329.908 133.376 330.28C133.244 330.652 133.178 331.06 133.178 331.504V333.376H133.394C133.682 332.848 134.09 332.434 134.618 332.134C135.158 331.834 135.758 331.684 136.418 331.684C136.994 331.684 137.528 331.78 138.02 331.972C138.512 332.152 138.932 332.422 139.28 332.782C139.64 333.142 139.916 333.58 140.108 334.096C140.312 334.6 140.414 335.176 140.414 335.824V336.04C140.414 336.664 140.3 337.234 140.072 337.75C139.856 338.266 139.55 338.71 139.154 339.082C138.77 339.454 138.308 339.742 137.768 339.946C137.24 340.15 136.664 340.252 136.04 340.252C135.416 340.252 134.834 340.15 134.294 339.946C133.766 339.742 133.304 339.46 132.908 339.1C132.524 338.728 132.218 338.29 131.99 337.786C131.774 337.27 131.666 336.706 131.666 336.094V331.504C131.666 330.844 131.78 330.244 132.008 329.704C132.236 329.164 132.548 328.708 132.944 328.336C133.34 327.952 133.796 327.658 134.312 327.454C134.84 327.25 135.404 327.148 136.004 327.148C136.604 327.148 137.162 327.238 137.678 327.418C138.194 327.598 138.638 327.862 139.01 328.21C139.382 328.546 139.67 328.96 139.874 329.452C140.09 329.932 140.198 330.472 140.198 331.072H138.686ZM136.04 338.92C136.472 338.92 136.862 338.854 137.21 338.722C137.57 338.578 137.876 338.38 138.128 338.128C138.38 337.876 138.572 337.576 138.704 337.228C138.836 336.88 138.902 336.496 138.902 336.076V335.86C138.902 335.44 138.83 335.056 138.686 334.708C138.542 334.36 138.344 334.06 138.092 333.808C137.84 333.556 137.534 333.364 137.174 333.232C136.826 333.088 136.448 333.016 136.04 333.016C135.632 333.016 135.254 333.088 134.906 333.232C134.558 333.376 134.252 333.574 133.988 333.826C133.736 334.078 133.538 334.372 133.394 334.708C133.25 335.044 133.178 335.404 133.178 335.788V336.13C133.178 336.526 133.244 336.898 133.376 337.246C133.508 337.582 133.7 337.876 133.952 338.128C134.204 338.38 134.504 338.578 134.852 338.722C135.212 338.854 135.608 338.92 136.04 338.92ZM149.708 331.072C149.708 330.292 149.468 329.668 148.988 329.2C148.508 328.72 147.842 328.48 146.99 328.48C146.582 328.48 146.204 328.552 145.856 328.696C145.52 328.84 145.226 329.05 144.974 329.326C144.734 329.59 144.542 329.908 144.398 330.28C144.266 330.652 144.2 331.06 144.2 331.504V333.376H144.416C144.704 332.848 145.112 332.434 145.64 332.134C146.18 331.834 146.78 331.684 147.44 331.684C148.016 331.684 148.55 331.78 149.042 331.972C149.534 332.152 149.954 332.422 150.302 332.782C150.662 333.142 150.938 333.58 151.13 334.096C151.334 334.6 151.436 335.176 151.436 335.824V336.04C151.436 336.664 151.322 337.234 151.094 337.75C150.878 338.266 150.572 338.71 150.176 339.082C149.792 339.454 149.33 339.742 148.79 339.946C148.262 340.15 147.686 340.252 147.062 340.252C146.438 340.252 145.856 340.15 145.316 339.946C144.788 339.742 144.326 339.46 143.93 339.1C143.546 338.728 143.24 338.29 143.012 337.786C142.796 337.27 142.688 336.706 142.688 336.094V331.504C142.688 330.844 142.802 330.244 143.03 329.704C143.258 329.164 143.57 328.708 143.966 328.336C144.362 327.952 144.818 327.658 145.334 327.454C145.862 327.25 146.426 327.148 147.026 327.148C147.626 327.148 148.184 327.238 148.7 327.418C149.216 327.598 149.66 327.862 150.032 328.21C150.404 328.546 150.692 328.96 150.896 329.452C151.112 329.932 151.22 330.472 151.22 331.072H149.708ZM147.062 338.92C147.494 338.92 147.884 338.854 148.232 338.722C148.592 338.578 148.898 338.38 149.15 338.128C149.402 337.876 149.594 337.576 149.726 337.228C149.858 336.88 149.924 336.496 149.924 336.076V335.86C149.924 335.44 149.852 335.056 149.708 334.708C149.564 334.36 149.366 334.06 149.114 333.808C148.862 333.556 148.556 333.364 148.196 333.232C147.848 333.088 147.47 333.016 147.062 333.016C146.654 333.016 146.276 333.088 145.928 333.232C145.58 333.376 145.274 333.574 145.01 333.826C144.758 334.078 144.56 334.372 144.416 334.708C144.272 335.044 144.2 335.404 144.2 335.788V336.13C144.2 336.526 144.266 336.898 144.398 337.246C144.53 337.582 144.722 337.876 144.974 338.128C145.226 338.38 145.526 338.578 145.874 338.722C146.234 338.854 146.63 338.92 147.062 338.92Z" fill="white"/>
<path d="M231.351 189.164V186.968H229.407V189.164H228.111V186.968H226.131V185.672H228.111V183.728H226.131V182.432H228.111V180.236H229.407V182.432H231.351V180.236H232.647V182.432H234.627V183.728H232.647V185.672H234.627V186.968H232.647V189.164H231.351ZM231.351 183.728H229.407V185.672H231.351V183.728ZM237.369 182.072H240.123V179.804C240.123 179.396 240.249 179.06 240.501 178.796C240.765 178.532 241.101 178.4 241.509 178.4H245.037V179.696H242.013C241.689 179.696 241.527 179.876 241.527 180.236V182.072H245.253V183.368H241.527V191H240.123V183.368H237.369V182.072ZM249.506 186.968C249.542 187.856 249.818 188.57 250.334 189.11C250.85 189.65 251.57 189.92 252.494 189.92C252.914 189.92 253.28 189.872 253.592 189.776C253.904 189.68 254.168 189.548 254.384 189.38C254.612 189.212 254.792 189.02 254.924 188.804C255.068 188.576 255.182 188.336 255.266 188.084L256.598 188.444C256.346 189.272 255.878 189.95 255.194 190.478C254.522 190.994 253.61 191.252 252.458 191.252C251.822 191.252 251.234 191.144 250.694 190.928C250.166 190.7 249.71 190.382 249.326 189.974C248.942 189.566 248.642 189.08 248.426 188.516C248.21 187.952 248.102 187.328 248.102 186.644V186.212C248.102 185.588 248.21 185.006 248.426 184.466C248.654 183.926 248.966 183.464 249.362 183.08C249.758 182.684 250.22 182.378 250.748 182.162C251.288 181.934 251.87 181.82 252.494 181.82C253.226 181.82 253.856 181.958 254.384 182.234C254.924 182.498 255.362 182.828 255.698 183.224C256.046 183.62 256.298 184.052 256.454 184.52C256.622 184.988 256.706 185.42 256.706 185.816V186.968H249.506ZM252.494 183.152C252.098 183.152 251.726 183.218 251.378 183.35C251.042 183.47 250.742 183.644 250.478 183.872C250.226 184.1 250.016 184.37 249.848 184.682C249.692 184.982 249.59 185.312 249.542 185.672H255.302C255.278 185.288 255.182 184.94 255.014 184.628C254.858 184.316 254.648 184.052 254.384 183.836C254.132 183.62 253.838 183.452 253.502 183.332C253.178 183.212 252.842 183.152 252.494 183.152ZM260.797 187.328C260.797 188.108 261.037 188.738 261.517 189.218C261.997 189.686 262.663 189.92 263.515 189.92C263.923 189.92 264.295 189.848 264.631 189.704C264.979 189.56 265.273 189.356 265.513 189.092C265.765 188.816 265.957 188.498 266.089 188.138C266.233 187.766 266.305 187.352 266.305 186.896V185.024H266.089C265.813 185.552 265.417 185.966 264.901 186.266C264.385 186.566 263.785 186.716 263.101 186.716C262.513 186.716 261.973 186.626 261.481 186.446C260.989 186.266 260.563 186.002 260.203 185.654C259.843 185.294 259.561 184.862 259.357 184.358C259.165 183.854 259.069 183.278 259.069 182.63V182.414C259.069 181.79 259.177 181.22 259.393 180.704C259.609 180.176 259.909 179.726 260.293 179.354C260.689 178.97 261.151 178.676 261.679 178.472C262.219 178.256 262.807 178.148 263.443 178.148C264.079 178.148 264.661 178.256 265.189 178.472C265.729 178.676 266.191 178.964 266.575 179.336C266.971 179.708 267.277 180.152 267.493 180.668C267.709 181.184 267.817 181.748 267.817 182.36V186.896C267.817 187.568 267.703 188.174 267.475 188.714C267.259 189.242 266.953 189.698 266.557 190.082C266.173 190.454 265.717 190.742 265.189 190.946C264.661 191.15 264.091 191.252 263.479 191.252C262.867 191.252 262.303 191.162 261.787 190.982C261.271 190.802 260.827 190.544 260.455 190.208C260.083 189.86 259.795 189.446 259.591 188.966C259.387 188.474 259.285 187.928 259.285 187.328H260.797ZM263.443 179.48C263.011 179.48 262.615 179.552 262.255 179.696C261.907 179.84 261.607 180.044 261.355 180.308C261.103 180.572 260.911 180.884 260.779 181.244C260.647 181.592 260.581 181.97 260.581 182.378V182.594C260.581 183.014 260.653 183.398 260.797 183.746C260.941 184.082 261.139 184.376 261.391 184.628C261.643 184.868 261.943 185.054 262.291 185.186C262.639 185.318 263.023 185.384 263.443 185.384C263.851 185.384 264.229 185.318 264.577 185.186C264.925 185.042 265.225 184.85 265.477 184.61C265.741 184.37 265.945 184.082 266.089 183.746C266.233 183.41 266.305 183.05 266.305 182.666V182.324C266.305 181.928 266.239 181.556 266.107 181.208C265.975 180.86 265.783 180.56 265.531 180.308C265.279 180.044 264.973 179.84 264.613 179.696C264.265 179.552 263.875 179.48 263.443 179.48ZM277.003 189.488H276.787C276.499 190.088 276.097 190.532 275.581 190.82C275.077 191.108 274.543 191.252 273.979 191.252C273.391 191.252 272.845 191.156 272.341 190.964C271.837 190.76 271.393 190.466 271.009 190.082C270.637 189.686 270.343 189.206 270.127 188.642C269.911 188.078 269.803 187.424 269.803 186.68V186.392C269.803 185.66 269.911 185.012 270.127 184.448C270.343 183.884 270.637 183.41 271.009 183.026C271.393 182.63 271.837 182.33 272.341 182.126C272.845 181.922 273.379 181.82 273.943 181.82C274.555 181.82 275.107 181.958 275.599 182.234C276.103 182.498 276.499 182.912 276.787 183.476H277.003V182.072H278.407V189.164C278.407 189.524 278.569 189.704 278.893 189.704H279.343V191H278.389C277.981 191 277.645 190.868 277.381 190.604C277.129 190.34 277.003 190.004 277.003 189.596V189.488ZM274.123 189.92C274.543 189.92 274.927 189.842 275.275 189.686C275.635 189.53 275.941 189.308 276.193 189.02C276.445 188.732 276.643 188.39 276.787 187.994C276.931 187.586 277.003 187.136 277.003 186.644V186.428C277.003 185.948 276.931 185.51 276.787 185.114C276.643 184.706 276.439 184.358 276.175 184.07C275.923 183.782 275.617 183.56 275.257 183.404C274.909 183.236 274.531 183.152 274.123 183.152C273.703 183.152 273.319 183.23 272.971 183.386C272.623 183.542 272.317 183.764 272.053 184.052C271.801 184.328 271.603 184.67 271.459 185.078C271.315 185.474 271.243 185.912 271.243 186.392V186.68C271.243 187.7 271.507 188.498 272.035 189.074C272.575 189.638 273.271 189.92 274.123 189.92ZM281.058 183.296C281.058 181.664 281.448 180.398 282.228 179.498C283.008 178.598 284.094 178.148 285.486 178.148C286.878 178.148 287.964 178.598 288.744 179.498C289.524 180.398 289.914 181.664 289.914 183.296V186.104C289.914 187.784 289.524 189.062 288.744 189.938C287.964 190.814 286.878 191.252 285.486 191.252C284.094 191.252 283.008 190.814 282.228 189.938C281.448 189.062 281.058 187.784 281.058 186.104V183.296ZM285.486 189.884C286.458 189.884 287.184 189.548 287.664 188.876C288.156 188.192 288.402 187.232 288.402 185.996V183.404C288.402 182.828 288.342 182.306 288.222 181.838C288.102 181.358 287.916 180.95 287.664 180.614C287.424 180.266 287.118 179.996 286.746 179.804C286.386 179.612 285.966 179.516 285.486 179.516C284.994 179.516 284.568 179.612 284.208 179.804C283.848 179.996 283.542 180.266 283.29 180.614C283.05 180.95 282.87 181.358 282.75 181.838C282.63 182.306 282.57 182.828 282.57 183.404V185.996C282.57 187.232 282.81 188.192 283.29 188.876C283.782 189.548 284.514 189.884 285.486 189.884ZM284.334 184.7C284.334 184.388 284.448 184.118 284.676 183.89C284.904 183.662 285.174 183.548 285.486 183.548C285.798 183.548 286.068 183.662 286.296 183.89C286.524 184.118 286.638 184.388 286.638 184.7C286.638 185.012 286.524 185.282 286.296 185.51C286.068 185.738 285.798 185.852 285.486 185.852C285.174 185.852 284.904 185.738 284.676 185.51C284.448 185.282 284.334 185.012 284.334 184.7ZM292.404 185.06V178.4H300.288V179.804H293.88V184.304H294.096C294.216 184.064 294.372 183.836 294.564 183.62C294.756 183.392 294.978 183.194 295.23 183.026C295.494 182.858 295.788 182.726 296.112 182.63C296.436 182.522 296.796 182.468 297.192 182.468C297.768 182.468 298.296 182.564 298.776 182.756C299.268 182.948 299.688 183.218 300.036 183.566C300.384 183.914 300.654 184.334 300.846 184.826C301.05 185.318 301.152 185.864 301.152 186.464V186.788C301.152 187.388 301.056 187.958 300.864 188.498C300.672 189.026 300.39 189.5 300.018 189.92C299.646 190.328 299.184 190.652 298.632 190.892C298.08 191.132 297.444 191.252 296.724 191.252C295.992 191.252 295.344 191.144 294.78 190.928C294.216 190.712 293.742 190.412 293.358 190.028C292.974 189.644 292.68 189.194 292.476 188.678C292.284 188.15 292.188 187.58 292.188 186.968V186.464H293.7V186.86C293.7 187.856 293.976 188.606 294.528 189.11C295.092 189.602 295.824 189.848 296.724 189.848C297.204 189.848 297.624 189.764 297.984 189.596C298.356 189.416 298.662 189.182 298.902 188.894C299.154 188.594 299.34 188.252 299.46 187.868C299.58 187.472 299.64 187.064 299.64 186.644V186.536C299.64 186.164 299.574 185.816 299.442 185.492C299.322 185.168 299.148 184.886 298.92 184.646C298.704 184.406 298.434 184.22 298.11 184.088C297.798 183.944 297.456 183.872 297.084 183.872C296.832 183.872 296.598 183.908 296.382 183.98C296.178 184.052 295.998 184.148 295.842 184.268C295.686 184.376 295.554 184.502 295.446 184.646C295.35 184.79 295.284 184.928 295.248 185.06H292.404Z" fill="white"/>
<path d="M231.351 338.164V335.968H229.407V338.164H228.111V335.968H226.131V334.672H228.111V332.728H226.131V331.432H228.111V329.236H229.407V331.432H231.351V329.236H232.647V331.432H234.627V332.728H232.647V334.672H234.627V335.968H232.647V338.164H231.351ZM231.351 332.728H229.407V334.672H231.351V332.728ZM245.685 338.596V340H237.153V337.84C237.153 337.264 237.249 336.766 237.441 336.346C237.633 335.914 237.903 335.548 238.251 335.248C238.611 334.936 239.043 334.678 239.547 334.474C240.051 334.27 240.621 334.096 241.257 333.952C242.325 333.712 243.093 333.37 243.561 332.926C244.041 332.482 244.281 331.936 244.281 331.288V331.18C244.281 330.856 244.227 330.538 244.119 330.226C244.011 329.914 243.843 329.632 243.615 329.38C243.387 329.128 243.093 328.93 242.733 328.786C242.385 328.63 241.965 328.552 241.473 328.552C240.549 328.552 239.829 328.834 239.313 329.398C238.809 329.962 238.557 330.712 238.557 331.648V332.44H237.045V331.54C237.045 330.964 237.141 330.412 237.333 329.884C237.525 329.356 237.807 328.888 238.179 328.48C238.551 328.072 239.013 327.748 239.565 327.508C240.117 327.268 240.753 327.148 241.473 327.148C242.205 327.148 242.841 327.262 243.381 327.49C243.921 327.706 244.371 328 244.731 328.372C245.091 328.732 245.355 329.146 245.523 329.614C245.703 330.07 245.793 330.538 245.793 331.018V331.342C245.793 332.302 245.493 333.124 244.893 333.808C244.293 334.48 243.333 334.96 242.013 335.248C240.861 335.5 240.015 335.836 239.475 336.256C238.935 336.664 238.665 337.264 238.665 338.056V338.596H245.685ZM251.18 333.736V331.648L255.284 329.02V328.804H248.156V327.4H256.58V329.704L252.476 332.332V332.548H253.196C253.676 332.548 254.138 332.626 254.582 332.782C255.026 332.938 255.416 333.166 255.752 333.466C256.1 333.766 256.376 334.138 256.58 334.582C256.796 335.014 256.904 335.518 256.904 336.094V336.418C256.904 336.958 256.796 337.462 256.58 337.93C256.364 338.398 256.064 338.806 255.68 339.154C255.296 339.49 254.84 339.76 254.312 339.964C253.796 340.156 253.232 340.252 252.62 340.252C251.912 340.252 251.276 340.144 250.712 339.928C250.148 339.712 249.668 339.418 249.272 339.046C248.876 338.662 248.57 338.218 248.354 337.714C248.15 337.198 248.048 336.652 248.048 336.076V335.104H249.56V335.968C249.56 336.424 249.632 336.832 249.776 337.192C249.932 337.54 250.142 337.84 250.406 338.092C250.682 338.332 251.006 338.518 251.378 338.65C251.75 338.782 252.152 338.848 252.584 338.848C252.98 338.848 253.346 338.782 253.682 338.65C254.03 338.518 254.33 338.338 254.582 338.11C254.834 337.87 255.032 337.594 255.176 337.282C255.32 336.958 255.392 336.616 255.392 336.256V336.148C255.392 335.392 255.152 334.804 254.672 334.384C254.192 333.952 253.592 333.736 252.872 333.736H251.18ZM262.777 338.596V328.066H262.561L260.491 332.8H258.997V332.692L261.355 327.4H264.289V338.596H267.853V340H259.213V338.596H262.777ZM270.433 331.072H273.187V328.804C273.187 328.396 273.313 328.06 273.565 327.796C273.829 327.532 274.165 327.4 274.573 327.4H278.101V328.696H275.077C274.753 328.696 274.591 328.876 274.591 329.236V331.072H278.317V332.368H274.591V340H273.187V332.368H270.433V331.072ZM289.77 338.596V340H281.238V337.84C281.238 337.264 281.334 336.766 281.526 336.346C281.718 335.914 281.988 335.548 282.336 335.248C282.696 334.936 283.128 334.678 283.632 334.474C284.136 334.27 284.706 334.096 285.342 333.952C286.41 333.712 287.178 333.37 287.646 332.926C288.126 332.482 288.366 331.936 288.366 331.288V331.18C288.366 330.856 288.312 330.538 288.204 330.226C288.096 329.914 287.928 329.632 287.7 329.38C287.472 329.128 287.178 328.93 286.818 328.786C286.47 328.63 286.05 328.552 285.558 328.552C284.634 328.552 283.914 328.834 283.398 329.398C282.894 329.962 282.642 330.712 282.642 331.648V332.44H281.13V331.54C281.13 330.964 281.226 330.412 281.418 329.884C281.61 329.356 281.892 328.888 282.264 328.48C282.636 328.072 283.098 327.748 283.65 327.508C284.202 327.268 284.838 327.148 285.558 327.148C286.29 327.148 286.926 327.262 287.466 327.49C288.006 327.706 288.456 328 288.816 328.372C289.176 328.732 289.44 329.146 289.608 329.614C289.788 330.07 289.878 330.538 289.878 331.018V331.342C289.878 332.302 289.578 333.124 288.978 333.808C288.378 334.48 287.418 334.96 286.098 335.248C284.946 335.5 284.1 335.836 283.56 336.256C283.02 336.664 282.75 337.264 282.75 338.056V338.596H289.77ZM292.08 332.296C292.08 330.664 292.47 329.398 293.25 328.498C294.03 327.598 295.116 327.148 296.508 327.148C297.9 327.148 298.986 327.598 299.766 328.498C300.546 329.398 300.936 330.664 300.936 332.296V335.104C300.936 336.784 300.546 338.062 299.766 338.938C298.986 339.814 297.9 340.252 296.508 340.252C295.116 340.252 294.03 339.814 293.25 338.938C292.47 338.062 292.08 336.784 292.08 335.104V332.296ZM296.508 338.884C297.48 338.884 298.206 338.548 298.686 337.876C299.178 337.192 299.424 336.232 299.424 334.996V332.404C299.424 331.828 299.364 331.306 299.244 330.838C299.124 330.358 298.938 329.95 298.686 329.614C298.446 329.266 298.14 328.996 297.768 328.804C297.408 328.612 296.988 328.516 296.508 328.516C296.016 328.516 295.59 328.612 295.23 328.804C294.87 328.996 294.564 329.266 294.312 329.614C294.072 329.95 293.892 330.358 293.772 330.838C293.652 331.306 293.592 331.828 293.592 332.404V334.996C293.592 336.232 293.832 337.192 294.312 337.876C294.804 338.548 295.536 338.884 296.508 338.884ZM295.356 333.7C295.356 333.388 295.47 333.118 295.698 332.89C295.926 332.662 296.196 332.548 296.508 332.548C296.82 332.548 297.09 332.662 297.318 332.89C297.546 333.118 297.66 333.388 297.66 333.7C297.66 334.012 297.546 334.282 297.318 334.51C297.09 334.738 296.82 334.852 296.508 334.852C296.196 334.852 295.926 334.738 295.698 334.51C295.47 334.282 295.356 334.012 295.356 333.7Z" fill="white"/>
</svg>
