<svg width="786" height="300" viewBox="0 0 786 300" fill="none" xmlns="http://www.w3.org/2000/svg">
<rect width="786" height="300" rx="5" fill="white"/>
<path d="M54.34 56.104C54.7413 56.104 55.082 56.0387 55.362 55.908C55.6513 55.768 55.8847 55.586 56.062 55.362C56.2487 55.1287 56.384 54.8673 56.468 54.578C56.5613 54.2793 56.608 53.9667 56.608 53.64V53.472H57.784V53.64C57.784 54.1347 57.7093 54.6013 57.56 55.04C57.4107 55.4693 57.1913 55.8473 56.902 56.174C56.6127 56.4913 56.2533 56.7433 55.824 56.93C55.3947 57.1073 54.9 57.196 54.34 57.196C53.2573 57.196 52.4127 56.8553 51.806 56.174C51.1993 55.4927 50.896 54.4987 50.896 53.192V51.008C50.896 49.7387 51.1993 48.754 51.806 48.054C52.4127 47.354 53.2573 47.004 54.34 47.004C54.9 47.004 55.3947 47.0973 55.824 47.284C56.2533 47.4613 56.6127 47.7133 56.902 48.04C57.1913 48.3573 57.4107 48.7353 57.56 49.174C57.7093 49.6033 57.784 50.0653 57.784 50.56V50.728H56.608V50.56C56.5987 50.2427 56.5473 49.9347 56.454 49.636C56.37 49.3373 56.2347 49.076 56.048 48.852C55.8707 48.6187 55.642 48.4367 55.362 48.306C55.082 48.166 54.7413 48.096 54.34 48.096C53.584 48.096 53.0147 48.3713 52.632 48.922C52.2587 49.4727 52.072 50.196 52.072 51.092V53.108C52.072 54.0693 52.2587 54.8113 52.632 55.334C53.0147 55.8473 53.584 56.104 54.34 56.104ZM62.2123 51.008C62.2123 49.7387 62.5156 48.754 63.1223 48.054C63.7289 47.354 64.5736 47.004 65.6563 47.004C66.7389 47.004 67.5836 47.354 68.1903 48.054C68.7969 48.754 69.1003 49.7387 69.1003 51.008V53.192C69.1003 54.4987 68.7969 55.4927 68.1903 56.174C67.5836 56.8553 66.7389 57.196 65.6563 57.196C64.5736 57.196 63.7289 56.8553 63.1223 56.174C62.5156 55.4927 62.2123 54.4987 62.2123 53.192V51.008ZM65.6563 56.104C66.4123 56.104 66.9769 55.8473 67.3503 55.334C67.7329 54.8113 67.9243 54.0693 67.9243 53.108V51.092C67.9243 50.196 67.7329 49.4727 67.3503 48.922C66.9769 48.3713 66.4123 48.096 65.6563 48.096C64.9003 48.096 64.3309 48.3713 63.9483 48.922C63.5749 49.4727 63.3883 50.196 63.3883 51.092V53.108C63.3883 54.0693 63.5749 54.8113 63.9483 55.334C64.3309 55.8473 64.9003 56.104 65.6563 56.104ZM73.9625 47.2H75.1385V55.908H80.2625V57H73.9625V47.2ZM84.9568 51.008C84.9568 49.7387 85.2601 48.754 85.8668 48.054C86.4735 47.354 87.3181 47.004 88.4008 47.004C89.4835 47.004 90.3281 47.354 90.9348 48.054C91.5415 48.754 91.8448 49.7387 91.8448 51.008V53.192C91.8448 54.4987 91.5415 55.4927 90.9348 56.174C90.3281 56.8553 89.4835 57.196 88.4008 57.196C87.3181 57.196 86.4735 56.8553 85.8668 56.174C85.2601 55.4927 84.9568 54.4987 84.9568 53.192V51.008ZM88.4008 56.104C89.1568 56.104 89.7215 55.8473 90.0948 55.334C90.4775 54.8113 90.6688 54.0693 90.6688 53.108V51.092C90.6688 50.196 90.4775 49.4727 90.0948 48.922C89.7215 48.3713 89.1568 48.096 88.4008 48.096C87.6448 48.096 87.0755 48.3713 86.6928 48.922C86.3195 49.4727 86.1328 50.196 86.1328 51.092V53.108C86.1328 54.0693 86.3195 54.8113 86.6928 55.334C87.0755 55.8473 87.6448 56.104 88.4008 56.104ZM97.5891 47.2V53.696C97.5891 54.4893 97.7711 55.0913 98.1351 55.502C98.5084 55.9033 99.0544 56.104 99.7731 56.104C100.492 56.104 101.033 55.9033 101.397 55.502C101.77 55.0913 101.957 54.4893 101.957 53.696V47.2H103.133V53.696C103.133 54.8347 102.834 55.7027 102.237 56.3C101.64 56.8973 100.818 57.196 99.7731 57.196C98.7277 57.196 97.9064 56.8973 97.3091 56.3C96.7117 55.7027 96.4131 54.8347 96.4131 53.696V47.2H97.5891ZM114.211 57H113.035V53.724C113.035 53.4813 112.979 53.2947 112.867 53.164C112.755 53.0333 112.559 52.968 112.279 52.968H109.227V57H108.051V47.2H111.551C112.055 47.2 112.494 47.2747 112.867 47.424C113.241 47.564 113.549 47.7553 113.791 47.998C114.043 48.2407 114.23 48.5253 114.351 48.852C114.482 49.1693 114.547 49.5053 114.547 49.86V50.28C114.547 50.644 114.445 51.008 114.239 51.372C114.043 51.736 113.735 52.016 113.315 52.212V52.38C113.595 52.4267 113.815 52.5387 113.973 52.716C114.132 52.8933 114.211 53.1453 114.211 53.472V57ZM109.227 51.876H111.411C112.074 51.876 112.564 51.736 112.881 51.456C113.208 51.1667 113.371 50.7467 113.371 50.196V49.944C113.371 49.4493 113.208 49.0527 112.881 48.754C112.564 48.446 112.074 48.292 111.411 48.292H109.227V51.876ZM124.828 50.028C124.828 49.7107 124.762 49.4307 124.632 49.188C124.51 48.9453 124.342 48.7447 124.128 48.586C123.913 48.4273 123.666 48.306 123.386 48.222C123.106 48.138 122.812 48.096 122.504 48.096C122.233 48.096 121.976 48.1333 121.734 48.208C121.491 48.2733 121.272 48.3713 121.076 48.502C120.889 48.6327 120.74 48.796 120.628 48.992C120.516 49.1787 120.46 49.398 120.46 49.65V49.734C120.46 50.0047 120.516 50.238 120.628 50.434C120.74 50.6207 120.903 50.784 121.118 50.924C121.342 51.0547 121.617 51.1667 121.944 51.26C122.27 51.344 122.653 51.4187 123.092 51.484C124.118 51.6427 124.874 51.946 125.36 52.394C125.845 52.8327 126.088 53.4253 126.088 54.172V54.34C126.088 54.76 126.013 55.1473 125.864 55.502C125.724 55.8473 125.509 56.146 125.22 56.398C124.94 56.65 124.59 56.846 124.17 56.986C123.75 57.126 123.264 57.196 122.714 57.196C122.088 57.196 121.533 57.1073 121.048 56.93C120.572 56.7433 120.17 56.4913 119.844 56.174C119.526 55.8473 119.284 55.4693 119.116 55.04C118.948 54.6013 118.864 54.1253 118.864 53.612V53.192H120.04V53.528C120.04 54.3867 120.273 55.0307 120.74 55.46C121.216 55.8893 121.874 56.104 122.714 56.104C123.442 56.104 123.988 55.9453 124.352 55.628C124.725 55.3013 124.912 54.872 124.912 54.34V54.256C124.912 53.7427 124.72 53.3507 124.338 53.08C123.964 52.8093 123.353 52.6133 122.504 52.492C122.009 52.4267 121.561 52.3287 121.16 52.198C120.768 52.058 120.432 51.8807 120.152 51.666C119.872 51.442 119.657 51.176 119.508 50.868C119.358 50.56 119.284 50.196 119.284 49.776V49.608C119.284 49.2253 119.363 48.8753 119.522 48.558C119.68 48.2407 119.9 47.9653 120.18 47.732C120.469 47.4987 120.81 47.3213 121.202 47.2C121.603 47.0693 122.042 47.004 122.518 47.004C123.068 47.004 123.558 47.0833 123.988 47.242C124.426 47.4007 124.795 47.6153 125.094 47.886C125.392 48.1473 125.616 48.46 125.766 48.824C125.924 49.1787 126.004 49.552 126.004 49.944V50.532H124.828V50.028Z" fill="black"/>
<line x1="50.75" y1="79.25" x2="735.25" y2="79.25" stroke="#DBDBDB" stroke-width="1.5" stroke-linecap="round"/>
<path d="M50 105C50 102.239 52.2386 100 55 100H195C197.761 100 200 102.239 200 105V245C200 247.761 197.761 250 195 250H55C52.2386 250 50 247.761 50 245V105Z" fill="#FEB000"/>
<path d="M225 105C225 102.239 227.239 100 230 100H370C372.761 100 375 102.239 375 105V245C375 247.761 372.761 250 370 250H230C227.239 250 225 247.761 225 245V105Z" fill="#FE9A05"/>
<path d="M400 105C400 102.239 402.239 100 405 100H545C547.761 100 550 102.239 550 105V245C550 247.761 547.761 250 545 250H405C402.239 250 400 247.761 400 245V105Z" fill="#666666"/>
<path d="M575 105C575 102.239 577.239 100 580 100H720C722.761 100 725 102.239 725 105V245C725 247.761 722.761 250 720 250H580C577.239 250 575 247.761 575 245V105Z" fill="#231F20"/>
<path d="M92.9048 177.164V174.968H90.9608V177.164H89.6648V174.968H87.6848V173.672H89.6648V171.728H87.6848V170.432H89.6648V168.236H90.9608V170.432H92.9048V168.236H94.2008V170.432H96.1808V171.728H94.2008V173.672H96.1808V174.968H94.2008V177.164H92.9048ZM92.9048 171.728H90.9608V173.672H92.9048V171.728ZM98.9223 170.072H101.676V167.804C101.676 167.396 101.802 167.06 102.054 166.796C102.318 166.532 102.654 166.4 103.062 166.4H106.59V167.696H103.566C103.242 167.696 103.08 167.876 103.08 168.236V170.072H106.806V171.368H103.08V179H101.676V171.368H98.9223V170.072ZM111.06 174.968C111.096 175.856 111.372 176.57 111.888 177.11C112.404 177.65 113.124 177.92 114.048 177.92C114.468 177.92 114.834 177.872 115.146 177.776C115.458 177.68 115.722 177.548 115.938 177.38C116.166 177.212 116.346 177.02 116.478 176.804C116.622 176.576 116.736 176.336 116.82 176.084L118.152 176.444C117.9 177.272 117.432 177.95 116.748 178.478C116.076 178.994 115.164 179.252 114.012 179.252C113.376 179.252 112.788 179.144 112.248 178.928C111.72 178.7 111.264 178.382 110.88 177.974C110.496 177.566 110.196 177.08 109.98 176.516C109.764 175.952 109.656 175.328 109.656 174.644V174.212C109.656 173.588 109.764 173.006 109.98 172.466C110.208 171.926 110.52 171.464 110.916 171.08C111.312 170.684 111.774 170.378 112.302 170.162C112.842 169.934 113.424 169.82 114.048 169.82C114.78 169.82 115.41 169.958 115.938 170.234C116.478 170.498 116.916 170.828 117.252 171.224C117.6 171.62 117.852 172.052 118.008 172.52C118.176 172.988 118.26 173.42 118.26 173.816V174.968H111.06ZM114.048 171.152C113.652 171.152 113.28 171.218 112.932 171.35C112.596 171.47 112.296 171.644 112.032 171.872C111.78 172.1 111.57 172.37 111.402 172.682C111.246 172.982 111.144 173.312 111.096 173.672H116.856C116.832 173.288 116.736 172.94 116.568 172.628C116.412 172.316 116.202 172.052 115.938 171.836C115.686 171.62 115.392 171.452 115.056 171.332C114.732 171.212 114.396 171.152 114.048 171.152ZM122.135 179H120.731V166.4H122.135V171.476H122.351C122.663 170.936 123.095 170.528 123.647 170.252C124.199 169.964 124.799 169.82 125.447 169.82C125.999 169.82 126.521 169.922 127.013 170.126C127.505 170.33 127.937 170.624 128.309 171.008C128.693 171.392 128.993 171.866 129.209 172.43C129.437 172.994 129.551 173.636 129.551 174.356V174.716C129.551 175.448 129.443 176.096 129.227 176.66C129.011 177.224 128.711 177.698 128.327 178.082C127.955 178.466 127.517 178.76 127.013 178.964C126.509 179.156 125.975 179.252 125.411 179.252C125.123 179.252 124.829 179.216 124.529 179.144C124.229 179.084 123.941 178.988 123.665 178.856C123.401 178.712 123.155 178.544 122.927 178.352C122.699 178.148 122.507 177.908 122.351 177.632H122.135V179ZM125.123 177.92C125.555 177.92 125.951 177.848 126.311 177.704C126.671 177.548 126.983 177.332 127.247 177.056C127.523 176.78 127.733 176.444 127.877 176.048C128.033 175.652 128.111 175.208 128.111 174.716V174.356C128.111 173.876 128.033 173.444 127.877 173.06C127.733 172.664 127.523 172.328 127.247 172.052C126.983 171.764 126.665 171.542 126.293 171.386C125.933 171.23 125.543 171.152 125.123 171.152C124.703 171.152 124.313 171.236 123.953 171.404C123.593 171.56 123.275 171.782 122.999 172.07C122.735 172.358 122.525 172.706 122.369 173.114C122.213 173.51 122.135 173.948 122.135 174.428V174.644C122.135 175.136 122.213 175.586 122.369 175.994C122.525 176.39 122.735 176.732 122.999 177.02C123.275 177.308 123.593 177.53 123.953 177.686C124.313 177.842 124.703 177.92 125.123 177.92ZM131.591 171.296C131.591 169.664 131.981 168.398 132.761 167.498C133.541 166.598 134.627 166.148 136.019 166.148C137.411 166.148 138.497 166.598 139.277 167.498C140.057 168.398 140.447 169.664 140.447 171.296V174.104C140.447 175.784 140.057 177.062 139.277 177.938C138.497 178.814 137.411 179.252 136.019 179.252C134.627 179.252 133.541 178.814 132.761 177.938C131.981 177.062 131.591 175.784 131.591 174.104V171.296ZM136.019 177.884C136.991 177.884 137.717 177.548 138.197 176.876C138.689 176.192 138.935 175.232 138.935 173.996V171.404C138.935 170.828 138.875 170.306 138.755 169.838C138.635 169.358 138.449 168.95 138.197 168.614C137.957 168.266 137.651 167.996 137.279 167.804C136.919 167.612 136.499 167.516 136.019 167.516C135.527 167.516 135.101 167.612 134.741 167.804C134.381 167.996 134.075 168.266 133.823 168.614C133.583 168.95 133.403 169.358 133.283 169.838C133.163 170.306 133.103 170.828 133.103 171.404V173.996C133.103 175.232 133.343 176.192 133.823 176.876C134.315 177.548 135.047 177.884 136.019 177.884ZM134.867 172.7C134.867 172.388 134.981 172.118 135.209 171.89C135.437 171.662 135.707 171.548 136.019 171.548C136.331 171.548 136.601 171.662 136.829 171.89C137.057 172.118 137.171 172.388 137.171 172.7C137.171 173.012 137.057 173.282 136.829 173.51C136.601 173.738 136.331 173.852 136.019 173.852C135.707 173.852 135.437 173.738 135.209 173.51C134.981 173.282 134.867 173.012 134.867 172.7ZM142.612 171.296C142.612 169.664 143.002 168.398 143.782 167.498C144.562 166.598 145.648 166.148 147.04 166.148C148.432 166.148 149.518 166.598 150.298 167.498C151.078 168.398 151.468 169.664 151.468 171.296V174.104C151.468 175.784 151.078 177.062 150.298 177.938C149.518 178.814 148.432 179.252 147.04 179.252C145.648 179.252 144.562 178.814 143.782 177.938C143.002 177.062 142.612 175.784 142.612 174.104V171.296ZM147.04 177.884C148.012 177.884 148.738 177.548 149.218 176.876C149.71 176.192 149.956 175.232 149.956 173.996V171.404C149.956 170.828 149.896 170.306 149.776 169.838C149.656 169.358 149.47 168.95 149.218 168.614C148.978 168.266 148.672 167.996 148.3 167.804C147.94 167.612 147.52 167.516 147.04 167.516C146.548 167.516 146.122 167.612 145.762 167.804C145.402 167.996 145.096 168.266 144.844 168.614C144.604 168.95 144.424 169.358 144.304 169.838C144.184 170.306 144.124 170.828 144.124 171.404V173.996C144.124 175.232 144.364 176.192 144.844 176.876C145.336 177.548 146.068 177.884 147.04 177.884ZM145.888 172.7C145.888 172.388 146.002 172.118 146.23 171.89C146.458 171.662 146.728 171.548 147.04 171.548C147.352 171.548 147.622 171.662 147.85 171.89C148.078 172.118 148.192 172.388 148.192 172.7C148.192 173.012 148.078 173.282 147.85 173.51C147.622 173.738 147.352 173.852 147.04 173.852C146.728 173.852 146.458 173.738 146.23 173.51C146.002 173.282 145.888 173.012 145.888 172.7ZM153.634 171.296C153.634 169.664 154.024 168.398 154.804 167.498C155.584 166.598 156.67 166.148 158.062 166.148C159.454 166.148 160.54 166.598 161.32 167.498C162.1 168.398 162.49 169.664 162.49 171.296V174.104C162.49 175.784 162.1 177.062 161.32 177.938C160.54 178.814 159.454 179.252 158.062 179.252C156.67 179.252 155.584 178.814 154.804 177.938C154.024 177.062 153.634 175.784 153.634 174.104V171.296ZM158.062 177.884C159.034 177.884 159.76 177.548 160.24 176.876C160.732 176.192 160.978 175.232 160.978 173.996V171.404C160.978 170.828 160.918 170.306 160.798 169.838C160.678 169.358 160.492 168.95 160.24 168.614C160 168.266 159.694 167.996 159.322 167.804C158.962 167.612 158.542 167.516 158.062 167.516C157.57 167.516 157.144 167.612 156.784 167.804C156.424 167.996 156.118 168.266 155.866 168.614C155.626 168.95 155.446 169.358 155.326 169.838C155.206 170.306 155.146 170.828 155.146 171.404V173.996C155.146 175.232 155.386 176.192 155.866 176.876C156.358 177.548 157.09 177.884 158.062 177.884ZM156.91 172.7C156.91 172.388 157.024 172.118 157.252 171.89C157.48 171.662 157.75 171.548 158.062 171.548C158.374 171.548 158.644 171.662 158.872 171.89C159.1 172.118 159.214 172.388 159.214 172.7C159.214 173.012 159.1 173.282 158.872 173.51C158.644 173.738 158.374 173.852 158.062 173.852C157.75 173.852 157.48 173.738 157.252 173.51C157.024 173.282 156.91 173.012 156.91 172.7Z" fill="#0C1E33"/>
<path d="M268.405 177.164V174.968H266.461V177.164H265.165V174.968H263.185V173.672H265.165V171.728H263.185V170.432H265.165V168.236H266.461V170.432H268.405V168.236H269.701V170.432H271.681V171.728H269.701V173.672H271.681V174.968H269.701V177.164H268.405ZM268.405 171.728H266.461V173.672H268.405V171.728ZM274.422 170.072H277.176V167.804C277.176 167.396 277.302 167.06 277.554 166.796C277.818 166.532 278.154 166.4 278.562 166.4H282.09V167.696H279.066C278.742 167.696 278.58 167.876 278.58 168.236V170.072H282.306V171.368H278.58V179H277.176V171.368H274.422V170.072ZM286.56 174.968C286.596 175.856 286.872 176.57 287.388 177.11C287.904 177.65 288.624 177.92 289.548 177.92C289.968 177.92 290.334 177.872 290.646 177.776C290.958 177.68 291.222 177.548 291.438 177.38C291.666 177.212 291.846 177.02 291.978 176.804C292.122 176.576 292.236 176.336 292.32 176.084L293.652 176.444C293.4 177.272 292.932 177.95 292.248 178.478C291.576 178.994 290.664 179.252 289.512 179.252C288.876 179.252 288.288 179.144 287.748 178.928C287.22 178.7 286.764 178.382 286.38 177.974C285.996 177.566 285.696 177.08 285.48 176.516C285.264 175.952 285.156 175.328 285.156 174.644V174.212C285.156 173.588 285.264 173.006 285.48 172.466C285.708 171.926 286.02 171.464 286.416 171.08C286.812 170.684 287.274 170.378 287.802 170.162C288.342 169.934 288.924 169.82 289.548 169.82C290.28 169.82 290.91 169.958 291.438 170.234C291.978 170.498 292.416 170.828 292.752 171.224C293.1 171.62 293.352 172.052 293.508 172.52C293.676 172.988 293.76 173.42 293.76 173.816V174.968H286.56ZM289.548 171.152C289.152 171.152 288.78 171.218 288.432 171.35C288.096 171.47 287.796 171.644 287.532 171.872C287.28 172.1 287.07 172.37 286.902 172.682C286.746 172.982 286.644 173.312 286.596 173.672H292.356C292.332 173.288 292.236 172.94 292.068 172.628C291.912 172.316 291.702 172.052 291.438 171.836C291.186 171.62 290.892 171.452 290.556 171.332C290.232 171.212 289.896 171.152 289.548 171.152ZM297.851 175.328C297.851 176.108 298.091 176.738 298.571 177.218C299.051 177.686 299.717 177.92 300.569 177.92C300.977 177.92 301.349 177.848 301.685 177.704C302.033 177.56 302.327 177.356 302.567 177.092C302.819 176.816 303.011 176.498 303.143 176.138C303.287 175.766 303.359 175.352 303.359 174.896V173.024H303.143C302.867 173.552 302.471 173.966 301.955 174.266C301.439 174.566 300.839 174.716 300.155 174.716C299.567 174.716 299.027 174.626 298.535 174.446C298.043 174.266 297.617 174.002 297.257 173.654C296.897 173.294 296.615 172.862 296.411 172.358C296.219 171.854 296.123 171.278 296.123 170.63V170.414C296.123 169.79 296.231 169.22 296.447 168.704C296.663 168.176 296.963 167.726 297.347 167.354C297.743 166.97 298.205 166.676 298.733 166.472C299.273 166.256 299.861 166.148 300.497 166.148C301.133 166.148 301.715 166.256 302.243 166.472C302.783 166.676 303.245 166.964 303.629 167.336C304.025 167.708 304.331 168.152 304.547 168.668C304.763 169.184 304.871 169.748 304.871 170.36V174.896C304.871 175.568 304.757 176.174 304.529 176.714C304.313 177.242 304.007 177.698 303.611 178.082C303.227 178.454 302.771 178.742 302.243 178.946C301.715 179.15 301.145 179.252 300.533 179.252C299.921 179.252 299.357 179.162 298.841 178.982C298.325 178.802 297.881 178.544 297.509 178.208C297.137 177.86 296.849 177.446 296.645 176.966C296.441 176.474 296.339 175.928 296.339 175.328H297.851ZM300.497 167.48C300.065 167.48 299.669 167.552 299.309 167.696C298.961 167.84 298.661 168.044 298.409 168.308C298.157 168.572 297.965 168.884 297.833 169.244C297.701 169.592 297.635 169.97 297.635 170.378V170.594C297.635 171.014 297.707 171.398 297.851 171.746C297.995 172.082 298.193 172.376 298.445 172.628C298.697 172.868 298.997 173.054 299.345 173.186C299.693 173.318 300.077 173.384 300.497 173.384C300.905 173.384 301.283 173.318 301.631 173.186C301.979 173.042 302.279 172.85 302.531 172.61C302.795 172.37 302.999 172.082 303.143 171.746C303.287 171.41 303.359 171.05 303.359 170.666V170.324C303.359 169.928 303.293 169.556 303.161 169.208C303.029 168.86 302.837 168.56 302.585 168.308C302.333 168.044 302.027 167.84 301.667 167.696C301.319 167.552 300.929 167.48 300.497 167.48ZM314.057 177.488H313.841C313.553 178.088 313.151 178.532 312.635 178.82C312.131 179.108 311.597 179.252 311.033 179.252C310.445 179.252 309.899 179.156 309.395 178.964C308.891 178.76 308.447 178.466 308.063 178.082C307.691 177.686 307.397 177.206 307.181 176.642C306.965 176.078 306.857 175.424 306.857 174.68V174.392C306.857 173.66 306.965 173.012 307.181 172.448C307.397 171.884 307.691 171.41 308.063 171.026C308.447 170.63 308.891 170.33 309.395 170.126C309.899 169.922 310.433 169.82 310.997 169.82C311.609 169.82 312.161 169.958 312.653 170.234C313.157 170.498 313.553 170.912 313.841 171.476H314.057V170.072H315.461V177.164C315.461 177.524 315.623 177.704 315.947 177.704H316.397V179H315.443C315.035 179 314.699 178.868 314.435 178.604C314.183 178.34 314.057 178.004 314.057 177.596V177.488ZM311.177 177.92C311.597 177.92 311.981 177.842 312.329 177.686C312.689 177.53 312.995 177.308 313.247 177.02C313.499 176.732 313.697 176.39 313.841 175.994C313.985 175.586 314.057 175.136 314.057 174.644V174.428C314.057 173.948 313.985 173.51 313.841 173.114C313.697 172.706 313.493 172.358 313.229 172.07C312.977 171.782 312.671 171.56 312.311 171.404C311.963 171.236 311.585 171.152 311.177 171.152C310.757 171.152 310.373 171.23 310.025 171.386C309.677 171.542 309.371 171.764 309.107 172.052C308.855 172.328 308.657 172.67 308.513 173.078C308.369 173.474 308.297 173.912 308.297 174.392V174.68C308.297 175.7 308.561 176.498 309.089 177.074C309.629 177.638 310.325 177.92 311.177 177.92ZM318.112 171.296C318.112 169.664 318.502 168.398 319.282 167.498C320.062 166.598 321.148 166.148 322.54 166.148C323.932 166.148 325.018 166.598 325.798 167.498C326.578 168.398 326.968 169.664 326.968 171.296V174.104C326.968 175.784 326.578 177.062 325.798 177.938C325.018 178.814 323.932 179.252 322.54 179.252C321.148 179.252 320.062 178.814 319.282 177.938C318.502 177.062 318.112 175.784 318.112 174.104V171.296ZM322.54 177.884C323.512 177.884 324.238 177.548 324.718 176.876C325.21 176.192 325.456 175.232 325.456 173.996V171.404C325.456 170.828 325.396 170.306 325.276 169.838C325.156 169.358 324.97 168.95 324.718 168.614C324.478 168.266 324.172 167.996 323.8 167.804C323.44 167.612 323.02 167.516 322.54 167.516C322.048 167.516 321.622 167.612 321.262 167.804C320.902 167.996 320.596 168.266 320.344 168.614C320.104 168.95 319.924 169.358 319.804 169.838C319.684 170.306 319.624 170.828 319.624 171.404V173.996C319.624 175.232 319.864 176.192 320.344 176.876C320.836 177.548 321.568 177.884 322.54 177.884ZM321.388 172.7C321.388 172.388 321.502 172.118 321.73 171.89C321.958 171.662 322.228 171.548 322.54 171.548C322.852 171.548 323.122 171.662 323.35 171.89C323.578 172.118 323.692 172.388 323.692 172.7C323.692 173.012 323.578 173.282 323.35 173.51C323.122 173.738 322.852 173.852 322.54 173.852C322.228 173.852 321.958 173.738 321.73 173.51C321.502 173.282 321.388 173.012 321.388 172.7ZM329.458 173.06V166.4H337.342V167.804H330.934V172.304H331.15C331.27 172.064 331.426 171.836 331.618 171.62C331.81 171.392 332.032 171.194 332.284 171.026C332.548 170.858 332.842 170.726 333.166 170.63C333.49 170.522 333.85 170.468 334.246 170.468C334.822 170.468 335.35 170.564 335.83 170.756C336.322 170.948 336.742 171.218 337.09 171.566C337.438 171.914 337.708 172.334 337.9 172.826C338.104 173.318 338.206 173.864 338.206 174.464V174.788C338.206 175.388 338.11 175.958 337.918 176.498C337.726 177.026 337.444 177.5 337.072 177.92C336.7 178.328 336.238 178.652 335.686 178.892C335.134 179.132 334.498 179.252 333.778 179.252C333.046 179.252 332.398 179.144 331.834 178.928C331.27 178.712 330.796 178.412 330.412 178.028C330.028 177.644 329.734 177.194 329.53 176.678C329.338 176.15 329.242 175.58 329.242 174.968V174.464H330.754V174.86C330.754 175.856 331.03 176.606 331.582 177.11C332.146 177.602 332.878 177.848 333.778 177.848C334.258 177.848 334.678 177.764 335.038 177.596C335.41 177.416 335.716 177.182 335.956 176.894C336.208 176.594 336.394 176.252 336.514 175.868C336.634 175.472 336.694 175.064 336.694 174.644V174.536C336.694 174.164 336.628 173.816 336.496 173.492C336.376 173.168 336.202 172.886 335.974 172.646C335.758 172.406 335.488 172.22 335.164 172.088C334.852 171.944 334.51 171.872 334.138 171.872C333.886 171.872 333.652 171.908 333.436 171.98C333.232 172.052 333.052 172.148 332.896 172.268C332.74 172.376 332.608 172.502 332.5 172.646C332.404 172.79 332.338 172.928 332.302 173.06H329.458Z" fill="white"/>
<path d="M442.905 180.164V177.968H440.961V180.164H439.665V177.968H437.685V176.672H439.665V174.728H437.685V173.432H439.665V171.236H440.961V173.432H442.905V171.236H444.201V173.432H446.181V174.728H444.201V176.672H446.181V177.968H444.201V180.164H442.905ZM442.905 174.728H440.961V176.672H442.905V174.728ZM455.6 173.072C455.6 172.292 455.36 171.668 454.88 171.2C454.4 170.72 453.734 170.48 452.882 170.48C452.474 170.48 452.096 170.552 451.748 170.696C451.412 170.84 451.118 171.05 450.866 171.326C450.626 171.59 450.434 171.908 450.29 172.28C450.158 172.652 450.092 173.06 450.092 173.504V175.376H450.308C450.596 174.848 451.004 174.434 451.532 174.134C452.072 173.834 452.672 173.684 453.332 173.684C453.908 173.684 454.442 173.78 454.934 173.972C455.426 174.152 455.846 174.422 456.194 174.782C456.554 175.142 456.83 175.58 457.022 176.096C457.226 176.6 457.328 177.176 457.328 177.824V178.04C457.328 178.664 457.214 179.234 456.986 179.75C456.77 180.266 456.464 180.71 456.068 181.082C455.684 181.454 455.222 181.742 454.682 181.946C454.154 182.15 453.578 182.252 452.954 182.252C452.33 182.252 451.748 182.15 451.208 181.946C450.68 181.742 450.218 181.46 449.822 181.1C449.438 180.728 449.132 180.29 448.904 179.786C448.688 179.27 448.58 178.706 448.58 178.094V173.504C448.58 172.844 448.694 172.244 448.922 171.704C449.15 171.164 449.462 170.708 449.858 170.336C450.254 169.952 450.71 169.658 451.226 169.454C451.754 169.25 452.318 169.148 452.918 169.148C453.518 169.148 454.076 169.238 454.592 169.418C455.108 169.598 455.552 169.862 455.924 170.21C456.296 170.546 456.584 170.96 456.788 171.452C457.004 171.932 457.112 172.472 457.112 173.072H455.6ZM452.954 180.92C453.386 180.92 453.776 180.854 454.124 180.722C454.484 180.578 454.79 180.38 455.042 180.128C455.294 179.876 455.486 179.576 455.618 179.228C455.75 178.88 455.816 178.496 455.816 178.076V177.86C455.816 177.44 455.744 177.056 455.6 176.708C455.456 176.36 455.258 176.06 455.006 175.808C454.754 175.556 454.448 175.364 454.088 175.232C453.74 175.088 453.362 175.016 452.954 175.016C452.546 175.016 452.168 175.088 451.82 175.232C451.472 175.376 451.166 175.574 450.902 175.826C450.65 176.078 450.452 176.372 450.308 176.708C450.164 177.044 450.092 177.404 450.092 177.788V178.13C450.092 178.526 450.158 178.898 450.29 179.246C450.422 179.582 450.614 179.876 450.866 180.128C451.118 180.38 451.418 180.578 451.766 180.722C452.126 180.854 452.522 180.92 452.954 180.92ZM466.622 173.072C466.622 172.292 466.382 171.668 465.902 171.2C465.422 170.72 464.756 170.48 463.904 170.48C463.496 170.48 463.118 170.552 462.77 170.696C462.434 170.84 462.14 171.05 461.888 171.326C461.648 171.59 461.456 171.908 461.312 172.28C461.18 172.652 461.114 173.06 461.114 173.504V175.376H461.33C461.618 174.848 462.026 174.434 462.554 174.134C463.094 173.834 463.694 173.684 464.354 173.684C464.93 173.684 465.464 173.78 465.956 173.972C466.448 174.152 466.868 174.422 467.216 174.782C467.576 175.142 467.852 175.58 468.044 176.096C468.248 176.6 468.35 177.176 468.35 177.824V178.04C468.35 178.664 468.236 179.234 468.008 179.75C467.792 180.266 467.486 180.71 467.09 181.082C466.706 181.454 466.244 181.742 465.704 181.946C465.176 182.15 464.6 182.252 463.976 182.252C463.352 182.252 462.77 182.15 462.23 181.946C461.702 181.742 461.24 181.46 460.844 181.1C460.46 180.728 460.154 180.29 459.926 179.786C459.71 179.27 459.602 178.706 459.602 178.094V173.504C459.602 172.844 459.716 172.244 459.944 171.704C460.172 171.164 460.484 170.708 460.88 170.336C461.276 169.952 461.732 169.658 462.248 169.454C462.776 169.25 463.34 169.148 463.94 169.148C464.54 169.148 465.098 169.238 465.614 169.418C466.13 169.598 466.574 169.862 466.946 170.21C467.318 170.546 467.606 170.96 467.81 171.452C468.026 171.932 468.134 172.472 468.134 173.072H466.622ZM463.976 180.92C464.408 180.92 464.798 180.854 465.146 180.722C465.506 180.578 465.812 180.38 466.064 180.128C466.316 179.876 466.508 179.576 466.64 179.228C466.772 178.88 466.838 178.496 466.838 178.076V177.86C466.838 177.44 466.766 177.056 466.622 176.708C466.478 176.36 466.28 176.06 466.028 175.808C465.776 175.556 465.47 175.364 465.11 175.232C464.762 175.088 464.384 175.016 463.976 175.016C463.568 175.016 463.19 175.088 462.842 175.232C462.494 175.376 462.188 175.574 461.924 175.826C461.672 176.078 461.474 176.372 461.33 176.708C461.186 177.044 461.114 177.404 461.114 177.788V178.13C461.114 178.526 461.18 178.898 461.312 179.246C461.444 179.582 461.636 179.876 461.888 180.128C462.14 180.38 462.44 180.578 462.788 180.722C463.148 180.854 463.544 180.92 463.976 180.92ZM477.643 173.072C477.643 172.292 477.403 171.668 476.923 171.2C476.443 170.72 475.777 170.48 474.925 170.48C474.517 170.48 474.139 170.552 473.791 170.696C473.455 170.84 473.161 171.05 472.909 171.326C472.669 171.59 472.477 171.908 472.333 172.28C472.201 172.652 472.135 173.06 472.135 173.504V175.376H472.351C472.639 174.848 473.047 174.434 473.575 174.134C474.115 173.834 474.715 173.684 475.375 173.684C475.951 173.684 476.485 173.78 476.977 173.972C477.469 174.152 477.889 174.422 478.237 174.782C478.597 175.142 478.873 175.58 479.065 176.096C479.269 176.6 479.371 177.176 479.371 177.824V178.04C479.371 178.664 479.257 179.234 479.029 179.75C478.813 180.266 478.507 180.71 478.111 181.082C477.727 181.454 477.265 181.742 476.725 181.946C476.197 182.15 475.621 182.252 474.997 182.252C474.373 182.252 473.791 182.15 473.251 181.946C472.723 181.742 472.261 181.46 471.865 181.1C471.481 180.728 471.175 180.29 470.947 179.786C470.731 179.27 470.623 178.706 470.623 178.094V173.504C470.623 172.844 470.737 172.244 470.965 171.704C471.193 171.164 471.505 170.708 471.901 170.336C472.297 169.952 472.753 169.658 473.269 169.454C473.797 169.25 474.361 169.148 474.961 169.148C475.561 169.148 476.119 169.238 476.635 169.418C477.151 169.598 477.595 169.862 477.967 170.21C478.339 170.546 478.627 170.96 478.831 171.452C479.047 171.932 479.155 172.472 479.155 173.072H477.643ZM474.997 180.92C475.429 180.92 475.819 180.854 476.167 180.722C476.527 180.578 476.833 180.38 477.085 180.128C477.337 179.876 477.529 179.576 477.661 179.228C477.793 178.88 477.859 178.496 477.859 178.076V177.86C477.859 177.44 477.787 177.056 477.643 176.708C477.499 176.36 477.301 176.06 477.049 175.808C476.797 175.556 476.491 175.364 476.131 175.232C475.783 175.088 475.405 175.016 474.997 175.016C474.589 175.016 474.211 175.088 473.863 175.232C473.515 175.376 473.209 175.574 472.945 175.826C472.693 176.078 472.495 176.372 472.351 176.708C472.207 177.044 472.135 177.404 472.135 177.788V178.13C472.135 178.526 472.201 178.898 472.333 179.246C472.465 179.582 472.657 179.876 472.909 180.128C473.161 180.38 473.461 180.578 473.809 180.722C474.169 180.854 474.565 180.92 474.997 180.92ZM488.665 173.072C488.665 172.292 488.425 171.668 487.945 171.2C487.465 170.72 486.799 170.48 485.947 170.48C485.539 170.48 485.161 170.552 484.813 170.696C484.477 170.84 484.183 171.05 483.931 171.326C483.691 171.59 483.499 171.908 483.355 172.28C483.223 172.652 483.157 173.06 483.157 173.504V175.376H483.373C483.661 174.848 484.069 174.434 484.597 174.134C485.137 173.834 485.737 173.684 486.397 173.684C486.973 173.684 487.507 173.78 487.999 173.972C488.491 174.152 488.911 174.422 489.259 174.782C489.619 175.142 489.895 175.58 490.087 176.096C490.291 176.6 490.393 177.176 490.393 177.824V178.04C490.393 178.664 490.279 179.234 490.051 179.75C489.835 180.266 489.529 180.71 489.133 181.082C488.749 181.454 488.287 181.742 487.747 181.946C487.219 182.15 486.643 182.252 486.019 182.252C485.395 182.252 484.813 182.15 484.273 181.946C483.745 181.742 483.283 181.46 482.887 181.1C482.503 180.728 482.197 180.29 481.969 179.786C481.753 179.27 481.645 178.706 481.645 178.094V173.504C481.645 172.844 481.759 172.244 481.987 171.704C482.215 171.164 482.527 170.708 482.923 170.336C483.319 169.952 483.775 169.658 484.291 169.454C484.819 169.25 485.383 169.148 485.983 169.148C486.583 169.148 487.141 169.238 487.657 169.418C488.173 169.598 488.617 169.862 488.989 170.21C489.361 170.546 489.649 170.96 489.853 171.452C490.069 171.932 490.177 172.472 490.177 173.072H488.665ZM486.019 180.92C486.451 180.92 486.841 180.854 487.189 180.722C487.549 180.578 487.855 180.38 488.107 180.128C488.359 179.876 488.551 179.576 488.683 179.228C488.815 178.88 488.881 178.496 488.881 178.076V177.86C488.881 177.44 488.809 177.056 488.665 176.708C488.521 176.36 488.323 176.06 488.071 175.808C487.819 175.556 487.513 175.364 487.153 175.232C486.805 175.088 486.427 175.016 486.019 175.016C485.611 175.016 485.233 175.088 484.885 175.232C484.537 175.376 484.231 175.574 483.967 175.826C483.715 176.078 483.517 176.372 483.373 176.708C483.229 177.044 483.157 177.404 483.157 177.788V178.13C483.157 178.526 483.223 178.898 483.355 179.246C483.487 179.582 483.679 179.876 483.931 180.128C484.183 180.38 484.483 180.578 484.831 180.722C485.191 180.854 485.587 180.92 486.019 180.92ZM499.686 173.072C499.686 172.292 499.446 171.668 498.966 171.2C498.486 170.72 497.82 170.48 496.968 170.48C496.56 170.48 496.182 170.552 495.834 170.696C495.498 170.84 495.204 171.05 494.952 171.326C494.712 171.59 494.52 171.908 494.376 172.28C494.244 172.652 494.178 173.06 494.178 173.504V175.376H494.394C494.682 174.848 495.09 174.434 495.618 174.134C496.158 173.834 496.758 173.684 497.418 173.684C497.994 173.684 498.528 173.78 499.02 173.972C499.512 174.152 499.932 174.422 500.28 174.782C500.64 175.142 500.916 175.58 501.108 176.096C501.312 176.6 501.414 177.176 501.414 177.824V178.04C501.414 178.664 501.3 179.234 501.072 179.75C500.856 180.266 500.55 180.71 500.154 181.082C499.77 181.454 499.308 181.742 498.768 181.946C498.24 182.15 497.664 182.252 497.04 182.252C496.416 182.252 495.834 182.15 495.294 181.946C494.766 181.742 494.304 181.46 493.908 181.1C493.524 180.728 493.218 180.29 492.99 179.786C492.774 179.27 492.666 178.706 492.666 178.094V173.504C492.666 172.844 492.78 172.244 493.008 171.704C493.236 171.164 493.548 170.708 493.944 170.336C494.34 169.952 494.796 169.658 495.312 169.454C495.84 169.25 496.404 169.148 497.004 169.148C497.604 169.148 498.162 169.238 498.678 169.418C499.194 169.598 499.638 169.862 500.01 170.21C500.382 170.546 500.67 170.96 500.874 171.452C501.09 171.932 501.198 172.472 501.198 173.072H499.686ZM497.04 180.92C497.472 180.92 497.862 180.854 498.21 180.722C498.57 180.578 498.876 180.38 499.128 180.128C499.38 179.876 499.572 179.576 499.704 179.228C499.836 178.88 499.902 178.496 499.902 178.076V177.86C499.902 177.44 499.83 177.056 499.686 176.708C499.542 176.36 499.344 176.06 499.092 175.808C498.84 175.556 498.534 175.364 498.174 175.232C497.826 175.088 497.448 175.016 497.04 175.016C496.632 175.016 496.254 175.088 495.906 175.232C495.558 175.376 495.252 175.574 494.988 175.826C494.736 176.078 494.538 176.372 494.394 176.708C494.25 177.044 494.178 177.404 494.178 177.788V178.13C494.178 178.526 494.244 178.898 494.376 179.246C494.508 179.582 494.7 179.876 494.952 180.128C495.204 180.38 495.504 180.578 495.852 180.722C496.212 180.854 496.608 180.92 497.04 180.92ZM510.708 173.072C510.708 172.292 510.468 171.668 509.988 171.2C509.508 170.72 508.842 170.48 507.99 170.48C507.582 170.48 507.204 170.552 506.856 170.696C506.52 170.84 506.226 171.05 505.974 171.326C505.734 171.59 505.542 171.908 505.398 172.28C505.266 172.652 505.2 173.06 505.2 173.504V175.376H505.416C505.704 174.848 506.112 174.434 506.64 174.134C507.18 173.834 507.78 173.684 508.44 173.684C509.016 173.684 509.55 173.78 510.042 173.972C510.534 174.152 510.954 174.422 511.302 174.782C511.662 175.142 511.938 175.58 512.13 176.096C512.334 176.6 512.436 177.176 512.436 177.824V178.04C512.436 178.664 512.322 179.234 512.094 179.75C511.878 180.266 511.572 180.71 511.176 181.082C510.792 181.454 510.33 181.742 509.79 181.946C509.262 182.15 508.686 182.252 508.062 182.252C507.438 182.252 506.856 182.15 506.316 181.946C505.788 181.742 505.326 181.46 504.93 181.1C504.546 180.728 504.24 180.29 504.012 179.786C503.796 179.27 503.688 178.706 503.688 178.094V173.504C503.688 172.844 503.802 172.244 504.03 171.704C504.258 171.164 504.57 170.708 504.966 170.336C505.362 169.952 505.818 169.658 506.334 169.454C506.862 169.25 507.426 169.148 508.026 169.148C508.626 169.148 509.184 169.238 509.7 169.418C510.216 169.598 510.66 169.862 511.032 170.21C511.404 170.546 511.692 170.96 511.896 171.452C512.112 171.932 512.22 172.472 512.22 173.072H510.708ZM508.062 180.92C508.494 180.92 508.884 180.854 509.232 180.722C509.592 180.578 509.898 180.38 510.15 180.128C510.402 179.876 510.594 179.576 510.726 179.228C510.858 178.88 510.924 178.496 510.924 178.076V177.86C510.924 177.44 510.852 177.056 510.708 176.708C510.564 176.36 510.366 176.06 510.114 175.808C509.862 175.556 509.556 175.364 509.196 175.232C508.848 175.088 508.47 175.016 508.062 175.016C507.654 175.016 507.276 175.088 506.928 175.232C506.58 175.376 506.274 175.574 506.01 175.826C505.758 176.078 505.56 176.372 505.416 176.708C505.272 177.044 505.2 177.404 505.2 177.788V178.13C505.2 178.526 505.266 178.898 505.398 179.246C505.53 179.582 505.722 179.876 505.974 180.128C506.226 180.38 506.526 180.578 506.874 180.722C507.234 180.854 507.63 180.92 508.062 180.92Z" fill="white"/>
<path d="M617.905 180.164V177.968H615.961V180.164H614.665V177.968H612.685V176.672H614.665V174.728H612.685V173.432H614.665V171.236H615.961V173.432H617.905V171.236H619.201V173.432H621.181V174.728H619.201V176.672H621.181V177.968H619.201V180.164H617.905ZM617.905 174.728H615.961V176.672H617.905V174.728ZM632.238 180.596V182H623.706V179.84C623.706 179.264 623.802 178.766 623.994 178.346C624.186 177.914 624.456 177.548 624.804 177.248C625.164 176.936 625.596 176.678 626.1 176.474C626.604 176.27 627.174 176.096 627.81 175.952C628.878 175.712 629.646 175.37 630.114 174.926C630.594 174.482 630.834 173.936 630.834 173.288V173.18C630.834 172.856 630.78 172.538 630.672 172.226C630.564 171.914 630.396 171.632 630.168 171.38C629.94 171.128 629.646 170.93 629.286 170.786C628.938 170.63 628.518 170.552 628.026 170.552C627.102 170.552 626.382 170.834 625.866 171.398C625.362 171.962 625.11 172.712 625.11 173.648V174.44H623.598V173.54C623.598 172.964 623.694 172.412 623.886 171.884C624.078 171.356 624.36 170.888 624.732 170.48C625.104 170.072 625.566 169.748 626.118 169.508C626.67 169.268 627.306 169.148 628.026 169.148C628.758 169.148 629.394 169.262 629.934 169.49C630.474 169.706 630.924 170 631.284 170.372C631.644 170.732 631.908 171.146 632.076 171.614C632.256 172.07 632.346 172.538 632.346 173.018V173.342C632.346 174.302 632.046 175.124 631.446 175.808C630.846 176.48 629.886 176.96 628.566 177.248C627.414 177.5 626.568 177.836 626.028 178.256C625.488 178.664 625.218 179.264 625.218 180.056V180.596H632.238ZM637.734 175.736V173.648L641.838 171.02V170.804H634.71V169.4H643.134V171.704L639.03 174.332V174.548H639.75C640.23 174.548 640.692 174.626 641.136 174.782C641.58 174.938 641.97 175.166 642.306 175.466C642.654 175.766 642.93 176.138 643.134 176.582C643.35 177.014 643.458 177.518 643.458 178.094V178.418C643.458 178.958 643.35 179.462 643.134 179.93C642.918 180.398 642.618 180.806 642.234 181.154C641.85 181.49 641.394 181.76 640.866 181.964C640.35 182.156 639.786 182.252 639.174 182.252C638.466 182.252 637.83 182.144 637.266 181.928C636.702 181.712 636.222 181.418 635.826 181.046C635.43 180.662 635.124 180.218 634.908 179.714C634.704 179.198 634.602 178.652 634.602 178.076V177.104H636.114V177.968C636.114 178.424 636.186 178.832 636.33 179.192C636.486 179.54 636.696 179.84 636.96 180.092C637.236 180.332 637.56 180.518 637.932 180.65C638.304 180.782 638.706 180.848 639.138 180.848C639.534 180.848 639.9 180.782 640.236 180.65C640.584 180.518 640.884 180.338 641.136 180.11C641.388 179.87 641.586 179.594 641.73 179.282C641.874 178.958 641.946 178.616 641.946 178.256V178.148C641.946 177.392 641.706 176.804 641.226 176.384C640.746 175.952 640.146 175.736 639.426 175.736H637.734ZM649.331 180.596V170.066H649.115L647.045 174.8H645.551V174.692L647.909 169.4H650.843V180.596H654.407V182H645.767V180.596H649.331ZM656.987 173.072H659.741V170.804C659.741 170.396 659.867 170.06 660.119 169.796C660.383 169.532 660.719 169.4 661.127 169.4H664.655V170.696H661.631C661.307 170.696 661.145 170.876 661.145 171.236V173.072H664.871V174.368H661.145V182H659.741V174.368H656.987V173.072ZM676.324 180.596V182H667.792V179.84C667.792 179.264 667.888 178.766 668.08 178.346C668.272 177.914 668.542 177.548 668.89 177.248C669.25 176.936 669.682 176.678 670.186 176.474C670.69 176.27 671.26 176.096 671.896 175.952C672.964 175.712 673.732 175.37 674.2 174.926C674.68 174.482 674.92 173.936 674.92 173.288V173.18C674.92 172.856 674.866 172.538 674.758 172.226C674.65 171.914 674.482 171.632 674.254 171.38C674.026 171.128 673.732 170.93 673.372 170.786C673.024 170.63 672.604 170.552 672.112 170.552C671.188 170.552 670.468 170.834 669.952 171.398C669.448 171.962 669.196 172.712 669.196 173.648V174.44H667.684V173.54C667.684 172.964 667.78 172.412 667.972 171.884C668.164 171.356 668.446 170.888 668.818 170.48C669.19 170.072 669.652 169.748 670.204 169.508C670.756 169.268 671.392 169.148 672.112 169.148C672.844 169.148 673.48 169.262 674.02 169.49C674.56 169.706 675.01 170 675.37 170.372C675.73 170.732 675.994 171.146 676.162 171.614C676.342 172.07 676.432 172.538 676.432 173.018V173.342C676.432 174.302 676.132 175.124 675.532 175.808C674.932 176.48 673.972 176.96 672.652 177.248C671.5 177.5 670.654 177.836 670.114 178.256C669.574 178.664 669.304 179.264 669.304 180.056V180.596H676.324ZM678.634 174.296C678.634 172.664 679.024 171.398 679.804 170.498C680.584 169.598 681.67 169.148 683.062 169.148C684.454 169.148 685.54 169.598 686.32 170.498C687.1 171.398 687.49 172.664 687.49 174.296V177.104C687.49 178.784 687.1 180.062 686.32 180.938C685.54 181.814 684.454 182.252 683.062 182.252C681.67 182.252 680.584 181.814 679.804 180.938C679.024 180.062 678.634 178.784 678.634 177.104V174.296ZM683.062 180.884C684.034 180.884 684.76 180.548 685.24 179.876C685.732 179.192 685.978 178.232 685.978 176.996V174.404C685.978 173.828 685.918 173.306 685.798 172.838C685.678 172.358 685.492 171.95 685.24 171.614C685 171.266 684.694 170.996 684.322 170.804C683.962 170.612 683.542 170.516 683.062 170.516C682.57 170.516 682.144 170.612 681.784 170.804C681.424 170.996 681.118 171.266 680.866 171.614C680.626 171.95 680.446 172.358 680.326 172.838C680.206 173.306 680.146 173.828 680.146 174.404V176.996C680.146 178.232 680.386 179.192 680.866 179.876C681.358 180.548 682.09 180.884 683.062 180.884ZM681.91 175.7C681.91 175.388 682.024 175.118 682.252 174.89C682.48 174.662 682.75 174.548 683.062 174.548C683.374 174.548 683.644 174.662 683.872 174.89C684.1 175.118 684.214 175.388 684.214 175.7C684.214 176.012 684.1 176.282 683.872 176.51C683.644 176.738 683.374 176.852 683.062 176.852C682.75 176.852 682.48 176.738 682.252 176.51C682.024 176.282 681.91 176.012 681.91 175.7Z" fill="white"/>
</svg>
