<svg width="378" height="264" viewBox="0 0 378 264" fill="none" xmlns="http://www.w3.org/2000/svg">
<rect width="378" height="264" rx="5" fill="white"/>
<path d="M32.366 42.968V47H31.19V37.2H34.69C35.194 37.2 35.6327 37.2747 36.006 37.424C36.3793 37.564 36.6873 37.7553 36.93 37.998C37.182 38.2407 37.3687 38.5253 37.49 38.852C37.6207 39.1693 37.686 39.5053 37.686 39.86V40.28C37.686 40.6347 37.6207 40.9753 37.49 41.302C37.3687 41.6287 37.182 41.918 36.93 42.17C36.678 42.4127 36.3653 42.6087 35.992 42.758C35.6187 42.898 35.1847 42.968 34.69 42.968H32.366ZM32.366 41.876H34.55C35.8567 41.876 36.51 41.316 36.51 40.196V39.944C36.51 39.4493 36.3467 39.0527 36.02 38.754C35.7027 38.446 35.2127 38.292 34.55 38.292H32.366V41.876ZM47.7563 44.564H43.5563L42.8423 47H41.5823L44.5503 37.2H46.7623L49.7303 47H48.4703L47.7563 44.564ZM45.5723 37.704L43.8783 43.472H47.4343L45.7403 37.704H45.5723ZM53.9205 37.2H60.1365V38.292H57.6165V45.908H60.1365V47H53.9205V45.908H56.4405V38.292H53.9205V37.2ZM70.3188 46.496H70.4868V37.2H71.6628V47H69.3108L66.4828 37.704H66.3148V47H65.1388V37.2H67.4908L70.3188 46.496ZM89.2273 42.968V47H88.0513V37.2H91.5513C92.0553 37.2 92.494 37.2747 92.8673 37.424C93.2407 37.564 93.5487 37.7553 93.7913 37.998C94.0433 38.2407 94.23 38.5253 94.3513 38.852C94.482 39.1693 94.5473 39.5053 94.5473 39.86V40.28C94.5473 40.6347 94.482 40.9753 94.3513 41.302C94.23 41.6287 94.0433 41.918 93.7913 42.17C93.5393 42.4127 93.2267 42.6087 92.8533 42.758C92.48 42.898 92.046 42.968 91.5513 42.968H89.2273ZM89.2273 41.876H91.4113C92.718 41.876 93.3713 41.316 93.3713 40.196V39.944C93.3713 39.4493 93.208 39.0527 92.8813 38.754C92.564 38.446 92.074 38.292 91.4113 38.292H89.2273V41.876ZM99.0736 41.008C99.0736 39.7387 99.3769 38.754 99.9836 38.054C100.59 37.354 101.435 37.004 102.518 37.004C103.6 37.004 104.445 37.354 105.052 38.054C105.658 38.754 105.962 39.7387 105.962 41.008V43.192C105.962 44.4987 105.658 45.4927 105.052 46.174C104.445 46.8553 103.6 47.196 102.518 47.196C101.435 47.196 100.59 46.8553 99.9836 46.174C99.3769 45.4927 99.0736 44.4987 99.0736 43.192V41.008ZM102.518 46.104C103.274 46.104 103.838 45.8473 104.212 45.334C104.594 44.8113 104.786 44.0693 104.786 43.108V41.092C104.786 40.196 104.594 39.4727 104.212 38.922C103.838 38.3713 103.274 38.096 102.518 38.096C101.762 38.096 101.192 38.3713 100.81 38.922C100.436 39.4727 100.25 40.196 100.25 41.092V43.108C100.25 44.0693 100.436 44.8113 100.81 45.334C101.192 45.8473 101.762 46.104 102.518 46.104ZM110.782 37.2H116.998V38.292H114.478V45.908H116.998V47H110.782V45.908H113.302V38.292H110.782V37.2ZM127.18 46.496H127.348V37.2H128.524V47H126.172L123.344 37.704H123.176V47H122V37.2H124.352L127.18 46.496ZM133.19 37.2H140.078V38.292H137.222V47H136.046V38.292H133.19V37.2ZM150.317 40.028C150.317 39.7107 150.251 39.4307 150.121 39.188C149.999 38.9453 149.831 38.7447 149.617 38.586C149.402 38.4273 149.155 38.306 148.875 38.222C148.595 38.138 148.301 38.096 147.993 38.096C147.722 38.096 147.465 38.1333 147.223 38.208C146.98 38.2733 146.761 38.3713 146.565 38.502C146.378 38.6327 146.229 38.796 146.117 38.992C146.005 39.1787 145.949 39.398 145.949 39.65V39.734C145.949 40.0047 146.005 40.238 146.117 40.434C146.229 40.6207 146.392 40.784 146.607 40.924C146.831 41.0547 147.106 41.1667 147.433 41.26C147.759 41.344 148.142 41.4187 148.581 41.484C149.607 41.6427 150.363 41.946 150.849 42.394C151.334 42.8327 151.577 43.4253 151.577 44.172V44.34C151.577 44.76 151.502 45.1473 151.353 45.502C151.213 45.8473 150.998 46.146 150.709 46.398C150.429 46.65 150.079 46.846 149.659 46.986C149.239 47.126 148.753 47.196 148.203 47.196C147.577 47.196 147.022 47.1073 146.537 46.93C146.061 46.7433 145.659 46.4913 145.333 46.174C145.015 45.8473 144.773 45.4693 144.605 45.04C144.437 44.6013 144.353 44.1253 144.353 43.612V43.192H145.529V43.528C145.529 44.3867 145.762 45.0307 146.229 45.46C146.705 45.8893 147.363 46.104 148.203 46.104C148.931 46.104 149.477 45.9453 149.841 45.628C150.214 45.3013 150.401 44.872 150.401 44.34V44.256C150.401 43.7427 150.209 43.3507 149.827 43.08C149.453 42.8093 148.842 42.6133 147.993 42.492C147.498 42.4267 147.05 42.3287 146.649 42.198C146.257 42.058 145.921 41.8807 145.641 41.666C145.361 41.442 145.146 41.176 144.997 40.868C144.847 40.56 144.773 40.196 144.773 39.776V39.608C144.773 39.2253 144.852 38.8753 145.011 38.558C145.169 38.2407 145.389 37.9653 145.669 37.732C145.958 37.4987 146.299 37.3213 146.691 37.2C147.092 37.0693 147.531 37.004 148.007 37.004C148.557 37.004 149.047 37.0833 149.477 37.242C149.915 37.4007 150.284 37.6153 150.583 37.886C150.881 38.1473 151.105 38.46 151.255 38.824C151.413 39.1787 151.493 39.552 151.493 39.944V40.532H150.317V40.028ZM174.111 48.148V49.184H173.607C172.954 49.184 172.329 49.0627 171.731 48.82C171.134 48.5773 170.607 48.2227 170.149 47.756C169.692 47.2987 169.328 46.7433 169.057 46.09C168.787 45.4367 168.651 44.6947 168.651 43.864V40.336C168.651 39.5147 168.787 38.7773 169.057 38.124C169.328 37.4613 169.692 36.9013 170.149 36.444C170.607 35.9773 171.134 35.6227 171.731 35.38C172.329 35.1373 172.954 35.016 173.607 35.016H174.111V36.052H173.607C173.103 36.052 172.618 36.1547 172.151 36.36C171.685 36.556 171.274 36.8407 170.919 37.214C170.565 37.5873 170.28 38.0447 170.065 38.586C169.851 39.118 169.743 39.72 169.743 40.392V43.808C169.743 44.48 169.851 45.0867 170.065 45.628C170.28 46.16 170.565 46.6127 170.919 46.986C171.274 47.3593 171.685 47.644 172.151 47.84C172.618 48.0453 173.103 48.148 173.607 48.148H174.111ZM178.861 37.2H182.081C183.295 37.2 184.181 37.4893 184.741 38.068C185.301 38.6467 185.581 39.5707 185.581 40.84V43.36C185.581 44.6293 185.301 45.5533 184.741 46.132C184.181 46.7107 183.295 47 182.081 47H178.861V45.894H179.701V38.292H178.861V37.2ZM181.913 45.908C182.343 45.908 182.711 45.866 183.019 45.782C183.337 45.698 183.598 45.558 183.803 45.362C184.009 45.1567 184.158 44.886 184.251 44.55C184.354 44.214 184.405 43.7893 184.405 43.276V40.924C184.405 40.4107 184.354 39.986 184.251 39.65C184.158 39.314 184.009 39.048 183.803 38.852C183.598 38.6467 183.337 38.502 183.019 38.418C182.711 38.334 182.343 38.292 181.913 38.292H180.877V45.908H181.913ZM190.388 37.2H196.604V38.292H194.084V45.908H196.604V47H190.388V45.908H192.908V38.292H190.388V37.2ZM207.178 40.028C207.178 39.7107 207.113 39.4307 206.982 39.188C206.861 38.9453 206.693 38.7447 206.478 38.586C206.263 38.4273 206.016 38.306 205.736 38.222C205.456 38.138 205.162 38.096 204.854 38.096C204.583 38.096 204.327 38.1333 204.084 38.208C203.841 38.2733 203.622 38.3713 203.426 38.502C203.239 38.6327 203.09 38.796 202.978 38.992C202.866 39.1787 202.81 39.398 202.81 39.65V39.734C202.81 40.0047 202.866 40.238 202.978 40.434C203.09 40.6207 203.253 40.784 203.468 40.924C203.692 41.0547 203.967 41.1667 204.294 41.26C204.621 41.344 205.003 41.4187 205.442 41.484C206.469 41.6427 207.225 41.946 207.71 42.394C208.195 42.8327 208.438 43.4253 208.438 44.172V44.34C208.438 44.76 208.363 45.1473 208.214 45.502C208.074 45.8473 207.859 46.146 207.57 46.398C207.29 46.65 206.94 46.846 206.52 46.986C206.1 47.126 205.615 47.196 205.064 47.196C204.439 47.196 203.883 47.1073 203.398 46.93C202.922 46.7433 202.521 46.4913 202.194 46.174C201.877 45.8473 201.634 45.4693 201.466 45.04C201.298 44.6013 201.214 44.1253 201.214 43.612V43.192H202.39V43.528C202.39 44.3867 202.623 45.0307 203.09 45.46C203.566 45.8893 204.224 46.104 205.064 46.104C205.792 46.104 206.338 45.9453 206.702 45.628C207.075 45.3013 207.262 44.872 207.262 44.34V44.256C207.262 43.7427 207.071 43.3507 206.688 43.08C206.315 42.8093 205.703 42.6133 204.854 42.492C204.359 42.4267 203.911 42.3287 203.51 42.198C203.118 42.058 202.782 41.8807 202.502 41.666C202.222 41.442 202.007 41.176 201.858 40.868C201.709 40.56 201.634 40.196 201.634 39.776V39.608C201.634 39.2253 201.713 38.8753 201.872 38.558C202.031 38.2407 202.25 37.9653 202.53 37.732C202.819 37.4987 203.16 37.3213 203.552 37.2C203.953 37.0693 204.392 37.004 204.868 37.004C205.419 37.004 205.909 37.0833 206.338 37.242C206.777 37.4007 207.145 37.6153 207.444 37.886C207.743 38.1473 207.967 38.46 208.116 38.824C208.275 39.1787 208.354 39.552 208.354 39.944V40.532H207.178V40.028ZM216.296 46.104C216.698 46.104 217.038 46.0387 217.318 45.908C217.608 45.768 217.841 45.586 218.018 45.362C218.205 45.1287 218.34 44.8673 218.424 44.578C218.518 44.2793 218.564 43.9667 218.564 43.64V43.472H219.74V43.64C219.74 44.1347 219.666 44.6013 219.516 45.04C219.367 45.4693 219.148 45.8473 218.858 46.174C218.569 46.4913 218.21 46.7433 217.78 46.93C217.351 47.1073 216.856 47.196 216.296 47.196C215.214 47.196 214.369 46.8553 213.762 46.174C213.156 45.4927 212.852 44.4987 212.852 43.192V41.008C212.852 39.7387 213.156 38.754 213.762 38.054C214.369 37.354 215.214 37.004 216.296 37.004C216.856 37.004 217.351 37.0973 217.78 37.284C218.21 37.4613 218.569 37.7133 218.858 38.04C219.148 38.3573 219.367 38.7353 219.516 39.174C219.666 39.6033 219.74 40.0653 219.74 40.56V40.728H218.564V40.56C218.555 40.2427 218.504 39.9347 218.41 39.636C218.326 39.3373 218.191 39.076 218.004 38.852C217.827 38.6187 217.598 38.4367 217.318 38.306C217.038 38.166 216.698 38.096 216.296 38.096C215.54 38.096 214.971 38.3713 214.588 38.922C214.215 39.4727 214.028 40.196 214.028 41.092V43.108C214.028 44.0693 214.215 44.8113 214.588 45.334C214.971 45.8473 215.54 46.104 216.296 46.104ZM224.169 41.008C224.169 39.7387 224.472 38.754 225.079 38.054C225.685 37.354 226.53 37.004 227.613 37.004C228.695 37.004 229.54 37.354 230.147 38.054C230.753 38.754 231.057 39.7387 231.057 41.008V43.192C231.057 44.4987 230.753 45.4927 230.147 46.174C229.54 46.8553 228.695 47.196 227.613 47.196C226.53 47.196 225.685 46.8553 225.079 46.174C224.472 45.4927 224.169 44.4987 224.169 43.192V41.008ZM227.613 46.104C228.369 46.104 228.933 45.8473 229.307 45.334C229.689 44.8113 229.881 44.0693 229.881 43.108V41.092C229.881 40.196 229.689 39.4727 229.307 38.922C228.933 38.3713 228.369 38.096 227.613 38.096C226.857 38.096 226.287 38.3713 225.905 38.922C225.531 39.4727 225.345 40.196 225.345 41.092V43.108C225.345 44.0693 225.531 44.8113 225.905 45.334C226.287 45.8473 226.857 46.104 227.613 46.104ZM235.079 37.2H236.339L238.901 46.496H239.069L241.631 37.2H242.891L240.119 47H237.851L235.079 37.2ZM247.389 37.2H253.325V38.292H248.565V41.54H253.241V42.632H248.565V45.908H253.409V47H247.389V37.2ZM264.795 47H263.619V43.724C263.619 43.4813 263.563 43.2947 263.451 43.164C263.339 43.0333 263.143 42.968 262.863 42.968H259.811V47H258.635V37.2H262.135C262.639 37.2 263.078 37.2747 263.451 37.424C263.825 37.564 264.133 37.7553 264.375 37.998C264.627 38.2407 264.814 38.5253 264.935 38.852C265.066 39.1693 265.131 39.5053 265.131 39.86V40.28C265.131 40.644 265.029 41.008 264.823 41.372C264.627 41.736 264.319 42.016 263.899 42.212V42.38C264.179 42.4267 264.399 42.5387 264.557 42.716C264.716 42.8933 264.795 43.1453 264.795 43.472V47ZM259.811 41.876H261.995C262.658 41.876 263.148 41.736 263.465 41.456C263.792 41.1667 263.955 40.7467 263.955 40.196V39.944C263.955 39.4493 263.792 39.0527 263.465 38.754C263.148 38.446 262.658 38.292 261.995 38.292H259.811V41.876ZM270.134 37.2H276.07V38.292H271.31V41.54H275.986V42.632H271.31V45.908H276.154V47H270.134V37.2ZM281.212 37.2H284.432C285.645 37.2 286.532 37.4893 287.092 38.068C287.652 38.6467 287.932 39.5707 287.932 40.84V43.36C287.932 44.6293 287.652 45.5533 287.092 46.132C286.532 46.7107 285.645 47 284.432 47H281.212V45.894H282.052V38.292H281.212V37.2ZM284.264 45.908C284.693 45.908 285.062 45.866 285.37 45.782C285.687 45.698 285.949 45.558 286.154 45.362C286.359 45.1567 286.509 44.886 286.602 44.55C286.705 44.214 286.756 43.7893 286.756 43.276V40.924C286.756 40.4107 286.705 39.986 286.602 39.65C286.509 39.314 286.359 39.048 286.154 38.852C285.949 38.6467 285.687 38.502 285.37 38.418C285.062 38.334 284.693 38.292 284.264 38.292H283.228V45.908H284.264ZM292.99 48.148C293.494 48.148 293.979 48.0453 294.446 47.84C294.913 47.644 295.323 47.3593 295.678 46.986C296.033 46.6127 296.317 46.16 296.532 45.628C296.747 45.0867 296.854 44.48 296.854 43.808V40.392C296.854 39.72 296.747 39.118 296.532 38.586C296.317 38.0447 296.033 37.5873 295.678 37.214C295.323 36.8407 294.913 36.556 294.446 36.36C293.979 36.1547 293.494 36.052 292.99 36.052H292.486V35.016H292.99C293.643 35.016 294.269 35.1373 294.866 35.38C295.463 35.6227 295.991 35.9773 296.448 36.444C296.905 36.9013 297.269 37.4613 297.54 38.124C297.811 38.7773 297.946 39.5147 297.946 40.336V43.864C297.946 44.6947 297.811 45.4367 297.54 46.09C297.269 46.7433 296.905 47.2987 296.448 47.756C295.991 48.2227 295.463 48.5773 294.866 48.82C294.269 49.0627 293.643 49.184 292.99 49.184H292.486V48.148H292.99Z" fill="#FF8A00"/>
<line x1="30.75" y1="63.25" x2="347.25" y2="63.25" stroke="#DBDBDB" stroke-width="1.5" stroke-linecap="round"/>
<path d="M30.608 110.4C30.608 109.888 30.7893 109.451 31.152 109.088C31.5253 108.715 31.968 108.528 32.48 108.528C32.992 108.528 33.4293 108.715 33.792 109.088C34.1653 109.451 34.352 109.888 34.352 110.4C34.352 110.731 34.2667 111.04 34.096 111.328C33.9253 111.616 33.696 111.845 33.408 112.016C33.12 112.187 32.8107 112.272 32.48 112.272C32.1493 112.272 31.84 112.187 31.552 112.016C31.264 111.845 31.0347 111.616 30.864 111.328C30.6933 111.04 30.608 110.731 30.608 110.4Z" fill="black"/>
<path d="M54.815 106.1C56.365 106.1 57.58 106.53 58.46 107.39C59.35 108.24 59.795 109.46 59.795 111.05C59.795 112.64 59.35 113.865 58.46 114.725C57.58 115.575 56.365 116 54.815 116H51.62V106.1H54.815ZM54.935 114.875C56.065 114.875 56.945 114.54 57.575 113.87C58.215 113.19 58.535 112.25 58.535 111.05C58.535 109.85 58.215 108.915 57.575 108.245C56.945 107.565 56.065 107.225 54.935 107.225H52.82V114.875H54.935ZM63.0323 107.06C62.7623 107.06 62.5423 106.98 62.3723 106.82C62.2123 106.65 62.1323 106.43 62.1323 106.16C62.1323 105.89 62.2123 105.675 62.3723 105.515C62.5423 105.345 62.7623 105.26 63.0323 105.26C63.3023 105.26 63.5173 105.345 63.6773 105.515C63.8473 105.675 63.9323 105.89 63.9323 106.16C63.9323 106.43 63.8473 106.65 63.6773 106.82C63.5173 106.98 63.3023 107.06 63.0323 107.06ZM63.6323 108.5V116H62.4323V108.5H63.6323ZM71.0067 108.5V109.535H68.5017V116H67.3017V109.535H65.8017V108.5H67.3017V107.24C67.3017 106.57 67.5067 106.025 67.9167 105.605C68.3267 105.185 68.9417 104.975 69.7617 104.975C70.0217 104.975 70.2667 105.005 70.4967 105.065C70.7267 105.125 70.9067 105.21 71.0367 105.32L70.7217 106.295C70.4817 106.145 70.1967 106.07 69.8667 106.07C69.4367 106.07 69.1017 106.175 68.8617 106.385C68.6217 106.585 68.5017 106.91 68.5017 107.36V108.5H71.0067ZM76.9017 108.5V109.535H74.3967V116H73.1967V109.535H71.6967V108.5H73.1967V107.24C73.1967 106.57 73.4017 106.025 73.8117 105.605C74.2217 105.185 74.8367 104.975 75.6567 104.975C75.9167 104.975 76.1617 105.005 76.3917 105.065C76.6217 105.125 76.8017 105.21 76.9317 105.32L76.6167 106.295C76.3767 106.145 76.0917 106.07 75.7617 106.07C75.3317 106.07 74.9967 106.175 74.7567 106.385C74.5167 106.585 74.3967 106.91 74.3967 107.36V108.5H76.9017ZM79.1067 107.06C78.8367 107.06 78.6167 106.98 78.4467 106.82C78.2867 106.65 78.2067 106.43 78.2067 106.16C78.2067 105.89 78.2867 105.675 78.4467 105.515C78.6167 105.345 78.8367 105.26 79.1067 105.26C79.3767 105.26 79.5917 105.345 79.7517 105.515C79.9217 105.675 80.0067 105.89 80.0067 106.16C80.0067 106.43 79.9217 106.65 79.7517 106.82C79.5917 106.98 79.3767 107.06 79.1067 107.06ZM79.7067 108.5V116H78.5067V108.5H79.7067ZM85.898 108.35C86.668 108.35 87.308 108.53 87.818 108.89C88.328 109.24 88.723 109.725 89.003 110.345L87.863 110.885C87.703 110.405 87.458 110.04 87.128 109.79C86.808 109.53 86.388 109.4 85.868 109.4C85.118 109.4 84.528 109.655 84.098 110.165C83.678 110.665 83.468 111.36 83.468 112.25C83.468 113.14 83.678 113.84 84.098 114.35C84.528 114.85 85.118 115.1 85.868 115.1C86.458 115.1 86.928 114.965 87.278 114.695C87.628 114.425 87.858 114.045 87.968 113.555L89.078 113.945C88.828 114.635 88.433 115.175 87.893 115.565C87.363 115.955 86.698 116.15 85.898 116.15C85.198 116.15 84.573 115.995 84.023 115.685C83.473 115.375 83.043 114.93 82.733 114.35C82.423 113.76 82.268 113.06 82.268 112.25C82.268 111.44 82.423 110.745 82.733 110.165C83.043 109.575 83.473 109.125 84.023 108.815C84.573 108.505 85.198 108.35 85.898 108.35ZM94.2016 116.15C93.7216 116.15 93.2666 116.06 92.8366 115.88C92.4166 115.7 92.0716 115.41 91.8016 115.01C91.5416 114.6 91.4116 114.07 91.4116 113.42V108.5H92.6116V113.105C92.6116 113.865 92.7766 114.39 93.1066 114.68C93.4366 114.96 93.9016 115.1 94.5016 115.1C94.8816 115.1 95.2416 115.015 95.5816 114.845C95.9216 114.665 96.2016 114.39 96.4216 114.02C96.6416 113.65 96.7516 113.17 96.7516 112.58V108.5H97.9516V116H96.9016L96.8266 114.86C96.5666 115.31 96.2116 115.64 95.7616 115.85C95.3216 116.05 94.8016 116.15 94.2016 116.15ZM102.184 105.05V114.095C102.184 114.475 102.254 114.74 102.394 114.89C102.534 115.03 102.759 115.1 103.069 115.1C103.269 115.1 103.434 115.085 103.564 115.055C103.694 115.025 103.869 114.97 104.089 114.89L103.894 115.94C103.564 116.08 103.194 116.15 102.784 116.15C101.584 116.15 100.984 115.48 100.984 114.14V105.05H102.184ZM110.136 108.5V109.535H107.406V113.93C107.406 114.3 107.511 114.575 107.721 114.755C107.931 114.935 108.201 115.025 108.531 115.025C108.821 115.025 109.071 114.975 109.281 114.875C109.491 114.775 109.681 114.64 109.851 114.47L110.271 115.475C110.041 115.685 109.766 115.85 109.446 115.97C109.136 116.09 108.776 116.15 108.366 116.15C107.986 116.15 107.631 116.085 107.301 115.955C106.971 115.815 106.706 115.6 106.506 115.31C106.316 115.01 106.216 114.62 106.206 114.14V109.535H104.706V108.5H106.206V106.7L107.406 106.37V108.5H110.136ZM121.84 108.5V109.535H119.11V113.93C119.11 114.3 119.215 114.575 119.425 114.755C119.635 114.935 119.905 115.025 120.235 115.025C120.525 115.025 120.775 114.975 120.985 114.875C121.195 114.775 121.385 114.64 121.555 114.47L121.975 115.475C121.745 115.685 121.47 115.85 121.15 115.97C120.84 116.09 120.48 116.15 120.07 116.15C119.69 116.15 119.335 116.085 119.005 115.955C118.675 115.815 118.41 115.6 118.21 115.31C118.02 115.01 117.92 114.62 117.91 114.14V109.535H116.41V108.5H117.91V106.7L119.11 106.37V108.5H121.84ZM127.029 108.35C127.739 108.35 128.364 108.505 128.904 108.815C129.454 109.125 129.884 109.575 130.194 110.165C130.504 110.745 130.659 111.44 130.659 112.25C130.659 113.06 130.504 113.76 130.194 114.35C129.884 114.93 129.454 115.375 128.904 115.685C128.364 115.995 127.739 116.15 127.029 116.15C126.329 116.15 125.704 115.995 125.154 115.685C124.604 115.375 124.174 114.93 123.864 114.35C123.554 113.76 123.399 113.06 123.399 112.25C123.399 111.44 123.554 110.745 123.864 110.165C124.174 109.575 124.604 109.125 125.154 108.815C125.704 108.505 126.329 108.35 127.029 108.35ZM127.029 109.385C126.269 109.385 125.674 109.64 125.244 110.15C124.814 110.66 124.599 111.36 124.599 112.25C124.599 113.14 124.814 113.84 125.244 114.35C125.674 114.86 126.269 115.115 127.029 115.115C127.789 115.115 128.384 114.86 128.814 114.35C129.244 113.84 129.459 113.14 129.459 112.25C129.459 111.36 129.244 110.66 128.814 110.15C128.384 109.64 127.789 109.385 127.029 109.385ZM141.346 116.15C140.866 116.15 140.411 116.06 139.981 115.88C139.561 115.7 139.216 115.41 138.946 115.01C138.686 114.6 138.556 114.07 138.556 113.42V108.5H139.756V113.105C139.756 113.865 139.921 114.39 140.251 114.68C140.581 114.96 141.046 115.1 141.646 115.1C142.026 115.1 142.386 115.015 142.726 114.845C143.066 114.665 143.346 114.39 143.566 114.02C143.786 113.65 143.896 113.17 143.896 112.58V108.5H145.096V116H144.046L143.971 114.86C143.711 115.31 143.356 115.64 142.906 115.85C142.466 116.05 141.946 116.15 141.346 116.15ZM150.888 116.15C150.158 116.15 149.483 115.995 148.863 115.685C148.253 115.375 147.783 114.935 147.453 114.365L148.473 113.63C148.693 114.09 149.013 114.45 149.433 114.71C149.863 114.97 150.378 115.1 150.978 115.1C151.508 115.1 151.923 115 152.223 114.8C152.523 114.59 152.673 114.32 152.673 113.99C152.673 113.78 152.603 113.59 152.463 113.42C152.333 113.24 152.078 113.11 151.698 113.03L149.898 112.655C149.168 112.505 148.643 112.255 148.323 111.905C148.013 111.555 147.858 111.12 147.858 110.6C147.858 110.19 147.973 109.815 148.203 109.475C148.443 109.135 148.778 108.865 149.208 108.665C149.648 108.455 150.163 108.35 150.753 108.35C151.493 108.35 152.118 108.495 152.628 108.785C153.138 109.075 153.518 109.485 153.768 110.015L152.763 110.675C152.593 110.235 152.318 109.915 151.938 109.715C151.558 109.505 151.163 109.4 150.753 109.4C150.213 109.4 149.793 109.51 149.493 109.73C149.193 109.95 149.043 110.225 149.043 110.555C149.043 110.775 149.118 110.98 149.268 111.17C149.418 111.35 149.698 111.48 150.108 111.56L151.983 111.95C152.683 112.09 153.173 112.32 153.453 112.64C153.733 112.96 153.873 113.35 153.873 113.81C153.873 114.52 153.598 115.09 153.048 115.52C152.498 115.94 151.778 116.15 150.888 116.15ZM159.534 116.15C158.824 116.15 158.189 115.995 157.629 115.685C157.079 115.375 156.649 114.93 156.339 114.35C156.029 113.76 155.874 113.06 155.874 112.25C155.874 111.44 156.029 110.745 156.339 110.165C156.649 109.575 157.074 109.125 157.614 108.815C158.154 108.505 158.769 108.35 159.459 108.35C160.159 108.35 160.754 108.5 161.244 108.8C161.744 109.1 162.124 109.51 162.384 110.03C162.644 110.54 162.774 111.115 162.774 111.755C162.774 111.925 162.769 112.08 162.759 112.22C162.749 112.36 162.734 112.485 162.714 112.595H157.059C157.119 113.385 157.364 114 157.794 114.44C158.224 114.88 158.794 115.1 159.504 115.1C160.054 115.1 160.499 114.995 160.839 114.785C161.189 114.575 161.469 114.29 161.679 113.93L162.624 114.485C162.344 114.995 161.939 115.4 161.409 115.7C160.889 116 160.264 116.15 159.534 116.15ZM159.429 109.4C158.799 109.4 158.279 109.59 157.869 109.97C157.469 110.34 157.214 110.86 157.104 111.53H161.574C161.544 110.85 161.334 110.325 160.944 109.955C160.554 109.585 160.049 109.4 159.429 109.4ZM173.873 108.35C174.643 108.35 175.283 108.53 175.793 108.89C176.303 109.24 176.698 109.725 176.978 110.345L175.838 110.885C175.678 110.405 175.433 110.04 175.103 109.79C174.783 109.53 174.363 109.4 173.843 109.4C173.093 109.4 172.503 109.655 172.073 110.165C171.653 110.665 171.443 111.36 171.443 112.25C171.443 113.14 171.653 113.84 172.073 114.35C172.503 114.85 173.093 115.1 173.843 115.1C174.433 115.1 174.903 114.965 175.253 114.695C175.603 114.425 175.833 114.045 175.943 113.555L177.053 113.945C176.803 114.635 176.408 115.175 175.868 115.565C175.338 115.955 174.673 116.15 173.873 116.15C173.173 116.15 172.548 115.995 171.998 115.685C171.448 115.375 171.018 114.93 170.708 114.35C170.398 113.76 170.243 113.06 170.243 112.25C170.243 111.44 170.398 110.745 170.708 110.165C171.018 109.575 171.448 109.125 171.998 108.815C172.548 108.505 173.173 108.35 173.873 108.35ZM182.567 108.35C183.277 108.35 183.902 108.505 184.442 108.815C184.992 109.125 185.422 109.575 185.732 110.165C186.042 110.745 186.197 111.44 186.197 112.25C186.197 113.06 186.042 113.76 185.732 114.35C185.422 114.93 184.992 115.375 184.442 115.685C183.902 115.995 183.277 116.15 182.567 116.15C181.867 116.15 181.242 115.995 180.692 115.685C180.142 115.375 179.712 114.93 179.402 114.35C179.092 113.76 178.937 113.06 178.937 112.25C178.937 111.44 179.092 110.745 179.402 110.165C179.712 109.575 180.142 109.125 180.692 108.815C181.242 108.505 181.867 108.35 182.567 108.35ZM182.567 109.385C181.807 109.385 181.212 109.64 180.782 110.15C180.352 110.66 180.137 111.36 180.137 112.25C180.137 113.14 180.352 113.84 180.782 114.35C181.212 114.86 181.807 115.115 182.567 115.115C183.327 115.115 183.922 114.86 184.352 114.35C184.782 113.84 184.997 113.14 184.997 112.25C184.997 111.36 184.782 110.66 184.352 110.15C183.922 109.64 183.327 109.385 182.567 109.385ZM188.756 116V108.5H189.806L189.881 109.67C190.151 109.21 190.501 108.875 190.931 108.665C191.371 108.455 191.821 108.35 192.281 108.35C192.811 108.35 193.311 108.47 193.781 108.71C194.251 108.95 194.611 109.32 194.861 109.82C195.021 109.48 195.246 109.205 195.536 108.995C195.826 108.775 196.141 108.615 196.481 108.515C196.831 108.405 197.161 108.35 197.471 108.35C197.951 108.35 198.406 108.45 198.836 108.65C199.276 108.85 199.636 109.16 199.916 109.58C200.196 110 200.336 110.54 200.336 111.2V116H199.136V111.32C199.136 110.64 198.966 110.15 198.626 109.85C198.286 109.55 197.866 109.4 197.366 109.4C196.976 109.4 196.611 109.495 196.271 109.685C195.931 109.875 195.656 110.155 195.446 110.525C195.246 110.895 195.146 111.35 195.146 111.89V116H193.946V111.32C193.946 110.64 193.776 110.15 193.436 109.85C193.096 109.55 192.676 109.4 192.176 109.4C191.846 109.4 191.506 109.49 191.156 109.67C190.816 109.84 190.531 110.115 190.301 110.495C190.071 110.875 189.956 111.375 189.956 111.995V116H188.756ZM203.353 119.15V108.5H204.403L204.478 109.82C204.708 109.38 205.048 109.025 205.498 108.755C205.958 108.485 206.483 108.35 207.073 108.35C207.683 108.35 208.243 108.505 208.753 108.815C209.273 109.125 209.688 109.57 209.998 110.15C210.308 110.73 210.463 111.43 210.463 112.25C210.463 113.06 210.303 113.76 209.983 114.35C209.673 114.93 209.258 115.375 208.738 115.685C208.218 115.995 207.648 116.15 207.028 116.15C206.468 116.15 205.973 116.03 205.543 115.79C205.113 115.54 204.783 115.22 204.553 114.83V119.15H203.353ZM206.908 115.1C207.648 115.1 208.223 114.84 208.633 114.32C209.053 113.8 209.263 113.11 209.263 112.25C209.263 111.39 209.058 110.7 208.648 110.18C208.248 109.66 207.683 109.4 206.953 109.4C206.233 109.4 205.653 109.66 205.213 110.18C204.773 110.7 204.553 111.39 204.553 112.25C204.553 113.11 204.768 113.8 205.198 114.32C205.628 114.84 206.198 115.1 206.908 115.1ZM214.197 105.05V114.095C214.197 114.475 214.267 114.74 214.407 114.89C214.547 115.03 214.772 115.1 215.082 115.1C215.282 115.1 215.447 115.085 215.577 115.055C215.707 115.025 215.882 114.97 216.102 114.89L215.907 115.94C215.577 116.08 215.207 116.15 214.797 116.15C213.597 116.15 212.997 115.48 212.997 114.14V105.05H214.197ZM221.077 116.15C220.367 116.15 219.732 115.995 219.172 115.685C218.622 115.375 218.192 114.93 217.882 114.35C217.572 113.76 217.417 113.06 217.417 112.25C217.417 111.44 217.572 110.745 217.882 110.165C218.192 109.575 218.617 109.125 219.157 108.815C219.697 108.505 220.312 108.35 221.002 108.35C221.702 108.35 222.297 108.5 222.787 108.8C223.287 109.1 223.667 109.51 223.927 110.03C224.187 110.54 224.317 111.115 224.317 111.755C224.317 111.925 224.312 112.08 224.302 112.22C224.292 112.36 224.277 112.485 224.257 112.595H218.602C218.662 113.385 218.907 114 219.337 114.44C219.767 114.88 220.337 115.1 221.047 115.1C221.597 115.1 222.042 114.995 222.382 114.785C222.732 114.575 223.012 114.29 223.222 113.93L224.167 114.485C223.887 114.995 223.482 115.4 222.952 115.7C222.432 116 221.807 116.15 221.077 116.15ZM220.972 109.4C220.342 109.4 219.822 109.59 219.412 109.97C219.012 110.34 218.757 110.86 218.647 111.53H223.117C223.087 110.85 222.877 110.325 222.487 109.955C222.097 109.585 221.592 109.4 220.972 109.4ZM227.341 108.5L229.321 111.275L231.271 108.5H232.681L229.966 112.175L232.726 116H231.256L229.186 113.105L227.056 116H225.661L228.541 112.22L225.841 108.5H227.341ZM244.418 111.155C244.418 110.595 244.268 110.165 243.968 109.865C243.668 109.555 243.243 109.4 242.693 109.4C242.173 109.4 241.733 109.515 241.373 109.745C241.013 109.965 240.748 110.325 240.578 110.825L239.603 110.225C239.803 109.665 240.173 109.215 240.713 108.875C241.253 108.525 241.923 108.35 242.723 108.35C243.263 108.35 243.753 108.445 244.193 108.635C244.633 108.815 244.978 109.095 245.228 109.475C245.488 109.845 245.618 110.325 245.618 110.915V114.545C245.618 114.905 245.808 115.085 246.188 115.085C246.378 115.085 246.563 115.06 246.743 115.01L246.683 115.955C246.483 116.055 246.223 116.105 245.903 116.105C245.533 116.105 245.213 116.015 244.943 115.835C244.683 115.655 244.513 115.38 244.433 115.01C244.173 115.4 243.818 115.69 243.368 115.88C242.918 116.06 242.473 116.15 242.033 116.15C241.593 116.15 241.183 116.075 240.803 115.925C240.423 115.775 240.118 115.55 239.888 115.25C239.668 114.94 239.558 114.56 239.558 114.11C239.558 113.55 239.743 113.09 240.113 112.73C240.493 112.36 241.018 112.11 241.688 111.98L244.418 111.44V111.155ZM240.788 114.05C240.788 114.36 240.908 114.615 241.148 114.815C241.398 115.005 241.748 115.1 242.198 115.1C242.588 115.1 242.948 115.035 243.278 114.905C243.618 114.765 243.893 114.56 244.103 114.29C244.313 114.01 244.418 113.655 244.418 113.225V112.43L242.243 112.88C241.753 112.98 241.388 113.12 241.148 113.3C240.908 113.48 240.788 113.73 240.788 114.05ZM248.834 119.15V108.5H249.884L249.959 109.82C250.189 109.38 250.529 109.025 250.979 108.755C251.439 108.485 251.964 108.35 252.554 108.35C253.164 108.35 253.724 108.505 254.234 108.815C254.754 109.125 255.169 109.57 255.479 110.15C255.789 110.73 255.944 111.43 255.944 112.25C255.944 113.06 255.784 113.76 255.464 114.35C255.154 114.93 254.739 115.375 254.219 115.685C253.699 115.995 253.129 116.15 252.509 116.15C251.949 116.15 251.454 116.03 251.024 115.79C250.594 115.54 250.264 115.22 250.034 114.83V119.15H248.834ZM252.389 115.1C253.129 115.1 253.704 114.84 254.114 114.32C254.534 113.8 254.744 113.11 254.744 112.25C254.744 111.39 254.539 110.7 254.129 110.18C253.729 109.66 253.164 109.4 252.434 109.4C251.714 109.4 251.134 109.66 250.694 110.18C250.254 110.7 250.034 111.39 250.034 112.25C250.034 113.11 250.249 113.8 250.679 114.32C251.109 114.84 251.679 115.1 252.389 115.1ZM258.539 119.15V108.5H259.589L259.664 109.82C259.894 109.38 260.234 109.025 260.684 108.755C261.144 108.485 261.669 108.35 262.259 108.35C262.869 108.35 263.429 108.505 263.939 108.815C264.459 109.125 264.874 109.57 265.184 110.15C265.494 110.73 265.649 111.43 265.649 112.25C265.649 113.06 265.489 113.76 265.169 114.35C264.859 114.93 264.444 115.375 263.924 115.685C263.404 115.995 262.834 116.15 262.214 116.15C261.654 116.15 261.159 116.03 260.729 115.79C260.299 115.54 259.969 115.22 259.739 114.83V119.15H258.539ZM262.094 115.1C262.834 115.1 263.409 114.84 263.819 114.32C264.239 113.8 264.449 113.11 264.449 112.25C264.449 111.39 264.244 110.7 263.834 110.18C263.434 109.66 262.869 109.4 262.139 109.4C261.419 109.4 260.839 109.66 260.399 110.18C259.959 110.7 259.739 111.39 259.739 112.25C259.739 113.11 259.954 113.8 260.384 114.32C260.814 114.84 261.384 115.1 262.094 115.1ZM270.943 116.15C270.213 116.15 269.538 115.995 268.918 115.685C268.308 115.375 267.838 114.935 267.508 114.365L268.528 113.63C268.748 114.09 269.068 114.45 269.488 114.71C269.918 114.97 270.433 115.1 271.033 115.1C271.563 115.1 271.978 115 272.278 114.8C272.578 114.59 272.728 114.32 272.728 113.99C272.728 113.78 272.658 113.59 272.518 113.42C272.388 113.24 272.133 113.11 271.753 113.03L269.953 112.655C269.223 112.505 268.698 112.255 268.378 111.905C268.068 111.555 267.913 111.12 267.913 110.6C267.913 110.19 268.028 109.815 268.258 109.475C268.498 109.135 268.833 108.865 269.263 108.665C269.703 108.455 270.218 108.35 270.808 108.35C271.548 108.35 272.173 108.495 272.683 108.785C273.193 109.075 273.573 109.485 273.823 110.015L272.818 110.675C272.648 110.235 272.373 109.915 271.993 109.715C271.613 109.505 271.218 109.4 270.808 109.4C270.268 109.4 269.848 109.51 269.548 109.73C269.248 109.95 269.098 110.225 269.098 110.555C269.098 110.775 269.173 110.98 269.323 111.17C269.473 111.35 269.753 111.48 270.163 111.56L272.038 111.95C272.738 112.09 273.228 112.32 273.508 112.64C273.788 112.96 273.928 113.35 273.928 113.81C273.928 114.52 273.653 115.09 273.103 115.52C272.553 115.94 271.833 116.15 270.943 116.15ZM277.053 114.2C277.343 114.2 277.578 114.29 277.758 114.47C277.938 114.65 278.028 114.885 278.028 115.175C278.028 115.465 277.938 115.7 277.758 115.88C277.578 116.06 277.343 116.15 277.053 116.15C276.763 116.15 276.528 116.06 276.348 115.88C276.168 115.7 276.078 115.465 276.078 115.175C276.078 114.885 276.168 114.65 276.348 114.47C276.528 114.29 276.763 114.2 277.053 114.2ZM59.3 130.1L55.55 140H54.185L50.42 130.1H51.71L54.23 136.94L54.86 138.905L55.49 136.955L58.01 130.1H59.3ZM62.0216 131.06C61.7516 131.06 61.5316 130.98 61.3616 130.82C61.2016 130.65 61.1216 130.43 61.1216 130.16C61.1216 129.89 61.2016 129.675 61.3616 129.515C61.5316 129.345 61.7516 129.26 62.0216 129.26C62.2916 129.26 62.5066 129.345 62.6666 129.515C62.8366 129.675 62.9216 129.89 62.9216 130.16C62.9216 130.43 62.8366 130.65 62.6666 130.82C62.5066 130.98 62.2916 131.06 62.0216 131.06ZM62.6216 132.5V140H61.4216V132.5H62.6216ZM68.6309 140.15C68.0109 140.15 67.4409 139.995 66.9209 139.685C66.4009 139.375 65.9859 138.93 65.6759 138.35C65.3659 137.76 65.2109 137.06 65.2109 136.25C65.2109 135.42 65.3759 134.715 65.7059 134.135C66.0359 133.555 66.4709 133.115 67.0109 132.815C67.5509 132.505 68.1309 132.35 68.7509 132.35C69.2909 132.35 69.7709 132.475 70.1909 132.725C70.6109 132.965 70.9209 133.295 71.1209 133.715V129.05H72.3209V140H71.2709L71.1959 138.59C70.9859 139.1 70.6459 139.49 70.1759 139.76C69.7059 140.02 69.1909 140.15 68.6309 140.15ZM68.7509 139.1C69.4609 139.1 70.0309 138.835 70.4609 138.305C70.9009 137.775 71.1209 137.055 71.1209 136.145C71.1209 135.285 70.9059 134.615 70.4759 134.135C70.0459 133.645 69.4909 133.4 68.8109 133.4C68.0509 133.4 67.4609 133.66 67.0409 134.18C66.6209 134.7 66.4109 135.39 66.4109 136.25C66.4109 137.11 66.6159 137.8 67.0259 138.32C67.4359 138.84 68.0109 139.1 68.7509 139.1ZM78.5452 140.15C77.8352 140.15 77.2002 139.995 76.6402 139.685C76.0902 139.375 75.6602 138.93 75.3502 138.35C75.0402 137.76 74.8852 137.06 74.8852 136.25C74.8852 135.44 75.0402 134.745 75.3502 134.165C75.6602 133.575 76.0852 133.125 76.6252 132.815C77.1652 132.505 77.7802 132.35 78.4702 132.35C79.1702 132.35 79.7652 132.5 80.2552 132.8C80.7552 133.1 81.1352 133.51 81.3952 134.03C81.6552 134.54 81.7852 135.115 81.7852 135.755C81.7852 135.925 81.7802 136.08 81.7702 136.22C81.7602 136.36 81.7452 136.485 81.7252 136.595H76.0702C76.1302 137.385 76.3752 138 76.8052 138.44C77.2352 138.88 77.8052 139.1 78.5152 139.1C79.0652 139.1 79.5102 138.995 79.8502 138.785C80.2002 138.575 80.4802 138.29 80.6902 137.93L81.6352 138.485C81.3552 138.995 80.9502 139.4 80.4202 139.7C79.9002 140 79.2752 140.15 78.5452 140.15ZM78.4402 133.4C77.8102 133.4 77.2902 133.59 76.8802 133.97C76.4802 134.34 76.2252 134.86 76.1152 135.53H80.5852C80.5552 134.85 80.3452 134.325 79.9552 133.955C79.5652 133.585 79.0602 133.4 78.4402 133.4ZM87.4725 132.35C88.1825 132.35 88.8075 132.505 89.3475 132.815C89.8975 133.125 90.3275 133.575 90.6375 134.165C90.9475 134.745 91.1025 135.44 91.1025 136.25C91.1025 137.06 90.9475 137.76 90.6375 138.35C90.3275 138.93 89.8975 139.375 89.3475 139.685C88.8075 139.995 88.1825 140.15 87.4725 140.15C86.7725 140.15 86.1475 139.995 85.5975 139.685C85.0475 139.375 84.6175 138.93 84.3075 138.35C83.9975 137.76 83.8425 137.06 83.8425 136.25C83.8425 135.44 83.9975 134.745 84.3075 134.165C84.6175 133.575 85.0475 133.125 85.5975 132.815C86.1475 132.505 86.7725 132.35 87.4725 132.35ZM87.4725 133.385C86.7125 133.385 86.1175 133.64 85.6875 134.15C85.2575 134.66 85.0425 135.36 85.0425 136.25C85.0425 137.14 85.2575 137.84 85.6875 138.35C86.1175 138.86 86.7125 139.115 87.4725 139.115C88.2325 139.115 88.8275 138.86 89.2575 138.35C89.6875 137.84 89.9025 137.14 89.9025 136.25C89.9025 135.36 89.6875 134.66 89.2575 134.15C88.8275 133.64 88.2325 133.385 87.4725 133.385ZM96.3616 140.15C95.6316 140.15 94.9566 139.995 94.3366 139.685C93.7266 139.375 93.2566 138.935 92.9266 138.365L93.9466 137.63C94.1666 138.09 94.4866 138.45 94.9066 138.71C95.3366 138.97 95.8516 139.1 96.4516 139.1C96.9816 139.1 97.3966 139 97.6966 138.8C97.9966 138.59 98.1466 138.32 98.1466 137.99C98.1466 137.78 98.0766 137.59 97.9366 137.42C97.8066 137.24 97.5516 137.11 97.1716 137.03L95.3716 136.655C94.6416 136.505 94.1166 136.255 93.7966 135.905C93.4866 135.555 93.3316 135.12 93.3316 134.6C93.3316 134.19 93.4466 133.815 93.6766 133.475C93.9166 133.135 94.2516 132.865 94.6816 132.665C95.1216 132.455 95.6366 132.35 96.2266 132.35C96.9666 132.35 97.5916 132.495 98.1016 132.785C98.6116 133.075 98.9916 133.485 99.2416 134.015L98.2366 134.675C98.0666 134.235 97.7916 133.915 97.4116 133.715C97.0316 133.505 96.6366 133.4 96.2266 133.4C95.6866 133.4 95.2666 133.51 94.9666 133.73C94.6666 133.95 94.5166 134.225 94.5166 134.555C94.5166 134.775 94.5916 134.98 94.7416 135.17C94.8916 135.35 95.1716 135.48 95.5816 135.56L97.4566 135.95C98.1566 136.09 98.6466 136.32 98.9266 136.64C99.2066 136.96 99.3466 137.35 99.3466 137.81C99.3466 138.52 99.0716 139.09 98.5216 139.52C97.9716 139.94 97.2516 140.15 96.3616 140.15ZM109.759 140.15C108.769 140.15 107.994 139.9 107.434 139.4C106.884 138.9 106.609 138.26 106.609 137.48C106.609 136.87 106.769 136.32 107.089 135.83C107.419 135.33 108.019 134.88 108.889 134.48C108.509 133.96 108.244 133.535 108.094 133.205C107.944 132.865 107.869 132.515 107.869 132.155C107.869 131.795 107.954 131.445 108.124 131.105C108.304 130.765 108.574 130.49 108.934 130.28C109.294 130.06 109.759 129.95 110.329 129.95C110.969 129.95 111.489 130.13 111.889 130.49C112.289 130.84 112.489 131.325 112.489 131.945C112.489 132.285 112.434 132.61 112.324 132.92C112.224 133.22 112.024 133.52 111.724 133.82C111.424 134.12 110.989 134.43 110.419 134.75C110.559 134.93 110.714 135.13 110.884 135.35C111.064 135.57 111.259 135.81 111.469 136.07C111.709 136.37 111.929 136.645 112.129 136.895C112.329 137.135 112.514 137.355 112.684 137.555C112.894 137.175 113.054 136.75 113.164 136.28C113.274 135.8 113.309 135.275 113.269 134.705L114.289 134.795C114.329 135.405 114.269 136.015 114.109 136.625C113.949 137.225 113.689 137.77 113.329 138.26C113.609 138.54 113.849 138.75 114.049 138.89C114.259 139.03 114.459 139.125 114.649 139.175C114.849 139.225 115.064 139.25 115.294 139.25L114.994 140.15C114.744 140.15 114.504 140.125 114.274 140.075C114.054 140.025 113.819 139.92 113.569 139.76C113.319 139.6 113.029 139.355 112.699 139.025C112.329 139.375 111.899 139.65 111.409 139.85C110.929 140.05 110.379 140.15 109.759 140.15ZM108.994 132.14C108.994 132.31 109.014 132.475 109.054 132.635C109.094 132.785 109.174 132.965 109.294 133.175C109.414 133.385 109.599 133.665 109.849 134.015C110.389 133.715 110.789 133.43 111.049 133.16C111.319 132.88 111.454 132.52 111.454 132.08C111.454 131.73 111.344 131.46 111.124 131.27C110.914 131.07 110.624 130.97 110.254 130.97C109.824 130.97 109.504 131.09 109.294 131.33C109.094 131.56 108.994 131.83 108.994 132.14ZM107.749 137.375C107.749 137.935 107.954 138.375 108.364 138.695C108.774 139.015 109.279 139.175 109.879 139.175C110.349 139.175 110.754 139.105 111.094 138.965C111.434 138.815 111.749 138.605 112.039 138.335C111.659 137.915 111.199 137.375 110.659 136.715C110.419 136.415 110.194 136.14 109.984 135.89C109.784 135.63 109.599 135.395 109.429 135.185C108.779 135.515 108.334 135.84 108.094 136.16C107.864 136.48 107.749 136.885 107.749 137.375ZM122.342 140V132.5H123.317L123.482 133.73C123.902 132.81 124.702 132.35 125.882 132.35C126.012 132.35 126.152 132.36 126.302 132.38C126.462 132.4 126.597 132.44 126.707 132.5L126.497 133.595C126.387 133.555 126.267 133.525 126.137 133.505C126.007 133.485 125.822 133.475 125.582 133.475C125.272 133.475 124.957 133.565 124.637 133.745C124.327 133.925 124.067 134.2 123.857 134.57C123.647 134.93 123.542 135.39 123.542 135.95V140H122.342ZM131.666 140.15C130.956 140.15 130.321 139.995 129.761 139.685C129.211 139.375 128.781 138.93 128.471 138.35C128.161 137.76 128.006 137.06 128.006 136.25C128.006 135.44 128.161 134.745 128.471 134.165C128.781 133.575 129.206 133.125 129.746 132.815C130.286 132.505 130.901 132.35 131.591 132.35C132.291 132.35 132.886 132.5 133.376 132.8C133.876 133.1 134.256 133.51 134.516 134.03C134.776 134.54 134.906 135.115 134.906 135.755C134.906 135.925 134.901 136.08 134.891 136.22C134.881 136.36 134.866 136.485 134.846 136.595H129.191C129.251 137.385 129.496 138 129.926 138.44C130.356 138.88 130.926 139.1 131.636 139.1C132.186 139.1 132.631 138.995 132.971 138.785C133.321 138.575 133.601 138.29 133.811 137.93L134.756 138.485C134.476 138.995 134.071 139.4 133.541 139.7C133.021 140 132.396 140.15 131.666 140.15ZM131.561 133.4C130.931 133.4 130.411 133.59 130.001 133.97C129.601 134.34 129.346 134.86 129.236 135.53H133.706C133.676 134.85 133.466 134.325 133.076 133.955C132.686 133.585 132.181 133.4 131.561 133.4ZM140.593 132.35C141.363 132.35 142.003 132.53 142.513 132.89C143.023 133.24 143.418 133.725 143.698 134.345L142.558 134.885C142.398 134.405 142.153 134.04 141.823 133.79C141.503 133.53 141.083 133.4 140.563 133.4C139.813 133.4 139.223 133.655 138.793 134.165C138.373 134.665 138.163 135.36 138.163 136.25C138.163 137.14 138.373 137.84 138.793 138.35C139.223 138.85 139.813 139.1 140.563 139.1C141.153 139.1 141.623 138.965 141.973 138.695C142.323 138.425 142.553 138.045 142.663 137.555L143.773 137.945C143.523 138.635 143.128 139.175 142.588 139.565C142.058 139.955 141.393 140.15 140.593 140.15C139.893 140.15 139.268 139.995 138.718 139.685C138.168 139.375 137.738 138.93 137.428 138.35C137.118 137.76 136.963 137.06 136.963 136.25C136.963 135.44 137.118 134.745 137.428 134.165C137.738 133.575 138.168 133.125 138.718 132.815C139.268 132.505 139.893 132.35 140.593 132.35ZM146.782 131.06C146.512 131.06 146.292 130.98 146.122 130.82C145.962 130.65 145.882 130.43 145.882 130.16C145.882 129.89 145.962 129.675 146.122 129.515C146.292 129.345 146.512 129.26 146.782 129.26C147.052 129.26 147.267 129.345 147.427 129.515C147.597 129.675 147.682 129.89 147.682 130.16C147.682 130.43 147.597 130.65 147.427 130.82C147.267 130.98 147.052 131.06 146.782 131.06ZM147.382 132.5V140H146.182V132.5H147.382ZM150.466 143.15V132.5H151.516L151.591 133.82C151.821 133.38 152.161 133.025 152.611 132.755C153.071 132.485 153.596 132.35 154.186 132.35C154.796 132.35 155.356 132.505 155.866 132.815C156.386 133.125 156.801 133.57 157.111 134.15C157.421 134.73 157.576 135.43 157.576 136.25C157.576 137.06 157.416 137.76 157.096 138.35C156.786 138.93 156.371 139.375 155.851 139.685C155.331 139.995 154.761 140.15 154.141 140.15C153.581 140.15 153.086 140.03 152.656 139.79C152.226 139.54 151.896 139.22 151.666 138.83V143.15H150.466ZM154.021 139.1C154.761 139.1 155.336 138.84 155.746 138.32C156.166 137.8 156.376 137.11 156.376 136.25C156.376 135.39 156.171 134.7 155.761 134.18C155.361 133.66 154.796 133.4 154.066 133.4C153.346 133.4 152.766 133.66 152.326 134.18C151.886 134.7 151.666 135.39 151.666 136.25C151.666 137.11 151.881 137.8 152.311 138.32C152.741 138.84 153.311 139.1 154.021 139.1ZM163.305 140.15C162.595 140.15 161.96 139.995 161.4 139.685C160.85 139.375 160.42 138.93 160.11 138.35C159.8 137.76 159.645 137.06 159.645 136.25C159.645 135.44 159.8 134.745 160.11 134.165C160.42 133.575 160.845 133.125 161.385 132.815C161.925 132.505 162.54 132.35 163.23 132.35C163.93 132.35 164.525 132.5 165.015 132.8C165.515 133.1 165.895 133.51 166.155 134.03C166.415 134.54 166.545 135.115 166.545 135.755C166.545 135.925 166.54 136.08 166.53 136.22C166.52 136.36 166.505 136.485 166.485 136.595H160.83C160.89 137.385 161.135 138 161.565 138.44C161.995 138.88 162.565 139.1 163.275 139.1C163.825 139.1 164.27 138.995 164.61 138.785C164.96 138.575 165.24 138.29 165.45 137.93L166.395 138.485C166.115 138.995 165.71 139.4 165.18 139.7C164.66 140 164.035 140.15 163.305 140.15ZM163.2 133.4C162.57 133.4 162.05 133.59 161.64 133.97C161.24 134.34 160.985 134.86 160.875 135.53H165.345C165.315 134.85 165.105 134.325 164.715 133.955C164.325 133.585 163.82 133.4 163.2 133.4ZM178.215 140.15C177.645 140.15 177.135 140.015 176.685 139.745C176.235 139.475 175.895 139.12 175.665 138.68L175.59 140H174.54V129.05H175.74V133.67C175.98 133.28 176.315 132.965 176.745 132.725C177.185 132.475 177.68 132.35 178.23 132.35C178.85 132.35 179.42 132.505 179.94 132.815C180.46 133.125 180.875 133.57 181.185 134.15C181.495 134.73 181.65 135.43 181.65 136.25C181.65 137.06 181.49 137.76 181.17 138.35C180.86 138.93 180.445 139.375 179.925 139.685C179.405 139.995 178.835 140.15 178.215 140.15ZM178.095 139.1C178.835 139.1 179.41 138.84 179.82 138.32C180.24 137.8 180.45 137.11 180.45 136.25C180.45 135.39 180.245 134.7 179.835 134.18C179.425 133.66 178.85 133.4 178.11 133.4C177.41 133.4 176.84 133.665 176.4 134.195C175.96 134.725 175.74 135.42 175.74 136.28C175.74 137.14 175.955 137.825 176.385 138.335C176.825 138.845 177.395 139.1 178.095 139.1ZM187.349 132.35C188.059 132.35 188.684 132.505 189.224 132.815C189.774 133.125 190.204 133.575 190.514 134.165C190.824 134.745 190.979 135.44 190.979 136.25C190.979 137.06 190.824 137.76 190.514 138.35C190.204 138.93 189.774 139.375 189.224 139.685C188.684 139.995 188.059 140.15 187.349 140.15C186.649 140.15 186.024 139.995 185.474 139.685C184.924 139.375 184.494 138.93 184.184 138.35C183.874 137.76 183.719 137.06 183.719 136.25C183.719 135.44 183.874 134.745 184.184 134.165C184.494 133.575 184.924 133.125 185.474 132.815C186.024 132.505 186.649 132.35 187.349 132.35ZM187.349 133.385C186.589 133.385 185.994 133.64 185.564 134.15C185.134 134.66 184.919 135.36 184.919 136.25C184.919 137.14 185.134 137.84 185.564 138.35C185.994 138.86 186.589 139.115 187.349 139.115C188.109 139.115 188.704 138.86 189.134 138.35C189.564 137.84 189.779 137.14 189.779 136.25C189.779 135.36 189.564 134.66 189.134 134.15C188.704 133.64 188.109 133.385 187.349 133.385ZM196.643 132.35C197.353 132.35 197.978 132.505 198.518 132.815C199.068 133.125 199.498 133.575 199.808 134.165C200.118 134.745 200.273 135.44 200.273 136.25C200.273 137.06 200.118 137.76 199.808 138.35C199.498 138.93 199.068 139.375 198.518 139.685C197.978 139.995 197.353 140.15 196.643 140.15C195.943 140.15 195.318 139.995 194.768 139.685C194.218 139.375 193.788 138.93 193.478 138.35C193.168 137.76 193.013 137.06 193.013 136.25C193.013 135.44 193.168 134.745 193.478 134.165C193.788 133.575 194.218 133.125 194.768 132.815C195.318 132.505 195.943 132.35 196.643 132.35ZM196.643 133.385C195.883 133.385 195.288 133.64 194.858 134.15C194.428 134.66 194.213 135.36 194.213 136.25C194.213 137.14 194.428 137.84 194.858 138.35C195.288 138.86 195.883 139.115 196.643 139.115C197.403 139.115 197.998 138.86 198.428 138.35C198.858 137.84 199.073 137.14 199.073 136.25C199.073 135.36 198.858 134.66 198.428 134.15C197.998 133.64 197.403 133.385 196.643 133.385ZM209.417 132.5L206.492 135.425L209.597 140H208.142L205.622 136.295L204.032 137.885V140H202.832V129.05H204.032V136.385L207.902 132.5H209.417ZM214.182 140.15C213.452 140.15 212.777 139.995 212.157 139.685C211.547 139.375 211.077 138.935 210.747 138.365L211.767 137.63C211.987 138.09 212.307 138.45 212.727 138.71C213.157 138.97 213.672 139.1 214.272 139.1C214.802 139.1 215.217 139 215.517 138.8C215.817 138.59 215.967 138.32 215.967 137.99C215.967 137.78 215.897 137.59 215.757 137.42C215.627 137.24 215.372 137.11 214.992 137.03L213.192 136.655C212.462 136.505 211.937 136.255 211.617 135.905C211.307 135.555 211.152 135.12 211.152 134.6C211.152 134.19 211.267 133.815 211.497 133.475C211.737 133.135 212.072 132.865 212.502 132.665C212.942 132.455 213.457 132.35 214.047 132.35C214.787 132.35 215.412 132.495 215.922 132.785C216.432 133.075 216.812 133.485 217.062 134.015L216.057 134.675C215.887 134.235 215.612 133.915 215.232 133.715C214.852 133.505 214.457 133.4 214.047 133.4C213.507 133.4 213.087 133.51 212.787 133.73C212.487 133.95 212.337 134.225 212.337 134.555C212.337 134.775 212.412 134.98 212.562 135.17C212.712 135.35 212.992 135.48 213.402 135.56L215.277 135.95C215.977 136.09 216.467 136.32 216.747 136.64C217.027 136.96 217.167 137.35 217.167 137.81C217.167 138.52 216.892 139.09 216.342 139.52C215.792 139.94 215.072 140.15 214.182 140.15ZM229.484 135.155C229.484 134.595 229.334 134.165 229.034 133.865C228.734 133.555 228.309 133.4 227.759 133.4C227.239 133.4 226.799 133.515 226.439 133.745C226.079 133.965 225.814 134.325 225.644 134.825L224.669 134.225C224.869 133.665 225.239 133.215 225.779 132.875C226.319 132.525 226.989 132.35 227.789 132.35C228.329 132.35 228.819 132.445 229.259 132.635C229.699 132.815 230.044 133.095 230.294 133.475C230.554 133.845 230.684 134.325 230.684 134.915V138.545C230.684 138.905 230.874 139.085 231.254 139.085C231.444 139.085 231.629 139.06 231.809 139.01L231.749 139.955C231.549 140.055 231.289 140.105 230.969 140.105C230.599 140.105 230.279 140.015 230.009 139.835C229.749 139.655 229.579 139.38 229.499 139.01C229.239 139.4 228.884 139.69 228.434 139.88C227.984 140.06 227.539 140.15 227.099 140.15C226.659 140.15 226.249 140.075 225.869 139.925C225.489 139.775 225.184 139.55 224.954 139.25C224.734 138.94 224.624 138.56 224.624 138.11C224.624 137.55 224.809 137.09 225.179 136.73C225.559 136.36 226.084 136.11 226.754 135.98L229.484 135.44V135.155ZM225.854 138.05C225.854 138.36 225.974 138.615 226.214 138.815C226.464 139.005 226.814 139.1 227.264 139.1C227.654 139.1 228.014 139.035 228.344 138.905C228.684 138.765 228.959 138.56 229.169 138.29C229.379 138.01 229.484 137.655 229.484 137.225V136.43L227.309 136.88C226.819 136.98 226.454 137.12 226.214 137.3C225.974 137.48 225.854 137.73 225.854 138.05ZM233.9 140V132.5H234.875L235.04 133.73C235.46 132.81 236.26 132.35 237.44 132.35C237.57 132.35 237.71 132.36 237.86 132.38C238.02 132.4 238.155 132.44 238.265 132.5L238.055 133.595C237.945 133.555 237.825 133.525 237.695 133.505C237.565 133.485 237.38 133.475 237.14 133.475C236.83 133.475 236.515 133.565 236.195 133.745C235.885 133.925 235.625 134.2 235.415 134.57C235.205 134.93 235.1 135.39 235.1 135.95V140H233.9ZM243.224 140.15C242.514 140.15 241.879 139.995 241.319 139.685C240.769 139.375 240.339 138.93 240.029 138.35C239.719 137.76 239.564 137.06 239.564 136.25C239.564 135.44 239.719 134.745 240.029 134.165C240.339 133.575 240.764 133.125 241.304 132.815C241.844 132.505 242.459 132.35 243.149 132.35C243.849 132.35 244.444 132.5 244.934 132.8C245.434 133.1 245.814 133.51 246.074 134.03C246.334 134.54 246.464 135.115 246.464 135.755C246.464 135.925 246.459 136.08 246.449 136.22C246.439 136.36 246.424 136.485 246.404 136.595H240.749C240.809 137.385 241.054 138 241.484 138.44C241.914 138.88 242.484 139.1 243.194 139.1C243.744 139.1 244.189 138.995 244.529 138.785C244.879 138.575 245.159 138.29 245.369 137.93L246.314 138.485C246.034 138.995 245.629 139.4 245.099 139.7C244.579 140 243.954 140.15 243.224 140.15ZM243.119 133.4C242.489 133.4 241.969 133.59 241.559 133.97C241.159 134.34 240.904 134.86 240.794 135.53H245.264C245.234 134.85 245.024 134.325 244.634 133.955C244.244 133.585 243.739 133.4 243.119 133.4ZM257.594 140.15C256.884 140.15 256.249 139.995 255.689 139.685C255.139 139.375 254.709 138.93 254.399 138.35C254.089 137.76 253.934 137.06 253.934 136.25C253.934 135.44 254.089 134.745 254.399 134.165C254.709 133.575 255.134 133.125 255.674 132.815C256.214 132.505 256.829 132.35 257.519 132.35C258.219 132.35 258.814 132.5 259.304 132.8C259.804 133.1 260.184 133.51 260.444 134.03C260.704 134.54 260.834 135.115 260.834 135.755C260.834 135.925 260.829 136.08 260.819 136.22C260.809 136.36 260.794 136.485 260.774 136.595H255.119C255.179 137.385 255.424 138 255.854 138.44C256.284 138.88 256.854 139.1 257.564 139.1C258.114 139.1 258.559 138.995 258.899 138.785C259.249 138.575 259.529 138.29 259.739 137.93L260.684 138.485C260.404 138.995 259.999 139.4 259.469 139.7C258.949 140 258.324 140.15 257.594 140.15ZM257.489 133.4C256.859 133.4 256.339 133.59 255.929 133.97C255.529 134.34 255.274 134.86 255.164 135.53H259.634C259.604 134.85 259.394 134.325 259.004 133.955C258.614 133.585 258.109 133.4 257.489 133.4ZM267.796 135.155C267.796 134.595 267.646 134.165 267.346 133.865C267.046 133.555 266.621 133.4 266.071 133.4C265.551 133.4 265.111 133.515 264.751 133.745C264.391 133.965 264.126 134.325 263.956 134.825L262.981 134.225C263.181 133.665 263.551 133.215 264.091 132.875C264.631 132.525 265.301 132.35 266.101 132.35C266.641 132.35 267.131 132.445 267.571 132.635C268.011 132.815 268.356 133.095 268.606 133.475C268.866 133.845 268.996 134.325 268.996 134.915V138.545C268.996 138.905 269.186 139.085 269.566 139.085C269.756 139.085 269.941 139.06 270.121 139.01L270.061 139.955C269.861 140.055 269.601 140.105 269.281 140.105C268.911 140.105 268.591 140.015 268.321 139.835C268.061 139.655 267.891 139.38 267.811 139.01C267.551 139.4 267.196 139.69 266.746 139.88C266.296 140.06 265.851 140.15 265.411 140.15C264.971 140.15 264.561 140.075 264.181 139.925C263.801 139.775 263.496 139.55 263.266 139.25C263.046 138.94 262.936 138.56 262.936 138.11C262.936 137.55 263.121 137.09 263.491 136.73C263.871 136.36 264.396 136.11 265.066 135.98L267.796 135.44V135.155ZM264.166 138.05C264.166 138.36 264.286 138.615 264.526 138.815C264.776 139.005 265.126 139.1 265.576 139.1C265.966 139.1 266.326 139.035 266.656 138.905C266.996 138.765 267.271 138.56 267.481 138.29C267.691 138.01 267.796 137.655 267.796 137.225V136.43L265.621 136.88C265.131 136.98 264.766 137.12 264.526 137.3C264.286 137.48 264.166 137.73 264.166 138.05ZM274.912 140.15C274.182 140.15 273.507 139.995 272.887 139.685C272.277 139.375 271.807 138.935 271.477 138.365L272.497 137.63C272.717 138.09 273.037 138.45 273.457 138.71C273.887 138.97 274.402 139.1 275.002 139.1C275.532 139.1 275.947 139 276.247 138.8C276.547 138.59 276.697 138.32 276.697 137.99C276.697 137.78 276.627 137.59 276.487 137.42C276.357 137.24 276.102 137.11 275.722 137.03L273.922 136.655C273.192 136.505 272.667 136.255 272.347 135.905C272.037 135.555 271.882 135.12 271.882 134.6C271.882 134.19 271.997 133.815 272.227 133.475C272.467 133.135 272.802 132.865 273.232 132.665C273.672 132.455 274.187 132.35 274.777 132.35C275.517 132.35 276.142 132.495 276.652 132.785C277.162 133.075 277.542 133.485 277.792 134.015L276.787 134.675C276.617 134.235 276.342 133.915 275.962 133.715C275.582 133.505 275.187 133.4 274.777 133.4C274.237 133.4 273.817 133.51 273.517 133.73C273.217 133.95 273.067 134.225 273.067 134.555C273.067 134.775 273.142 134.98 273.292 135.17C273.442 135.35 273.722 135.48 274.132 135.56L276.007 135.95C276.707 136.09 277.197 136.32 277.477 136.64C277.757 136.96 277.897 137.35 277.897 137.81C277.897 138.52 277.622 139.09 277.072 139.52C276.522 139.94 275.802 140.15 274.912 140.15ZM281.022 131.06C280.752 131.06 280.532 130.98 280.362 130.82C280.202 130.65 280.122 130.43 280.122 130.16C280.122 129.89 280.202 129.675 280.362 129.515C280.532 129.345 280.752 129.26 281.022 129.26C281.292 129.26 281.507 129.345 281.667 129.515C281.837 129.675 281.922 129.89 281.922 130.16C281.922 130.43 281.837 130.65 281.667 130.82C281.507 130.98 281.292 131.06 281.022 131.06ZM281.622 132.5V140H280.422V132.5H281.622ZM287.842 140.15C287.132 140.15 286.497 139.995 285.937 139.685C285.387 139.375 284.957 138.93 284.647 138.35C284.337 137.76 284.182 137.06 284.182 136.25C284.182 135.44 284.337 134.745 284.647 134.165C284.957 133.575 285.382 133.125 285.922 132.815C286.462 132.505 287.077 132.35 287.767 132.35C288.467 132.35 289.062 132.5 289.552 132.8C290.052 133.1 290.432 133.51 290.692 134.03C290.952 134.54 291.082 135.115 291.082 135.755C291.082 135.925 291.077 136.08 291.067 136.22C291.057 136.36 291.042 136.485 291.022 136.595H285.367C285.427 137.385 285.672 138 286.102 138.44C286.532 138.88 287.102 139.1 287.812 139.1C288.362 139.1 288.807 138.995 289.147 138.785C289.497 138.575 289.777 138.29 289.987 137.93L290.932 138.485C290.652 138.995 290.247 139.4 289.717 139.7C289.197 140 288.572 140.15 287.842 140.15ZM287.737 133.4C287.107 133.4 286.587 133.59 286.177 133.97C285.777 134.34 285.522 134.86 285.412 135.53H289.882C289.852 134.85 289.642 134.325 289.252 133.955C288.862 133.585 288.357 133.4 287.737 133.4ZM293.664 140V132.5H294.639L294.804 133.73C295.224 132.81 296.024 132.35 297.204 132.35C297.334 132.35 297.474 132.36 297.624 132.38C297.784 132.4 297.919 132.44 298.029 132.5L297.819 133.595C297.709 133.555 297.589 133.525 297.459 133.505C297.329 133.485 297.144 133.475 296.904 133.475C296.594 133.475 296.279 133.565 295.959 133.745C295.649 133.925 295.389 134.2 295.179 134.57C294.969 134.93 294.864 135.39 294.864 135.95V140H293.664ZM309.355 132.5V133.535H306.625V137.93C306.625 138.3 306.73 138.575 306.94 138.755C307.15 138.935 307.42 139.025 307.75 139.025C308.04 139.025 308.29 138.975 308.5 138.875C308.71 138.775 308.9 138.64 309.07 138.47L309.49 139.475C309.26 139.685 308.985 139.85 308.665 139.97C308.355 140.09 307.995 140.15 307.585 140.15C307.205 140.15 306.85 140.085 306.52 139.955C306.19 139.815 305.925 139.6 305.725 139.31C305.535 139.01 305.435 138.62 305.425 138.14V133.535H303.925V132.5H305.425V130.7L306.625 130.37V132.5H309.355ZM314.544 132.35C315.254 132.35 315.879 132.505 316.419 132.815C316.969 133.125 317.399 133.575 317.709 134.165C318.019 134.745 318.174 135.44 318.174 136.25C318.174 137.06 318.019 137.76 317.709 138.35C317.399 138.93 316.969 139.375 316.419 139.685C315.879 139.995 315.254 140.15 314.544 140.15C313.844 140.15 313.219 139.995 312.669 139.685C312.119 139.375 311.689 138.93 311.379 138.35C311.069 137.76 310.914 137.06 310.914 136.25C310.914 135.44 311.069 134.745 311.379 134.165C311.689 133.575 312.119 133.125 312.669 132.815C313.219 132.505 313.844 132.35 314.544 132.35ZM314.544 133.385C313.784 133.385 313.189 133.64 312.759 134.15C312.329 134.66 312.114 135.36 312.114 136.25C312.114 137.14 312.329 137.84 312.759 138.35C313.189 138.86 313.784 139.115 314.544 139.115C315.304 139.115 315.899 138.86 316.329 138.35C316.759 137.84 316.974 137.14 316.974 136.25C316.974 135.36 316.759 134.66 316.329 134.15C315.899 133.64 315.304 133.385 314.544 133.385ZM54.11 164.15C53.63 164.15 53.175 164.06 52.745 163.88C52.325 163.7 51.98 163.41 51.71 163.01C51.45 162.6 51.32 162.07 51.32 161.42V156.5H52.52V161.105C52.52 161.865 52.685 162.39 53.015 162.68C53.345 162.96 53.81 163.1 54.41 163.1C54.79 163.1 55.15 163.015 55.49 162.845C55.83 162.665 56.11 162.39 56.33 162.02C56.55 161.65 56.66 161.17 56.66 160.58V156.5H57.86V164H56.81L56.735 162.86C56.475 163.31 56.12 163.64 55.67 163.85C55.23 164.05 54.71 164.15 54.11 164.15ZM63.6528 164.15C62.9228 164.15 62.2478 163.995 61.6278 163.685C61.0178 163.375 60.5478 162.935 60.2178 162.365L61.2378 161.63C61.4578 162.09 61.7778 162.45 62.1978 162.71C62.6278 162.97 63.1428 163.1 63.7428 163.1C64.2728 163.1 64.6878 163 64.9878 162.8C65.2878 162.59 65.4378 162.32 65.4378 161.99C65.4378 161.78 65.3678 161.59 65.2278 161.42C65.0978 161.24 64.8428 161.11 64.4628 161.03L62.6628 160.655C61.9328 160.505 61.4078 160.255 61.0878 159.905C60.7778 159.555 60.6228 159.12 60.6228 158.6C60.6228 158.19 60.7378 157.815 60.9678 157.475C61.2078 157.135 61.5428 156.865 61.9728 156.665C62.4128 156.455 62.9278 156.35 63.5178 156.35C64.2578 156.35 64.8828 156.495 65.3928 156.785C65.9028 157.075 66.2828 157.485 66.5328 158.015L65.5278 158.675C65.3578 158.235 65.0828 157.915 64.7028 157.715C64.3228 157.505 63.9278 157.4 63.5178 157.4C62.9778 157.4 62.5578 157.51 62.2578 157.73C61.9578 157.95 61.8078 158.225 61.8078 158.555C61.8078 158.775 61.8828 158.98 62.0328 159.17C62.1828 159.35 62.4628 159.48 62.8728 159.56L64.7478 159.95C65.4478 160.09 65.9378 160.32 66.2178 160.64C66.4978 160.96 66.6378 161.35 66.6378 161.81C66.6378 162.52 66.3628 163.09 65.8128 163.52C65.2628 163.94 64.5428 164.15 63.6528 164.15ZM72.298 164.15C71.588 164.15 70.953 163.995 70.393 163.685C69.843 163.375 69.413 162.93 69.103 162.35C68.793 161.76 68.638 161.06 68.638 160.25C68.638 159.44 68.793 158.745 69.103 158.165C69.413 157.575 69.838 157.125 70.378 156.815C70.918 156.505 71.533 156.35 72.223 156.35C72.923 156.35 73.518 156.5 74.008 156.8C74.508 157.1 74.888 157.51 75.148 158.03C75.408 158.54 75.538 159.115 75.538 159.755C75.538 159.925 75.533 160.08 75.523 160.22C75.513 160.36 75.498 160.485 75.478 160.595H69.823C69.883 161.385 70.128 162 70.558 162.44C70.988 162.88 71.558 163.1 72.268 163.1C72.818 163.1 73.263 162.995 73.603 162.785C73.953 162.575 74.233 162.29 74.443 161.93L75.388 162.485C75.108 162.995 74.703 163.4 74.173 163.7C73.653 164 73.028 164.15 72.298 164.15ZM72.193 157.4C71.563 157.4 71.043 157.59 70.633 157.97C70.233 158.34 69.978 158.86 69.868 159.53H74.338C74.308 158.85 74.098 158.325 73.708 157.955C73.318 157.585 72.813 157.4 72.193 157.4Z" fill="black"/>
<path d="M30.608 197.4C30.608 196.888 30.7893 196.451 31.152 196.088C31.5253 195.715 31.968 195.528 32.48 195.528C32.992 195.528 33.4293 195.715 33.792 196.088C34.1653 196.451 34.352 196.888 34.352 197.4C34.352 197.731 34.2667 198.04 34.096 198.328C33.9253 198.616 33.696 198.845 33.408 199.016C33.12 199.187 32.8107 199.272 32.48 199.272C32.1493 199.272 31.84 199.187 31.552 199.016C31.264 198.845 31.0347 198.616 30.864 198.328C30.6933 198.04 30.608 197.731 30.608 197.4Z" fill="black"/>
<path d="M54.815 193.1C56.365 193.1 57.58 193.53 58.46 194.39C59.35 195.24 59.795 196.46 59.795 198.05C59.795 199.64 59.35 200.865 58.46 201.725C57.58 202.575 56.365 203 54.815 203H51.62V193.1H54.815ZM54.935 201.875C56.065 201.875 56.945 201.54 57.575 200.87C58.215 200.19 58.535 199.25 58.535 198.05C58.535 196.85 58.215 195.915 57.575 195.245C56.945 194.565 56.065 194.225 54.935 194.225H52.82V201.875H54.935ZM63.0323 194.06C62.7623 194.06 62.5423 193.98 62.3723 193.82C62.2123 193.65 62.1323 193.43 62.1323 193.16C62.1323 192.89 62.2123 192.675 62.3723 192.515C62.5423 192.345 62.7623 192.26 63.0323 192.26C63.3023 192.26 63.5173 192.345 63.6773 192.515C63.8473 192.675 63.9323 192.89 63.9323 193.16C63.9323 193.43 63.8473 193.65 63.6773 193.82C63.5173 193.98 63.3023 194.06 63.0323 194.06ZM63.6323 195.5V203H62.4323V195.5H63.6323ZM71.0067 195.5V196.535H68.5017V203H67.3017V196.535H65.8017V195.5H67.3017V194.24C67.3017 193.57 67.5067 193.025 67.9167 192.605C68.3267 192.185 68.9417 191.975 69.7617 191.975C70.0217 191.975 70.2667 192.005 70.4967 192.065C70.7267 192.125 70.9067 192.21 71.0367 192.32L70.7217 193.295C70.4817 193.145 70.1967 193.07 69.8667 193.07C69.4367 193.07 69.1017 193.175 68.8617 193.385C68.6217 193.585 68.5017 193.91 68.5017 194.36V195.5H71.0067ZM76.9017 195.5V196.535H74.3967V203H73.1967V196.535H71.6967V195.5H73.1967V194.24C73.1967 193.57 73.4017 193.025 73.8117 192.605C74.2217 192.185 74.8367 191.975 75.6567 191.975C75.9167 191.975 76.1617 192.005 76.3917 192.065C76.6217 192.125 76.8017 192.21 76.9317 192.32L76.6167 193.295C76.3767 193.145 76.0917 193.07 75.7617 193.07C75.3317 193.07 74.9967 193.175 74.7567 193.385C74.5167 193.585 74.3967 193.91 74.3967 194.36V195.5H76.9017ZM79.1067 194.06C78.8367 194.06 78.6167 193.98 78.4467 193.82C78.2867 193.65 78.2067 193.43 78.2067 193.16C78.2067 192.89 78.2867 192.675 78.4467 192.515C78.6167 192.345 78.8367 192.26 79.1067 192.26C79.3767 192.26 79.5917 192.345 79.7517 192.515C79.9217 192.675 80.0067 192.89 80.0067 193.16C80.0067 193.43 79.9217 193.65 79.7517 193.82C79.5917 193.98 79.3767 194.06 79.1067 194.06ZM79.7067 195.5V203H78.5067V195.5H79.7067ZM85.898 195.35C86.668 195.35 87.308 195.53 87.818 195.89C88.328 196.24 88.723 196.725 89.003 197.345L87.863 197.885C87.703 197.405 87.458 197.04 87.128 196.79C86.808 196.53 86.388 196.4 85.868 196.4C85.118 196.4 84.528 196.655 84.098 197.165C83.678 197.665 83.468 198.36 83.468 199.25C83.468 200.14 83.678 200.84 84.098 201.35C84.528 201.85 85.118 202.1 85.868 202.1C86.458 202.1 86.928 201.965 87.278 201.695C87.628 201.425 87.858 201.045 87.968 200.555L89.078 200.945C88.828 201.635 88.433 202.175 87.893 202.565C87.363 202.955 86.698 203.15 85.898 203.15C85.198 203.15 84.573 202.995 84.023 202.685C83.473 202.375 83.043 201.93 82.733 201.35C82.423 200.76 82.268 200.06 82.268 199.25C82.268 198.44 82.423 197.745 82.733 197.165C83.043 196.575 83.473 196.125 84.023 195.815C84.573 195.505 85.198 195.35 85.898 195.35ZM94.2016 203.15C93.7216 203.15 93.2666 203.06 92.8366 202.88C92.4166 202.7 92.0716 202.41 91.8016 202.01C91.5416 201.6 91.4116 201.07 91.4116 200.42V195.5H92.6116V200.105C92.6116 200.865 92.7766 201.39 93.1066 201.68C93.4366 201.96 93.9016 202.1 94.5016 202.1C94.8816 202.1 95.2416 202.015 95.5816 201.845C95.9216 201.665 96.2016 201.39 96.4216 201.02C96.6416 200.65 96.7516 200.17 96.7516 199.58V195.5H97.9516V203H96.9016L96.8266 201.86C96.5666 202.31 96.2116 202.64 95.7616 202.85C95.3216 203.05 94.8016 203.15 94.2016 203.15ZM102.184 192.05V201.095C102.184 201.475 102.254 201.74 102.394 201.89C102.534 202.03 102.759 202.1 103.069 202.1C103.269 202.1 103.434 202.085 103.564 202.055C103.694 202.025 103.869 201.97 104.089 201.89L103.894 202.94C103.564 203.08 103.194 203.15 102.784 203.15C101.584 203.15 100.984 202.48 100.984 201.14V192.05H102.184ZM110.136 195.5V196.535H107.406V200.93C107.406 201.3 107.511 201.575 107.721 201.755C107.931 201.935 108.201 202.025 108.531 202.025C108.821 202.025 109.071 201.975 109.281 201.875C109.491 201.775 109.681 201.64 109.851 201.47L110.271 202.475C110.041 202.685 109.766 202.85 109.446 202.97C109.136 203.09 108.776 203.15 108.366 203.15C107.986 203.15 107.631 203.085 107.301 202.955C106.971 202.815 106.706 202.6 106.506 202.31C106.316 202.01 106.216 201.62 106.206 201.14V196.535H104.706V195.5H106.206V193.7L107.406 193.37V195.5H110.136ZM118.386 195.5L114.861 204.26C114.571 204.99 114.241 205.5 113.871 205.79C113.511 206.08 113.066 206.225 112.536 206.225C112.196 206.225 111.881 206.175 111.591 206.075C111.311 205.985 111.061 205.86 110.841 205.7L111.171 204.65C111.371 204.83 111.581 204.96 111.801 205.04C112.031 205.13 112.256 205.175 112.476 205.175C112.736 205.175 112.981 205.095 113.211 204.935C113.441 204.775 113.651 204.45 113.841 203.96L114.231 202.985L113.481 201.2L111.096 195.5H112.461L114.336 200.39L114.801 201.725L115.341 200.24L117.096 195.5H118.386ZM129.493 195.5V196.535H126.763V200.93C126.763 201.3 126.868 201.575 127.078 201.755C127.288 201.935 127.558 202.025 127.888 202.025C128.178 202.025 128.428 201.975 128.638 201.875C128.848 201.775 129.038 201.64 129.208 201.47L129.628 202.475C129.398 202.685 129.123 202.85 128.803 202.97C128.493 203.09 128.133 203.15 127.723 203.15C127.343 203.15 126.988 203.085 126.658 202.955C126.328 202.815 126.063 202.6 125.863 202.31C125.673 202.01 125.573 201.62 125.563 201.14V196.535H124.063V195.5H125.563V193.7L126.763 193.37V195.5H129.493ZM134.683 195.35C135.393 195.35 136.018 195.505 136.558 195.815C137.108 196.125 137.538 196.575 137.848 197.165C138.158 197.745 138.313 198.44 138.313 199.25C138.313 200.06 138.158 200.76 137.848 201.35C137.538 201.93 137.108 202.375 136.558 202.685C136.018 202.995 135.393 203.15 134.683 203.15C133.983 203.15 133.358 202.995 132.808 202.685C132.258 202.375 131.828 201.93 131.518 201.35C131.208 200.76 131.053 200.06 131.053 199.25C131.053 198.44 131.208 197.745 131.518 197.165C131.828 196.575 132.258 196.125 132.808 195.815C133.358 195.505 133.983 195.35 134.683 195.35ZM134.683 196.385C133.923 196.385 133.328 196.64 132.898 197.15C132.468 197.66 132.253 198.36 132.253 199.25C132.253 200.14 132.468 200.84 132.898 201.35C133.328 201.86 133.923 202.115 134.683 202.115C135.443 202.115 136.038 201.86 136.468 201.35C136.898 200.84 137.113 200.14 137.113 199.25C137.113 198.36 136.898 197.66 136.468 197.15C136.038 196.64 135.443 196.385 134.683 196.385ZM148.999 203.15C148.519 203.15 148.064 203.06 147.634 202.88C147.214 202.7 146.869 202.41 146.599 202.01C146.339 201.6 146.209 201.07 146.209 200.42V195.5H147.409V200.105C147.409 200.865 147.574 201.39 147.904 201.68C148.234 201.96 148.699 202.1 149.299 202.1C149.679 202.1 150.039 202.015 150.379 201.845C150.719 201.665 150.999 201.39 151.219 201.02C151.439 200.65 151.549 200.17 151.549 199.58V195.5H152.749V203H151.699L151.624 201.86C151.364 202.31 151.009 202.64 150.559 202.85C150.119 203.05 149.599 203.15 148.999 203.15ZM158.542 203.15C157.812 203.15 157.137 202.995 156.517 202.685C155.907 202.375 155.437 201.935 155.107 201.365L156.127 200.63C156.347 201.09 156.667 201.45 157.087 201.71C157.517 201.97 158.032 202.1 158.632 202.1C159.162 202.1 159.577 202 159.877 201.8C160.177 201.59 160.327 201.32 160.327 200.99C160.327 200.78 160.257 200.59 160.117 200.42C159.987 200.24 159.732 200.11 159.352 200.03L157.552 199.655C156.822 199.505 156.297 199.255 155.977 198.905C155.667 198.555 155.512 198.12 155.512 197.6C155.512 197.19 155.627 196.815 155.857 196.475C156.097 196.135 156.432 195.865 156.862 195.665C157.302 195.455 157.817 195.35 158.407 195.35C159.147 195.35 159.772 195.495 160.282 195.785C160.792 196.075 161.172 196.485 161.422 197.015L160.417 197.675C160.247 197.235 159.972 196.915 159.592 196.715C159.212 196.505 158.817 196.4 158.407 196.4C157.867 196.4 157.447 196.51 157.147 196.73C156.847 196.95 156.697 197.225 156.697 197.555C156.697 197.775 156.772 197.98 156.922 198.17C157.072 198.35 157.352 198.48 157.762 198.56L159.637 198.95C160.337 199.09 160.827 199.32 161.107 199.64C161.387 199.96 161.527 200.35 161.527 200.81C161.527 201.52 161.252 202.09 160.702 202.52C160.152 202.94 159.432 203.15 158.542 203.15ZM167.187 203.15C166.477 203.15 165.842 202.995 165.282 202.685C164.732 202.375 164.302 201.93 163.992 201.35C163.682 200.76 163.527 200.06 163.527 199.25C163.527 198.44 163.682 197.745 163.992 197.165C164.302 196.575 164.727 196.125 165.267 195.815C165.807 195.505 166.422 195.35 167.112 195.35C167.812 195.35 168.407 195.5 168.897 195.8C169.397 196.1 169.777 196.51 170.037 197.03C170.297 197.54 170.427 198.115 170.427 198.755C170.427 198.925 170.422 199.08 170.412 199.22C170.402 199.36 170.387 199.485 170.367 199.595H164.712C164.772 200.385 165.017 201 165.447 201.44C165.877 201.88 166.447 202.1 167.157 202.1C167.707 202.1 168.152 201.995 168.492 201.785C168.842 201.575 169.122 201.29 169.332 200.93L170.277 201.485C169.997 201.995 169.592 202.4 169.062 202.7C168.542 203 167.917 203.15 167.187 203.15ZM167.082 196.4C166.452 196.4 165.932 196.59 165.522 196.97C165.122 197.34 164.867 197.86 164.757 198.53H169.227C169.197 197.85 168.987 197.325 168.597 196.955C168.207 196.585 167.702 196.4 167.082 196.4ZM178.422 203V195.5H179.472L179.547 196.67C179.817 196.21 180.167 195.875 180.597 195.665C181.037 195.455 181.487 195.35 181.947 195.35C182.477 195.35 182.977 195.47 183.447 195.71C183.917 195.95 184.277 196.32 184.527 196.82C184.687 196.48 184.912 196.205 185.202 195.995C185.492 195.775 185.807 195.615 186.147 195.515C186.497 195.405 186.827 195.35 187.137 195.35C187.617 195.35 188.072 195.45 188.502 195.65C188.942 195.85 189.302 196.16 189.582 196.58C189.862 197 190.002 197.54 190.002 198.2V203H188.802V198.32C188.802 197.64 188.632 197.15 188.292 196.85C187.952 196.55 187.532 196.4 187.032 196.4C186.642 196.4 186.277 196.495 185.937 196.685C185.597 196.875 185.322 197.155 185.112 197.525C184.912 197.895 184.812 198.35 184.812 198.89V203H183.612V198.32C183.612 197.64 183.442 197.15 183.102 196.85C182.762 196.55 182.342 196.4 181.842 196.4C181.512 196.4 181.172 196.49 180.822 196.67C180.482 196.84 180.197 197.115 179.967 197.495C179.737 197.875 179.622 198.375 179.622 198.995V203H178.422ZM196.123 195.35C196.833 195.35 197.458 195.505 197.998 195.815C198.548 196.125 198.978 196.575 199.288 197.165C199.598 197.745 199.753 198.44 199.753 199.25C199.753 200.06 199.598 200.76 199.288 201.35C198.978 201.93 198.548 202.375 197.998 202.685C197.458 202.995 196.833 203.15 196.123 203.15C195.423 203.15 194.798 202.995 194.248 202.685C193.698 202.375 193.268 201.93 192.958 201.35C192.648 200.76 192.493 200.06 192.493 199.25C192.493 198.44 192.648 197.745 192.958 197.165C193.268 196.575 193.698 196.125 194.248 195.815C194.798 195.505 195.423 195.35 196.123 195.35ZM196.123 196.385C195.363 196.385 194.768 196.64 194.338 197.15C193.908 197.66 193.693 198.36 193.693 199.25C193.693 200.14 193.908 200.84 194.338 201.35C194.768 201.86 195.363 202.115 196.123 202.115C196.883 202.115 197.478 201.86 197.908 201.35C198.338 200.84 198.553 200.14 198.553 199.25C198.553 198.36 198.338 197.66 197.908 197.15C197.478 196.64 196.883 196.385 196.123 196.385ZM205.988 203.15C205.418 203.15 204.908 203.015 204.458 202.745C204.008 202.475 203.668 202.12 203.438 201.68L203.363 203H202.313V192.05H203.513V196.67C203.753 196.28 204.088 195.965 204.518 195.725C204.958 195.475 205.453 195.35 206.003 195.35C206.623 195.35 207.193 195.505 207.713 195.815C208.233 196.125 208.648 196.57 208.958 197.15C209.268 197.73 209.423 198.43 209.423 199.25C209.423 200.06 209.263 200.76 208.943 201.35C208.633 201.93 208.218 202.375 207.698 202.685C207.178 202.995 206.608 203.15 205.988 203.15ZM205.868 202.1C206.608 202.1 207.183 201.84 207.593 201.32C208.013 200.8 208.223 200.11 208.223 199.25C208.223 198.39 208.018 197.7 207.608 197.18C207.198 196.66 206.623 196.4 205.883 196.4C205.183 196.4 204.613 196.665 204.173 197.195C203.733 197.725 203.513 198.42 203.513 199.28C203.513 200.14 203.728 200.825 204.158 201.335C204.598 201.845 205.168 202.1 205.868 202.1ZM212.617 194.06C212.347 194.06 212.127 193.98 211.957 193.82C211.797 193.65 211.717 193.43 211.717 193.16C211.717 192.89 211.797 192.675 211.957 192.515C212.127 192.345 212.347 192.26 212.617 192.26C212.887 192.26 213.102 192.345 213.262 192.515C213.432 192.675 213.517 192.89 213.517 193.16C213.517 193.43 213.432 193.65 213.262 193.82C213.102 193.98 212.887 194.06 212.617 194.06ZM213.217 195.5V203H212.017V195.5H213.217ZM217.441 192.05V201.095C217.441 201.475 217.511 201.74 217.651 201.89C217.791 202.03 218.016 202.1 218.326 202.1C218.526 202.1 218.691 202.085 218.821 202.055C218.951 202.025 219.126 201.97 219.346 201.89L219.151 202.94C218.821 203.08 218.451 203.15 218.041 203.15C216.841 203.15 216.241 202.48 216.241 201.14V192.05H217.441ZM224.321 203.15C223.611 203.15 222.976 202.995 222.416 202.685C221.866 202.375 221.436 201.93 221.126 201.35C220.816 200.76 220.661 200.06 220.661 199.25C220.661 198.44 220.816 197.745 221.126 197.165C221.436 196.575 221.861 196.125 222.401 195.815C222.941 195.505 223.556 195.35 224.246 195.35C224.946 195.35 225.541 195.5 226.031 195.8C226.531 196.1 226.911 196.51 227.171 197.03C227.431 197.54 227.561 198.115 227.561 198.755C227.561 198.925 227.556 199.08 227.546 199.22C227.536 199.36 227.521 199.485 227.501 199.595H221.846C221.906 200.385 222.151 201 222.581 201.44C223.011 201.88 223.581 202.1 224.291 202.1C224.841 202.1 225.286 201.995 225.626 201.785C225.976 201.575 226.256 201.29 226.466 200.93L227.411 201.485C227.131 201.995 226.726 202.4 226.196 202.7C225.676 203 225.051 203.15 224.321 203.15ZM224.216 196.4C223.586 196.4 223.066 196.59 222.656 196.97C222.256 197.34 222.001 197.86 221.891 198.53H226.361C226.331 197.85 226.121 197.325 225.731 196.955C225.341 196.585 224.836 196.4 224.216 196.4ZM244.624 195.5H245.959L243.349 203H242.149L240.034 197.03L238.039 203H236.839L234.229 195.5H235.564L237.454 201.605L239.494 195.5H240.694L242.734 201.605L244.624 195.5ZM248.058 203V192.05H249.258V196.625C249.518 196.175 249.863 195.85 250.293 195.65C250.723 195.45 251.193 195.35 251.703 195.35C252.243 195.35 252.733 195.455 253.173 195.665C253.613 195.865 253.963 196.175 254.223 196.595C254.493 197.015 254.628 197.55 254.628 198.2V203H253.428V198.62C253.428 197.79 253.248 197.215 252.888 196.895C252.538 196.565 252.103 196.4 251.583 196.4C251.223 196.4 250.863 196.485 250.503 196.655C250.143 196.825 249.843 197.105 249.603 197.495C249.373 197.875 249.258 198.385 249.258 199.025V203H248.058ZM258.245 194.06C257.975 194.06 257.755 193.98 257.585 193.82C257.425 193.65 257.345 193.43 257.345 193.16C257.345 192.89 257.425 192.675 257.585 192.515C257.755 192.345 257.975 192.26 258.245 192.26C258.515 192.26 258.73 192.345 258.89 192.515C259.06 192.675 259.145 192.89 259.145 193.16C259.145 193.43 259.06 193.65 258.89 193.82C258.73 193.98 258.515 194.06 258.245 194.06ZM258.845 195.5V203H257.645V195.5H258.845ZM263.069 192.05V201.095C263.069 201.475 263.139 201.74 263.279 201.89C263.419 202.03 263.644 202.1 263.954 202.1C264.154 202.1 264.319 202.085 264.449 202.055C264.579 202.025 264.754 201.97 264.974 201.89L264.779 202.94C264.449 203.08 264.079 203.15 263.669 203.15C262.469 203.15 261.869 202.48 261.869 201.14V192.05H263.069ZM269.949 203.15C269.239 203.15 268.604 202.995 268.044 202.685C267.494 202.375 267.064 201.93 266.754 201.35C266.444 200.76 266.289 200.06 266.289 199.25C266.289 198.44 266.444 197.745 266.754 197.165C267.064 196.575 267.489 196.125 268.029 195.815C268.569 195.505 269.184 195.35 269.874 195.35C270.574 195.35 271.169 195.5 271.659 195.8C272.159 196.1 272.539 196.51 272.799 197.03C273.059 197.54 273.189 198.115 273.189 198.755C273.189 198.925 273.184 199.08 273.174 199.22C273.164 199.36 273.149 199.485 273.129 199.595H267.474C267.534 200.385 267.779 201 268.209 201.44C268.639 201.88 269.209 202.1 269.919 202.1C270.469 202.1 270.914 201.995 271.254 201.785C271.604 201.575 271.884 201.29 272.094 200.93L273.039 201.485C272.759 201.995 272.354 202.4 271.824 202.7C271.304 203 270.679 203.15 269.949 203.15ZM269.844 196.4C269.214 196.4 268.694 196.59 268.284 196.97C267.884 197.34 267.629 197.86 267.519 198.53H271.989C271.959 197.85 271.749 197.325 271.359 196.955C270.969 196.585 270.464 196.4 269.844 196.4ZM54.5 219.35C55.27 219.35 55.91 219.53 56.42 219.89C56.93 220.24 57.325 220.725 57.605 221.345L56.465 221.885C56.305 221.405 56.06 221.04 55.73 220.79C55.41 220.53 54.99 220.4 54.47 220.4C53.72 220.4 53.13 220.655 52.7 221.165C52.28 221.665 52.07 222.36 52.07 223.25C52.07 224.14 52.28 224.84 52.7 225.35C53.13 225.85 53.72 226.1 54.47 226.1C55.06 226.1 55.53 225.965 55.88 225.695C56.23 225.425 56.46 225.045 56.57 224.555L57.68 224.945C57.43 225.635 57.035 226.175 56.495 226.565C55.965 226.955 55.3 227.15 54.5 227.15C53.8 227.15 53.175 226.995 52.625 226.685C52.075 226.375 51.645 225.93 51.335 225.35C51.025 224.76 50.87 224.06 50.87 223.25C50.87 222.44 51.025 221.745 51.335 221.165C51.645 220.575 52.075 220.125 52.625 219.815C53.175 219.505 53.8 219.35 54.5 219.35ZM63.1936 219.35C63.9036 219.35 64.5286 219.505 65.0686 219.815C65.6186 220.125 66.0486 220.575 66.3586 221.165C66.6686 221.745 66.8236 222.44 66.8236 223.25C66.8236 224.06 66.6686 224.76 66.3586 225.35C66.0486 225.93 65.6186 226.375 65.0686 226.685C64.5286 226.995 63.9036 227.15 63.1936 227.15C62.4936 227.15 61.8686 226.995 61.3186 226.685C60.7686 226.375 60.3386 225.93 60.0286 225.35C59.7186 224.76 59.5636 224.06 59.5636 223.25C59.5636 222.44 59.7186 221.745 60.0286 221.165C60.3386 220.575 60.7686 220.125 61.3186 219.815C61.8686 219.505 62.4936 219.35 63.1936 219.35ZM63.1936 220.385C62.4336 220.385 61.8386 220.64 61.4086 221.15C60.9786 221.66 60.7636 222.36 60.7636 223.25C60.7636 224.14 60.9786 224.84 61.4086 225.35C61.8386 225.86 62.4336 226.115 63.1936 226.115C63.9536 226.115 64.5486 225.86 64.9786 225.35C65.4086 224.84 65.6236 224.14 65.6236 223.25C65.6236 222.36 65.4086 221.66 64.9786 221.15C64.5486 220.64 63.9536 220.385 63.1936 220.385ZM72.4877 219.35C73.1977 219.35 73.8227 219.505 74.3627 219.815C74.9127 220.125 75.3427 220.575 75.6527 221.165C75.9627 221.745 76.1177 222.44 76.1177 223.25C76.1177 224.06 75.9627 224.76 75.6527 225.35C75.3427 225.93 74.9127 226.375 74.3627 226.685C73.8227 226.995 73.1977 227.15 72.4877 227.15C71.7877 227.15 71.1627 226.995 70.6127 226.685C70.0627 226.375 69.6327 225.93 69.3227 225.35C69.0127 224.76 68.8577 224.06 68.8577 223.25C68.8577 222.44 69.0127 221.745 69.3227 221.165C69.6327 220.575 70.0627 220.125 70.6127 219.815C71.1627 219.505 71.7877 219.35 72.4877 219.35ZM72.4877 220.385C71.7277 220.385 71.1327 220.64 70.7027 221.15C70.2727 221.66 70.0577 222.36 70.0577 223.25C70.0577 224.14 70.2727 224.84 70.7027 225.35C71.1327 225.86 71.7277 226.115 72.4877 226.115C73.2477 226.115 73.8427 225.86 74.2727 225.35C74.7027 224.84 74.9177 224.14 74.9177 223.25C74.9177 222.36 74.7027 221.66 74.2727 221.15C73.8427 220.64 73.2477 220.385 72.4877 220.385ZM85.2618 219.5L82.3368 222.425L85.4418 227H83.9868L81.4668 223.295L79.8768 224.885V227H78.6768V216.05H79.8768V223.385L83.7468 219.5H85.2618ZM88.0876 218.06C87.8176 218.06 87.5976 217.98 87.4276 217.82C87.2676 217.65 87.1876 217.43 87.1876 217.16C87.1876 216.89 87.2676 216.675 87.4276 216.515C87.5976 216.345 87.8176 216.26 88.0876 216.26C88.3576 216.26 88.5726 216.345 88.7326 216.515C88.9026 216.675 88.9876 216.89 88.9876 217.16C88.9876 217.43 88.9026 217.65 88.7326 217.82C88.5726 217.98 88.3576 218.06 88.0876 218.06ZM88.6876 219.5V227H87.4876V219.5H88.6876ZM91.772 227V219.5H92.822L92.897 220.67C93.157 220.2 93.512 219.865 93.962 219.665C94.412 219.455 94.897 219.35 95.417 219.35C95.957 219.35 96.447 219.455 96.887 219.665C97.327 219.865 97.677 220.175 97.937 220.595C98.207 221.015 98.342 221.55 98.342 222.2V227H97.142V222.62C97.142 221.79 96.962 221.215 96.602 220.895C96.252 220.565 95.817 220.4 95.297 220.4C94.937 220.4 94.577 220.485 94.217 220.655C93.857 220.825 93.557 221.1 93.317 221.48C93.087 221.86 92.972 222.37 92.972 223.01V227H91.772ZM105.394 226.04C106.104 226.04 106.659 226.205 107.059 226.535C107.459 226.855 107.659 227.285 107.659 227.825C107.659 228.315 107.494 228.74 107.164 229.1C106.844 229.46 106.409 229.735 105.859 229.925C105.319 230.125 104.709 230.225 104.029 230.225C102.849 230.225 101.964 230.025 101.374 229.625C100.794 229.225 100.504 228.745 100.504 228.185C100.504 227.845 100.599 227.535 100.789 227.255C100.979 226.975 101.294 226.775 101.734 226.655C101.494 226.545 101.299 226.395 101.149 226.205C100.999 226.005 100.924 225.74 100.924 225.41C100.924 225.1 101.014 224.82 101.194 224.57C101.374 224.31 101.644 224.11 102.004 223.97C101.624 223.75 101.334 223.46 101.134 223.1C100.934 222.74 100.834 222.335 100.834 221.885C100.834 221.385 100.964 220.945 101.224 220.565C101.494 220.185 101.859 219.89 102.319 219.68C102.779 219.46 103.309 219.35 103.909 219.35C104.539 219.35 105.104 219.475 105.604 219.725C105.674 219.225 105.894 218.835 106.264 218.555C106.644 218.265 107.089 218.12 107.599 218.12H107.674L107.944 219.185H107.839C107.379 219.185 107.019 219.27 106.759 219.44C106.499 219.61 106.354 219.875 106.324 220.235C106.764 220.695 106.984 221.245 106.984 221.885C106.984 222.375 106.854 222.815 106.594 223.205C106.334 223.585 105.969 223.885 105.499 224.105C105.039 224.315 104.509 224.42 103.909 224.42C103.539 224.42 103.194 224.385 102.874 224.315C102.574 224.405 102.359 224.53 102.229 224.69C102.099 224.85 102.034 225.025 102.034 225.215C102.034 225.765 102.424 226.04 103.204 226.04H105.394ZM103.909 220.325C103.389 220.325 102.954 220.47 102.604 220.76C102.254 221.04 102.079 221.415 102.079 221.885C102.079 222.345 102.254 222.72 102.604 223.01C102.954 223.3 103.389 223.445 103.909 223.445C104.429 223.445 104.864 223.3 105.214 223.01C105.564 222.72 105.739 222.345 105.739 221.885C105.739 221.415 105.564 221.04 105.214 220.76C104.864 220.47 104.429 220.325 103.909 220.325ZM104.014 229.22C104.884 229.22 105.524 229.09 105.934 228.83C106.344 228.58 106.549 228.29 106.549 227.96C106.549 227.69 106.439 227.475 106.219 227.315C106.009 227.155 105.624 227.075 105.064 227.075H102.754C102.434 227.075 102.164 227.155 101.944 227.315C101.724 227.485 101.614 227.715 101.614 228.005C101.614 228.375 101.824 228.67 102.244 228.89C102.674 229.11 103.264 229.22 104.014 229.22Z" fill="black"/>
</svg>
