<svg width="378" height="284" viewBox="0 0 378 284" fill="none" xmlns="http://www.w3.org/2000/svg">
<rect width="378" height="284" rx="5" fill="white"/>
<path d="M32.366 42.968V47H31.19V37.2H34.69C35.194 37.2 35.6327 37.2747 36.006 37.424C36.3793 37.564 36.6873 37.7553 36.93 37.998C37.182 38.2407 37.3687 38.5253 37.49 38.852C37.6207 39.1693 37.686 39.5053 37.686 39.86V40.28C37.686 40.6347 37.6207 40.9753 37.49 41.302C37.3687 41.6287 37.182 41.918 36.93 42.17C36.678 42.4127 36.3653 42.6087 35.992 42.758C35.6187 42.898 35.1847 42.968 34.69 42.968H32.366ZM32.366 41.876H34.55C35.8567 41.876 36.51 41.316 36.51 40.196V39.944C36.51 39.4493 36.3467 39.0527 36.02 38.754C35.7027 38.446 35.2127 38.292 34.55 38.292H32.366V41.876ZM47.7563 44.564H43.5563L42.8423 47H41.5823L44.5503 37.2H46.7623L49.7303 47H48.4703L47.7563 44.564ZM45.5723 37.704L43.8783 43.472H47.4343L45.7403 37.704H45.5723ZM53.9205 37.2H60.1365V38.292H57.6165V45.908H60.1365V47H53.9205V45.908H56.4405V38.292H53.9205V37.2ZM70.3188 46.496H70.4868V37.2H71.6628V47H69.3108L66.4828 37.704H66.3148V47H65.1388V37.2H67.4908L70.3188 46.496ZM89.2273 42.968V47H88.0513V37.2H91.5513C92.0553 37.2 92.494 37.2747 92.8673 37.424C93.2407 37.564 93.5487 37.7553 93.7913 37.998C94.0433 38.2407 94.23 38.5253 94.3513 38.852C94.482 39.1693 94.5473 39.5053 94.5473 39.86V40.28C94.5473 40.6347 94.482 40.9753 94.3513 41.302C94.23 41.6287 94.0433 41.918 93.7913 42.17C93.5393 42.4127 93.2267 42.6087 92.8533 42.758C92.48 42.898 92.046 42.968 91.5513 42.968H89.2273ZM89.2273 41.876H91.4113C92.718 41.876 93.3713 41.316 93.3713 40.196V39.944C93.3713 39.4493 93.208 39.0527 92.8813 38.754C92.564 38.446 92.074 38.292 91.4113 38.292H89.2273V41.876ZM99.0736 41.008C99.0736 39.7387 99.3769 38.754 99.9836 38.054C100.59 37.354 101.435 37.004 102.518 37.004C103.6 37.004 104.445 37.354 105.052 38.054C105.658 38.754 105.962 39.7387 105.962 41.008V43.192C105.962 44.4987 105.658 45.4927 105.052 46.174C104.445 46.8553 103.6 47.196 102.518 47.196C101.435 47.196 100.59 46.8553 99.9836 46.174C99.3769 45.4927 99.0736 44.4987 99.0736 43.192V41.008ZM102.518 46.104C103.274 46.104 103.838 45.8473 104.212 45.334C104.594 44.8113 104.786 44.0693 104.786 43.108V41.092C104.786 40.196 104.594 39.4727 104.212 38.922C103.838 38.3713 103.274 38.096 102.518 38.096C101.762 38.096 101.192 38.3713 100.81 38.922C100.436 39.4727 100.25 40.196 100.25 41.092V43.108C100.25 44.0693 100.436 44.8113 100.81 45.334C101.192 45.8473 101.762 46.104 102.518 46.104ZM110.782 37.2H116.998V38.292H114.478V45.908H116.998V47H110.782V45.908H113.302V38.292H110.782V37.2ZM127.18 46.496H127.348V37.2H128.524V47H126.172L123.344 37.704H123.176V47H122V37.2H124.352L127.18 46.496ZM133.19 37.2H140.078V38.292H137.222V47H136.046V38.292H133.19V37.2ZM150.317 40.028C150.317 39.7107 150.251 39.4307 150.121 39.188C149.999 38.9453 149.831 38.7447 149.617 38.586C149.402 38.4273 149.155 38.306 148.875 38.222C148.595 38.138 148.301 38.096 147.993 38.096C147.722 38.096 147.465 38.1333 147.223 38.208C146.98 38.2733 146.761 38.3713 146.565 38.502C146.378 38.6327 146.229 38.796 146.117 38.992C146.005 39.1787 145.949 39.398 145.949 39.65V39.734C145.949 40.0047 146.005 40.238 146.117 40.434C146.229 40.6207 146.392 40.784 146.607 40.924C146.831 41.0547 147.106 41.1667 147.433 41.26C147.759 41.344 148.142 41.4187 148.581 41.484C149.607 41.6427 150.363 41.946 150.849 42.394C151.334 42.8327 151.577 43.4253 151.577 44.172V44.34C151.577 44.76 151.502 45.1473 151.353 45.502C151.213 45.8473 150.998 46.146 150.709 46.398C150.429 46.65 150.079 46.846 149.659 46.986C149.239 47.126 148.753 47.196 148.203 47.196C147.577 47.196 147.022 47.1073 146.537 46.93C146.061 46.7433 145.659 46.4913 145.333 46.174C145.015 45.8473 144.773 45.4693 144.605 45.04C144.437 44.6013 144.353 44.1253 144.353 43.612V43.192H145.529V43.528C145.529 44.3867 145.762 45.0307 146.229 45.46C146.705 45.8893 147.363 46.104 148.203 46.104C148.931 46.104 149.477 45.9453 149.841 45.628C150.214 45.3013 150.401 44.872 150.401 44.34V44.256C150.401 43.7427 150.209 43.3507 149.827 43.08C149.453 42.8093 148.842 42.6133 147.993 42.492C147.498 42.4267 147.05 42.3287 146.649 42.198C146.257 42.058 145.921 41.8807 145.641 41.666C145.361 41.442 145.146 41.176 144.997 40.868C144.847 40.56 144.773 40.196 144.773 39.776V39.608C144.773 39.2253 144.852 38.8753 145.011 38.558C145.169 38.2407 145.389 37.9653 145.669 37.732C145.958 37.4987 146.299 37.3213 146.691 37.2C147.092 37.0693 147.531 37.004 148.007 37.004C148.557 37.004 149.047 37.0833 149.477 37.242C149.915 37.4007 150.284 37.6153 150.583 37.886C150.881 38.1473 151.105 38.46 151.255 38.824C151.413 39.1787 151.493 39.552 151.493 39.944V40.532H150.317V40.028ZM174.111 48.148V49.184H173.607C172.954 49.184 172.329 49.0627 171.731 48.82C171.134 48.5773 170.607 48.2227 170.149 47.756C169.692 47.2987 169.328 46.7433 169.057 46.09C168.787 45.4367 168.651 44.6947 168.651 43.864V40.336C168.651 39.5147 168.787 38.7773 169.057 38.124C169.328 37.4613 169.692 36.9013 170.149 36.444C170.607 35.9773 171.134 35.6227 171.731 35.38C172.329 35.1373 172.954 35.016 173.607 35.016H174.111V36.052H173.607C173.103 36.052 172.618 36.1547 172.151 36.36C171.685 36.556 171.274 36.8407 170.919 37.214C170.565 37.5873 170.28 38.0447 170.065 38.586C169.851 39.118 169.743 39.72 169.743 40.392V43.808C169.743 44.48 169.851 45.0867 170.065 45.628C170.28 46.16 170.565 46.6127 170.919 46.986C171.274 47.3593 171.685 47.644 172.151 47.84C172.618 48.0453 173.103 48.148 173.607 48.148H174.111ZM178.217 37.2H179.477L182.039 46.496H182.207L184.769 37.2H186.029L183.257 47H180.989L178.217 37.2ZM195.596 44.564H191.396L190.682 47H189.422L192.39 37.2H194.602L197.57 47H196.31L195.596 44.564ZM193.412 37.704L191.718 43.472H195.274L193.58 37.704H193.412ZM201.802 37.2H202.978V45.908H208.102V47H201.802V37.2ZM213.132 37.2H219.348V38.292H216.828V45.908H219.348V47H213.132V45.908H215.652V38.292H213.132V37.2ZM224.351 37.2H227.571C228.784 37.2 229.671 37.4893 230.231 38.068C230.791 38.6467 231.071 39.5707 231.071 40.84V43.36C231.071 44.6293 230.791 45.5533 230.231 46.132C229.671 46.7107 228.784 47 227.571 47H224.351V45.894H225.191V38.292H224.351V37.2ZM227.403 45.908C227.832 45.908 228.201 45.866 228.509 45.782C228.826 45.698 229.087 45.558 229.293 45.362C229.498 45.1567 229.647 44.886 229.741 44.55C229.843 44.214 229.895 43.7893 229.895 43.276V40.924C229.895 40.4107 229.843 39.986 229.741 39.65C229.647 39.314 229.498 39.048 229.293 38.852C229.087 38.6467 228.826 38.502 228.509 38.418C228.201 38.334 227.832 38.292 227.403 38.292H226.367V45.908H227.403ZM241.085 44.564H236.885L236.171 47H234.911L237.879 37.2H240.091L243.059 47H241.799L241.085 44.564ZM238.901 37.704L237.207 43.472H240.763L239.069 37.704H238.901ZM246.913 37.2H253.801V38.292H250.945V47H249.769V38.292H246.913V37.2ZM258.761 37.2H264.697V38.292H259.937V41.54H264.613V42.632H259.937V45.908H264.781V47H258.761V37.2ZM269.84 37.2H273.06C274.273 37.2 275.16 37.4893 275.72 38.068C276.28 38.6467 276.56 39.5707 276.56 40.84V43.36C276.56 44.6293 276.28 45.5533 275.72 46.132C275.16 46.7107 274.273 47 273.06 47H269.84V45.894H270.68V38.292H269.84V37.2ZM272.892 45.908C273.321 45.908 273.69 45.866 273.998 45.782C274.315 45.698 274.576 45.558 274.782 45.362C274.987 45.1567 275.136 44.886 275.23 44.55C275.332 44.214 275.384 43.7893 275.384 43.276V40.924C275.384 40.4107 275.332 39.986 275.23 39.65C275.136 39.314 274.987 39.048 274.782 38.852C274.576 38.6467 274.315 38.502 273.998 38.418C273.69 38.334 273.321 38.292 272.892 38.292H271.856V45.908H272.892ZM281.618 48.148C282.122 48.148 282.607 48.0453 283.074 47.84C283.541 47.644 283.951 47.3593 284.306 46.986C284.661 46.6127 284.945 46.16 285.16 45.628C285.375 45.0867 285.482 44.48 285.482 43.808V40.392C285.482 39.72 285.375 39.118 285.16 38.586C284.945 38.0447 284.661 37.5873 284.306 37.214C283.951 36.8407 283.541 36.556 283.074 36.36C282.607 36.1547 282.122 36.052 281.618 36.052H281.114V35.016H281.618C282.271 35.016 282.897 35.1373 283.494 35.38C284.091 35.6227 284.619 35.9773 285.076 36.444C285.533 36.9013 285.897 37.4613 286.168 38.124C286.439 38.7773 286.574 39.5147 286.574 40.336V43.864C286.574 44.6947 286.439 45.4367 286.168 46.09C285.897 46.7433 285.533 47.2987 285.076 47.756C284.619 48.2227 284.091 48.5773 283.494 48.82C282.897 49.0627 282.271 49.184 281.618 49.184H281.114V48.148H281.618Z" fill="#FF8A00"/>
<line x1="30.75" y1="63.25" x2="347.25" y2="63.25" stroke="#DBDBDB" stroke-width="1.5" stroke-linecap="round"/>
<path d="M30.608 110.4C30.608 109.888 30.7893 109.451 31.152 109.088C31.5253 108.715 31.968 108.528 32.48 108.528C32.992 108.528 33.4293 108.715 33.792 109.088C34.1653 109.451 34.352 109.888 34.352 110.4C34.352 110.731 34.2667 111.04 34.096 111.328C33.9253 111.616 33.696 111.845 33.408 112.016C33.12 112.187 32.8107 112.272 32.48 112.272C32.1493 112.272 31.84 112.187 31.552 112.016C31.264 111.845 31.0347 111.616 30.864 111.328C30.6933 111.04 30.608 110.731 30.608 110.4Z" fill="black"/>
<path d="M54.815 106.1C56.365 106.1 57.58 106.53 58.46 107.39C59.35 108.24 59.795 109.46 59.795 111.05C59.795 112.64 59.35 113.865 58.46 114.725C57.58 115.575 56.365 116 54.815 116H51.62V106.1H54.815ZM54.935 114.875C56.065 114.875 56.945 114.54 57.575 113.87C58.215 113.19 58.535 112.25 58.535 111.05C58.535 109.85 58.215 108.915 57.575 108.245C56.945 107.565 56.065 107.225 54.935 107.225H52.82V114.875H54.935ZM63.0323 107.06C62.7623 107.06 62.5423 106.98 62.3723 106.82C62.2123 106.65 62.1323 106.43 62.1323 106.16C62.1323 105.89 62.2123 105.675 62.3723 105.515C62.5423 105.345 62.7623 105.26 63.0323 105.26C63.3023 105.26 63.5173 105.345 63.6773 105.515C63.8473 105.675 63.9323 105.89 63.9323 106.16C63.9323 106.43 63.8473 106.65 63.6773 106.82C63.5173 106.98 63.3023 107.06 63.0323 107.06ZM63.6323 108.5V116H62.4323V108.5H63.6323ZM71.0067 108.5V109.535H68.5017V116H67.3017V109.535H65.8017V108.5H67.3017V107.24C67.3017 106.57 67.5067 106.025 67.9167 105.605C68.3267 105.185 68.9417 104.975 69.7617 104.975C70.0217 104.975 70.2667 105.005 70.4967 105.065C70.7267 105.125 70.9067 105.21 71.0367 105.32L70.7217 106.295C70.4817 106.145 70.1967 106.07 69.8667 106.07C69.4367 106.07 69.1017 106.175 68.8617 106.385C68.6217 106.585 68.5017 106.91 68.5017 107.36V108.5H71.0067ZM76.9017 108.5V109.535H74.3967V116H73.1967V109.535H71.6967V108.5H73.1967V107.24C73.1967 106.57 73.4017 106.025 73.8117 105.605C74.2217 105.185 74.8367 104.975 75.6567 104.975C75.9167 104.975 76.1617 105.005 76.3917 105.065C76.6217 105.125 76.8017 105.21 76.9317 105.32L76.6167 106.295C76.3767 106.145 76.0917 106.07 75.7617 106.07C75.3317 106.07 74.9967 106.175 74.7567 106.385C74.5167 106.585 74.3967 106.91 74.3967 107.36V108.5H76.9017ZM79.1067 107.06C78.8367 107.06 78.6167 106.98 78.4467 106.82C78.2867 106.65 78.2067 106.43 78.2067 106.16C78.2067 105.89 78.2867 105.675 78.4467 105.515C78.6167 105.345 78.8367 105.26 79.1067 105.26C79.3767 105.26 79.5917 105.345 79.7517 105.515C79.9217 105.675 80.0067 105.89 80.0067 106.16C80.0067 106.43 79.9217 106.65 79.7517 106.82C79.5917 106.98 79.3767 107.06 79.1067 107.06ZM79.7067 108.5V116H78.5067V108.5H79.7067ZM85.898 108.35C86.668 108.35 87.308 108.53 87.818 108.89C88.328 109.24 88.723 109.725 89.003 110.345L87.863 110.885C87.703 110.405 87.458 110.04 87.128 109.79C86.808 109.53 86.388 109.4 85.868 109.4C85.118 109.4 84.528 109.655 84.098 110.165C83.678 110.665 83.468 111.36 83.468 112.25C83.468 113.14 83.678 113.84 84.098 114.35C84.528 114.85 85.118 115.1 85.868 115.1C86.458 115.1 86.928 114.965 87.278 114.695C87.628 114.425 87.858 114.045 87.968 113.555L89.078 113.945C88.828 114.635 88.433 115.175 87.893 115.565C87.363 115.955 86.698 116.15 85.898 116.15C85.198 116.15 84.573 115.995 84.023 115.685C83.473 115.375 83.043 114.93 82.733 114.35C82.423 113.76 82.268 113.06 82.268 112.25C82.268 111.44 82.423 110.745 82.733 110.165C83.043 109.575 83.473 109.125 84.023 108.815C84.573 108.505 85.198 108.35 85.898 108.35ZM94.2016 116.15C93.7216 116.15 93.2666 116.06 92.8366 115.88C92.4166 115.7 92.0716 115.41 91.8016 115.01C91.5416 114.6 91.4116 114.07 91.4116 113.42V108.5H92.6116V113.105C92.6116 113.865 92.7766 114.39 93.1066 114.68C93.4366 114.96 93.9016 115.1 94.5016 115.1C94.8816 115.1 95.2416 115.015 95.5816 114.845C95.9216 114.665 96.2016 114.39 96.4216 114.02C96.6416 113.65 96.7516 113.17 96.7516 112.58V108.5H97.9516V116H96.9016L96.8266 114.86C96.5666 115.31 96.2116 115.64 95.7616 115.85C95.3216 116.05 94.8016 116.15 94.2016 116.15ZM102.184 105.05V114.095C102.184 114.475 102.254 114.74 102.394 114.89C102.534 115.03 102.759 115.1 103.069 115.1C103.269 115.1 103.434 115.085 103.564 115.055C103.694 115.025 103.869 114.97 104.089 114.89L103.894 115.94C103.564 116.08 103.194 116.15 102.784 116.15C101.584 116.15 100.984 115.48 100.984 114.14V105.05H102.184ZM110.136 108.5V109.535H107.406V113.93C107.406 114.3 107.511 114.575 107.721 114.755C107.931 114.935 108.201 115.025 108.531 115.025C108.821 115.025 109.071 114.975 109.281 114.875C109.491 114.775 109.681 114.64 109.851 114.47L110.271 115.475C110.041 115.685 109.766 115.85 109.446 115.97C109.136 116.09 108.776 116.15 108.366 116.15C107.986 116.15 107.631 116.085 107.301 115.955C106.971 115.815 106.706 115.6 106.506 115.31C106.316 115.01 106.216 114.62 106.206 114.14V109.535H104.706V108.5H106.206V106.7L107.406 106.37V108.5H110.136ZM118.386 108.5L114.861 117.26C114.571 117.99 114.241 118.5 113.871 118.79C113.511 119.08 113.066 119.225 112.536 119.225C112.196 119.225 111.881 119.175 111.591 119.075C111.311 118.985 111.061 118.86 110.841 118.7L111.171 117.65C111.371 117.83 111.581 117.96 111.801 118.04C112.031 118.13 112.256 118.175 112.476 118.175C112.736 118.175 112.981 118.095 113.211 117.935C113.441 117.775 113.651 117.45 113.841 116.96L114.231 115.985L113.481 114.2L111.096 108.5H112.461L114.336 113.39L114.801 114.725L115.341 113.24L117.096 108.5H118.386ZM129.493 108.5V109.535H126.763V113.93C126.763 114.3 126.868 114.575 127.078 114.755C127.288 114.935 127.558 115.025 127.888 115.025C128.178 115.025 128.428 114.975 128.638 114.875C128.848 114.775 129.038 114.64 129.208 114.47L129.628 115.475C129.398 115.685 129.123 115.85 128.803 115.97C128.493 116.09 128.133 116.15 127.723 116.15C127.343 116.15 126.988 116.085 126.658 115.955C126.328 115.815 126.063 115.6 125.863 115.31C125.673 115.01 125.573 114.62 125.563 114.14V109.535H124.063V108.5H125.563V106.7L126.763 106.37V108.5H129.493ZM134.683 108.35C135.393 108.35 136.018 108.505 136.558 108.815C137.108 109.125 137.538 109.575 137.848 110.165C138.158 110.745 138.313 111.44 138.313 112.25C138.313 113.06 138.158 113.76 137.848 114.35C137.538 114.93 137.108 115.375 136.558 115.685C136.018 115.995 135.393 116.15 134.683 116.15C133.983 116.15 133.358 115.995 132.808 115.685C132.258 115.375 131.828 114.93 131.518 114.35C131.208 113.76 131.053 113.06 131.053 112.25C131.053 111.44 131.208 110.745 131.518 110.165C131.828 109.575 132.258 109.125 132.808 108.815C133.358 108.505 133.983 108.35 134.683 108.35ZM134.683 109.385C133.923 109.385 133.328 109.64 132.898 110.15C132.468 110.66 132.253 111.36 132.253 112.25C132.253 113.14 132.468 113.84 132.898 114.35C133.328 114.86 133.923 115.115 134.683 115.115C135.443 115.115 136.038 114.86 136.468 114.35C136.898 113.84 137.113 113.14 137.113 112.25C137.113 111.36 136.898 110.66 136.468 110.15C136.038 109.64 135.443 109.385 134.683 109.385ZM146.284 116V108.5H147.334L147.409 109.67C147.679 109.21 148.029 108.875 148.459 108.665C148.899 108.455 149.349 108.35 149.809 108.35C150.339 108.35 150.839 108.47 151.309 108.71C151.779 108.95 152.139 109.32 152.389 109.82C152.549 109.48 152.774 109.205 153.064 108.995C153.354 108.775 153.669 108.615 154.009 108.515C154.359 108.405 154.689 108.35 154.999 108.35C155.479 108.35 155.934 108.45 156.364 108.65C156.804 108.85 157.164 109.16 157.444 109.58C157.724 110 157.864 110.54 157.864 111.2V116H156.664V111.32C156.664 110.64 156.494 110.15 156.154 109.85C155.814 109.55 155.394 109.4 154.894 109.4C154.504 109.4 154.139 109.495 153.799 109.685C153.459 109.875 153.184 110.155 152.974 110.525C152.774 110.895 152.674 111.35 152.674 111.89V116H151.474V111.32C151.474 110.64 151.304 110.15 150.964 109.85C150.624 109.55 150.204 109.4 149.704 109.4C149.374 109.4 149.034 109.49 148.684 109.67C148.344 109.84 148.059 110.115 147.829 110.495C147.599 110.875 147.484 111.375 147.484 111.995V116H146.284ZM165.261 111.155C165.261 110.595 165.111 110.165 164.811 109.865C164.511 109.555 164.086 109.4 163.536 109.4C163.016 109.4 162.576 109.515 162.216 109.745C161.856 109.965 161.591 110.325 161.421 110.825L160.446 110.225C160.646 109.665 161.016 109.215 161.556 108.875C162.096 108.525 162.766 108.35 163.566 108.35C164.106 108.35 164.596 108.445 165.036 108.635C165.476 108.815 165.821 109.095 166.071 109.475C166.331 109.845 166.461 110.325 166.461 110.915V114.545C166.461 114.905 166.651 115.085 167.031 115.085C167.221 115.085 167.406 115.06 167.586 115.01L167.526 115.955C167.326 116.055 167.066 116.105 166.746 116.105C166.376 116.105 166.056 116.015 165.786 115.835C165.526 115.655 165.356 115.38 165.276 115.01C165.016 115.4 164.661 115.69 164.211 115.88C163.761 116.06 163.316 116.15 162.876 116.15C162.436 116.15 162.026 116.075 161.646 115.925C161.266 115.775 160.961 115.55 160.731 115.25C160.511 114.94 160.401 114.56 160.401 114.11C160.401 113.55 160.586 113.09 160.956 112.73C161.336 112.36 161.861 112.11 162.531 111.98L165.261 111.44V111.155ZM161.631 114.05C161.631 114.36 161.751 114.615 161.991 114.815C162.241 115.005 162.591 115.1 163.041 115.1C163.431 115.1 163.791 115.035 164.121 114.905C164.461 114.765 164.736 114.56 164.946 114.29C165.156 114.01 165.261 113.655 165.261 113.225V112.43L163.086 112.88C162.596 112.98 162.231 113.12 161.991 113.3C161.751 113.48 161.631 113.73 161.631 114.05ZM173.884 108.5V109.535H171.154V113.93C171.154 114.3 171.259 114.575 171.469 114.755C171.679 114.935 171.949 115.025 172.279 115.025C172.569 115.025 172.819 114.975 173.029 114.875C173.239 114.775 173.429 114.64 173.599 114.47L174.019 115.475C173.789 115.685 173.514 115.85 173.194 115.97C172.884 116.09 172.524 116.15 172.114 116.15C171.734 116.15 171.379 116.085 171.049 115.955C170.719 115.815 170.454 115.6 170.254 115.31C170.064 115.01 169.964 114.62 169.954 114.14V109.535H168.454V108.5H169.954V106.7L171.154 106.37V108.5H173.884ZM179.073 108.35C179.843 108.35 180.483 108.53 180.993 108.89C181.503 109.24 181.898 109.725 182.178 110.345L181.038 110.885C180.878 110.405 180.633 110.04 180.303 109.79C179.983 109.53 179.563 109.4 179.043 109.4C178.293 109.4 177.703 109.655 177.273 110.165C176.853 110.665 176.643 111.36 176.643 112.25C176.643 113.14 176.853 113.84 177.273 114.35C177.703 114.85 178.293 115.1 179.043 115.1C179.633 115.1 180.103 114.965 180.453 114.695C180.803 114.425 181.033 114.045 181.143 113.555L182.253 113.945C182.003 114.635 181.608 115.175 181.068 115.565C180.538 115.955 179.873 116.15 179.073 116.15C178.373 116.15 177.748 115.995 177.198 115.685C176.648 115.375 176.218 114.93 175.908 114.35C175.598 113.76 175.443 113.06 175.443 112.25C175.443 111.44 175.598 110.745 175.908 110.165C176.218 109.575 176.648 109.125 177.198 108.815C177.748 108.505 178.373 108.35 179.073 108.35ZM184.662 116V105.05H185.862V109.625C186.122 109.175 186.467 108.85 186.897 108.65C187.327 108.45 187.797 108.35 188.307 108.35C188.847 108.35 189.337 108.455 189.777 108.665C190.217 108.865 190.567 109.175 190.827 109.595C191.097 110.015 191.232 110.55 191.232 111.2V116H190.032V111.62C190.032 110.79 189.852 110.215 189.492 109.895C189.142 109.565 188.707 109.4 188.187 109.4C187.827 109.4 187.467 109.485 187.107 109.655C186.747 109.825 186.447 110.105 186.207 110.495C185.977 110.875 185.862 111.385 185.862 112.025V116H184.662ZM203.868 108.5V109.535H201.138V113.93C201.138 114.3 201.243 114.575 201.453 114.755C201.663 114.935 201.933 115.025 202.263 115.025C202.553 115.025 202.803 114.975 203.013 114.875C203.223 114.775 203.413 114.64 203.583 114.47L204.003 115.475C203.773 115.685 203.498 115.85 203.178 115.97C202.868 116.09 202.508 116.15 202.098 116.15C201.718 116.15 201.363 116.085 201.033 115.955C200.703 115.815 200.438 115.6 200.238 115.31C200.048 115.01 199.948 114.62 199.938 114.14V109.535H198.438V108.5H199.938V106.7L201.138 106.37V108.5H203.868ZM205.952 116V105.05H207.152V109.625C207.412 109.175 207.757 108.85 208.187 108.65C208.617 108.45 209.087 108.35 209.597 108.35C210.137 108.35 210.627 108.455 211.067 108.665C211.507 108.865 211.857 109.175 212.117 109.595C212.387 110.015 212.522 110.55 212.522 111.2V116H211.322V111.62C211.322 110.79 211.142 110.215 210.782 109.895C210.432 109.565 209.997 109.4 209.477 109.4C209.117 109.4 208.757 109.485 208.397 109.655C208.037 109.825 207.737 110.105 207.497 110.495C207.267 110.875 207.152 111.385 207.152 112.025V116H205.952ZM218.675 116.15C217.965 116.15 217.33 115.995 216.77 115.685C216.22 115.375 215.79 114.93 215.48 114.35C215.17 113.76 215.015 113.06 215.015 112.25C215.015 111.44 215.17 110.745 215.48 110.165C215.79 109.575 216.215 109.125 216.755 108.815C217.295 108.505 217.91 108.35 218.6 108.35C219.3 108.35 219.895 108.5 220.385 108.8C220.885 109.1 221.265 109.51 221.525 110.03C221.785 110.54 221.915 111.115 221.915 111.755C221.915 111.925 221.91 112.08 221.9 112.22C221.89 112.36 221.875 112.485 221.855 112.595H216.2C216.26 113.385 216.505 114 216.935 114.44C217.365 114.88 217.935 115.1 218.645 115.1C219.195 115.1 219.64 114.995 219.98 114.785C220.33 114.575 220.61 114.29 220.82 113.93L221.765 114.485C221.485 114.995 221.08 115.4 220.55 115.7C220.03 116 219.405 116.15 218.675 116.15ZM218.57 109.4C217.94 109.4 217.42 109.59 217.01 109.97C216.61 110.34 216.355 110.86 216.245 111.53H220.715C220.685 110.85 220.475 110.325 220.085 109.955C219.695 109.585 219.19 109.4 218.57 109.4ZM232.609 116.15C231.879 116.15 231.204 115.995 230.584 115.685C229.974 115.375 229.504 114.935 229.174 114.365L230.194 113.63C230.414 114.09 230.734 114.45 231.154 114.71C231.584 114.97 232.099 115.1 232.699 115.1C233.229 115.1 233.644 115 233.944 114.8C234.244 114.59 234.394 114.32 234.394 113.99C234.394 113.78 234.324 113.59 234.184 113.42C234.054 113.24 233.799 113.11 233.419 113.03L231.619 112.655C230.889 112.505 230.364 112.255 230.044 111.905C229.734 111.555 229.579 111.12 229.579 110.6C229.579 110.19 229.694 109.815 229.924 109.475C230.164 109.135 230.499 108.865 230.929 108.665C231.369 108.455 231.884 108.35 232.474 108.35C233.214 108.35 233.839 108.495 234.349 108.785C234.859 109.075 235.239 109.485 235.489 110.015L234.484 110.675C234.314 110.235 234.039 109.915 233.659 109.715C233.279 109.505 232.884 109.4 232.474 109.4C231.934 109.4 231.514 109.51 231.214 109.73C230.914 109.95 230.764 110.225 230.764 110.555C230.764 110.775 230.839 110.98 230.989 111.17C231.139 111.35 231.419 111.48 231.829 111.56L233.704 111.95C234.404 112.09 234.894 112.32 235.174 112.64C235.454 112.96 235.594 113.35 235.594 113.81C235.594 114.52 235.319 115.09 234.769 115.52C234.219 115.94 233.499 116.15 232.609 116.15ZM238.119 119.15V108.5H239.169L239.244 109.82C239.474 109.38 239.814 109.025 240.264 108.755C240.724 108.485 241.249 108.35 241.839 108.35C242.449 108.35 243.009 108.505 243.519 108.815C244.039 109.125 244.454 109.57 244.764 110.15C245.074 110.73 245.229 111.43 245.229 112.25C245.229 113.06 245.069 113.76 244.749 114.35C244.439 114.93 244.024 115.375 243.504 115.685C242.984 115.995 242.414 116.15 241.794 116.15C241.234 116.15 240.739 116.03 240.309 115.79C239.879 115.54 239.549 115.22 239.319 114.83V119.15H238.119ZM241.674 115.1C242.414 115.1 242.989 114.84 243.399 114.32C243.819 113.8 244.029 113.11 244.029 112.25C244.029 111.39 243.824 110.7 243.414 110.18C243.014 109.66 242.449 109.4 241.719 109.4C240.999 109.4 240.419 109.66 239.979 110.18C239.539 110.7 239.319 111.39 239.319 112.25C239.319 113.11 239.534 113.8 239.964 114.32C240.394 114.84 240.964 115.1 241.674 115.1ZM250.959 116.15C250.249 116.15 249.614 115.995 249.054 115.685C248.504 115.375 248.074 114.93 247.764 114.35C247.454 113.76 247.299 113.06 247.299 112.25C247.299 111.44 247.454 110.745 247.764 110.165C248.074 109.575 248.499 109.125 249.039 108.815C249.579 108.505 250.194 108.35 250.884 108.35C251.584 108.35 252.179 108.5 252.669 108.8C253.169 109.1 253.549 109.51 253.809 110.03C254.069 110.54 254.199 111.115 254.199 111.755C254.199 111.925 254.194 112.08 254.184 112.22C254.174 112.36 254.159 112.485 254.139 112.595H248.484C248.544 113.385 248.789 114 249.219 114.44C249.649 114.88 250.219 115.1 250.929 115.1C251.479 115.1 251.924 114.995 252.264 114.785C252.614 114.575 252.894 114.29 253.104 113.93L254.049 114.485C253.769 114.995 253.364 115.4 252.834 115.7C252.314 116 251.689 116.15 250.959 116.15ZM250.854 109.4C250.224 109.4 249.704 109.59 249.294 109.97C248.894 110.34 248.639 110.86 248.529 111.53H252.999C252.969 110.85 252.759 110.325 252.369 109.955C251.979 109.585 251.474 109.4 250.854 109.4ZM259.916 116.15C259.206 116.15 258.571 115.995 258.011 115.685C257.461 115.375 257.031 114.93 256.721 114.35C256.411 113.76 256.256 113.06 256.256 112.25C256.256 111.44 256.411 110.745 256.721 110.165C257.031 109.575 257.456 109.125 257.996 108.815C258.536 108.505 259.151 108.35 259.841 108.35C260.541 108.35 261.136 108.5 261.626 108.8C262.126 109.1 262.506 109.51 262.766 110.03C263.026 110.54 263.156 111.115 263.156 111.755C263.156 111.925 263.151 112.08 263.141 112.22C263.131 112.36 263.116 112.485 263.096 112.595H257.441C257.501 113.385 257.746 114 258.176 114.44C258.606 114.88 259.176 115.1 259.886 115.1C260.436 115.1 260.881 114.995 261.221 114.785C261.571 114.575 261.851 114.29 262.061 113.93L263.006 114.485C262.726 114.995 262.321 115.4 261.791 115.7C261.271 116 260.646 116.15 259.916 116.15ZM259.811 109.4C259.181 109.4 258.661 109.59 258.251 109.97C257.851 110.34 257.596 110.86 257.486 111.53H261.956C261.926 110.85 261.716 110.325 261.326 109.955C260.936 109.585 260.431 109.4 259.811 109.4ZM268.663 116.15C268.043 116.15 267.473 115.995 266.953 115.685C266.433 115.375 266.018 114.93 265.708 114.35C265.398 113.76 265.243 113.06 265.243 112.25C265.243 111.42 265.408 110.715 265.738 110.135C266.068 109.555 266.503 109.115 267.043 108.815C267.583 108.505 268.163 108.35 268.783 108.35C269.323 108.35 269.803 108.475 270.223 108.725C270.643 108.965 270.953 109.295 271.153 109.715V105.05H272.353V116H271.303L271.228 114.59C271.018 115.1 270.678 115.49 270.208 115.76C269.738 116.02 269.223 116.15 268.663 116.15ZM268.783 115.1C269.493 115.1 270.063 114.835 270.493 114.305C270.933 113.775 271.153 113.055 271.153 112.145C271.153 111.285 270.938 110.615 270.508 110.135C270.078 109.645 269.523 109.4 268.843 109.4C268.083 109.4 267.493 109.66 267.073 110.18C266.653 110.7 266.443 111.39 266.443 112.25C266.443 113.11 266.648 113.8 267.058 114.32C267.468 114.84 268.043 115.1 268.783 115.1ZM283.96 108.35C284.67 108.35 285.295 108.505 285.835 108.815C286.385 109.125 286.815 109.575 287.125 110.165C287.435 110.745 287.59 111.44 287.59 112.25C287.59 113.06 287.435 113.76 287.125 114.35C286.815 114.93 286.385 115.375 285.835 115.685C285.295 115.995 284.67 116.15 283.96 116.15C283.26 116.15 282.635 115.995 282.085 115.685C281.535 115.375 281.105 114.93 280.795 114.35C280.485 113.76 280.33 113.06 280.33 112.25C280.33 111.44 280.485 110.745 280.795 110.165C281.105 109.575 281.535 109.125 282.085 108.815C282.635 108.505 283.26 108.35 283.96 108.35ZM283.96 109.385C283.2 109.385 282.605 109.64 282.175 110.15C281.745 110.66 281.53 111.36 281.53 112.25C281.53 113.14 281.745 113.84 282.175 114.35C282.605 114.86 283.2 115.115 283.96 115.115C284.72 115.115 285.315 114.86 285.745 114.35C286.175 113.84 286.39 113.14 286.39 112.25C286.39 111.36 286.175 110.66 285.745 110.15C285.315 109.64 284.72 109.385 283.96 109.385ZM294.307 108.5V109.535H291.802V116H290.602V109.535H289.102V108.5H290.602V107.24C290.602 106.57 290.807 106.025 291.217 105.605C291.627 105.185 292.242 104.975 293.062 104.975C293.322 104.975 293.567 105.005 293.797 105.065C294.027 105.125 294.207 105.21 294.337 105.32L294.022 106.295C293.782 106.145 293.497 106.07 293.167 106.07C292.737 106.07 292.402 106.175 292.162 106.385C291.922 106.585 291.802 106.91 291.802 107.36V108.5H294.307ZM305.224 108.5V109.535H302.494V113.93C302.494 114.3 302.599 114.575 302.809 114.755C303.019 114.935 303.289 115.025 303.619 115.025C303.909 115.025 304.159 114.975 304.369 114.875C304.579 114.775 304.769 114.64 304.939 114.47L305.359 115.475C305.129 115.685 304.854 115.85 304.534 115.97C304.224 116.09 303.864 116.15 303.454 116.15C303.074 116.15 302.719 116.085 302.389 115.955C302.059 115.815 301.794 115.6 301.594 115.31C301.404 115.01 301.304 114.62 301.294 114.14V109.535H299.794V108.5H301.294V106.7L302.494 106.37V108.5H305.224ZM307.308 116V105.05H308.508V109.625C308.768 109.175 309.113 108.85 309.543 108.65C309.973 108.45 310.443 108.35 310.953 108.35C311.493 108.35 311.983 108.455 312.423 108.665C312.863 108.865 313.213 109.175 313.473 109.595C313.743 110.015 313.878 110.55 313.878 111.2V116H312.678V111.62C312.678 110.79 312.498 110.215 312.138 109.895C311.788 109.565 311.353 109.4 310.833 109.4C310.473 109.4 310.113 109.485 309.753 109.655C309.393 109.825 309.093 110.105 308.853 110.495C308.623 110.875 308.508 111.385 308.508 112.025V116H307.308ZM320.031 116.15C319.321 116.15 318.686 115.995 318.126 115.685C317.576 115.375 317.146 114.93 316.836 114.35C316.526 113.76 316.371 113.06 316.371 112.25C316.371 111.44 316.526 110.745 316.836 110.165C317.146 109.575 317.571 109.125 318.111 108.815C318.651 108.505 319.266 108.35 319.956 108.35C320.656 108.35 321.251 108.5 321.741 108.8C322.241 109.1 322.621 109.51 322.881 110.03C323.141 110.54 323.271 111.115 323.271 111.755C323.271 111.925 323.266 112.08 323.256 112.22C323.246 112.36 323.231 112.485 323.211 112.595H317.556C317.616 113.385 317.861 114 318.291 114.44C318.721 114.88 319.291 115.1 320.001 115.1C320.551 115.1 320.996 114.995 321.336 114.785C321.686 114.575 321.966 114.29 322.176 113.93L323.121 114.485C322.841 114.995 322.436 115.4 321.906 115.7C321.386 116 320.761 116.15 320.031 116.15ZM319.926 109.4C319.296 109.4 318.776 109.59 318.366 109.97C317.966 110.34 317.711 110.86 317.601 111.53H322.071C322.041 110.85 321.831 110.325 321.441 109.955C321.051 109.585 320.546 109.4 319.926 109.4ZM58.43 130.1L54.89 136.13V140H53.69V136.13L50.15 130.1H51.575L53.495 133.49L54.29 134.9L55.085 133.49L57.005 130.1H58.43ZM62.3 132.35C63.01 132.35 63.635 132.505 64.175 132.815C64.725 133.125 65.155 133.575 65.465 134.165C65.775 134.745 65.93 135.44 65.93 136.25C65.93 137.06 65.775 137.76 65.465 138.35C65.155 138.93 64.725 139.375 64.175 139.685C63.635 139.995 63.01 140.15 62.3 140.15C61.6 140.15 60.975 139.995 60.425 139.685C59.875 139.375 59.445 138.93 59.135 138.35C58.825 137.76 58.67 137.06 58.67 136.25C58.67 135.44 58.825 134.745 59.135 134.165C59.445 133.575 59.875 133.125 60.425 132.815C60.975 132.505 61.6 132.35 62.3 132.35ZM62.3 133.385C61.54 133.385 60.945 133.64 60.515 134.15C60.085 134.66 59.87 135.36 59.87 136.25C59.87 137.14 60.085 137.84 60.515 138.35C60.945 138.86 61.54 139.115 62.3 139.115C63.06 139.115 63.655 138.86 64.085 138.35C64.515 137.84 64.73 137.14 64.73 136.25C64.73 135.36 64.515 134.66 64.085 134.15C63.655 133.64 63.06 133.385 62.3 133.385ZM71.2041 140.15C70.7241 140.15 70.2691 140.06 69.8391 139.88C69.4191 139.7 69.0741 139.41 68.8041 139.01C68.5441 138.6 68.4141 138.07 68.4141 137.42V132.5H69.6141V137.105C69.6141 137.865 69.7791 138.39 70.1091 138.68C70.4391 138.96 70.9041 139.1 71.5041 139.1C71.8841 139.1 72.2441 139.015 72.5841 138.845C72.9241 138.665 73.2041 138.39 73.4241 138.02C73.6441 137.65 73.7541 137.17 73.7541 136.58V132.5H74.9541V140H73.9041L73.8291 138.86C73.5691 139.31 73.2141 139.64 72.7641 139.85C72.3241 140.05 71.8041 140.15 71.2041 140.15ZM84.1919 130.1V131.225H80.7419V140H79.5419V131.225H76.0919V130.1H84.1919ZM88.0932 140.15C87.6132 140.15 87.1582 140.06 86.7282 139.88C86.3082 139.7 85.9632 139.41 85.6932 139.01C85.4332 138.6 85.3032 138.07 85.3032 137.42V132.5H86.5032V137.105C86.5032 137.865 86.6682 138.39 86.9982 138.68C87.3282 138.96 87.7932 139.1 88.3932 139.1C88.7732 139.1 89.1332 139.015 89.4732 138.845C89.8132 138.665 90.0932 138.39 90.3132 138.02C90.5332 137.65 90.6432 137.17 90.6432 136.58V132.5H91.8432V140H90.7932L90.7182 138.86C90.4582 139.31 90.1032 139.64 89.6532 139.85C89.2132 140.05 88.6932 140.15 88.0932 140.15ZM98.611 140.15C98.041 140.15 97.531 140.015 97.081 139.745C96.631 139.475 96.291 139.12 96.061 138.68L95.986 140H94.936V129.05H96.136V133.67C96.376 133.28 96.711 132.965 97.141 132.725C97.581 132.475 98.076 132.35 98.626 132.35C99.246 132.35 99.816 132.505 100.336 132.815C100.856 133.125 101.271 133.57 101.581 134.15C101.891 134.73 102.046 135.43 102.046 136.25C102.046 137.06 101.886 137.76 101.566 138.35C101.256 138.93 100.841 139.375 100.321 139.685C99.801 139.995 99.231 140.15 98.611 140.15ZM98.491 139.1C99.231 139.1 99.806 138.84 100.216 138.32C100.636 137.8 100.846 137.11 100.846 136.25C100.846 135.39 100.641 134.7 100.231 134.18C99.821 133.66 99.246 133.4 98.506 133.4C97.806 133.4 97.236 133.665 96.796 134.195C96.356 134.725 96.136 135.42 96.136 136.28C96.136 137.14 96.351 137.825 96.781 138.335C97.221 138.845 97.791 139.1 98.491 139.1ZM107.775 140.15C107.065 140.15 106.43 139.995 105.87 139.685C105.32 139.375 104.89 138.93 104.58 138.35C104.27 137.76 104.115 137.06 104.115 136.25C104.115 135.44 104.27 134.745 104.58 134.165C104.89 133.575 105.315 133.125 105.855 132.815C106.395 132.505 107.01 132.35 107.7 132.35C108.4 132.35 108.995 132.5 109.485 132.8C109.985 133.1 110.365 133.51 110.625 134.03C110.885 134.54 111.015 135.115 111.015 135.755C111.015 135.925 111.01 136.08 111 136.22C110.99 136.36 110.975 136.485 110.955 136.595H105.3C105.36 137.385 105.605 138 106.035 138.44C106.465 138.88 107.035 139.1 107.745 139.1C108.295 139.1 108.74 138.995 109.08 138.785C109.43 138.575 109.71 138.29 109.92 137.93L110.865 138.485C110.585 138.995 110.18 139.4 109.65 139.7C109.13 140 108.505 140.15 107.775 140.15ZM107.67 133.4C107.04 133.4 106.52 133.59 106.11 133.97C105.71 134.34 105.455 134.86 105.345 135.53H109.815C109.785 134.85 109.575 134.325 109.185 133.955C108.795 133.585 108.29 133.4 107.67 133.4ZM123.217 132.5V133.535H120.487V137.93C120.487 138.3 120.592 138.575 120.802 138.755C121.012 138.935 121.282 139.025 121.612 139.025C121.902 139.025 122.152 138.975 122.362 138.875C122.572 138.775 122.762 138.64 122.932 138.47L123.352 139.475C123.122 139.685 122.847 139.85 122.527 139.97C122.217 140.09 121.857 140.15 121.447 140.15C121.067 140.15 120.712 140.085 120.382 139.955C120.052 139.815 119.787 139.6 119.587 139.31C119.397 139.01 119.297 138.62 119.287 138.14V133.535H117.787V132.5H119.287V130.7L120.487 130.37V132.5H123.217ZM128.016 140.15C127.536 140.15 127.081 140.06 126.651 139.88C126.231 139.7 125.886 139.41 125.616 139.01C125.356 138.6 125.226 138.07 125.226 137.42V132.5H126.426V137.105C126.426 137.865 126.591 138.39 126.921 138.68C127.251 138.96 127.716 139.1 128.316 139.1C128.696 139.1 129.056 139.015 129.396 138.845C129.736 138.665 130.016 138.39 130.236 138.02C130.456 137.65 130.566 137.17 130.566 136.58V132.5H131.766V140H130.716L130.641 138.86C130.381 139.31 130.026 139.64 129.576 139.85C129.136 140.05 128.616 140.15 128.016 140.15ZM139.359 132.5V133.535H136.629V137.93C136.629 138.3 136.734 138.575 136.944 138.755C137.154 138.935 137.424 139.025 137.754 139.025C138.044 139.025 138.294 138.975 138.504 138.875C138.714 138.775 138.904 138.64 139.074 138.47L139.494 139.475C139.264 139.685 138.989 139.85 138.669 139.97C138.359 140.09 137.999 140.15 137.589 140.15C137.209 140.15 136.854 140.085 136.524 139.955C136.194 139.815 135.929 139.6 135.729 139.31C135.539 139.01 135.439 138.62 135.429 138.14V133.535H133.929V132.5H135.429V130.7L136.629 130.37V132.5H139.359ZM144.548 132.35C145.258 132.35 145.883 132.505 146.423 132.815C146.973 133.125 147.403 133.575 147.713 134.165C148.023 134.745 148.178 135.44 148.178 136.25C148.178 137.06 148.023 137.76 147.713 138.35C147.403 138.93 146.973 139.375 146.423 139.685C145.883 139.995 145.258 140.15 144.548 140.15C143.848 140.15 143.223 139.995 142.673 139.685C142.123 139.375 141.693 138.93 141.383 138.35C141.073 137.76 140.918 137.06 140.918 136.25C140.918 135.44 141.073 134.745 141.383 134.165C141.693 133.575 142.123 133.125 142.673 132.815C143.223 132.505 143.848 132.35 144.548 132.35ZM144.548 133.385C143.788 133.385 143.193 133.64 142.763 134.15C142.333 134.66 142.118 135.36 142.118 136.25C142.118 137.14 142.333 137.84 142.763 138.35C143.193 138.86 143.788 139.115 144.548 139.115C145.308 139.115 145.903 138.86 146.333 138.35C146.763 137.84 146.978 137.14 146.978 136.25C146.978 135.36 146.763 134.66 146.333 134.15C145.903 133.64 145.308 133.385 144.548 133.385ZM150.737 140V132.5H151.712L151.877 133.73C152.297 132.81 153.097 132.35 154.277 132.35C154.407 132.35 154.547 132.36 154.697 132.38C154.857 132.4 154.992 132.44 155.102 132.5L154.892 133.595C154.782 133.555 154.662 133.525 154.532 133.505C154.402 133.485 154.217 133.475 153.977 133.475C153.667 133.475 153.352 133.565 153.032 133.745C152.722 133.925 152.462 134.2 152.252 134.57C152.042 134.93 151.937 135.39 151.937 135.95V140H150.737ZM157.76 131.06C157.49 131.06 157.27 130.98 157.1 130.82C156.94 130.65 156.86 130.43 156.86 130.16C156.86 129.89 156.94 129.675 157.1 129.515C157.27 129.345 157.49 129.26 157.76 129.26C158.03 129.26 158.245 129.345 158.405 129.515C158.575 129.675 158.66 129.89 158.66 130.16C158.66 130.43 158.575 130.65 158.405 130.82C158.245 130.98 158.03 131.06 157.76 131.06ZM158.36 132.5V140H157.16V132.5H158.36ZM165.825 135.155C165.825 134.595 165.675 134.165 165.375 133.865C165.075 133.555 164.65 133.4 164.1 133.4C163.58 133.4 163.14 133.515 162.78 133.745C162.42 133.965 162.155 134.325 161.985 134.825L161.01 134.225C161.21 133.665 161.58 133.215 162.12 132.875C162.66 132.525 163.33 132.35 164.13 132.35C164.67 132.35 165.16 132.445 165.6 132.635C166.04 132.815 166.385 133.095 166.635 133.475C166.895 133.845 167.025 134.325 167.025 134.915V138.545C167.025 138.905 167.215 139.085 167.595 139.085C167.785 139.085 167.97 139.06 168.15 139.01L168.09 139.955C167.89 140.055 167.63 140.105 167.31 140.105C166.94 140.105 166.62 140.015 166.35 139.835C166.09 139.655 165.92 139.38 165.84 139.01C165.58 139.4 165.225 139.69 164.775 139.88C164.325 140.06 163.88 140.15 163.44 140.15C163 140.15 162.59 140.075 162.21 139.925C161.83 139.775 161.525 139.55 161.295 139.25C161.075 138.94 160.965 138.56 160.965 138.11C160.965 137.55 161.15 137.09 161.52 136.73C161.9 136.36 162.425 136.11 163.095 135.98L165.825 135.44V135.155ZM162.195 138.05C162.195 138.36 162.315 138.615 162.555 138.815C162.805 139.005 163.155 139.1 163.605 139.1C163.995 139.1 164.355 139.035 164.685 138.905C165.025 138.765 165.3 138.56 165.51 138.29C165.72 138.01 165.825 137.655 165.825 137.225V136.43L163.65 136.88C163.16 136.98 162.795 137.12 162.555 137.3C162.315 137.48 162.195 137.73 162.195 138.05ZM171.381 129.05V138.095C171.381 138.475 171.451 138.74 171.591 138.89C171.731 139.03 171.956 139.1 172.266 139.1C172.466 139.1 172.631 139.085 172.761 139.055C172.891 139.025 173.066 138.97 173.286 138.89L173.091 139.94C172.761 140.08 172.391 140.15 171.981 140.15C170.781 140.15 170.181 139.48 170.181 138.14V129.05H171.381ZM177.826 140.15C177.096 140.15 176.421 139.995 175.801 139.685C175.191 139.375 174.721 138.935 174.391 138.365L175.411 137.63C175.631 138.09 175.951 138.45 176.371 138.71C176.801 138.97 177.316 139.1 177.916 139.1C178.446 139.1 178.861 139 179.161 138.8C179.461 138.59 179.611 138.32 179.611 137.99C179.611 137.78 179.541 137.59 179.401 137.42C179.271 137.24 179.016 137.11 178.636 137.03L176.836 136.655C176.106 136.505 175.581 136.255 175.261 135.905C174.951 135.555 174.796 135.12 174.796 134.6C174.796 134.19 174.911 133.815 175.141 133.475C175.381 133.135 175.716 132.865 176.146 132.665C176.586 132.455 177.101 132.35 177.691 132.35C178.431 132.35 179.056 132.495 179.566 132.785C180.076 133.075 180.456 133.485 180.706 134.015L179.701 134.675C179.531 134.235 179.256 133.915 178.876 133.715C178.496 133.505 178.101 133.4 177.691 133.4C177.151 133.4 176.731 133.51 176.431 133.73C176.131 133.95 175.981 134.225 175.981 134.555C175.981 134.775 176.056 134.98 176.206 135.17C176.356 135.35 176.636 135.48 177.046 135.56L178.921 135.95C179.621 136.09 180.111 136.32 180.391 136.64C180.671 136.96 180.811 137.35 180.811 137.81C180.811 138.52 180.536 139.09 179.986 139.52C179.436 139.94 178.716 140.15 177.826 140.15Z" fill="black"/>
<path d="M30.608 173.4C30.608 172.888 30.7893 172.451 31.152 172.088C31.5253 171.715 31.968 171.528 32.48 171.528C32.992 171.528 33.4293 171.715 33.792 172.088C34.1653 172.451 34.352 172.888 34.352 173.4C34.352 173.731 34.2667 174.04 34.096 174.328C33.9253 174.616 33.696 174.845 33.408 175.016C33.12 175.187 32.8107 175.272 32.48 175.272C32.1493 175.272 31.84 175.187 31.552 175.016C31.264 174.845 31.0347 174.616 30.864 174.328C30.6933 174.04 30.608 173.731 30.608 173.4Z" fill="black"/>
<path d="M58.58 169.1V170.225H55.13V179H53.93V170.225H50.48V169.1H58.58ZM62.1975 171.35C62.9075 171.35 63.5325 171.505 64.0725 171.815C64.6225 172.125 65.0525 172.575 65.3625 173.165C65.6725 173.745 65.8275 174.44 65.8275 175.25C65.8275 176.06 65.6725 176.76 65.3625 177.35C65.0525 177.93 64.6225 178.375 64.0725 178.685C63.5325 178.995 62.9075 179.15 62.1975 179.15C61.4975 179.15 60.8725 178.995 60.3225 178.685C59.7725 178.375 59.3425 177.93 59.0325 177.35C58.7225 176.76 58.5675 176.06 58.5675 175.25C58.5675 174.44 58.7225 173.745 59.0325 173.165C59.3425 172.575 59.7725 172.125 60.3225 171.815C60.8725 171.505 61.4975 171.35 62.1975 171.35ZM62.1975 172.385C61.4375 172.385 60.8425 172.64 60.4125 173.15C59.9825 173.66 59.7675 174.36 59.7675 175.25C59.7675 176.14 59.9825 176.84 60.4125 177.35C60.8425 177.86 61.4375 178.115 62.1975 178.115C62.9575 178.115 63.5525 177.86 63.9825 177.35C64.4125 176.84 64.6275 176.14 64.6275 175.25C64.6275 174.36 64.4125 173.66 63.9825 173.15C63.5525 172.64 62.9575 172.385 62.1975 172.385ZM71.4916 171.35C72.2016 171.35 72.8266 171.505 73.3666 171.815C73.9166 172.125 74.3466 172.575 74.6566 173.165C74.9666 173.745 75.1216 174.44 75.1216 175.25C75.1216 176.06 74.9666 176.76 74.6566 177.35C74.3466 177.93 73.9166 178.375 73.3666 178.685C72.8266 178.995 72.2016 179.15 71.4916 179.15C70.7916 179.15 70.1666 178.995 69.6166 178.685C69.0666 178.375 68.6366 177.93 68.3266 177.35C68.0166 176.76 67.8616 176.06 67.8616 175.25C67.8616 174.44 68.0166 173.745 68.3266 173.165C68.6366 172.575 69.0666 172.125 69.6166 171.815C70.1666 171.505 70.7916 171.35 71.4916 171.35ZM71.4916 172.385C70.7316 172.385 70.1366 172.64 69.7066 173.15C69.2766 173.66 69.0616 174.36 69.0616 175.25C69.0616 176.14 69.2766 176.84 69.7066 177.35C70.1366 177.86 70.7316 178.115 71.4916 178.115C72.2516 178.115 72.8466 177.86 73.2766 177.35C73.7066 176.84 73.9216 176.14 73.9216 175.25C73.9216 174.36 73.7066 173.66 73.2766 173.15C72.8466 172.64 72.2516 172.385 71.4916 172.385ZM83.093 179V171.5H84.143L84.218 172.67C84.488 172.21 84.838 171.875 85.268 171.665C85.708 171.455 86.158 171.35 86.618 171.35C87.148 171.35 87.648 171.47 88.118 171.71C88.588 171.95 88.948 172.32 89.198 172.82C89.358 172.48 89.583 172.205 89.873 171.995C90.163 171.775 90.478 171.615 90.818 171.515C91.168 171.405 91.498 171.35 91.808 171.35C92.288 171.35 92.743 171.45 93.173 171.65C93.613 171.85 93.973 172.16 94.253 172.58C94.533 173 94.673 173.54 94.673 174.2V179H93.473V174.32C93.473 173.64 93.303 173.15 92.963 172.85C92.623 172.55 92.203 172.4 91.703 172.4C91.313 172.4 90.948 172.495 90.608 172.685C90.268 172.875 89.993 173.155 89.783 173.525C89.583 173.895 89.483 174.35 89.483 174.89V179H88.283V174.32C88.283 173.64 88.113 173.15 87.773 172.85C87.433 172.55 87.013 172.4 86.513 172.4C86.183 172.4 85.843 172.49 85.493 172.67C85.153 172.84 84.868 173.115 84.638 173.495C84.408 173.875 84.293 174.375 84.293 174.995V179H83.093ZM102.07 174.155C102.07 173.595 101.92 173.165 101.62 172.865C101.32 172.555 100.895 172.4 100.345 172.4C99.8249 172.4 99.3849 172.515 99.0249 172.745C98.6649 172.965 98.3999 173.325 98.2299 173.825L97.2549 173.225C97.4549 172.665 97.8249 172.215 98.3649 171.875C98.9049 171.525 99.5749 171.35 100.375 171.35C100.915 171.35 101.405 171.445 101.845 171.635C102.285 171.815 102.63 172.095 102.88 172.475C103.14 172.845 103.27 173.325 103.27 173.915V177.545C103.27 177.905 103.46 178.085 103.84 178.085C104.03 178.085 104.215 178.06 104.395 178.01L104.335 178.955C104.135 179.055 103.875 179.105 103.555 179.105C103.185 179.105 102.865 179.015 102.595 178.835C102.335 178.655 102.165 178.38 102.085 178.01C101.825 178.4 101.47 178.69 101.02 178.88C100.57 179.06 100.125 179.15 99.6849 179.15C99.2449 179.15 98.8349 179.075 98.4549 178.925C98.0749 178.775 97.7699 178.55 97.5399 178.25C97.3199 177.94 97.2099 177.56 97.2099 177.11C97.2099 176.55 97.3949 176.09 97.7649 175.73C98.1449 175.36 98.6699 175.11 99.3399 174.98L102.07 174.44V174.155ZM98.4399 177.05C98.4399 177.36 98.5599 177.615 98.7999 177.815C99.0499 178.005 99.3999 178.1 99.8499 178.1C100.24 178.1 100.6 178.035 100.93 177.905C101.27 177.765 101.545 177.56 101.755 177.29C101.965 177.01 102.07 176.655 102.07 176.225V175.43L99.8949 175.88C99.4049 175.98 99.0399 176.12 98.7999 176.3C98.5599 176.48 98.4399 176.73 98.4399 177.05ZM106.486 179V171.5H107.536L107.611 172.67C107.871 172.2 108.226 171.865 108.676 171.665C109.126 171.455 109.611 171.35 110.131 171.35C110.671 171.35 111.161 171.455 111.601 171.665C112.041 171.865 112.391 172.175 112.651 172.595C112.921 173.015 113.056 173.55 113.056 174.2V179H111.856V174.62C111.856 173.79 111.676 173.215 111.316 172.895C110.966 172.565 110.531 172.4 110.011 172.4C109.651 172.4 109.291 172.485 108.931 172.655C108.571 172.825 108.271 173.1 108.031 173.48C107.801 173.86 107.686 174.37 107.686 175.01V179H106.486ZM122.033 171.5L118.508 180.26C118.218 180.99 117.888 181.5 117.518 181.79C117.158 182.08 116.713 182.225 116.183 182.225C115.843 182.225 115.528 182.175 115.238 182.075C114.958 181.985 114.708 181.86 114.488 181.7L114.818 180.65C115.018 180.83 115.228 180.96 115.448 181.04C115.678 181.13 115.903 181.175 116.123 181.175C116.383 181.175 116.628 181.095 116.858 180.935C117.088 180.775 117.298 180.45 117.488 179.96L117.878 178.985L117.128 177.2L114.743 171.5H116.108L117.983 176.39L118.448 177.725L118.988 176.24L120.743 171.5H122.033ZM133.141 171.5V172.535H130.411V176.93C130.411 177.3 130.516 177.575 130.726 177.755C130.936 177.935 131.206 178.025 131.536 178.025C131.826 178.025 132.076 177.975 132.286 177.875C132.496 177.775 132.686 177.64 132.856 177.47L133.276 178.475C133.046 178.685 132.771 178.85 132.451 178.97C132.141 179.09 131.781 179.15 131.371 179.15C130.991 179.15 130.636 179.085 130.306 178.955C129.976 178.815 129.711 178.6 129.511 178.31C129.321 178.01 129.221 177.62 129.211 177.14V172.535H127.711V171.5H129.211V169.7L130.411 169.37V171.5H133.141ZM137.94 179.15C137.46 179.15 137.005 179.06 136.575 178.88C136.155 178.7 135.81 178.41 135.54 178.01C135.28 177.6 135.15 177.07 135.15 176.42V171.5H136.35V176.105C136.35 176.865 136.515 177.39 136.845 177.68C137.175 177.96 137.64 178.1 138.24 178.1C138.62 178.1 138.98 178.015 139.32 177.845C139.66 177.665 139.94 177.39 140.16 177.02C140.38 176.65 140.49 176.17 140.49 175.58V171.5H141.69V179H140.64L140.565 177.86C140.305 178.31 139.95 178.64 139.5 178.85C139.06 179.05 138.54 179.15 137.94 179.15ZM149.283 171.5V172.535H146.553V176.93C146.553 177.3 146.658 177.575 146.868 177.755C147.078 177.935 147.348 178.025 147.678 178.025C147.968 178.025 148.218 177.975 148.428 177.875C148.638 177.775 148.828 177.64 148.998 177.47L149.418 178.475C149.188 178.685 148.913 178.85 148.593 178.97C148.283 179.09 147.923 179.15 147.513 179.15C147.133 179.15 146.778 179.085 146.448 178.955C146.118 178.815 145.853 178.6 145.653 178.31C145.463 178.01 145.363 177.62 145.353 177.14V172.535H143.853V171.5H145.353V169.7L146.553 169.37V171.5H149.283ZM154.472 171.35C155.182 171.35 155.807 171.505 156.347 171.815C156.897 172.125 157.327 172.575 157.637 173.165C157.947 173.745 158.102 174.44 158.102 175.25C158.102 176.06 157.947 176.76 157.637 177.35C157.327 177.93 156.897 178.375 156.347 178.685C155.807 178.995 155.182 179.15 154.472 179.15C153.772 179.15 153.147 178.995 152.597 178.685C152.047 178.375 151.617 177.93 151.307 177.35C150.997 176.76 150.842 176.06 150.842 175.25C150.842 174.44 150.997 173.745 151.307 173.165C151.617 172.575 152.047 172.125 152.597 171.815C153.147 171.505 153.772 171.35 154.472 171.35ZM154.472 172.385C153.712 172.385 153.117 172.64 152.687 173.15C152.257 173.66 152.042 174.36 152.042 175.25C152.042 176.14 152.257 176.84 152.687 177.35C153.117 177.86 153.712 178.115 154.472 178.115C155.232 178.115 155.827 177.86 156.257 177.35C156.687 176.84 156.902 176.14 156.902 175.25C156.902 174.36 156.687 173.66 156.257 173.15C155.827 172.64 155.232 172.385 154.472 172.385ZM160.661 179V171.5H161.636L161.801 172.73C162.221 171.81 163.021 171.35 164.201 171.35C164.331 171.35 164.471 171.36 164.621 171.38C164.781 171.4 164.916 171.44 165.026 171.5L164.816 172.595C164.706 172.555 164.586 172.525 164.456 172.505C164.326 172.485 164.141 172.475 163.901 172.475C163.591 172.475 163.276 172.565 162.956 172.745C162.646 172.925 162.386 173.2 162.176 173.57C161.966 173.93 161.861 174.39 161.861 174.95V179H160.661ZM167.684 170.06C167.414 170.06 167.194 169.98 167.024 169.82C166.864 169.65 166.784 169.43 166.784 169.16C166.784 168.89 166.864 168.675 167.024 168.515C167.194 168.345 167.414 168.26 167.684 168.26C167.954 168.26 168.169 168.345 168.329 168.515C168.499 168.675 168.584 168.89 168.584 169.16C168.584 169.43 168.499 169.65 168.329 169.82C168.169 169.98 167.954 170.06 167.684 170.06ZM168.284 171.5V179H167.084V171.5H168.284ZM175.749 174.155C175.749 173.595 175.599 173.165 175.299 172.865C174.999 172.555 174.574 172.4 174.024 172.4C173.504 172.4 173.064 172.515 172.704 172.745C172.344 172.965 172.079 173.325 171.909 173.825L170.934 173.225C171.134 172.665 171.504 172.215 172.044 171.875C172.584 171.525 173.254 171.35 174.054 171.35C174.594 171.35 175.084 171.445 175.524 171.635C175.964 171.815 176.309 172.095 176.559 172.475C176.819 172.845 176.949 173.325 176.949 173.915V177.545C176.949 177.905 177.139 178.085 177.519 178.085C177.709 178.085 177.894 178.06 178.074 178.01L178.014 178.955C177.814 179.055 177.554 179.105 177.234 179.105C176.864 179.105 176.544 179.015 176.274 178.835C176.014 178.655 175.844 178.38 175.764 178.01C175.504 178.4 175.149 178.69 174.699 178.88C174.249 179.06 173.804 179.15 173.364 179.15C172.924 179.15 172.514 179.075 172.134 178.925C171.754 178.775 171.449 178.55 171.219 178.25C170.999 177.94 170.889 177.56 170.889 177.11C170.889 176.55 171.074 176.09 171.444 175.73C171.824 175.36 172.349 175.11 173.019 174.98L175.749 174.44V174.155ZM172.119 177.05C172.119 177.36 172.239 177.615 172.479 177.815C172.729 178.005 173.079 178.1 173.529 178.1C173.919 178.1 174.279 178.035 174.609 177.905C174.949 177.765 175.224 177.56 175.434 177.29C175.644 177.01 175.749 176.655 175.749 176.225V175.43L173.574 175.88C173.084 175.98 172.719 176.12 172.479 176.3C172.239 176.48 172.119 176.73 172.119 177.05ZM181.305 168.05V177.095C181.305 177.475 181.375 177.74 181.515 177.89C181.655 178.03 181.88 178.1 182.19 178.1C182.39 178.1 182.555 178.085 182.685 178.055C182.815 178.025 182.99 177.97 183.21 177.89L183.015 178.94C182.685 179.08 182.315 179.15 181.905 179.15C180.705 179.15 180.105 178.48 180.105 177.14V168.05H181.305ZM187.75 179.15C187.02 179.15 186.345 178.995 185.725 178.685C185.115 178.375 184.645 177.935 184.315 177.365L185.335 176.63C185.555 177.09 185.875 177.45 186.295 177.71C186.725 177.97 187.24 178.1 187.84 178.1C188.37 178.1 188.785 178 189.085 177.8C189.385 177.59 189.535 177.32 189.535 176.99C189.535 176.78 189.465 176.59 189.325 176.42C189.195 176.24 188.94 176.11 188.56 176.03L186.76 175.655C186.03 175.505 185.505 175.255 185.185 174.905C184.875 174.555 184.72 174.12 184.72 173.6C184.72 173.19 184.835 172.815 185.065 172.475C185.305 172.135 185.64 171.865 186.07 171.665C186.51 171.455 187.025 171.35 187.615 171.35C188.355 171.35 188.98 171.495 189.49 171.785C190 172.075 190.38 172.485 190.63 173.015L189.625 173.675C189.455 173.235 189.18 172.915 188.8 172.715C188.42 172.505 188.025 172.4 187.615 172.4C187.075 172.4 186.655 172.51 186.355 172.73C186.055 172.95 185.905 173.225 185.905 173.555C185.905 173.775 185.98 173.98 186.13 174.17C186.28 174.35 186.56 174.48 186.97 174.56L188.845 174.95C189.545 175.09 190.035 175.32 190.315 175.64C190.595 175.96 190.735 176.35 190.735 176.81C190.735 177.52 190.46 178.09 189.91 178.52C189.36 178.94 188.64 179.15 187.75 179.15ZM202.684 171.5V172.535H200.179V179H198.979V172.535H197.479V171.5H198.979V170.24C198.979 169.57 199.184 169.025 199.594 168.605C200.004 168.185 200.619 167.975 201.439 167.975C201.699 167.975 201.944 168.005 202.174 168.065C202.404 168.125 202.584 168.21 202.714 168.32L202.399 169.295C202.159 169.145 201.874 169.07 201.544 169.07C201.114 169.07 200.779 169.175 200.539 169.385C200.299 169.585 200.179 169.91 200.179 170.36V171.5H202.684ZM207.482 171.35C208.192 171.35 208.817 171.505 209.357 171.815C209.907 172.125 210.337 172.575 210.647 173.165C210.957 173.745 211.112 174.44 211.112 175.25C211.112 176.06 210.957 176.76 210.647 177.35C210.337 177.93 209.907 178.375 209.357 178.685C208.817 178.995 208.192 179.15 207.482 179.15C206.782 179.15 206.157 178.995 205.607 178.685C205.057 178.375 204.627 177.93 204.317 177.35C204.007 176.76 203.852 176.06 203.852 175.25C203.852 174.44 204.007 173.745 204.317 173.165C204.627 172.575 205.057 172.125 205.607 171.815C206.157 171.505 206.782 171.35 207.482 171.35ZM207.482 172.385C206.722 172.385 206.127 172.64 205.697 173.15C205.267 173.66 205.052 174.36 205.052 175.25C205.052 176.14 205.267 176.84 205.697 177.35C206.127 177.86 206.722 178.115 207.482 178.115C208.242 178.115 208.837 177.86 209.267 177.35C209.697 176.84 209.912 176.14 209.912 175.25C209.912 174.36 209.697 173.66 209.267 173.15C208.837 172.64 208.242 172.385 207.482 172.385ZM213.672 179V171.5H214.647L214.812 172.73C215.232 171.81 216.032 171.35 217.212 171.35C217.342 171.35 217.482 171.36 217.632 171.38C217.792 171.4 217.927 171.44 218.037 171.5L217.827 172.595C217.717 172.555 217.597 172.525 217.467 172.505C217.337 172.485 217.152 172.475 216.912 172.475C216.602 172.475 216.287 172.565 215.967 172.745C215.657 172.925 215.397 173.2 215.187 173.57C214.977 173.93 214.872 174.39 214.872 174.95V179H213.672ZM229.362 171.5V172.535H226.632V176.93C226.632 177.3 226.737 177.575 226.947 177.755C227.157 177.935 227.427 178.025 227.757 178.025C228.047 178.025 228.297 177.975 228.507 177.875C228.717 177.775 228.907 177.64 229.077 177.47L229.497 178.475C229.267 178.685 228.992 178.85 228.672 178.97C228.362 179.09 228.002 179.15 227.592 179.15C227.212 179.15 226.857 179.085 226.527 178.955C226.197 178.815 225.932 178.6 225.732 178.31C225.542 178.01 225.442 177.62 225.432 177.14V172.535H223.932V171.5H225.432V169.7L226.632 169.37V171.5H229.362ZM231.447 179V168.05H232.647V172.625C232.907 172.175 233.252 171.85 233.682 171.65C234.112 171.45 234.582 171.35 235.092 171.35C235.632 171.35 236.122 171.455 236.562 171.665C237.002 171.865 237.352 172.175 237.612 172.595C237.882 173.015 238.017 173.55 238.017 174.2V179H236.817V174.62C236.817 173.79 236.637 173.215 236.277 172.895C235.927 172.565 235.492 172.4 234.972 172.4C234.612 172.4 234.252 172.485 233.892 172.655C233.532 172.825 233.232 173.105 232.992 173.495C232.762 173.875 232.647 174.385 232.647 175.025V179H231.447ZM244.169 179.15C243.459 179.15 242.824 178.995 242.264 178.685C241.714 178.375 241.284 177.93 240.974 177.35C240.664 176.76 240.509 176.06 240.509 175.25C240.509 174.44 240.664 173.745 240.974 173.165C241.284 172.575 241.709 172.125 242.249 171.815C242.789 171.505 243.404 171.35 244.094 171.35C244.794 171.35 245.389 171.5 245.879 171.8C246.379 172.1 246.759 172.51 247.019 173.03C247.279 173.54 247.409 174.115 247.409 174.755C247.409 174.925 247.404 175.08 247.394 175.22C247.384 175.36 247.369 175.485 247.349 175.595H241.694C241.754 176.385 241.999 177 242.429 177.44C242.859 177.88 243.429 178.1 244.139 178.1C244.689 178.1 245.134 177.995 245.474 177.785C245.824 177.575 246.104 177.29 246.314 176.93L247.259 177.485C246.979 177.995 246.574 178.4 246.044 178.7C245.524 179 244.899 179.15 244.169 179.15ZM244.064 172.4C243.434 172.4 242.914 172.59 242.504 172.97C242.104 173.34 241.849 173.86 241.739 174.53H246.209C246.179 173.85 245.969 173.325 245.579 172.955C245.189 172.585 244.684 172.4 244.064 172.4ZM258.103 179.15C257.373 179.15 256.698 178.995 256.078 178.685C255.468 178.375 254.998 177.935 254.668 177.365L255.688 176.63C255.908 177.09 256.228 177.45 256.648 177.71C257.078 177.97 257.593 178.1 258.193 178.1C258.723 178.1 259.138 178 259.438 177.8C259.738 177.59 259.888 177.32 259.888 176.99C259.888 176.78 259.818 176.59 259.678 176.42C259.548 176.24 259.293 176.11 258.913 176.03L257.113 175.655C256.383 175.505 255.858 175.255 255.538 174.905C255.228 174.555 255.073 174.12 255.073 173.6C255.073 173.19 255.188 172.815 255.418 172.475C255.658 172.135 255.993 171.865 256.423 171.665C256.863 171.455 257.378 171.35 257.968 171.35C258.708 171.35 259.333 171.495 259.843 171.785C260.353 172.075 260.733 172.485 260.983 173.015L259.978 173.675C259.808 173.235 259.533 172.915 259.153 172.715C258.773 172.505 258.378 172.4 257.968 172.4C257.428 172.4 257.008 172.51 256.708 172.73C256.408 172.95 256.258 173.225 256.258 173.555C256.258 173.775 256.333 173.98 256.483 174.17C256.633 174.35 256.913 174.48 257.323 174.56L259.198 174.95C259.898 175.09 260.388 175.32 260.668 175.64C260.948 175.96 261.088 176.35 261.088 176.81C261.088 177.52 260.813 178.09 260.263 178.52C259.713 178.94 258.993 179.15 258.103 179.15ZM267.993 174.155C267.993 173.595 267.843 173.165 267.543 172.865C267.243 172.555 266.818 172.4 266.268 172.4C265.748 172.4 265.308 172.515 264.948 172.745C264.588 172.965 264.323 173.325 264.153 173.825L263.178 173.225C263.378 172.665 263.748 172.215 264.288 171.875C264.828 171.525 265.498 171.35 266.298 171.35C266.838 171.35 267.328 171.445 267.768 171.635C268.208 171.815 268.553 172.095 268.803 172.475C269.063 172.845 269.193 173.325 269.193 173.915V177.545C269.193 177.905 269.383 178.085 269.763 178.085C269.953 178.085 270.138 178.06 270.318 178.01L270.258 178.955C270.058 179.055 269.798 179.105 269.478 179.105C269.108 179.105 268.788 179.015 268.518 178.835C268.258 178.655 268.088 178.38 268.008 178.01C267.748 178.4 267.393 178.69 266.943 178.88C266.493 179.06 266.048 179.15 265.608 179.15C265.168 179.15 264.758 179.075 264.378 178.925C263.998 178.775 263.693 178.55 263.463 178.25C263.243 177.94 263.133 177.56 263.133 177.11C263.133 176.55 263.318 176.09 263.688 175.73C264.068 175.36 264.593 175.11 265.263 174.98L267.993 174.44V174.155ZM264.363 177.05C264.363 177.36 264.483 177.615 264.723 177.815C264.973 178.005 265.323 178.1 265.773 178.1C266.163 178.1 266.523 178.035 266.853 177.905C267.193 177.765 267.468 177.56 267.678 177.29C267.888 177.01 267.993 176.655 267.993 176.225V175.43L265.818 175.88C265.328 175.98 264.963 176.12 264.723 176.3C264.483 176.48 264.363 176.73 264.363 177.05ZM272.409 179V171.5H273.459L273.534 172.67C273.804 172.21 274.154 171.875 274.584 171.665C275.024 171.455 275.474 171.35 275.934 171.35C276.464 171.35 276.964 171.47 277.434 171.71C277.904 171.95 278.264 172.32 278.514 172.82C278.674 172.48 278.899 172.205 279.189 171.995C279.479 171.775 279.794 171.615 280.134 171.515C280.484 171.405 280.814 171.35 281.124 171.35C281.604 171.35 282.059 171.45 282.489 171.65C282.929 171.85 283.289 172.16 283.569 172.58C283.849 173 283.989 173.54 283.989 174.2V179H282.789V174.32C282.789 173.64 282.619 173.15 282.279 172.85C281.939 172.55 281.519 172.4 281.019 172.4C280.629 172.4 280.264 172.495 279.924 172.685C279.584 172.875 279.309 173.155 279.099 173.525C278.899 173.895 278.799 174.35 278.799 174.89V179H277.599V174.32C277.599 173.64 277.429 173.15 277.089 172.85C276.749 172.55 276.329 172.4 275.829 172.4C275.499 172.4 275.159 172.49 274.809 172.67C274.469 172.84 274.184 173.115 273.954 173.495C273.724 173.875 273.609 174.375 273.609 174.995V179H272.409ZM290.141 179.15C289.431 179.15 288.796 178.995 288.236 178.685C287.686 178.375 287.256 177.93 286.946 177.35C286.636 176.76 286.481 176.06 286.481 175.25C286.481 174.44 286.636 173.745 286.946 173.165C287.256 172.575 287.681 172.125 288.221 171.815C288.761 171.505 289.376 171.35 290.066 171.35C290.766 171.35 291.361 171.5 291.851 171.8C292.351 172.1 292.731 172.51 292.991 173.03C293.251 173.54 293.381 174.115 293.381 174.755C293.381 174.925 293.376 175.08 293.366 175.22C293.356 175.36 293.341 175.485 293.321 175.595H287.666C287.726 176.385 287.971 177 288.401 177.44C288.831 177.88 289.401 178.1 290.111 178.1C290.661 178.1 291.106 177.995 291.446 177.785C291.796 177.575 292.076 177.29 292.286 176.93L293.231 177.485C292.951 177.995 292.546 178.4 292.016 178.7C291.496 179 290.871 179.15 290.141 179.15ZM290.036 172.4C289.406 172.4 288.886 172.59 288.476 172.97C288.076 173.34 287.821 173.86 287.711 174.53H292.181C292.151 173.85 291.941 173.325 291.551 172.955C291.161 172.585 290.656 172.4 290.036 172.4ZM304.301 179.15C303.681 179.15 303.111 178.995 302.591 178.685C302.071 178.375 301.656 177.93 301.346 177.35C301.036 176.76 300.881 176.06 300.881 175.25C300.881 174.42 301.046 173.715 301.376 173.135C301.706 172.555 302.141 172.115 302.681 171.815C303.221 171.505 303.801 171.35 304.421 171.35C304.961 171.35 305.441 171.475 305.861 171.725C306.281 171.965 306.591 172.295 306.791 172.715V168.05H307.991V179H306.941L306.866 177.59C306.656 178.1 306.316 178.49 305.846 178.76C305.376 179.02 304.861 179.15 304.301 179.15ZM304.421 178.1C305.131 178.1 305.701 177.835 306.131 177.305C306.571 176.775 306.791 176.055 306.791 175.145C306.791 174.285 306.576 173.615 306.146 173.135C305.716 172.645 305.161 172.4 304.481 172.4C303.721 172.4 303.131 172.66 302.711 173.18C302.291 173.7 302.081 174.39 302.081 175.25C302.081 176.11 302.286 176.8 302.696 177.32C303.106 177.84 303.681 178.1 304.421 178.1ZM311.68 170.06C311.41 170.06 311.19 169.98 311.02 169.82C310.86 169.65 310.78 169.43 310.78 169.16C310.78 168.89 310.86 168.675 311.02 168.515C311.19 168.345 311.41 168.26 311.68 168.26C311.95 168.26 312.165 168.345 312.325 168.515C312.495 168.675 312.58 168.89 312.58 169.16C312.58 169.43 312.495 169.65 312.325 169.82C312.165 169.98 311.95 170.06 311.68 170.06ZM312.28 171.5V179H311.08V171.5H312.28ZM318.065 179.15C317.335 179.15 316.66 178.995 316.04 178.685C315.43 178.375 314.96 177.935 314.63 177.365L315.65 176.63C315.87 177.09 316.19 177.45 316.61 177.71C317.04 177.97 317.555 178.1 318.155 178.1C318.685 178.1 319.1 178 319.4 177.8C319.7 177.59 319.85 177.32 319.85 176.99C319.85 176.78 319.78 176.59 319.64 176.42C319.51 176.24 319.255 176.11 318.875 176.03L317.075 175.655C316.345 175.505 315.82 175.255 315.5 174.905C315.19 174.555 315.035 174.12 315.035 173.6C315.035 173.19 315.15 172.815 315.38 172.475C315.62 172.135 315.955 171.865 316.385 171.665C316.825 171.455 317.34 171.35 317.93 171.35C318.67 171.35 319.295 171.495 319.805 171.785C320.315 172.075 320.695 172.485 320.945 173.015L319.94 173.675C319.77 173.235 319.495 172.915 319.115 172.715C318.735 172.505 318.34 172.4 317.93 172.4C317.39 172.4 316.97 172.51 316.67 172.73C316.37 172.95 316.22 173.225 316.22 173.555C316.22 173.775 316.295 173.98 316.445 174.17C316.595 174.35 316.875 174.48 317.285 174.56L319.16 174.95C319.86 175.09 320.35 175.32 320.63 175.64C320.91 175.96 321.05 176.35 321.05 176.81C321.05 177.52 320.775 178.09 320.225 178.52C319.675 178.94 318.955 179.15 318.065 179.15ZM323.575 179V168.05H324.775V172.625C325.035 172.175 325.38 171.85 325.81 171.65C326.24 171.45 326.71 171.35 327.22 171.35C327.76 171.35 328.25 171.455 328.69 171.665C329.13 171.865 329.48 172.175 329.74 172.595C330.01 173.015 330.145 173.55 330.145 174.2V179H328.945V174.62C328.945 173.79 328.765 173.215 328.405 172.895C328.055 172.565 327.62 172.4 327.1 172.4C326.74 172.4 326.38 172.485 326.02 172.655C325.66 172.825 325.36 173.105 325.12 173.495C324.89 173.875 324.775 174.385 324.775 175.025V179H323.575Z" fill="black"/>
<path d="M30.608 217.4C30.608 216.888 30.7893 216.451 31.152 216.088C31.5253 215.715 31.968 215.528 32.48 215.528C32.992 215.528 33.4293 215.715 33.792 216.088C34.1653 216.451 34.352 216.888 34.352 217.4C34.352 217.731 34.2667 218.04 34.096 218.328C33.9253 218.616 33.696 218.845 33.408 219.016C33.12 219.187 32.8107 219.272 32.48 219.272C32.1493 219.272 31.84 219.187 31.552 219.016C31.264 218.845 31.0347 218.616 30.864 218.328C30.6933 218.04 30.608 217.731 30.608 217.4Z" fill="black"/>
<path d="M54.815 213.1C56.365 213.1 57.58 213.53 58.46 214.39C59.35 215.24 59.795 216.46 59.795 218.05C59.795 219.64 59.35 220.865 58.46 221.725C57.58 222.575 56.365 223 54.815 223H51.62V213.1H54.815ZM54.935 221.875C56.065 221.875 56.945 221.54 57.575 220.87C58.215 220.19 58.535 219.25 58.535 218.05C58.535 216.85 58.215 215.915 57.575 215.245C56.945 214.565 56.065 214.225 54.935 214.225H52.82V221.875H54.935ZM63.0323 214.06C62.7623 214.06 62.5423 213.98 62.3723 213.82C62.2123 213.65 62.1323 213.43 62.1323 213.16C62.1323 212.89 62.2123 212.675 62.3723 212.515C62.5423 212.345 62.7623 212.26 63.0323 212.26C63.3023 212.26 63.5173 212.345 63.6773 212.515C63.8473 212.675 63.9323 212.89 63.9323 213.16C63.9323 213.43 63.8473 213.65 63.6773 213.82C63.5173 213.98 63.3023 214.06 63.0323 214.06ZM63.6323 215.5V223H62.4323V215.5H63.6323ZM71.0067 215.5V216.535H68.5017V223H67.3017V216.535H65.8017V215.5H67.3017V214.24C67.3017 213.57 67.5067 213.025 67.9167 212.605C68.3267 212.185 68.9417 211.975 69.7617 211.975C70.0217 211.975 70.2667 212.005 70.4967 212.065C70.7267 212.125 70.9067 212.21 71.0367 212.32L70.7217 213.295C70.4817 213.145 70.1967 213.07 69.8667 213.07C69.4367 213.07 69.1017 213.175 68.8617 213.385C68.6217 213.585 68.5017 213.91 68.5017 214.36V215.5H71.0067ZM76.9017 215.5V216.535H74.3967V223H73.1967V216.535H71.6967V215.5H73.1967V214.24C73.1967 213.57 73.4017 213.025 73.8117 212.605C74.2217 212.185 74.8367 211.975 75.6567 211.975C75.9167 211.975 76.1617 212.005 76.3917 212.065C76.6217 212.125 76.8017 212.21 76.9317 212.32L76.6167 213.295C76.3767 213.145 76.0917 213.07 75.7617 213.07C75.3317 213.07 74.9967 213.175 74.7567 213.385C74.5167 213.585 74.3967 213.91 74.3967 214.36V215.5H76.9017ZM79.1067 214.06C78.8367 214.06 78.6167 213.98 78.4467 213.82C78.2867 213.65 78.2067 213.43 78.2067 213.16C78.2067 212.89 78.2867 212.675 78.4467 212.515C78.6167 212.345 78.8367 212.26 79.1067 212.26C79.3767 212.26 79.5917 212.345 79.7517 212.515C79.9217 212.675 80.0067 212.89 80.0067 213.16C80.0067 213.43 79.9217 213.65 79.7517 213.82C79.5917 213.98 79.3767 214.06 79.1067 214.06ZM79.7067 215.5V223H78.5067V215.5H79.7067ZM85.898 215.35C86.668 215.35 87.308 215.53 87.818 215.89C88.328 216.24 88.723 216.725 89.003 217.345L87.863 217.885C87.703 217.405 87.458 217.04 87.128 216.79C86.808 216.53 86.388 216.4 85.868 216.4C85.118 216.4 84.528 216.655 84.098 217.165C83.678 217.665 83.468 218.36 83.468 219.25C83.468 220.14 83.678 220.84 84.098 221.35C84.528 221.85 85.118 222.1 85.868 222.1C86.458 222.1 86.928 221.965 87.278 221.695C87.628 221.425 87.858 221.045 87.968 220.555L89.078 220.945C88.828 221.635 88.433 222.175 87.893 222.565C87.363 222.955 86.698 223.15 85.898 223.15C85.198 223.15 84.573 222.995 84.023 222.685C83.473 222.375 83.043 221.93 82.733 221.35C82.423 220.76 82.268 220.06 82.268 219.25C82.268 218.44 82.423 217.745 82.733 217.165C83.043 216.575 83.473 216.125 84.023 215.815C84.573 215.505 85.198 215.35 85.898 215.35ZM94.2016 223.15C93.7216 223.15 93.2666 223.06 92.8366 222.88C92.4166 222.7 92.0716 222.41 91.8016 222.01C91.5416 221.6 91.4116 221.07 91.4116 220.42V215.5H92.6116V220.105C92.6116 220.865 92.7766 221.39 93.1066 221.68C93.4366 221.96 93.9016 222.1 94.5016 222.1C94.8816 222.1 95.2416 222.015 95.5816 221.845C95.9216 221.665 96.2016 221.39 96.4216 221.02C96.6416 220.65 96.7516 220.17 96.7516 219.58V215.5H97.9516V223H96.9016L96.8266 221.86C96.5666 222.31 96.2116 222.64 95.7616 222.85C95.3216 223.05 94.8016 223.15 94.2016 223.15ZM102.184 212.05V221.095C102.184 221.475 102.254 221.74 102.394 221.89C102.534 222.03 102.759 222.1 103.069 222.1C103.269 222.1 103.434 222.085 103.564 222.055C103.694 222.025 103.869 221.97 104.089 221.89L103.894 222.94C103.564 223.08 103.194 223.15 102.784 223.15C101.584 223.15 100.984 222.48 100.984 221.14V212.05H102.184ZM110.136 215.5V216.535H107.406V220.93C107.406 221.3 107.511 221.575 107.721 221.755C107.931 221.935 108.201 222.025 108.531 222.025C108.821 222.025 109.071 221.975 109.281 221.875C109.491 221.775 109.681 221.64 109.851 221.47L110.271 222.475C110.041 222.685 109.766 222.85 109.446 222.97C109.136 223.09 108.776 223.15 108.366 223.15C107.986 223.15 107.631 223.085 107.301 222.955C106.971 222.815 106.706 222.6 106.506 222.31C106.316 222.01 106.216 221.62 106.206 221.14V216.535H104.706V215.5H106.206V213.7L107.406 213.37V215.5H110.136ZM121.84 215.5V216.535H119.11V220.93C119.11 221.3 119.215 221.575 119.425 221.755C119.635 221.935 119.905 222.025 120.235 222.025C120.525 222.025 120.775 221.975 120.985 221.875C121.195 221.775 121.385 221.64 121.555 221.47L121.975 222.475C121.745 222.685 121.47 222.85 121.15 222.97C120.84 223.09 120.48 223.15 120.07 223.15C119.69 223.15 119.335 223.085 119.005 222.955C118.675 222.815 118.41 222.6 118.21 222.31C118.02 222.01 117.92 221.62 117.91 221.14V216.535H116.41V215.5H117.91V213.7L119.11 213.37V215.5H121.84ZM127.029 215.35C127.739 215.35 128.364 215.505 128.904 215.815C129.454 216.125 129.884 216.575 130.194 217.165C130.504 217.745 130.659 218.44 130.659 219.25C130.659 220.06 130.504 220.76 130.194 221.35C129.884 221.93 129.454 222.375 128.904 222.685C128.364 222.995 127.739 223.15 127.029 223.15C126.329 223.15 125.704 222.995 125.154 222.685C124.604 222.375 124.174 221.93 123.864 221.35C123.554 220.76 123.399 220.06 123.399 219.25C123.399 218.44 123.554 217.745 123.864 217.165C124.174 216.575 124.604 216.125 125.154 215.815C125.704 215.505 126.329 215.35 127.029 215.35ZM127.029 216.385C126.269 216.385 125.674 216.64 125.244 217.15C124.814 217.66 124.599 218.36 124.599 219.25C124.599 220.14 124.814 220.84 125.244 221.35C125.674 221.86 126.269 222.115 127.029 222.115C127.789 222.115 128.384 221.86 128.814 221.35C129.244 220.84 129.459 220.14 129.459 219.25C129.459 218.36 129.244 217.66 128.814 217.15C128.384 216.64 127.789 216.385 127.029 216.385ZM138.631 226.15V215.5H139.681L139.756 216.82C139.986 216.38 140.326 216.025 140.776 215.755C141.236 215.485 141.761 215.35 142.351 215.35C142.961 215.35 143.521 215.505 144.031 215.815C144.551 216.125 144.966 216.57 145.276 217.15C145.586 217.73 145.741 218.43 145.741 219.25C145.741 220.06 145.581 220.76 145.261 221.35C144.951 221.93 144.536 222.375 144.016 222.685C143.496 222.995 142.926 223.15 142.306 223.15C141.746 223.15 141.251 223.03 140.821 222.79C140.391 222.54 140.061 222.22 139.831 221.83V226.15H138.631ZM142.186 222.1C142.926 222.1 143.501 221.84 143.911 221.32C144.331 220.8 144.541 220.11 144.541 219.25C144.541 218.39 144.336 217.7 143.926 217.18C143.526 216.66 142.961 216.4 142.231 216.4C141.511 216.4 140.931 216.66 140.491 217.18C140.051 217.7 139.831 218.39 139.831 219.25C139.831 220.11 140.046 220.8 140.476 221.32C140.906 221.84 141.476 222.1 142.186 222.1ZM148.335 223V215.5H149.31L149.475 216.73C149.895 215.81 150.695 215.35 151.875 215.35C152.005 215.35 152.145 215.36 152.295 215.38C152.455 215.4 152.59 215.44 152.7 215.5L152.49 216.595C152.38 216.555 152.26 216.525 152.13 216.505C152 216.485 151.815 216.475 151.575 216.475C151.265 216.475 150.95 216.565 150.63 216.745C150.32 216.925 150.06 217.2 149.85 217.57C149.64 217.93 149.535 218.39 149.535 218.95V223H148.335ZM157.629 215.35C158.339 215.35 158.964 215.505 159.504 215.815C160.054 216.125 160.484 216.575 160.794 217.165C161.104 217.745 161.259 218.44 161.259 219.25C161.259 220.06 161.104 220.76 160.794 221.35C160.484 221.93 160.054 222.375 159.504 222.685C158.964 222.995 158.339 223.15 157.629 223.15C156.929 223.15 156.304 222.995 155.754 222.685C155.204 222.375 154.774 221.93 154.464 221.35C154.154 220.76 153.999 220.06 153.999 219.25C153.999 218.44 154.154 217.745 154.464 217.165C154.774 216.575 155.204 216.125 155.754 215.815C156.304 215.505 156.929 215.35 157.629 215.35ZM157.629 216.385C156.869 216.385 156.274 216.64 155.844 217.15C155.414 217.66 155.199 218.36 155.199 219.25C155.199 220.14 155.414 220.84 155.844 221.35C156.274 221.86 156.869 222.115 157.629 222.115C158.389 222.115 158.984 221.86 159.414 221.35C159.844 220.84 160.059 220.14 160.059 219.25C160.059 218.36 159.844 217.66 159.414 217.15C158.984 216.64 158.389 216.385 157.629 216.385ZM166.923 215.35C167.693 215.35 168.333 215.53 168.843 215.89C169.353 216.24 169.748 216.725 170.028 217.345L168.888 217.885C168.728 217.405 168.483 217.04 168.153 216.79C167.833 216.53 167.413 216.4 166.893 216.4C166.143 216.4 165.553 216.655 165.123 217.165C164.703 217.665 164.493 218.36 164.493 219.25C164.493 220.14 164.703 220.84 165.123 221.35C165.553 221.85 166.143 222.1 166.893 222.1C167.483 222.1 167.953 221.965 168.303 221.695C168.653 221.425 168.883 221.045 168.993 220.555L170.103 220.945C169.853 221.635 169.458 222.175 168.918 222.565C168.388 222.955 167.723 223.15 166.923 223.15C166.223 223.15 165.598 222.995 165.048 222.685C164.498 222.375 164.068 221.93 163.758 221.35C163.448 220.76 163.293 220.06 163.293 219.25C163.293 218.44 163.448 217.745 163.758 217.165C164.068 216.575 164.498 216.125 165.048 215.815C165.598 215.505 166.223 215.35 166.923 215.35ZM175.226 223.15C174.746 223.15 174.291 223.06 173.861 222.88C173.441 222.7 173.096 222.41 172.826 222.01C172.566 221.6 172.436 221.07 172.436 220.42V215.5H173.636V220.105C173.636 220.865 173.801 221.39 174.131 221.68C174.461 221.96 174.926 222.1 175.526 222.1C175.906 222.1 176.266 222.015 176.606 221.845C176.946 221.665 177.226 221.39 177.446 221.02C177.666 220.65 177.776 220.17 177.776 219.58V215.5H178.976V223H177.926L177.851 221.86C177.591 222.31 177.236 222.64 176.786 222.85C176.346 223.05 175.826 223.15 175.226 223.15ZM182.069 223V215.5H183.044L183.209 216.73C183.629 215.81 184.429 215.35 185.609 215.35C185.739 215.35 185.879 215.36 186.029 215.38C186.189 215.4 186.324 215.44 186.434 215.5L186.224 216.595C186.114 216.555 185.994 216.525 185.864 216.505C185.734 216.485 185.549 216.475 185.309 216.475C184.999 216.475 184.684 216.565 184.364 216.745C184.054 216.925 183.794 217.2 183.584 217.57C183.374 217.93 183.269 218.39 183.269 218.95V223H182.069ZM191.393 223.15C190.683 223.15 190.048 222.995 189.488 222.685C188.938 222.375 188.508 221.93 188.198 221.35C187.888 220.76 187.733 220.06 187.733 219.25C187.733 218.44 187.888 217.745 188.198 217.165C188.508 216.575 188.933 216.125 189.473 215.815C190.013 215.505 190.628 215.35 191.318 215.35C192.018 215.35 192.613 215.5 193.103 215.8C193.603 216.1 193.983 216.51 194.243 217.03C194.503 217.54 194.633 218.115 194.633 218.755C194.633 218.925 194.628 219.08 194.618 219.22C194.608 219.36 194.593 219.485 194.573 219.595H188.918C188.978 220.385 189.223 221 189.653 221.44C190.083 221.88 190.653 222.1 191.363 222.1C191.913 222.1 192.358 221.995 192.698 221.785C193.048 221.575 193.328 221.29 193.538 220.93L194.483 221.485C194.203 221.995 193.798 222.4 193.268 222.7C192.748 223 192.123 223.15 191.393 223.15ZM191.288 216.4C190.658 216.4 190.138 216.59 189.728 216.97C189.328 217.34 189.073 217.86 188.963 218.53H193.433C193.403 217.85 193.193 217.325 192.803 216.955C192.413 216.585 191.908 216.4 191.288 216.4ZM203.227 214.06C202.957 214.06 202.737 213.98 202.567 213.82C202.407 213.65 202.327 213.43 202.327 213.16C202.327 212.89 202.407 212.675 202.567 212.515C202.737 212.345 202.957 212.26 203.227 212.26C203.497 212.26 203.712 212.345 203.872 212.515C204.042 212.675 204.127 212.89 204.127 213.16C204.127 213.43 204.042 213.65 203.872 213.82C203.712 213.98 203.497 214.06 203.227 214.06ZM203.827 215.5V223H202.627V215.5H203.827ZM206.912 223V215.5H207.962L208.037 216.67C208.297 216.2 208.652 215.865 209.102 215.665C209.552 215.455 210.037 215.35 210.557 215.35C211.097 215.35 211.587 215.455 212.027 215.665C212.467 215.865 212.817 216.175 213.077 216.595C213.347 217.015 213.482 217.55 213.482 218.2V223H212.282V218.62C212.282 217.79 212.102 217.215 211.742 216.895C211.392 216.565 210.957 216.4 210.437 216.4C210.077 216.4 209.717 216.485 209.357 216.655C208.997 216.825 208.697 217.1 208.457 217.48C208.227 217.86 208.112 218.37 208.112 219.01V223H206.912ZM220.534 222.04C221.244 222.04 221.799 222.205 222.199 222.535C222.599 222.855 222.799 223.285 222.799 223.825C222.799 224.315 222.634 224.74 222.304 225.1C221.984 225.46 221.549 225.735 220.999 225.925C220.459 226.125 219.849 226.225 219.169 226.225C217.989 226.225 217.104 226.025 216.514 225.625C215.934 225.225 215.644 224.745 215.644 224.185C215.644 223.845 215.739 223.535 215.929 223.255C216.119 222.975 216.434 222.775 216.874 222.655C216.634 222.545 216.439 222.395 216.289 222.205C216.139 222.005 216.064 221.74 216.064 221.41C216.064 221.1 216.154 220.82 216.334 220.57C216.514 220.31 216.784 220.11 217.144 219.97C216.764 219.75 216.474 219.46 216.274 219.1C216.074 218.74 215.974 218.335 215.974 217.885C215.974 217.385 216.104 216.945 216.364 216.565C216.634 216.185 216.999 215.89 217.459 215.68C217.919 215.46 218.449 215.35 219.049 215.35C219.679 215.35 220.244 215.475 220.744 215.725C220.814 215.225 221.034 214.835 221.404 214.555C221.784 214.265 222.229 214.12 222.739 214.12H222.814L223.084 215.185H222.979C222.519 215.185 222.159 215.27 221.899 215.44C221.639 215.61 221.494 215.875 221.464 216.235C221.904 216.695 222.124 217.245 222.124 217.885C222.124 218.375 221.994 218.815 221.734 219.205C221.474 219.585 221.109 219.885 220.639 220.105C220.179 220.315 219.649 220.42 219.049 220.42C218.679 220.42 218.334 220.385 218.014 220.315C217.714 220.405 217.499 220.53 217.369 220.69C217.239 220.85 217.174 221.025 217.174 221.215C217.174 221.765 217.564 222.04 218.344 222.04H220.534ZM219.049 216.325C218.529 216.325 218.094 216.47 217.744 216.76C217.394 217.04 217.219 217.415 217.219 217.885C217.219 218.345 217.394 218.72 217.744 219.01C218.094 219.3 218.529 219.445 219.049 219.445C219.569 219.445 220.004 219.3 220.354 219.01C220.704 218.72 220.879 218.345 220.879 217.885C220.879 217.415 220.704 217.04 220.354 216.76C220.004 216.47 219.569 216.325 219.049 216.325ZM219.154 225.22C220.024 225.22 220.664 225.09 221.074 224.83C221.484 224.58 221.689 224.29 221.689 223.96C221.689 223.69 221.579 223.475 221.359 223.315C221.149 223.155 220.764 223.075 220.204 223.075H217.894C217.574 223.075 217.304 223.155 217.084 223.315C216.864 223.485 216.754 223.715 216.754 224.005C216.754 224.375 216.964 224.67 217.384 224.89C217.814 225.11 218.404 225.22 219.154 225.22ZM224.782 223V215.5H225.757L225.922 216.73C226.342 215.81 227.142 215.35 228.322 215.35C228.452 215.35 228.592 215.36 228.742 215.38C228.902 215.4 229.037 215.44 229.147 215.5L228.937 216.595C228.827 216.555 228.707 216.525 228.577 216.505C228.447 216.485 228.262 216.475 228.022 216.475C227.712 216.475 227.397 216.565 227.077 216.745C226.767 216.925 226.507 217.2 226.297 217.57C226.087 217.93 225.982 218.39 225.982 218.95V223H224.782ZM234.106 223.15C233.396 223.15 232.761 222.995 232.201 222.685C231.651 222.375 231.221 221.93 230.911 221.35C230.601 220.76 230.446 220.06 230.446 219.25C230.446 218.44 230.601 217.745 230.911 217.165C231.221 216.575 231.646 216.125 232.186 215.815C232.726 215.505 233.341 215.35 234.031 215.35C234.731 215.35 235.326 215.5 235.816 215.8C236.316 216.1 236.696 216.51 236.956 217.03C237.216 217.54 237.346 218.115 237.346 218.755C237.346 218.925 237.341 219.08 237.331 219.22C237.321 219.36 237.306 219.485 237.286 219.595H231.631C231.691 220.385 231.936 221 232.366 221.44C232.796 221.88 233.366 222.1 234.076 222.1C234.626 222.1 235.071 221.995 235.411 221.785C235.761 221.575 236.041 221.29 236.251 220.93L237.196 221.485C236.916 221.995 236.511 222.4 235.981 222.7C235.461 223 234.836 223.15 234.106 223.15ZM234.001 216.4C233.371 216.4 232.851 216.59 232.441 216.97C232.041 217.34 231.786 217.86 231.676 218.53H236.146C236.116 217.85 235.906 217.325 235.516 216.955C235.126 216.585 234.621 216.4 234.001 216.4ZM242.853 223.15C242.233 223.15 241.663 222.995 241.143 222.685C240.623 222.375 240.208 221.93 239.898 221.35C239.588 220.76 239.433 220.06 239.433 219.25C239.433 218.42 239.598 217.715 239.928 217.135C240.258 216.555 240.693 216.115 241.233 215.815C241.773 215.505 242.353 215.35 242.973 215.35C243.513 215.35 243.993 215.475 244.413 215.725C244.833 215.965 245.143 216.295 245.343 216.715V212.05H246.543V223H245.493L245.418 221.59C245.208 222.1 244.868 222.49 244.398 222.76C243.928 223.02 243.413 223.15 242.853 223.15ZM242.973 222.1C243.683 222.1 244.253 221.835 244.683 221.305C245.123 220.775 245.343 220.055 245.343 219.145C245.343 218.285 245.128 217.615 244.698 217.135C244.268 216.645 243.713 216.4 243.033 216.4C242.273 216.4 241.683 216.66 241.263 217.18C240.843 217.7 240.633 218.39 240.633 219.25C240.633 220.11 240.838 220.8 241.248 221.32C241.658 221.84 242.233 222.1 242.973 222.1ZM250.232 214.06C249.962 214.06 249.742 213.98 249.572 213.82C249.412 213.65 249.332 213.43 249.332 213.16C249.332 212.89 249.412 212.675 249.572 212.515C249.742 212.345 249.962 212.26 250.232 212.26C250.502 212.26 250.717 212.345 250.877 212.515C251.047 212.675 251.132 212.89 251.132 213.16C251.132 213.43 251.047 213.65 250.877 213.82C250.717 213.98 250.502 214.06 250.232 214.06ZM250.832 215.5V223H249.632V215.5H250.832ZM257.052 223.15C256.342 223.15 255.707 222.995 255.147 222.685C254.597 222.375 254.167 221.93 253.857 221.35C253.547 220.76 253.392 220.06 253.392 219.25C253.392 218.44 253.547 217.745 253.857 217.165C254.167 216.575 254.592 216.125 255.132 215.815C255.672 215.505 256.287 215.35 256.977 215.35C257.677 215.35 258.272 215.5 258.762 215.8C259.262 216.1 259.642 216.51 259.902 217.03C260.162 217.54 260.292 218.115 260.292 218.755C260.292 218.925 260.287 219.08 260.277 219.22C260.267 219.36 260.252 219.485 260.232 219.595H254.577C254.637 220.385 254.882 221 255.312 221.44C255.742 221.88 256.312 222.1 257.022 222.1C257.572 222.1 258.017 221.995 258.357 221.785C258.707 221.575 258.987 221.29 259.197 220.93L260.142 221.485C259.862 221.995 259.457 222.4 258.927 222.7C258.407 223 257.782 223.15 257.052 223.15ZM256.947 216.4C256.317 216.4 255.797 216.59 255.387 216.97C254.987 217.34 254.732 217.86 254.622 218.53H259.092C259.062 217.85 258.852 217.325 258.462 216.955C258.072 216.585 257.567 216.4 256.947 216.4ZM262.874 223V215.5H263.924L263.999 216.67C264.259 216.2 264.614 215.865 265.064 215.665C265.514 215.455 265.999 215.35 266.519 215.35C267.059 215.35 267.549 215.455 267.989 215.665C268.429 215.865 268.779 216.175 269.039 216.595C269.309 217.015 269.444 217.55 269.444 218.2V223H268.244V218.62C268.244 217.79 268.064 217.215 267.704 216.895C267.354 216.565 266.919 216.4 266.399 216.4C266.039 216.4 265.679 216.485 265.319 216.655C264.959 216.825 264.659 217.1 264.419 217.48C264.189 217.86 264.074 218.37 264.074 219.01V223H262.874ZM276.858 215.5V216.535H274.128V220.93C274.128 221.3 274.233 221.575 274.443 221.755C274.653 221.935 274.923 222.025 275.253 222.025C275.543 222.025 275.793 221.975 276.003 221.875C276.213 221.775 276.403 221.64 276.573 221.47L276.993 222.475C276.763 222.685 276.488 222.85 276.168 222.97C275.858 223.09 275.498 223.15 275.088 223.15C274.708 223.15 274.353 223.085 274.023 222.955C273.693 222.815 273.428 222.6 273.228 222.31C273.038 222.01 272.938 221.62 272.928 221.14V216.535H271.428V215.5H272.928V213.7L274.128 213.37V215.5H276.858ZM281.643 223.15C280.913 223.15 280.238 222.995 279.618 222.685C279.008 222.375 278.538 221.935 278.208 221.365L279.228 220.63C279.448 221.09 279.768 221.45 280.188 221.71C280.618 221.97 281.133 222.1 281.733 222.1C282.263 222.1 282.678 222 282.978 221.8C283.278 221.59 283.428 221.32 283.428 220.99C283.428 220.78 283.358 220.59 283.218 220.42C283.088 220.24 282.833 220.11 282.453 220.03L280.653 219.655C279.923 219.505 279.398 219.255 279.078 218.905C278.768 218.555 278.613 218.12 278.613 217.6C278.613 217.19 278.728 216.815 278.958 216.475C279.198 216.135 279.533 215.865 279.963 215.665C280.403 215.455 280.918 215.35 281.508 215.35C282.248 215.35 282.873 215.495 283.383 215.785C283.893 216.075 284.273 216.485 284.523 217.015L283.518 217.675C283.348 217.235 283.073 216.915 282.693 216.715C282.313 216.505 281.918 216.4 281.508 216.4C280.968 216.4 280.548 216.51 280.248 216.73C279.948 216.95 279.798 217.225 279.798 217.555C279.798 217.775 279.873 217.98 280.023 218.17C280.173 218.35 280.453 218.48 280.863 218.56L282.738 218.95C283.438 219.09 283.928 219.32 284.208 219.64C284.488 219.96 284.628 220.35 284.628 220.81C284.628 221.52 284.353 222.09 283.803 222.52C283.253 222.94 282.533 223.15 281.643 223.15ZM54.095 247.15C53.365 247.15 52.69 246.995 52.07 246.685C51.46 246.375 50.99 245.935 50.66 245.365L51.68 244.63C51.9 245.09 52.22 245.45 52.64 245.71C53.07 245.97 53.585 246.1 54.185 246.1C54.715 246.1 55.13 246 55.43 245.8C55.73 245.59 55.88 245.32 55.88 244.99C55.88 244.78 55.81 244.59 55.67 244.42C55.54 244.24 55.285 244.11 54.905 244.03L53.105 243.655C52.375 243.505 51.85 243.255 51.53 242.905C51.22 242.555 51.065 242.12 51.065 241.6C51.065 241.19 51.18 240.815 51.41 240.475C51.65 240.135 51.985 239.865 52.415 239.665C52.855 239.455 53.37 239.35 53.96 239.35C54.7 239.35 55.325 239.495 55.835 239.785C56.345 240.075 56.725 240.485 56.975 241.015L55.97 241.675C55.8 241.235 55.525 240.915 55.145 240.715C54.765 240.505 54.37 240.4 53.96 240.4C53.42 240.4 53 240.51 52.7 240.73C52.4 240.95 52.25 241.225 52.25 241.555C52.25 241.775 52.325 241.98 52.475 242.17C52.625 242.35 52.905 242.48 53.315 242.56L55.19 242.95C55.89 243.09 56.38 243.32 56.66 243.64C56.94 243.96 57.08 244.35 57.08 244.81C57.08 245.52 56.805 246.09 56.255 246.52C55.705 246.94 54.985 247.15 54.095 247.15ZM62.7102 239.35C63.4202 239.35 64.0452 239.505 64.5852 239.815C65.1352 240.125 65.5652 240.575 65.8752 241.165C66.1852 241.745 66.3402 242.44 66.3402 243.25C66.3402 244.06 66.1852 244.76 65.8752 245.35C65.5652 245.93 65.1352 246.375 64.5852 246.685C64.0452 246.995 63.4202 247.15 62.7102 247.15C62.0102 247.15 61.3852 246.995 60.8352 246.685C60.2852 246.375 59.8552 245.93 59.5452 245.35C59.2352 244.76 59.0802 244.06 59.0802 243.25C59.0802 242.44 59.2352 241.745 59.5452 241.165C59.8552 240.575 60.2852 240.125 60.8352 239.815C61.3852 239.505 62.0102 239.35 62.7102 239.35ZM62.7102 240.385C61.9502 240.385 61.3552 240.64 60.9252 241.15C60.4952 241.66 60.2802 242.36 60.2802 243.25C60.2802 244.14 60.4952 244.84 60.9252 245.35C61.3552 245.86 61.9502 246.115 62.7102 246.115C63.4702 246.115 64.0652 245.86 64.4952 245.35C64.9252 244.84 65.1402 244.14 65.1402 243.25C65.1402 242.36 64.9252 241.66 64.4952 241.15C64.0652 240.64 63.4702 240.385 62.7102 240.385ZM68.8993 247V239.5H69.9493L70.0243 240.67C70.2943 240.21 70.6443 239.875 71.0743 239.665C71.5143 239.455 71.9643 239.35 72.4243 239.35C72.9543 239.35 73.4543 239.47 73.9243 239.71C74.3943 239.95 74.7543 240.32 75.0043 240.82C75.1643 240.48 75.3893 240.205 75.6793 239.995C75.9693 239.775 76.2843 239.615 76.6243 239.515C76.9743 239.405 77.3043 239.35 77.6143 239.35C78.0943 239.35 78.5493 239.45 78.9793 239.65C79.4193 239.85 79.7793 240.16 80.0593 240.58C80.3393 241 80.4793 241.54 80.4793 242.2V247H79.2793V242.32C79.2793 241.64 79.1093 241.15 78.7693 240.85C78.4293 240.55 78.0093 240.4 77.5093 240.4C77.1193 240.4 76.7543 240.495 76.4143 240.685C76.0743 240.875 75.7993 241.155 75.5893 241.525C75.3893 241.895 75.2893 242.35 75.2893 242.89V247H74.0893V242.32C74.0893 241.64 73.9193 241.15 73.5793 240.85C73.2393 240.55 72.8193 240.4 72.3193 240.4C71.9893 240.4 71.6493 240.49 71.2993 240.67C70.9593 240.84 70.6743 241.115 70.4443 241.495C70.2143 241.875 70.0993 242.375 70.0993 242.995V247H68.8993ZM86.6312 247.15C85.9212 247.15 85.2862 246.995 84.7262 246.685C84.1762 246.375 83.7462 245.93 83.4362 245.35C83.1262 244.76 82.9712 244.06 82.9712 243.25C82.9712 242.44 83.1262 241.745 83.4362 241.165C83.7462 240.575 84.1712 240.125 84.7112 239.815C85.2512 239.505 85.8662 239.35 86.5562 239.35C87.2562 239.35 87.8512 239.5 88.3412 239.8C88.8412 240.1 89.2212 240.51 89.4812 241.03C89.7412 241.54 89.8712 242.115 89.8712 242.755C89.8712 242.925 89.8662 243.08 89.8562 243.22C89.8462 243.36 89.8312 243.485 89.8112 243.595H84.1562C84.2162 244.385 84.4612 245 84.8912 245.44C85.3212 245.88 85.8912 246.1 86.6012 246.1C87.1512 246.1 87.5962 245.995 87.9362 245.785C88.2862 245.575 88.5662 245.29 88.7762 244.93L89.7212 245.485C89.4412 245.995 89.0362 246.4 88.5062 246.7C87.9862 247 87.3612 247.15 86.6312 247.15ZM86.5262 240.4C85.8962 240.4 85.3762 240.59 84.9662 240.97C84.5662 241.34 84.3112 241.86 84.2012 242.53H88.6712C88.6412 241.85 88.4312 241.325 88.0412 240.955C87.6512 240.585 87.1462 240.4 86.5262 240.4ZM96.7337 239.5V240.535H94.0037V244.93C94.0037 245.3 94.1087 245.575 94.3187 245.755C94.5287 245.935 94.7987 246.025 95.1287 246.025C95.4187 246.025 95.6687 245.975 95.8787 245.875C96.0887 245.775 96.2787 245.64 96.4487 245.47L96.8687 246.475C96.6387 246.685 96.3637 246.85 96.0437 246.97C95.7337 247.09 95.3737 247.15 94.9637 247.15C94.5837 247.15 94.2287 247.085 93.8987 246.955C93.5687 246.815 93.3037 246.6 93.1037 246.31C92.9137 246.01 92.8137 245.62 92.8037 245.14V240.535H91.3037V239.5H92.8037V237.7L94.0037 237.37V239.5H96.7337ZM99.4179 238.06C99.1479 238.06 98.9279 237.98 98.7579 237.82C98.5979 237.65 98.5179 237.43 98.5179 237.16C98.5179 236.89 98.5979 236.675 98.7579 236.515C98.9279 236.345 99.1479 236.26 99.4179 236.26C99.6879 236.26 99.9029 236.345 100.063 236.515C100.233 236.675 100.318 236.89 100.318 237.16C100.318 237.43 100.233 237.65 100.063 237.82C99.9029 237.98 99.6879 238.06 99.4179 238.06ZM100.018 239.5V247H98.8179V239.5H100.018ZM103.102 247V239.5H104.152L104.227 240.67C104.497 240.21 104.847 239.875 105.277 239.665C105.717 239.455 106.167 239.35 106.627 239.35C107.157 239.35 107.657 239.47 108.127 239.71C108.597 239.95 108.957 240.32 109.207 240.82C109.367 240.48 109.592 240.205 109.882 239.995C110.172 239.775 110.487 239.615 110.827 239.515C111.177 239.405 111.507 239.35 111.817 239.35C112.297 239.35 112.752 239.45 113.182 239.65C113.622 239.85 113.982 240.16 114.262 240.58C114.542 241 114.682 241.54 114.682 242.2V247H113.482V242.32C113.482 241.64 113.312 241.15 112.972 240.85C112.632 240.55 112.212 240.4 111.712 240.4C111.322 240.4 110.957 240.495 110.617 240.685C110.277 240.875 110.002 241.155 109.792 241.525C109.592 241.895 109.492 242.35 109.492 242.89V247H108.292V242.32C108.292 241.64 108.122 241.15 107.782 240.85C107.442 240.55 107.022 240.4 106.522 240.4C106.192 240.4 105.852 240.49 105.502 240.67C105.162 240.84 104.877 241.115 104.647 241.495C104.417 241.875 104.302 242.375 104.302 242.995V247H103.102ZM120.834 247.15C120.124 247.15 119.489 246.995 118.929 246.685C118.379 246.375 117.949 245.93 117.639 245.35C117.329 244.76 117.174 244.06 117.174 243.25C117.174 242.44 117.329 241.745 117.639 241.165C117.949 240.575 118.374 240.125 118.914 239.815C119.454 239.505 120.069 239.35 120.759 239.35C121.459 239.35 122.054 239.5 122.544 239.8C123.044 240.1 123.424 240.51 123.684 241.03C123.944 241.54 124.074 242.115 124.074 242.755C124.074 242.925 124.069 243.08 124.059 243.22C124.049 243.36 124.034 243.485 124.014 243.595H118.359C118.419 244.385 118.664 245 119.094 245.44C119.524 245.88 120.094 246.1 120.804 246.1C121.354 246.1 121.799 245.995 122.139 245.785C122.489 245.575 122.769 245.29 122.979 244.93L123.924 245.485C123.644 245.995 123.239 246.4 122.709 246.7C122.189 247 121.564 247.15 120.834 247.15ZM120.729 240.4C120.099 240.4 119.579 240.59 119.169 240.97C118.769 241.34 118.514 241.86 118.404 242.53H122.874C122.844 241.85 122.634 241.325 122.244 240.955C121.854 240.585 121.349 240.4 120.729 240.4ZM129.356 247.15C128.626 247.15 127.951 246.995 127.331 246.685C126.721 246.375 126.251 245.935 125.921 245.365L126.941 244.63C127.161 245.09 127.481 245.45 127.901 245.71C128.331 245.97 128.846 246.1 129.446 246.1C129.976 246.1 130.391 246 130.691 245.8C130.991 245.59 131.141 245.32 131.141 244.99C131.141 244.78 131.071 244.59 130.931 244.42C130.801 244.24 130.546 244.11 130.166 244.03L128.366 243.655C127.636 243.505 127.111 243.255 126.791 242.905C126.481 242.555 126.326 242.12 126.326 241.6C126.326 241.19 126.441 240.815 126.671 240.475C126.911 240.135 127.246 239.865 127.676 239.665C128.116 239.455 128.631 239.35 129.221 239.35C129.961 239.35 130.586 239.495 131.096 239.785C131.606 240.075 131.986 240.485 132.236 241.015L131.231 241.675C131.061 241.235 130.786 240.915 130.406 240.715C130.026 240.505 129.631 240.4 129.221 240.4C128.681 240.4 128.261 240.51 127.961 240.73C127.661 240.95 127.511 241.225 127.511 241.555C127.511 241.775 127.586 241.98 127.736 242.17C127.886 242.35 128.166 242.48 128.576 242.56L130.451 242.95C131.151 243.09 131.641 243.32 131.921 243.64C132.201 243.96 132.341 244.35 132.341 244.81C132.341 245.52 132.066 246.09 131.516 246.52C130.966 246.94 130.246 247.15 129.356 247.15Z" fill="black"/>
</svg>
