<svg width="276" height="276" viewBox="0 0 276 276" fill="none" xmlns="http://www.w3.org/2000/svg">
<g clip-path="url(#clip0)">
<path d="M169.069 104.923C168.386 104.418 167.848 103.96 167.45 103.548C167.056 103.137 166.648 102.517 166.229 101.691C165.251 99.7659 165.177 97.6007 166.015 95.1945C166.853 92.7921 168.331 91.0489 170.45 89.965C171.936 89.2047 173.233 88.9 174.354 89.0507C175.471 89.2002 176.279 89.7618 176.771 90.7381C177.45 92.0742 177.449 93.3125 176.772 94.4629C176.094 95.6084 175.308 96.7314 174.419 97.8294C175.151 98.1203 175.973 98.461 176.876 98.8529C177.78 99.2447 178.697 99.6944 179.626 100.209C179.513 98.9337 179.756 97.6551 180.356 96.3734C180.957 95.0916 181.936 94.1051 183.289 93.4126C184.432 92.828 185.553 92.663 186.654 92.9137C187.754 93.1645 188.567 93.8099 189.094 94.8464C189.6 95.8435 189.696 96.8467 189.386 97.8619C189.077 98.8772 188.422 99.6365 187.431 100.143C186.46 100.64 185.507 100.815 184.575 100.664C183.646 100.514 182.943 99.9698 182.473 99.0377C182.129 98.3599 182.024 97.6245 182.156 96.8389C182.246 96.4989 182.328 96.2096 182.396 95.9734C182.464 95.741 182.456 95.5375 182.369 95.3656C182.294 95.2183 182.179 95.181 182.032 95.2563C181.547 95.5047 181.087 96.2006 180.655 97.3439C180.222 98.4873 180.134 99.5661 180.383 100.586C182.325 101.836 183.659 102.766 184.398 103.375C185.236 104.07 186.041 105.242 186.815 106.9C187.656 108.695 187.957 110.729 187.586 112.676C186.898 116.279 185.032 118.865 181.986 120.423C181.521 120.661 180.99 120.858 180.39 121.02C179.79 121.178 179.179 121.246 178.55 121.218L178.516 120.756C179.006 120.772 179.548 120.689 180.149 120.503C180.744 120.319 181.266 120.111 181.712 119.882C182.835 119.308 183.59 118.507 183.985 117.479C184.382 116.447 184.275 115.329 183.661 114.12C183.199 113.212 182.601 112.435 181.863 111.797C181.125 111.16 180.178 110.537 179.018 109.93C179.029 111.419 178.631 112.959 177.822 114.542C177.016 116.13 175.788 117.343 174.14 118.186C172.698 118.924 171.188 119.078 169.598 118.647C168.007 118.217 166.832 117.253 166.068 115.75C165.197 114.035 164.965 112.446 165.366 110.985C165.757 109.529 166.996 107.503 169.069 104.923ZM178.574 109.708C176.125 108.56 174.163 107.636 172.689 106.936C171.215 106.235 170.153 105.665 169.503 105.224C169.147 105.728 168.92 106.249 168.822 106.791C168.724 107.334 168.811 107.871 169.08 108.401C169.769 109.757 171.005 110.786 172.786 111.487C174.57 112.19 175.987 112.272 177.046 111.73C177.576 111.459 177.946 111.178 178.155 110.885C178.361 110.591 178.505 110.198 178.574 109.708ZM174 97.6356C174.586 96.8005 174.963 95.9549 175.127 95.0975C175.29 94.2401 175.125 93.3251 174.629 92.3476C174.167 91.4389 173.601 90.7913 172.943 90.4097C172.282 90.0269 171.456 90.0908 170.461 90.5964C169.824 90.9226 169.306 91.4475 168.902 92.1738C168.499 92.9 168.508 93.6782 168.927 94.5034C169.294 95.2255 169.963 95.8204 170.938 96.2967C171.912 96.773 172.936 97.2205 174 97.6356Z" fill="#12B829"/>
<path d="M199.505 147.121L173.436 160.457L172.575 160.891L163.334 165.618C163.146 163.326 162.921 160.517 162.633 157.199C162.357 153.865 162.02 149.867 161.628 145.191C161.233 140.513 161.02 138.045 160.978 137.772C160.946 137.504 160.863 137.243 160.734 136.988C160.631 136.786 160.51 136.657 160.374 136.621C160.234 136.575 160.098 136.589 159.966 136.656C159.344 136.971 158.917 137.669 158.672 138.738C158.432 139.817 158.253 140.797 158.148 141.689C158.034 142.58 157.948 143.413 157.885 144.197L157.285 144.194C157.482 141.535 157.794 139.503 158.22 138.103C158.646 136.703 159.564 135.64 160.979 134.922C162.21 134.292 163.436 134.182 164.651 134.597C165.866 135.012 166.746 135.741 167.282 136.797C167.547 137.317 167.731 137.833 167.842 138.324C167.946 138.821 168.023 139.392 168.069 140.067L169.602 157.678C169.679 158.498 169.743 159.094 169.806 159.467C169.862 159.838 169.951 160.154 170.083 160.402C170.27 160.77 170.572 160.913 170.999 160.818C171.336 160.751 171.834 160.552 172.512 160.227L171.187 145.592L171.83 145.263L172.88 147.495C174.085 149.868 175.51 151.852 177.15 153.439C178.794 155.039 180.202 155.615 181.378 155.181C182.559 154.756 183.43 154.404 184.015 154.138C184.593 153.871 185.172 153.587 185.74 153.299L186.535 152.902L185.258 139.43L183.457 140.478C182.057 141.517 180.953 142.836 180.145 144.444C179.336 146.052 178.937 147.76 178.941 149.574L178.254 149.925L176.894 134.43L177.58 134.078C177.679 134.517 177.851 135.073 178.073 135.748C178.309 136.419 178.534 136.972 178.752 137.412C179.343 138.576 180.008 139.35 180.751 139.731C181.485 140.117 182.365 140.05 183.363 139.533L185.193 138.647L184.166 128.899C184.091 128.301 183.999 127.676 183.886 127.028C183.774 126.381 183.675 125.979 183.595 125.822C183.375 125.39 182.997 125.222 182.464 125.324C181.924 125.427 180.882 125.876 179.328 126.668L179.047 126.113L195.61 117.64L195.892 118.195L194.076 119.291C193.277 119.811 192.798 120.406 192.63 121.073C192.461 121.732 192.456 123.121 192.619 125.237C192.779 127.365 192.946 129.318 193.123 131.119C193.298 132.907 193.518 134.964 193.773 137.278C194.027 139.592 194.25 141.502 194.431 142.984C194.615 144.471 194.755 145.488 194.857 146.03C194.961 146.565 195.065 146.951 195.188 147.176C195.408 147.608 195.788 147.797 196.329 147.731C196.874 147.678 197.84 147.286 199.238 146.571L199.505 147.121Z" fill="#F9F8F4"/>
<path d="M139.192 166.962L138.498 150.912C138.497 150.739 138.461 150.383 138.386 149.846C138.312 149.305 138.25 148.981 138.189 148.867C138.096 148.685 137.985 148.563 137.85 148.499C137.719 148.436 137.573 148.445 137.411 148.528C137.092 148.691 136.764 149.147 136.424 149.893C136.083 150.64 135.804 151.6 135.577 152.765C135.35 153.93 135.236 155.164 135.232 156.459L134.685 156.482C134.719 154.968 134.84 153.575 135.044 152.304C135.248 151.033 135.692 149.828 136.374 148.688C137.06 147.545 138.107 146.613 139.524 145.888C140.667 145.303 141.68 145.181 142.568 145.519C143.458 145.853 144.221 146.65 144.86 147.908C145.078 146.129 145.441 144.733 145.949 143.725C146.456 142.716 147.351 141.887 148.628 141.231C149.996 140.531 151.345 140.395 152.669 140.825C153.994 141.255 155.016 142.177 155.737 143.597C157.106 146.294 157.239 149.626 156.14 153.601C155.042 157.576 152.985 160.333 149.974 161.87C149.268 162.231 148.542 162.389 147.798 162.336C147.055 162.284 146.498 161.894 146.127 161.162L145.813 160.289L145.938 163.504L139.192 166.962ZM146.531 160.875C146.715 161.238 146.926 161.471 147.162 161.564C147.396 161.66 147.674 161.623 147.993 161.46C148.424 161.24 148.749 160.643 148.959 159.67C149.169 158.696 149.285 157.13 149.303 154.958C149.32 152.789 149.25 150.437 149.082 147.905C148.916 145.369 148.675 143.794 148.363 143.18C148.258 142.973 148.13 142.837 147.985 142.77C147.835 142.701 147.668 142.712 147.485 142.809C146.779 143.17 146.284 143.862 145.997 144.885C145.714 145.908 145.522 146.753 145.431 147.421C145.338 148.087 145.312 149.15 145.351 150.615C145.391 152.079 145.484 153.935 145.639 156.188C145.793 158.449 146.088 160.009 146.531 160.875Z" fill="#F9F8F4"/>
<path d="M101.201 172.714C101.435 170.23 101.787 168.253 102.263 166.787C102.74 165.318 103.842 164.141 105.578 163.253C106.765 162.646 107.851 162.564 108.838 163.012C109.827 163.456 110.582 164.193 111.103 165.22C111.487 165.976 111.723 166.672 111.823 167.311C111.92 167.954 111.98 168.679 112 169.485C112.024 170.293 112.034 171.912 112.032 174.348C112.032 176.781 112.177 178.284 112.467 178.854C112.594 179.104 112.739 179.262 112.9 179.323C113.06 179.383 113.257 179.357 113.482 179.241C113.757 179.101 114.007 178.772 114.232 178.254C114.458 177.737 114.66 176.949 114.844 175.893C115.027 174.837 115.104 173.631 115.077 172.277C115.05 170.923 114.996 169.088 114.914 166.773C114.831 164.457 114.768 162.751 114.724 161.65C114.681 160.549 114.649 159.689 114.622 159.069L121.297 155.654C121.312 155.963 121.381 157.388 121.505 159.926C121.63 162.465 121.75 164.965 121.864 167.422C121.979 169.879 122.04 171.265 122.054 171.573C122.069 171.881 122.103 172.254 122.164 172.684C122.225 173.114 122.323 173.465 122.463 173.741C122.59 173.991 122.738 174.154 122.902 174.228C123.066 174.301 123.255 174.285 123.458 174.178C123.757 174.025 124.017 173.691 124.242 173.174C124.467 172.656 124.646 172.029 124.78 171.302C124.914 170.574 125.01 169.789 125.073 168.952C125.136 168.115 125.153 167.358 125.128 166.681L124.922 153.8L131.597 150.385L132.289 166.431C132.302 166.566 132.328 166.89 132.374 167.402C132.417 167.912 132.52 168.327 132.682 168.646C132.796 168.872 132.929 169.018 133.071 169.072C133.217 169.127 133.378 169.11 133.559 169.017C133.785 168.902 134.039 168.586 134.307 168.075C134.58 167.56 134.805 166.957 134.981 166.263C135.158 165.566 135.298 164.807 135.395 163.981C135.491 163.156 135.561 162.185 135.599 161.074L136.116 161.069C136.138 164.112 135.821 166.359 135.163 167.807C134.505 169.254 133.583 170.28 132.396 170.887C131.322 171.437 130.232 171.518 129.116 171.139C128.001 170.756 127.17 170.027 126.623 168.951C126.369 168.45 126.175 168.014 126.045 167.648C125.915 167.277 125.817 166.913 125.744 166.545L125.624 166.563C125.625 169.734 125.345 171.969 124.782 173.263C124.221 174.562 123.357 175.508 122.195 176.102C121.008 176.709 119.868 176.881 118.771 176.619C117.674 176.357 116.856 175.689 116.31 174.614C116.053 174.108 115.879 173.625 115.782 173.154C115.719 172.58 115.672 172.171 115.636 171.93C115.566 174.676 115.348 176.721 114.978 178.061C114.612 179.403 113.583 180.504 111.896 181.368C110.778 181.94 109.685 182.081 108.621 181.793C107.553 181.504 106.669 180.663 105.96 179.268C105.566 178.492 105.338 177.745 105.277 177.028C105.215 176.31 105.167 175.286 105.135 173.95C105.102 172.615 105.103 170.974 105.134 169.028C105.165 167.081 105.094 165.939 104.923 165.596C104.819 165.39 104.691 165.254 104.542 165.185C104.392 165.116 104.239 165.123 104.077 165.206C103.414 165.545 102.926 166.305 102.607 167.489C102.288 168.674 102.082 169.649 101.983 170.42C101.884 171.188 101.805 171.962 101.739 172.745L101.201 172.714Z" fill="#F9F8F4"/>
<path d="M94.5962 178.896C94.514 178.394 94.3546 177.764 94.1131 177.008C93.8754 176.254 93.6386 175.648 93.4066 175.191C92.7579 173.914 92.1223 173.101 91.501 172.76C90.8809 172.415 90.2288 172.42 89.5421 172.772C89.0173 173.04 88.58 173.341 88.2329 173.68C87.887 174.014 87.5186 174.481 87.1314 175.082C86.7442 175.682 86.4074 176.442 86.1147 177.368C85.8233 178.291 85.6434 179.147 85.5749 179.925L84.9196 179.827C85.1937 177.988 85.7491 176.278 86.5861 174.695C87.423 173.113 88.7654 171.851 90.6195 170.902C92.3067 170.039 94.1467 169.738 96.1346 170.003C98.1225 170.267 99.6167 171.384 100.615 173.348C101.979 176.035 102.04 179.111 100.795 182.566C99.8351 185.233 98.1114 187.593 95.8491 189.295C93.4399 191.109 91.2474 191.866 89.2692 191.572C87.897 191.364 86.9738 190.794 86.4998 189.86C85.5817 188.053 85.9501 186.163 87.594 184.186C89.244 182.203 91.5748 180.442 94.5962 178.896ZM94.704 179.358C93.201 180.359 92.2045 181.992 91.718 184.258C91.2316 186.524 91.3015 188.274 91.924 189.505C92.0961 189.844 92.2762 190.083 92.4605 190.221C92.646 190.355 92.8957 190.342 93.2145 190.179C93.7148 189.923 94.0791 189.393 94.3036 188.588C94.527 187.787 94.6798 186.75 94.7486 185.48C94.8211 184.211 94.8526 183.069 94.8419 182.056C94.835 181.045 94.7869 180.148 94.704 179.358Z" fill="#F9F8F4"/>
<path d="M114.641 146.893C114.248 148.193 113.393 149.175 112.084 149.845C110.941 150.429 109.811 150.534 108.677 150.145C107.555 149.76 106.74 149.082 106.244 148.104C105.997 147.618 105.828 147.144 105.725 146.693C105.632 146.236 105.558 145.695 105.507 145.084L104.094 128.755C104.02 127.988 103.959 127.431 103.906 127.09C103.852 126.74 103.763 126.449 103.646 126.218C103.476 125.884 103.187 125.753 102.791 125.838C102.483 125.906 102.022 126.08 101.395 126.385L102.625 139.952L102.027 140.258L101.054 138.19C99.939 135.995 98.6145 134.154 97.097 132.68C95.5721 131.205 94.2689 130.659 93.1826 131.057C92.0828 131.458 91.2741 131.782 90.7319 132.029C90.1885 132.279 89.6636 132.535 89.1302 132.805L88.3994 133.179L89.5842 145.664L91.2486 144.695C92.5501 143.735 93.5728 142.513 94.3181 141.024C95.0708 139.537 95.4487 137.945 95.4457 136.267L96.0784 135.943L97.3365 150.306L96.7038 150.63C96.6051 150.228 96.4563 149.717 96.2428 149.089C96.0293 148.462 95.8191 147.951 95.6169 147.541C95.0705 146.465 94.4466 145.741 93.7662 145.393C93.0783 145.03 92.2653 145.091 91.3334 145.567L89.6398 146.4L90.5942 155.438C90.6546 155.995 90.7459 156.57 90.846 157.169C90.9572 157.771 91.0459 158.14 91.1183 158.295C91.3204 158.693 91.6796 158.847 92.1736 158.749C92.6726 158.66 93.6418 158.245 95.0801 157.506L95.3396 158.017L79.9826 165.873L79.7231 165.362L81.4044 164.341C82.1418 163.859 82.5909 163.307 82.743 162.7C82.9061 162.085 82.9071 160.797 82.7618 158.826C82.6154 156.859 82.4552 155.047 82.2924 153.382C82.1222 151.715 81.9245 149.817 81.6907 147.666C81.447 145.519 81.2417 143.759 81.0796 142.381C80.9126 140.994 80.7708 140.057 80.6836 139.557C80.5891 139.055 80.4919 138.699 80.3846 138.488C80.1715 138.087 79.822 137.916 79.313 137.972C78.815 138.032 77.9143 138.387 76.6255 139.044L76.3673 138.529L100.543 126.162L101.339 125.764L109.903 121.383C110.08 123.508 110.3 126.106 110.553 129.191C110.815 132.279 111.129 135.982 111.496 140.318C111.861 144.661 112.059 146.949 112.088 147.2C112.116 147.452 112.198 147.691 112.315 147.922C112.41 148.109 112.529 148.234 112.655 148.275C112.781 148.315 112.916 148.302 113.034 148.242C113.608 147.948 114.004 147.306 114.235 146.306C114.456 145.311 114.624 144.402 114.725 143.574C114.827 142.745 114.901 141.974 114.96 141.25L115.518 141.247C115.329 143.716 115.046 145.597 114.641 146.893Z" fill="#F9F8F4"/>
<path d="M114.439 135.351C114.547 132.625 114.873 130.713 115.417 129.606C115.959 128.502 116.749 127.684 117.788 127.152C118.72 126.675 119.686 126.574 120.693 126.848C121.696 127.121 122.516 127.883 123.154 129.132C123.433 129.682 123.622 130.371 123.725 131.2C123.828 132.03 123.892 133.018 123.912 134.165C123.936 135.313 123.909 136.781 123.831 138.569C123.754 140.357 123.816 141.452 124.02 141.854C124.117 142.046 124.239 142.163 124.383 142.21C124.527 142.257 124.695 142.233 124.882 142.134C125.113 142.016 125.354 141.726 125.602 141.265C125.849 140.807 126.038 140.262 126.173 139.633C126.308 139.004 126.422 138.299 126.518 137.513C126.612 136.732 126.669 136.041 126.686 135.447L127.214 135.459C127.019 137.91 126.742 139.744 126.391 140.963C126.039 142.186 125.078 143.195 123.513 143.995C122.37 144.58 121.332 144.69 120.403 144.326C119.471 143.962 118.75 143.272 118.233 142.256C117.889 141.578 117.681 140.92 117.604 140.275C117.531 139.632 117.494 138.513 117.495 136.909C117.495 135.309 117.487 133.887 117.466 132.642C117.448 131.398 117.419 130.555 117.384 130.122C117.349 129.688 117.288 129.385 117.205 129.214C117.13 129.067 117.037 128.975 116.927 128.935C116.816 128.899 116.682 128.921 116.535 128.997C116.388 129.072 116.205 129.333 115.991 129.776C115.778 130.219 115.559 130.919 115.34 131.87C115.115 132.826 114.992 133.976 114.958 135.326L114.439 135.351ZM115.669 121.714C115.227 120.844 115.162 119.986 115.473 119.131C115.787 118.278 116.355 117.637 117.179 117.216C118.022 116.784 118.883 116.691 119.756 116.937C120.629 117.184 121.286 117.742 121.728 118.611C122.207 119.554 122.219 120.51 121.774 121.477C121.454 122.173 120.895 122.75 120.215 123.104C119.358 123.552 118.49 123.643 117.607 123.377C116.743 123.117 116.097 122.562 115.669 121.714Z" fill="#F9F8F4"/>
<path d="M138.916 116.338C139.907 115.831 140.92 115.709 141.944 115.968C142.971 116.231 143.802 116.985 144.434 118.237C144.724 118.806 144.915 119.476 145.014 120.242C145.109 121.007 145.176 121.845 145.215 122.76C145.253 123.675 145.264 125.192 145.247 127.307C145.23 129.426 145.297 130.63 145.449 130.929C145.537 131.101 145.642 131.205 145.768 131.246C145.897 131.288 146.044 131.266 146.215 131.178C146.426 131.07 146.646 130.797 146.878 130.359C147.11 129.922 147.358 129.195 147.628 128.175C147.897 127.159 148.028 125.774 148.017 124.019L148.54 124.033C148.452 126.268 148.219 128.133 147.841 129.622C147.464 131.112 146.462 132.271 144.833 133.104C143.71 133.679 142.694 133.771 141.781 133.384C140.863 133 140.154 132.311 139.648 131.314C139.303 130.636 139.098 130.048 139.031 129.546C138.964 129.049 138.918 127.844 138.896 125.934C138.869 124.026 138.855 122.458 138.846 121.237C138.839 120.013 138.693 119.128 138.413 118.578C138.306 118.367 138.186 118.234 138.055 118.183C137.924 118.132 137.762 118.154 137.57 118.251C137.315 118.382 137.075 118.706 136.846 119.222C136.617 119.738 136.412 120.484 136.24 121.454C136.065 122.422 135.999 123.656 136.04 125.154L136.295 137.067L130.11 140.23L129.374 125.405C129.339 125.021 129.307 124.592 129.278 124.115C129.249 123.638 129.19 123.315 129.102 123.143C129.028 122.996 128.942 122.907 128.846 122.875C128.75 122.844 128.638 122.861 128.51 122.926C128.216 123.077 127.945 123.383 127.697 123.844C127.45 124.301 127.251 124.839 127.098 125.45C126.94 126.063 126.811 126.8 126.705 127.668C126.599 128.536 126.51 129.426 126.441 130.343L125.932 130.362C126.04 128.129 126.301 126.241 126.727 124.702C127.089 123.387 127.87 122.202 129.008 121.455C130.24 120.649 131.391 120.441 132.463 120.83C133.362 121.159 134.1 121.886 134.671 123.011C134.93 123.522 135.116 124.009 135.232 124.469C135.347 124.933 135.439 125.307 135.505 125.595C135.486 123.198 135.656 121.264 136.01 119.783C136.355 118.291 137.328 117.147 138.916 116.338Z" fill="#F9F8F4"/>
<path d="M158.528 106.714L158.633 107.942L155.077 109.761L156.175 123.809C156.21 124.243 156.247 124.559 156.295 124.751C156.339 124.941 156.403 125.122 156.492 125.29C156.589 125.482 156.7 125.604 156.835 125.656C156.969 125.708 157.108 125.696 157.259 125.622C157.534 125.481 157.794 125.196 158.042 124.76C158.289 124.328 158.504 123.803 158.697 123.184C158.89 122.566 159.048 121.838 159.169 121C159.289 120.165 159.354 119.411 159.359 118.74L159.887 118.751C159.732 121.018 159.401 122.843 158.89 124.227C158.38 125.608 157.416 126.661 155.999 127.386C154.773 128.014 153.667 128.118 152.681 127.704C151.695 127.289 150.947 126.57 150.431 125.553C150.194 125.087 150.04 124.652 149.966 124.25C149.893 123.845 149.82 123.251 149.74 122.466L149.022 112.864L146.294 114.259L146.19 113.032L148.922 111.634L148.345 104.203L154.467 101.072L155.014 108.518L158.528 106.714Z" fill="#F9F8F4"/>
</g>
<defs>
<clipPath id="clip0">
<rect width="119.771" height="124.01" fill="white" transform="translate(100.294 64.8486) rotate(17.9908)"/>
</clipPath>
</defs>
</svg>
