<svg width="276" height="276" viewBox="0 0 276 276" fill="none" xmlns="http://www.w3.org/2000/svg">
<path d="M137.869 122.573C130.851 122.573 127.139 118.941 125.26 115.893C123.237 112.611 122.872 109.375 122.857 109.239L122.855 109.188V88H152.884L152.882 108.776C152.867 108.917 152.504 112.263 150.483 115.658C148.602 118.812 144.89 122.573 137.869 122.573ZM123.799 109.163C123.835 109.455 124.246 112.465 126.081 115.427C128.631 119.542 132.597 121.628 137.867 121.628C143.136 121.628 147.1 119.466 149.651 115.201C151.492 112.124 151.9 108.994 151.934 108.703V88.9473H123.799V109.163Z" fill="#F9F8F4"/>
<path d="M138.342 88.4741H137.396V122.1H138.342V88.4741Z" fill="#F9F8F4"/>
<path d="M152.402 101.949L123.32 102.324L123.332 103.271L152.414 102.896L152.402 101.949Z" fill="#F9F8F4"/>
<path d="M138.039 111.809L124.136 112L124.149 112.947L138.052 112.756L138.039 111.809Z" fill="#F9F8F4"/>
<path d="M142.839 102.39L141.893 102.399L142.078 121.4L143.024 121.391L142.839 102.39Z" fill="#F9F8F4"/>
<path d="M148.009 102.392L147.063 102.397L147.156 118.509L148.102 118.504L148.009 102.392Z" fill="#F9F8F4"/>
<path d="M138.037 116.585L126.863 116.791L126.88 117.738L138.054 117.532L138.037 116.585Z" fill="#F9F8F4"/>
<path d="M135.176 99.6697C135.176 99.6697 133.952 99.4328 133.205 99.0501C133.205 99.0501 132.372 99.844 130.497 99.7663C130.351 99.7606 130.261 99.5996 130.34 99.4783C130.514 99.2169 131.023 98.8493 132.495 98.7678C132.495 98.7678 132.225 98.6428 131.755 98.2885C131.755 98.2885 130.088 99.0103 128.893 98.6598C128.764 98.6219 128.715 98.4609 128.802 98.3567C129.025 98.0933 129.615 97.7144 131.131 97.8906C131.131 97.8906 130.838 97.686 130.349 97.201C130.349 97.201 128.624 97.614 127.744 97.2578C127.602 97.201 127.589 96.9982 127.721 96.9206C128.053 96.7273 128.76 96.4981 130.035 96.8505C130.035 96.8505 129.678 96.5738 129.534 96.085C129.534 96.085 127.411 96.2366 126.83 95.8558C126.713 95.78 126.72 95.6038 126.843 95.5337C127.133 95.3708 127.863 95.1472 129.366 95.6493C129.366 95.6493 129.114 95.2912 128.966 94.9672C128.966 94.9672 127.141 94.9539 126.518 94.3912C126.408 94.2927 126.444 94.1127 126.584 94.0673C126.932 93.9536 127.689 93.8778 128.915 94.5921C128.915 94.5921 127.952 92.2711 128.395 91.4299C128.456 91.3163 128.614 91.2992 128.7 91.3939C128.953 91.6743 129.381 92.4606 129.137 94.4651C129.137 94.4651 129.532 92.8168 130.44 92.4019C130.577 92.3394 130.73 92.453 130.707 92.6027C130.648 93.0044 130.389 93.7982 129.324 94.755C129.324 94.755 129.699 95.708 129.988 95.9562C129.988 95.9562 130.081 94.522 131.065 93.9346C131.207 93.8494 131.383 93.982 131.343 94.1449C131.22 94.6508 130.913 95.5773 130.227 96.2631C130.227 96.2631 130.715 97.0418 131.229 97.2938C131.229 97.2938 131.191 95.6815 131.954 95.0619C132.077 94.9634 132.26 95.06 132.257 95.2173C132.245 95.7307 132.134 96.7482 131.475 97.4984C131.475 97.4984 132.088 98.1843 132.467 98.2563C132.467 98.2563 132.575 96.5473 133.437 96.0452C133.568 95.9695 133.731 96.0812 133.714 96.2309C133.67 96.6345 133.49 97.4207 132.798 98.4344C132.796 98.4363 134.887 99.736 135.176 99.6697Z" fill="#F9F8F4"/>
<path d="M128.098 105.44V107.329H128.953C129.112 107.325 129.244 107.27 129.348 107.166C129.453 107.062 129.504 106.929 129.504 106.77V106.711H129.568V108.21H129.504V108.159C129.504 108 129.453 107.867 129.352 107.763C129.25 107.659 129.121 107.606 128.966 107.6H128.098V109.229C128.098 109.341 128.139 109.438 128.221 109.517C128.302 109.597 128.401 109.637 128.512 109.637H128.59L128.595 109.701H126.624V109.637H126.709C126.821 109.637 126.917 109.597 126.997 109.517C127.076 109.438 127.12 109.341 127.123 109.229V105.616C127.123 105.465 127.052 105.353 126.91 105.279C126.849 105.245 126.783 105.228 126.709 105.228H126.624V105.163H129.106C129.241 105.163 129.386 105.15 129.547 105.124C129.706 105.097 129.82 105.072 129.884 105.046V106.143H129.82V106.078C129.82 105.889 129.765 105.736 129.655 105.62C129.545 105.506 129.394 105.446 129.205 105.442H128.098V105.44Z" fill="#F9F8F4"/>
<path d="M133.127 109.791C132.292 109.789 131.638 109.577 131.163 109.158C130.688 108.739 130.45 108.163 130.45 107.432C130.45 106.701 130.684 106.125 131.155 105.702C131.626 105.28 132.272 105.069 133.093 105.069C133.719 105.069 134.258 105.187 134.707 105.42L134.72 106.536H134.669C134.448 105.74 133.944 105.342 133.159 105.342C132.648 105.342 132.245 105.528 131.95 105.897C131.655 106.267 131.505 106.773 131.505 107.413C131.505 108.053 131.647 108.561 131.929 108.938C132.213 109.315 132.595 109.508 133.08 109.522C133.581 109.522 133.963 109.397 134.226 109.145C134.495 108.885 134.68 108.44 134.784 107.807H134.835L134.9 108.923C134.554 109.505 133.961 109.795 133.127 109.791Z" fill="#F9F8F4"/>
<path d="M143.166 92.7462L144.322 92.9205L143.48 93.7352L143.673 94.8909L142.64 94.3396L141.602 94.8795L141.806 93.7257L140.971 92.9035L142.129 92.7406L142.654 91.6929L143.166 92.7462Z" fill="#F9F8F4"/>
<path d="M147.912 92.7462L149.068 92.9205L148.226 93.7352L148.419 94.8909L147.386 94.3396L146.347 94.8795L146.549 93.7257L145.717 92.9035L146.875 92.7406L147.399 91.6929L147.912 92.7462Z" fill="#F9F8F4"/>
<path d="M143.166 97.2932L144.322 97.4675L143.48 98.2822L143.673 99.438L142.64 98.8866L141.602 99.4266L141.806 98.2728L140.971 97.4505L142.129 97.2875L142.654 96.2397L143.166 97.2932Z" fill="#F9F8F4"/>
<path d="M147.912 97.2932L149.068 97.4675L148.226 98.2822L148.419 99.438L147.386 98.8866L146.347 99.4266L146.549 98.2728L145.717 97.4505L146.875 97.2875L147.399 96.2397L147.912 97.2932Z" fill="#F9F8F4"/>
<path d="M44.154 135.235V141.851H47.1511C47.7111 141.835 48.1728 141.646 48.5361 141.282C48.8994 140.918 49.081 140.456 49.081 139.895V139.691H49.3081V144.943H49.081V144.761C49.081 144.2 48.9031 143.738 48.5474 143.374C48.1917 143.01 47.7414 142.821 47.1965 142.806H44.154V148.512C44.154 148.906 44.2978 149.244 44.5854 149.524C44.873 149.804 45.2136 149.945 45.6071 149.945H45.8796L45.9023 150.172H39V149.945H39.2952C39.6887 149.945 40.0255 149.804 40.3055 149.524C40.5856 149.244 40.7331 148.906 40.7483 148.512V135.848C40.7483 135.318 40.4985 134.924 39.999 134.666C39.7871 134.545 39.5525 134.484 39.2952 134.484H39V134.257H47.696C48.1652 134.257 48.6799 134.211 49.2399 134.12C49.8 134.03 50.1935 133.939 50.4206 133.848V137.69H50.1935V137.463C50.1935 136.796 50.0006 136.261 49.6146 135.86C49.2286 135.458 48.7026 135.25 48.0366 135.235H44.154Z" fill="#F9F8F4"/>
<path d="M59.9379 150.171H51.696V149.997H51.9061C52.1747 149.997 52.398 149.91 52.5796 149.733C52.7613 149.559 52.8559 149.343 52.8691 149.086V140.745C52.8578 140.49 52.7613 140.272 52.5796 140.098C52.398 139.923 52.1747 139.834 51.9061 139.834H51.696V139.66H57.8548C58.1688 139.66 58.5132 139.631 58.8878 139.573C59.2606 139.514 59.5236 139.455 59.6749 139.398V142.183H59.5009V142.026C59.5009 141.513 59.3608 141.109 59.0808 140.817C58.8008 140.526 58.4091 140.374 57.9077 140.363H55.3875V144.62H57.3817C57.7791 144.609 58.0988 144.474 58.3448 144.216C58.5889 143.959 58.7119 143.633 58.7119 143.235V143.112H58.8859V146.825H58.7119V146.702C58.7119 146.153 58.5075 145.757 58.0988 145.51C57.8888 145.382 57.6561 145.317 57.3988 145.317H55.3875V149.47H57.4877C58.2105 149.459 58.8254 149.233 59.3344 148.796C59.8433 148.358 60.2123 147.742 60.445 146.947H60.6021L59.9379 150.171Z" fill="#F9F8F4"/>
<path d="M65.4833 140.378H64.9233V149.069C64.9233 149.349 65.0197 149.575 65.2127 149.743C65.4057 149.912 65.6233 149.997 65.8693 149.997H66.0623V150.172H61.2507V149.997H61.4608C61.7162 149.997 61.9357 149.91 62.1173 149.734C62.2989 149.56 62.3879 149.344 62.3879 149.086V140.746C62.3879 140.49 62.2971 140.272 62.1173 140.098C61.9357 139.924 61.7238 139.834 61.4778 139.834H61.2507V139.66H66.6223C67.6724 139.66 68.5523 139.865 69.2637 140.274C70.0565 140.729 70.4538 141.483 70.4538 142.534C70.4538 143.213 70.2494 143.823 69.8408 144.365C69.4321 144.908 68.8266 145.238 68.0206 145.354C68.3347 145.458 68.6469 145.657 68.9572 145.948C69.2656 146.24 69.5134 146.538 69.7007 146.843C70.0735 147.508 70.4651 148.12 70.8738 148.673C71.2825 149.228 71.6117 149.586 71.8615 149.751C72.1131 149.914 72.4178 149.995 72.7792 149.995V150.17H71.309C70.3403 150.17 69.5967 150.052 69.0783 149.819C68.5598 149.586 68.0963 149.143 67.6876 148.487C67.0575 147.483 66.6659 146.689 66.5145 146.104C66.3745 145.753 66.208 145.49 66.015 145.316C65.822 145.141 65.6385 145.041 65.4644 145.018V144.878H65.9015C66.8929 144.867 67.5003 144.283 67.7216 143.125C67.7689 142.951 67.7916 142.8 67.7916 142.671C67.7916 142.542 67.786 142.364 67.7746 142.136C67.7633 141.909 67.6895 141.651 67.5551 141.365C67.4208 141.079 67.2486 140.873 67.0386 140.744C66.6772 140.522 66.3045 140.405 65.9185 140.393C65.7917 140.384 65.646 140.378 65.4833 140.378Z" fill="#F9F8F4"/>
<path d="M80.0391 139.658H84.9547V139.833H84.6577C84.389 139.833 84.1657 139.914 83.9841 140.077C83.8025 140.24 83.706 140.45 83.6946 140.708V148.364C83.6946 149.088 83.7419 149.685 83.8346 150.151L83.8687 150.395H83.7116L75.6817 143.3V149.099C75.693 149.357 75.7895 149.569 75.9712 149.74C76.1528 149.908 76.3761 149.994 76.6447 149.994H76.9418V150.168H72.0432V149.994H72.3232C72.5919 149.994 72.819 149.908 73.0063 149.74C73.1936 149.571 73.2863 149.357 73.2863 149.099V141.39C73.2863 140.689 73.239 140.111 73.1463 139.657L73.1103 139.412L73.2674 139.429L81.2803 146.489V140.727C81.2803 140.469 81.1895 140.257 81.0098 140.087C80.8281 139.918 80.6049 139.833 80.3362 139.833H80.0391V139.658Z" fill="#F9F8F4"/>
<path d="M85.7607 148.733C85.7607 147.973 85.9291 147.325 86.2678 146.789H86.4078C86.3965 146.87 86.3908 146.946 86.3908 147.016C86.3908 147.729 86.6443 148.354 87.1514 148.89C87.6585 149.428 88.368 149.695 89.2781 149.695C89.9309 149.695 90.4361 149.544 90.7918 149.241C91.1475 148.937 91.3253 148.598 91.3253 148.225C91.3253 147.852 91.2232 147.55 91.0188 147.323C90.8145 147.096 90.4796 146.831 90.0122 146.526L87.5279 144.949C86.4778 144.296 85.9537 143.454 85.9537 142.426C85.9537 142.319 85.9594 142.21 85.9708 142.092C86.0408 141.262 86.3605 140.612 86.9338 140.139C87.5052 139.665 88.1788 139.428 88.9546 139.428C89.7303 139.428 90.5496 139.481 91.4124 139.585H92.3565L92.1124 141.899H91.9554C91.9554 141.349 91.7662 140.917 91.3859 140.603C91.0075 140.288 90.5042 140.129 89.8817 140.129C89.2573 140.129 88.7654 140.26 88.404 140.523C88.0426 140.787 87.8609 141.133 87.8609 141.565C87.8609 141.916 88.035 142.219 88.3851 142.477C88.5251 142.581 88.7294 142.715 88.9981 142.88L91.7794 144.597C92.7349 145.18 93.2136 145.987 93.2136 147.014C93.2136 148.1 92.8314 148.935 92.067 149.519C91.3026 150.103 90.315 150.394 89.1021 150.394C88.3548 150.394 87.6963 150.307 87.1249 150.131C86.5535 149.955 86.1335 149.733 85.8648 149.466C85.7948 149.259 85.7607 149.013 85.7607 148.733Z" fill="#F9F8F4"/>
<path d="M109.205 139.835H109.082C108.814 139.835 108.558 139.905 108.312 140.045C108.068 140.185 107.887 140.39 107.769 140.659L105.179 148.595C104.992 149.156 104.899 149.687 104.899 150.191C104.899 150.249 104.899 150.308 104.899 150.365H104.742L101.331 143.463L98.9693 148.595C98.7006 149.215 98.5662 149.804 98.5662 150.365H98.4092L94.6818 140.729C94.5532 140.437 94.3696 140.215 94.1312 140.064C93.8928 139.912 93.6317 139.837 93.3517 139.837H93.2117V139.662H98.1273V139.837H97.9873C97.7659 139.837 97.6032 139.905 97.4972 140.037C97.3913 140.172 97.3402 140.297 97.3402 140.414C97.3402 140.532 97.3629 140.659 97.4102 140.799L99.2304 145.564L101.995 139.414H102.135L105.196 145.598L106.613 140.797C106.731 140.331 106.636 140.026 106.333 139.886C106.252 139.85 106.159 139.833 106.053 139.833H105.913V139.658H109.202V139.835H109.205Z" fill="#F9F8F4"/>
<path d="M108.785 144.914C108.785 143.232 109.347 141.898 110.473 140.911C111.599 139.924 113.097 139.431 114.969 139.431C116.84 139.431 118.342 139.924 119.474 140.911C120.605 141.898 121.171 143.232 121.171 144.914C121.171 146.597 120.605 147.93 119.474 148.918C118.342 149.905 116.844 150.397 114.978 150.397C113.112 150.397 111.612 149.905 110.482 148.918C109.351 147.932 108.785 146.597 108.785 144.914ZM111.461 144.914C111.461 146.386 111.779 147.552 112.414 148.41C113.05 149.268 113.901 149.698 114.969 149.698C116.036 149.698 116.887 149.27 117.523 148.41C118.159 147.552 118.476 146.386 118.476 144.914C118.476 143.442 118.159 142.277 117.523 141.419C116.887 140.56 116.036 140.13 114.969 140.13C113.901 140.13 113.05 140.56 112.414 141.419C111.779 142.279 111.461 143.444 111.461 144.914Z" fill="#F9F8F4"/>
<path d="M126.158 140.378H125.598V149.069C125.598 149.349 125.695 149.575 125.888 149.743C126.081 149.912 126.298 149.997 126.544 149.997H126.737V150.172H121.926V149.997H122.136C122.391 149.997 122.611 149.91 122.792 149.734C122.974 149.56 123.063 149.344 123.063 149.086V140.746C123.063 140.49 122.972 140.272 122.792 140.098C122.611 139.924 122.399 139.834 122.153 139.834H121.926V139.66H127.297C128.348 139.66 129.227 139.865 129.939 140.274C130.732 140.729 131.129 141.483 131.129 142.534C131.129 143.213 130.925 143.823 130.516 144.365C130.107 144.908 129.502 145.238 128.696 145.354C129.01 145.458 129.322 145.657 129.632 145.948C129.941 146.24 130.189 146.538 130.376 146.843C130.749 147.508 131.14 148.12 131.549 148.673C131.958 149.228 132.287 149.586 132.537 149.751C132.788 149.914 133.093 149.995 133.454 149.995V150.17H131.984C131.015 150.17 130.272 150.052 129.753 149.819C129.235 149.586 128.771 149.143 128.363 148.487C127.733 147.483 127.341 146.689 127.19 146.104C127.05 145.753 126.883 145.49 126.69 145.316C126.497 145.141 126.314 145.041 126.14 145.018V144.878H126.577C127.568 144.867 128.175 144.283 128.397 143.125C128.444 142.951 128.467 142.8 128.467 142.671C128.467 142.542 128.461 142.364 128.45 142.136C128.438 141.909 128.365 141.651 128.23 141.365C128.096 141.079 127.924 140.873 127.714 140.744C127.352 140.522 126.98 140.405 126.594 140.393C126.467 140.384 126.321 140.378 126.158 140.378Z" fill="#F9F8F4"/>
<path d="M142.133 142.146V141.989C142.133 141.487 141.993 141.089 141.713 140.797C141.433 140.505 141.044 140.354 140.54 140.342H138.51V149.084C138.521 149.342 138.62 149.558 138.807 149.732C138.994 149.906 139.216 149.995 139.471 149.995H139.664V150.17H134.836V149.995H135.01C135.278 149.995 135.505 149.908 135.693 149.732C135.88 149.558 135.973 149.334 135.973 149.067V140.342H133.961C133.449 140.354 133.051 140.505 132.771 140.797C132.491 141.089 132.351 141.487 132.351 141.989V142.146H132.177V139.378C132.34 139.437 132.612 139.495 132.991 139.552C133.369 139.611 133.712 139.639 134.014 139.639H140.47C140.983 139.639 141.407 139.601 141.738 139.526C142.071 139.45 142.26 139.401 142.307 139.376V142.144H142.133V142.146Z" fill="#F9F8F4"/>
<path d="M154.642 149.995H154.835V150.17H150.023V149.995H150.197C150.466 149.995 150.693 149.908 150.88 149.732C151.068 149.558 151.16 149.334 151.16 149.067V145.283H146.559V149.067C146.57 149.336 146.669 149.558 146.856 149.732C147.043 149.906 147.265 149.995 147.52 149.995H147.713V150.17H142.884V149.995H143.077C143.346 149.995 143.573 149.904 143.76 149.724C143.948 149.543 144.04 149.325 144.04 149.067V140.763C144.04 140.505 143.948 140.287 143.76 140.105C143.573 139.924 143.346 139.834 143.077 139.834H142.884V139.66H147.713V139.834H147.52C147.263 139.834 147.041 139.922 146.856 140.098C146.669 140.272 146.57 140.49 146.559 140.746V144.582H151.16V140.763C151.16 140.401 151.003 140.132 150.687 139.958C150.536 139.876 150.371 139.834 150.197 139.834H150.023V139.66H154.835V139.834H154.642C154.384 139.834 154.163 139.922 153.978 140.098C153.79 140.272 153.692 140.496 153.681 140.763V149.084C153.692 149.446 153.849 149.709 154.154 149.872C154.303 149.956 154.466 149.995 154.642 149.995Z" fill="#F9F8F4"/>
<path d="M169.485 150.479C166.564 150.471 164.271 149.732 162.606 148.262C160.941 146.792 160.108 144.776 160.108 142.214C160.108 139.653 160.933 137.633 162.583 136.155C164.233 134.677 166.496 133.938 169.372 133.938C171.566 133.938 173.451 134.348 175.025 135.166L175.071 139.077H174.889C174.117 136.288 172.354 134.893 169.599 134.893C167.813 134.893 166.401 135.541 165.364 136.837C164.327 138.133 163.809 139.903 163.809 142.146C163.809 144.389 164.305 146.17 165.296 147.489C166.288 148.808 167.631 149.49 169.326 149.535C171.082 149.535 172.422 149.096 173.345 148.217C174.283 147.307 174.934 145.746 175.298 143.533H175.479L175.706 147.444C174.48 149.475 172.407 150.484 169.485 150.479Z" fill="#F9F8F4"/>
<path d="M176.953 144.914C176.953 143.232 177.515 141.898 178.641 140.911C179.767 139.924 181.265 139.431 183.136 139.431C185.008 139.431 186.51 139.924 187.641 140.911C188.773 141.898 189.339 143.232 189.339 144.914C189.339 146.597 188.773 147.93 187.641 148.918C186.51 149.905 185.011 150.397 183.146 150.397C181.28 150.397 179.78 149.905 178.65 148.918C177.519 147.932 176.953 146.597 176.953 144.914ZM179.63 144.914C179.63 146.386 179.948 147.552 180.584 148.41C181.22 149.268 182.071 149.698 183.138 149.698C184.205 149.698 185.057 149.27 185.692 148.41C186.328 147.552 186.646 146.386 186.646 144.914C186.646 143.442 186.328 142.277 185.692 141.419C185.057 140.56 184.205 140.13 183.138 140.13C182.071 140.13 181.22 140.56 180.584 141.419C179.948 142.279 179.63 143.444 179.63 144.914Z" fill="#F9F8F4"/>
<path d="M201.501 139.834H201.257C201.035 139.834 200.848 139.903 200.697 140.035C200.545 140.17 200.464 140.342 200.453 140.553V146.352C200.453 147.614 200.067 148.603 199.298 149.321C198.528 150.039 197.382 150.399 195.861 150.399C194.339 150.399 193.155 150.048 192.309 149.347C191.463 148.646 191.041 147.659 191.041 146.386V140.57C191.041 140.359 190.962 140.183 190.805 140.045C190.648 139.905 190.459 139.834 190.235 139.834H189.988V139.66H194.589V139.834H194.345C194.124 139.834 193.936 139.905 193.785 140.045C193.634 140.185 193.558 140.359 193.558 140.57V146.263C193.558 147.337 193.806 148.178 194.301 148.787C194.797 149.395 195.493 149.698 196.392 149.698C197.291 149.698 197.999 149.412 198.517 148.84C199.035 148.267 199.297 147.474 199.297 146.456V140.57C199.285 140.348 199.204 140.17 199.052 140.035C198.901 139.901 198.714 139.834 198.492 139.834H198.265V139.66H201.503V139.834H201.501Z" fill="#F9F8F4"/>
<path d="M209.741 139.658H214.656V139.833H214.359C214.091 139.833 213.867 139.914 213.686 140.077C213.504 140.24 213.408 140.45 213.396 140.708V148.364C213.396 149.088 213.444 149.685 213.536 150.151L213.57 150.395H213.413L205.383 143.3V149.099C205.395 149.357 205.491 149.569 205.673 149.74C205.854 149.908 206.078 149.994 206.346 149.994H206.643V150.168H201.745V149.994H202.025C202.294 149.994 202.521 149.908 202.708 149.74C202.895 149.571 202.988 149.357 202.988 149.099V141.39C202.988 140.689 202.941 140.111 202.848 139.657L202.812 139.412L202.969 139.429L210.982 146.489V140.727C210.982 140.469 210.891 140.257 210.711 140.087C210.53 139.918 210.307 139.833 210.038 139.833H209.741V139.658Z" fill="#F9F8F4"/>
<path d="M224.786 142.146V141.989C224.786 141.487 224.646 141.089 224.366 140.797C224.086 140.505 223.697 140.354 223.193 140.342H221.163V149.084C221.174 149.342 221.273 149.558 221.46 149.732C221.648 149.906 221.869 149.995 222.124 149.995H222.317V150.17H217.489V149.995H217.663C217.931 149.995 218.158 149.908 218.346 149.732C218.533 149.558 218.626 149.334 218.626 149.067V140.342H216.615C216.102 140.354 215.704 140.505 215.424 140.797C215.144 141.089 215.004 141.487 215.004 141.989V142.146H214.83V139.378C214.993 139.437 215.265 139.495 215.644 139.552C216.022 139.611 216.365 139.639 216.668 139.639H223.123C223.636 139.639 224.06 139.601 224.391 139.526C224.724 139.45 224.913 139.401 224.961 139.376V142.144H224.786V142.146Z" fill="#F9F8F4"/>
<path d="M237 139.834H236.773C236.47 139.834 236.181 139.916 235.906 140.079C235.632 140.242 235.409 140.446 235.233 140.693L232.118 145.494V149.067C232.13 149.325 232.23 149.543 232.415 149.724C232.603 149.906 232.836 149.995 233.116 149.995H233.309V150.17H228.41V149.995H228.62C228.889 149.995 229.116 149.904 229.303 149.724C229.49 149.543 229.589 149.325 229.6 149.067V145.494L226.503 140.693C226.34 140.437 226.121 140.229 225.846 140.071C225.572 139.914 225.279 139.834 224.963 139.834H224.753V139.66H230.071V139.834H229.878C229.657 139.834 229.496 139.908 229.398 140.054C229.299 140.2 229.248 140.323 229.248 140.422C229.248 140.52 229.271 140.611 229.318 140.693L231.645 144.723L234.007 140.693C234.041 140.611 234.06 140.52 234.06 140.422C234.06 140.323 234.011 140.2 233.91 140.054C233.812 139.908 233.651 139.834 233.43 139.834H233.256V139.66H237V139.834Z" fill="#F9F8F4"/>
<path d="M164.106 159.367H110.94V160.125H164.106V159.367Z" fill="#F9F8F4"/>
<path d="M86.0181 167.565L88.0161 172.643L89.0984 168.85C89.1873 168.537 89.2327 168.296 89.2327 168.124C89.2327 168.006 89.1911 167.914 89.1079 167.847C89.0246 167.781 88.8714 167.747 88.6443 167.747C88.6065 167.747 88.5667 167.745 88.5251 167.741L88.5781 167.565H90.6575L90.6007 167.741C90.385 167.737 90.2242 167.76 90.1182 167.807C89.9688 167.874 89.8571 167.961 89.7833 168.065C89.6812 168.215 89.579 168.476 89.473 168.848L87.9518 174.189H87.7796L85.6283 168.724L84.478 172.76C84.3928 173.065 84.3493 173.3 84.3493 173.463C84.3493 173.584 84.389 173.675 84.4666 173.738C84.5442 173.8 84.7296 173.842 85.0229 173.865L84.9756 174.041H82.9435L83.0097 173.865C83.2632 173.859 83.4335 173.836 83.5206 173.798C83.6511 173.741 83.7476 173.666 83.8119 173.575C83.9047 173.435 84.0068 173.164 84.1222 172.762L85.4051 168.258C85.2802 168.067 85.1478 167.936 85.0077 167.864C84.8658 167.792 84.6463 167.753 84.3474 167.743L84.4004 167.567H86.0181V167.565Z" fill="#F9F8F4"/>
<path d="M94.3188 169.72L93.3879 172.958L93.2839 173.392C93.2744 173.433 93.2687 173.467 93.2687 173.496C93.2687 173.547 93.2839 173.59 93.316 173.63C93.3406 173.659 93.3728 173.674 93.4106 173.674C93.4522 173.674 93.5052 173.649 93.5733 173.598C93.6982 173.505 93.8628 173.314 94.0691 173.024L94.2318 173.14C94.0123 173.471 93.7871 173.723 93.5544 173.897C93.3217 174.072 93.1079 174.157 92.9111 174.157C92.7749 174.157 92.6727 174.123 92.6027 174.055C92.5346 173.986 92.5005 173.886 92.5005 173.755C92.5005 173.6 92.5346 173.393 92.6046 173.14L92.7049 172.781C92.2886 173.325 91.9045 173.706 91.5545 173.924C91.3029 174.079 91.0569 174.159 90.8147 174.159C90.582 174.159 90.3814 174.062 90.213 173.869C90.0446 173.676 89.9595 173.41 89.9595 173.073C89.9595 172.567 90.1108 172.033 90.4155 171.47C90.7182 170.908 91.1042 170.459 91.5715 170.121C91.9367 169.854 92.2829 169.72 92.6065 169.72C92.8014 169.72 92.9622 169.771 93.0909 169.873C93.2195 169.976 93.3179 170.144 93.3841 170.379L93.5563 169.835L94.3188 169.72ZM92.6216 169.968C92.4173 169.968 92.2016 170.063 91.9726 170.254C91.6491 170.525 91.3596 170.927 91.1061 171.457C90.8525 171.988 90.7277 172.469 90.7277 172.899C90.7277 173.115 90.7825 173.287 90.8904 173.412C90.9982 173.537 91.1231 173.602 91.2631 173.602C91.6094 173.602 91.9859 173.346 92.3927 172.833C92.9357 172.151 93.2082 171.451 93.2082 170.735C93.2082 170.464 93.1552 170.269 93.0511 170.148C92.9471 170.027 92.8033 169.968 92.6216 169.968Z" fill="#F9F8F4"/>
<path d="M97.1569 168.536L96.7842 169.836H97.5334L97.4521 170.137H96.7085L95.8874 172.954C95.7984 173.257 95.753 173.453 95.753 173.542C95.753 173.597 95.7663 173.636 95.7909 173.667C95.8155 173.695 95.8457 173.71 95.8817 173.71C95.9612 173.71 96.0652 173.655 96.1958 173.543C96.2715 173.479 96.4417 173.284 96.7066 172.956L96.8637 173.076C96.5704 173.502 96.2942 173.803 96.0331 173.979C95.8552 174.101 95.6755 174.161 95.4938 174.161C95.3538 174.161 95.2403 174.118 95.1495 174.03C95.0605 173.943 95.0151 173.831 95.0151 173.693C95.0151 173.521 95.0662 173.259 95.1684 172.905L95.9649 170.139H95.2441L95.2914 169.953C95.6414 169.859 95.9328 169.715 96.1636 169.525C96.3944 169.336 96.6555 169.006 96.9412 168.538H97.1569V168.536Z" fill="#F9F8F4"/>
<path d="M101.932 169.834L101.102 172.681C100.977 173.106 100.916 173.373 100.916 173.484C100.916 173.541 100.926 173.585 100.947 173.611C100.967 173.638 100.996 173.651 101.03 173.651C101.085 173.651 101.143 173.627 101.21 173.577C101.276 173.528 101.439 173.331 101.703 172.988L101.847 173.098C101.596 173.496 101.338 173.789 101.075 173.977C100.901 174.098 100.731 174.159 100.57 174.159C100.445 174.159 100.349 174.123 100.279 174.055C100.209 173.985 100.175 173.894 100.175 173.782C100.175 173.674 100.195 173.53 100.237 173.352C100.288 173.117 100.432 172.603 100.67 171.813C100.129 172.702 99.677 173.314 99.3137 173.653C98.9504 173.99 98.6117 174.159 98.2995 174.159C98.1538 174.159 98.0289 174.108 97.9268 174.005C97.8246 173.903 97.7735 173.774 97.7735 173.619C97.7735 173.38 97.8435 173.015 97.9835 172.52L98.3979 171.044C98.5001 170.69 98.5512 170.47 98.5512 170.385C98.5512 170.347 98.5379 170.315 98.5114 170.286C98.4849 170.26 98.4547 170.247 98.4225 170.247C98.3563 170.247 98.2882 170.271 98.2219 170.319C98.1557 170.366 98.0043 170.542 97.7678 170.849L97.6202 170.745C97.8586 170.375 98.1122 170.103 98.379 169.928C98.5833 169.792 98.7706 169.724 98.9409 169.724C99.0582 169.724 99.1547 169.762 99.2304 169.835C99.3042 169.911 99.3421 170.006 99.3421 170.125C99.3421 170.298 99.2777 170.605 99.151 171.048L98.7025 172.59C98.5777 173.011 98.5171 173.276 98.5171 173.388C98.5171 173.448 98.5379 173.498 98.5777 173.534C98.6174 173.57 98.6704 173.589 98.7366 173.589C98.8407 173.589 98.9788 173.536 99.1472 173.431C99.3156 173.327 99.5407 173.092 99.8227 172.732C100.105 172.372 100.335 172.031 100.519 171.715C100.703 171.398 100.897 170.895 101.104 170.203L101.208 169.839H101.932V169.834Z" fill="#F9F8F4"/>
<path d="M102.729 169.987L104.375 169.72L103.688 172.041C104.244 171.088 104.75 170.423 105.206 170.044C105.463 169.828 105.673 169.72 105.836 169.72C105.94 169.72 106.023 169.75 106.083 169.813C106.144 169.875 106.174 169.964 106.174 170.082C106.174 170.292 106.119 170.493 106.012 170.684C105.936 170.828 105.826 170.898 105.682 170.898C105.609 170.898 105.546 170.874 105.493 170.826C105.44 170.779 105.408 170.705 105.395 170.606C105.389 170.546 105.374 170.506 105.351 170.487C105.327 170.462 105.296 170.449 105.26 170.449C105.206 170.449 105.156 170.462 105.107 170.487C105.024 170.533 104.899 170.656 104.731 170.86C104.466 171.173 104.18 171.577 103.872 172.073C103.737 172.283 103.624 172.52 103.527 172.785C103.393 173.149 103.317 173.367 103.298 173.439L103.145 174.042H102.415L103.296 171.074C103.399 170.731 103.45 170.485 103.45 170.339C103.45 170.282 103.425 170.235 103.378 170.195C103.314 170.144 103.23 170.12 103.124 170.12C103.058 170.12 102.935 170.135 102.757 170.163L102.729 169.987Z" fill="#F9F8F4"/>
<path d="M106.821 172.241C106.799 172.401 106.787 172.533 106.787 172.637C106.787 172.922 106.888 173.162 107.088 173.361C107.289 173.56 107.531 173.661 107.819 173.661C108.048 173.661 108.267 173.613 108.479 173.52C108.691 173.426 109.005 173.219 109.421 172.897L109.521 173.035C108.768 173.784 108.049 174.157 107.364 174.157C106.901 174.157 106.551 174.011 106.314 173.717C106.08 173.424 105.961 173.102 105.961 172.747C105.961 172.274 106.106 171.787 106.4 171.29C106.693 170.794 107.06 170.407 107.501 170.133C107.943 169.858 108.398 169.72 108.865 169.72C109.202 169.72 109.451 169.788 109.614 169.924C109.777 170.061 109.858 170.224 109.858 170.411C109.858 170.677 109.754 170.928 109.544 171.171C109.268 171.486 108.861 171.741 108.324 171.935C107.968 172.067 107.467 172.168 106.821 172.241ZM106.856 172.007C107.327 171.952 107.709 171.861 108.006 171.73C108.398 171.556 108.691 171.345 108.886 171.101C109.081 170.856 109.179 170.625 109.179 170.406C109.179 170.271 109.137 170.163 109.052 170.082C108.967 169.998 108.848 169.957 108.693 169.957C108.369 169.957 108.025 170.129 107.66 170.476C107.294 170.822 107.026 171.332 106.856 172.007Z" fill="#F9F8F4"/>
<path d="M111.906 169.353C112.144 169.249 112.339 169.11 112.489 168.942C112.602 168.815 112.661 168.693 112.661 168.578C112.661 168.517 112.651 168.462 112.632 168.415C112.619 168.39 112.576 168.339 112.498 168.262C112.42 168.184 112.379 168.133 112.369 168.104C112.347 168.053 112.335 167.991 112.335 167.919C112.335 167.782 112.383 167.665 112.475 167.564C112.57 167.466 112.68 167.417 112.806 167.417C112.937 167.417 113.052 167.47 113.153 167.574C113.253 167.678 113.302 167.811 113.302 167.97C113.302 168.254 113.19 168.54 112.969 168.83C112.748 169.12 112.424 169.343 112 169.502L111.906 169.353Z" fill="#F9F8F4"/>
<path d="M115.531 169.72L115.239 171.186H115.063C115.048 170.76 114.957 170.449 114.791 170.254C114.626 170.059 114.42 169.962 114.176 169.962C113.979 169.962 113.822 170.017 113.707 170.125C113.591 170.233 113.533 170.364 113.533 170.517C113.533 170.622 113.555 170.722 113.603 170.819C113.648 170.913 113.75 171.048 113.905 171.22C114.318 171.673 114.587 172.012 114.708 172.241C114.829 172.471 114.889 172.687 114.889 172.891C114.889 173.223 114.751 173.517 114.477 173.772C114.202 174.028 113.854 174.157 113.434 174.157C113.205 174.157 112.94 174.102 112.643 173.994C112.539 173.956 112.458 173.937 112.399 173.937C112.255 173.937 112.148 174.011 112.076 174.157H111.9L112.191 172.609H112.367C112.386 173.094 112.486 173.435 112.668 173.636C112.85 173.837 113.097 173.937 113.412 173.937C113.654 173.937 113.845 173.869 113.987 173.734C114.129 173.6 114.199 173.433 114.199 173.236C114.199 173.109 114.174 172.992 114.123 172.882C114.034 172.691 113.847 172.427 113.563 172.088C113.279 171.751 113.096 171.497 113.014 171.328C112.933 171.16 112.893 170.991 112.893 170.822C112.893 170.514 113.005 170.252 113.23 170.04C113.455 169.826 113.743 169.72 114.096 169.72C114.199 169.72 114.289 169.727 114.373 169.744C114.418 169.754 114.522 169.79 114.685 169.852C114.85 169.915 114.957 169.945 115.012 169.945C115.148 169.945 115.264 169.871 115.357 169.722H115.531V169.72Z" fill="#F9F8F4"/>
<path d="M123.088 167.418L122.596 172.807C122.571 173.059 122.558 173.224 122.558 173.303C122.558 173.43 122.583 173.527 122.63 173.595C122.691 173.688 122.772 173.756 122.876 173.8C122.98 173.845 123.154 173.866 123.398 173.866L123.345 174.042H120.798L120.851 173.866H120.961C121.167 173.866 121.336 173.82 121.466 173.731C121.559 173.671 121.631 173.57 121.68 173.43C121.714 173.332 121.748 173.098 121.78 172.733L121.856 171.911H120.006L119.347 172.803C119.198 173.004 119.103 173.148 119.065 173.235C119.027 173.322 119.009 173.404 119.009 173.481C119.009 173.584 119.05 173.671 119.133 173.745C119.217 173.818 119.353 173.858 119.544 173.864L119.491 174.04H117.578L117.631 173.864C117.866 173.854 118.074 173.775 118.254 173.627C118.433 173.479 118.702 173.163 119.058 172.68L122.921 167.417H123.088V167.418ZM122.144 169.008L120.269 171.564H121.896L122.144 169.008Z" fill="#F9F8F4"/>
<path d="M126.842 167.251L125.901 170.551C126.206 170.233 126.473 170.015 126.7 169.898C126.927 169.78 127.165 169.722 127.413 169.722C127.763 169.722 128.049 169.837 128.272 170.07C128.495 170.303 128.605 170.618 128.605 171.016C128.605 171.529 128.459 172.039 128.166 172.546C127.873 173.054 127.506 173.45 127.065 173.732C126.622 174.017 126.187 174.157 125.758 174.157C125.277 174.157 124.785 173.977 124.278 173.617L125.727 168.615C125.839 168.23 125.894 168.003 125.894 167.937C125.894 167.853 125.869 167.793 125.818 167.751C125.744 167.694 125.636 167.666 125.495 167.666C125.428 167.666 125.326 167.677 125.19 167.7V167.518L126.842 167.251ZM124.995 173.67C125.313 173.844 125.593 173.933 125.835 173.933C126.115 173.933 126.405 173.831 126.705 173.624C127.006 173.42 127.267 173.073 127.487 172.586C127.706 172.099 127.818 171.607 127.818 171.11C127.818 170.817 127.746 170.587 127.6 170.423C127.455 170.258 127.284 170.174 127.088 170.174C126.793 170.174 126.503 170.294 126.219 170.531C125.935 170.767 125.735 171.099 125.614 171.521L124.995 173.67Z" fill="#F9F8F4"/>
<path d="M133.424 171.215C133.424 171.692 133.297 172.166 133.045 172.634C132.792 173.102 132.44 173.473 131.99 173.746C131.537 174.02 131.098 174.157 130.673 174.157C130.238 174.157 129.882 174.017 129.608 173.738C129.333 173.46 129.195 173.1 129.195 172.656C129.195 172.188 129.329 171.719 129.598 171.247C129.867 170.775 130.226 170.404 130.677 170.129C131.127 169.854 131.562 169.718 131.98 169.718C132.4 169.718 132.746 169.856 133.017 170.133C133.288 170.411 133.424 170.771 133.424 171.215ZM132.633 170.885C132.633 170.589 132.561 170.362 132.415 170.205C132.27 170.047 132.084 169.968 131.855 169.968C131.388 169.968 130.958 170.303 130.565 170.974C130.171 171.645 129.976 172.312 129.976 172.973C129.976 173.276 130.052 173.509 130.205 173.672C130.359 173.837 130.55 173.918 130.783 173.918C131.231 173.918 131.651 173.585 132.045 172.918C132.436 172.251 132.633 171.573 132.633 170.885Z" fill="#F9F8F4"/>
<path d="M139.076 167.251L137.435 172.887C137.346 173.192 137.301 173.393 137.301 173.49C137.301 173.522 137.314 173.552 137.341 173.581C137.367 173.609 137.396 173.624 137.424 173.624C137.466 173.624 137.515 173.604 137.572 173.562C137.679 173.486 137.861 173.295 138.115 172.988L138.277 173.088C138.048 173.406 137.817 173.664 137.583 173.861C137.348 174.058 137.131 174.157 136.926 174.157C136.818 174.157 136.73 174.119 136.66 174.041C136.59 173.963 136.555 173.857 136.555 173.717C136.555 173.535 136.603 173.293 136.699 172.986L136.885 172.393C136.423 173.105 136.003 173.6 135.625 173.873C135.363 174.06 135.114 174.155 134.875 174.155C134.633 174.155 134.423 174.047 134.243 173.833C134.064 173.619 133.975 173.325 133.975 172.956C133.975 172.482 134.126 171.974 134.427 171.436C134.73 170.898 135.129 170.46 135.625 170.123C136.016 169.852 136.376 169.718 136.703 169.718C136.875 169.718 137.023 169.752 137.146 169.822C137.271 169.892 137.392 170.008 137.513 170.171L137.98 168.509C138.014 168.392 138.045 168.297 138.065 168.227C138.103 168.1 138.122 167.994 138.122 167.912C138.122 167.846 138.097 167.789 138.05 167.745C137.984 167.691 137.897 167.664 137.793 167.664C137.719 167.664 137.598 167.675 137.43 167.698V167.522L139.076 167.251ZM137.307 170.64C137.307 170.436 137.248 170.273 137.131 170.148C137.013 170.023 136.864 169.962 136.682 169.962C136.281 169.962 135.865 170.294 135.43 170.955C134.995 171.616 134.779 172.251 134.779 172.855C134.779 173.094 134.832 173.276 134.936 173.403C135.04 173.53 135.167 173.592 135.312 173.592C135.644 173.592 136.058 173.234 136.557 172.518C137.057 171.802 137.307 171.177 137.307 170.64Z" fill="#F9F8F4"/>
<path d="M139.84 172.241C139.817 172.401 139.806 172.533 139.806 172.637C139.806 172.922 139.906 173.162 140.107 173.361C140.307 173.56 140.55 173.661 140.837 173.661C141.066 173.661 141.286 173.613 141.498 173.52C141.71 173.426 142.024 173.219 142.44 172.897L142.54 173.035C141.787 173.784 141.068 174.157 140.383 174.157C139.92 174.157 139.57 174.011 139.333 173.717C139.098 173.424 138.979 173.102 138.979 172.747C138.979 172.274 139.125 171.787 139.418 171.29C139.711 170.794 140.079 170.407 140.519 170.133C140.962 169.858 141.416 169.72 141.884 169.72C142.22 169.72 142.47 169.788 142.633 169.924C142.796 170.061 142.877 170.224 142.877 170.411C142.877 170.677 142.773 170.928 142.563 171.171C142.287 171.486 141.88 171.741 141.342 171.935C140.987 172.067 140.485 172.168 139.84 172.241ZM139.872 172.007C140.343 171.952 140.726 171.861 141.023 171.73C141.414 171.556 141.708 171.345 141.903 171.101C142.097 170.856 142.196 170.625 142.196 170.406C142.196 170.271 142.154 170.163 142.069 170.082C141.984 169.998 141.865 169.957 141.71 169.957C141.386 169.957 141.042 170.129 140.676 170.476C140.313 170.822 140.044 171.332 139.872 172.007Z" fill="#F9F8F4"/>
<path d="M148.379 171.6L148.184 172.235H145.713L145.908 171.6H148.379Z" fill="#F9F8F4"/>
<path d="M153.083 173.654C153.219 173.654 153.337 173.605 153.435 173.509C153.531 173.412 153.584 173.294 153.588 173.156V168.757C153.577 168.62 153.539 168.52 153.469 168.457C153.342 168.342 153.214 168.283 153.083 168.283H152.981V168.204H156.003C156.26 168.204 156.474 168.185 156.642 168.145C156.81 168.105 156.913 168.079 156.95 168.062V169.445L156.871 169.437V169.35C156.871 169.024 156.75 168.791 156.508 168.655C156.392 168.586 156.256 168.548 156.097 168.545H154.773V170.843H155.813C156.008 170.837 156.169 170.771 156.294 170.642C156.421 170.513 156.483 170.354 156.483 170.165V170.093H156.563V171.917H156.483V171.855C156.483 171.659 156.421 171.498 156.298 171.373C156.175 171.246 156.018 171.182 155.828 171.176H154.771V173.397H155.804C156.188 173.397 156.51 173.287 156.771 173.065C157.032 172.844 157.225 172.531 157.35 172.126H157.429L157.066 173.738H152.979V173.658H153.083V173.654Z" fill="#F9F8F4"/>
<path d="M157.991 173.085C157.991 172.742 158.067 172.451 158.22 172.208H158.283C158.277 172.244 158.275 172.28 158.275 172.31C158.275 172.633 158.389 172.913 158.617 173.155C158.846 173.398 159.166 173.519 159.577 173.519C159.872 173.519 160.099 173.451 160.26 173.315C160.421 173.178 160.5 173.025 160.5 172.856C160.5 172.687 160.455 172.551 160.362 172.449C160.269 172.346 160.118 172.227 159.908 172.089L158.788 171.378C158.315 171.083 158.078 170.704 158.078 170.241C158.078 170.194 158.08 170.145 158.086 170.092C158.118 169.719 158.262 169.425 158.519 169.211C158.776 168.997 159.081 168.891 159.431 168.891C159.781 168.891 160.15 168.915 160.54 168.963H160.966L160.856 170.005H160.784C160.784 169.756 160.699 169.563 160.527 169.421C160.356 169.279 160.129 169.207 159.847 169.207C159.565 169.207 159.344 169.266 159.181 169.385C159.019 169.504 158.937 169.66 158.937 169.855C158.937 170.012 159.017 170.151 159.174 170.266C159.236 170.313 159.329 170.374 159.45 170.448L160.704 171.223C161.136 171.486 161.352 171.85 161.352 172.312C161.352 172.801 161.179 173.178 160.835 173.442C160.491 173.705 160.044 173.836 159.497 173.836C159.161 173.836 158.863 173.796 158.606 173.716C158.349 173.637 158.16 173.536 158.039 173.417C158.006 173.322 157.991 173.212 157.991 173.085Z" fill="#F9F8F4"/>
<path d="M166.155 170.114V170.042C166.155 169.814 166.093 169.636 165.966 169.506C165.839 169.375 165.663 169.305 165.438 169.301H164.522V173.242C164.528 173.357 164.572 173.456 164.657 173.533C164.74 173.613 164.84 173.653 164.956 173.653H165.043V173.732H162.865V173.653H162.944C163.066 173.653 163.168 173.613 163.253 173.533C163.338 173.454 163.38 173.354 163.38 173.234V169.301H162.473C162.242 169.307 162.063 169.375 161.938 169.506C161.811 169.636 161.749 169.816 161.749 170.042V170.114H161.669V168.865C161.743 168.892 161.866 168.918 162.036 168.945C162.207 168.971 162.362 168.985 162.498 168.985H165.408C165.639 168.985 165.83 168.968 165.979 168.933C166.129 168.899 166.214 168.877 166.237 168.867V170.116H166.155V170.114Z" fill="#F9F8F4"/>
<path d="M171.298 169.622C171.777 170.041 172.015 170.621 172.015 171.363C172.015 172.106 171.775 172.686 171.298 173.105C170.821 173.523 170.157 173.732 169.309 173.732H166.643V173.652H166.746C166.867 173.652 166.969 173.61 167.054 173.525C167.137 173.442 167.183 173.341 167.188 173.226V169.482C167.177 169.366 167.13 169.268 167.046 169.19C166.963 169.112 166.859 169.071 166.738 169.071H166.643V168.991H169.309C170.157 168.993 170.819 169.203 171.298 169.622ZM169.217 173.417C169.71 173.417 170.102 173.235 170.388 172.872C170.674 172.508 170.817 172.006 170.817 171.363C170.817 170.721 170.674 170.217 170.388 169.851C170.102 169.486 169.71 169.302 169.217 169.302H168.325V173.417H169.217Z" fill="#F9F8F4"/>
<path d="M176.861 173.654H177.027V173.734H174.643V173.654H174.81C174.931 173.654 175.035 173.612 175.122 173.527C175.209 173.444 175.252 173.343 175.252 173.228V169.16C175.252 168.838 175.097 168.679 174.787 168.679H174.59V168.599C175.406 168.531 175.992 168.362 176.35 168.093H176.429V173.235C176.429 173.351 176.471 173.449 176.556 173.531C176.637 173.614 176.74 173.654 176.861 173.654Z" fill="#F9F8F4"/>
<path d="M179.661 171.189C179.877 171.189 180.06 171.113 180.214 170.96L180.268 171.032C180.174 171.189 180.041 171.321 179.875 171.426C179.633 171.579 179.375 171.655 179.101 171.655C178.764 171.655 178.46 171.549 178.185 171.338C178.023 171.217 177.89 171.043 177.792 170.814C177.691 170.584 177.642 170.323 177.642 170.027C177.642 169.453 177.82 168.993 178.178 168.644C178.547 168.292 179.067 168.116 179.741 168.116C180.645 168.116 181.264 168.476 181.595 169.198C181.769 169.571 181.856 170.024 181.856 170.552C181.856 171.081 181.782 171.56 181.634 171.986C181.319 172.907 180.736 173.525 179.882 173.836C179.498 173.972 179.073 174.04 178.605 174.04C178.516 174.04 178.424 174.038 178.329 174.033L178.297 173.978C179.027 173.756 179.572 173.428 179.93 172.991C180.234 172.617 180.424 172.108 180.497 171.465C180.53 171.191 180.545 170.872 180.545 170.511C180.545 169.815 180.484 169.306 180.363 168.982C180.242 168.658 180.021 168.497 179.701 168.497C179.496 168.497 179.328 168.565 179.196 168.701C178.969 168.932 178.857 169.323 178.857 169.87C178.857 170.687 179.078 171.121 179.519 171.174C179.566 171.185 179.614 171.189 179.661 171.189Z" fill="#F9F8F4"/>
<path d="M184.622 171.189C184.838 171.189 185.021 171.113 185.175 170.96L185.229 171.032C185.135 171.189 185.002 171.321 184.836 171.426C184.594 171.579 184.336 171.655 184.062 171.655C183.725 171.655 183.421 171.549 183.146 171.338C182.984 171.217 182.851 171.043 182.753 170.814C182.652 170.584 182.603 170.323 182.603 170.027C182.603 169.453 182.781 168.993 183.139 168.644C183.508 168.292 184.028 168.116 184.702 168.116C185.606 168.116 186.225 168.476 186.556 169.198C186.73 169.571 186.817 170.024 186.817 170.552C186.817 171.081 186.743 171.56 186.596 171.986C186.28 172.907 185.697 173.525 184.843 173.836C184.459 173.972 184.034 174.04 183.566 174.04C183.477 174.04 183.385 174.038 183.29 174.033L183.258 173.978C183.988 173.756 184.533 173.428 184.891 172.991C185.195 172.617 185.385 172.108 185.458 171.465C185.491 171.191 185.506 170.872 185.506 170.511C185.506 169.815 185.445 169.306 185.324 168.982C185.203 168.658 184.982 168.497 184.662 168.497C184.458 168.497 184.289 168.565 184.157 168.701C183.93 168.932 183.818 169.323 183.818 169.87C183.818 170.687 184.039 171.121 184.48 171.174C184.528 171.185 184.575 171.189 184.622 171.189Z" fill="#F9F8F4"/>
<path d="M189.735 170.78C189.525 170.78 189.343 170.854 189.19 171.001L189.135 170.939C189.282 170.696 189.5 170.52 189.789 170.41C189.958 170.348 190.119 170.316 190.27 170.316C190.423 170.316 190.563 170.331 190.692 170.359C190.821 170.388 190.951 170.444 191.082 170.53C191.534 170.825 191.759 171.306 191.759 171.975C191.759 172.502 191.583 172.945 191.231 173.302C190.862 173.671 190.344 173.855 189.674 173.855C189.004 173.855 188.482 173.648 188.107 173.235C187.735 172.822 187.547 172.212 187.547 171.407C187.547 170.359 187.837 169.51 188.416 168.864C188.7 168.548 189.052 168.315 189.474 168.161C189.894 168.008 190.346 167.932 190.83 167.932C190.91 167.932 190.991 167.934 191.074 167.94L191.106 167.995C190.37 168.226 189.824 168.557 189.466 168.989C189.161 169.363 188.972 169.874 188.898 170.522C188.872 170.791 188.859 171.111 188.859 171.486C188.859 172.161 188.919 172.661 189.04 172.987C189.161 173.313 189.383 173.476 189.702 173.476C189.907 173.476 190.075 173.408 190.208 173.271C190.433 173.034 190.546 172.642 190.546 172.095C190.546 171.289 190.329 170.857 189.892 170.799C189.841 170.784 189.788 170.78 189.735 170.78Z" fill="#F9F8F4"/>
<path d="M102.179 182.086C102.179 182.329 102.129 182.554 102.031 182.763C101.849 183.153 101.531 183.426 101.075 183.579C100.917 183.634 100.778 183.663 100.663 183.663C100.322 183.663 100.029 183.6 99.7813 183.473V183.39C100.182 183.477 100.553 183.433 100.892 183.257C101.193 183.104 101.399 182.85 101.509 182.499C101.541 182.389 101.558 182.285 101.558 182.187C101.558 182.088 101.558 182.027 101.558 182.005C101.547 181.62 101.446 181.313 101.253 181.086C101.06 180.858 100.792 180.743 100.447 180.743H99.5013V185.665C99.507 185.807 99.5599 185.93 99.6621 186.033C99.7643 186.135 99.8854 186.184 100.029 186.184H100.137V186.268H98.3339V186.184H98.4417C98.5836 186.184 98.7066 186.133 98.8088 186.033C98.9109 185.93 98.9639 185.809 98.9696 185.665V181.057C98.9526 180.921 98.8958 180.805 98.7974 180.714C98.699 180.624 98.5798 180.578 98.4436 180.578H98.3452L98.3376 180.497H100.487C101.015 180.497 101.427 180.639 101.73 180.921C102.027 181.203 102.179 181.592 102.179 182.086Z" fill="#F9F8F4"/>
<path d="M103.075 186.185C103.208 186.185 103.317 186.143 103.408 186.058C103.499 185.972 103.546 185.87 103.552 185.749V181.833C103.552 181.711 103.505 181.611 103.412 181.528C103.319 181.446 103.206 181.404 103.075 181.404H102.96V181.321H105.365C105.59 181.321 105.786 181.304 105.957 181.272C106.127 181.24 106.237 181.211 106.286 181.188V182.128L106.195 182.121V181.997C106.195 181.882 106.157 181.783 106.08 181.7C106.002 181.617 105.904 181.577 105.783 181.577H104.07V183.67H105.478C105.588 183.67 105.671 183.638 105.73 183.572C105.786 183.506 105.817 183.424 105.817 183.324V183.216H105.908V184.37H105.817V184.262C105.817 184.108 105.76 184.004 105.645 183.949C105.601 183.932 105.554 183.922 105.505 183.917H104.072V186.01H105.365C105.616 186.01 105.83 185.967 106.002 185.878C106.174 185.789 106.307 185.684 106.398 185.565C106.488 185.444 106.579 185.285 106.674 185.088H106.757L106.305 186.266H102.962V186.183H103.075V186.185Z" fill="#F9F8F4"/>
<path d="M112.988 181.403C112.867 181.403 112.763 181.443 112.676 181.522C112.589 181.602 112.542 181.7 112.536 181.814V185.327C112.536 185.645 112.555 185.948 112.593 186.234L112.61 186.382H112.536L108.254 182.318V185.755C108.254 185.876 108.298 185.977 108.386 186.06C108.474 186.143 108.581 186.183 108.708 186.183H108.848V186.267H107.293V186.183H107.433C107.56 186.183 107.666 186.141 107.755 186.06C107.842 185.977 107.887 185.876 107.887 185.755V182.227C107.887 181.892 107.868 181.592 107.83 181.329L107.813 181.196L107.904 181.204L112.176 185.236V181.814C112.165 181.698 112.116 181.602 112.029 181.522C111.942 181.443 111.836 181.403 111.717 181.403H111.577V181.319H113.132V181.403H112.988Z" fill="#F9F8F4"/>
<path d="M119.321 181.403C119.2 181.403 119.096 181.443 119.009 181.522C118.922 181.602 118.874 181.7 118.869 181.814V185.327C118.869 185.645 118.888 185.948 118.925 186.234L118.942 186.382H118.869L114.587 182.318V185.755C114.587 185.876 114.63 185.977 114.719 186.06C114.806 186.143 114.914 186.183 115.041 186.183H115.181V186.267H113.626V186.183H113.766C113.892 186.183 113.998 186.141 114.087 186.06C114.174 185.977 114.22 185.876 114.22 185.755V182.227C114.22 181.892 114.201 181.592 114.163 181.329L114.146 181.196L114.237 181.204L118.509 185.236V181.814C118.498 181.698 118.449 181.602 118.362 181.522C118.274 181.443 118.169 181.403 118.049 181.403H117.909V181.319H119.465V181.403H119.321Z" fill="#F9F8F4"/>
<path d="M120.225 185.995C120.208 185.928 120.201 185.794 120.201 185.591C120.201 185.388 120.237 185.182 120.309 184.973H120.407C120.401 185.023 120.399 185.072 120.399 185.121C120.399 185.419 120.496 185.661 120.691 185.851C120.886 186.04 121.156 186.135 121.502 186.135C121.864 186.135 122.148 186.051 122.35 185.883C122.553 185.716 122.655 185.498 122.655 185.231C122.655 184.964 122.556 184.744 122.358 184.568L120.712 183.299C120.449 183.073 120.316 182.77 120.316 182.391C120.316 182.177 120.375 181.978 120.494 181.798C120.611 181.616 120.776 181.472 120.988 181.364C121.2 181.256 121.448 181.203 121.733 181.203C122.019 181.203 122.271 181.228 122.49 181.277H122.763L122.78 182.175H122.689C122.689 181.944 122.609 181.766 122.45 181.639C122.291 181.512 122.064 181.449 121.767 181.449C121.47 181.449 121.226 181.525 121.035 181.677C120.842 181.828 120.747 182.023 120.747 182.262C120.747 182.501 120.855 182.709 121.069 182.886L122.732 184.172C122.984 184.38 123.111 184.672 123.111 185.045C123.111 185.419 122.969 185.735 122.687 185.993C122.405 186.25 122.061 186.379 121.654 186.379C121.385 186.379 121.116 186.347 120.848 186.281C120.573 186.216 120.367 186.12 120.225 185.995Z" fill="#F9F8F4"/>
<path d="M128.863 181.402H128.764C128.617 181.402 128.475 181.441 128.34 181.521C128.206 181.601 128.094 181.701 128.007 181.822L126.428 184.221V185.738C126.428 185.86 126.475 185.964 126.568 186.051C126.66 186.138 126.774 186.184 126.904 186.184H127.003V186.267H125.315V186.184H125.413C125.546 186.184 125.657 186.14 125.75 186.051C125.843 185.964 125.89 185.86 125.89 185.738V184.213L124.367 181.815C124.18 181.54 123.928 181.402 123.61 181.402H123.512V181.318H125.423V181.402H125.324C125.22 181.402 125.145 181.434 125.097 181.5C125.05 181.566 125.027 181.623 125.027 181.669C125.027 181.716 125.033 181.758 125.044 181.796L126.246 183.931L127.523 181.803C127.54 181.76 127.548 181.714 127.548 181.667C127.548 181.62 127.525 181.565 127.478 181.498C127.43 181.432 127.353 181.4 127.243 181.4H127.145V181.316H128.865V181.402H128.863Z" fill="#F9F8F4"/>
<path d="M129.388 186.184C129.521 186.184 129.631 186.142 129.721 186.057C129.812 185.972 129.86 185.869 129.865 185.748V181.849C129.86 181.728 129.809 181.623 129.714 181.536C129.617 181.449 129.504 181.404 129.371 181.404H129.273V181.32H130.978V181.404H130.879C130.747 181.404 130.633 181.447 130.537 181.536C130.44 181.625 130.393 181.73 130.393 181.849V186.011H131.678C131.93 186.011 132.143 185.968 132.319 185.879C132.495 185.792 132.628 185.686 132.719 185.566C132.809 185.447 132.898 185.286 132.985 185.089H133.069L132.616 186.267H129.273V186.184H129.388Z" fill="#F9F8F4"/>
<path d="M137.943 181.403H137.876C137.755 181.403 137.638 181.442 137.523 181.522C137.407 181.602 137.309 181.721 137.226 181.88C136.028 184.453 135.405 185.798 135.356 185.92C135.263 186.151 135.214 186.304 135.209 186.382H135.135L133.101 181.89C132.942 181.566 132.73 181.403 132.467 181.403H132.401V181.319H134.088V181.403H134.022C133.918 181.403 133.841 181.441 133.788 181.514C133.735 181.588 133.71 181.657 133.71 181.717C133.71 181.778 133.718 181.84 133.735 181.907L135.209 185.501L136.724 181.924C136.751 181.852 136.766 181.785 136.766 181.721C136.766 181.658 136.737 181.588 136.684 181.514C136.63 181.441 136.546 181.403 136.437 181.403H136.38V181.319H137.945V181.403H137.943Z" fill="#F9F8F4"/>
<path d="M142.627 186.184H142.694V186.268H141.006V186.184H141.072C141.176 186.184 141.256 186.148 141.31 186.076C141.365 186.004 141.392 185.938 141.392 185.873C141.392 185.811 141.38 185.748 141.36 185.688L140.907 184.591H138.824L138.372 185.663C138.344 185.735 138.33 185.801 138.33 185.866C138.33 185.928 138.357 185.998 138.414 186.072C138.469 186.146 138.55 186.184 138.66 186.184H138.726V186.268H137.154V186.184H137.22C137.335 186.184 137.451 186.144 137.57 186.065C137.687 185.985 137.786 185.866 137.861 185.707C139.063 183.134 139.689 181.789 139.738 181.667C139.831 181.436 139.88 181.283 139.886 181.205H139.96L141.993 185.707C142.152 186.025 142.364 186.184 142.627 186.184ZM138.932 184.344H140.809L139.888 182.086L138.932 184.344Z" fill="#F9F8F4"/>
<path d="M148.638 181.403C148.517 181.403 148.413 181.443 148.326 181.522C148.239 181.602 148.192 181.7 148.186 181.814V185.327C148.186 185.645 148.205 185.948 148.243 186.234L148.26 186.382H148.186L143.904 182.318V185.755C143.904 185.876 143.948 185.977 144.037 186.06C144.124 186.143 144.232 186.183 144.358 186.183H144.498V186.267H142.943V186.183H143.083C143.21 186.183 143.316 186.141 143.405 186.06C143.492 185.977 143.537 185.876 143.537 185.755V182.227C143.537 181.892 143.518 181.592 143.48 181.329L143.463 181.196L143.554 181.204L147.826 185.236V181.814C147.815 181.698 147.766 181.602 147.679 181.522C147.592 181.443 147.486 181.403 147.367 181.403H147.227V181.319H148.782V181.403H148.638Z" fill="#F9F8F4"/>
<path d="M149.634 186.185C149.781 186.185 149.91 186.141 150.021 186.052C150.131 185.965 150.186 185.861 150.186 185.739V181.848C150.186 181.727 150.131 181.622 150.021 181.535C149.912 181.448 149.779 181.403 149.626 181.403H149.518V181.319H151.378V181.403H151.27C151.123 181.403 150.994 181.444 150.888 181.526C150.78 181.609 150.722 181.71 150.71 181.831V185.747C150.716 185.868 150.773 185.971 150.882 186.056C150.992 186.141 151.121 186.183 151.268 186.183H151.376L151.384 186.266H149.514V186.183H149.634V186.185Z" fill="#F9F8F4"/>
<path d="M157.266 186.184H157.333V186.268H155.645V186.184H155.711C155.815 186.184 155.895 186.148 155.95 186.076C156.004 186.004 156.031 185.938 156.031 185.873C156.031 185.811 156.02 185.748 155.999 185.688L155.547 184.591H153.463L153.011 185.663C152.983 185.735 152.97 185.801 152.97 185.866C152.97 185.928 152.996 185.998 153.053 186.072C153.108 186.146 153.189 186.184 153.299 186.184H153.365V186.268H151.793V186.184H151.859C151.974 186.184 152.09 186.144 152.209 186.065C152.326 185.985 152.425 185.866 152.5 185.707C153.702 183.134 154.328 181.789 154.377 181.667C154.47 181.436 154.519 181.283 154.525 181.205H154.599L156.633 185.707C156.792 186.025 157.003 186.184 157.266 186.184ZM153.569 184.344H155.446L154.525 182.086L153.569 184.344Z" fill="#F9F8F4"/>
<path d="M157.662 186.936C157.809 186.886 157.91 186.818 157.963 186.729C158.016 186.64 158.04 186.576 158.04 186.532C158.04 186.394 157.985 186.265 157.876 186.146C157.792 186.047 157.747 185.979 157.736 185.939C157.718 185.861 157.724 185.791 157.753 185.725C157.802 185.615 157.893 185.56 158.025 185.56C158.19 185.56 158.301 185.636 158.362 185.787C158.422 185.939 158.453 186.06 158.453 186.155C158.453 186.441 158.35 186.663 158.148 186.822C158.01 186.937 157.855 186.998 157.679 187.004L157.662 186.936Z" fill="#F9F8F4"/>
<path d="M166.923 180.578H166.791C166.675 180.578 166.575 180.616 166.49 180.69C166.405 180.764 166.36 180.857 166.354 180.966V184.231C166.354 184.873 166.151 185.394 165.745 185.788C165.338 186.184 164.799 186.381 164.123 186.381C163.448 186.381 162.901 186.184 162.481 185.792C162.061 185.4 161.851 184.881 161.851 184.238V180.989C161.851 180.824 161.779 180.703 161.637 180.625C161.571 180.593 161.497 180.576 161.416 180.576H161.283V180.495H162.954V180.576H162.821C162.7 180.576 162.6 180.614 162.517 180.688C162.433 180.762 162.39 180.857 162.384 180.972V184.121C162.384 184.72 162.545 185.203 162.865 185.572C163.187 185.94 163.616 186.126 164.153 186.126C164.691 186.126 165.128 185.951 165.463 185.603C165.798 185.254 165.964 184.796 165.964 184.229V180.972C165.958 180.857 165.915 180.762 165.832 180.688C165.75 180.614 165.648 180.576 165.527 180.576H165.395V180.495H166.918V180.578H166.923Z" fill="#F9F8F4"/>
<path d="M167.837 185.928C167.82 185.851 167.813 185.703 167.813 185.483C167.813 185.263 167.854 185.03 167.936 184.782H168.01C168.004 184.843 168.002 184.903 168.002 184.964C168.002 185.299 168.104 185.578 168.307 185.801C168.509 186.025 168.778 186.135 169.113 186.135C169.459 186.135 169.743 186.031 169.964 185.822C170.186 185.614 170.297 185.35 170.297 185.034C170.297 184.718 170.189 184.462 169.975 184.263L168.396 182.795C168.099 182.52 167.951 182.186 167.951 181.798C167.951 181.41 168.082 181.074 168.343 180.796C168.604 180.517 168.956 180.379 169.4 180.379C169.608 180.379 169.845 180.407 170.108 180.46H170.43V181.474H170.356C170.356 181.216 170.267 181.01 170.089 180.856C169.911 180.703 169.682 180.625 169.402 180.625C169.122 180.625 168.888 180.718 168.698 180.906C168.509 181.093 168.415 181.326 168.415 181.607C168.415 181.887 168.524 182.13 168.744 182.332L170.365 183.833C170.64 184.085 170.778 184.432 170.778 184.871C170.778 185.311 170.638 185.672 170.358 185.955C170.078 186.237 169.705 186.379 169.238 186.379C168.995 186.379 168.74 186.341 168.468 186.267C168.195 186.195 167.985 186.082 167.837 185.928Z" fill="#F9F8F4"/>
<path d="M177.141 186.183H177.207V186.267H175.354V186.183H175.428C175.544 186.183 175.631 186.146 175.687 186.072C175.744 185.998 175.775 185.928 175.775 185.861C175.775 185.795 175.763 185.729 175.742 185.664L175.214 184.262H172.991L172.439 185.672C172.416 185.738 172.407 185.803 172.407 185.865C172.407 185.928 172.435 185.998 172.494 186.072C172.55 186.146 172.637 186.183 172.753 186.183H172.827V186.267H171.171V186.183H171.245C171.381 186.183 171.517 186.14 171.648 186.051C171.78 185.964 171.886 185.833 171.97 185.664L173.829 181.229C174.032 180.784 174.134 180.502 174.134 180.38H174.208L176.414 185.664C176.492 185.835 176.596 185.964 176.726 186.051C176.861 186.14 176.997 186.183 177.141 186.183ZM173.09 184.014H175.114L174.127 181.367L173.09 184.014Z" fill="#F9F8F4"/>
</svg>
