<svg width="276" height="276" viewBox="0 0 276 276" fill="none" xmlns="http://www.w3.org/2000/svg">
<g clip-path="url(#clip0)">
<path d="M82.0123 122.736C81.7902 110.635 90.2449 99.2447 102.746 96.5981C116.664 93.6508 129.091 101.95 133.195 114.095C134.427 117.741 134.884 121.487 134.504 125.283C133.318 137.164 124.958 146.143 114.626 148.772C113.606 149.032 112.583 149.249 111.524 149.193C110.557 149.144 109.864 148.534 109.68 147.61C109.521 146.817 110.09 145.819 110.945 145.51C111.435 145.332 111.958 145.241 112.472 145.143C121.345 143.479 128.647 136.044 130.274 127.053C132.349 115.593 125.997 105.411 116.429 101.566C113.805 100.511 111.083 100.074 108.244 100.05C104.289 100.018 100.631 100.983 97.2406 102.976C91.3802 106.422 87.6243 111.51 86.3053 118.275C84.1816 129.169 89.7411 138.626 97.8249 142.929C98.2885 143.176 98.7486 143.431 99.1912 143.713C100.257 144.389 100.314 146.431 98.8868 147.093C98.4407 147.299 98.0103 147.409 97.545 147.21C97.1164 147.027 96.6773 146.862 96.268 146.637C88.5515 142.408 83.8649 135.93 82.2922 127.15C82.189 126.569 82.0526 125.987 82.0228 125.4C81.9791 124.513 82.0123 123.623 82.0123 122.736Z" fill="#572DFF"/>
<path d="M139.164 178.471C139.138 178.004 139.087 177.659 139.105 177.317C139.176 175.96 139.269 174.603 139.355 173.246C139.54 170.295 139.724 167.346 139.909 164.395C139.92 164.217 139.944 164.041 139.953 163.865C140.107 160.735 140.256 157.604 140.415 154.474C140.536 152.112 140.667 149.749 140.8 147.387C140.814 147.153 140.851 146.916 140.892 146.685C141.095 145.586 141.29 145.397 142.383 145.369C144.288 145.319 144.466 145.507 144.351 147.313C144.185 149.908 143.991 152.501 143.807 155.096C143.786 155.391 143.739 155.685 143.721 155.98C143.573 158.518 143.447 161.058 143.273 163.595C143.116 165.894 142.896 168.189 142.728 170.489C142.654 171.492 142.626 172.499 142.61 173.504C142.607 173.767 142.721 174.03 142.775 174.267C143.352 174.292 143.45 173.941 143.532 173.596C143.882 172.102 144.23 170.606 144.568 169.109C146.204 161.85 147.832 154.589 149.471 147.332C149.599 146.763 149.776 146.206 149.942 145.6C150.407 145.513 150.796 145.385 151.188 145.376C152.293 145.353 153.402 145.347 154.508 145.394C155.299 145.426 155.507 145.675 155.519 146.519C155.529 147.169 155.484 147.82 155.44 148.469C155.409 148.94 155.32 149.408 155.293 149.881C155.153 152.421 155.022 154.961 154.891 157.499C154.809 159.093 154.732 160.688 154.655 162.282C154.482 165.886 154.301 169.489 154.144 173.095C154.126 173.486 154.233 173.883 154.303 174.455C154.604 174.228 154.854 174.137 154.919 173.971C155.09 173.536 155.204 173.073 155.3 172.614C156.628 166.256 157.949 159.895 159.273 153.536C159.742 151.281 160.204 149.026 160.685 146.774C160.942 145.571 161.14 145.411 162.315 145.374C162.721 145.361 163.132 145.372 163.536 145.42C164.084 145.484 164.343 145.835 164.247 146.42C164.133 147.119 163.972 147.809 163.82 148.501C161.761 157.842 159.702 167.184 157.637 176.524C157.499 177.152 157.328 177.771 157.162 178.434C156.74 178.511 156.408 178.617 156.075 178.621C154.678 178.639 153.278 178.644 151.88 178.617C151.172 178.603 150.939 178.319 150.978 177.623C151.196 173.609 151.413 169.592 151.641 165.578C151.863 161.622 152.09 157.668 152.325 153.712C152.388 152.651 152.501 151.592 152.563 150.53C152.582 150.182 152.536 149.812 152.052 149.68C151.527 150.039 151.485 150.646 151.359 151.206C150.776 153.8 150.196 156.391 149.622 158.986C148.322 164.866 147.029 170.75 145.726 176.631C145.598 177.203 145.411 177.762 145.257 178.315C144.281 178.875 143.27 178.591 142.304 178.619C141.323 178.64 140.331 178.726 139.164 178.471Z" fill="#F9F8F4"/>
<path d="M103.774 171.67C104.49 171.716 105.001 171.772 105.513 171.777C106.794 171.791 108.076 171.757 109.357 171.798C109.869 171.814 110.408 171.896 110.882 172.086C112.453 172.718 113.167 174.144 112.899 175.973C112.68 177.465 111.496 178.538 109.888 178.678C109.425 178.719 108.958 178.719 108.492 178.719C103.309 178.721 98.1274 178.721 92.944 178.719C92.4787 178.719 92.0116 178.68 91.548 178.692C89.9858 178.735 88.4691 177.401 88.3362 175.356C88.2277 173.677 89.671 172.029 91.3958 171.816C91.9696 171.745 92.5592 171.784 93.1417 171.782C94.8893 171.777 96.6352 171.795 98.3828 171.768C99.3922 171.752 99.6424 171.53 99.7823 170.575C100.041 168.823 100.272 167.067 100.512 165.311C100.944 162.153 101.381 158.995 101.806 155.836C102.207 152.852 102.588 149.865 102.991 146.881C103.377 144.014 103.781 141.15 104.173 138.283C104.478 136.059 104.78 133.838 105.078 131.613C105.454 128.804 105.819 125.994 106.201 123.187C106.248 122.838 106.346 122.49 106.463 122.157C106.864 121.022 108.108 120.519 109.173 121.067C109.729 121.353 110.072 121.835 110.095 122.476C110.118 123.123 110.128 123.783 110.044 124.423C109.673 127.232 109.266 130.037 108.876 132.844C108.575 135.006 108.279 137.171 107.987 139.336C107.71 141.383 107.446 143.432 107.168 145.481C106.74 148.64 106.307 151.797 105.872 154.956C105.461 157.939 105.037 160.918 104.632 163.903C104.336 166.067 104.054 168.234 103.783 170.402C103.738 170.743 103.774 171.097 103.774 171.67Z" fill="#572DFF"/>
<path d="M156.394 107.622C156.677 107.574 156.957 107.487 157.235 107.487C159.392 107.476 161.547 107.458 163.704 107.497C164.336 107.508 164.98 107.636 165.592 107.807C166.981 108.194 167.66 109.018 167.759 110.459C167.817 111.282 167.836 112.125 167.733 112.942C167.382 115.697 166.963 118.441 166.577 121.191C166.279 123.297 165.989 125.405 165.697 127.511C165.324 130.204 164.987 132.9 164.569 135.584C164.434 136.452 164.168 137.318 163.829 138.13C163.237 139.544 162.107 140.465 160.627 140.559C157.956 140.728 155.272 140.714 152.592 140.726C151.812 140.73 151.592 140.364 151.704 139.561C152.458 134.24 153.227 128.918 153.967 123.594C154.602 119.03 155.195 114.459 155.829 109.895C155.934 109.146 155.997 108.371 156.394 107.622ZM155.909 137.559C157.09 138.017 158.183 137.763 159.257 137.562C159.849 137.45 160.304 137.014 160.54 136.445C160.743 135.96 160.916 135.444 160.996 134.924C161.367 132.532 161.705 130.133 162.044 127.735C162.607 123.758 163.167 119.781 163.724 115.804C163.855 114.868 164.007 113.932 164.082 112.99C164.192 111.601 163.64 110.822 162.326 110.574C161.418 110.404 160.48 110.293 159.557 110.79C159.452 111.106 159.285 111.432 159.236 111.773C158.119 119.727 157.009 127.682 155.916 135.639C155.841 136.214 155.909 136.81 155.909 137.559Z" fill="#F9F8F4"/>
<path d="M126.905 178.97C126.089 179.08 125.171 178.892 124.303 178.545C122.823 177.954 121.926 176.85 121.858 175.199C121.816 174.2 121.816 173.182 121.943 172.192C122.48 168.038 123.063 163.89 123.649 159.743C124.078 156.705 124.524 153.67 124.989 150.638C125.087 150.001 125.239 149.359 125.47 148.759C126.259 146.719 127.771 145.479 129.88 145.177C131.133 144.997 132.448 144.987 133.703 145.158C136.323 145.517 137.096 147.055 137.315 149.021C137.387 149.658 137.32 150.321 137.236 150.961C136.818 154.118 136.379 157.274 135.937 160.429C135.518 163.408 135.085 166.386 134.663 169.365C134.506 170.475 134.371 171.589 134.213 172.698C134.156 173.106 134.07 173.51 133.984 173.912C133.395 176.718 131.644 178.812 127.737 178.968C127.505 178.977 127.27 178.97 126.905 178.97ZM125.481 173.138C125.481 173.419 125.47 173.599 125.482 173.775C125.587 175.294 126.637 176.108 128.11 175.836C129.037 175.664 129.725 175.16 130.106 174.294C130.318 173.814 130.486 173.294 130.559 172.777C130.951 170.034 131.297 167.286 131.677 164.541C131.959 162.498 132.273 160.459 132.56 158.416C132.912 155.904 133.265 153.395 133.58 150.878C133.636 150.424 133.563 149.933 133.451 149.485C133.241 148.656 132.655 148.21 131.829 148.094C130.577 147.918 129.523 148.475 128.979 149.652C128.787 150.072 128.666 150.542 128.596 151.002C128.329 152.751 128.096 154.503 127.846 156.255C127.19 160.865 126.527 165.474 125.874 170.086C125.724 171.135 125.601 172.19 125.481 173.138Z" fill="#F9F8F4"/>
<path d="M188.719 178.38C187.811 178.728 187.109 178.629 186.42 178.604C185.813 178.582 185.606 178.356 185.533 177.732C185.416 176.734 185.299 175.736 185.213 174.735C185.066 173.028 184.942 171.32 184.809 169.611C184.767 169.082 184.783 168.538 184.272 168.033C183.455 168.033 182.542 168.033 181.522 168.033C181.376 168.503 181.181 168.929 181.118 169.376C180.733 172.065 180.381 174.758 180.015 177.449C179.89 178.381 179.699 178.582 178.81 178.613C178.119 178.636 177.426 178.602 176.658 178.591C176.559 178.175 176.394 177.842 176.421 177.526C176.518 176.35 176.655 175.176 176.819 174.008C177.348 170.267 177.909 166.53 178.432 162.788C178.954 159.045 179.44 155.296 179.949 151.552C180.171 149.914 180.406 148.277 180.649 146.641C180.79 145.693 181.063 145.389 182.017 145.383C184.403 145.369 186.791 145.392 189.177 145.463C189.738 145.479 190.337 145.652 190.844 145.906C191.743 146.355 192.233 147.162 192.266 148.188C192.296 149.133 192.354 150.093 192.228 151.024C191.714 154.826 191.138 158.619 190.578 162.414C190.337 164.047 189.697 165.479 188.416 166.544C187.849 167.016 187.744 167.597 187.821 168.287C188.129 171.046 188.432 173.805 188.71 176.567C188.768 177.145 188.719 177.73 188.719 178.38ZM184.268 148.583C184.163 148.791 184.006 148.989 183.966 149.206C183.806 150.074 183.673 150.947 183.549 151.82C183.105 154.967 182.668 158.113 182.234 161.262C182.104 162.195 181.973 163.127 181.88 164.065C181.823 164.646 182.092 164.97 182.657 165.009C183.234 165.05 183.819 165.061 184.396 165.025C185.874 164.938 186.581 164.346 186.919 162.83C187.135 161.857 187.244 160.858 187.389 159.869C187.797 157.073 188.208 154.279 188.596 151.481C188.661 151.018 188.664 150.534 188.615 150.07C188.516 149.131 187.972 148.539 187.055 148.455C186.14 148.375 185.208 148.293 184.268 148.583Z" fill="#F9F8F4"/>
<path d="M181.301 107.503C181.478 107.505 181.627 107.64 181.648 107.818C181.711 108.342 181.775 108.728 181.767 109.111C181.718 111.297 181.628 113.483 181.576 115.669C181.509 118.449 181.474 121.229 181.413 124.009C181.298 129.094 181.174 134.178 181.051 139.263C181.046 139.499 181.051 139.741 181.004 139.969C180.925 140.341 180.703 140.607 180.318 140.68C180.091 140.723 179.856 140.75 179.625 140.757C177.409 140.81 177.44 140.556 177.519 138.59C177.563 137.468 177.694 136.349 177.699 135.227C177.705 134.211 177.43 133.937 176.471 133.905C175.308 133.868 174.141 133.868 172.978 133.898C171.919 133.927 171.701 134.108 171.398 135.184C171.111 136.207 170.877 137.244 170.623 138.276C170.567 138.505 170.532 138.74 170.471 138.967C170.016 140.684 169.852 140.816 168.053 140.753C167.661 140.739 167.273 140.631 166.89 140.568C166.617 139.819 166.928 139.202 167.075 138.599C167.961 134.989 168.889 131.387 169.801 127.783C171.318 121.775 172.813 115.761 174.356 109.758C174.974 107.355 174.661 107.464 177.234 107.474C178.534 107.48 179.834 107.492 181.301 107.503ZM172.917 130.682C173.226 130.745 173.611 130.885 173.996 130.889C175.042 130.898 176.09 130.88 177.131 130.798C177.346 130.78 177.586 130.467 177.72 130.236C177.829 130.049 177.81 129.779 177.822 129.544C177.92 127.419 178.028 125.293 178.103 123.166C178.221 119.916 178.315 116.666 178.417 113.415C178.431 112.942 178.45 112.469 178.432 111.996C178.424 111.766 178.375 111.521 178.277 111.318C178.21 111.179 178.035 111.033 177.89 111.014C177.743 110.994 177.489 111.08 177.435 111.195C177.234 111.617 177.056 112.058 176.938 112.512C176.599 113.826 176.296 115.149 175.976 116.467C174.958 120.652 173.942 124.838 172.917 129.023C172.792 129.539 172.591 130.042 172.917 130.682Z" fill="#F9F8F4"/>
<path d="M168.101 145.538C168.762 145.461 169.215 145.369 169.668 145.365C171.531 145.347 173.396 145.356 175.259 145.36C175.549 145.36 175.841 145.374 176.13 145.417C176.601 145.486 176.891 145.787 176.837 146.258C176.765 146.893 176.604 147.519 176.478 148.165C174.818 148.693 173.158 148.161 171.487 148.565C171.354 148.924 171.143 149.289 171.09 149.677C170.648 152.894 170.23 156.116 169.815 159.337C169.785 159.564 169.832 159.803 169.85 160.153C170.231 160.238 170.604 160.381 170.983 160.397C171.972 160.438 172.964 160.402 173.952 160.438C174.538 160.459 174.799 160.795 174.699 161.377C174.601 161.955 174.445 162.522 174.318 163.075C173.504 163.565 172.67 163.312 171.876 163.367C171.071 163.422 170.249 163.275 169.386 163.593C169.239 164.025 169.017 164.45 168.954 164.9C168.538 167.883 168.157 170.87 167.765 173.856C167.742 174.032 167.728 174.21 167.717 174.386C167.656 175.432 167.8 175.597 168.881 175.644C169.462 175.668 170.046 175.649 170.628 175.656C171.094 175.663 171.559 175.676 172.024 175.702C172.133 175.708 172.238 175.781 172.451 175.864C172.913 176.761 172.502 177.591 172.18 178.349C172.026 178.454 171.979 178.514 171.93 178.516C169.371 178.545 166.811 178.582 164.252 178.584C163.71 178.584 163.463 178.205 163.538 177.602C163.64 176.782 163.755 175.964 163.874 175.146C164.416 171.405 164.98 167.668 165.499 163.926C166.139 159.306 166.736 154.68 167.371 150.059C167.574 148.604 167.838 147.156 168.101 145.538Z" fill="#F9F8F4"/>
<path d="M151.952 107.705C152.006 107.985 152.09 108.212 152.09 108.44C152.088 110.267 151.919 110.434 150.091 110.459C149.333 110.47 148.576 110.443 147.82 110.482C146.83 110.534 146.609 110.743 146.456 111.729C146.226 113.187 146.009 114.646 145.801 116.108C145.576 117.686 145.352 119.263 145.156 120.845C145.1 121.298 145.147 121.764 145.147 122.218C146.664 123.064 148.357 122.182 149.823 122.933C149.869 123.189 149.942 123.418 149.942 123.646C149.933 125.396 149.671 125.649 147.902 125.67C146.863 125.683 145.824 125.707 144.76 125.727C144.202 127.031 144.12 128.317 143.968 129.596C143.807 130.944 143.475 132.276 143.396 133.626C143.322 134.903 142.754 136.154 143.095 137.418C143.662 137.845 144.257 137.801 144.83 137.827C145.411 137.854 145.995 137.829 146.576 137.856C147.036 137.877 147.575 137.85 147.768 138.391C147.99 139.019 147.942 139.682 147.628 140.275C147.533 140.454 147.276 140.586 147.068 140.65C146.795 140.734 146.494 140.753 146.205 140.755C144.283 140.764 142.362 140.764 140.439 140.755C139.976 140.753 139.5 140.759 139.145 140.38C138.848 139.807 138.963 139.202 139.04 138.631C139.428 135.766 139.86 132.906 140.265 130.042C140.662 127.235 141.048 124.429 141.433 121.622C141.825 118.755 142.206 115.887 142.598 113.022C142.798 111.56 143.004 110.098 143.223 108.637C143.356 107.75 143.597 107.499 144.473 107.49C146.686 107.465 148.899 107.476 151.112 107.494C151.387 107.496 151.66 107.629 151.952 107.705Z" fill="#F9F8F4"/>
<path d="M189.236 107.604C190.27 107.41 191.288 107.412 192.396 107.613C192.399 110.233 191.785 112.702 191.525 115.206C191.267 117.671 190.851 120.119 190.506 122.575C190.155 125.09 189.808 127.605 189.457 130.12C189.117 132.555 188.694 134.981 188.521 137.349C189.322 137.897 190.034 137.808 190.723 137.833C191.539 137.861 192.356 137.84 193.167 137.898C193.743 137.939 194 138.251 194.002 138.827C194.003 139.177 193.972 139.538 193.891 139.878C193.79 140.309 193.505 140.607 193.057 140.682C192.772 140.73 192.478 140.755 192.188 140.755C190.15 140.762 188.11 140.76 186.072 140.759C185.839 140.759 185.605 140.751 185.374 140.723C184.709 140.638 184.429 140.349 184.496 139.659C184.608 138.485 184.779 137.315 184.94 136.146C185.362 133.105 185.795 130.065 186.22 127.024C186.612 124.217 186.995 121.407 187.387 118.6C187.811 115.558 188.252 112.519 188.656 109.473C188.743 108.824 188.836 108.2 189.236 107.604Z" fill="#F9F8F4"/>
</g>
<defs>
<clipPath id="clip0">
<rect width="112" height="83" fill="white" transform="translate(82 96)"/>
</clipPath>
</defs>
</svg>
