<svg width="276" height="276" viewBox="0 0 276 276" fill="none" xmlns="http://www.w3.org/2000/svg">
<g clip-path="url(#clip0)">
<path d="M88.1607 134.59C88.1607 133.805 88.1607 133.212 88.1607 132.618C88.1607 129.617 88.1625 126.613 88.159 123.612C88.159 123.132 88.1874 122.643 88.1129 122.174C87.8645 120.608 86.5394 119.474 85.0246 119.481C83.5132 119.488 82.1988 120.635 81.954 122.199C81.8902 122.611 81.9114 123.038 81.9114 123.457C81.9097 133.004 81.9097 142.55 81.9114 152.098C81.9114 152.518 81.8884 152.944 81.9451 153.357C82.1616 154.937 83.4387 156.12 84.943 156.166C86.5146 156.214 87.9018 155.007 88.1253 153.364C88.1891 152.892 88.159 152.405 88.1607 151.925C88.1625 148.562 88.1536 145.2 88.1678 141.838C88.1732 140.761 88.1767 139.684 88.5137 138.63C89.2712 136.273 90.9297 134.97 93.3759 134.92C94.0216 134.907 94.6921 134.913 95.3094 135.073C97.289 135.586 98.3853 137.002 98.8287 138.957C99.054 139.949 99.1285 140.97 99.1232 141.998C99.1054 145.121 99.1179 148.243 99.1179 151.366C99.1179 151.726 99.1143 152.085 99.1196 152.446C99.1516 154.71 99.7831 155.594 101.935 156.142C102.524 156.292 102.85 156.629 103.166 157.06C103.315 157.264 103.178 157.547 102.921 157.591C100.473 157.987 98.1369 156.303 97.7325 153.815C97.6367 153.227 97.6296 152.621 97.6278 152.022C97.619 148.66 97.6349 145.297 97.6154 141.935C97.6101 141.098 97.5746 140.249 97.4327 139.426C97.1134 137.586 95.9533 136.533 94.2078 136.383C92.0952 136.203 90.6548 137.063 89.9825 138.876C89.6632 139.74 89.6224 140.631 89.6224 141.535C89.6224 145.018 89.6224 148.499 89.6206 151.982C89.6206 152.403 89.6384 152.825 89.61 153.243C89.4397 155.724 87.4672 157.628 85.0671 157.645C82.7416 157.659 80.7691 155.872 80.4906 153.471C80.4356 152.996 80.4587 152.511 80.4587 152.031C80.4569 142.545 80.4569 133.058 80.4587 123.57C80.4587 123.15 80.4409 122.728 80.4764 122.309C80.6946 119.807 82.66 117.98 85.0902 118.004C87.508 118.027 89.4947 119.91 89.5993 122.41C89.6809 124.389 89.6153 126.373 89.6242 128.354C89.6277 129.05 89.5763 129.752 89.7093 130.652C90.3373 130.189 90.7843 129.83 91.2597 129.516C94.6885 127.243 98.238 127.23 101.867 128.962C102.415 129.223 102.407 130.062 101.882 130.382C101.715 130.483 101.553 130.461 101.388 130.373C100.496 129.889 99.5542 129.559 98.5538 129.386C95.618 128.881 93.0477 129.604 90.912 131.743C90.3674 132.29 89.8956 132.912 89.3847 133.491C89.0778 133.838 88.8987 134.307 88.1607 134.59Z" fill="#F9F8F4"/>
<path d="M193.374 157.834C189.602 157.825 186.158 156.736 182.975 154.717C181.922 154.048 181.187 153.16 181.024 151.867C180.847 150.458 181.212 149.239 182.317 148.328C183.475 147.372 184.795 147.271 186.158 147.767C186.651 147.945 187.094 148.272 187.559 148.533C189.23 149.473 191.002 150.094 192.907 150.317C193.688 150.409 194.441 150.317 195.179 150.079C195.719 149.904 196.015 149.513 196.034 149.053C196.056 148.568 195.781 148.241 195.408 148.043C194.835 147.74 194.239 147.464 193.627 147.256C192.453 146.858 191.257 146.52 190.074 146.145C188.774 145.734 187.52 145.211 186.347 144.5C183.548 142.803 182.259 140.283 182.381 136.987C182.557 132.247 185.577 129.103 190.055 128.166C194.223 127.293 198.152 128.211 201.879 130.142C203.33 130.892 203.992 132.184 203.921 133.841C203.813 136.368 201.39 138.064 199.016 137.261C198.514 137.092 198.037 136.843 197.553 136.623C196.363 136.083 195.137 135.643 193.851 135.421C192.973 135.268 192.082 135.239 191.27 135.742C190.672 136.114 190.621 136.767 191.163 137.234C191.713 137.707 192.37 137.985 193.037 138.228C194.369 138.713 195.71 139.179 197.044 139.66C198.495 140.184 199.894 140.817 201.152 141.738C202.477 142.709 203.499 143.921 204.054 145.507C204.137 145.747 204.168 145.974 203.925 146.131C203.541 146.378 202.952 146.387 202.795 146.149C202.695 146.001 202.612 145.839 202.541 145.674C201.899 144.172 200.755 143.165 199.398 142.368C198.216 141.673 196.948 141.188 195.664 140.736C194.438 140.303 193.216 139.862 191.997 139.406C191.33 139.155 190.693 138.834 190.156 138.347C188.863 137.177 189.06 135.292 190.569 134.417C191.14 134.087 191.763 133.922 192.428 133.888C193.689 133.823 194.903 134.047 196.077 134.482C197.129 134.871 198.168 135.299 199.195 135.755C199.901 136.069 200.567 136.049 201.237 135.696C202.591 134.981 202.924 133.158 201.881 132.027C201.606 131.729 201.248 131.48 200.884 131.3C197.739 129.73 194.449 128.973 190.933 129.525C190.168 129.646 189.437 129.866 188.724 130.156C185.453 131.482 183.252 134.323 183.99 138.982C184.213 140.398 184.974 141.536 186.053 142.453C187.062 143.31 188.217 143.916 189.453 144.343C190.906 144.845 192.373 145.297 193.837 145.768C194.683 146.041 195.509 146.353 196.269 146.832C197.219 147.433 197.64 148.286 197.482 149.421C197.333 150.494 196.668 151.142 195.72 151.477C194.645 151.858 193.53 151.917 192.396 151.755C190.443 151.474 188.614 150.83 186.895 149.856C186.482 149.621 186.09 149.342 185.659 149.156C184.609 148.701 183.442 149.051 182.824 149.962C182.179 150.915 182.342 152.264 183.222 153.065C183.483 153.303 183.789 153.494 184.093 153.68C187.603 155.834 191.403 156.662 195.474 156.218C196.538 156.102 197.549 155.772 198.548 155.397C199.128 155.179 199.321 155.282 199.621 155.909C199.767 156.212 199.765 156.458 199.408 156.634C198.28 157.19 197.083 157.506 195.848 157.661C195.029 157.756 194.198 157.776 193.374 157.834Z" fill="#F9F8F4"/>
<path d="M152.518 155.237C151.133 156.216 149.779 157.055 148.19 157.418C145.903 157.939 143.626 157.964 141.355 157.355C137.304 156.267 134.37 152.834 134.833 147.553C135.172 143.685 137.229 141.138 140.835 139.883C143.221 139.053 145.682 138.849 148.176 139.087C149.229 139.188 150.271 139.424 151.319 139.599C151.606 139.648 151.897 139.738 152.201 139.489C152.071 137.859 151.081 136.935 149.63 136.457C148.788 136.179 147.904 136.055 147.009 136.089C145.589 136.145 144.185 136.304 142.81 136.688C142.354 136.816 141.903 136.971 141.44 137.051C139.631 137.365 137.807 136.297 137.176 134.579C136.523 132.806 137.146 130.858 138.712 129.846C139.058 129.622 139.439 129.438 139.826 129.307C144.117 127.849 148.491 127.546 152.921 128.484C154.923 128.908 156.696 129.844 158.139 131.358C158.828 132.079 158.826 132.079 158.026 133.093C157.817 133.21 157.687 133.055 157.584 132.931C155.94 130.921 153.726 129.947 151.271 129.646C147.787 129.218 144.312 129.368 140.938 130.506C140.491 130.658 140.032 130.802 139.626 131.035C138.57 131.645 138.134 132.857 138.524 133.964C138.939 135.149 140.108 135.856 141.35 135.532C142.553 135.218 143.753 134.919 144.986 134.767C146.517 134.579 148.044 134.531 149.565 134.899C152.261 135.553 153.724 137.332 153.797 140.126C153.811 140.647 153.918 141.196 153.646 141.686C153.192 141.822 152.821 141.566 152.44 141.443C149.579 140.519 146.67 140.247 143.695 140.702C142.221 140.927 140.812 141.331 139.535 142.136C136.922 143.777 136.051 146.299 136.271 149.236C136.548 152.926 138.907 155.43 142.655 156.133C144.289 156.44 145.95 156.418 147.583 156.041C149.481 155.603 151.083 154.636 152.403 153.184C152.683 152.876 152.962 152.564 153.26 152.275C153.325 152.212 153.49 152.197 153.581 152.233C153.66 152.266 153.739 152.396 153.749 152.49C153.778 152.726 153.779 152.969 153.769 153.209C153.714 154.42 154.216 155.302 155.291 155.818C156.465 156.382 157.59 156.251 158.622 155.453C158.853 155.275 159.032 155.026 159.232 154.808C159.47 154.551 159.693 154.51 159.972 154.777C160.472 155.259 160.555 155.471 160.309 155.821C158.801 157.959 155.521 158.271 153.558 156.445C153.212 156.124 152.935 155.728 152.518 155.237Z" fill="#F9F8F4"/>
<path d="M185.145 128.946C184.942 128.302 185.054 127.641 185.045 126.992C185.024 125.491 185.084 123.987 185.017 122.49C184.942 120.803 183.655 119.537 182.067 119.465C180.538 119.394 179.231 120.43 178.902 122.039C178.784 122.62 178.775 123.229 178.771 123.826C178.759 126.768 178.768 129.71 178.762 132.654C178.761 133.112 178.833 133.589 178.64 134.014C178.136 134.014 178.008 133.637 177.781 133.397C177.577 133.181 177.396 132.941 177.2 132.719C175.821 131.172 174.195 130.059 172.174 129.521C168.254 128.477 162.618 129.965 159.802 135.097C159.044 136.475 158.549 137.945 158.296 139.494C157.811 142.44 157.861 145.368 158.853 148.203C160.275 152.273 162.966 155.078 167.172 156.037C171.108 156.934 174.555 155.969 177.15 152.628C177.577 152.078 178 151.524 178.411 150.99C178.858 151.225 178.736 151.553 178.761 151.824C178.807 152.361 178.775 152.91 178.872 153.436C179.193 155.195 180.517 156.225 182.292 156.131C182.638 156.113 182.963 155.963 183.33 156.124C183.821 156.34 184.302 156.703 184.194 156.88C183.99 157.212 183.632 157.289 183.293 157.397C181.391 157.998 179.804 157.446 178.482 156.009C178.126 155.621 177.861 155.146 177.567 154.73C177.173 154.659 177.022 154.962 176.82 155.144C173.859 157.796 170.383 158.359 166.695 157.452C161.638 156.207 158.551 152.765 157.189 147.761C156.225 144.222 156.25 140.611 157.403 137.108C159.03 132.171 162.306 128.973 167.42 127.975C170.562 127.362 173.533 127.878 176.197 129.786C176.391 129.925 176.57 130.082 176.767 130.214C177.065 130.414 177.31 130.264 177.327 129.866C177.345 129.445 177.343 129.025 177.343 128.605C177.345 126.864 177.336 125.121 177.349 123.381C177.352 122.843 177.361 122.295 177.462 121.77C177.932 119.349 179.912 117.841 182.34 118.016C184.591 118.179 186.377 120.036 186.468 122.414C186.532 124.093 186.496 125.776 186.482 127.457C186.475 128.5 186.456 128.498 185.145 128.946Z" fill="#F9F8F4"/>
<path d="M111.444 130.881C112.069 130.277 112.636 129.667 113.264 129.133C114.832 127.797 116.571 127.694 118.4 128.513C118.815 128.699 118.824 129.043 118.465 129.333C118.128 129.606 117.793 129.786 117.334 129.646C115.522 129.088 114.261 129.963 113.199 131.321C112.381 132.366 111.847 133.567 111.326 134.779C111.077 135.358 110.944 136.008 110.495 136.493C110.084 136.251 110.228 135.923 110.22 135.663C110.196 134.583 110.259 133.499 110.18 132.423C110.059 130.8 108.844 129.602 107.329 129.496C105.672 129.38 104.351 130.409 104.031 132.102C103.943 132.568 103.945 133.057 103.945 133.535C103.939 139.716 103.937 145.9 103.946 152.082C103.946 152.617 103.968 153.168 104.083 153.687C104.42 155.184 105.717 156.205 107.153 156.167C108.659 156.128 109.958 154.944 110.167 153.38C110.231 152.908 110.208 152.423 110.21 151.943C110.213 149.663 110.201 147.381 110.217 145.101C110.229 143.283 110.549 141.522 111.297 139.857C111.37 139.695 111.457 139.534 111.558 139.388C111.618 139.3 111.719 139.242 111.804 139.168C112.113 139.119 112.046 139.39 112.032 139.512C111.53 143.757 111.647 148.021 111.631 152.282C111.629 152.879 111.648 153.494 111.524 154.071C111.083 156.117 109.236 157.605 107.173 157.648C105.167 157.688 103.363 156.373 102.747 154.416C102.549 153.783 102.47 153.133 102.47 152.466C102.478 146.044 102.476 139.621 102.474 133.199C102.474 131.906 102.729 130.704 103.556 129.669C105.339 127.436 108.858 127.486 110.556 129.622C110.88 130.026 111.159 130.472 111.444 130.881Z" fill="#F9F8F4"/>
<path d="M127.755 127.764C130.072 127.806 132.935 128.572 135.415 130.538C136.238 131.19 136.289 131.379 135.97 132.378C135.867 132.699 135.636 132.662 135.418 132.521C135.271 132.425 135.152 132.285 135.021 132.164C129.745 127.304 118.889 128.013 115.225 137.433C113.919 140.788 113.832 144.253 114.969 147.666C116.571 152.475 119.984 155.255 124.837 156.203C128.252 156.871 131.537 156.411 134.627 154.722C135.306 154.351 135.384 154.383 135.805 154.921C136.115 155.32 136.103 155.543 135.691 155.787C135.182 156.088 134.666 156.389 134.123 156.618C129.69 158.498 125.24 158.478 120.89 156.443C116.7 154.483 114.164 151.061 113.146 146.515C112.434 143.338 112.665 140.187 113.77 137.121C115.844 131.363 120.945 127.757 127.755 127.764Z" fill="#F9F8F4"/>
<path d="M69.4945 136.563C69.0439 136.37 68.7158 136.238 68.3947 136.09C66.8372 135.372 66.023 134.086 66 132.403C65.9769 130.711 66.7947 129.425 68.3202 128.664C68.5295 128.559 68.7583 128.489 68.9836 128.424C69.3153 128.329 69.4643 128.087 69.475 127.768C69.4963 127.048 69.4626 126.326 69.5069 125.608C69.6346 123.584 70.5198 122.051 72.4214 121.267C75.1921 120.125 78.2591 121.957 78.6299 124.97C78.7026 125.561 78.6707 126.168 78.6848 126.768C78.699 127.41 78.6423 127.997 79.2507 128.531C79.7633 128.98 79.3554 129.73 78.6724 129.757C78.378 129.768 78.0817 129.763 77.789 129.732C77.4556 129.698 77.2533 129.49 77.248 129.146C77.2356 128.065 77.2356 126.985 77.2321 125.906C77.2303 125.363 77.1877 124.836 76.9553 124.328C76.4072 123.133 75.2276 122.347 74.0036 122.399C72.6892 122.453 71.5167 123.377 71.153 124.706C71.0289 125.161 70.9881 125.65 70.9703 126.124C70.942 126.903 70.9703 127.685 70.9597 128.464C70.9437 129.589 70.9384 129.591 69.8404 129.797C69.4342 129.873 69.0297 129.929 68.6714 130.174C67.8129 130.762 67.3854 131.583 67.4723 132.618C67.5663 133.735 68.3699 134.593 69.4501 134.907C69.8954 135.035 70.4559 134.765 70.7823 135.178C71.1371 135.627 70.9526 136.22 70.9544 136.749C70.9668 140.589 70.9473 144.43 70.9703 148.27C70.9757 149.226 71.0484 150.191 71.1885 151.136C71.6302 154.122 73.3792 155.826 76.3345 156.2C77.4502 156.34 78.5749 156.329 79.6942 156.237C80.1305 156.201 80.5261 156.255 80.7886 156.652C80.9128 156.84 81.0849 157.058 81.0796 157.258C81.0725 157.525 80.7833 157.59 80.5474 157.619C78.958 157.81 77.358 157.861 75.7793 157.603C72.3965 157.053 70.3442 154.915 69.7588 151.441C69.5796 150.375 69.4874 149.302 69.4909 148.218C69.5034 144.978 69.4945 141.736 69.4945 138.497C69.4945 137.894 69.4945 137.297 69.4945 136.563Z" fill="#F9F8F4"/>
<path d="M178.956 142.819C178.853 144.533 178.542 146.164 177.663 147.643C174.883 152.315 168.41 152.435 165.62 147.773C163.688 144.545 163.67 141.122 165.581 137.873C168.344 133.172 174.782 133.216 177.62 137.869C178.549 139.392 178.871 141.08 178.956 142.819Z" fill="#F9F8F4"/>
<path d="M126.827 141.399C124.945 141.399 123.063 141.41 121.181 141.396C120.273 141.389 120.216 141.282 120.388 140.317C120.633 138.946 121.092 137.667 121.924 136.545C124.537 133.019 129.786 133.206 132.128 136.917C132.839 138.042 133.236 139.285 133.337 140.622C133.38 141.194 133.231 141.38 132.651 141.389C131.299 141.408 129.946 141.399 128.592 141.401C128.003 141.403 127.416 141.401 126.827 141.401C126.827 141.401 126.827 141.401 126.827 141.399Z" fill="#F9F8F4"/>
<path d="M146.865 152.387C146.427 152.37 145.613 152.332 144.823 152.028C143.299 151.44 142.395 150.339 142.239 148.707C142.088 147.112 142.632 145.765 143.958 144.814C144.539 144.396 145.192 144.127 145.889 143.966C148.383 143.389 150.792 143.723 153.155 144.643C153.666 144.841 153.918 145.155 153.9 145.707C153.884 146.185 153.896 146.665 153.877 147.141C153.802 148.959 152.94 150.31 151.457 151.277C150.175 152.114 148.75 152.406 146.865 152.387Z" fill="#F9F8F4"/>
<path d="M127.398 144.771C129.463 144.771 131.526 144.767 133.591 144.775C133.88 144.776 134.215 144.793 134.228 145.198C134.242 145.642 133.923 146.144 133.612 146.172C133.203 146.212 132.789 146.212 132.376 146.212C129.428 146.216 126.478 146.214 123.53 146.214C123.294 146.214 123.058 146.212 122.822 146.225C122.373 146.248 122.206 146.517 122.386 146.93C123.162 148.727 124.544 149.762 126.414 150.062C128.392 150.379 130.293 150.089 132.03 148.999C132.28 148.842 132.52 148.665 132.771 148.51C133.011 148.362 133.215 148.106 133.547 148.195C133.775 148.256 133.882 148.927 133.752 149.351C133.658 149.659 133.446 149.856 133.197 150.018C130.613 151.717 127.819 152.147 124.913 151.166C122.251 150.265 120.892 148.175 120.427 145.433C120.353 144.991 120.537 144.782 121.027 144.78C123.15 144.767 125.273 144.775 127.395 144.775C127.398 144.775 127.398 144.773 127.398 144.771Z" fill="#F9F8F4"/>
<path d="M204.786 147.927L204.776 147.927C202.345 147.933 200.346 149.946 200.361 152.437L204.786 147.927ZM204.786 147.927L204.795 147.926M204.786 147.927L204.795 147.926M204.795 147.926C207.208 147.86 209.219 149.981 209.25 152.376L209.25 152.376M204.795 147.926L209.25 152.376M209.25 152.376C209.285 155.101 206.961 157.019 204.771 156.992M209.25 152.376L204.771 156.992M204.771 156.992C202.811 156.967 200.38 155.353 200.361 152.437L204.771 156.992Z" stroke="#F9F8F4" stroke-width="1.5"/>
<path d="M77.2356 141.836C77.2356 139.797 77.2267 137.757 77.2409 135.719C77.2445 135.131 77.4059 134.999 77.9877 134.976C78.2236 134.967 78.4596 134.981 78.6955 134.97C79.437 134.936 79.7421 135.705 79.2454 136.192C78.6707 136.756 78.6955 137.315 78.6937 137.948C78.6849 140.946 78.6937 143.944 78.6866 146.942C78.6849 147.729 78.676 148.501 79.2383 149.148C79.492 149.439 79.4316 149.823 79.4139 150.182C79.3962 150.563 79.162 150.7 78.8285 150.559C78.1899 150.288 77.7961 149.801 77.5212 149.172C77.248 148.548 77.2285 147.895 77.2285 147.233C77.2285 145.434 77.2285 143.634 77.2285 141.836C77.2303 141.836 77.2321 141.836 77.2356 141.836Z" fill="#F9F8F4"/>
<path d="M165.719 142.799C165.74 141.356 165.975 140.005 166.702 138.793C167.832 136.911 169.457 135.876 171.667 135.901C173.881 135.928 175.525 136.98 176.533 138.937C177.819 141.434 177.854 144.031 176.589 146.54C174.549 150.588 169.345 150.819 166.877 147.027C166.03 145.727 165.742 144.28 165.719 142.799Z" fill="black"/>
<path d="M122.118 139.946C122.836 136.709 124.965 135.173 127.815 135.624C129.708 135.923 131.241 137.458 131.596 139.415C131.647 139.697 131.525 139.864 131.26 139.933C131.203 139.947 131.143 139.946 131.085 139.946C128.138 139.946 125.192 139.946 122.118 139.946Z" fill="black"/>
<path d="M147.113 150.93C146.515 150.878 145.822 150.835 145.148 150.541C143.349 149.758 143.273 147.342 144.598 146.204C145.056 145.811 145.593 145.569 146.175 145.425C148.066 144.951 149.919 145.165 151.762 145.714C152.234 145.854 152.426 146.123 152.442 146.612C152.492 148.132 151.865 149.274 150.611 150.073C149.575 150.732 148.415 150.91 147.113 150.93Z" fill="black"/>
</g>
<defs>
<clipPath id="clip0">
<rect width="144" height="40" fill="white" transform="translate(66 118)"/>
</clipPath>
</defs>
</svg>
