<svg width="276" height="276" viewBox="0 0 276 276" fill="none" xmlns="http://www.w3.org/2000/svg">
<g clip-path="url(#clip0)">
<path d="M95.157 136.305C101.981 137.522 106.793 140.722 106.793 146.488C106.793 150.78 104.258 154.495 100.551 156.543C97.2364 158.335 92.8164 159.232 87.5495 159.232H70V156.863C75.0059 156.352 75.525 156.032 75.525 150.652V126.251C75.525 120.87 74.678 120.296 70.0637 119.973V117.604H89.8262C94.7684 117.604 97.8861 118.244 100.488 119.845C102.892 121.382 104.452 123.816 104.452 126.953C104.452 132.271 99.3827 135.471 95.157 136.305ZM86.8998 135.471C93.0745 135.471 95.3512 132.845 95.3512 128.105C95.3512 122.533 91.6446 120.422 88.0716 120.422C86.5112 120.422 85.3425 120.87 84.9509 121.19C84.4955 121.705 84.365 122.599 84.365 123.945V135.474H86.8998V135.471ZM84.365 150.523C84.365 155.135 85.9254 156.477 89.4346 156.477C93.1412 156.415 97.1059 153.34 97.1059 147.128C97.1059 141.174 93.9214 138.228 86.6418 138.228H84.365V150.523Z" fill="#F9F8F4"/>
<path d="M163.549 160C161.794 160 160.364 159.423 159.517 158.655C158.606 157.886 158.151 156.989 157.826 156.286C155.355 157.886 152.171 160 150.935 160C145.343 160 142.095 155.709 142.095 151.74C142.095 148.346 143.656 146.809 147.101 145.463C150.935 144.054 156.072 142.517 157.568 141.237V138.42C157.568 135.088 156.333 133.231 153.537 133.231C152.432 133.231 151.521 133.742 150.935 134.511C150.155 135.537 149.894 136.817 149.375 138.737C148.919 140.465 147.881 140.914 146.579 140.914C144.888 140.914 142.745 139.377 142.745 137.582C142.745 136.431 143.525 135.596 145.022 134.574C147.948 132.654 151.782 130.796 155.422 130.028C158.024 130.028 160.234 130.605 162.119 131.885C164.915 133.805 165.695 136.497 165.695 139.762C165.695 142.9 165.695 147.703 165.695 150.84C165.695 153.914 166.733 154.683 167.774 154.683C168.424 154.683 169.074 154.492 169.79 154.169L170.503 156.346L163.549 160ZM157.568 143.863C156.399 144.503 155.228 145.143 153.928 145.849C151.913 146.874 150.744 148.026 150.744 150.203C150.744 153.789 153.279 155.072 154.709 155.072C155.619 155.072 156.527 155.009 157.568 154.046C157.568 151.034 157.568 146.871 157.568 143.863Z" fill="#F9F8F4"/>
<path d="M191.18 159.232V157.055C193.909 156.672 194.106 156.415 194.106 151.997V141.043C194.106 136.494 191.829 135.085 189.555 135.085C187.865 135.085 186.435 135.725 184.68 137.008V152.506C184.68 156.412 184.941 156.669 187.607 157.052V159.229H172.525V157.052C175.907 156.474 176.295 156.412 176.295 152.249V138.931C176.295 135.088 175.776 134.897 172.917 134.319V132.271C176.687 131.822 181.174 130.991 184.811 129.836C184.747 130.734 184.68 132.974 184.68 134.448C185.979 133.551 187.345 132.591 188.839 131.694C190.791 130.542 192.024 130.028 193.909 130.028C199.176 130.028 202.488 133.805 202.488 140.337V152.44C202.488 156.412 202.876 156.603 205.997 157.052V159.229H191.18V159.232Z" fill="#F9F8F4"/>
<path d="M139.281 146.148C136.983 154.011 127.357 161.024 119.3 159.211C118.295 158.981 114.598 158.147 112.236 154.875C107.139 147.823 111.659 137.475 118.007 133.127C121.938 130.432 126.992 129.17 131.61 130.611C133.559 131.222 135.401 132.298 136.843 133.761C137.101 134.021 137.041 134.451 136.734 134.652C134.536 136.066 133.207 139.61 129.752 143.624C125.104 149.013 122.211 149.1 122.245 149.674C122.287 150.365 126.968 148.693 132.463 144.787C134.293 143.489 136.825 140.648 138.798 138.644C139.154 138.283 139.785 138.501 139.831 139.003C140.061 141.506 139.594 145.089 139.281 146.148Z" fill="#EAB57F"/>
<path d="M115.551 124.116H113.514V123.883H113.866C113.997 123.883 114.088 123.859 114.139 123.805C114.191 123.754 114.218 123.676 114.218 123.572V118.138C114.218 117.931 114.206 117.815 114.179 117.788C114.151 117.761 114.048 117.749 113.866 117.749C113.499 117.749 113.247 117.815 113.101 117.943C112.958 118.072 112.782 118.422 112.573 118.99L112.339 118.951L112.691 117.477H116.41L116.723 118.951L116.525 118.99C116.316 118.446 116.152 118.105 116.037 117.961C115.918 117.82 115.678 117.749 115.311 117.749C115.05 117.749 114.907 117.761 114.88 117.788C114.853 117.815 114.84 117.943 114.84 118.176V123.572C114.84 123.676 114.874 123.754 114.938 123.805C115.001 123.856 115.086 123.883 115.193 123.883H115.545V124.116H115.551Z" fill="#F9F8F4" stroke="#F9F8F4" stroke-width="0.4" stroke-miterlimit="10"/>
<path d="M124.952 123.571C124.952 123.676 124.986 123.753 125.05 123.804C125.113 123.855 125.198 123.882 125.305 123.882H125.502V124.115H123.778V123.882H123.975C124.106 123.882 124.197 123.858 124.248 123.804C124.3 123.753 124.327 123.676 124.327 123.571V120.739H122.017V123.571C122.017 123.676 122.05 123.753 122.114 123.804C122.178 123.855 122.263 123.882 122.369 123.882H122.566V124.115H120.845V123.882H121.039C121.17 123.882 121.261 123.858 121.313 123.804C121.364 123.753 121.392 123.676 121.392 123.571V118.02C121.392 117.919 121.364 117.841 121.313 117.787C121.261 117.736 121.17 117.709 121.039 117.709H120.882V117.479H122.527V117.712H122.369C122.266 117.712 122.181 117.739 122.114 117.79C122.047 117.841 122.017 117.919 122.017 118.023V120.506H124.327V118.023C124.327 117.922 124.3 117.844 124.248 117.79C124.197 117.739 124.106 117.712 123.975 117.712H123.817V117.479H125.462V117.712H125.305C125.201 117.712 125.113 117.739 125.05 117.79C124.983 117.841 124.952 117.919 124.952 118.023V123.571Z" fill="#F9F8F4" stroke="#F9F8F4" stroke-width="0.4" stroke-miterlimit="10"/>
<path d="M129.618 117.712V117.479H133.455L133.887 118.798L133.689 118.876C133.48 118.487 133.258 118.197 133.024 118.002C132.791 117.808 132.53 117.712 132.241 117.712H131.145C131.042 117.712 130.954 117.739 130.89 117.79C130.824 117.841 130.793 117.919 130.793 118.023V120.428H131.929C132.19 120.428 132.378 120.365 132.496 120.233C132.615 120.105 132.672 119.91 132.672 119.65V119.42H132.906V121.708H132.672V121.552C132.672 121.268 132.615 121.047 132.496 120.891C132.378 120.736 132.19 120.658 131.929 120.658H130.793V123.568C130.793 123.673 130.827 123.75 130.89 123.801C130.954 123.852 131.039 123.879 131.145 123.879H132.162C132.554 123.879 132.888 123.768 133.161 123.55C133.434 123.332 133.65 122.988 133.808 122.521L134.005 122.599L133.574 124.112H129.579V123.879H129.813C129.943 123.879 130.034 123.855 130.086 123.801C130.137 123.75 130.165 123.673 130.165 123.568V118.02C130.165 117.919 130.137 117.841 130.086 117.787C130.034 117.736 129.943 117.709 129.813 117.709H129.618V117.712Z" fill="#F9F8F4" stroke="#F9F8F4" stroke-width="0.4" stroke-miterlimit="10"/>
<path d="M150.969 119.031C150.969 119.549 150.826 119.949 150.537 120.233C150.249 120.518 149.924 120.685 149.56 120.739L150.735 123.61C150.786 123.715 150.844 123.783 150.911 123.822C150.975 123.861 151.047 123.879 151.126 123.879H151.36V124.112H150.264L148.971 120.775H148.069V123.568C148.069 123.673 148.103 123.75 148.167 123.801C148.23 123.852 148.315 123.879 148.422 123.879H148.655V124.112H146.855V123.879H147.089C147.219 123.879 147.311 123.855 147.362 123.801C147.414 123.75 147.441 123.673 147.441 123.568V118.02C147.441 117.919 147.414 117.841 147.362 117.787C147.311 117.736 147.219 117.709 147.089 117.709H146.855V117.479H149.086C149.687 117.479 150.149 117.608 150.477 117.868C150.805 118.125 150.969 118.514 150.969 119.031ZM148.072 120.544H148.935C149.326 120.544 149.651 120.428 149.912 120.195C150.173 119.961 150.304 119.599 150.304 119.109C150.304 118.669 150.185 118.325 149.952 118.08C149.718 117.835 149.351 117.712 148.856 117.712H148.425C148.321 117.712 148.236 117.739 148.17 117.79C148.103 117.841 148.072 117.919 148.072 118.023V120.544Z" fill="#F9F8F4" stroke="#F9F8F4" stroke-width="0.4" stroke-miterlimit="10"/>
<path d="M159.903 120.778C159.903 121.84 159.693 122.674 159.277 123.281C158.858 123.888 158.339 124.193 157.711 124.193C157.11 124.193 156.594 123.882 156.166 123.26C155.735 122.638 155.519 121.813 155.519 120.778C155.519 119.77 155.722 118.954 156.126 118.334C156.53 117.712 157.058 117.401 157.711 117.401C158.388 117.401 158.925 117.73 159.317 118.391C159.705 119.049 159.903 119.845 159.903 120.778ZM156.26 120.778C156.26 121.89 156.396 122.698 156.67 123.203C156.943 123.709 157.289 123.96 157.708 123.96C158.151 123.96 158.503 123.721 158.764 123.242C159.025 122.764 159.156 121.941 159.156 120.778C159.156 119.848 159.044 119.097 158.822 118.526C158.6 117.958 158.227 117.671 157.705 117.671C157.262 117.671 156.909 117.931 156.648 118.448C156.39 118.965 156.26 119.743 156.26 120.778Z" fill="#F9F8F4" stroke="#F9F8F4" stroke-width="0.4" stroke-miterlimit="10"/>
<path d="M166.958 121.63H165.197L164.845 123.105C164.817 123.233 164.805 123.338 164.805 123.416C164.805 123.52 164.824 123.622 164.863 123.727C164.902 123.831 165.012 123.882 165.197 123.882H165.315V124.116H163.867V123.882H163.986C164.089 123.882 164.183 123.849 164.259 123.787C164.338 123.724 164.389 123.613 164.417 123.458L165.944 117.521L166.53 117.327L168.017 123.458C168.069 123.613 168.136 123.724 168.211 123.787C168.29 123.852 168.381 123.882 168.485 123.882H168.603V124.116H166.918V123.882H167.076C167.234 123.882 167.325 123.849 167.349 123.787C167.374 123.724 167.389 123.664 167.389 123.613C167.389 123.511 167.377 123.419 167.349 123.341L166.958 121.63ZM166.135 118.176H166.096L165.273 121.397H166.918L166.135 118.176Z" fill="#F9F8F4" stroke="#F9F8F4" stroke-width="0.4" stroke-miterlimit="10"/>
<path d="M174.753 120.933C174.049 120.622 173.566 120.35 173.305 120.12C173.044 119.887 172.914 119.525 172.914 119.034C172.914 118.645 173.078 118.278 173.402 117.928C173.727 117.578 174.192 117.404 174.793 117.404C175.054 117.404 175.303 117.443 175.537 117.521C175.77 117.626 175.94 117.676 176.047 117.676C176.126 117.676 176.195 117.659 176.262 117.62C176.326 117.581 176.387 117.509 176.438 117.407L176.596 118.998L176.399 119.076C176.165 118.532 175.922 118.164 175.673 117.97C175.424 117.775 175.106 117.679 174.714 117.679C174.219 117.679 173.879 117.817 173.697 118.086C173.515 118.358 173.424 118.648 173.424 118.959C173.424 119.244 173.509 119.471 173.679 119.638C173.849 119.806 174.31 120.06 175.069 120.395C175.694 120.646 176.147 120.933 176.42 121.259C176.693 121.582 176.83 121.965 176.83 122.408C176.83 122.874 176.666 123.29 176.341 123.652C176.013 124.014 175.54 124.196 174.911 124.196C174.65 124.196 174.416 124.145 174.207 124.041C173.973 123.963 173.788 123.924 173.657 123.924C173.579 123.924 173.5 123.951 173.424 124.002C173.345 124.053 173.254 124.118 173.151 124.196L172.838 122.294L173.072 122.216C173.254 122.862 173.509 123.308 173.837 123.556C174.161 123.801 174.535 123.924 174.954 123.924C175.397 123.924 175.731 123.795 175.952 123.535C176.174 123.278 176.286 122.901 176.286 122.411C176.286 122.153 176.162 121.899 175.913 121.654C175.661 121.406 175.276 121.167 174.753 120.933Z" fill="#F9F8F4" stroke="#F9F8F4" stroke-width="0.4" stroke-miterlimit="10"/>
<path d="M184.51 124.116H182.473V123.883H182.825C182.956 123.883 183.047 123.859 183.099 123.805C183.15 123.754 183.177 123.676 183.177 123.572V118.138C183.177 117.931 183.165 117.815 183.138 117.788C183.111 117.761 183.007 117.749 182.825 117.749C182.458 117.749 182.206 117.815 182.063 117.943C181.921 118.072 181.745 118.422 181.535 118.99L181.301 118.951L181.654 117.477H185.372L185.685 118.951L185.491 118.99C185.281 118.446 185.117 118.105 185.002 117.961C184.884 117.82 184.644 117.749 184.276 117.749C184.015 117.749 183.873 117.761 183.845 117.788C183.818 117.815 183.806 117.943 183.806 118.176V123.572C183.806 123.676 183.839 123.754 183.903 123.805C183.967 123.856 184.052 123.883 184.158 123.883H184.51V124.116Z" fill="#F9F8F4" stroke="#F9F8F4" stroke-width="0.4" stroke-miterlimit="10"/>
<path d="M189.959 117.712V117.479H193.796L194.227 118.798L194.033 118.876C193.824 118.487 193.602 118.197 193.368 118.002C193.135 117.808 192.874 117.712 192.585 117.712H191.489C191.386 117.712 191.301 117.739 191.234 117.79C191.167 117.841 191.137 117.919 191.137 118.023V120.428H192.272C192.534 120.428 192.722 120.365 192.84 120.233C192.959 120.105 193.016 119.91 193.016 119.65V119.42H193.25V121.708H193.016V121.552C193.016 121.268 192.959 121.047 192.84 120.891C192.722 120.736 192.534 120.658 192.272 120.658H191.137V123.568C191.137 123.673 191.171 123.75 191.234 123.801C191.298 123.852 191.383 123.879 191.489 123.879H192.506C192.898 123.879 193.232 123.768 193.505 123.55C193.778 123.332 193.994 122.988 194.152 122.521L194.349 122.599L193.918 124.112H189.923V123.879H190.157C190.287 123.879 190.378 123.855 190.43 123.801C190.481 123.75 190.509 123.673 190.509 123.568V118.02C190.509 117.919 190.481 117.841 190.43 117.787C190.378 117.736 190.287 117.709 190.157 117.709H189.959V117.712Z" fill="#F9F8F4" stroke="#F9F8F4" stroke-width="0.4" stroke-miterlimit="10"/>
<path d="M199.088 118.02C199.088 117.919 199.06 117.841 199.009 117.787C198.957 117.736 198.866 117.709 198.735 117.709H198.502V117.479H200.262C201.07 117.479 201.717 117.739 202.199 118.257C202.682 118.774 202.925 119.575 202.925 120.661C202.925 121.851 202.691 122.725 202.22 123.281C201.75 123.837 201.058 124.115 200.144 124.115H198.459V123.882H198.732C198.863 123.882 198.954 123.858 199.006 123.804C199.057 123.753 199.085 123.676 199.085 123.571V118.02H199.088ZM202.181 120.739C202.181 119.626 202.011 118.846 201.671 118.391C201.331 117.94 200.86 117.712 200.262 117.712C200.08 117.712 199.944 117.739 199.853 117.79C199.762 117.841 199.716 117.919 199.716 118.023V123.571C199.716 123.676 199.755 123.753 199.834 123.804C199.913 123.855 200.017 123.882 200.147 123.882C200.721 123.882 201.204 123.67 201.595 123.242C201.987 122.814 202.181 121.98 202.181 120.739Z" fill="#F9F8F4" stroke="#F9F8F4" stroke-width="0.4" stroke-miterlimit="10"/>
</g>
<defs>
<clipPath id="clip0">
<rect width="136" height="43" fill="white" transform="translate(70 117)"/>
</clipPath>
</defs>
</svg>
