<svg width="276" height="276" viewBox="0 0 276 276" fill="none" xmlns="http://www.w3.org/2000/svg">
<path d="M115.896 126.833V131.273C115.896 136.704 114.824 138.692 109.715 138.692H100.49V106.032H109.651C114.569 106.032 115.64 108.02 115.64 113.45V117.392C115.64 119.345 115.186 120.73 113.504 121.652V122.074C115.221 123.106 115.896 124.637 115.896 126.833ZM107.324 112.28V119.664H107.969C108.814 119.664 109.005 119.345 109.005 118.493V113.561C109.005 112.64 108.778 112.28 107.941 112.28H107.324ZM109.069 125.773C109.069 124.921 108.906 124.568 108.069 124.568H107.324V132.381H108.033C108.842 132.381 109.069 132.063 109.069 131.141V125.773Z" fill="#3A95FF"/>
<path d="M115.896 161.016V165.457C115.896 170.887 114.824 172.875 109.715 172.875H100.49V140.215H109.651C114.569 140.215 115.64 142.203 115.64 147.634V151.575C115.64 153.529 115.186 154.914 113.504 155.835V156.258C115.221 157.29 115.896 158.821 115.896 161.016ZM107.324 146.463V153.847H107.969C108.814 153.847 109.005 153.529 109.005 152.677V147.745C109.005 146.823 108.778 146.463 107.941 146.463H107.324ZM109.069 159.957C109.069 159.105 108.906 158.751 108.069 158.751H107.324V166.565H108.033C108.842 166.565 109.069 166.246 109.069 165.325V159.957Z" fill="#F9F8F4"/>
<path d="M124.148 97.3246V104.21H128.292V110.389H124.148V117.489H128.392V123.736H117.322V91.0767H128.392V97.3246H124.148Z" fill="#F9F8F4"/>
<path d="M124.148 131.751V138.636H128.292V144.815H124.148V151.915H128.392V158.163H117.322V125.503H128.392V131.751H124.148Z" fill="#3A95FF"/>
<path d="M124.148 165.588V172.473H128.292V178.652H124.148V185.752H128.392V192H117.322V159.34H128.392V165.588H124.148Z" fill="#F9F8F4"/>
<path d="M139.681 133.614H136.346L136.02 138.692H129.421L132.138 106.032H143.889L146.579 138.692H140.008L139.681 133.614ZM139.263 127.332L138.291 112.813H137.744L136.772 127.332H139.263Z" fill="#3A95FF"/>
<path d="M139.681 168.096H136.346L136.02 173.173H129.421L132.138 140.513H143.889L146.579 173.173H140.008L139.681 168.096ZM139.263 161.813L138.291 147.295H137.744L136.772 161.813H139.263Z" fill="#F9F8F4"/>
<path d="M160.97 89.248H157.116V115.66H150.318V89.248H146.465V83H160.962V89.248H160.97Z" fill="#F9F8F4"/>
<path d="M160.97 123.591H157.116V150.003H150.318V123.591H146.465V117.343H160.962V123.591H160.97Z" fill="#3A95FF"/>
<path d="M160.97 157.823H157.116V184.235H150.318V157.823H146.465V151.575H160.962V157.823H160.97Z" fill="#F9F8F4"/>
<path d="M170.79 109.211V104.563C170.79 103.642 170.464 103.358 169.946 103.358C169.428 103.358 169.102 103.642 169.102 104.563V108.505C169.102 112.266 177.454 110.673 177.454 118.659V123.065C177.454 128.53 174.537 130.449 169.946 130.449C165.348 130.449 162.467 128.53 162.467 123.065V118.375H169.038V123.023C169.038 123.944 169.364 124.228 169.911 124.228C170.393 124.228 170.755 123.944 170.755 123.023V119.082C170.755 115.321 162.438 116.914 162.438 108.927V104.522C162.438 99.0564 165.355 97.1377 169.918 97.1377C174.516 97.1377 177.361 99.0564 177.361 104.522V109.211H170.79Z" fill="#F9F8F4"/>
<path d="M170.79 144.032V139.384C170.79 138.463 170.464 138.179 169.946 138.179C169.428 138.179 169.102 138.463 169.102 139.384V143.325C169.102 147.087 177.454 145.493 177.454 153.48V157.885C177.454 163.351 174.537 165.269 169.946 165.269C165.348 165.269 162.467 163.351 162.467 157.885V153.196H169.038V157.844C169.038 158.765 169.364 159.049 169.911 159.049C170.393 159.049 170.755 158.765 170.755 157.844V153.903C170.755 150.141 162.438 151.734 162.438 143.748V139.342C162.438 133.877 165.355 131.958 169.918 131.958C174.516 131.958 177.361 133.877 177.361 139.342V144.032H170.79Z" fill="#3A95FF"/>
</svg>
