<svg width="276" height="276" viewBox="0 0 276 276" fill="none" xmlns="http://www.w3.org/2000/svg">
<g clip-path="url(#clip0)">
<path d="M139.495 135.134C139.023 134.03 138.397 133.06 137.586 132.226C136.784 131.403 135.852 130.749 134.775 130.266C133.701 129.792 132.537 129.545 131.306 129.545C130.088 129.545 128.946 129.792 127.869 130.266C126.781 130.751 125.849 131.405 125.036 132.226C124.224 133.06 123.587 134.03 123.114 135.134C122.642 136.238 122.401 137.421 122.401 138.685C122.401 139.936 122.642 141.119 123.114 142.236C123.587 143.34 124.224 144.321 125.036 145.144C125.849 145.979 126.781 146.633 127.869 147.118C128.944 147.592 130.086 147.828 131.306 147.828C132.535 147.828 133.698 147.592 134.775 147.118C135.85 146.633 136.784 145.979 137.586 145.144C138.399 144.321 139.025 143.34 139.495 142.236C139.957 141.119 140.197 139.938 140.197 138.685C140.197 137.421 139.955 136.238 139.495 135.134ZM135.027 140.307C134.808 140.814 134.522 141.255 134.16 141.627C133.798 142.009 133.38 142.303 132.886 142.517C132.392 142.741 131.865 142.844 131.306 142.844C130.758 142.844 130.242 142.741 129.748 142.517C129.254 142.303 128.825 142.009 128.463 141.627C128.09 141.255 127.804 140.814 127.585 140.307C127.366 139.8 127.256 139.259 127.256 138.685C127.256 138.111 127.366 137.568 127.585 137.074C127.804 136.567 128.09 136.126 128.463 135.744C128.825 135.372 129.254 135.078 129.748 134.854C130.242 134.64 130.758 134.527 131.306 134.527C131.865 134.527 132.394 134.64 132.886 134.854C133.38 135.078 133.796 135.372 134.16 135.744C134.522 136.126 134.808 136.567 135.027 137.074C135.235 137.57 135.335 138.111 135.335 138.685C135.335 139.259 135.235 139.8 135.027 140.307Z" fill="#3A95FF"/>
<path d="M135.582 168.939C135.582 169.542 135.465 170.112 135.243 170.648C135.018 171.18 134.715 171.651 134.325 172.047C133.939 172.45 133.488 172.764 132.972 172.997C132.454 173.224 131.893 173.338 131.302 173.338C130.714 173.338 130.166 173.224 129.648 172.997C129.126 172.764 128.675 172.45 128.285 172.047C127.895 171.651 127.587 171.18 127.36 170.648C127.134 170.112 127.017 169.54 127.017 168.939C127.017 168.329 127.134 167.76 127.36 167.23C127.587 166.699 127.895 166.231 128.285 165.831C128.677 165.435 129.126 165.119 129.648 164.885C130.166 164.658 130.714 164.538 131.302 164.538C131.895 164.538 132.454 164.658 132.972 164.885C133.49 165.119 133.939 165.435 134.325 165.831C134.715 166.231 135.018 166.699 135.243 167.23C135.467 167.76 135.582 168.329 135.582 168.939Z" fill="#3A95FF"/>
<path d="M151.495 141.585C150.268 140.888 149.106 140.225 148.246 138.999C147.826 138.403 147.804 138.292 147.665 136.603C147.557 135.255 147.407 133.421 146.848 130.738C146.59 129.568 144.191 119.106 137.25 113.14C135.313 111.47 133.365 110.664 131.31 110.664C131.15 110.664 130.987 110.664 130.827 110.675C127.921 110.862 126.007 112.698 125.383 113.294C118.477 119.911 115.763 129.103 115.172 132.04L115.128 132.028C114.613 134.469 114.461 136.194 114.355 137.453C114.194 139.208 114.173 139.253 113.785 139.774C113.02 140.824 111.988 141.409 110.89 142.028C109.308 142.922 106.651 144.435 106.618 147.817C106.564 151.639 110.062 153.882 115.709 156.245C122.219 158.973 126.146 160.62 131.503 160.62C131.663 160.62 131.826 160.608 131.986 160.608C137.753 160.508 141.723 158.697 147.199 156.19C151.536 154.212 156.011 152.169 155.978 147.617C155.95 144.103 153.163 142.524 151.495 141.585ZM145.546 152.345C140.145 154.808 136.851 156.31 131.923 156.399C131.783 156.399 131.644 156.41 131.503 156.41C126.952 156.41 123.66 155.028 117.257 152.345C111.102 149.759 110.703 148.489 110.714 147.859C110.736 145.97 114.502 145.772 117.051 142.315C118.89 139.807 117.965 138.481 119.127 132.914C119.127 132.914 121.192 123.059 128.174 116.378C128.798 115.782 129.767 114.963 131.08 114.887C131.156 114.876 131.232 114.876 131.306 114.876C132.522 114.876 133.607 115.517 134.619 116.378C140.698 121.591 142.828 131.643 142.828 131.643C144.087 137.542 143.054 138.801 144.915 141.453C147.637 145.354 151.854 145.507 151.876 147.65C151.893 149.406 149.063 150.732 145.546 152.345Z" fill="#3A95FF"/>
<path d="M55 137.679C55 136.445 55.2297 135.29 55.6913 134.211C56.1529 133.134 56.777 132.19 57.5658 131.378C58.3547 130.568 59.2735 129.93 60.3246 129.463C61.3756 128.995 62.4938 128.762 63.6836 128.762C64.8603 128.762 65.9699 128.993 67.0144 129.454C68.059 129.914 68.9713 130.542 69.7536 131.332C70.536 132.124 71.1579 133.054 71.6195 134.126C72.0811 135.199 72.3238 136.338 72.3477 137.548V137.586V137.679V143.885C72.3477 144.221 72.2848 144.544 72.1569 144.848C72.0291 145.153 71.8579 145.418 71.639 145.643C71.4201 145.867 71.1666 146.045 70.874 146.174C70.5836 146.306 70.2672 146.37 69.927 146.37C69.4784 146.37 69.084 146.266 68.7438 146.052C68.4035 145.841 68.137 145.554 67.9441 145.193C67.3113 145.629 66.6395 145.972 65.9244 146.221C65.207 146.47 64.4616 146.595 63.6857 146.595C62.496 146.595 61.3756 146.361 60.3267 145.894C59.2757 145.427 58.3568 144.788 57.568 143.978C56.7792 143.169 56.1551 142.221 55.6935 141.137C55.2297 140.054 55 138.901 55 137.679ZM59.733 137.679C59.733 138.24 59.8391 138.767 60.0515 139.259C60.2639 139.751 60.5499 140.183 60.9075 140.55C61.2651 140.917 61.6833 141.208 62.1644 141.42C62.6434 141.631 63.1505 141.738 63.6857 141.738C64.2319 141.738 64.7455 141.631 65.2244 141.42C65.7033 141.208 66.1194 140.919 66.4726 140.55C66.8237 140.183 67.1033 139.753 67.3091 139.259C67.515 138.767 67.619 138.24 67.619 137.679C67.619 137.119 67.515 136.591 67.3091 136.1C67.1033 135.608 66.8237 135.179 66.4726 134.809C66.1194 134.442 65.7055 134.153 65.2244 133.939C64.7455 133.728 64.2319 133.621 63.6857 133.621C63.1526 133.621 62.6455 133.726 62.1644 133.939C61.6855 134.151 61.2673 134.44 60.9075 134.809C60.5478 135.179 60.2639 135.608 60.0515 136.1C59.8391 136.594 59.733 137.119 59.733 137.679Z" fill="#F9F8F4"/>
<path d="M79.9758 139.849C80.3507 140.483 80.8405 140.961 81.4408 141.28C82.0411 141.598 82.7064 141.756 83.4345 141.756C83.92 141.756 84.336 141.716 84.6828 141.633C85.0274 141.553 85.3351 141.42 85.6016 141.233C86.0372 140.921 86.4533 140.734 86.8477 140.672C87.2421 140.61 87.6149 140.648 87.9681 140.783C88.2108 140.883 88.4319 141.024 88.6334 141.204C88.8349 141.384 88.9996 141.593 89.134 141.829C89.2684 142.065 89.3637 142.323 89.4244 142.603C89.4851 142.884 89.4981 143.164 89.4612 143.444C89.4244 143.725 89.3334 143.998 89.1882 144.268C89.043 144.537 88.8349 144.782 88.5684 145.006C88.3387 145.193 88.0678 145.382 87.7579 145.576C87.448 145.77 87.0904 145.941 86.683 146.09C86.2756 146.239 85.8053 146.361 85.2722 146.455C84.7391 146.548 84.1258 146.595 83.4345 146.595C82.234 146.595 81.1049 146.361 80.0474 145.894C78.992 145.427 78.0666 144.788 77.2713 143.978C76.476 143.169 75.8475 142.225 75.3881 141.146C74.9265 140.069 74.6968 138.912 74.6968 137.679C74.6968 136.445 74.9265 135.288 75.3881 134.202C75.8497 133.118 76.4781 132.175 77.2713 131.369C78.0666 130.566 78.992 129.93 80.0474 129.463C81.1027 128.995 82.2318 128.762 83.4345 128.762C84.6113 128.762 85.7273 128.989 86.7849 129.443C87.8424 129.899 88.7634 130.524 89.5523 131.32C90.3411 132.119 90.9695 133.049 91.4355 134.115C91.9014 135.181 92.1484 136.324 92.1723 137.546C92.1723 138.231 91.9556 138.785 91.5265 139.21C91.0952 139.635 90.534 139.847 89.8426 139.847H79.9758V139.849ZM87.3136 135.81C86.9864 135.063 86.4901 134.511 85.8292 134.155C85.1682 133.799 84.3989 133.623 83.5255 133.623C82.6522 133.623 81.8959 133.812 81.2588 134.193C80.6216 134.573 80.1449 135.112 79.8285 135.81H87.3136Z" fill="#F9F8F4"/>
<path d="M98.8015 144.922C98.6802 145.215 98.5133 145.467 98.3009 145.678C98.0885 145.89 97.8415 146.059 97.5641 146.183C97.2846 146.308 96.9877 146.37 96.6713 146.37C96.344 146.37 96.0341 146.308 95.7437 146.183C95.4533 146.059 95.1933 145.89 94.9701 145.678C94.7447 145.467 94.5692 145.213 94.4435 144.922C94.3156 144.63 94.2528 144.314 94.2528 143.978V138.278V138.109C94.2896 136.863 94.5497 135.688 95.0351 134.584C95.5205 133.481 96.1707 132.52 96.9833 131.696C97.796 130.873 98.743 130.219 99.8244 129.734C100.904 129.249 102.052 129 103.266 128.986H103.374C104.15 128.986 104.755 129.213 105.186 129.669C105.617 130.126 105.832 130.702 105.832 131.398C105.832 131.748 105.769 132.07 105.641 132.371C105.513 132.669 105.338 132.929 105.112 133.147C104.887 133.365 104.627 133.536 104.33 133.661C104.033 133.786 103.714 133.848 103.374 133.848C102.778 133.848 102.217 133.964 101.69 134.193C101.161 134.424 100.698 134.738 100.297 135.136C99.8959 135.534 99.5817 136.006 99.3498 136.549C99.1179 137.09 98.9966 137.666 98.9857 138.278V143.978C98.9836 144.317 98.9207 144.63 98.8015 144.922Z" fill="#F9F8F4"/>
<path d="M167.447 141.511C167.787 141.511 168.099 141.58 168.385 141.716C168.669 141.854 168.916 142.034 169.122 142.257C169.328 142.481 169.49 142.744 169.605 143.042C169.72 143.34 169.778 143.659 169.778 143.994C169.778 144.33 169.72 144.646 169.605 144.938C169.49 145.232 169.33 145.483 169.122 145.694C168.916 145.906 168.669 146.07 168.385 146.188C168.099 146.306 167.787 146.366 167.447 146.366H167.355C166.53 146.355 165.75 146.202 165.015 145.908C164.28 145.616 163.641 145.209 163.095 144.693C162.549 144.177 162.118 143.556 161.801 142.833C161.485 142.11 161.329 141.318 161.329 140.459V124.708C161.329 124.372 161.389 124.054 161.511 123.754C161.632 123.456 161.797 123.195 162.003 122.977C162.209 122.759 162.449 122.588 162.722 122.463C162.995 122.339 163.29 122.276 163.606 122.276C163.934 122.276 164.246 122.339 164.543 122.463C164.839 122.588 165.102 122.759 165.325 122.977C165.55 123.195 165.728 123.453 165.862 123.754C165.997 124.052 166.062 124.37 166.062 124.708V140.466C166.062 140.839 166.196 141.106 166.463 141.269C166.731 141.431 167.059 141.511 167.447 141.511Z" fill="#F9F8F4"/>
<path d="M172.18 124.708C172.18 124.345 172.247 124.007 172.379 123.689C172.513 123.371 172.695 123.097 172.925 122.868C173.155 122.639 173.423 122.454 173.727 122.316C174.03 122.178 174.357 122.111 174.711 122.111C175.051 122.111 175.376 122.18 175.684 122.316C175.994 122.454 176.267 122.636 176.503 122.868C176.739 123.099 176.923 123.373 177.058 123.689C177.19 124.007 177.257 124.347 177.257 124.708C177.257 125.068 177.19 125.407 177.058 125.716C176.923 126.027 176.739 126.301 176.503 126.539C176.267 126.775 175.994 126.964 175.684 127.1C175.374 127.238 175.049 127.304 174.711 127.304C174.357 127.304 174.03 127.238 173.727 127.1C173.423 126.964 173.157 126.775 172.925 126.539C172.693 126.303 172.513 126.027 172.379 125.716C172.247 125.407 172.18 125.068 172.18 124.708ZM177.094 143.961C177.094 144.297 177.034 144.613 176.912 144.904C176.791 145.198 176.624 145.451 176.412 145.672C176.199 145.89 175.95 146.061 175.666 146.186C175.38 146.31 175.075 146.373 174.748 146.373C174.42 146.373 174.113 146.31 173.829 146.186C173.543 146.061 173.291 145.89 173.072 145.672C172.853 145.454 172.68 145.198 172.554 144.904C172.427 144.613 172.364 144.297 172.364 143.961V131.401C172.364 131.065 172.427 130.749 172.554 130.457C172.682 130.166 172.853 129.91 173.072 129.692C173.291 129.474 173.549 129.302 173.846 129.178C174.143 129.053 174.457 128.991 174.784 128.991C175.112 128.991 175.415 129.053 175.695 129.178C175.974 129.302 176.219 129.474 176.431 129.692C176.644 129.91 176.806 130.166 176.923 130.457C177.038 130.751 177.097 131.065 177.097 131.401V143.961H177.094Z" fill="#F9F8F4"/>
<path d="M185.451 128.988H191.022C191.35 128.988 191.66 129.053 191.95 129.184C192.24 129.315 192.494 129.491 192.706 129.716C192.919 129.94 193.088 130.199 193.215 130.492C193.343 130.784 193.406 131.1 193.406 131.436C193.406 131.76 193.343 132.068 193.215 132.361C193.088 132.655 192.919 132.909 192.706 133.127C192.494 133.345 192.242 133.518 191.95 133.65C191.66 133.781 191.35 133.845 191.022 133.845H185.451V137.715C185.451 138.275 185.555 138.798 185.761 139.285C185.967 139.773 186.25 140.195 186.608 140.558C186.966 140.921 187.382 141.206 187.854 141.417C188.327 141.628 188.838 141.735 189.384 141.735C189.869 141.735 190.318 141.666 190.732 141.53C191.144 141.392 191.514 141.174 191.842 140.876C192 140.727 192.158 140.596 192.314 140.485C192.472 140.373 192.648 140.28 192.843 140.204C193.207 140.066 193.582 140.026 193.972 140.082C194.36 140.138 194.73 140.329 195.081 140.652C195.337 140.901 195.521 141.188 195.636 141.51C195.751 141.835 195.797 142.171 195.773 142.521C195.749 142.87 195.664 143.208 195.519 143.54C195.374 143.871 195.175 144.16 194.919 144.41C194.191 145.133 193.356 145.678 192.416 146.045C191.475 146.412 190.465 146.597 189.384 146.597C188.183 146.597 187.057 146.363 186.008 145.896C184.957 145.429 184.042 144.792 183.258 143.989C182.475 143.186 181.856 142.24 181.4 141.157C180.945 140.073 180.718 138.914 180.718 137.679V126.427C180.718 126.091 180.781 125.773 180.909 125.475C181.036 125.177 181.208 124.914 181.426 124.689C181.645 124.465 181.897 124.287 182.183 124.158C182.467 124.026 182.774 123.962 183.102 123.962C183.429 123.962 183.737 124.024 184.02 124.149C184.304 124.273 184.554 124.447 184.766 124.672C184.978 124.896 185.145 125.157 185.267 125.457C185.388 125.755 185.449 126.08 185.449 126.429V128.988H185.451Z" fill="#F9F8F4"/>
<path d="M202.163 139.85C202.538 140.484 203.028 140.962 203.628 141.28C204.229 141.599 204.894 141.757 205.622 141.757C206.108 141.757 206.524 141.717 206.87 141.634C207.215 141.554 207.523 141.421 207.789 141.234C208.225 140.922 208.641 140.735 209.035 140.673C209.43 140.611 209.802 140.649 210.156 140.784C210.398 140.884 210.619 141.025 210.821 141.205C211.02 141.385 211.187 141.594 211.322 141.83C211.456 142.066 211.551 142.324 211.612 142.604C211.673 142.885 211.686 143.165 211.649 143.445C211.612 143.726 211.521 143.999 211.376 144.269C211.231 144.538 211.023 144.783 210.756 145.007C210.526 145.194 210.255 145.383 209.946 145.577C209.636 145.771 209.278 145.942 208.871 146.091C208.463 146.24 207.993 146.362 207.46 146.456C206.927 146.549 206.313 146.596 205.622 146.596C204.422 146.596 203.293 146.362 202.235 145.895C201.18 145.428 200.254 144.789 199.459 143.979C198.664 143.169 198.035 142.226 197.576 141.147C197.114 140.07 196.884 138.913 196.884 137.68C196.884 136.446 197.114 135.289 197.576 134.203C198.037 133.119 198.666 132.176 199.459 131.37C200.254 130.567 201.18 129.931 202.235 129.464C203.29 128.996 204.419 128.763 205.622 128.763C206.799 128.763 207.915 128.99 208.972 129.444C210.03 129.9 210.951 130.525 211.74 131.321C212.529 132.12 213.157 133.05 213.623 134.116C214.089 135.182 214.336 136.325 214.36 137.547C214.36 138.232 214.143 138.786 213.714 139.211C213.283 139.636 212.722 139.848 212.03 139.848H202.163V139.85ZM209.501 135.811C209.174 135.064 208.678 134.512 208.017 134.156C207.356 133.8 206.587 133.624 205.713 133.624C204.84 133.624 204.084 133.813 203.446 134.194C202.809 134.574 202.333 135.113 202.016 135.811H209.501Z" fill="#F9F8F4"/>
<path d="M216.941 124.882C216.941 124.717 217.067 124.588 217.227 124.588H218.131C218.462 124.588 218.718 124.684 218.889 124.859C219.034 125.008 219.112 125.218 219.112 125.469V125.476C219.112 125.896 218.909 126.154 218.592 126.288L218.989 126.784C219.045 126.857 219.082 126.917 219.082 127.009C219.082 127.173 218.948 127.28 218.811 127.28C218.681 127.28 218.597 127.216 218.529 127.127L217.973 126.401H217.515V126.984C217.515 127.149 217.39 127.278 217.229 127.278C217.069 127.278 216.943 127.149 216.943 126.984V124.882H216.941ZM218.092 125.885C218.371 125.885 218.529 125.732 218.529 125.507V125.5C218.529 125.249 218.358 125.12 218.081 125.12H217.513V125.885H218.092Z" fill="#F9F8F4"/>
<path d="M218.025 128.99C216.384 128.99 215.049 127.619 215.049 125.935C215.049 124.25 216.384 122.88 218.025 122.88C219.665 122.88 221 124.25 221 125.935C221 127.619 219.665 128.99 218.025 128.99ZM218.025 123.409C216.668 123.409 215.565 124.542 215.565 125.935C215.565 127.328 216.668 128.46 218.025 128.46C219.381 128.46 220.484 127.328 220.484 125.935C220.484 124.542 219.381 123.409 218.025 123.409Z" fill="#F9F8F4"/>
</g>
<defs>
<clipPath id="clip0">
<rect width="166" height="62.6735" fill="white" transform="translate(55 110.664)"/>
</clipPath>
</defs>
</svg>
