<svg width="276" height="276" viewBox="0 0 276 276" fill="none" xmlns="http://www.w3.org/2000/svg">
<g clip-path="url(#clip0)">
<path d="M166.475 166.177C165.958 165.834 166.375 165.051 166.95 165.281C176.788 169.228 187.327 167.992 194.14 161.989C198.964 157.738 204.698 148.653 201.055 139.84C197.733 131.802 188.868 129.453 187.671 129.154C188.498 128.774 189.647 128.355 191.056 128.185C193.164 127.933 194.555 128.394 194.586 128.263C194.67 127.918 189.663 124.712 184.548 125.815C183.105 126.126 182.331 126.634 179.57 127.203C177.749 127.577 176.219 127.74 175.182 127.818C182.478 124.125 183.85 122.779 183.659 122.253C183.357 121.433 178.93 121.755 175.095 123.426C172.001 124.775 171.267 126.139 167.9 127.522C165.462 128.523 163.294 128.855 161.916 128.986C163.517 126.82 163.659 124.12 162.47 122.588C160.882 120.548 156.66 120.236 153.883 123.256C155.159 120.935 157.353 117.863 161.021 116.245C164.75 114.597 168.69 115.032 168.829 114.018C168.881 113.633 168.393 112.989 165.595 111.905C168.044 110.632 171.545 109.228 175.856 108.901C183.354 108.33 189.023 111.347 190.133 109.569C190.511 108.964 190.403 107.738 188.238 105.006C190.49 105.902 193.445 107.45 196.045 110.237C198.491 112.858 199.625 115.509 200.617 115.244C201.32 115.058 201.483 113.251 201.601 112.073C201.68 111.292 201.661 110.622 201.619 110.124C203.847 112.4 206.823 115.925 209.314 120.81C210.978 124.07 214.205 130.579 213.998 138.952C213.796 147.115 210.311 157.654 201.06 164.55C199.032 166.062 188.973 173.18 176.19 170.339C172.159 169.443 168.907 167.79 166.475 166.177Z" fill="url(#paint0_linear)"/>
<path d="M196.315 111.026C192.003 111.351 188.505 112.763 186.056 114.033C186.56 114.096 187.809 114.324 188.741 115.353C188.982 115.62 189.161 115.895 189.292 116.147C187.639 116.249 184.681 116.647 181.482 118.375C178.595 119.936 176.753 121.911 175.751 123.163C175.528 123.247 175.31 123.336 175.092 123.43C171.995 124.776 171.26 126.144 167.896 127.521C165.458 128.524 163.29 128.854 161.91 128.99C163.516 126.819 163.655 124.119 162.466 122.587C160.873 120.552 156.654 120.238 153.877 123.257C155.15 120.934 157.344 117.865 161.015 116.244C164.744 114.596 168.683 115.031 168.825 114.023C168.878 113.632 168.384 112.988 165.589 111.904C168.038 110.634 171.539 109.23 175.848 108.902C183.343 108.329 189.017 111.346 190.124 109.565C190.502 108.965 190.392 107.74 188.232 105C190.484 105.901 193.439 107.444 196.034 110.233C196.278 110.487 196.501 110.749 196.719 111.005C196.585 111.005 196.451 111.013 196.315 111.026Z" fill="#F9F8F4"/>
<path d="M63 155.713C64.3174 155.485 64.3751 154.655 64.3751 152.766V141.179C64.3751 139.291 64.3174 138.461 63 138.233V137.432H76.4443C79.2261 137.432 80.6012 138.374 80.6012 140.493C80.6012 142.497 79.3101 143.812 76.7304 145.357C78.4782 147.274 79.7982 149.82 81.0605 152.91C81.7192 154.542 82.0918 155.542 83.2675 155.715V156.517H74.3528V155.715C75.0692 155.401 75.3264 155.115 75.3264 154.542C75.3264 153.484 74.1507 150.194 71.3715 147.36L70.2825 147.704V152.766C70.2825 154.655 70.3402 155.485 71.6576 155.713V156.514H63V155.713ZM74.7543 141.407C74.7543 139.949 73.9512 139.32 72.2612 139.32C70.3402 139.32 70.2825 139.807 70.2825 140.894V145.53C73.1771 144.899 74.7543 143.382 74.7543 141.407Z" fill="#F9F8F4"/>
<path d="M93.9327 154.453C96.0243 154.453 97.5149 153.28 98.4911 150.907L99.2653 151.051L97.5752 156.687C96.9454 156.658 96.5727 156.658 96.4573 156.658C95.4548 156.658 94.2214 156.944 92.673 156.944C86.7972 156.944 83.0969 153.424 83.0969 149.105C83.0969 145.1 86.4797 141.808 91.6968 141.808C95.5388 141.808 97.7458 143.497 99.2075 147.358L89.0594 149.762C89.5475 152.766 91.3819 154.453 93.9327 154.453ZM91.2953 143.982C90.033 143.982 88.8573 145.126 88.8573 146.957C88.8573 147.156 88.8861 147.528 88.915 147.986L93.6178 146.842C93.3029 144.956 92.4709 143.982 91.2953 143.982Z" fill="#F9F8F4"/>
<path d="M101.703 157.829C101.617 158.201 101.588 158.486 101.588 158.717C101.588 159.746 102.16 160.348 103.05 160.348C104.312 160.348 105.43 159.033 105.43 157.059C105.43 155.972 105.028 154.741 104.427 153.253L101.36 145.671C100.787 144.241 100.299 143.324 99.2102 142.866V142.209H107.18V142.866C106.608 143.01 106.348 143.296 106.348 143.895C106.348 144.267 106.577 144.982 106.978 145.983L108.784 150.503L110.531 145.297C110.731 144.726 110.818 144.437 110.818 144.409C110.818 144.236 110.846 144.094 110.846 143.95C110.846 143.55 110.702 143.235 109.844 142.863V142.206H115.263V142.863C113.917 143.264 113.429 144.181 112.825 145.695L107.695 158.339C106.49 161.343 105.144 162.86 102.593 162.86C101.417 162.86 100.415 162.459 99.2968 161.658L100.903 157.567L101.703 157.829Z" fill="#F9F8F4"/>
<path d="M115.148 155.799C116.323 155.713 116.523 155.027 116.523 153.453V145.758C116.523 144.155 116.294 143.469 115.003 143.325V142.61L121.168 142.209C121.511 142.924 121.714 143.783 121.826 144.812C123.49 142.895 125.209 142.007 127.474 142.007C130.542 142.007 131.258 143.524 131.258 146.9V152.821C131.258 154.739 131.431 155.598 132.835 155.797V156.512H124.293V155.797C125.668 155.598 125.957 154.796 125.957 153.107V147.644C125.957 145.842 125.613 145.04 124.495 145.04C122.831 145.04 121.829 146.643 121.829 149.846V152.478C121.829 154.539 121.944 155.482 123.435 155.797V156.512H115.15V155.799H115.148Z" fill="#F9F8F4"/>
<path d="M135.531 142.379C136.076 142.552 136.475 142.693 136.764 142.693C137.654 142.693 139.43 141.805 142.267 141.805C144.246 141.805 145.794 142.177 146.597 142.607C148.203 143.466 148.316 144.668 148.316 146.47V152.679C148.316 154.369 148.461 155.225 150.208 155.799V156.514H143.986C143.556 156.027 143.356 155.427 143.212 154.683C142.123 156.199 140.459 156.914 138.139 156.914C135.273 156.914 133.638 155.398 133.638 153.109C133.638 149.877 136.677 147.931 142.897 146.844V145.985C142.897 144.555 142.152 143.869 140.517 143.869C138.223 143.869 136.389 145.213 135.672 147.502H134.985L135.531 142.379ZM139 152.308C139 153.25 139.601 153.882 140.404 153.882C141.923 153.882 142.897 152.509 142.897 149.733V148.646C140.26 149.361 139 150.506 139 152.308Z" fill="#F9F8F4"/>
<path d="M151.098 143.325V142.61L157.263 142.209C157.606 142.924 157.808 143.783 157.921 144.812C159.267 142.924 160.703 142.007 162.364 142.007C162.737 142.007 163.167 142.065 163.626 142.123L162.595 146.069C161.734 145.611 161.018 145.354 160.359 145.354C158.123 145.354 157.921 147.214 157.921 150.391V152.478C157.921 154.511 158.008 155.482 159.527 155.797V156.512H151.242V155.797C152.589 155.653 152.617 154.825 152.617 153.45V145.755C152.617 144.155 152.387 143.469 151.098 143.325Z" fill="#F9F8F4"/>
<path d="M172.397 156.514C170.534 156.514 168.899 156.485 167.35 155.77C165.143 154.712 163.682 152.394 163.682 149.704C163.682 147.701 164.485 145.813 165.889 144.411C167.925 142.408 170.132 142.209 173.084 142.209H174.575V141.179C174.575 140.923 174.575 140.664 174.575 140.436C174.575 138.804 174.517 138.06 173.428 137.948V137.204L179.879 136.316V153.452C179.879 153.738 179.879 154.052 179.879 154.424C179.879 155.024 180.425 155.796 181.312 155.796C181.34 155.796 181.369 155.796 181.398 155.796V156.511H172.397V156.514ZM174.578 144.44C174.147 144.411 173.861 144.383 173.659 144.383C171.022 144.383 169.56 146.184 169.56 149.647C169.56 152.709 170.877 154.539 172.714 154.539C174.407 154.539 174.578 153.651 174.578 151.679V144.44Z" fill="#F9F8F4"/>
</g>
<defs>
<linearGradient id="paint0_linear" x1="183.945" y1="105.006" x2="183.945" y2="171.002" gradientUnits="userSpaceOnUse">
<stop stop-color="#FFBD00"/>
<stop offset="1" stop-color="#F70000"/>
</linearGradient>
<clipPath id="clip0">
<rect width="151" height="66" fill="white" transform="translate(63 105)"/>
</clipPath>
</defs>
</svg>
