<svg width="276" height="276" viewBox="0 0 276 276" fill="none" xmlns="http://www.w3.org/2000/svg">
<g clip-path="url(#clip0)">
<path d="M103 154.117C104.892 151.825 107.302 150.274 110.2 149.441C110.706 149.295 111.227 149.192 111.746 149.098C115.324 148.448 118.751 149.887 120.26 153.431C120.904 154.942 121.441 156.494 122.01 158.034C125.165 166.575 128.311 175.12 131.47 183.659C131.805 184.566 132.154 185.483 132.623 186.327C133.528 187.959 134.887 189.086 136.712 189.65C139.88 190.627 143.03 188.949 144.338 186.684C144.893 185.72 145.319 184.669 145.705 183.625C149.095 174.455 152.452 165.273 155.853 156.107C156.318 154.854 156.889 153.62 157.569 152.468C158.51 150.879 159.849 149.647 161.723 149.233C162.736 149.009 163.84 148.849 164.849 149.006C168.373 149.555 171.471 150.996 173.819 153.761C173.909 153.868 173.939 154.027 173.998 154.164C172.414 157.682 166.433 160.126 161.97 159.084C161.694 157.48 162.115 156.696 163.441 156.429C164.18 156.281 164.944 156.241 165.673 156.066C166.845 155.786 167.994 155.426 168.867 154.328C168.647 154.034 168.495 153.671 168.221 153.496C166.859 152.627 165.356 152.179 163.724 152.215C161.986 152.253 160.676 153.006 159.926 154.576C159.541 155.383 159.23 156.228 158.922 157.066C155.672 165.891 152.431 174.719 149.181 183.545C148.744 184.734 148.338 185.944 147.801 187.091C146.017 190.894 143.037 192.881 138.733 193C134.43 193.116 130.704 190.784 129.124 186.563C127.424 182.019 125.743 177.468 124.063 172.915C122.105 167.59 120.158 162.262 118.189 156.942C117.931 156.246 117.638 155.547 117.246 154.917C115.526 152.159 112.716 151.428 109.828 152.959C109.242 153.27 108.577 153.523 108.319 154.408C108.577 154.65 108.849 154.991 109.194 155.215C110.499 156.062 112 156.257 113.511 156.373C114.051 156.414 114.613 156.47 114.894 156.983C115.209 157.556 115.642 158.181 115.343 158.856C115.043 159.526 114.309 159.364 113.731 159.389C109.509 159.58 106.141 157.827 103.329 154.852C103.186 154.704 103.147 154.46 103 154.117Z" fill="#F9F8F4"/>
<path d="M148.302 153.183C146.589 152.943 144.878 152.69 143.162 152.464C140.084 152.058 137.002 152.036 133.927 152.488C132.662 152.674 131.39 152.829 130.137 153.073C128.399 153.411 126.867 153.026 125.435 152.029C121.251 149.114 118.586 145.175 117.307 140.304C117.081 139.446 116.936 138.552 116.877 137.667C116.807 136.612 117.303 136.202 118.4 136.246C119.399 136.287 119.909 136.733 120.05 137.727C120.102 138.095 120.047 138.478 120.113 138.841C120.26 139.641 120.328 140.488 120.648 141.221C121.922 144.144 123.839 146.611 126.382 148.574C127.896 149.741 129.632 150.08 131.511 149.659C134.022 149.094 136.56 148.903 139.137 148.915C141.487 148.926 143.815 149.154 146.09 149.638C148.05 150.055 149.607 149.611 151.103 148.372C153.916 146.042 155.794 143.163 156.683 139.65C156.864 138.928 156.982 138.189 157.17 137.47C157.41 136.542 157.984 136.204 159.042 136.309C159.851 136.39 160.214 136.872 160.171 137.929C160.144 138.597 160.105 139.28 159.951 139.928C158.655 145.325 155.717 149.576 150.881 152.486C150.076 152.968 149.242 153.225 148.302 153.183Z" fill="#F9F8F4"/>
<path d="M158.736 116.305C159.346 115.577 159.999 115.254 160.805 115.449C161.603 115.642 162.045 116.236 162.331 116.973C164.076 121.465 163.443 125.817 159.427 129.072C156.975 131.062 154.104 132.148 151.085 132.892C149.852 133.197 148.565 133.313 147.293 133.423C144.059 133.703 140.859 134.082 137.788 135.231C136.057 135.879 135.411 135.458 134.668 133.41C135.012 133.186 135.354 132.894 135.749 132.724C138.6 131.492 141.548 130.658 144.687 130.537C147.33 130.437 149.94 130.071 152.456 129.209C154.104 128.644 155.668 127.907 157.061 126.858C159.831 124.775 160.656 122.272 159.652 118.972C159.373 118.057 159.033 117.163 158.736 116.305Z" fill="#F9F8F4"/>
<path d="M112.995 126.105C113.06 121.447 116.299 117.215 120.956 115.817C121.815 115.559 122.717 115.434 123.601 115.257C126.409 114.699 129.174 113.995 131.875 113.043C132.578 112.796 133.317 112.579 134.053 112.512C134.912 112.434 135.681 112.738 136.172 113.527C136.44 113.955 136.401 114.446 135.977 114.696C135.529 114.961 135.053 115.196 134.568 115.391C131.422 116.65 128.193 117.638 124.838 118.196C124.023 118.333 123.195 118.452 122.407 118.687C119.825 119.46 117.903 121.055 116.7 123.437C115.963 124.893 115.945 126.455 116.283 128.021C116.423 128.675 116.65 129.312 116.802 129.964C116.961 130.645 116.587 131.106 115.864 131.174C114.527 131.299 113.579 130.638 113.298 129.213C113.099 128.198 113.09 127.143 112.995 126.105Z" fill="#F9F8F4"/>
<path d="M155.804 99.5615C156.041 99.8909 156.343 100.214 156.538 100.59C160.397 108.094 158.029 118.929 147.259 122.373C146.836 122.507 146.387 122.597 145.945 122.633C145.029 122.707 144.361 122.308 143.901 121.519C143.422 120.701 143.645 120.164 144.581 119.839C145.927 119.373 147.318 118.989 148.587 118.367C154.092 115.662 156.116 109.548 154.607 104.372C154.398 103.66 154.081 102.96 153.993 102.235C153.925 101.679 154.092 101.076 154.247 100.518C154.333 100.196 154.605 100.099 155.804 99.5615Z" fill="#F9F8F4"/>
<path d="M137.097 98.6498C137.607 101.043 137.326 101.849 135.54 102.887C133.253 104.213 130.799 105.127 128.19 105.631C127.232 105.817 126.273 105.999 125.319 106.205C123.134 106.678 121.75 108.004 121.085 110.101C120.911 110.653 120.682 111.186 120.467 111.755C119.481 111.717 118.996 111.193 118.631 110.514C118.268 109.835 118.092 109.131 118.366 108.367C119.023 106.548 120.159 105.123 121.863 104.148C123.055 103.467 124.365 103.086 125.695 102.88C129.321 102.32 132.682 101.132 135.717 99.0755C135.962 98.9097 136.234 98.7708 136.508 98.6588C136.628 98.6073 136.791 98.6498 137.097 98.6498Z" fill="#F9F8F4"/>
<path d="M144.499 82C144.755 82.2061 145.072 82.3988 145.308 82.661C147.631 85.2466 149.372 88.1728 150.493 91.4507C151.13 93.3126 151.287 95.2328 150.988 97.1642C150.877 97.8811 150.627 98.6093 150.283 99.2501C149.879 99.9985 148.887 100.247 148.121 99.947C147.384 99.6602 147.083 99.0911 147.309 98.3539C147.418 97.9999 147.579 97.6616 147.717 97.3165C148.155 96.2411 148.143 95.1454 147.894 94.0341C147.28 91.3073 145.988 88.8897 144.417 86.6021C144.164 86.2347 143.869 85.8941 143.604 85.5356C142.341 83.835 142.446 83.3936 144.499 82Z" fill="#F9F8F4"/>
<path d="M139.348 88.8294C139.098 89.8287 138.96 90.8706 138.573 91.8161C138.006 93.194 136.911 94.0835 135.413 94.4263C135.121 94.4936 134.824 94.5496 134.527 94.5899C132.678 94.8431 131.066 95.4727 129.958 97.0949C129.532 97.7177 128.85 97.6684 128.165 97.1778C127.424 96.6467 127.182 95.9634 127.542 95.2621C128.292 93.8057 129.5 92.8221 131.003 92.2149C131.69 91.9371 132.444 91.8138 133.172 91.6368C133.534 91.5495 133.917 91.5315 134.276 91.4285C135.13 91.182 135.681 90.6577 135.907 89.7637C136.15 88.8003 136.102 87.8592 135.978 86.8913C135.882 86.1497 136.24 85.8158 137.016 85.7643C138.366 85.6724 139.037 86.1855 139.166 87.4537C139.212 87.8951 139.173 88.3432 139.173 88.7891C139.23 88.8048 139.289 88.816 139.348 88.8294Z" fill="#F9F8F4"/>
</g>
<defs>
<clipPath id="clip0">
<rect width="71" height="111" fill="white" transform="translate(103 82)"/>
</clipPath>
</defs>
</svg>
