<svg width="276" height="276" viewBox="0 0 276 276" fill="none" xmlns="http://www.w3.org/2000/svg">
<g clip-path="url(#clip0)">
<path d="M76.7957 153.763V161.507H58.4942L62.2178 157.635L58.4942 153.763H76.7957Z" fill="#F9F8F4"/>
<path d="M202.699 161.217V153.473H221L217.283 157.345L221 161.217H202.699Z" fill="#F9F8F4"/>
<path d="M60.3421 156.409L56.7952 152.715H74.963V160.381H56.7952L60.3421 156.686L60.4751 156.548L60.3421 156.409Z" fill="#F9F8F4" stroke="black" stroke-width="0.4"/>
<mask id="path-4-inside-1" fill="white">
<path d="M75.0017 152.675V160.419H56.7002L60.4173 156.547L56.7002 152.675H75.0017ZM75.3243 152.352H75.0017H56.7002H55.9452L56.4679 152.901L59.972 156.547L56.4679 160.193L55.9452 160.741H56.7002H75.0017H75.3243V160.419V152.675V152.352Z"/>
</mask>
<path d="M75.0017 152.675V160.419H56.7002L60.4173 156.547L56.7002 152.675H75.0017ZM75.3243 152.352H75.0017H56.7002H55.9452L56.4679 152.901L59.972 156.547L56.4679 160.193L55.9452 160.741H56.7002H75.0017H75.3243V160.419V152.675V152.352Z" fill="black"/>
<path d="M75.0017 152.675H75.4017V152.275H75.0017V152.675ZM75.0017 160.419V160.819H75.4017V160.419H75.0017ZM56.7002 160.419L56.4117 160.142L55.7617 160.819H56.7002V160.419ZM60.4173 156.547L60.7059 156.824L60.9718 156.547L60.7059 156.27L60.4173 156.547ZM56.7002 152.675V152.275H55.7617L56.4117 152.952L56.7002 152.675ZM75.3243 152.352H75.7243V151.952H75.3243V152.352ZM55.9452 152.352V151.952H55.0115L55.6556 152.628L55.9452 152.352ZM56.4679 152.901L56.1783 153.177L56.1795 153.178L56.4679 152.901ZM59.972 156.547L60.2604 156.824L60.5268 156.547L60.2604 156.269L59.972 156.547ZM56.4679 160.193L56.1795 159.916L56.1783 159.917L56.4679 160.193ZM55.9452 160.741L55.6556 160.465L55.0115 161.141H55.9452V160.741ZM75.3243 160.741V161.141H75.7243V160.741H75.3243ZM74.6017 152.675V160.419H75.4017V152.675H74.6017ZM75.0017 160.019H56.7002V160.819H75.0017V160.019ZM56.9888 160.696L60.7059 156.824L60.1288 156.27L56.4117 160.142L56.9888 160.696ZM60.7059 156.27L56.9888 152.398L56.4117 152.952L60.1288 156.824L60.7059 156.27ZM56.7002 153.075H75.0017V152.275H56.7002V153.075ZM75.3243 151.952H75.0017V152.752H75.3243V151.952ZM75.0017 151.952H56.7002V152.752H75.0017V151.952ZM56.7002 151.952H55.9452V152.752H56.7002V151.952ZM55.6556 152.628L56.1783 153.177L56.7575 152.625L56.2348 152.076L55.6556 152.628ZM56.1795 153.178L59.6836 156.824L60.2604 156.269L56.7563 152.623L56.1795 153.178ZM59.6836 156.269L56.1795 159.916L56.7563 160.47L60.2604 156.824L59.6836 156.269ZM56.1783 159.917L55.6556 160.465L56.2348 161.017L56.7575 160.469L56.1783 159.917ZM55.9452 161.141H56.7002V160.341H55.9452V161.141ZM56.7002 161.141H75.0017V160.341H56.7002V161.141ZM75.0017 161.141H75.3243V160.341H75.0017V161.141ZM75.7243 160.741V160.419H74.9243V160.741H75.7243ZM75.7243 160.419V152.675H74.9243V160.419H75.7243ZM75.7243 152.675V152.352H74.9243V152.675H75.7243Z" fill="black" mask="url(#path-4-inside-1)"/>
<path d="M215.893 156.686L219.44 160.381H201.266V152.715H219.44L215.893 156.409L215.76 156.548L215.893 156.686Z" fill="#F9F8F4" stroke="black" stroke-width="0.4"/>
<path d="M219.529 152.675L215.812 156.547L219.529 160.419H201.228V152.675H219.529ZM220.284 152.352H219.529H201.228H200.905V152.675V160.419V160.741H201.228H219.529H220.284L219.761 160.193L216.257 156.547L219.761 152.901L220.284 152.352Z" fill="black"/>
<path d="M89.1603 166.367L87.8697 160.649H86.3015V166.367H84.0493V148.343H87.889C90.4381 148.343 90.9221 149.382 90.9221 151.75V157.371C90.9221 158.72 90.5091 159.604 89.7282 160.094L91.2189 166.36H89.1603V166.367ZM87.3728 158.881C88.3924 158.881 88.7021 158.565 88.7021 157.39V151.731C88.7021 150.556 88.3859 150.24 87.3728 150.24H86.2951V158.881H87.3728Z" fill="#F9F8F4"/>
<path d="M101.105 151.556V163.153C101.105 165.721 99.6534 166.541 97.6206 166.541C95.6007 166.541 94.1552 165.721 94.1552 163.153V151.556C94.1552 148.988 95.6072 148.168 97.6206 148.168C99.6598 148.168 101.105 148.988 101.105 151.556ZM97.6206 150.085C96.9559 150.085 96.4074 150.421 96.4074 151.576V163.134C96.4074 164.289 96.9559 164.624 97.6206 164.624C98.3047 164.624 98.8338 164.289 98.8338 163.134V151.576C98.8338 150.421 98.3047 150.085 97.6206 150.085Z" fill="#F9F8F4"/>
<path d="M109.004 154.202V151.556C109.004 150.421 108.475 150.066 107.791 150.066C107.107 150.066 106.578 150.421 106.578 151.556V153.867C106.578 156.919 111.218 156.396 111.218 160.739V163.166C111.218 165.715 109.804 166.534 107.791 166.534C105.778 166.534 104.384 165.715 104.384 163.166V160.501H106.558V163.146C106.558 164.282 107.088 164.637 107.772 164.637C108.475 164.637 108.985 164.282 108.985 163.146V160.836C108.985 157.777 104.364 158.307 104.364 153.963V151.537C104.364 148.988 105.771 148.168 107.772 148.168C109.791 148.168 111.179 148.988 111.179 151.537V154.202H109.004Z" fill="#F9F8F4"/>
<path d="M118.975 154.202V151.556C118.975 150.421 118.445 150.066 117.761 150.066C117.077 150.066 116.548 150.421 116.548 151.556V153.867C116.548 156.919 121.188 156.396 121.188 160.739V163.166C121.188 165.715 119.775 166.534 117.761 166.534C115.748 166.534 114.354 165.715 114.354 163.166V160.501H116.529V163.146C116.529 164.282 117.058 164.637 117.742 164.637C118.445 164.637 118.955 164.282 118.955 163.146V160.836C118.955 157.777 114.335 158.307 114.335 153.963V151.537C114.335 148.988 115.741 148.168 117.742 148.168C119.762 148.168 121.149 148.988 121.149 151.537V154.202H118.975Z" fill="#F9F8F4"/>
<path d="M136.05 163.192C136.05 165.741 134.643 166.56 132.604 166.56C130.584 166.56 129.119 165.734 129.119 163.192V160.178C129.119 158.707 129.687 157.926 130.648 157.435V157.339C129.784 156.867 129.216 156.222 129.216 154.731V151.421C129.216 148.994 130.584 148.168 132.604 148.168C134.643 148.168 136.011 148.988 136.011 151.421V153.931H133.817V151.524C133.817 150.427 133.288 150.092 132.604 150.092C131.939 150.092 131.39 150.427 131.39 151.524V154.951C131.39 156.087 131.978 156.48 132.681 156.48H136.05V163.192ZM133.836 158.313H132.681C131.978 158.313 131.371 158.707 131.371 159.842V163.211C131.371 164.308 131.939 164.663 132.604 164.663C133.288 164.663 133.836 164.308 133.836 163.211V158.313Z" fill="#F9F8F4"/>
<path d="M150.918 163.172C150.918 165.741 149.466 166.56 147.433 166.56C145.413 166.56 143.968 165.734 143.968 163.172V151.556C143.968 148.988 145.42 148.168 147.433 148.168C149.472 148.168 150.918 148.988 150.918 151.556V154.338H148.646V151.576C148.646 150.421 148.117 150.085 147.433 150.085C146.769 150.085 146.22 150.421 146.22 151.576V163.172C146.22 164.308 146.769 164.663 147.433 164.663C148.117 164.663 148.646 164.308 148.646 163.172V160.333H150.918V163.172Z" fill="#F9F8F4"/>
<path d="M154.248 148.343H156.5V166.36H154.248V148.343Z" fill="#F9F8F4"/>
<path d="M164.941 166.367L163.65 160.649H162.082V166.367H159.83V148.343H163.67C166.219 148.343 166.703 149.382 166.703 151.75V157.371C166.703 158.72 166.29 159.604 165.509 160.094L166.999 166.36H164.941V166.367ZM163.16 158.881C164.179 158.881 164.489 158.565 164.489 157.39V151.731C164.489 150.556 164.173 150.24 163.16 150.24H162.082V158.881H163.16Z" fill="#F9F8F4"/>
<path d="M176.892 163.172C176.892 165.741 175.44 166.56 173.407 166.56C171.388 166.56 169.942 165.734 169.942 163.172V151.556C169.942 148.988 171.394 148.168 173.407 148.168C175.447 148.168 176.892 148.988 176.892 151.556V154.338H174.621V151.576C174.621 150.421 174.091 150.085 173.407 150.085C172.743 150.085 172.194 150.421 172.194 151.576V163.172C172.194 164.308 172.743 164.663 173.407 164.663C174.091 164.663 174.621 164.308 174.621 163.172V160.333H176.892V163.172Z" fill="#F9F8F4"/>
<path d="M185.63 164.463V166.36H180.222V148.343H182.474V164.463H185.63Z" fill="#F9F8F4"/>
<path d="M191.135 150.246V156.396H193.955V158.274H191.135V164.463H193.994V166.36H188.883V148.343H193.994V150.24H191.135V150.246Z" fill="#F9F8F4"/>
<path d="M88.0892 165.702L86.7985 159.985H85.5208V165.702H82.9459V147.362H86.9469C89.6509 147.362 90.1413 148.563 90.1413 150.931V156.552C90.1413 157.888 89.7606 158.804 88.9668 159.346L90.4769 165.702H88.0892ZM86.4371 157.9C87.3148 157.9 87.6052 157.707 87.6052 156.571V150.912C87.6052 149.776 87.3148 149.582 86.4371 149.582H85.5208V157.9H86.4371Z" fill="#F9F8F4"/>
<path d="M86.9468 147.524C89.4958 147.524 89.9798 148.563 89.9798 150.932V156.552C89.9798 157.901 89.5668 158.785 88.786 159.276L90.2767 165.542H88.2181L86.9274 159.824H85.3593V165.542H83.1071V147.524H86.9468ZM85.3593 158.062H86.437C87.4566 158.062 87.7664 157.746 87.7664 156.572V150.912C87.7664 149.738 87.4502 149.422 86.437 149.422H85.3593V158.062ZM86.9468 147.202H83.1071H82.7845V147.524V165.542V165.864H83.1071H85.3593H85.682V165.542V160.147H86.6693L87.9019 165.613L87.96 165.864H88.2181H90.2767H90.6832L90.5864 165.464L89.1474 159.411C89.9153 158.83 90.3025 157.869 90.3025 156.546V150.925C90.3025 148.512 89.7669 147.202 86.9468 147.202ZM85.682 149.751H86.437C87.2437 149.751 87.4437 149.886 87.4437 150.919V156.578C87.4437 157.604 87.2437 157.746 86.437 157.746H85.682V149.751Z" fill="black"/>
<path d="M96.6784 165.884C94.2714 165.884 93.0517 164.69 93.0517 162.334V150.738C93.0517 148.382 94.2714 147.188 96.6784 147.188C99.0984 147.188 100.325 148.382 100.325 150.738V162.334C100.325 164.69 99.0984 165.884 96.6784 165.884ZM96.6784 149.428C96.2267 149.428 95.6265 149.563 95.6265 150.757V162.315C95.6265 163.502 96.2267 163.644 96.6784 163.644C97.1689 163.644 97.7303 163.496 97.7303 162.315V150.757C97.7303 149.583 97.1689 149.428 96.6784 149.428Z" fill="#F9F8F4"/>
<path d="M96.6784 147.35C98.7176 147.35 100.163 148.17 100.163 150.738V162.334C100.163 164.903 98.7112 165.722 96.6784 165.722C94.6585 165.722 93.213 164.903 93.213 162.334V150.738C93.213 148.17 94.6585 147.35 96.6784 147.35ZM96.6784 163.799C97.3624 163.799 97.8916 163.464 97.8916 162.309V150.751C97.8916 149.596 97.3624 149.26 96.6784 149.26C96.0137 149.26 95.4652 149.596 95.4652 150.751V162.309C95.4652 163.47 96.0137 163.799 96.6784 163.799ZM96.6784 147.027C94.1616 147.027 92.8903 148.273 92.8903 150.738V162.334C92.8903 164.8 94.1681 166.045 96.6784 166.045C99.2081 166.045 100.486 164.8 100.486 162.334V150.738C100.486 148.273 99.2081 147.027 96.6784 147.027ZM96.6784 163.477C96.2396 163.477 95.7878 163.341 95.7878 162.309V150.751C95.7878 149.725 96.2396 149.583 96.6784 149.583C97.143 149.583 97.5689 149.725 97.5689 150.751V162.309C97.5689 163.335 97.143 163.477 96.6784 163.477Z" fill="black"/>
<path d="M106.849 165.884C104.448 165.884 103.28 164.728 103.28 162.354V159.527H105.777V162.334C105.777 163.522 106.378 163.664 106.829 163.664C107.32 163.664 107.881 163.515 107.881 162.334V160.024C107.881 158.714 106.984 158.114 105.945 157.41C104.687 156.559 103.261 155.597 103.261 153.145V150.718C103.261 148.376 104.461 147.188 106.829 147.188C109.23 147.188 110.398 148.344 110.398 150.718V153.545H107.901V150.738C107.901 149.55 107.3 149.408 106.849 149.408C106.397 149.408 105.797 149.544 105.797 150.738V153.048C105.797 154.358 106.7 154.958 107.739 155.662C109.004 156.513 110.437 157.475 110.437 159.921V162.347C110.437 164.728 109.262 165.884 106.849 165.884Z" fill="#F9F8F4"/>
<path d="M106.823 147.35C108.843 147.35 110.23 148.17 110.23 150.719V153.384H108.055V150.738C108.055 149.602 107.526 149.247 106.842 149.247C106.158 149.247 105.629 149.602 105.629 150.738V153.048C105.629 156.101 110.269 155.578 110.269 159.921V162.347C110.269 164.896 108.856 165.716 106.842 165.716C104.822 165.716 103.435 164.896 103.435 162.347V159.682H105.61V162.328C105.61 163.464 106.139 163.819 106.823 163.819C107.526 163.819 108.036 163.464 108.036 162.328V160.018C108.036 156.959 103.416 157.488 103.416 153.145V150.719C103.416 148.17 104.829 147.35 106.823 147.35ZM106.823 147.027C104.345 147.027 103.093 148.266 103.093 150.719V153.145C103.093 155.681 104.558 156.669 105.848 157.54C106.887 158.243 107.713 158.798 107.713 160.018V162.328C107.713 163.354 107.287 163.496 106.823 163.496C106.384 163.496 105.932 163.361 105.932 162.328V159.682V159.36H105.61H103.435H103.112V159.682V162.347C103.112 164.8 104.371 166.039 106.842 166.039C109.333 166.039 110.592 164.8 110.592 162.347V159.921C110.592 157.385 109.12 156.397 107.823 155.526C106.778 154.823 105.952 154.268 105.952 153.048V150.738C105.952 149.712 106.403 149.57 106.842 149.57C107.281 149.57 107.733 149.705 107.733 150.738V153.384V153.706H108.055H110.23H110.553V153.384V150.719C110.559 148.266 109.301 147.027 106.823 147.027Z" fill="black"/>
<path d="M116.819 165.884C114.418 165.884 113.25 164.728 113.25 162.354V159.527H115.748V162.334C115.748 163.522 116.348 163.664 116.8 163.664C117.29 163.664 117.852 163.515 117.852 162.334V160.024C117.852 158.714 116.955 158.114 115.916 157.41C114.657 156.559 113.231 155.597 113.231 153.145V150.718C113.231 148.376 114.431 147.188 116.8 147.188C119.2 147.188 120.368 148.344 120.368 150.718V153.545H117.871V150.738C117.871 149.55 117.271 149.408 116.819 149.408C116.367 149.408 115.767 149.544 115.767 150.738V153.048C115.767 154.358 116.671 154.958 117.71 155.662C118.974 156.513 120.407 157.475 120.407 159.921V162.347C120.407 164.728 119.233 165.884 116.819 165.884Z" fill="#F9F8F4"/>
<path d="M116.793 147.35C118.813 147.35 120.2 148.17 120.2 150.719V153.384H118.026V150.738C118.026 149.602 117.496 149.247 116.812 149.247C116.128 149.247 115.599 149.602 115.599 150.738V153.048C115.599 156.101 120.239 155.578 120.239 159.921V162.347C120.239 164.896 118.826 165.716 116.812 165.716C114.793 165.716 113.405 164.896 113.405 162.347V159.682H115.58V162.328C115.58 163.464 116.109 163.819 116.793 163.819C117.496 163.819 118.006 163.464 118.006 162.328V160.018C118.006 156.959 113.386 157.488 113.386 153.145V150.719C113.386 148.17 114.799 147.35 116.793 147.35ZM116.793 147.027C114.315 147.027 113.063 148.266 113.063 150.719V153.145C113.063 155.681 114.528 156.669 115.819 157.54C116.858 158.243 117.684 158.798 117.684 160.018V162.328C117.684 163.354 117.258 163.496 116.793 163.496C116.354 163.496 115.902 163.361 115.902 162.328V159.682V159.36H115.58H113.405H113.082V159.682V162.347C113.082 164.8 114.341 166.039 116.812 166.039C119.303 166.039 120.562 164.8 120.562 162.347V159.921C120.562 157.385 119.09 156.397 117.793 155.526C116.748 154.823 115.922 154.268 115.922 153.048V150.738C115.922 149.712 116.374 149.57 116.812 149.57C117.251 149.57 117.703 149.705 117.703 150.738V153.384V153.706H118.026H120.2H120.523V153.384V150.719C120.529 148.266 119.271 147.027 116.793 147.027Z" fill="black"/>
<path d="M131.661 165.903C129.241 165.903 128.015 164.716 128.015 162.373V159.359C128.015 158.03 128.473 157.133 129.461 156.565C128.738 156.133 128.112 155.481 128.112 153.913V150.602C128.112 148.337 129.306 147.188 131.661 147.188C134.062 147.188 135.23 148.305 135.23 150.602V153.274H132.713V150.705C132.713 149.57 132.113 149.434 131.661 149.434C130.952 149.434 130.61 149.847 130.61 150.705V154.132C130.61 155.036 130.99 155.5 131.739 155.5H135.269V162.379C135.275 164.748 134.094 165.903 131.661 165.903ZM131.745 157.656C131.223 157.656 130.597 157.894 130.597 159.024V162.392C130.597 163.244 130.958 163.683 131.668 163.683C132.391 163.683 132.739 163.264 132.739 162.392V157.656H131.745Z" fill="#F9F8F4"/>
<path d="M131.661 147.35C133.701 147.35 135.069 148.17 135.069 150.602V153.113H132.875V150.706C132.875 149.609 132.345 149.273 131.661 149.273C130.997 149.273 130.448 149.609 130.448 150.706V154.132C130.448 155.268 131.035 155.662 131.739 155.662H135.107V162.38C135.107 164.929 133.694 165.748 131.661 165.748C129.642 165.748 128.177 164.922 128.177 162.38V159.366C128.177 157.895 128.745 157.114 129.706 156.623V156.527C128.841 156.055 128.273 155.41 128.273 153.919V150.609C128.273 148.17 129.648 147.35 131.661 147.35ZM131.661 163.838C132.345 163.838 132.894 163.483 132.894 162.386V157.488H131.739C131.035 157.488 130.429 157.882 130.429 159.017V162.386C130.429 163.49 130.997 163.838 131.661 163.838ZM131.661 147.027C129.196 147.027 127.951 148.228 127.951 150.602V153.913C127.951 155.397 128.512 156.114 129.158 156.565C128.267 157.165 127.854 158.069 127.854 159.36V162.373C127.854 164.825 129.138 166.064 131.661 166.064C134.165 166.064 135.43 164.825 135.43 162.373V155.655V155.333H135.107H131.739C131.087 155.333 130.771 154.939 130.771 154.126V150.699C130.771 149.718 131.248 149.589 131.661 149.589C132.1 149.589 132.552 149.718 132.552 150.699V153.106V153.429H132.875H135.069H135.391V153.106V150.596C135.391 148.228 134.139 147.027 131.661 147.027ZM131.661 163.515C131.268 163.515 130.751 163.399 130.751 162.386V159.017C130.751 158.204 131.074 157.811 131.739 157.811H132.571V162.386C132.578 163.393 132.087 163.515 131.661 163.515Z" fill="black"/>
<path d="M146.491 165.903C144.084 165.903 142.864 164.709 142.864 162.354V150.738C142.864 148.382 144.084 147.188 146.491 147.188C148.911 147.188 150.137 148.382 150.137 150.738V153.68H147.543V150.757C147.543 149.583 146.981 149.428 146.491 149.428C146.039 149.428 145.439 149.563 145.439 150.757V162.354C145.439 163.244 145.781 163.683 146.491 163.683C146.943 163.683 147.543 163.547 147.543 162.354V159.353H150.137V162.354C150.137 164.709 148.911 165.903 146.491 165.903Z" fill="#F9F8F4"/>
<path d="M146.491 147.35C148.53 147.35 149.976 148.17 149.976 150.738V153.519H147.704V150.757C147.704 149.602 147.175 149.267 146.491 149.267C145.826 149.267 145.278 149.602 145.278 150.757V162.354C145.278 163.49 145.826 163.845 146.491 163.845C147.175 163.845 147.704 163.49 147.704 162.354V159.514H149.976V162.354C149.976 164.922 148.524 165.742 146.491 165.742C144.471 165.742 143.026 164.916 143.026 162.354V150.738C143.026 148.17 144.471 147.35 146.491 147.35ZM146.491 147.027C143.974 147.027 142.703 148.273 142.703 150.738V162.354C142.703 164.819 143.981 166.064 146.491 166.064C149.021 166.064 150.298 164.813 150.298 162.354V159.514V159.192H149.976H147.704H147.382V159.514V162.354C147.382 163.38 146.93 163.522 146.491 163.522C146.078 163.522 145.6 163.386 145.6 162.354V150.757C145.6 149.731 146.052 149.589 146.491 149.589C146.956 149.589 147.382 149.731 147.382 150.757V153.519V153.842H147.704H149.976H150.298V153.519V150.738C150.298 148.273 149.021 147.027 146.491 147.027Z" fill="black"/>
<path d="M155.719 147.362H153.144V165.702H155.719V147.362Z" fill="#F9F8F4"/>
<path d="M155.558 147.524V165.542H153.306V147.524H155.558ZM155.88 147.202H155.558H153.306H152.983V147.524V165.542V165.864H153.306H155.558H155.88V165.542V147.524V147.202Z" fill="black"/>
<path d="M163.876 165.702L162.585 159.985H161.308V165.702H158.733V147.362H162.734C165.438 147.362 165.928 148.563 165.928 150.931V156.552C165.928 157.888 165.547 158.804 164.754 159.346L166.264 165.702H163.876ZM162.217 157.9C163.095 157.9 163.385 157.707 163.385 156.571V150.912C163.385 149.776 163.095 149.582 162.217 149.582H161.301V157.9H162.217Z" fill="#F9F8F4"/>
<path d="M162.727 147.524C165.276 147.524 165.76 148.563 165.76 150.932V156.552C165.76 157.901 165.347 158.785 164.567 159.276L166.057 165.542H163.999L162.708 159.824H161.14V165.542H158.888V147.524H162.727ZM161.14 158.062H162.218C163.237 158.062 163.547 157.746 163.547 156.572V150.912C163.547 149.738 163.231 149.422 162.218 149.422H161.14V158.062ZM162.727 147.202H158.888H158.565V147.524V165.542V165.864H158.888H161.14H161.463V165.542V160.147H162.45L163.682 165.613L163.741 165.864H163.999H166.057H166.464L166.367 165.464L164.928 159.411C165.696 158.83 166.083 157.869 166.083 156.546V150.925C166.09 148.512 165.554 147.202 162.727 147.202ZM161.463 149.751H162.218C163.024 149.751 163.224 149.886 163.224 150.919V156.578C163.224 157.604 163.024 157.746 162.218 157.746H161.463V149.751Z" fill="black"/>
<path d="M172.465 165.903C170.058 165.903 168.839 164.709 168.839 162.354V150.738C168.839 148.382 170.058 147.188 172.465 147.188C174.885 147.188 176.112 148.382 176.112 150.738V153.68H173.517V150.757C173.517 149.583 172.956 149.428 172.465 149.428C172.014 149.428 171.414 149.563 171.414 150.757V162.354C171.414 163.244 171.756 163.683 172.465 163.683C172.917 163.683 173.517 163.547 173.517 162.354V159.353H176.112V162.354C176.112 164.709 174.885 165.903 172.465 165.903Z" fill="#F9F8F4"/>
<path d="M172.465 147.35C174.505 147.35 175.95 148.17 175.95 150.738V153.519H173.679V150.757C173.679 149.602 173.15 149.267 172.465 149.267C171.801 149.267 171.252 149.602 171.252 150.757V162.354C171.252 163.49 171.801 163.845 172.465 163.845C173.15 163.845 173.679 163.49 173.679 162.354V159.514H175.95V162.354C175.95 164.922 174.498 165.742 172.465 165.742C170.446 165.742 169 164.916 169 162.354V150.738C169 148.17 170.446 147.35 172.465 147.35ZM172.465 147.027C169.949 147.027 168.677 148.273 168.677 150.738V162.354C168.677 164.819 169.955 166.064 172.465 166.064C174.995 166.064 176.273 164.813 176.273 162.354V159.514V159.192H175.95H173.679H173.356V159.514V162.354C173.356 163.38 172.904 163.522 172.465 163.522C172.052 163.522 171.575 163.386 171.575 162.354V150.757C171.575 149.731 172.027 149.589 172.465 149.589C172.93 149.589 173.356 149.731 173.356 150.757V153.519V153.842H173.679H175.95H176.273V153.519V150.738C176.273 148.273 174.995 147.027 172.465 147.027Z" fill="black"/>
<path d="M179.119 165.702V147.362H181.693V163.483H184.849V165.702H179.119Z" fill="#F9F8F4"/>
<path d="M181.532 147.524V163.645H184.688V165.542H179.28V147.524H181.532ZM181.855 147.202H181.532H179.28H178.957V147.524V165.542V165.864H179.28H184.688H185.011V165.542V163.645V163.322H184.688H181.855V147.524V147.202Z" fill="black"/>
<path d="M187.779 165.702V147.362H193.212V149.589H190.354V155.416H193.174V157.617H190.354V163.483H193.212V165.702H187.779Z" fill="#F9F8F4"/>
<path d="M193.051 147.524V149.422H190.193V155.572H193.013V157.449H190.193V163.638H193.051V165.535H187.94V147.524H193.051ZM193.374 147.202H193.051H187.94H187.618V147.524V165.542V165.864H187.94H193.051H193.374V165.542V163.645V163.322H193.051H190.515V157.779H193.013H193.335V157.456V155.578V155.255H193.013H190.515V149.751H193.051H193.374V149.428V147.531V147.202Z" fill="black"/>
<path d="M61.9532 154.88H62.4823V158.088H61.9532V154.88ZM62.1726 154.88H64.0569V155.384H62.1726V154.88ZM62.1726 156.242H63.8181V156.745H62.1726V156.242ZM62.1726 157.578H64.0569V158.081H62.1726V157.578Z" fill="black"/>
<path d="M65.5348 158.076C65.3928 158.044 65.2573 157.998 65.1347 157.94C65.0121 157.882 64.8959 157.811 64.7927 157.721L65.0702 157.302C65.1928 157.405 65.3347 157.482 65.4832 157.54C65.6316 157.598 65.7994 157.624 65.9736 157.624C66.1866 157.624 66.3544 157.585 66.4705 157.508C66.5867 157.431 66.6512 157.321 66.6512 157.185C66.6512 157.089 66.6254 157.011 66.5738 156.953C66.5221 156.895 66.4511 156.85 66.3673 156.824C66.2834 156.798 66.1737 156.772 66.0381 156.747C66.0317 156.747 66.0317 156.747 66.0252 156.747C66.0188 156.747 66.0188 156.747 66.0123 156.747L65.9736 156.74C65.7607 156.708 65.58 156.663 65.4444 156.617C65.3089 156.566 65.1863 156.482 65.0895 156.359C64.9927 156.237 64.9475 156.056 64.9475 155.83C64.9475 155.63 64.9927 155.456 65.0831 155.307C65.1734 155.166 65.3089 155.056 65.4832 154.978C65.6574 154.901 65.8639 154.869 66.1091 154.869C66.2253 154.869 66.3414 154.882 66.4576 154.907C66.5738 154.933 66.6835 154.972 66.7996 155.017C66.9093 155.069 67.019 155.127 67.1223 155.204L66.8642 155.637C66.7415 155.546 66.6125 155.482 66.4899 155.437C66.3608 155.391 66.2382 155.366 66.1156 155.366C65.9155 155.366 65.7542 155.404 65.6445 155.475C65.5348 155.546 65.4767 155.656 65.4767 155.791C65.4767 155.895 65.5025 155.972 65.5606 156.03C65.6187 156.088 65.6897 156.133 65.7736 156.159C65.8575 156.185 65.9801 156.217 66.1349 156.25C66.1414 156.25 66.1478 156.25 66.1543 156.256C66.1608 156.256 66.1672 156.256 66.1737 156.256C66.1801 156.256 66.1866 156.256 66.1995 156.263C66.2124 156.269 66.2188 156.263 66.2253 156.269C66.4253 156.308 66.5931 156.359 66.7222 156.411C66.8513 156.463 66.9674 156.559 67.0578 156.682C67.1481 156.805 67.1933 156.972 67.1933 157.185V157.192C67.1933 157.392 67.1481 157.566 67.0513 157.708C66.9545 157.85 66.819 157.96 66.6383 158.031C66.4576 158.108 66.2446 158.14 65.993 158.14C65.8252 158.121 65.6768 158.102 65.5348 158.076Z" fill="black"/>
<path d="M67.6773 154.88H69.9875V155.384H67.6773V154.88ZM68.5678 155.139H69.0905V158.081H68.5678V155.139Z" fill="black"/>
<path d="M70.7168 154.88H71.246V158.088H70.7168V154.88ZM71.0201 157.578H71.7687C71.9881 157.578 72.1559 157.526 72.2785 157.417C72.4011 157.307 72.4592 157.152 72.4592 156.952V156.01C72.4592 155.81 72.4011 155.655 72.2785 155.545C72.1559 155.435 71.9881 155.384 71.7687 155.384H71.0201V154.88H71.7558C72.0204 154.88 72.2398 154.926 72.4269 155.016C72.6141 155.106 72.756 155.235 72.8528 155.41C72.9496 155.584 73.0013 155.79 73.0013 156.029V156.939C73.0013 157.178 72.9561 157.378 72.8593 157.552C72.7625 157.726 72.6205 157.855 72.4398 157.952C72.2527 158.042 72.0268 158.088 71.7622 158.088H71.033V157.578H71.0201Z" fill="black"/>
<path d="M205.189 158.088H204.66V155.481L204.234 155.694V155.139L204.699 154.881H205.183V158.088H205.189Z" fill="black"/>
<path d="M207.312 156.493L207.364 156.57C207.325 156.635 207.274 156.686 207.196 156.719C207.119 156.751 207.035 156.764 206.932 156.764C206.777 156.764 206.635 156.725 206.519 156.648C206.396 156.57 206.306 156.46 206.241 156.319C206.177 156.177 206.144 156.015 206.144 155.828C206.144 155.622 206.183 155.441 206.254 155.299C206.325 155.15 206.428 155.041 206.57 154.963C206.712 154.886 206.874 154.847 207.067 154.847C207.261 154.847 207.422 154.886 207.564 154.963C207.706 155.041 207.803 155.157 207.88 155.305C207.958 155.454 207.99 155.634 207.99 155.841C207.99 155.951 207.977 156.073 207.945 156.202C207.913 156.331 207.874 156.46 207.816 156.596C207.809 156.615 207.803 156.635 207.79 156.654C207.784 156.673 207.771 156.693 207.764 156.712L207.138 158.087H206.577L207.312 156.493ZM207.351 156.157C207.416 156.073 207.454 155.957 207.454 155.809C207.454 155.66 207.422 155.551 207.351 155.473C207.287 155.396 207.19 155.357 207.067 155.357C206.945 155.357 206.848 155.396 206.777 155.473C206.712 155.551 206.674 155.667 206.674 155.809C206.674 155.957 206.706 156.073 206.777 156.157C206.848 156.241 206.938 156.28 207.067 156.28C207.19 156.28 207.28 156.241 207.351 156.157Z" fill="black"/>
<path d="M209.306 158.009C209.158 157.938 209.042 157.829 208.958 157.7C208.874 157.564 208.835 157.409 208.835 157.228V157.177C208.835 157.015 208.881 156.867 208.964 156.725C209.048 156.583 209.158 156.48 209.3 156.402C209.184 156.338 209.087 156.254 209.01 156.138C208.939 156.022 208.9 155.899 208.9 155.77V155.693C208.9 155.525 208.939 155.376 209.016 155.247C209.094 155.118 209.203 155.021 209.339 154.95C209.481 154.879 209.642 154.847 209.829 154.847C210.016 154.847 210.178 154.879 210.32 154.95C210.462 155.021 210.565 155.118 210.642 155.247C210.72 155.376 210.758 155.525 210.758 155.693V155.77C210.758 155.906 210.72 156.028 210.649 156.144C210.571 156.26 210.475 156.351 210.358 156.409C210.5 156.48 210.61 156.59 210.7 156.732C210.784 156.873 210.829 157.022 210.829 157.183V157.235C210.829 157.416 210.791 157.57 210.707 157.706C210.623 157.841 210.507 157.945 210.358 158.016C210.21 158.087 210.036 158.125 209.836 158.125C209.636 158.125 209.461 158.08 209.306 158.009ZM210.074 157.558C210.145 157.519 210.203 157.467 210.242 157.403C210.281 157.332 210.3 157.261 210.3 157.17V157.138C210.3 157.054 210.281 156.977 210.242 156.912C210.203 156.848 210.145 156.796 210.081 156.764C210.016 156.732 209.926 156.712 209.836 156.712C209.745 156.712 209.661 156.732 209.59 156.764C209.519 156.796 209.468 156.848 209.429 156.919C209.39 156.99 209.371 157.061 209.371 157.145V157.177C209.371 157.261 209.39 157.338 209.429 157.409C209.468 157.48 209.526 157.525 209.597 157.564C209.668 157.603 209.752 157.616 209.842 157.616C209.932 157.616 210.003 157.59 210.074 157.558ZM210.042 156.144C210.1 156.112 210.152 156.06 210.184 155.996C210.216 155.931 210.236 155.86 210.236 155.776V155.744C210.236 155.667 210.216 155.596 210.184 155.538C210.152 155.48 210.107 155.428 210.042 155.396C209.978 155.363 209.913 155.344 209.829 155.344C209.745 155.344 209.681 155.357 209.616 155.396C209.552 155.434 209.507 155.473 209.474 155.538C209.442 155.596 209.423 155.667 209.423 155.744V155.776C209.423 155.86 209.442 155.931 209.474 155.996C209.507 156.06 209.552 156.106 209.616 156.144C209.674 156.177 209.745 156.196 209.829 156.196C209.913 156.196 209.978 156.183 210.042 156.144Z" fill="black"/>
<path d="M213.449 155.28L212.675 158.088H212.107L212.869 155.384H212.185V155.855H211.655V154.88H213.443V155.28H213.449Z" fill="black"/>
<path d="M140.651 130.802L139.773 126.917H143.497L144.42 130.802H140.651ZM131.758 130.802V126.917H135.863V130.802H131.758Z" fill="#F9F8F4"/>
<path d="M143.419 127.008L144.297 130.699H140.728L139.896 127.008H143.419ZM135.766 127.008V130.699H131.855V127.008H135.766ZM143.574 126.814H143.419H139.896H139.651L139.702 127.053L140.535 130.744L140.567 130.892H140.722H144.29H144.536L144.478 130.654L143.6 126.962L143.574 126.814ZM135.959 126.814H135.766H131.855H131.661V127.008V130.699V130.892H131.855H135.766H135.959V130.699V127.008V126.814Z" fill="black"/>
<path d="M138.573 121.594L138.412 120.878H135.863V121.594H131.758V118.8H133.533V113.431H131.758V99.3369H138.515C143.077 99.3369 143.884 101.273 143.884 105.345V115.102C143.884 116.303 143.69 117.322 143.316 118.135C142.974 118.871 142.471 119.458 141.819 119.878L142.232 121.601H138.573V121.594ZM137.637 117.625C139.38 117.625 139.851 117.09 139.851 115.141V105.313C139.851 103.364 139.373 102.828 137.637 102.828H135.863V117.625H137.637Z" fill="#F9F8F4"/>
<path d="M138.515 99.4333C142.935 99.4333 143.787 101.234 143.787 105.345V115.102C143.787 116.309 143.593 117.302 143.232 118.096C142.884 118.845 142.374 119.419 141.716 119.832L142.116 121.503H138.65L138.489 120.787H135.766V121.503H131.855V118.903H133.63V113.34H131.855V99.4333H138.515ZM135.766 117.722H137.637C139.405 117.722 139.947 117.18 139.947 115.141V105.312C139.947 103.273 139.405 102.731 137.637 102.731H135.766V117.722ZM138.515 99.2397H131.855H131.661V99.4333V113.334V113.527H131.855H133.436V118.703H131.855H131.661V118.896V121.497V121.691H131.855H135.766H135.959V121.497V120.974H138.334L138.463 121.542L138.495 121.691H138.65H142.116H142.361L142.303 121.452L141.935 119.916C142.574 119.49 143.064 118.909 143.406 118.174C143.787 117.348 143.981 116.315 143.981 115.102V105.345C143.981 101.292 143.135 99.2397 138.515 99.2397ZM135.959 102.925H137.637C139.321 102.925 139.754 103.415 139.754 105.312V115.141C139.754 117.038 139.321 117.528 137.637 117.528H135.959V102.925Z" fill="black"/>
<path d="M127.996 126.313C123.976 126.313 122.02 124.312 122.02 120.202C122.02 116.065 123.976 114.052 127.996 114.052H132.92V118.188H128.028C126.331 118.188 125.544 118.827 125.544 120.202C125.544 121.557 126.357 122.215 128.028 122.215H148.156C149.808 122.215 150.641 121.538 150.641 120.202C150.641 118.847 149.828 118.188 148.156 118.188H144.007L144.071 118.053C144.433 117.265 144.62 116.278 144.62 115.104V114.052H148.156C152.177 114.052 154.132 116.065 154.132 120.202C154.132 124.312 152.177 126.313 148.156 126.313H127.996Z" fill="#F9F8F4"/>
<path d="M148.156 114.148C152.609 114.148 154.035 116.664 154.035 120.201C154.035 123.699 152.609 126.215 148.156 126.215H127.996C123.537 126.215 122.117 123.699 122.117 120.201C122.117 116.664 123.543 114.148 127.996 114.148H132.823V118.091H128.028C126.021 118.091 125.447 119.007 125.447 120.201C125.447 121.356 126.021 122.311 128.028 122.311H148.156C150.131 122.311 150.737 121.356 150.737 120.201C150.737 119.007 150.131 118.091 148.156 118.091H144.161C144.529 117.297 144.716 116.31 144.716 115.096V114.141H148.156V114.148ZM148.156 113.954H144.716H144.523V114.148V115.103C144.523 116.264 144.342 117.239 143.981 118.013L143.852 118.291H144.155H148.149C149.782 118.291 150.537 118.897 150.537 120.207C150.537 121.498 149.756 122.124 148.149 122.124H128.022C126.415 122.124 125.634 121.498 125.634 120.207C125.634 119.388 125.879 118.291 128.022 118.291H132.817H133.01V118.097V114.154V113.961H132.817H127.989C123.905 113.961 121.917 116.006 121.917 120.207C121.917 124.383 123.905 126.415 127.989 126.415H148.149C152.234 126.415 154.222 124.383 154.222 120.207C154.228 116 152.247 113.954 148.156 113.954Z" fill="black"/>
<path d="M125.647 93.7696C125.911 94.0277 126.04 94.1503 126.305 94.4085C126.621 94.7182 126.737 94.9247 126.428 95.2667C126.292 95.4152 126.228 95.4862 126.098 95.641C124.769 94.5053 124.098 93.9309 122.769 92.7951C122.93 92.6016 123.014 92.5112 123.182 92.3241C123.575 91.8917 123.814 91.9885 124.13 92.2982C124.356 92.5177 124.466 92.6274 124.692 92.8468C124.943 93.092 125.047 93.2921 124.943 93.5373L124.95 93.5437C125.182 93.4211 125.395 93.5244 125.647 93.7696ZM122.949 92.7564C123.537 93.2662 123.833 93.5244 124.421 94.0342C124.524 93.918 124.575 93.8535 124.679 93.7373C124.918 93.4727 124.943 93.2856 124.601 92.9629C124.363 92.7371 124.246 92.6209 124.008 92.395C123.698 92.0982 123.53 92.1111 123.253 92.4144C123.136 92.5499 123.072 92.6209 122.949 92.7564ZM125.537 93.847C125.195 93.5179 125.008 93.5566 124.776 93.8148C124.672 93.9309 124.614 93.989 124.511 94.1116C125.137 94.6537 125.453 94.9247 126.079 95.4733C126.176 95.3635 126.228 95.3055 126.324 95.1958C126.544 94.9505 126.531 94.8086 126.221 94.5117C125.95 94.2471 125.815 94.1116 125.537 93.847Z" fill="#F9F8F4" stroke="#F9F8F4" stroke-width="0.353566" stroke-miterlimit="10"/>
<path d="M128.389 92.0853C128.118 92.2789 127.982 92.3822 127.711 92.5887C127.937 92.9629 128.047 93.1501 128.279 93.5179C128.247 93.5437 128.228 93.5566 128.195 93.5889C127.253 92.0918 126.808 91.3303 125.963 89.775C126.059 89.6976 126.111 89.6653 126.208 89.5879C127.453 90.8463 128.053 91.4981 129.209 92.8274C129.17 92.8532 129.151 92.8661 129.112 92.892C128.834 92.5693 128.686 92.408 128.389 92.0853ZM128.312 91.995C127.479 91.085 127.053 90.6398 126.182 89.7621C126.163 89.775 126.15 89.7815 126.13 89.8008C126.718 90.8914 127.021 91.4271 127.653 92.4854C127.912 92.2854 128.047 92.1886 128.312 91.995Z" fill="#F9F8F4" stroke="#F9F8F4" stroke-width="0.353566" stroke-miterlimit="10"/>
<path d="M130.758 90.1618C130.719 90.1876 130.674 90.2135 130.622 90.2393C130.48 90.3103 130.409 90.3425 130.267 90.4135C130.545 90.962 130.687 91.2395 130.964 91.7881C130.925 91.8074 130.906 91.8203 130.861 91.8397C130.054 90.2844 129.654 89.5036 128.847 87.9484C129.054 87.8387 129.164 87.787 129.377 87.6838C129.867 87.445 130.048 87.6322 130.228 88.0323C130.467 88.5808 130.59 88.8518 130.835 89.3939C130.971 89.6972 131.003 89.9037 130.848 90.0779C131.229 90.6007 131.416 90.8652 131.777 91.4009C131.738 91.4202 131.719 91.4267 131.674 91.446C131.319 90.9298 131.138 90.6716 130.758 90.1618ZM130.558 90.1425C130.861 89.994 130.912 89.8585 130.732 89.4584C130.48 88.9034 130.357 88.626 130.106 88.071C129.932 87.6773 129.777 87.6257 129.428 87.7935C129.273 87.8709 129.196 87.9096 129.041 87.9871C129.512 88.9164 129.751 89.381 130.222 90.3103C130.351 90.2457 130.422 90.207 130.558 90.1425Z" fill="#F9F8F4" stroke="#F9F8F4" stroke-width="0.353566" stroke-miterlimit="10"/>
<path d="M134.107 88.9552C134.191 89.3101 134.236 89.4908 134.32 89.8457C134.423 90.2781 134.41 90.5104 133.997 90.6266C133.823 90.6718 133.733 90.6976 133.558 90.7556C133.048 89.0778 132.79 88.2389 132.281 86.561C132.5 86.4965 132.616 86.4642 132.842 86.3997C133.365 86.2577 133.507 86.4707 133.61 86.9031C133.681 87.2064 133.72 87.3612 133.791 87.6645C133.875 88.0001 133.855 88.2324 133.655 88.3744C133.655 88.3808 133.655 88.3808 133.655 88.3808C133.907 88.4131 134.023 88.6132 134.107 88.9552ZM132.448 86.632C132.668 87.3806 132.777 87.7549 133.003 88.497C133.145 88.4583 133.21 88.4389 133.352 88.4002C133.668 88.3163 133.778 88.1679 133.668 87.7162C133.591 87.3935 133.552 87.2386 133.468 86.916C133.365 86.503 133.223 86.4191 132.861 86.5159C132.694 86.561 132.61 86.5868 132.448 86.632ZM133.978 88.9616C133.862 88.497 133.7 88.4325 133.384 88.5164C133.242 88.5551 133.171 88.5744 133.036 88.6132C133.274 89.4069 133.391 89.807 133.623 90.6072C133.752 90.5685 133.823 90.5491 133.952 90.5169C134.242 90.4394 134.307 90.3104 134.204 89.8909C134.113 89.5166 134.068 89.3359 133.978 88.9616Z" fill="#F9F8F4" stroke="#F9F8F4" stroke-width="0.353566" stroke-miterlimit="10"/>
<path d="M136.062 85.9161C136.146 86.7164 136.191 87.1229 136.275 87.9231C136.559 87.8908 136.701 87.8844 136.985 87.865C136.985 87.9102 136.991 87.936 136.991 87.9812C136.707 88.0005 136.572 88.0135 136.288 88.0393C136.372 88.8395 136.417 89.2396 136.501 90.0398C136.753 90.014 136.875 90.0011 137.127 89.9882C137.127 90.0333 137.133 90.0591 137.133 90.1043C136.843 90.1237 136.695 90.1366 136.398 90.1688C136.204 88.4265 136.101 87.5553 135.907 85.8129C136.282 85.7742 136.469 85.7548 136.843 85.729C136.843 85.7742 136.849 85.8 136.849 85.8452C136.533 85.871 136.378 85.8839 136.062 85.9161Z" fill="#F9F8F4" stroke="#F9F8F4" stroke-width="0.353566" stroke-miterlimit="10"/>
<path d="M139.831 88.5874C139.786 88.5939 139.734 88.5939 139.676 88.5874C139.521 88.5745 139.444 88.5681 139.289 88.5616C139.25 89.1747 139.231 89.4844 139.192 90.1039C139.147 90.1039 139.128 90.0975 139.083 90.0975C139.179 88.3486 139.231 87.471 139.328 85.7222C139.56 85.7351 139.676 85.7415 139.902 85.7609C140.438 85.8061 140.502 86.0577 140.451 86.4966C140.38 87.0903 140.347 87.3871 140.276 87.9744C140.238 88.3035 140.16 88.5035 139.941 88.5681C139.999 89.2134 140.025 89.536 140.063 90.1749C140.018 90.1685 139.999 90.1685 139.954 90.162C139.915 89.536 139.889 89.2198 139.831 88.5874ZM139.663 88.4777C139.993 88.5035 140.102 88.4132 140.154 87.9744C140.218 87.3677 140.251 87.0709 140.322 86.4643C140.367 86.0384 140.264 85.9158 139.889 85.8835C139.721 85.8706 139.638 85.8641 139.463 85.8512C139.399 86.8902 139.367 87.4129 139.296 88.4519C139.444 88.4583 139.515 88.4648 139.663 88.4777Z" fill="#F9F8F4" stroke="#F9F8F4" stroke-width="0.353566" stroke-miterlimit="10"/>
<path d="M143.561 87.7494C143.638 87.4913 143.677 87.3687 143.748 87.1106C143.864 86.7169 143.703 86.5298 143.445 86.4588C143.193 86.3943 142.954 86.4717 142.857 86.8718C142.799 87.1041 142.774 87.2203 142.715 87.4526C142.49 88.3883 143.445 88.5948 143.141 89.5951C143.07 89.8209 143.038 89.9371 142.967 90.163C142.819 90.6534 142.561 90.7308 142.309 90.6663C142.051 90.5953 141.877 90.4017 141.993 89.9048C142.057 89.6467 142.083 89.5176 142.148 89.253C142.193 89.266 142.212 89.266 142.257 89.2789C142.193 89.537 142.16 89.6661 142.096 89.9242C141.999 90.3243 142.128 90.4856 142.335 90.5437C142.541 90.6018 142.735 90.5243 142.851 90.1307C142.915 89.9048 142.954 89.7887 143.019 89.5628C143.29 88.64 142.335 88.4399 142.58 87.4268C142.638 87.1945 142.664 87.0783 142.715 86.846C142.832 86.3491 143.141 86.2652 143.464 86.3555C143.793 86.4459 144.013 86.6717 143.864 87.1557C143.787 87.4139 143.748 87.5365 143.671 87.7946C143.638 87.7688 143.612 87.7623 143.561 87.7494Z" fill="#F9F8F4" stroke="#F9F8F4" stroke-width="0.353566" stroke-miterlimit="10"/>
<path d="M147.53 87.9611C146.723 89.5164 146.317 90.2972 145.51 91.8524C145.471 91.8331 145.452 91.8202 145.413 91.8008C145.8 91.0393 145.994 90.665 146.381 89.9036C146.065 89.7422 145.91 89.6648 145.587 89.5228C145.239 90.2972 145.065 90.6909 144.716 91.4652C144.677 91.4459 144.652 91.4394 144.613 91.4201C145.323 89.8132 145.678 89.013 146.381 87.4126C146.433 87.4384 146.459 87.4449 146.51 87.4707C146.162 88.2515 145.987 88.6387 145.633 89.4196C145.955 89.568 146.117 89.639 146.433 89.8003C146.82 89.0388 147.014 88.6581 147.401 87.8966C147.459 87.9224 147.485 87.9353 147.53 87.9611Z" fill="#F9F8F4" stroke="#F9F8F4" stroke-width="0.353566" stroke-miterlimit="10"/>
<path d="M150.376 90.5435C149.601 91.5244 149.208 92.0213 148.433 93.0022C148.117 93.4088 147.833 93.3765 147.62 93.2152C147.401 93.0538 147.298 92.7957 147.594 92.3762C148.311 91.3437 148.666 90.8275 149.375 89.8014C149.666 89.3755 150.001 89.4207 150.279 89.6272C150.55 89.8337 150.692 90.1434 150.376 90.5435ZM150.201 89.724C149.982 89.5626 149.724 89.5368 149.485 89.8788C148.762 90.9049 148.401 91.4147 147.685 92.4408C147.446 92.7828 147.517 92.9893 147.691 93.1119C147.865 93.241 148.085 93.2474 148.336 92.9248C149.104 91.9374 149.492 91.4405 150.26 90.4532C150.518 90.1305 150.421 89.8917 150.201 89.724Z" fill="#F9F8F4" stroke="#F9F8F4" stroke-width="0.353566" stroke-miterlimit="10"/>
<path d="M153.086 93.2407C152.531 93.7118 152.253 93.9505 151.705 94.4216C151.369 94.712 151.144 94.7895 150.808 94.4281C150.698 94.3119 150.647 94.2538 150.537 94.1377C150.188 94.4733 150.014 94.641 149.666 94.9766C149.633 94.9443 149.614 94.925 149.582 94.8927C150.84 93.6731 151.466 93.06 152.725 91.8403C152.899 92.021 152.983 92.1114 153.15 92.2921C153.544 92.718 153.422 92.9503 153.086 93.2407ZM153.002 93.1116C153.325 92.8277 153.331 92.6599 153.054 92.3566C152.931 92.2211 152.867 92.1565 152.737 92.021C151.892 92.8341 151.466 93.2407 150.614 94.0538C150.724 94.17 150.776 94.2216 150.885 94.3377C151.124 94.5959 151.279 94.6088 151.602 94.3248C152.163 93.8408 152.441 93.6021 153.002 93.1116Z" fill="#F9F8F4" stroke="#F9F8F4" stroke-width="0.353566" stroke-miterlimit="10"/>
<path d="M99.6208 182.591C99.4465 183.088 99.1174 183.133 98.7947 183.017C98.4721 182.901 98.2462 182.656 98.4204 182.165C98.8528 180.965 99.0658 180.365 99.4981 179.165C99.6724 178.674 99.995 178.623 100.305 178.732C100.615 178.842 100.834 179.081 100.66 179.578C100.569 179.829 100.524 179.958 100.44 180.216C100.389 180.197 100.363 180.191 100.305 180.171C100.395 179.92 100.44 179.791 100.524 179.539C100.666 179.139 100.505 178.945 100.26 178.861C100.014 178.777 99.7692 178.823 99.6272 179.223C99.1948 180.423 98.9819 181.023 98.5495 182.223C98.4075 182.617 98.5689 182.824 98.827 182.914C99.0787 183.004 99.3368 182.953 99.4788 182.553C99.5691 182.288 99.6143 182.159 99.7046 181.901C99.7563 181.92 99.7885 181.927 99.8402 181.946C99.7563 182.198 99.7111 182.333 99.6208 182.591Z" fill="#F9F8F4" stroke="#F9F8F4" stroke-width="0.353566" stroke-miterlimit="10"/>
<path d="M102.886 184.211C102.873 184.256 102.867 184.282 102.847 184.327C102.447 184.204 102.247 184.14 101.854 184.011C102.402 182.314 102.673 181.468 103.222 179.771C103.273 179.79 103.299 179.797 103.357 179.816C102.828 181.468 102.563 182.294 102.028 183.946C102.37 184.05 102.544 184.101 102.886 184.211Z" fill="#F9F8F4" stroke="#F9F8F4" stroke-width="0.353566" stroke-miterlimit="10"/>
<path d="M106.648 184.302C106.268 184.199 106.08 184.141 105.706 184.038C105.525 184.444 105.429 184.644 105.248 185.051C105.196 185.038 105.171 185.025 105.112 185.012C105.861 183.373 106.222 182.547 106.952 180.901C107.061 180.934 107.119 180.947 107.236 180.979C106.99 182.76 106.874 183.657 106.648 185.444C106.59 185.432 106.564 185.419 106.506 185.406C106.564 184.96 106.59 184.741 106.648 184.302ZM106.668 184.18C106.829 182.934 106.913 182.308 107.087 181.069C107.061 181.063 107.055 181.056 107.029 181.05C106.526 182.198 106.268 182.773 105.751 183.921C106.119 184.025 106.3 184.076 106.668 184.18Z" fill="#F9F8F4" stroke="#F9F8F4" stroke-width="0.353566" stroke-miterlimit="10"/>
<path d="M110.707 183.243C110.772 182.978 110.804 182.849 110.869 182.585C110.965 182.178 110.804 181.997 110.546 181.939C110.294 181.875 110.062 181.959 109.959 182.359C109.901 182.591 109.868 182.714 109.81 182.946C109.572 183.895 110.649 184.108 110.398 185.14C110.34 185.373 110.314 185.495 110.256 185.727C110.133 186.231 109.817 186.315 109.481 186.231C109.146 186.147 108.907 185.928 109.036 185.424C109.1 185.16 109.139 185.031 109.204 184.766C109.255 184.779 109.281 184.785 109.339 184.798C109.275 185.063 109.242 185.192 109.171 185.456C109.068 185.863 109.249 186.037 109.514 186.108C109.785 186.173 110.017 186.095 110.12 185.695C110.178 185.463 110.204 185.34 110.262 185.108C110.494 184.159 109.417 183.946 109.675 182.914C109.733 182.682 109.765 182.559 109.823 182.327C109.952 181.823 110.256 181.739 110.578 181.823C110.901 181.907 111.127 182.12 111.004 182.623C110.94 182.888 110.907 183.017 110.843 183.282C110.791 183.262 110.765 183.256 110.707 183.243Z" fill="#F9F8F4" stroke="#F9F8F4" stroke-width="0.353566" stroke-miterlimit="10"/>
<path d="M114.237 184.044C114.295 183.779 114.321 183.643 114.379 183.379C114.463 182.972 114.295 182.798 114.037 182.74C113.786 182.688 113.553 182.772 113.463 183.179C113.411 183.418 113.386 183.534 113.334 183.773C113.127 184.728 114.205 184.902 113.992 185.941C113.941 186.18 113.921 186.296 113.87 186.535C113.766 187.044 113.45 187.135 113.115 187.064C112.779 186.993 112.534 186.78 112.643 186.27C112.701 186.005 112.734 185.87 112.792 185.605C112.843 185.618 112.876 185.625 112.927 185.638C112.869 185.902 112.843 186.038 112.785 186.302C112.695 186.709 112.882 186.883 113.147 186.941C113.418 186.999 113.65 186.915 113.734 186.509C113.786 186.27 113.811 186.154 113.857 185.915C114.057 184.96 112.973 184.779 113.205 183.74C113.256 183.502 113.282 183.385 113.334 183.147C113.444 182.637 113.747 182.546 114.07 182.617C114.392 182.688 114.631 182.895 114.521 183.405C114.463 183.669 114.437 183.805 114.386 184.069C114.321 184.063 114.295 184.056 114.237 184.044Z" fill="#F9F8F4" stroke="#F9F8F4" stroke-width="0.353566" stroke-miterlimit="10"/>
<path d="M117.012 183.255C117.064 183.268 117.096 183.268 117.148 183.281C116.825 185.036 116.664 185.914 116.341 187.663C116.283 187.65 116.257 187.65 116.199 187.637C116.522 185.888 116.683 185.011 117.012 183.255Z" fill="#F9F8F4" stroke="#F9F8F4" stroke-width="0.353566" stroke-miterlimit="10"/>
<path d="M120.187 187.664C120.11 188.18 119.8 188.289 119.464 188.238C119.129 188.186 118.864 187.986 118.948 187.47C119.148 186.212 119.251 185.579 119.458 184.321C119.542 183.804 119.845 183.695 120.168 183.746C120.49 183.798 120.742 183.992 120.665 184.508C120.626 184.772 120.607 184.908 120.561 185.173C120.503 185.166 120.478 185.16 120.426 185.153C120.465 184.889 120.484 184.753 120.529 184.489C120.594 184.069 120.4 183.908 120.148 183.869C119.897 183.83 119.664 183.927 119.6 184.34C119.4 185.598 119.297 186.231 119.097 187.489C119.032 187.909 119.226 188.077 119.49 188.115C119.755 188.154 119.994 188.057 120.058 187.638C120.097 187.367 120.123 187.225 120.161 186.954C120.219 186.96 120.245 186.967 120.303 186.973C120.252 187.257 120.232 187.392 120.187 187.664Z" fill="#F9F8F4" stroke="#F9F8F4" stroke-width="0.353566" stroke-miterlimit="10"/>
<path d="M126.641 185.928C126.666 185.656 126.679 185.521 126.705 185.25C126.744 184.837 126.557 184.682 126.299 184.656C126.04 184.63 125.821 184.747 125.782 185.16C125.757 185.398 125.744 185.521 125.718 185.76C125.615 186.734 126.705 186.786 126.608 187.844C126.583 188.083 126.576 188.206 126.55 188.444C126.505 188.961 126.202 189.09 125.86 189.051C125.518 189.019 125.253 188.831 125.305 188.315C125.331 188.044 125.35 187.909 125.376 187.638C125.427 187.644 125.46 187.644 125.511 187.651C125.486 187.922 125.473 188.057 125.44 188.328C125.395 188.741 125.595 188.896 125.866 188.922C126.144 188.948 126.363 188.838 126.402 188.425C126.428 188.186 126.434 188.064 126.46 187.825C126.55 186.85 125.46 186.792 125.569 185.74C125.595 185.502 125.608 185.379 125.634 185.14C125.686 184.624 125.976 184.501 126.299 184.534C126.628 184.566 126.879 184.747 126.834 185.263C126.808 185.534 126.796 185.669 126.77 185.94C126.725 185.934 126.699 185.928 126.641 185.928Z" fill="#F9F8F4" stroke="#F9F8F4" stroke-width="0.353566" stroke-miterlimit="10"/>
<path d="M130.525 184.914C130.416 186.696 130.364 187.586 130.254 189.361C130.196 189.354 130.17 189.354 130.112 189.354C130.164 188.49 130.19 188.057 130.248 187.192C129.861 187.167 129.667 187.154 129.273 187.128C129.215 187.993 129.183 188.425 129.118 189.29C129.06 189.283 129.035 189.283 128.976 189.277C129.106 187.496 129.17 186.612 129.293 184.831C129.344 184.837 129.377 184.837 129.428 184.843C129.37 185.708 129.338 186.141 129.273 187.005C129.66 187.031 129.854 187.044 130.248 187.07C130.299 186.205 130.332 185.773 130.383 184.902C130.441 184.908 130.467 184.914 130.525 184.914Z" fill="#F9F8F4" stroke="#F9F8F4" stroke-width="0.353566" stroke-miterlimit="10"/>
<path d="M134.004 188.432C133.617 188.419 133.423 188.412 133.029 188.4C132.952 188.838 132.913 189.058 132.829 189.49C132.771 189.49 132.745 189.49 132.694 189.484C133.016 187.709 133.178 186.825 133.481 185.05C133.597 185.057 133.655 185.057 133.771 185.057C133.965 186.844 134.062 187.741 134.275 189.529C134.217 189.529 134.191 189.529 134.133 189.522C134.081 189.09 134.055 188.871 134.004 188.432ZM133.991 188.309C133.849 187.057 133.784 186.438 133.649 185.186C133.623 185.186 133.61 185.186 133.591 185.186C133.378 186.425 133.268 187.044 133.049 188.277C133.423 188.29 133.617 188.296 133.991 188.309Z" fill="#F9F8F4" stroke="#F9F8F4" stroke-width="0.353566" stroke-miterlimit="10"/>
<path d="M136.45 185.114C136.675 186.85 136.792 187.715 137.037 189.451C137.063 189.451 137.076 189.451 137.101 189.451C137.347 187.721 137.469 186.85 137.702 185.121C137.76 185.121 137.785 185.121 137.837 185.121C137.605 186.908 137.476 187.799 137.224 189.58C137.101 189.58 137.043 189.58 136.921 189.58C136.669 187.799 136.546 186.902 136.314 185.121C136.372 185.114 136.398 185.114 136.45 185.114Z" fill="#F9F8F4" stroke="#F9F8F4" stroke-width="0.353566" stroke-miterlimit="10"/>
<path d="M140.328 185.199C140.354 186.018 140.36 186.431 140.386 187.251C140.702 187.244 140.863 187.238 141.18 187.225C141.18 187.27 141.18 187.296 141.186 187.341C140.87 187.354 140.708 187.354 140.392 187.367C140.418 188.186 140.425 188.593 140.45 189.412C140.773 189.406 140.941 189.4 141.263 189.387C141.263 189.432 141.263 189.458 141.27 189.509C140.889 189.522 140.696 189.529 140.315 189.542C140.263 187.76 140.244 186.87 140.192 185.089C140.56 185.076 140.741 185.076 141.109 185.063C141.109 185.115 141.109 185.134 141.115 185.186C140.799 185.186 140.644 185.186 140.328 185.199Z" fill="#F9F8F4" stroke="#F9F8F4" stroke-width="0.353566" stroke-miterlimit="10"/>
<path d="M144.645 186.179C144.626 185.908 144.619 185.773 144.6 185.501C144.574 185.088 144.361 184.966 144.103 184.979C143.845 184.992 143.651 185.14 143.671 185.56C143.684 185.798 143.69 185.921 143.703 186.166C143.761 187.141 144.845 187.024 144.916 188.083C144.936 188.322 144.942 188.444 144.955 188.689C144.987 189.206 144.716 189.38 144.374 189.399C144.032 189.419 143.742 189.283 143.709 188.767C143.697 188.496 143.684 188.36 143.671 188.089C143.722 188.089 143.755 188.083 143.806 188.083C143.819 188.354 143.832 188.489 143.845 188.76C143.871 189.173 144.09 189.296 144.361 189.277C144.639 189.257 144.839 189.115 144.806 188.702C144.794 188.464 144.781 188.341 144.768 188.096C144.703 187.121 143.619 187.237 143.555 186.179C143.542 185.94 143.535 185.818 143.522 185.572C143.49 185.056 143.755 184.882 144.084 184.863C144.413 184.843 144.69 184.979 144.729 185.495C144.748 185.766 144.755 185.902 144.774 186.173C144.729 186.173 144.703 186.179 144.645 186.179Z" fill="#F9F8F4" stroke="#F9F8F4" stroke-width="0.353566" stroke-miterlimit="10"/>
<path d="M151.182 187.618C150.795 187.663 150.601 187.689 150.214 187.734C150.201 188.179 150.195 188.399 150.182 188.844C150.124 188.85 150.098 188.85 150.046 188.857C150.105 187.056 150.124 186.159 150.163 184.359C150.279 184.346 150.337 184.34 150.453 184.327C150.911 186.069 151.143 186.934 151.621 188.676C151.563 188.683 151.537 188.689 151.479 188.696C151.356 188.263 151.298 188.05 151.182 187.618ZM151.156 187.502C150.827 186.288 150.666 185.682 150.35 184.469C150.324 184.469 150.311 184.475 150.292 184.475C150.266 185.733 150.253 186.359 150.221 187.618C150.588 187.566 150.782 187.547 151.156 187.502Z" fill="#F9F8F4" stroke="#F9F8F4" stroke-width="0.353566" stroke-miterlimit="10"/>
<path d="M153.389 183.934C153.486 183.921 153.531 183.914 153.628 183.901C154.273 185.534 154.602 186.354 155.28 187.98C155.293 187.98 155.293 187.98 155.306 187.973C155.286 187.857 155.274 187.799 155.254 187.677C155.003 186.102 154.88 185.315 154.628 183.74C154.686 183.734 154.712 183.727 154.764 183.721C155.048 185.482 155.183 186.36 155.467 188.122C155.364 188.141 155.312 188.148 155.215 188.161C154.538 186.534 154.209 185.715 153.563 184.082C153.557 184.082 153.551 184.082 153.544 184.082C153.796 185.779 153.918 186.625 154.176 188.315C154.125 188.322 154.093 188.328 154.041 188.335C153.783 186.579 153.654 185.695 153.389 183.934Z" fill="#F9F8F4" stroke="#F9F8F4" stroke-width="0.353566" stroke-miterlimit="10"/>
<path d="M158.5 183.759C158.733 184.966 158.855 185.573 159.088 186.786C159.171 187.231 159.126 187.483 158.591 187.58C158.345 187.625 158.229 187.651 157.984 187.689C157.661 185.934 157.507 185.056 157.184 183.308C157.416 183.262 157.532 183.243 157.765 183.198C158.281 183.101 158.416 183.314 158.5 183.759ZM158.358 183.766C158.274 183.34 158.145 183.249 157.771 183.32C157.597 183.353 157.506 183.372 157.332 183.404C157.636 185.063 157.79 185.889 158.094 187.547C158.274 187.515 158.365 187.496 158.545 187.463C158.926 187.392 159.023 187.257 158.939 186.831C158.713 185.605 158.597 184.992 158.358 183.766Z" fill="#F9F8F4" stroke="#F9F8F4" stroke-width="0.353566" stroke-miterlimit="10"/>
<path d="M165.405 185.424C165.534 185.934 165.289 186.153 164.953 186.237C164.624 186.321 164.302 186.237 164.179 185.727C163.882 184.488 163.727 183.869 163.431 182.63C163.308 182.12 163.547 181.907 163.863 181.823C164.179 181.746 164.495 181.823 164.624 182.333C164.689 182.591 164.721 182.727 164.792 182.985C164.741 182.998 164.708 183.004 164.657 183.017C164.592 182.759 164.56 182.623 164.495 182.365C164.392 181.959 164.153 181.881 163.902 181.946C163.65 182.01 163.476 182.184 163.572 182.597C163.876 183.837 164.024 184.456 164.328 185.695C164.424 186.102 164.676 186.185 164.934 186.121C165.192 186.056 165.379 185.869 165.27 185.463C165.205 185.192 165.166 185.063 165.102 184.792C165.16 184.779 165.186 184.772 165.237 184.759C165.302 185.017 165.334 185.153 165.405 185.424Z" fill="#F9F8F4" stroke="#F9F8F4" stroke-width="0.353566" stroke-miterlimit="10"/>
<path d="M169.077 184.425C169.226 184.928 168.98 185.161 168.651 185.251C168.322 185.341 167.999 185.27 167.857 184.767C167.451 183.296 167.244 182.56 166.838 181.082C166.889 181.069 166.915 181.063 166.973 181.043C167.386 182.515 167.586 183.25 167.999 184.728C168.116 185.135 168.361 185.199 168.619 185.128C168.877 185.057 169.058 184.87 168.935 184.464C168.509 182.992 168.303 182.257 167.877 180.792C167.928 180.779 167.954 180.766 168.012 180.753C168.445 182.224 168.651 182.953 169.077 184.425Z" fill="#F9F8F4" stroke="#F9F8F4" stroke-width="0.353566" stroke-miterlimit="10"/>
<path d="M171.549 179.791C171.329 179.862 171.22 179.895 171 179.966C171.529 181.618 171.794 182.444 172.323 184.096C172.265 184.115 172.239 184.122 172.188 184.141C171.659 182.489 171.4 181.663 170.871 180.011C170.652 180.082 170.542 180.114 170.323 180.185C170.31 180.14 170.303 180.114 170.284 180.069C170.774 179.914 171.02 179.837 171.51 179.675C171.523 179.727 171.536 179.746 171.549 179.791Z" fill="#F9F8F4" stroke="#F9F8F4" stroke-width="0.353566" stroke-miterlimit="10"/>
<path d="M175.04 179.854C174.95 179.596 174.904 179.474 174.814 179.216C174.672 178.822 174.433 178.764 174.188 178.854C173.943 178.938 173.788 179.138 173.93 179.532C174.007 179.758 174.053 179.874 174.13 180.106C174.453 181.029 175.472 180.609 175.834 181.61C175.918 181.836 175.956 181.952 176.04 182.178C176.214 182.668 175.995 182.907 175.666 183.023C175.337 183.139 175.014 183.087 174.846 182.597C174.756 182.339 174.711 182.21 174.621 181.958C174.672 181.939 174.698 181.932 174.75 181.913C174.84 182.171 174.885 182.3 174.975 182.552C175.111 182.945 175.363 182.997 175.621 182.907C175.885 182.816 176.04 182.616 175.898 182.229C175.814 182.003 175.776 181.887 175.692 181.661C175.363 180.738 174.337 181.158 173.988 180.158C173.911 179.932 173.866 179.816 173.788 179.583C173.62 179.093 173.827 178.854 174.143 178.744C174.459 178.635 174.769 178.686 174.943 179.177C175.034 179.435 175.079 179.558 175.176 179.816C175.124 179.822 175.098 179.835 175.04 179.854Z" fill="#F9F8F4" stroke="#F9F8F4" stroke-width="0.353566" stroke-miterlimit="10"/>
</g>
<defs>
<clipPath id="clip0">
<rect width="165.055" height="104.052" fill="white" transform="translate(55.9451 85.6172)"/>
</clipPath>
</defs>
</svg>
