<svg width="276" height="276" viewBox="0 0 276 276" fill="none" xmlns="http://www.w3.org/2000/svg">
<g clip-path="url(#clip0)">
<path d="M73.5462 151.08C81.0275 151.08 87.0923 145.018 87.0923 137.54C87.0923 130.062 81.0275 124 73.5462 124C66.0648 124 60 130.062 60 137.54C60 145.018 66.0648 151.08 73.5462 151.08Z" fill="white"/>
<path opacity="0.7" d="M203.454 151.08C210.935 151.08 217 145.018 217 137.54C217 130.062 210.935 124 203.454 124C195.973 124 189.908 130.062 189.908 137.54C189.908 145.018 195.973 151.08 203.454 151.08Z" fill="white"/>
<path opacity="0.7" d="M104.209 124.8L89.7865 149.771C89.5848 150.123 89.8377 150.559 90.2411 150.559H119.088C119.495 150.559 119.748 150.12 119.543 149.771L105.121 124.8C104.919 124.451 104.413 124.451 104.209 124.8Z" fill="white"/>
<path d="M171.939 124.8L157.517 149.771C157.316 150.123 157.568 150.559 157.972 150.559H186.819C187.226 150.559 187.478 150.12 187.274 149.771L172.852 124.8C172.65 124.451 172.141 124.451 171.939 124.8Z" fill="white"/>
<path opacity="0.7" d="M149.781 150.544H125.181V125.989C125.181 125.27 126.051 124.909 126.563 125.417L150.356 149.163C150.862 149.672 150.5 150.544 149.781 150.544Z" fill="white"/>
<path d="M125.181 150.553V124.824C125.181 124.379 125.542 124.015 125.991 124.015H149.784C150.503 124.015 150.865 124.884 150.356 125.396L125.181 150.553Z" fill="white"/>
</g>
<defs>
<clipPath id="clip0">
<rect width="157" height="27.0801" fill="white" transform="translate(60 124)"/>
</clipPath>
</defs>
</svg>
