<svg width="276" height="276" viewBox="0 0 276 276" fill="none" xmlns="http://www.w3.org/2000/svg">
<path d="M130.194 133.173C130.194 129.606 131.359 126.715 133.691 124.499C136.022 122.284 138.859 121.176 142.2 121.176C145.539 121.176 148.37 122.29 150.691 124.516C153.012 126.743 154.172 129.628 154.172 133.173C154.172 136.718 153.011 139.598 150.691 141.814C148.37 144.03 145.54 145.138 142.2 145.138C138.859 145.138 136.023 144.03 133.691 141.814C131.359 139.598 130.194 136.718 130.194 133.173ZM137.53 127.968C136.196 129.169 135.529 130.893 135.529 133.14C135.529 135.388 136.196 137.106 137.53 138.295C138.864 139.484 140.42 140.079 142.199 140.079C143.976 140.079 145.528 139.484 146.851 138.295C148.174 137.107 148.835 135.389 148.835 133.14C148.835 130.892 148.174 129.168 146.851 127.968C145.527 126.768 143.976 126.169 142.199 126.169C140.42 126.168 138.864 126.768 137.53 127.968Z" fill="#F9F8F4"/>
<path d="M161.817 135.409V144.649H156.871V128.535H161.654V130.382C162.066 129.669 162.7 129.113 163.558 128.712C164.414 128.313 165.287 128.112 166.177 128.112C168.107 128.112 169.571 128.712 170.569 129.911C171.566 131.112 172.065 132.651 172.065 134.532V144.648H167.12V135.376C167.12 134.533 166.897 133.858 166.452 133.35C166.007 132.842 165.351 132.587 164.484 132.587C163.682 132.587 163.036 132.852 162.548 133.382C162.061 133.912 161.817 134.587 161.817 135.409Z" fill="#F9F8F4"/>
<path d="M180.524 144.649H175.578V121.175H180.524V144.649Z" fill="#F9F8F4"/>
<path d="M190.577 150.843H185.372L189.049 142.477L182.249 128.535H187.78L191.717 137.16L195.296 128.535H200.533L190.577 150.843Z" fill="#F9F8F4"/>
<path d="M91.5539 166.483H87.4596V176.029H81.5251V149.489H91.5539C94.2582 149.489 96.4552 150.288 98.1456 151.885C99.8361 153.482 100.681 155.516 100.681 157.986C100.681 160.507 99.8361 162.553 98.1456 164.125C96.4552 165.696 94.2582 166.483 91.5539 166.483ZM87.4973 161.393H90.9527C92.0797 161.393 92.9934 161.088 93.6947 160.476C94.3952 159.865 94.7463 159.048 94.7463 158.024C94.7463 156.976 94.4016 156.147 93.7131 155.535C93.0237 154.924 92.1036 154.618 90.9527 154.618H87.4973V161.393Z" fill="#F9F8F4"/>
<path d="M101.845 170.9C101.845 169.328 102.358 168.062 103.385 167.101C104.412 166.141 105.738 165.536 107.366 165.286L111.761 164.612C112.663 164.487 113.113 164.063 113.113 163.339C113.113 162.766 112.869 162.286 112.381 161.898C111.893 161.512 111.222 161.318 110.371 161.318C109.419 161.318 108.662 161.587 108.099 162.123C107.535 162.66 107.228 163.302 107.179 164.051L102.221 163.04C102.346 161.493 103.116 160.078 104.531 158.792C105.945 157.506 107.905 156.864 110.409 156.864C113.238 156.864 115.323 157.538 116.662 158.886C118.002 160.234 118.672 161.956 118.672 164.052V173.148C118.672 174.321 118.747 175.281 118.897 176.03H113.752C113.626 175.53 113.565 174.831 113.565 173.934C112.487 175.681 110.734 176.554 108.306 176.554C106.328 176.554 104.757 175.998 103.592 174.888C102.427 173.777 101.845 172.448 101.845 170.9ZM109.696 172.435C110.672 172.435 111.485 172.148 112.137 171.574C112.788 171 113.113 170.052 113.113 168.729V167.906L109.583 168.467C108.18 168.692 107.479 169.379 107.479 170.526C107.479 171.05 107.66 171.499 108.024 171.873C108.387 172.248 108.945 172.435 109.696 172.435Z" fill="#F9F8F4"/>
<path d="M128.438 165.36V176.029H122.728V157.425H128.25V159.558C128.725 158.735 129.458 158.093 130.447 157.631C131.436 157.169 132.444 156.938 133.47 156.938C135.699 156.938 137.389 157.631 138.541 159.016C139.693 160.401 140.269 162.179 140.269 164.35V176.03H134.56V165.322C134.56 164.35 134.302 163.57 133.789 162.983C133.276 162.396 132.518 162.103 131.517 162.103C130.59 162.103 129.846 162.409 129.282 163.02C128.72 163.632 128.438 164.412 128.438 165.36Z" fill="#F9F8F4"/>
<path d="M162.694 148.928V172.697C162.694 173.82 162.743 174.931 162.843 176.029H157.359C157.259 175.43 157.21 174.831 157.21 174.233C156.759 174.882 156.089 175.412 155.2 175.824C154.311 176.235 153.316 176.441 152.215 176.441C149.56 176.441 147.356 175.524 145.603 173.69C143.851 171.856 142.974 169.517 142.974 166.671C142.974 163.876 143.826 161.561 145.529 159.727C147.231 157.893 149.398 156.976 152.027 156.976C154.581 156.976 156.258 157.613 157.06 158.885V148.928H162.694ZM149.941 163.302C149.127 164.101 148.721 165.236 148.721 166.708C148.721 168.181 149.127 169.322 149.941 170.133C150.755 170.945 151.75 171.35 152.927 171.35C154.104 171.35 155.099 170.945 155.913 170.133C156.726 169.322 157.133 168.181 157.133 166.708C157.133 165.236 156.726 164.101 155.913 163.302C155.098 162.503 154.104 162.104 152.927 162.104C151.75 162.104 150.755 162.503 149.941 163.302Z" fill="#F9F8F4"/>
<path d="M165.773 170.9C165.773 169.328 166.286 168.062 167.313 167.101C168.339 166.141 169.666 165.536 171.294 165.286L175.689 164.612C176.59 164.487 177.041 164.063 177.041 163.339C177.041 162.766 176.796 162.286 176.308 161.898C175.82 161.512 175.15 161.318 174.299 161.318C173.346 161.318 172.59 161.587 172.026 162.123C171.463 162.66 171.156 163.302 171.106 164.051L166.148 163.04C166.273 161.493 167.043 160.078 168.458 158.792C169.873 157.506 171.832 156.864 174.336 156.864C177.166 156.864 179.251 157.538 180.59 158.886C181.929 160.234 182.599 161.956 182.599 164.052V173.148C182.599 174.321 182.675 175.281 182.825 176.03H177.679C177.553 175.53 177.491 174.831 177.491 173.934C176.414 175.681 174.661 176.554 172.232 176.554C170.254 176.554 168.683 175.998 167.519 174.888C166.356 173.777 165.773 172.448 165.773 170.9ZM173.623 172.435C174.599 172.435 175.413 172.148 176.065 171.574C176.715 171 177.041 170.052 177.041 168.729V167.906L173.51 168.467C172.107 168.692 171.407 169.379 171.407 170.526C171.407 171.05 171.588 171.499 171.951 171.873C172.315 172.248 172.872 172.435 173.623 172.435Z" fill="#F9F8F4"/>
<path d="M185.117 170.75L189.962 169.889C190.012 170.588 190.281 171.181 190.77 171.667C191.258 172.154 191.966 172.397 192.893 172.397C193.593 172.397 194.132 172.241 194.508 171.929C194.884 171.618 195.071 171.237 195.071 170.788C195.071 170.039 194.457 169.528 193.231 169.253L191.09 168.767C189.186 168.368 187.785 167.663 186.884 166.652C185.982 165.641 185.532 164.437 185.532 163.039C185.532 161.317 186.214 159.858 187.579 158.66C188.943 157.461 190.653 156.863 192.706 156.863C195.135 156.863 196.957 157.443 198.171 158.604C199.385 159.764 200.054 161.031 200.18 162.403L195.447 163.264C195.372 162.591 195.115 162.042 194.677 161.617C194.238 161.193 193.606 160.98 192.78 160.98C192.228 160.98 191.753 161.129 191.352 161.429C190.951 161.729 190.751 162.116 190.751 162.59C190.751 163.338 191.239 163.801 192.216 163.975L194.695 164.461C196.573 164.836 198.001 165.547 198.977 166.595C199.953 167.643 200.442 168.878 200.442 170.3C200.442 172.023 199.791 173.501 198.489 174.736C197.186 175.971 195.358 176.589 193.005 176.589C191.628 176.589 190.407 176.389 189.343 175.99C188.278 175.592 187.465 175.073 186.901 174.436C186.338 173.8 185.912 173.17 185.624 172.547C185.336 171.924 185.167 171.324 185.117 170.75Z" fill="#F9F8F4"/>
<path d="M125.134 124.453C125.109 133.767 116.714 141.714 107.523 143.766C98.769 145.72 88.0711 142.593 83.907 134.599C81.4408 129.863 82.0612 124.947 83.1937 121.337C83.315 120.952 83.0531 120.561 82.6367 120.514C81.2992 120.362 80.0904 119.82 79.3679 118.895C77.8659 116.967 78.9019 113.924 80.3689 112.182C81.6945 110.612 84.3124 108.987 86.513 109.738C87.1455 109.953 87.7043 110.354 88.1685 110.877C88.4388 111.182 88.9287 111.187 89.2137 110.883C91.3978 108.541 94.5489 106.163 98.9005 105.149C102.399 104.334 105.585 104.656 108.199 105.361C108.57 105.461 108.955 105.246 109.058 104.889C109.17 104.502 109.339 104.136 109.572 103.804C110.994 101.764 114.331 101.59 116.526 102.279C118.502 102.896 120.948 104.651 120.909 106.894C120.886 108.169 120.069 109.447 118.858 110.408C118.542 110.658 118.522 111.108 118.811 111.374C121.782 114.121 125.151 118.538 125.134 124.453Z" fill="white"/>
<path d="M120.098 122.317C121.38 120.668 119.493 116.451 116.536 114.299C113.748 112.262 109.085 111.406 106.13 113.857C103.53 116.02 102.82 120.275 104.095 121.34C105.147 122.217 106.867 120.34 110.096 121.029C111.917 121.414 111.948 122.128 114.047 122.716C114.415 122.818 118.798 123.993 120.098 122.317ZM109.616 119.534C108.843 119.762 108.032 119.32 107.803 118.55C107.574 117.78 108.014 116.976 108.791 116.743C109.563 116.515 110.375 116.957 110.604 117.728C110.833 118.498 110.389 119.307 109.616 119.534Z" fill="black"/>
<path d="M93.4136 128.641C94.878 127.03 94.5232 126.409 95.8597 125.117C98.2258 122.823 100.683 123.499 101.106 122.199C101.617 120.621 98.7451 117.395 95.3881 116.941C91.5789 116.432 88.0868 119.63 86.8136 122.833C85.4587 126.222 86.1113 130.793 88.0785 131.511C90.0732 132.239 93.1581 128.921 93.4136 128.641ZM93.6857 122.703C93.4614 121.904 93.9266 121.073 94.7281 120.849C95.5371 120.626 96.3634 121.089 96.5886 121.887C96.8129 122.686 96.3478 123.517 95.5462 123.741C94.7447 123.965 93.91 123.501 93.6857 122.703Z" fill="black"/>
<path d="M104.081 128.305C102.34 128.716 101.336 127.93 100.759 128.7C100.334 129.267 100.414 130.311 100.812 130.991C101.76 132.607 104.685 132.451 106.512 131.615C107.271 131.268 108.899 130.523 108.923 129.013C108.936 128.13 108.402 127.03 107.632 126.731C106.573 126.319 106.116 127.824 104.081 128.305Z" fill="black"/>
<path d="M107.527 139.356C108.759 139.003 109.495 137.809 109.171 136.69C108.848 135.571 107.587 134.95 106.356 135.303C105.125 135.657 104.389 136.851 104.712 137.97C105.036 139.089 106.296 139.71 107.527 139.356Z" fill="black"/>
<path d="M96.368 132.448C97.7177 131.671 98.4939 130.493 98.1017 129.816C97.7096 129.139 96.2975 129.22 94.9478 129.996C93.5981 130.773 92.8218 131.951 93.214 132.628C93.6062 133.305 95.0183 133.224 96.368 132.448Z" fill="#EDA1C1"/>
<path d="M113.475 127.324C115.027 127.176 116.224 126.425 116.149 125.646C116.074 124.868 114.755 124.358 113.204 124.507C111.653 124.655 110.456 125.406 110.531 126.184C110.606 126.962 111.924 127.473 113.475 127.324Z" fill="#EDA1C1"/>
<path d="M99.0126 91.6002C99.0126 91.6002 104.936 90.9874 106.961 83.4746C106.961 83.4746 108.013 91.1403 114.808 92.2653C114.808 92.2653 107.961 92.2909 106.603 99.7267C106.602 99.7267 106.32 91.4985 99.0126 91.6002Z" fill="#EDA1C1"/>
<path d="M85.3273 92.2969C85.3273 92.2969 90.5898 89.5185 89.6467 81.7969C89.6467 81.7969 93.501 88.5136 100.224 87.0213C100.224 87.0213 93.8852 89.5991 95.4176 97.001C95.4176 97.0019 92.0652 89.4763 85.3273 92.2969Z" fill="#EDA1C1"/>
<path d="M75.4667 104.243C75.4667 104.243 79.9185 100.301 77.1663 93.0215C77.1663 93.0215 82.5079 98.637 88.6851 95.5993C88.6851 95.5993 83.1394 99.6007 86.3889 106.43C86.388 106.43 81.3423 99.9113 75.4667 104.243Z" fill="#EDA1C1"/>
</svg>
