<svg width="276" height="276" viewBox="0 0 276 276" fill="none" xmlns="http://www.w3.org/2000/svg">
<g clip-path="url(#clip0)">
<path d="M57.3767 134.013C58.9678 134.577 60.5573 135.091 62.1483 135.558C62.3057 135.603 62.4344 135.722 62.4948 135.878C62.8191 136.703 63.1433 137.526 63.466 138.347C64.7106 141.566 65.9551 144.755 67.1997 147.918C67.2363 148.013 67.365 148.021 67.4127 147.931C69.096 144.745 70.7792 141.509 72.4625 138.227C72.5404 138.076 72.7025 137.994 72.8662 138.022C74.4716 138.293 76.0754 138.523 77.6808 138.713C77.8699 138.736 78.0336 138.858 78.1131 139.033C78.4469 139.775 78.7807 140.517 79.1145 141.255C80.5132 144.256 81.9136 147.227 83.3123 150.173C83.3743 150.303 83.5539 150.303 83.6175 150.174C84.9749 147.413 86.3323 144.625 87.6898 141.815C88.0251 141.109 88.3605 140.4 88.6943 139.691C88.7611 139.549 88.9025 139.461 89.0551 139.463C90.6843 139.49 92.3136 139.484 93.9428 139.451C94.1828 139.447 94.3402 139.707 94.2273 139.923C93.8951 140.566 93.5645 141.206 93.2323 141.845C91.0277 146.152 88.8231 150.405 86.6184 154.595C86.5882 154.66 86.558 154.725 86.5278 154.79C86.4531 154.951 86.291 155.052 86.1162 155.045C84.382 154.974 82.6479 154.865 80.9138 154.712C80.7675 154.699 80.6372 154.609 80.5704 154.474C78.8681 151.007 77.1674 147.499 75.465 143.945C75.4158 143.843 75.2743 143.839 75.2218 143.94C73.6308 146.926 72.0397 149.873 70.4486 152.776C70.3962 152.88 70.3453 152.985 70.2928 153.089C70.2579 153.157 70.1832 153.194 70.1085 153.18C68.3076 152.822 66.5067 152.409 64.7074 151.937C64.6009 151.91 64.5119 151.833 64.4674 151.731C62.3057 146.775 60.1456 141.738 57.9839 136.607L57.0254 134.402C56.9253 134.171 57.143 133.93 57.3767 134.013Z" fill="#F9F8F4"/>
<path d="M119.292 146.713C119.292 148.575 119.292 150.437 119.292 152.299C119.292 152.527 119.128 152.722 118.907 152.755C117.421 152.979 115.935 153.194 114.449 153.396C114.288 153.417 114.147 153.29 114.147 153.124C114.147 151.233 114.147 149.343 114.147 147.451C114.147 142.775 112.309 140.889 108.329 141.329C104.638 141.726 102.343 142.969 100.647 144.677C100.526 144.799 100.46 144.968 100.46 145.142V154.349C100.46 154.622 100.251 154.848 99.986 154.864C98.5682 154.952 97.1504 155.02 95.7325 155.068C95.5037 155.076 95.3145 154.887 95.3145 154.653V132.183C95.3145 131.848 95.5752 131.573 95.9026 131.561C97.2203 131.516 98.5396 131.451 99.8573 131.371C100.183 131.352 100.46 131.615 100.46 131.95V140.76C100.46 140.998 100.739 141.113 100.903 140.946C102.636 139.171 105.131 137.612 109.126 137.168C117.699 136.143 119.292 140.536 119.292 146.713Z" fill="#F9F8F4"/>
<path d="M120.794 144.851C120.794 139.307 125.909 134.878 133.287 133.541C140.453 132.242 145.782 134.916 145.782 140.468C145.782 145.726 140.454 150.165 133.287 151.464C125.938 152.796 120.792 150.118 120.794 144.851ZM126.448 138.04C124.146 140.595 125.378 144.09 129.523 146.809C133.667 149.53 137.921 149.672 140.222 147.119C142.476 144.617 141.251 141.114 137.107 138.393C132.961 135.672 128.7 135.539 126.448 138.04Z" fill="#FBB040"/>
<path d="M146.394 140.36C146.394 134.827 151.509 130.234 158.889 129.14C166.055 128.079 171.384 131.27 171.382 136.815C171.382 142.081 166.055 146.004 158.889 147.064C151.539 148.152 146.394 145.638 146.394 140.36ZM152.204 133.342C149.899 135.889 150.969 139.557 155 142.411C159.032 145.26 163.298 145.402 165.602 142.857C167.865 140.355 166.638 136.86 162.605 134.011C158.576 131.156 154.467 130.843 152.204 133.342Z" fill="#FBB040"/>
<path d="M193.678 129.771C193.257 130.587 192.836 131.405 192.413 132.227C192.3 132.448 192.035 132.534 191.818 132.42C190.354 131.651 188.051 130.691 183.877 130.49C181.151 130.345 177.476 130.472 177.476 132.139C177.476 133.786 180.999 133.23 186.634 133.689C191.013 134.043 194.78 134.91 194.87 139.179C194.87 143.288 189.847 144.537 183.631 144.623C179.331 144.664 174.921 144.046 172.053 142.551C171.832 142.435 171.748 142.159 171.861 141.935C172.347 140.98 172.832 140.027 173.318 139.075C173.431 138.854 173.697 138.766 173.913 138.882C176.361 140.18 179.668 140.882 183.418 140.833C186.756 140.783 189.787 140.596 189.787 139.248C189.787 137.626 188.102 137.908 181.151 137.56C175.609 137.338 172.975 135.315 172.975 132.789C172.975 129.437 176.803 126.573 184.03 126.821C189.065 127.027 191.748 128.279 193.479 129.15C193.705 129.265 193.794 129.545 193.678 129.771Z" fill="#F9F8F4"/>
<path d="M220 143.636V149.015C220 149.311 219.714 149.517 219.441 149.419C218.012 148.91 216.583 148.444 215.154 148.014C214.977 147.961 214.856 147.796 214.856 147.608V141.941C214.856 137.288 213.019 134.51 209.039 133.593C205.358 132.772 203.066 133.505 201.37 134.845C201.241 134.946 201.169 135.106 201.169 135.272V144.524C201.169 144.762 200.964 144.945 200.734 144.913C199.267 144.714 197.8 144.547 196.333 144.412C196.158 144.396 196.024 144.246 196.024 144.067C196.024 136.529 196.024 128.989 196.024 121.451C196.024 121.146 196.28 120.906 196.576 120.935C197.952 121.065 199.329 121.223 200.707 121.41C200.971 121.446 201.169 121.678 201.169 121.952V130.869C201.169 131.141 201.475 131.292 201.684 131.126C203.414 129.753 205.897 128.792 209.837 129.704C218.407 131.866 220 137.597 220 143.636Z" fill="#F9F8F4"/>
</g>
<defs>
<clipPath id="clip0">
<rect width="163" height="34.1361" fill="white" transform="translate(57 120.932)"/>
</clipPath>
</defs>
</svg>
