<svg width="276" height="276" viewBox="0 0 276 276" fill="none" xmlns="http://www.w3.org/2000/svg">
<path d="M113.404 159.245C113.95 159.245 114.411 159.314 114.845 159.233C118.518 158.553 122.175 157.789 125.858 157.171C128.355 156.753 130.884 156.511 133.403 156.23C135.659 155.976 137.919 155.776 140.18 155.554C140.513 155.523 140.846 155.495 141.179 155.481C148.465 155.188 155.751 155.16 163.036 155.499C165.233 155.602 167.425 155.881 169.613 156.123C171.933 156.378 174.25 156.687 176.568 156.969C180.48 157.444 184.34 158.207 188.192 159.013C193.027 160.025 197.792 161.307 202.519 162.733C202.902 162.848 203.288 162.959 203.663 163.093C205.126 163.622 205.401 164.561 204.432 165.815C204.287 166.003 204.006 166.161 203.77 166.193C203.31 166.259 202.836 166.251 202.369 166.227C200.038 166.108 197.858 166.603 195.827 167.738C195.54 167.899 195.225 168.01 194.98 168.117C194.344 168.002 194.095 167.611 194.119 167.114C194.149 166.465 194.249 165.815 194.376 165.175C194.615 163.963 194.368 163.446 193.15 163.119C191.478 162.669 189.789 162.267 188.093 161.905C183.332 160.889 178.543 160.039 173.706 159.443C169.198 158.888 164.689 158.468 160.147 158.244C156.807 158.08 153.471 157.923 150.129 157.987C146.055 158.064 141.984 158.234 137.928 158.662C135.009 158.969 132.075 159.159 129.168 159.561C124.148 160.257 119.16 161.162 114.217 162.285C113.167 162.523 112.667 163.115 112.36 164.09C111.037 168.275 108.293 171.319 104.383 173.312C99.835 175.63 95.2525 175.523 90.7504 173.162C87.9945 171.716 85.7765 169.614 83.8235 167.239C83.1491 166.421 82.549 165.545 81.9127 164.698C81.6357 164.327 81.3868 163.931 81.0737 163.592C80.5338 163.006 79.9677 162.964 79.2993 163.44C78.92 163.709 78.5908 164.044 78.2114 164.311C77.8883 164.541 77.539 164.745 77.1757 164.91C76.8004 165.08 76.3447 165.155 76.0738 164.797C75.9052 164.575 75.8429 164.177 75.9072 163.897C76.4491 161.566 76.5675 159.209 76.5374 156.826C76.5133 154.968 76.3086 153.148 75.7667 151.367C75.6322 150.925 75.5318 150.474 75.4154 150.028C75.2669 149.461 75.4355 148.972 75.8429 148.582C76.6579 147.802 77.541 147.114 78.7273 146.73C79.0163 147.025 79.3435 147.261 79.5422 147.576C80.1062 148.471 80.6 149.408 81.154 150.309C81.708 151.21 82.266 152.114 82.8842 152.973C84.2832 154.917 85.7625 156.775 88.0065 157.882C88.7914 158.268 88.7733 158.951 88.0045 159.397C87.3763 159.762 86.6778 160.005 86.0114 160.306C85.0801 160.726 84.8492 161.324 85.2888 162.204C85.3771 162.38 85.4775 162.554 85.5919 162.715C88.1591 166.338 91.2763 169.347 95.3609 171.304C97.073 172.122 98.8775 172.559 100.74 172.767C102.362 172.95 103.924 172.546 105.463 172.084C106.292 171.834 106.786 171.222 107.213 170.539C108.683 168.2 109.522 165.643 109.783 162.915C110.222 158.32 108.98 154.17 106.226 150.454C104.078 147.554 101.467 145.106 98.5905 142.927C94.8671 140.106 90.8829 137.707 86.5975 135.796C84.7107 134.954 82.8501 134.057 81.0115 133.118C78.5587 131.866 76.3588 130.266 74.5102 128.223C72.6174 126.132 71.1541 123.8 70.3472 121.089C69.9418 119.728 69.9277 118.351 70.1084 116.973C70.2669 115.768 70.841 114.716 71.68 113.829C72.78 112.664 74.0184 111.654 75.4295 110.88C76.8766 110.085 78.3961 109.693 80.044 110.285C80.7325 110.533 81.451 110.699 82.1395 110.947C82.826 111.195 83.4321 111.109 84.0363 110.709C84.5903 110.343 85.1644 109.998 85.7605 109.707C86.4429 109.374 86.9126 109.545 87.1675 110.289C88.1149 113.055 89.6504 115.54 90.9491 118.137C91.3927 119.023 91.9346 119.859 92.3963 120.736C92.8178 121.536 92.7616 121.905 92.0551 122.451C91.3806 122.974 90.638 123.414 90.0258 123.822C89.0724 123.65 88.8757 122.949 88.5344 122.41C86.8946 119.827 84.9596 117.486 82.551 115.548C81.0938 114.376 79.5382 113.348 77.7257 112.787C76.967 112.553 76.1721 112.393 75.3833 112.312C74.3134 112.203 73.7233 112.631 73.4945 113.657C73.1573 115.16 73.2436 116.669 73.6109 118.163C74.476 121.679 76.3929 124.555 79.1428 126.91C81.5333 128.958 84.2671 130.484 87.0632 131.906C88.964 132.872 90.8909 133.785 92.8037 134.728C97.4364 137.012 101.696 139.831 105.483 143.327C107.996 145.646 110.106 148.273 111.525 151.387C112.464 153.445 113.024 155.608 113.157 157.872C113.179 158.316 113.311 158.751 113.404 159.245Z" fill="#F9F8F4"/>
<path d="M109.339 131.347C109.387 133.152 110.282 134.473 110.919 135.897C111.567 137.343 112.284 138.757 112.974 140.183C113.667 141.61 114.373 143.028 115.056 144.458C115.738 145.884 116.4 147.318 117.079 148.766C116.605 149.685 115.762 150.119 114.977 150.585C114.148 151.076 113.626 150.919 113.201 150.058C112.268 148.162 111.37 146.249 110.463 144.341C106.549 136.113 102.635 127.887 98.725 119.656C98.3898 118.951 98.0746 118.234 97.7555 117.537C98.4339 116.507 99.3492 115.976 100.311 115.523C100.768 115.307 101.232 115.402 101.563 115.832C101.764 116.093 101.953 116.366 102.135 116.642C104.042 119.524 106.286 122.136 108.725 124.585C111.019 126.888 113.361 129.144 115.694 131.41C116.049 131.757 116.352 132.246 117.013 132.149C117.265 131.464 116.85 130.971 116.609 130.458C114.923 126.874 113.219 123.297 111.521 119.72C111.408 119.482 111.296 119.242 111.182 119.005C110.401 117.392 110.22 117.155 111.991 115.939C112.42 115.643 112.914 115.437 113.291 115.235C114.028 115.378 114.241 115.869 114.469 116.349C115.345 118.199 116.226 120.047 117.103 121.895C121.037 130.186 124.971 138.478 128.905 146.768C128.989 146.946 129.09 147.118 129.172 147.298C129.881 148.851 129.806 149.141 128.454 150.093C128.237 150.246 128.014 150.394 127.783 150.525C126.852 151.054 126.354 150.973 125.798 150.032C122.432 144.339 117.868 139.617 113.253 134.936C112.229 133.896 111.182 132.878 110.128 131.868C109.899 131.656 109.602 131.519 109.339 131.347Z" fill="#F9F8F4"/>
<path d="M147.654 126.352C148.14 125.5 148.796 125.149 149.419 124.779C150.155 124.341 150.677 124.46 151.095 125.197C151.651 126.174 152.138 127.186 152.662 128.18C152.877 128.588 153.078 129.012 153.347 129.384C153.477 129.567 153.752 129.646 153.935 129.755C154.067 129.636 154.146 129.602 154.16 129.551C154.848 126.877 155.581 124.213 156.187 121.519C156.4 120.57 156.412 119.544 156.315 118.571C156.201 117.438 156.574 116.656 157.522 116.077C158.026 115.77 158.519 115.448 158.939 115.182C159.782 115.327 159.971 115.921 160.225 116.448C161.261 118.589 162.301 120.728 163.327 122.874C164.523 125.377 165.767 127.859 166.867 130.404C167.463 131.781 168.28 132.601 169.862 132.482C170.059 132.468 170.263 132.494 170.46 132.526C171.074 132.627 171.438 133.071 171.279 133.649C171.07 134.41 170.783 135.15 170.516 135.895C170.384 136.262 170.221 136.618 170.047 137.044C171.046 139.187 172.042 141.342 173.051 143.49C173.698 144.864 174.388 146.219 175.02 147.6C175.576 148.814 175.48 149.109 174.348 149.897C173.915 150.199 173.451 150.474 172.971 150.698C172.572 150.886 172.156 150.779 171.913 150.405C171.626 149.963 171.385 149.491 171.161 149.016C169.459 145.437 167.762 141.855 166.068 138.272C165.107 136.238 165.231 136.149 162.64 135.889C161.779 135.802 160.902 135.778 160.037 135.816C158.871 135.868 158.379 136.493 158.521 137.654C158.561 137.979 158.672 138.294 158.748 138.615C159.463 141.576 160.587 144.393 161.857 147.156C162.076 147.631 162.273 148.115 162.475 148.584C161.966 149.668 161.022 150.179 160.091 150.678C159.683 150.898 159.296 150.719 159.057 150.347C158.808 149.959 158.598 149.545 158.399 149.129C155.015 142.034 151.633 134.939 148.257 127.841C148.034 127.37 147.863 126.873 147.654 126.352ZM157.488 129.826C157.508 129.941 157.532 130.408 157.678 130.834C157.777 131.122 157.987 131.47 158.244 131.587C159.294 132.07 160.412 132.207 161.526 131.817C162.14 131.601 162.5 130.949 162.253 130.387C161.568 128.826 160.812 127.299 160.073 125.762C160.019 125.649 159.902 125.563 159.806 125.474C159.278 124.983 158.469 125.042 158.088 125.655C157.887 125.975 157.751 126.37 157.706 126.744C157.604 127.651 157.572 128.57 157.488 129.826Z" fill="#F9F8F4"/>
<path d="M183.766 115.114C184.93 116.437 185.057 117.862 185.281 119.187C185.524 120.605 185.494 122.075 185.498 123.521C185.502 124.903 185.329 126.272 184.982 127.625C184.647 128.934 184.055 130.178 183.657 131.789C184.725 131.337 185.034 130.665 185.342 130.057C186.004 128.754 187.13 127.948 188.316 127.201C189.123 126.692 189.615 126.846 190.105 127.704C190.333 128.104 190.52 128.53 190.719 128.948C193.661 135.152 196.604 141.356 199.536 147.562C199.729 147.968 199.848 148.409 200 148.829C199.362 149.736 198.461 150.184 197.599 150.663C197.07 150.957 196.588 150.782 196.269 150.192C195.859 149.437 195.504 148.657 195.139 147.88C193.037 143.398 190.94 138.913 188.838 134.431C188.641 134.013 188.453 133.589 188.232 133.185C187.471 131.791 186.688 131.664 185.612 132.773C185.059 133.343 184.549 133.958 184.005 134.536C183.551 135.019 183.075 135.481 182.612 135.954C182.144 136.43 182.05 136.992 182.271 137.596C182.429 138.028 182.638 138.444 182.835 138.862C184.185 141.728 185.546 144.59 186.889 147.461C187.586 148.952 187.531 149.105 186.175 150.04C184.448 151.23 184.073 151.147 183.192 149.297C178.344 139.102 173.503 128.905 168.666 118.705C168.471 118.295 168.329 117.862 168.158 117.426C168.716 116.489 169.561 115.976 170.46 115.542C171.022 115.271 171.534 115.413 171.839 115.942C172.235 116.628 172.58 117.343 172.919 118.058C174.816 122.053 176.701 126.056 178.599 130.049C178.852 130.582 179.117 131.127 179.47 131.596C180.014 132.317 181.048 132.22 181.45 131.408C181.709 130.883 181.869 130.299 181.996 129.725C182.732 126.365 182.435 123.047 181.526 119.761C181.438 119.444 181.335 119.129 181.217 118.822C180.685 117.446 180.512 117.123 182.122 116.049C182.61 115.718 183.142 115.463 183.766 115.114Z" fill="#F9F8F4"/>
<path d="M140.689 124.704C139.592 125.51 138.724 126.32 137.426 126.724C137.068 126.241 136.697 125.793 136.386 125.31C135.017 123.188 133.478 121.204 131.593 119.502C131.005 118.971 130.36 118.492 129.702 118.048C129.146 117.676 128.53 117.363 127.845 117.793C127.179 118.211 127.179 118.882 127.191 119.552C127.195 119.815 127.191 120.082 127.233 120.34C128.072 125.278 130.589 129.028 135.264 131.187C136.219 131.628 137.283 131.848 138.295 132.169C138.498 132.69 138.048 132.872 137.767 133.082C137.183 133.516 136.567 133.914 135.94 134.285C135.158 134.746 134.834 135.41 134.981 136.279C135.101 136.992 135.222 137.713 135.437 138.401C136.292 141.146 137.655 143.63 139.656 145.722C140.426 146.528 141.366 147.184 142.253 147.877C142.562 148.119 142.935 148.295 143.299 148.457C144.963 149.204 145.98 148.548 145.806 146.791C145.709 145.813 145.547 144.823 145.25 143.89C144.772 142.386 144.188 140.914 143.596 139.449C143.251 138.595 142.793 137.785 142.398 136.949C141.713 135.499 141.759 135.344 143.124 134.366C144.86 133.12 145.174 133.16 146.089 135.018C146.876 136.614 147.624 138.234 148.267 139.892C148.991 141.762 149.208 143.719 148.933 145.722C148.784 146.801 148.383 147.758 147.628 148.548C146.659 149.567 145.549 150.418 144.216 150.913C142.371 151.599 140.559 151.563 138.837 150.509C138.554 150.335 138.263 150.167 138.006 149.961C134.78 147.392 132.639 144.161 131.733 140.134C131.44 138.835 131.593 137.658 132.173 136.499C132.291 136.264 132.456 136.05 132.56 135.808C132.92 134.984 132.743 134.427 131.978 133.96C131.751 133.821 131.496 133.732 131.264 133.603C126.258 130.824 123.953 126.502 123.841 120.934C123.813 119.536 124.317 118.343 125.375 117.422C126.171 116.729 126.976 116.016 127.88 115.479C129.052 114.784 130.356 114.471 131.711 115.039C132.58 115.404 133.383 115.38 134.136 114.764C134.288 114.639 134.475 114.552 134.656 114.469C135.23 114.203 135.683 114.37 135.958 114.956C136.773 116.685 137.56 118.428 138.399 120.146C138.949 121.271 139.579 122.36 140.158 123.474C140.334 123.818 140.467 124.187 140.689 124.704Z" fill="#F9F8F4"/>
<path d="M136 98.8198C135.205 101.236 131.328 107.538 129.18 110C129.117 109.932 128.994 109.857 129 109.795C129.227 106.371 129.369 102.934 129.735 99.5222C130.01 96.976 130.719 96.6052 133.092 97.3239C133.789 97.5353 134.476 97.7987 135.145 98.0946C135.413 98.2149 135.621 98.4881 136 98.8198Z" fill="#FFBD00"/>
</svg>
