<svg width="276" height="276" viewBox="0 0 276 276" fill="none" xmlns="http://www.w3.org/2000/svg">
<path d="M125.105 88.3932C130.129 86.1915 135.156 83.9957 140.177 81.7861C145.258 79.551 150.332 77.2983 155.413 75.0671C156.004 74.8078 156.564 74.4386 157.241 74.417C157.833 74.9237 157.989 75.6543 158.273 76.2966C163.977 89.2004 169.663 102.11 175.355 115.018C182.682 131.63 190.009 148.242 197.34 164.854C198.337 167.112 198.394 166.761 196.174 167.741C170.784 178.948 145.39 190.147 119.994 201.342C119.409 201.599 118.869 202.013 118.188 201.976C117.308 200.495 77.9513 111.288 77.4586 109.66C77.9375 109.079 78.6736 108.935 79.3154 108.65C89.6454 104.076 99.9812 99.5176 110.315 94.9511C110.91 94.688 111.489 94.3875 112.076 94.1046C112.26 93.9888 112.451 93.975 112.649 94.0614C114.25 95.5914 114.914 97.5555 115.257 99.6727C115.23 99.877 115.157 100.066 115.049 100.24C114.164 101.262 112.951 101.774 111.754 102.291C104.078 105.594 96.4345 108.974 88.8151 112.412C86.874 113.288 86.8524 113.354 87.7219 115.334C94.1362 129.917 100.564 144.494 107.008 159.064C109.728 165.213 112.46 171.359 115.122 177.534C116.294 180.25 116.386 180.218 119.159 179.013C129.519 174.511 139.829 169.899 150.171 165.358C159.616 161.212 169.045 157.025 178.48 152.855C178.898 152.671 179.3 152.449 179.722 152.272C183.316 150.767 183.265 150.793 181.665 147.191C176.364 135.257 171.131 123.292 165.849 111.351C162.126 102.931 158.467 94.4817 154.66 86.0992C153.659 83.8955 153.619 83.8385 151.321 84.8147C145.25 87.3915 139.272 90.1805 133.201 92.7514C131.429 93.5017 129.809 94.7665 127.733 94.6742C127.532 94.6526 127.344 94.5956 127.165 94.5053C125.623 93.0126 124.965 91.1016 124.596 89.0531C124.655 88.7487 124.796 88.5071 125.105 88.3932Z" fill="white"/>
<path d="M112.396 94.2165C112.284 94.193 112.176 94.1556 112.074 94.1046C111.903 93.1284 111.377 92.2917 111 91.3961C110.621 90.4985 110.244 89.597 109.809 88.7269C109.43 87.9707 109.597 87.3913 110.146 86.7922C111.377 85.4508 112.588 84.0916 113.76 82.701C114.274 82.0902 114.853 81.8702 115.632 81.9232C116.668 81.992 117.711 81.9724 118.751 81.994C119.253 82.0038 119.603 81.8074 119.827 81.3301C120.121 80.6977 120.282 79.9847 120.78 79.4917C121.409 79.6528 121.456 80.1693 121.628 80.5661C122.482 82.5321 123.301 84.5139 124.154 86.4819C124.437 87.134 124.788 87.7566 125.106 88.393C125.122 88.5128 125.079 88.613 124.977 88.6935C124.639 89.3416 124.186 89.8739 123.495 90.1607C120.392 91.4491 117.387 92.9634 114.262 94.2008C113.618 94.4522 113.02 94.5347 112.396 94.2165Z" fill="#808080"/>
<path d="M127.574 94.2916C135.16 90.937 142.746 87.5804 150.33 84.2258C151.405 83.7505 152.475 83.2635 153.556 82.8039C153.894 82.6605 154.198 82.7626 154.365 83.1161C154.559 83.5306 154.744 83.9489 154.928 84.3672C164.503 106.06 174.079 127.751 183.644 149.446C184.458 151.294 184.66 151.125 182.733 151.976C160.982 161.572 139.234 171.174 117.485 180.771C115.809 181.509 115.928 181.607 115.122 179.781C105.5 157.966 95.875 136.155 86.2555 114.341C86.0494 113.873 85.8885 113.384 85.7314 112.97C86.0141 112.512 86.4164 112.414 86.7639 112.261C95.8455 108.25 104.931 104.249 114.017 100.252C114.252 100.148 114.509 100.093 114.757 100.015C116.001 100.052 116.262 101.109 116.716 101.94C117.149 102.733 117.563 103.147 118.199 102.124C118.914 100.977 119.925 100.384 121.304 100.498C121.565 100.52 121.903 100.565 122.052 100.368C123.218 98.8462 124.873 98.7245 126.594 98.6518C127.785 98.6007 127.889 97.8151 127.581 96.839C127.316 95.9984 126.745 95.1401 127.574 94.2916Z" fill="black"/>
<path d="M112.396 94.2168C112.667 94.044 112.92 93.8319 113.21 93.7042C116.818 92.1015 120.427 90.5067 124.043 88.9217C124.331 88.796 124.661 88.7665 124.973 88.6938C125.884 90.4615 126.704 92.2685 127.281 94.1776C127.379 95.3324 126.526 95.7606 125.699 96.1082C122.787 97.3338 119.925 98.6792 117.002 99.8832C116.247 100.194 115.515 100.341 114.839 99.7084C113.866 97.9486 113.055 96.1161 112.396 94.2168Z" fill="#C2C2C2"/>
<path d="M114.841 99.706C115.214 99.5961 115.603 99.5254 115.956 99.3722C119.356 97.8873 122.749 96.3907 126.141 94.8882C126.551 94.7056 127.003 94.574 127.283 94.1772C127.389 94.191 127.485 94.2283 127.574 94.2912C127.974 95.3223 128.39 96.3475 128.767 97.3865C128.961 97.9227 129.366 98.4157 129.183 99.109C128.284 99.4448 127.307 99.4782 126.339 99.5646C125.689 99.6216 125.038 99.6628 124.388 99.6962C123.715 99.7316 123.358 100.012 123.209 100.729C123.024 101.617 122.849 101.668 122.015 101.562C121.886 101.546 121.754 101.537 121.629 101.501C119.864 100.991 119.909 101.179 118.975 102.599C118.547 103.251 118.103 103.897 117.644 104.53C117.438 104.813 117.01 104.758 116.849 104.424C116.482 103.662 116.152 102.88 115.789 102.114C115.456 101.409 115.1 100.714 114.755 100.014C114.773 99.9064 114.8 99.8042 114.841 99.706Z" fill="#808080"/>
<path d="M157.237 174.141C157.001 176.245 157.001 176.245 155.229 175.893C155.207 176.28 155.203 176.659 155.154 177.032C155.142 177.119 154.993 177.229 154.889 177.252C154.779 177.278 154.611 177.252 154.538 177.179C154.408 177.048 154.295 176.877 154.236 176.702C154.071 176.211 153.89 175.716 153.806 175.21C153.71 174.63 152.911 173.943 153.661 173.503C154.181 173.199 154.544 174.08 155.017 174.377C155.182 174.479 155.337 174.597 155.504 174.697C155.78 174.864 156.194 174.664 156.222 174.318C156.271 173.672 156.273 173.024 156.308 172.376C156.318 172.195 156.34 171.995 156.579 171.934C156.801 171.879 156.972 171.977 157.08 172.136C157.743 173.096 158.395 174.065 159.042 175.037C159.111 175.141 159.148 175.276 159.166 175.402C159.201 175.677 159.111 175.938 158.844 176.021C158.697 176.066 158.418 176.005 158.336 175.891C158.002 175.428 157.722 174.927 157.237 174.141Z" fill="black"/>
<path d="M184.635 162.683C184.627 163.779 183.716 164.989 182.67 165.343C182.056 165.551 181.512 165.378 180.996 165.083C180.085 164.563 179.653 163.473 179.893 162.393C180.115 161.395 181.035 160.548 182.056 160.407C182.992 160.277 183.818 160.706 184.335 161.572C184.541 161.919 184.639 162.285 184.635 162.683Z" fill="black"/>
<path d="M148.145 179.663C147.869 180.019 147.625 180.406 147.307 180.722C146.561 181.462 145.505 181.588 144.65 181.089C143.831 180.612 143.327 179.536 143.488 178.611C143.762 177.028 145.242 176.085 146.795 176.529C147.097 176.615 147.366 176.816 147.651 176.965C149.013 177.644 148.118 178.738 148.145 179.663Z" fill="black"/>
<path d="M142.059 181.346C142.81 181.631 143.417 181.849 144.012 182.1C144.09 182.134 144.122 182.32 144.139 182.442C144.177 182.709 143.939 182.807 143.778 182.782C143.203 182.691 142.64 182.53 142.069 182.422C141.486 182.312 141.034 182.409 141.007 183.153C141.001 183.334 140.822 183.53 140.606 183.475C140.442 183.432 140.243 183.3 140.173 183.153C139.837 182.448 139.566 181.711 139.227 181.01C138.62 179.765 138.651 179.6 139.851 178.954C140.367 178.675 140.895 178.422 141.509 178.422C142.171 178.422 142.648 178.881 142.567 179.528C142.528 179.846 142.408 180.154 142.32 180.466C142.249 180.714 142.175 180.959 142.059 181.346Z" fill="black"/>
<path d="M133.409 187.456C132.902 187.346 132.398 187.221 131.888 187.132C131.318 187.032 130.936 187.166 130.708 187.812C130.545 188.274 129.98 188.232 129.817 187.788C129.393 186.639 128.955 185.506 128.049 184.581C129.222 183.487 130.42 182.831 131.986 183.289C132.323 183.359 132.673 183.568 132.657 183.874C132.606 184.868 132.765 185.699 133.625 186.366C133.87 186.557 134.029 187.197 133.409 187.456Z" fill="black"/>
<path d="M148.826 175.616C148.993 174.909 149.551 174.565 150.139 174.3C151.066 173.882 152.088 174.164 152.748 174.96C153.507 175.873 153.452 177.077 152.607 178.144C151.792 179.169 150.801 179.428 149.721 178.847C149.39 178.668 149.123 178.368 148.824 178.122C148.718 178.01 148.632 177.884 148.561 177.747C148.489 177.448 148.336 177.175 148.298 176.867C148.304 176.712 148.347 176.566 148.424 176.431C148.642 176.201 148.765 175.924 148.826 175.616Z" fill="black"/>
<path d="M123.45 188.217C123.266 189.463 122.606 190.771 121.625 191.925C121.413 192.175 120.977 192.087 120.826 191.755C120.37 190.759 120.043 189.704 119.456 188.765C119.313 188.538 119.428 188.245 119.63 188.062C120.31 187.451 121.065 186.949 121.962 186.727C122.91 186.493 123.479 186.972 123.45 188.217Z" fill="black"/>
<path d="M173.168 164.93C174.005 163.93 174.87 163.278 175.916 162.891C176.676 162.611 177.359 163.074 177.445 163.883C177.465 164.074 177.473 164.276 177.435 164.463C177.184 165.745 176.737 166.951 175.999 168.037C175.747 168.406 175.249 168.391 175.053 168.004C174.878 167.66 174.754 167.291 174.601 166.935C174.277 166.185 174.075 165.358 173.168 164.93Z" fill="black"/>
<path d="M187.479 160.876C186.758 160.794 186.115 161.204 185.406 161.295C184.876 161.362 184.562 161.049 184.58 160.499C184.597 159.955 184.786 159.48 185.088 159.048C185.451 158.53 185.975 158.38 186.639 158.622C186.87 158.706 187.155 158.865 187.08 159.17C187.051 159.29 186.786 159.413 186.621 159.425C186.299 159.447 185.973 159.388 185.718 159.661C185.575 159.814 185.475 159.983 185.585 160.175C185.632 160.256 185.799 160.336 185.883 160.313C186.635 160.097 187.381 159.869 188.178 159.948C189.088 160.038 189.575 160.784 189.267 161.611C188.833 162.768 187.563 163.508 186.295 163.325C186.107 163.298 185.893 163.155 185.93 162.944C185.96 162.785 186.117 162.579 186.266 162.524C186.808 162.322 187.434 162.377 187.922 161.996C188.176 161.799 188.474 161.615 188.337 161.22C188.233 160.92 187.942 160.928 187.693 160.878C187.632 160.867 187.565 160.876 187.479 160.876Z" fill="black"/>
<path d="M132.367 182.329C132.469 182.113 132.693 182.043 132.824 182.184C133.17 182.553 133.462 182.974 133.782 183.384C134.457 182.826 134.589 182.009 135.015 181.371C135.097 181.247 135.325 181.218 135.486 181.145C135.531 181.324 135.652 181.526 135.607 181.677C135.364 182.477 135.077 183.262 134.759 184.187C135.562 184.264 136.247 184.327 136.93 184.4C137.205 184.429 137.439 184.557 137.444 184.863C137.45 185.195 137.176 185.299 136.916 185.293C136.398 185.281 135.882 185.207 135.364 185.177C134.838 185.148 134.708 185.46 134.756 185.918C134.769 186.046 134.752 186.177 134.748 186.307C132.789 186.851 132.714 185.466 132.555 184.168C132.487 183.897 132.408 183.63 132.32 183.366C132.257 183.198 132.224 183.023 132.222 182.84C132.235 182.659 132.284 182.488 132.367 182.329Z" fill="black"/>
<path d="M169.653 166.089C169.767 166.122 169.946 166.12 169.985 166.193C170.317 166.821 170.613 167.469 170.939 168.1C171.113 168.438 171.298 168.856 171.794 168.679C172.415 168.459 172.721 167.862 172.521 167.318C172.275 166.65 171.993 165.998 171.749 165.33C171.718 165.242 171.793 165.063 171.875 164.995C172.032 164.863 172.238 164.843 172.358 165.054C173 166.179 173.636 167.308 174.03 168.549C174.109 168.799 174.007 169.172 173.708 169.105C172.913 168.927 172.564 169.62 171.995 169.865C171.53 170.066 171.055 169.991 170.79 169.573C170.165 168.585 169.698 167.522 169.449 166.373C169.431 166.295 169.581 166.185 169.653 166.089Z" fill="black"/>
<path d="M125.173 187.318C125.138 186.982 125.065 186.399 125.018 185.813C124.998 185.57 124.934 185.281 125.277 185.171C125.56 185.081 125.791 185.201 125.99 185.373C127.018 186.279 128.045 187.19 129.057 188.113C129.189 188.233 129.269 188.435 129.315 188.616C129.34 188.716 129.273 188.875 129.195 188.958C129.118 189.038 128.946 189.123 128.865 189.089C128.573 188.964 128.29 188.803 128.023 188.626C127.768 188.455 127.538 188.49 127.303 188.64C127.193 188.708 127.101 188.807 126.991 188.873C126.437 189.205 126.219 189.914 125.564 190.13C124.828 189.578 125.405 188.803 125.234 188.152C125.185 187.968 125.203 187.764 125.173 187.318Z" fill="black"/>
<path d="M168.55 171.41C168.236 171.506 168.032 171.308 167.926 171.08C167.622 170.432 167.374 169.76 167.082 169.108C166.776 168.424 166.762 168.428 165.949 168.886C165.836 168.949 165.737 169.07 165.622 169.088C165.516 169.104 165.359 169.041 165.294 168.956C165.237 168.884 165.231 168.703 165.282 168.625C165.863 167.741 166.617 167.028 167.527 166.495C167.737 166.372 168.02 166.321 168.265 166.328C168.422 166.334 168.615 166.478 168.721 166.615C168.866 166.804 168.731 166.975 168.566 167.1C168.515 167.14 168.45 167.161 168.397 167.199C167.459 167.841 167.455 167.843 167.93 168.841C168.208 169.428 168.513 170.005 168.776 170.6C168.85 170.767 168.856 170.985 168.827 171.168C168.809 171.256 168.646 171.327 168.55 171.41Z" fill="black"/>
<path d="M165.272 170.615C165.773 171.141 165.58 171.671 165.282 172.204C165.113 172.235 164.968 172.192 164.852 172.06C164.864 171.897 164.89 171.736 164.923 171.577L164.976 171.648C164.263 170.882 163.433 171.222 162.621 171.398L162.487 171.473L162.334 171.465C162.026 171.64 161.72 171.675 161.417 171.451H161.419C161.18 171.104 161.304 170.75 161.4 170.397C161.337 169.756 161.655 169.301 162.142 168.951C162.517 168.68 162.956 168.601 163.412 168.688C163.59 168.721 163.779 168.786 163.781 169.037C163.783 169.253 163.68 169.375 163.48 169.442C163.062 169.581 162.646 169.731 162.228 169.876C162.034 170.031 161.902 170.228 161.847 170.471C162.202 170.512 162.556 170.552 162.911 170.593C163.048 170.538 163.184 170.481 163.319 170.424C163.892 170.181 164.466 170.131 165.039 170.422C165.172 170.42 165.251 170.485 165.272 170.615Z" fill="black"/>
<path d="M132.39 182.846C132.377 182.979 132.412 183.097 132.494 183.203C132.589 183.358 132.679 183.517 132.761 183.68C133.052 184.403 133.354 185.124 133.631 185.852C133.847 186.416 134.267 186.418 134.746 186.306C134.382 186.787 133.968 187.206 133.407 187.455C133.558 187.068 133.629 186.671 133.15 186.485C132.738 186.324 132.294 186.247 131.786 186.114C132.021 185.163 132.41 184.242 131.982 183.287C132.015 183.093 132.049 182.899 132.08 182.704C132.229 182.657 132.329 182.708 132.39 182.846Z" fill="white"/>
<path d="M179.991 166.193C179.91 166.286 179.846 166.415 179.746 166.458C179.644 166.502 179.502 166.47 179.383 166.449C179.328 166.439 179.259 166.388 179.237 166.337C178.723 165.164 178.209 163.992 177.714 162.811C177.683 162.735 177.767 162.558 177.85 162.497C177.932 162.434 178.15 162.399 178.189 162.448C179.029 163.516 179.642 164.705 180.03 166.009C180.042 166.06 180.005 166.13 179.991 166.193Z" fill="black"/>
<path d="M164.98 172.605C164.352 173.55 163.467 173.947 162.35 173.837C162.165 173.819 161.991 173.736 161.963 173.503C161.936 173.271 162.079 173.102 162.256 173.071C163.086 172.919 163.877 172.68 164.58 172.199L164.739 172.22C164.839 172.269 164.913 172.344 164.96 172.444L164.98 172.605Z" fill="black"/>
<path d="M148.571 176.526C148.571 176.657 148.571 176.789 148.571 176.92C148.722 177.191 148.693 177.517 148.844 177.788C148.852 177.9 148.846 178.012 148.824 178.124C148.485 178.586 148.618 179.259 148.145 179.662C148.346 178.696 148.175 177.796 147.651 176.962C147.916 176.683 148.181 176.402 148.446 176.123C148.599 176.174 148.667 176.251 148.654 176.353C148.64 176.467 148.612 176.526 148.571 176.526Z" fill="white"/>
<path d="M162.621 171.4C163.467 170.914 164.271 170.81 164.976 171.649C164.242 171.079 163.419 171.364 162.621 171.4Z" fill="black"/>
<path d="M161.402 170.396C161.408 170.747 161.415 171.099 161.421 171.45C161.033 171.106 161.119 170.753 161.402 170.396Z" fill="black"/>
<path d="M148.571 176.526C148.53 176.392 148.489 176.257 148.446 176.123C148.571 175.954 148.699 175.786 148.824 175.617C148.86 175.952 148.76 176.251 148.571 176.526Z" fill="#3B2B0D"/>
<path d="M161.419 171.451C161.726 171.455 162.03 171.459 162.336 171.464C162.028 171.635 161.718 171.947 161.419 171.451Z" fill="black"/>
<path d="M163.321 170.424C163.184 170.481 163.049 170.536 162.911 170.593C163.049 170.536 163.186 170.479 163.321 170.424Z" fill="black"/>
<path d="M164.988 172.199C165.086 172.201 165.182 172.203 165.28 172.203C165.268 172.403 165.156 172.528 164.978 172.603C164.925 172.564 164.876 172.519 164.833 172.47L164.811 172.277L164.988 172.199Z" fill="black"/>
<path d="M164.923 171.579C164.944 171.787 164.966 171.993 164.988 172.201L164.872 172.315L164.713 172.347C164.664 172.301 164.619 172.252 164.577 172.199C164.693 171.991 164.807 171.785 164.923 171.579Z" fill="black"/>
<path d="M165.272 170.613C165.182 170.564 165.104 170.5 165.041 170.417C165.176 170.413 165.253 170.48 165.272 170.613Z" fill="#3C2D0D"/>
<path d="M132.39 182.847C132.292 182.79 132.19 182.741 132.082 182.703C132.176 182.578 132.272 182.454 132.367 182.328C132.375 182.501 132.382 182.674 132.39 182.847Z" fill="#34270D"/>
<path d="M161.849 170.468C161.977 170.27 162.104 170.071 162.232 169.873C162.104 170.071 161.977 170.27 161.849 170.468Z" fill="#3C2D0D"/>
<path d="M156.933 133.629C156.726 145.869 146.536 154.648 135.27 154.183C124.539 153.739 115.173 144.899 115.354 133.075C115.534 121.262 125.315 112.19 136.903 112.618C148.045 113.032 156.995 122.11 156.933 133.629Z" fill="white"/>
<path d="M147.923 95.595C150.624 95.5243 153.046 97.5826 153.06 100.637C153.074 103.587 150.805 105.716 147.951 105.718C145.172 105.72 142.979 103.536 142.936 100.762C142.893 97.8694 145.06 95.6225 147.923 95.595Z" fill="white"/>
<path d="M181.954 164.283C181.016 164.252 180.464 163.486 180.721 162.783C181.012 161.985 181.612 161.522 182.425 161.367C182.908 161.274 183.306 161.5 183.591 161.899C183.85 162.262 183.765 162.628 183.569 162.989C183.18 163.708 182.639 164.214 181.954 164.283Z" fill="white"/>
<path d="M147.372 178.296C147.409 179.251 146.312 180.311 145.37 180.233C144.489 180.158 144.051 179.331 144.473 178.553C144.832 177.89 145.366 177.469 146.122 177.365C146.728 177.281 147.35 177.754 147.372 178.296Z" fill="white"/>
<path d="M140.606 181.405C140.463 181.456 140.367 181.405 140.294 181.261C140.237 181.147 140.151 181.047 140.092 180.935C139.57 179.939 139.855 179.391 140.975 179.23C141.409 179.167 141.753 179.509 141.662 179.904C141.545 180.417 141.313 180.868 140.944 181.242C140.86 181.324 140.72 181.351 140.606 181.405Z" fill="white"/>
<path d="M130.418 186.106C130.361 186.106 130.296 186.124 130.247 186.102C129.941 185.968 129.358 184.988 129.446 184.625C129.57 184.124 130.033 183.994 130.48 183.902C130.743 183.847 131.003 183.871 131.167 184.118C131.234 184.218 131.277 184.356 131.279 184.476C131.289 185.094 131.034 185.601 130.588 186.016C130.543 186.061 130.475 186.078 130.418 186.106Z" fill="white"/>
<path d="M152.403 176.018C152.467 176.935 151.315 178.08 150.397 178.011C149.629 177.954 149.091 177.165 149.374 176.481C149.696 175.704 150.296 175.238 151.115 175.085C151.672 174.981 152.367 175.505 152.403 176.018Z" fill="white"/>
<path d="M148.844 177.789C148.567 177.557 148.505 177.26 148.571 176.92C148.764 177.178 148.864 177.464 148.844 177.789Z" fill="#3B2B0D"/>
<path d="M120.48 188.571C120.877 188.017 121.466 187.901 122.019 187.728C122.198 187.671 122.427 187.612 122.537 187.827C122.618 187.986 122.639 188.184 122.641 188.367C122.643 188.489 122.592 188.632 122.516 188.732C122.141 189.223 122.001 190.15 121.265 190.019C120.743 189.928 120.616 189.123 120.48 188.571Z" fill="white"/>
<path d="M175.606 166.242C175.545 166.246 175.465 166.276 175.426 166.246C174.984 165.924 174.77 165.433 174.672 164.94C174.584 164.504 175.006 164.282 175.335 164.086C175.553 163.954 175.801 163.866 176.042 163.78C176.344 163.67 176.747 163.98 176.686 164.274C176.539 164.98 176.228 165.61 175.777 166.17C175.742 166.213 175.663 166.219 175.606 166.242Z" fill="white"/>
<path d="M132.761 183.679C132.583 183.571 132.473 183.424 132.494 183.202C132.585 183.363 132.673 183.522 132.761 183.679Z" fill="#34270D"/>
<path d="M125.892 187.403C125.929 187.167 125.996 186.965 126.239 187.031C126.62 187.136 126.887 187.393 126.971 187.791C127.01 187.982 126.567 188.479 126.376 188.455C126.08 188.42 125.978 188.188 125.937 187.929C125.907 187.744 125.903 187.556 125.892 187.403Z" fill="white"/>
<path d="M164.713 172.347L164.874 172.313L164.835 172.471L164.713 172.347Z" fill="black"/>
<path d="M136.061 120.664C143.07 120.624 148.813 126.299 148.897 133.279C148.972 139.495 144.161 146.155 136.114 146.143C128.151 146.129 123.364 139.564 123.381 133.428C123.399 126.42 129.05 120.705 136.061 120.664Z" fill="black"/>
</svg>
