<svg width="276" height="276" viewBox="0 0 276 276" fill="none" xmlns="http://www.w3.org/2000/svg">
<g clip-path="url(#clip0)">
<path d="M186.379 135.508C185.953 138.124 184.82 139.595 183.053 140.576C180.392 142.058 177.964 141.594 176.28 139.01C174.612 136.452 173.224 133.715 171.618 131.115C171.036 130.177 171.306 129.834 172.107 129.285C175.376 127.049 175.355 127.018 177.325 130.446C178.151 131.885 178.926 133.362 179.83 134.749C180.506 135.788 181.332 136.758 182.814 136.02C184.285 135.281 184.773 134.105 184.326 132.539C183.661 130.235 182.372 128.22 181.057 126.29C179.664 124.244 181.312 123.964 182.393 123.326C183.469 122.693 184.425 121.401 185.594 123.595C188.853 129.681 192.455 135.577 195.761 141.636C200.891 151.049 197.694 162.646 188.635 167.946C179.55 173.262 168.026 170.287 162.585 161.111C159.019 155.1 155.703 148.94 152.132 142.933C150.911 140.887 152.616 140.734 153.562 140.223C154.539 139.695 155.542 137.955 156.794 140.254C160.137 146.393 163.609 152.468 167.158 158.485C170.615 164.339 177.367 166.854 183.547 164.787C189.669 162.741 193.588 156.745 193.146 150.142C193.006 148.091 192.403 146.171 191.426 144.394C189.872 141.562 188.24 138.778 186.379 135.508Z" fill="#F9F8F4"/>
<path d="M83.3213 151.424C81.7984 148.729 80.421 146.324 79.0749 143.904C73.9344 134.67 76.58 124.033 85.2496 119.023C93.9192 114.013 104.231 117.104 109.512 126.301C112.771 131.98 115.905 137.744 119.309 143.334C120.702 145.623 118.831 145.718 117.787 146.446C116.638 147.247 115.718 148.023 114.637 146.003C111.513 140.144 108.145 134.422 104.829 128.674C101.066 122.156 93.7996 119.972 87.6977 123.479C81.5021 127.039 79.6206 134.644 83.3473 141.278C86.5542 146.989 89.8443 152.653 93.0408 158.375C93.3994 159.018 94.6572 159.962 93.545 160.537C92.3547 161.154 91.336 163.158 89.6624 161.903C88.6488 161.143 88.8567 161.781 88.5865 162.367C86.2891 167.377 81.0863 168.078 77.552 163.875C77.2141 163.474 76.9075 163.047 76.6372 162.604C75.0467 159.999 74.2879 157.204 75.8835 154.398C77.4168 151.709 79.9377 150.765 83.3213 151.424ZM83.6747 154.277C81.866 154.23 80.2859 155.722 80.2547 157.499C80.2183 159.53 82.1051 161.813 83.8411 161.607C85.5926 161.402 86.9648 160.479 87.1519 158.496C87.3338 156.529 85.4575 154.325 83.6747 154.277Z" fill="#F9F8F4"/>
<path d="M130.677 167.798C130.204 170.319 129.388 171.875 127.735 172.935C124.829 174.796 122.231 174.39 120.359 171.495C118.748 169.011 117.386 166.364 115.843 163.827C115.318 162.968 115.416 162.551 116.253 161.96C119.554 159.635 119.528 159.598 121.503 163.068C122.282 164.434 123.031 165.815 123.863 167.144C124.637 168.378 125.547 169.496 127.22 168.558C128.79 167.677 129.102 166.269 128.384 164.739C127.418 162.688 126.409 160.631 125.157 158.759C123.837 156.782 125.562 156.56 126.519 156.033C127.511 155.484 128.566 153.839 129.72 156.144C131.321 159.339 133.249 162.366 134.959 165.509C135.396 166.316 136.888 167.366 134.939 168.157C133.634 168.689 132.329 171.105 130.677 167.798Z" fill="#F9F8F4"/>
<path d="M128.688 147.562C127.47 148.297 125.905 147.42 125.764 146.005C125.652 144.878 125.562 143.767 125.562 142.654C125.562 140.439 124.845 138.936 122.885 137.745C120.417 136.245 118.085 134.511 115.54 132.693C114.897 132.234 114.976 131.17 115.612 130.701C116.905 129.747 118.029 128.685 119.569 129.302C121.316 129.998 122.672 131.696 124.263 132.998C124.819 132.102 124.476 131.348 124.372 130.641C123.785 126.582 123.682 125.941 126.525 124.351C127.443 123.837 128.58 124.449 128.699 125.495C129.206 129.932 129.702 134.292 130.198 138.657C130.287 139.443 130.328 140.234 130.427 141.014C130.955 145.208 131.074 146.122 128.688 147.562Z" fill="#F9F8F4"/>
<path d="M142.647 118.928C142.647 114.446 146.566 110.627 151.067 110.712C155.287 110.791 158.692 114.213 158.723 118.411C158.754 122.862 154.83 126.796 150.391 126.765C146.025 126.733 142.647 123.321 142.647 118.928ZM153.821 119.471C153.837 117.283 152.054 115.215 150.349 115.321C148.665 115.426 147.616 116.397 147.465 118.126C147.304 119.962 149.164 122.261 150.796 122.187C152.584 122.108 153.655 121.095 153.821 119.471Z" fill="#F9F8F4"/>
<path d="M171.244 102.216C171.244 97.7074 175.111 93.9263 179.643 94.0001C183.895 94.0686 187.294 97.4648 187.315 101.663C187.341 106.135 183.453 110.042 178.999 110.037C174.653 110.032 171.244 106.593 171.244 102.216ZM182.439 102.633C182.429 100.545 180.573 98.3877 178.926 98.5723C177.169 98.7621 176.041 99.7852 176.052 101.678C176.062 103.514 177.845 105.491 179.42 105.428C181.234 105.349 182.257 104.315 182.439 102.633Z" fill="#F9F8F4"/>
<path d="M148.572 156.175C148.572 159.92 146.087 163.036 142.236 164.133C139.175 165.003 135.885 163.585 133.951 160.7C133.317 159.751 133.338 159.26 134.367 158.696C136.711 157.404 139.014 156.028 141.316 154.651C141.794 154.367 142.652 154.193 142.408 153.444C142.241 152.943 141.649 152.452 141.134 152.231C139.029 151.329 137.387 152.41 136.737 154.198C135.947 156.36 134.289 155.949 132.943 155.954C131.519 155.959 132.262 154.614 132.444 153.955C133.338 150.686 138.463 147.685 142.039 148.239C145.807 148.829 148.572 152.183 148.572 156.175ZM144.086 156.487C142.387 157.515 140.874 158.427 139.221 159.429C140.365 160.716 141.462 161.075 142.792 160.352C144.201 159.582 144.695 158.411 144.086 156.487Z" fill="#F9F8F4"/>
<path d="M97.3652 173.837C100.972 173.889 104.049 176.647 104.709 180.434C105.39 184.305 103.14 188.012 99.2052 189.515C95.8371 190.802 92.1676 189.452 90.151 186.314C89.5117 185.317 89.626 184.853 90.6344 184.294C92.9889 182.997 95.255 181.541 97.6095 180.249C99.3767 179.279 98.5607 178.556 97.4692 177.897C95.9047 176.953 93.6697 177.776 92.8589 179.949C92.0585 182.095 90.2965 181.515 88.9763 181.599C87.8744 181.668 88.4462 180.371 88.6073 179.717C89.3973 176.642 93.7009 173.784 97.3652 173.837ZM95.5201 185.191C97.7654 186.836 100.073 186.314 100.557 184.057C100.661 183.582 100.666 182.923 100.411 182.57C99.9952 181.984 99.5118 182.58 99.1324 182.833C97.937 183.619 96.518 184.062 95.5201 185.191Z" fill="#F9F8F4"/>
<path d="M161.031 142.575C161.218 141.784 161.883 141.067 160.116 141.241C158.977 141.351 158.504 139.347 158.026 138.203C157.642 137.28 158.92 137.117 159.518 136.753C162.184 135.129 164.882 133.552 167.605 132.028C168.188 131.701 168.92 130.588 169.549 131.616C170.184 132.655 171.795 133.937 170.953 134.949C169.518 136.668 171.384 136.194 171.706 136.368C174.3 137.76 175.61 140.518 174.82 143.181C173.884 146.319 169.659 149.04 166.197 148.734C163.619 148.508 161.306 146.219 161.036 143.619C160.999 143.26 161.031 142.907 161.031 142.575ZM166.556 143.972C168.718 143.941 170.527 142.248 170.355 140.523C170.178 138.757 169.232 137.565 167.372 137.512C165.573 137.46 163.635 139.332 163.816 140.977C164.004 142.717 164.929 143.888 166.556 143.972Z" fill="#F9F8F4"/>
<path d="M104.236 147.58C104.21 148.265 103.4 149.167 105.229 148.908C106.217 148.766 106.861 150.796 107.267 151.962C107.636 153.027 106.232 153.143 105.572 153.549C102.989 155.142 100.364 156.671 97.7134 158.142C97.1365 158.464 96.4296 159.624 95.7955 158.649C95.1095 157.589 93.5034 156.402 94.4026 155.131C95.2186 153.976 94.6729 154.224 93.9764 153.903C89.6 151.877 88.9243 147.2 92.5003 143.914C95.9203 140.771 100.271 140.487 102.708 143.266C103.779 144.479 104.418 145.887 104.236 147.58ZM98.6282 146.119C96.6843 146.145 94.7456 147.912 94.8912 149.552C95.0575 151.413 96.071 152.663 98.0253 152.669C99.8237 152.674 101.716 150.738 101.497 149.13C101.269 147.411 100.286 146.293 98.6282 146.119Z" fill="#F9F8F4"/>
<path d="M104.585 174.227C103.187 173.721 103.051 172.228 102.334 171.195C101.71 170.298 102.651 170.013 103.202 169.686C105.879 168.099 108.545 166.491 111.264 164.993C111.944 164.618 112.729 163.416 113.447 164.212C114.325 165.188 115.63 166.564 115.177 167.767C114.793 168.795 114.689 168.721 115.64 169.196C119.621 171.189 120.172 175.888 116.887 178.957C113.738 181.9 109.538 182.306 107.09 179.901C105.624 178.462 105.078 176.69 105.234 174.659C105.344 174.375 105.546 174.042 105.125 173.889C104.995 173.852 104.767 174.106 104.585 174.227ZM111.191 176.721C112.864 176.378 114.486 175.603 114.533 173.515C114.574 171.68 113.504 170.214 111.544 170.245C109.684 170.277 108.083 171.326 108.031 173.383C107.989 175.181 109.034 176.505 111.191 176.721Z" fill="#F9F8F4"/>
<path d="M165.282 102.348C168.442 102.412 170.864 104.953 170.968 108.313C170.989 109.025 170.391 109.784 171.987 109.9C173.021 109.974 173.697 111.835 173.978 113.054C174.196 113.998 172.834 114.177 172.143 114.599C169.783 116.049 167.398 117.462 164.965 118.786C164.289 119.155 163.52 120.363 162.777 119.498C161.935 118.522 160.89 117.373 161.124 115.912C161.212 115.363 161.774 115.242 160.88 114.725C157.798 112.953 156.696 110.533 157.465 107.891C158.307 104.996 162.138 102.285 165.282 102.348ZM168.255 110.549C168.042 108.65 167.159 107.163 165.277 107.152C163.468 107.142 161.857 108.154 161.753 110.253C161.659 112.131 162.756 113.57 164.638 113.586C166.467 113.597 167.871 112.532 168.255 110.549Z" fill="#F9F8F4"/>
<path d="M149.31 142.654C150.121 142.743 150.251 143.324 150.495 143.751C153.749 149.43 156.961 155.131 160.246 160.795C160.812 161.776 160.682 162.208 159.741 162.825C156.509 164.95 156.535 164.993 154.663 161.702C151.94 156.924 149.19 152.167 146.529 147.353C146.119 146.614 144.861 145.765 145.724 144.916C146.737 143.904 148.177 143.339 149.31 142.654Z" fill="#F9F8F4"/>
<path d="M145.9 129.607C145.074 130.957 143.452 131.274 142.241 132.123C141.316 132.772 141.087 131.717 140.786 131.19C137.579 125.589 134.45 119.941 131.176 114.383C130.36 113.001 130.879 112.373 132.018 112.11C133.177 111.846 134.149 109.157 135.531 111.493C138.915 117.188 142.132 122.989 145.417 128.743C145.547 128.969 145.672 129.196 145.9 129.607Z" fill="#F9F8F4"/>
<path d="M194.357 133.32C192.547 133.363 194.867 129.556 195.657 127.927C195.819 127.593 195.931 127.2 195.984 126.738C196.203 124.856 195.241 123.284 193.474 122.556C191.208 121.618 189.986 123.21 188.879 124.866C185.995 121.344 186.473 119.556 190.693 117.947C194.872 116.355 199.269 118.854 200.693 123.638C201.946 127.851 199.248 132.381 194.976 133.246C194.749 133.292 194.544 133.316 194.357 133.32Z" fill="#F9F8F4"/>
<path d="M106.253 136.183C106.986 136.014 107.106 136.663 107.334 137.059C109.33 140.523 111.248 144.041 113.306 147.469C113.956 148.555 113.566 148.914 112.703 149.467C109.569 151.482 109.585 151.513 107.74 148.265C106.321 145.771 105.047 143.171 103.431 140.819C102.142 138.936 102.516 137.971 104.465 137.206C105.094 136.964 105.661 136.531 106.253 136.183Z" fill="#F9F8F4"/>
<path d="M109.782 158.39C111.04 158.796 111.108 160.236 111.82 161.117C112.485 161.939 111.851 162.366 111.232 162.73C108.176 164.523 105.104 166.29 102.059 168.099C101.404 168.489 100.806 168.869 100.437 167.856C100.042 166.77 98.2696 165.446 99.2415 164.75C102.532 162.398 106.154 160.526 109.782 158.39Z" fill="#F9F8F4"/>
<path d="M177.159 118.301C177.231 119.197 176.654 119.345 176.239 119.593C173.26 121.354 170.235 123.036 167.314 124.887C166.041 125.694 165.521 125.014 165.272 124.049C165.027 123.11 162.959 122.277 164.955 121.106C168.011 119.308 171.062 117.499 174.134 115.743C175.074 115.205 177.148 117.135 177.159 118.301Z" fill="#F9F8F4"/>
<path d="M102.781 135.978C101.518 135.941 100.754 135.271 100.728 134.069C100.702 132.861 101.461 132.118 102.667 132.081C103.795 132.044 104.455 132.793 104.538 133.848C104.637 135.045 103.951 135.783 102.781 135.978Z" fill="#F9F8F4"/>
<path d="M83.6747 154.277C85.4575 154.324 87.3338 156.529 87.1519 158.496C86.97 160.484 85.5927 161.402 83.8411 161.607C82.0999 161.813 80.2183 159.529 80.2547 157.499C80.2859 155.722 81.866 154.23 83.6747 154.277Z" fill="black"/>
<path d="M153.821 119.471C153.65 121.096 152.584 122.108 150.802 122.193C149.17 122.266 147.304 119.967 147.47 118.132C147.621 116.402 148.671 115.432 150.355 115.326C152.054 115.21 153.837 117.283 153.821 119.471Z" fill="black"/>
<path d="M182.439 102.633C182.257 104.315 181.234 105.349 179.425 105.423C177.85 105.491 176.067 103.508 176.057 101.673C176.046 99.7799 177.174 98.7569 178.931 98.567C180.573 98.393 182.429 100.545 182.439 102.633Z" fill="black"/>
<path d="M144.086 156.487C144.695 158.412 144.201 159.582 142.797 160.352C141.467 161.075 140.365 160.716 139.227 159.429C140.879 158.427 142.392 157.515 144.086 156.487Z" fill="black"/>
<path d="M95.5201 185.191C96.5128 184.062 97.937 183.619 99.1324 182.833C99.5118 182.585 99.9952 181.989 100.411 182.57C100.66 182.923 100.655 183.582 100.557 184.057C100.073 186.314 97.7706 186.841 95.5201 185.191Z" fill="black"/>
<path d="M166.556 143.972C164.929 143.883 164.009 142.712 163.811 140.972C163.629 139.326 165.568 137.454 167.366 137.507C169.227 137.56 170.173 138.757 170.35 140.518C170.527 142.248 168.713 143.941 166.556 143.972Z" fill="black"/>
<path d="M98.6282 146.119C100.286 146.293 101.269 147.411 101.497 149.13C101.71 150.733 99.8236 152.674 98.0253 152.668C96.071 152.663 95.0575 151.413 94.8911 149.552C94.7456 147.912 96.6843 146.145 98.6282 146.119Z" fill="black"/>
<path d="M111.191 176.721C109.034 176.505 107.989 175.181 108.031 173.383C108.083 171.326 109.678 170.277 111.544 170.245C113.499 170.208 114.569 171.68 114.533 173.515C114.486 175.603 112.864 176.378 111.191 176.721Z" fill="black"/>
<path d="M104.585 174.227C104.767 174.106 105 173.853 105.12 173.895C105.536 174.048 105.338 174.38 105.229 174.665C105.011 174.517 104.798 174.375 104.585 174.227Z" fill="#F9F8F4"/>
<path d="M168.255 110.549C167.865 112.531 166.462 113.597 164.643 113.586C162.761 113.57 161.665 112.131 161.758 110.253C161.862 108.154 163.473 107.142 165.282 107.152C167.158 107.163 168.047 108.65 168.255 110.549Z" fill="black"/>
</g>
<defs>
<clipPath id="clip0">
<rect width="126" height="96" fill="white" transform="translate(75 94)"/>
</clipPath>
</defs>
</svg>
