<svg width="276" height="276" viewBox="0 0 276 276" fill="none" xmlns="http://www.w3.org/2000/svg">
<g clip-path="url(#clip0)">
<path d="M111.183 153.409L122.43 131.188H129.948L134.719 153.409H128.627L127.721 149.219H119.866L117.719 153.409H111.183ZM122.122 144.27H126.862L125.835 139.078C125.733 138.562 125.657 138.102 125.605 137.696C125.552 137.292 125.522 136.912 125.512 136.558C125.296 137.166 125.099 137.698 124.921 138.158C124.743 138.618 124.601 138.961 124.499 139.184L122.122 144.27Z" fill="#F9F8F4"/>
<path d="M135.73 153.409L138.168 138.079H143.677L141.222 153.409H135.73ZM138.584 133.509C138.584 132.721 138.868 132.043 139.435 131.475C140.002 130.909 140.69 130.625 141.499 130.625C142.349 130.625 143.053 130.897 143.615 131.444C144.178 131.991 144.46 132.679 144.46 133.509C144.46 134.328 144.173 135.023 143.601 135.589C143.027 136.157 142.327 136.438 141.499 136.438C140.69 136.438 140.002 136.152 139.435 135.582C138.868 135.009 138.584 134.319 138.584 133.509Z" fill="#F9F8F4"/>
<path d="M144.042 153.409L146.498 138.079H151.745L151.361 140.688C151.843 139.717 152.486 138.977 153.294 138.473C154.103 137.966 155.043 137.715 156.118 137.715C156.229 137.715 156.357 137.722 156.502 137.738C156.644 137.752 156.87 137.788 157.178 137.837L156.089 142.648C155.731 142.568 155.408 142.507 155.124 142.465C154.837 142.425 154.561 142.404 154.296 142.404C153.242 142.404 152.41 142.73 151.802 143.383C151.193 144.035 150.777 145.044 150.552 146.41L149.447 153.406H144.042V153.409Z" fill="#F9F8F4"/>
<path d="M158.839 153.409L160.665 141.996H158.089L158.718 138.079H161.294L161.984 133.631H167.445L166.724 138.079H169.502L168.874 141.996H166.096L164.286 153.409H158.839Z" fill="#F9F8F4"/>
<path d="M168.755 153.409L171.21 138.079H176.458L176.074 140.688C176.555 139.717 177.198 138.977 178.007 138.473C178.816 137.966 179.756 137.715 180.83 137.715C180.942 137.715 181.07 137.722 181.215 137.738C181.357 137.752 181.582 137.788 181.891 137.837L180.802 142.648C180.444 142.568 180.121 142.507 179.836 142.465C179.549 142.425 179.274 142.404 179.008 142.404C177.955 142.404 177.122 142.73 176.515 143.383C175.905 144.035 175.49 145.044 175.265 146.41L174.159 153.406H168.755V153.409Z" fill="#F9F8F4"/>
<path d="M193.38 151.357C192.633 152.219 191.802 152.869 190.886 153.308C189.971 153.749 188.986 153.967 187.933 153.967C186.154 153.967 184.692 153.305 183.554 151.979C182.413 150.653 181.843 148.933 181.843 146.818C181.843 144.166 182.614 141.967 184.161 140.217C185.705 138.466 187.634 137.59 189.945 137.59C191.019 137.59 191.98 137.811 192.829 138.25C193.679 138.691 194.445 139.372 195.131 140.292L195.484 138.076H200.67L198.215 153.406H193.121L193.38 151.357ZM187.349 146.288C187.349 147.269 187.651 148.06 188.256 148.656C188.858 149.252 189.658 149.553 190.649 149.553C191.733 149.553 192.637 149.135 193.356 148.299C194.077 147.464 194.438 146.419 194.438 145.164C194.438 144.213 194.137 143.441 193.532 142.85C192.929 142.258 192.141 141.963 191.169 141.963C190.063 141.963 189.152 142.373 188.431 143.192C187.71 144.011 187.349 145.044 187.349 146.288Z" fill="#F9F8F4"/>
<path d="M214.067 143.679C213.504 143.082 212.933 142.637 212.356 142.343C211.777 142.05 211.172 141.902 210.539 141.902C209.464 141.902 208.565 142.315 207.839 143.139C207.113 143.963 206.75 144.983 206.75 146.197C206.75 147.208 207.033 148.011 207.595 148.602C208.157 149.194 208.919 149.49 209.882 149.49C210.496 149.49 211.087 149.384 211.654 149.17C212.221 148.957 212.786 148.64 213.35 148.215L212.522 153.254C211.796 153.507 211.092 153.695 210.413 153.815C209.732 153.937 209.066 153.998 208.411 153.998C206.221 153.998 204.449 153.296 203.095 151.895C201.74 150.494 201.062 148.666 201.062 146.408C201.062 143.768 201.899 141.625 203.579 139.98C205.256 138.335 207.455 137.513 210.176 137.513C211.044 137.513 211.875 137.638 212.662 137.884C213.45 138.133 214.171 138.499 214.826 138.985L214.067 143.679Z" fill="#F9F8F4"/>
<path d="M227.421 145.547L232.485 153.409H225.947L222.377 146.821L222.026 146.143L221.585 145.293L222.235 144.575L223.35 143.34L228.113 138.079H235L227.421 145.547Z" fill="#F9F8F4"/>
<path d="M224.071 129.881L221.677 144.573L221.464 146.168L220.296 153.409H214.866L218.593 129.881H224.071Z" fill="#F9F8F4"/>
<path d="M78.4876 129.329L66.2962 153.411H41L78.4876 129.329Z" fill="#572DFF"/>
<path d="M86.0957 135.243L92.9802 121L96.9515 135.22L86.0957 135.243Z" fill="#572DFF"/>
<path d="M99.2005 143.641L101.952 153.408L77.2706 153.404L81.9963 143.678L99.2005 143.641Z" fill="#572DFF"/>
</g>
<defs>
<clipPath id="clip0">
<rect width="194" height="33" fill="white" transform="translate(41 121)"/>
</clipPath>
</defs>
</svg>
