<svg width="276" height="276" viewBox="0 0 276 276" fill="none" xmlns="http://www.w3.org/2000/svg">
<path d="M90.091 127.52C89.8669 127.404 89.621 127.441 89.3607 127.614C89.1004 127.788 88.9486 128.048 88.9052 128.395C87.8134 141.539 86.0925 154.719 83.7499 167.943C83.6703 168.276 83.7426 168.492 83.9668 168.601C84.1909 168.717 84.4368 168.68 84.7115 168.5C84.9863 168.326 85.1526 168.073 85.2104 167.748C87.5748 154.517 89.3101 141.329 90.4019 128.185C90.4164 127.853 90.3151 127.628 90.091 127.52Z" fill="#F9F8F4" stroke="#F9F8F4" stroke-width="0.5"/>
<path d="M133.315 129.79C133.185 129.638 133.018 129.58 132.801 129.617C131.514 129.754 130.292 130.542 129.157 131.973C128.051 133.354 127.06 135.147 126.178 137.353C126.171 137.316 126.164 137.288 126.149 137.259C126.627 134.316 127.198 131.128 127.877 127.693C127.914 127.448 127.877 127.238 127.769 127.079C127.661 126.912 127.516 126.826 127.321 126.819C127.133 126.804 126.945 126.884 126.764 127.05C126.59 127.216 126.482 127.411 126.439 127.635C125.614 131.8 124.992 135.234 124.573 137.924C124.443 138.141 124.291 138.372 124.139 138.611C123.85 139.052 123.489 139.551 123.062 140.107C122.635 140.657 122.223 141.127 121.818 141.503C121.421 141.879 121.016 142.189 120.596 142.443C120.17 142.696 119.808 142.739 119.512 142.58C119.23 142.363 119.158 141.756 119.28 140.743C119.403 139.731 119.693 138.48 120.134 137.006C120.481 136.058 120.799 135.126 121.088 134.215C121.168 134.005 121.168 133.803 121.081 133.607C120.987 133.419 120.857 133.297 120.676 133.246C120.495 133.195 120.314 133.239 120.134 133.369C119.953 133.499 119.815 133.673 119.714 133.889V133.962C119.497 133.636 119.252 133.412 118.97 133.289C118.478 133.087 117.943 133.166 117.35 133.528C116.677 133.918 115.925 134.721 115.094 135.943C114.255 137.157 113.547 138.488 112.961 139.934C112.867 140.165 112.78 140.389 112.701 140.606C112.657 140.621 112.621 140.628 112.578 140.642C111.052 141.177 109.505 141.886 107.921 142.775C107.379 140.216 106.345 138.459 104.827 137.519C102.795 136.297 99.9389 136.413 96.2658 137.859C98.1747 136.145 99.8377 134.533 101.262 133.022C102.686 131.511 103.959 129.898 105.08 128.199C105.897 126.963 106.533 125.676 107.003 124.331C107.473 122.994 107.733 121.721 107.777 120.514C107.827 119.307 107.531 118.265 106.895 117.391C106.251 116.516 105.289 115.974 103.988 115.757C102.52 115.511 100.951 115.576 99.2809 115.952C97.6035 116.321 95.9621 116.95 94.3353 117.832C92.7157 118.721 91.1177 119.791 89.5559 121.042C87.9942 122.293 86.5481 123.724 85.2177 125.329C83.8945 126.941 82.7376 128.604 81.7398 130.332C80.742 132.06 79.9756 133.882 79.4405 135.805C78.9055 137.721 78.6596 139.587 78.703 141.387C78.7102 141.51 78.7319 141.597 78.7753 141.654C78.9055 142.052 79.1802 142.182 79.6068 142.052C80.0045 141.922 80.1925 141.64 80.1708 141.192C80.1491 139.782 80.3082 138.343 80.648 136.875C80.9878 135.401 81.4867 133.983 82.1375 132.631C82.7882 131.279 83.5619 129.949 84.4729 128.626C85.3767 127.303 86.3601 126.11 87.4302 125.033C88.5003 123.955 89.6355 122.929 90.843 121.96C92.0505 120.991 93.2796 120.189 94.5377 119.56C95.7886 118.923 97.0395 118.396 98.2904 117.983C99.534 117.564 100.741 117.362 101.913 117.369C103.308 117.318 104.371 117.579 105.087 118.157C105.81 118.743 106.179 119.502 106.2 120.434C106.222 121.374 106.049 122.415 105.673 123.565C105.297 124.715 104.776 125.857 104.111 126.978C103.446 128.105 102.715 129.147 101.927 130.094C101.175 131.005 100.3 131.959 99.3026 132.971C98.312 133.983 97.5312 134.75 96.9599 135.278C96.396 135.805 95.4126 136.687 94.0027 137.924C92.6 139.16 91.7395 139.926 91.4286 140.223C91.0888 140.519 90.9731 140.903 91.0743 141.351C91.1756 141.806 91.4359 141.915 91.8625 141.683C92.9109 141.105 93.8436 140.621 94.6607 140.23C95.4705 139.84 96.4032 139.457 97.4444 139.081C98.4928 138.705 99.4906 138.48 100.445 138.415C101.399 138.343 102.282 138.444 103.091 138.719C103.966 139.016 104.697 139.608 105.282 140.483C105.868 141.358 106.287 142.399 106.533 143.599C104.595 144.792 102.686 146.217 100.799 147.879C98.9122 149.535 97.1624 151.292 95.55 153.157C93.9448 155.015 92.4264 156.982 91.0165 159.043C90.7634 159.419 90.4598 159.888 90.1127 160.46C89.7584 161.024 89.3246 161.768 88.804 162.679C88.2834 163.583 87.8496 164.465 87.5025 165.304C87.1554 166.15 86.8734 166.952 86.6782 167.726C86.4758 168.492 86.483 169.107 86.6999 169.562C86.9168 170.025 87.3796 170.242 88.0809 170.227C88.2906 170.22 88.522 170.184 88.7751 170.119C89.0281 170.054 89.2956 169.967 89.5704 169.844C89.8452 169.729 90.091 169.613 90.3151 169.512C90.5321 169.403 90.7996 169.259 91.1033 169.071C91.4069 168.89 91.6528 168.738 91.8263 168.637C92.0071 168.528 92.2457 168.376 92.5421 168.181C92.6434 168.109 92.7301 168.051 92.7952 168.008C95.0873 166.489 97.3721 164.566 99.6569 162.26C100.785 161.132 101.826 159.961 102.773 158.746C103.728 157.532 104.617 156.23 105.449 154.835C106.273 153.432 106.938 151.972 107.437 150.446C107.936 148.921 108.196 147.424 108.225 145.956C108.239 145.501 108.218 144.966 108.167 144.358C109.555 143.592 110.9 142.956 112.209 142.457C112.151 142.833 112.122 143.173 112.137 143.484C112.173 144.785 112.715 145.472 113.756 145.537C115.029 145.588 116.367 144.452 117.755 142.139C117.791 143.252 118.131 143.939 118.767 144.207C119.194 144.38 119.664 144.402 120.17 144.272C120.676 144.142 121.218 143.86 121.782 143.426C122.353 142.992 122.852 142.529 123.293 142.038C123.575 141.712 123.857 141.372 124.147 140.997C123.865 143.303 123.836 144.677 124.067 145.132C124.197 145.407 124.421 145.508 124.739 145.429C124.761 145.421 124.783 145.4 124.805 145.371C125.144 145.262 125.354 145.002 125.434 144.604C125.932 142.392 126.533 140.331 127.241 138.415C127.95 136.499 128.781 134.865 129.75 133.506C130.719 132.14 131.695 131.41 132.671 131.301C132.859 131.272 133.04 131.164 133.206 130.983C133.373 130.795 133.467 130.585 133.481 130.354C133.503 130.123 133.445 129.935 133.315 129.79ZM99.9751 159.881C96.3526 163.879 92.9253 166.605 89.6716 168.066C89.6499 168.066 89.5487 168.109 89.3752 168.196C89.1944 168.275 89.0498 168.34 88.9486 168.391C88.8401 168.442 88.71 168.485 88.5654 168.507C88.4135 168.536 88.2978 168.536 88.2111 168.514C88.1315 168.507 88.0737 168.507 88.052 168.514C88.052 168.348 88.1388 167.899 88.3195 167.155C88.6449 165.904 89.1727 164.631 89.9102 163.359C90.6477 162.079 91.5371 160.698 92.5783 159.209C94.5956 156.367 96.8153 153.743 99.2231 151.328C101.631 148.913 104.14 146.882 106.75 145.233C106.75 145.638 106.757 145.942 106.757 146.159C106.692 150.403 104.429 154.979 99.9751 159.881ZM118.76 136.68C117.986 138.676 117.176 140.368 116.33 141.77C115.492 143.173 114.761 143.852 114.147 143.823C113.807 143.787 113.633 143.549 113.626 143.093C113.59 142.03 114.089 140.527 115.108 138.589C116.135 136.651 117.039 135.451 117.813 134.988C117.899 134.945 117.972 134.909 118.037 134.894C118.102 134.88 118.152 134.887 118.196 134.923C118.456 135.025 118.63 135.343 118.716 135.863C118.767 136.001 118.832 136.116 118.919 136.21C118.854 136.391 118.803 136.55 118.76 136.68Z" fill="#F9F8F4" stroke="#F9F8F4" stroke-width="0.5"/>
<path d="M197.261 118.432C197.196 118.229 197.066 118.107 196.871 118.063C196.683 118.02 196.487 118.056 196.299 118.172C195.461 118.728 194.586 119.379 193.682 120.138C193.617 116.957 193.161 115.055 192.301 114.441C192.127 114.318 191.918 114.296 191.665 114.39C191.347 114.492 190.992 114.831 190.595 115.395C190.197 115.966 189.481 117.123 188.447 118.873C185.808 123.356 184.239 125.662 183.733 125.792C183.386 125.597 183.444 124.447 183.892 122.365C184.34 120.276 185.013 117.991 185.917 115.511C186.018 115.294 186.032 115.084 185.953 114.875C185.88 114.665 185.75 114.542 185.569 114.492C185.389 114.441 185.193 114.484 184.998 114.622C184.796 114.759 184.658 114.933 184.572 115.142C183.957 116.805 183.4 118.577 182.894 120.449C181.976 123.912 181.831 126.103 182.482 127.036C182.381 127.137 182.272 127.231 182.164 127.325C181.889 127.549 181.687 127.636 181.557 127.571C181.325 127.44 181.108 126.363 180.913 124.332C180.833 123.609 180.768 123.081 180.711 122.734C180.653 122.394 180.573 121.996 180.458 121.548C180.342 121.1 180.19 120.789 179.98 120.63C179.778 120.471 179.532 120.398 179.236 120.427C178.635 120.485 177.97 121.006 177.218 121.989C176.466 122.972 175.403 124.592 174.037 126.862C173.805 127.252 173.617 127.578 173.473 127.831C173.965 124.838 174.529 121.801 175.165 118.721C175.208 118.49 175.172 118.295 175.064 118.121C174.955 117.94 174.796 117.854 174.594 117.861C174.391 117.868 174.21 117.947 174.044 118.114C173.878 118.273 173.762 118.468 173.697 118.699C173.646 118.945 173.603 119.191 173.56 119.43L173.552 119.437C172.468 120.666 170.971 121.121 169.048 120.796C168.701 120.507 168.281 120.42 167.768 120.558C167.031 120.746 166.329 121.273 165.657 122.141C164.992 123.001 164.471 123.919 164.102 124.888C163.733 125.857 163.524 126.696 163.473 127.397C163.473 127.448 163.459 127.556 163.444 127.73C163.3 129.364 163.401 130.593 163.755 131.417C163.647 131.511 163.56 131.627 163.495 131.764C163.459 131.894 163.372 132.082 163.249 132.313C163.126 132.552 162.88 132.935 162.519 133.47C162.157 134.005 161.774 134.497 161.376 134.931C160.979 135.365 160.487 135.762 159.894 136.116C159.308 136.478 158.715 136.666 158.123 136.702C155.953 136.782 154.717 134.916 154.413 131.099C154.478 131.034 154.529 130.961 154.572 130.882C155.086 129.812 155.671 128.59 156.322 127.202C156.966 125.814 157.92 123.681 159.178 120.803C160.429 117.919 161.506 115.287 162.396 112.908C163.285 110.53 164.008 108.187 164.565 105.895C165.114 103.603 165.237 101.984 164.926 101.037C164.681 100.335 164.24 99.9448 163.603 99.8653C163.56 99.8581 163.517 99.8581 163.48 99.8653C162.649 99.9376 161.796 100.523 160.906 101.622C160.017 102.721 159.185 104.138 158.397 105.873C157.616 107.601 156.879 109.525 156.185 111.643C155.491 113.754 154.898 115.901 154.399 118.07C153.893 120.247 153.517 122.285 153.271 124.187C153.003 126.146 152.873 127.918 152.866 129.494C152.852 129.508 152.837 129.523 152.83 129.537C152.418 130.144 151.933 130.788 151.391 131.468C150.849 132.147 150.249 132.849 149.576 133.586C148.904 134.323 148.267 134.938 147.66 135.444C147.053 135.943 146.467 136.333 145.91 136.594C145.346 136.854 144.905 136.854 144.587 136.579C144.052 136.167 143.828 135.336 143.915 134.099C144.544 133.478 145.151 132.863 145.737 132.248C146.322 131.627 146.966 130.904 147.667 130.065C148.361 129.226 148.911 128.424 149.301 127.65C149.699 126.884 149.858 126.24 149.786 125.734C149.67 125.026 149.186 124.642 148.34 124.599C147.465 124.563 146.604 125.069 145.751 126.11C144.891 127.159 144.175 128.373 143.604 129.769C143.409 130.253 143.235 130.73 143.09 131.2C142.751 131.699 142.338 132.256 141.876 132.863C141.283 133.644 140.61 134.454 139.873 135.299C139.128 136.153 138.412 136.89 137.718 137.526C137.031 138.155 136.381 138.647 135.766 138.994C135.151 139.341 134.681 139.406 134.334 139.182C134.06 139.045 133.893 138.763 133.85 138.343C133.749 137.534 133.987 136.398 134.566 134.952C135.137 133.499 135.715 132.256 136.294 131.222C136.503 130.882 136.72 130.586 136.952 130.34C136.973 130.47 136.988 130.636 136.995 130.831C136.995 130.998 137.031 131.128 137.111 131.229C137.183 131.33 137.277 131.403 137.386 131.446C137.487 131.489 137.617 131.489 137.769 131.453C137.978 131.395 138.152 131.272 138.282 131.07C138.42 130.867 138.485 130.643 138.485 130.405C138.448 129.197 138.109 128.554 137.472 128.482C136.749 128.38 135.968 129.046 135.144 130.484C134.934 130.824 134.71 131.229 134.472 131.713C134.233 132.191 133.915 132.885 133.517 133.788C133.112 134.692 132.801 135.61 132.577 136.536C132.36 137.468 132.295 138.264 132.389 138.936C132.505 139.789 132.859 140.389 133.431 140.744C133.908 141.026 134.472 141.083 135.122 140.917C135.824 140.736 136.626 140.281 137.545 139.558C138.456 138.835 139.28 138.069 140.01 137.273C140.741 136.471 141.485 135.596 142.252 134.634C142.317 134.548 142.382 134.468 142.447 134.388C142.411 134.952 142.44 135.495 142.526 136.015C142.678 136.941 143.04 137.635 143.618 138.083C144.175 138.459 144.84 138.553 145.614 138.358C146.388 138.155 147.241 137.685 148.173 136.941C149.106 136.196 149.996 135.328 150.841 134.331C151.687 133.34 152.338 132.552 152.786 131.966C152.844 131.887 152.902 131.815 152.953 131.742C153.061 132.906 153.256 133.933 153.538 134.822C154.341 137.302 155.78 138.502 157.855 138.423C158.195 138.401 158.535 138.351 158.875 138.264C159.554 138.09 160.212 137.765 160.87 137.288C161.521 136.803 162.056 136.319 162.49 135.827C162.916 135.336 163.321 134.793 163.705 134.208C164.088 133.615 164.348 133.188 164.485 132.928C164.579 132.755 164.652 132.603 164.702 132.48C164.869 132.559 165.057 132.61 165.259 132.639C165.498 132.675 165.736 132.661 165.997 132.595C166.438 132.48 166.857 132.227 167.255 131.836C167.949 131.178 168.527 130.246 168.983 129.024C169.446 127.809 169.713 126.84 169.793 126.125C169.937 124.585 169.952 123.406 169.836 122.604C171.065 122.604 172.15 122.314 173.104 121.729C172.193 126.486 171.694 129.494 171.607 130.752C171.586 131.063 171.694 131.287 171.933 131.417C172.164 131.547 172.41 131.518 172.663 131.316C172.916 131.121 173.22 130.766 173.574 130.246C173.928 129.718 174.463 128.85 175.194 127.636C177.204 124.295 178.462 122.481 178.968 122.184C179.12 122.43 179.272 123.319 179.424 124.859C179.518 125.72 179.597 126.37 179.655 126.811C179.713 127.245 179.836 127.708 180.024 128.2C180.212 128.691 180.45 129.002 180.754 129.14C181.05 129.306 181.383 129.335 181.745 129.248C182.482 129.053 183.205 128.482 183.914 127.534C183.964 127.462 184.008 127.39 184.037 127.318C184.442 127.093 184.919 126.652 185.468 125.987C186.105 125.228 186.719 124.389 187.298 123.471C187.883 122.56 188.657 121.273 189.633 119.61C190.631 117.919 191.296 116.827 191.629 116.335C192.019 117.304 192.214 119.025 192.207 121.49C189.713 123.833 187.319 126.681 185.034 130.043C182.742 133.405 180.891 136.637 179.481 139.724C178.071 142.811 177.204 145.4 176.893 147.489C176.546 149.709 176.85 151.155 177.811 151.842C178.245 152.16 178.751 152.247 179.344 152.088C179.575 152.03 179.836 151.928 180.103 151.784C181.311 151.14 182.692 149.759 184.268 147.648C185.844 145.53 187.341 143.05 188.765 140.194C190.197 137.338 191.31 134.569 192.128 131.872C193.06 128.764 193.581 125.488 193.682 122.04C194.73 121.129 195.779 120.319 196.827 119.618C196.957 119.538 197.059 119.422 197.145 119.285C197.225 119.14 197.276 119.003 197.297 118.866C197.319 118.728 197.305 118.584 197.261 118.432ZM144.645 130.925C144.732 130.701 144.819 130.477 144.913 130.253C145.346 129.212 145.824 128.33 146.359 127.607C146.886 126.884 147.364 126.464 147.79 126.356C147.855 126.342 147.913 126.334 147.978 126.342C148.217 126.334 148.333 126.334 148.333 126.363C148.333 126.696 147.964 127.354 147.212 128.337C146.503 129.27 145.636 130.275 144.594 131.374C144.645 131.243 144.659 131.121 144.652 130.983C144.652 130.961 144.652 130.94 144.645 130.925ZM154.731 124.064C155.057 121.562 155.577 118.967 156.3 116.277C157.016 113.581 157.776 111.195 158.571 109.127C159.373 107.059 160.183 105.317 161.015 103.907C161.846 102.497 162.555 101.716 163.148 101.564L163.213 101.55C163.365 101.608 163.473 101.731 163.538 101.933C163.849 102.88 163.531 104.883 162.584 107.948C161.637 111.014 160.458 114.246 159.041 117.644C157.624 121.049 156.062 124.52 154.37 128.062C154.421 126.811 154.536 125.474 154.731 124.064ZM168.296 126.334C168.281 126.602 168.195 126.992 168.043 127.513C167.891 128.026 167.667 128.605 167.363 129.226C167.067 129.855 166.77 130.325 166.474 130.643C166.206 130.875 165.946 130.976 165.715 130.947C165.288 130.889 165.028 130.492 164.919 129.769C164.811 129.046 164.818 128.294 164.934 127.52C164.934 127.354 164.941 127.238 164.963 127.159C164.999 126.385 165.302 125.445 165.881 124.339C166.459 123.233 167.045 122.546 167.638 122.271C167.804 122.351 167.985 122.401 168.18 122.423C168.462 122.943 168.498 124.252 168.296 126.334ZM190.725 131.627C189.951 134.237 188.867 136.919 187.471 139.666C186.076 142.421 184.68 144.742 183.285 146.629C181.889 148.516 180.703 149.723 179.734 150.229C179.315 150.461 178.997 150.497 178.78 150.338C178.245 149.969 178.108 149.008 178.361 147.431C178.65 145.515 179.424 143.158 180.682 140.36C181.94 137.562 183.596 134.62 185.656 131.533C187.717 128.445 189.879 125.77 192.142 123.515C191.968 126.407 191.491 129.103 190.725 131.627Z" fill="#F9F8F4" stroke="#F9F8F4" stroke-width="0.5"/>
<path d="M138.065 183.654C124.573 183.654 111.891 178.398 102.354 168.862C102.094 168.601 102.094 168.182 102.354 167.929C102.614 167.669 103.034 167.669 103.287 167.929C112.578 177.22 124.927 182.331 138.065 182.331C149.916 182.331 161.362 178.058 170.291 170.301C170.566 170.062 170.986 170.091 171.224 170.366C171.463 170.64 171.434 171.06 171.159 171.298C161.984 179.266 150.234 183.654 138.065 183.654Z" fill="#F9F8F4" stroke="#F9F8F4" stroke-width="0.5"/>
<path d="M177.168 164.719C177.023 164.719 176.878 164.676 176.755 164.575C176.466 164.35 176.423 163.931 176.647 163.642C177.905 162.058 179.069 160.374 180.118 158.653C180.306 158.342 180.711 158.241 181.029 158.429C181.34 158.617 181.441 159.029 181.253 159.34C180.175 161.111 178.975 162.839 177.688 164.466C177.558 164.632 177.363 164.719 177.168 164.719Z" fill="#F9F8F4" stroke="#F9F8F4" stroke-width="0.5"/>
<path d="M180.812 108.173C180.588 108.173 180.371 108.057 180.241 107.855C171.253 92.903 155.483 83.974 138.065 83.974C127.979 83.974 118.283 87.0033 110.033 92.7367C109.729 92.9464 109.317 92.8741 109.114 92.5704C108.905 92.274 108.977 91.8547 109.281 91.6522C117.755 85.767 127.704 82.6509 138.065 82.6509C155.953 82.6509 172.15 91.8185 181.376 107.168C181.564 107.479 181.463 107.891 181.152 108.079C181.043 108.137 180.927 108.173 180.812 108.173Z" fill="#F9F8F4" stroke="#F9F8F4" stroke-width="0.5"/>
<path d="M95.1957 108.368C95.08 108.368 94.9644 108.339 94.8559 108.274C94.545 108.086 94.4365 107.681 94.6245 107.363C95.738 105.49 96.9889 103.668 98.341 101.948C98.5651 101.659 98.9845 101.615 99.2737 101.839C99.5629 102.063 99.6135 102.483 99.3822 102.772C98.0662 104.442 96.8515 106.221 95.7597 108.043C95.644 108.252 95.4271 108.368 95.1957 108.368Z" fill="#F9F8F4" stroke="#F9F8F4" stroke-width="0.5"/>
<path d="M109.816 159.665C109.671 159.665 109.534 159.607 109.433 159.491C109.259 159.282 109.281 158.971 109.49 158.79C116.157 153.172 123.612 148.762 131.645 145.682C147.826 139.479 162.801 140.05 172.518 141.626C172.786 141.669 172.974 141.922 172.931 142.197C172.887 142.465 172.634 142.653 172.359 142.609C162.765 141.055 147.978 140.491 131.999 146.615C124.067 149.659 116.714 154.011 110.127 159.549C110.04 159.629 109.924 159.665 109.816 159.665Z" fill="#F9F8F4" stroke="#F9F8F4" stroke-width="0.5"/>
<path d="M171.716 148.285C171.68 148.285 171.651 148.285 171.615 148.278C168.6 147.656 165.505 147.302 162.425 147.222C159.395 147.143 156.344 147.331 153.35 147.779C153.076 147.815 152.83 147.634 152.786 147.359C152.743 147.092 152.931 146.839 153.206 146.796C156.257 146.34 159.366 146.152 162.454 146.232C165.592 146.311 168.744 146.673 171.817 147.309C172.085 147.367 172.258 147.627 172.2 147.895C172.157 148.126 171.947 148.285 171.716 148.285Z" fill="#F9F8F4" stroke="#F9F8F4" stroke-width="0.5"/>
<path d="M173.588 89.7C173.299 89.7 173.003 89.6639 172.714 89.5916C170.754 89.1072 169.547 87.1262 170.031 85.1668C170.515 83.2075 172.497 82.0073 174.456 82.4845C176.416 82.9689 177.623 84.9499 177.139 86.9093C176.907 87.8564 176.314 88.6589 175.483 89.165C174.904 89.5193 174.254 89.7 173.588 89.7ZM171.434 85.5066C171.145 86.6924 171.875 87.8925 173.061 88.1817C173.632 88.3263 174.232 88.2323 174.738 87.9215C175.244 87.6178 175.599 87.1262 175.743 86.555C176.032 85.3693 175.302 84.1691 174.116 83.8799C172.923 83.5907 171.723 84.3209 171.434 85.5066Z" fill="#F9F8F4" stroke="#F9F8F4" stroke-width="0.5"/>
<path d="M120.568 194.289C119.664 194.289 118.753 193.956 118.044 193.284C116.584 191.896 116.526 189.568 117.921 188.107C118.594 187.399 119.505 186.994 120.481 186.972C121.464 186.943 122.39 187.305 123.091 187.985C123.8 188.657 124.204 189.568 124.226 190.544C124.248 191.52 123.894 192.445 123.214 193.154C122.498 193.913 121.529 194.289 120.568 194.289ZM119.042 192.236C119.924 193.074 121.327 193.046 122.173 192.156C122.578 191.73 122.794 191.166 122.78 190.573C122.766 189.98 122.52 189.431 122.093 189.026C121.667 188.614 121.095 188.389 120.51 188.418C119.917 188.433 119.367 188.679 118.962 189.105C118.116 189.987 118.153 191.397 119.042 192.236Z" fill="#F9F8F4" stroke="#F9F8F4" stroke-width="0.5"/>
<path d="M182.562 93.3082C182.395 93.3082 182.222 93.2865 182.048 93.2504C181.499 93.113 181.029 92.7732 180.739 92.2888C180.443 91.8044 180.356 91.2332 180.494 90.6837C180.776 89.5486 181.925 88.8473 183.06 89.1293C184.196 89.4112 184.897 90.5608 184.615 91.6959C184.478 92.2454 184.138 92.7153 183.653 93.0045C183.328 93.1997 182.945 93.3082 182.562 93.3082ZM181.904 91.0235C181.86 91.197 181.889 91.385 181.983 91.5369C182.077 91.6887 182.222 91.8044 182.402 91.8405C182.576 91.8839 182.764 91.855 182.916 91.761C183.068 91.667 183.176 91.5224 183.22 91.3416C183.306 90.9801 183.082 90.6114 182.721 90.5247C182.359 90.4307 181.99 90.6548 181.904 91.0235Z" fill="#F9F8F4" stroke="#F9F8F4" stroke-width="0.5"/>
<path d="M110.879 189.539C110.329 189.539 109.816 189.33 109.418 188.954C108.572 188.144 108.536 186.799 109.346 185.953C110.156 185.107 111.5 185.071 112.346 185.881C112.759 186.271 112.99 186.799 113.004 187.37C113.019 187.934 112.809 188.476 112.419 188.888C112.028 189.301 111.5 189.532 110.929 189.546C110.915 189.539 110.893 189.539 110.879 189.539ZM110.409 187.905C110.539 188.028 110.705 188.086 110.893 188.093C111.074 188.086 111.24 188.014 111.37 187.884C111.493 187.753 111.566 187.58 111.558 187.399C111.551 187.218 111.479 187.052 111.349 186.922C111.218 186.799 111.038 186.741 110.864 186.734C110.683 186.741 110.517 186.813 110.387 186.944C110.134 187.218 110.141 187.645 110.409 187.905Z" fill="#F9F8F4" stroke="#F9F8F4" stroke-width="0.5"/>
</svg>
