<svg width="276" height="276" viewBox="0 0 276 276" fill="none" xmlns="http://www.w3.org/2000/svg">
<path d="M160.747 136.846C160.666 138.169 160.605 139.495 160.564 140.822C160.557 141.077 160.237 141.181 160.081 140.979C157.775 137.981 155.746 135.349 154.773 134.055C154.639 133.88 154.372 133.912 154.283 134.114L153.436 136.037C153.338 136.26 153.03 136.269 152.919 136.055C152.316 134.887 150.853 132.155 149.978 131.396C148.844 130.425 143.698 120.514 142.734 120.03C141.766 119.544 139.517 125.226 139.032 125.872C138.549 126.524 138.143 128.309 137.506 129.366C136.984 130.225 135.191 132.305 134.536 133.064C134.411 133.207 134.184 133.185 134.08 133.028L132.13 130.045C132.121 130.027 132.112 130.009 132.103 129.991C132.01 129.745 131.287 127.87 130.988 127.42C130.661 126.929 126.723 132.778 126.723 132.778C126.723 132.778 125.68 134.401 125.036 134.808C124.39 135.21 123.989 135.21 123.426 136.024C122.953 136.699 121.08 139.306 120.477 140.147C120.375 140.286 120.177 140.304 120.048 140.192L117.863 138.185C117.738 138.069 117.536 138.092 117.434 138.226C117.11 138.656 116.806 139.065 116.52 139.465C116.366 139.681 116.031 139.565 116.033 139.301C116.047 137.61 116.058 136.299 116.062 135.965C116.099 131.314 116.108 126.661 116.099 122.01C116.085 117.355 116.049 112.702 115.992 108.051C115.988 107.565 115.979 107.076 115.974 106.589C115.965 106.205 115.863 105.678 115.988 105.314C116.108 104.957 116.389 105.014 116.711 105.046C117.194 105.101 117.67 105.148 118.148 105.198C120.066 105.387 121.989 105.53 123.912 105.489C126.737 105.426 129.546 104.98 132.371 105.064C134.511 105.132 136.631 105.507 138.771 105.544C140.204 105.566 141.626 105.441 143.049 105.321C148.761 104.844 154.524 104.475 160.215 105.146C160.344 105.162 160.446 105.266 160.457 105.396C160.87 110.224 160.879 115.086 160.487 119.919C160.312 122.035 160.063 124.154 160.255 126.265C160.38 127.638 160.693 128.984 160.836 130.352C161.065 132.505 160.881 134.682 160.747 136.846Z" fill="#F9F8F4"/>
<path d="M209.747 134.164C209.704 134.242 209.67 134.319 209.642 134.396C209.565 134.628 209.488 134.853 209.411 135.074C209.318 135.326 209.225 135.58 209.121 135.828C208.391 137.649 206.779 139.761 205.709 141.418C205.659 141.495 205.611 141.572 205.561 141.647C205.339 142.002 204.872 142.091 204.525 141.857C204.083 141.554 203.587 141.266 203.024 141.038C200.862 140.159 199.331 140.159 198.059 139.658C196.787 139.152 196.533 139.531 194.624 137.385C192.715 135.246 191.82 132.725 189.149 131.971C186.476 131.212 185.841 129.077 184.567 128.191C183.293 127.311 181.638 123.91 181.005 124.038C180.434 124.145 175.423 130.648 174.333 132.071C174.21 132.23 174.033 132.33 173.834 132.35C173.437 132.389 172.702 132.575 172.088 133.357C171.199 134.492 171.199 136.758 170.052 137.89C168.905 139.024 169.29 138.649 166.744 141.036C166.531 141.234 166.332 141.427 166.146 141.613C166.134 141.466 166.118 141.311 166.103 141.156C165.844 138.829 165.604 136.547 165.69 134.203C165.871 129.489 166.205 124.779 166.359 120.06C166.497 115.729 166.007 111.483 166.007 107.176C166.007 106.003 166.955 105.053 168.125 105.053H182.594C182.744 105.053 182.891 105.071 183.037 105.103C186.954 105.973 191.618 104.616 195.216 106.13C196.533 106.68 197.774 107.73 198.987 108.478C201.401 109.958 203.569 110.767 205.439 112.995C205.763 113.375 206.115 113.704 206.455 114.072C208.201 115.948 209.604 119.96 210.164 122.424C210.361 123.31 210.511 124.201 210.608 125.104C210.701 126.018 210.642 126.963 210.821 127.866C211.261 130.098 210.883 132.2 209.747 134.164Z" fill="#F9F8F4"/>
<path d="M109.846 129.577C109.823 130.991 109.889 132.405 109.9 133.824C109.905 135.249 109.746 136.629 109.637 138.049C109.528 139.525 109.703 140.997 109.841 142.461C109.868 142.741 109.896 143.023 109.911 143.302L107.474 140.7C107.347 140.568 107.157 140.518 106.98 140.579L105.268 141.152C105.098 141.213 104.912 141.163 104.785 141.036L102.287 138.52C102.257 138.477 102.21 138.406 102.178 138.361L95.9499 124.42C95.8116 124.106 95.3967 124.045 95.1654 124.299L92.8234 126.934C92.8143 126.945 92.8007 126.963 92.7916 126.975L90.2093 130.982C90.1775 131.016 90.148 131.053 90.1186 131.087L85.2984 135.212C85.278 135.235 85.244 135.269 85.2236 135.292L82.1334 139.359C82.079 139.424 82.0132 139.479 81.9293 139.513L78.0433 141.075C77.9866 141.111 77.9322 141.148 77.8755 141.186L74.8896 144.134C74.7808 144.243 74.6266 144.293 74.477 144.266L72.8695 143.98H72.8672C71.16 142.441 68.9313 141.766 67.9315 139.54C67.3987 138.358 67.0268 137.088 66.6255 135.849C65.7753 133.226 65.1156 130.589 65.0067 127.816C64.8435 123.729 65.7731 119.405 68.6184 116.298C69.251 115.607 69.743 114.802 70.1465 113.957C70.761 112.672 71.5341 111.69 72.5226 110.717C74.3976 108.869 76.5311 107.162 79.0454 106.317C81.7774 105.392 84.6863 105.117 87.611 105.051C90.1526 104.989 92.7032 105.089 95.1609 105.055C96.5598 105.032 97.9428 105.11 99.3303 105.287C100.849 105.485 102.287 105.492 103.808 105.337C105.141 105.205 106.474 105.182 107.808 105.073C108.445 105.019 109.696 104.644 109.887 105.53C109.98 105.937 109.898 106.394 109.853 106.808C109.803 107.296 109.803 107.787 109.798 108.283C109.775 110.224 110.351 112.14 110.265 114.066C110.165 116.309 109.875 118.455 109.887 120.717C109.9 123.667 109.877 126.622 109.846 129.577Z" fill="#F9F8F4"/>
<path d="M92.9354 171.775V168.562L91.6859 170.954H91.1737L89.927 168.562V171.775H88.9871V166.922H89.9974L91.4298 169.685L92.8735 166.922H93.8753V171.775H92.9354Z" fill="#F9F8F4"/>
<path d="M100.908 171.809C100.553 171.809 100.233 171.738 99.9427 171.6C99.6557 171.462 99.4052 171.275 99.1998 171.047C98.9915 170.818 98.8311 170.553 98.7185 170.257C98.606 169.961 98.5469 169.659 98.5469 169.348C98.5469 169.024 98.606 168.714 98.727 168.42C98.848 168.124 99.014 167.861 99.2251 167.633C99.4362 167.404 99.6866 167.224 99.9793 167.088C100.272 166.953 100.587 166.885 100.928 166.885C101.277 166.885 101.597 166.959 101.885 167.1C102.172 167.244 102.419 167.433 102.625 167.664C102.83 167.895 102.988 168.161 103.1 168.457C103.213 168.753 103.269 169.055 103.269 169.36C103.269 169.684 103.21 169.992 103.092 170.285C102.974 170.579 102.808 170.838 102.599 171.064C102.391 171.29 102.138 171.47 101.848 171.603C101.564 171.741 101.249 171.809 100.908 171.809ZM99.5037 169.348C99.5037 169.557 99.5347 169.76 99.5994 169.958C99.6641 170.153 99.7542 170.327 99.8752 170.477C99.9962 170.627 100.143 170.748 100.32 170.838C100.494 170.928 100.694 170.974 100.916 170.974C101.144 170.974 101.344 170.928 101.521 170.835C101.696 170.742 101.845 170.618 101.963 170.463C102.084 170.308 102.174 170.133 102.236 169.941C102.298 169.746 102.329 169.552 102.329 169.348C102.329 169.14 102.295 168.936 102.231 168.739C102.166 168.544 102.07 168.369 101.952 168.22C101.831 168.07 101.685 167.949 101.507 167.861C101.333 167.771 101.136 167.729 100.916 167.729C100.688 167.729 100.486 167.774 100.309 167.87C100.131 167.963 99.9821 168.087 99.8639 168.24C99.7457 168.392 99.6557 168.567 99.5966 168.759C99.5347 168.951 99.5037 169.148 99.5037 169.348Z" fill="#F9F8F4"/>
<path d="M109.998 170.974C110.22 170.974 110.409 170.929 110.561 170.838C110.713 170.748 110.836 170.63 110.929 170.483C111.022 170.336 111.09 170.17 111.126 169.981C111.166 169.792 111.185 169.597 111.185 169.397V166.922H112.12V169.397C112.12 169.73 112.08 170.04 112.001 170.333C111.923 170.624 111.796 170.881 111.627 171.098C111.458 171.315 111.239 171.49 110.969 171.617C110.701 171.744 110.38 171.809 110.006 171.809C109.621 171.809 109.291 171.741 109.021 171.606C108.751 171.47 108.532 171.293 108.363 171.073C108.194 170.853 108.073 170.596 107.997 170.305C107.924 170.012 107.884 169.71 107.884 169.394V166.919H108.824V169.394C108.824 169.6 108.844 169.797 108.883 169.986C108.923 170.175 108.987 170.345 109.08 170.489C109.173 170.635 109.297 170.751 109.446 170.841C109.595 170.932 109.781 170.974 109.998 170.974Z" fill="#F9F8F4"/>
<path d="M117.965 168.663V171.775H117.025V166.922H117.754L120.278 170.107V166.928H121.218V171.775H120.455L117.965 168.663Z" fill="#F9F8F4"/>
<path d="M129.801 167.749H128.253V171.775H127.319V167.749H125.771V166.922H129.801V167.749Z" fill="#F9F8F4"/>
<path d="M143.658 170.525C143.658 170.731 143.616 170.911 143.535 171.064C143.453 171.219 143.34 171.349 143.197 171.453C143.053 171.558 142.887 171.637 142.699 171.693C142.51 171.749 142.31 171.775 142.097 171.775H139.758V166.922H142.35C142.519 166.922 142.671 166.959 142.809 167.032C142.944 167.105 143.062 167.198 143.155 167.317C143.25 167.433 143.324 167.565 143.377 167.715C143.428 167.861 143.456 168.011 143.456 168.163C143.456 168.4 143.397 168.623 143.279 168.829C143.16 169.038 142.986 169.19 142.758 169.292C143.036 169.374 143.256 169.52 143.416 169.732C143.58 169.941 143.658 170.206 143.658 170.525ZM140.701 167.729V168.953H141.956C142.113 168.953 142.249 168.9 142.361 168.79C142.474 168.68 142.527 168.53 142.527 168.338C142.527 168.152 142.476 168.003 142.375 167.892C142.271 167.782 142.147 167.729 141.995 167.729H140.701ZM142.71 170.344C142.71 170.257 142.696 170.175 142.665 170.096C142.634 170.017 142.595 169.947 142.547 169.887C142.496 169.828 142.437 169.783 142.37 169.746C142.302 169.712 142.226 169.695 142.144 169.695H140.701V170.974H142.099C142.187 170.974 142.265 170.959 142.341 170.926C142.417 170.895 142.482 170.849 142.536 170.793C142.592 170.737 142.634 170.669 142.665 170.59C142.696 170.514 142.71 170.435 142.71 170.344Z" fill="#F9F8F4"/>
<path d="M148.353 171.775V166.922H149.293V170.948H151.761V171.775H148.353Z" fill="#F9F8F4"/>
<path d="M157.668 166.922H158.501L160.341 171.775H159.373L158.923 170.564H157.231L156.787 171.775H155.819L157.668 166.922ZM158.751 169.901L158.084 167.994L157.389 169.901H158.751Z" fill="#F9F8F4"/>
<path d="M165.77 168.663V171.775H164.83V166.922H165.558L168.083 170.107V166.928H169.023V171.775H168.26L165.77 168.663Z" fill="#F9F8F4"/>
<path d="M173.692 169.314C173.692 169.018 173.745 168.725 173.852 168.437C173.959 168.146 174.114 167.89 174.319 167.661C174.525 167.433 174.775 167.249 175.07 167.108C175.366 166.967 175.701 166.896 176.081 166.896C176.528 166.896 176.911 166.995 177.237 167.19C177.564 167.385 177.803 167.641 177.963 167.955L177.24 168.454C177.175 168.318 177.099 168.203 177.007 168.11C176.917 168.017 176.818 167.943 176.714 167.887C176.61 167.83 176.5 167.791 176.388 167.768C176.272 167.743 176.162 167.732 176.053 167.732C175.816 167.732 175.611 167.78 175.436 167.876C175.262 167.971 175.115 168.096 175 168.248C174.885 168.4 174.797 168.575 174.738 168.767C174.679 168.962 174.648 169.154 174.648 169.345C174.648 169.56 174.682 169.766 174.752 169.963C174.82 170.161 174.916 170.336 175.042 170.485C175.166 170.635 175.318 170.756 175.493 170.849C175.667 170.94 175.861 170.985 176.07 170.985C176.179 170.985 176.292 170.971 176.413 170.942C176.531 170.914 176.644 170.872 176.751 170.813C176.857 170.753 176.956 170.677 177.049 170.584C177.139 170.491 177.212 170.378 177.268 170.245L178.039 170.691C177.963 170.872 177.851 171.035 177.71 171.174C177.567 171.312 177.406 171.428 177.226 171.526C177.046 171.622 176.855 171.696 176.649 171.744C176.444 171.794 176.244 171.82 176.05 171.82C175.704 171.82 175.388 171.746 175.101 171.6C174.814 171.453 174.567 171.264 174.361 171.03C174.153 170.796 173.993 170.528 173.877 170.231C173.751 169.927 173.692 169.625 173.692 169.314Z" fill="#F9F8F4"/>
<path d="M184.639 171.809C184.284 171.809 183.964 171.738 183.674 171.6C183.387 171.462 183.136 171.275 182.931 171.047C182.722 170.818 182.562 170.553 182.449 170.257C182.337 169.961 182.278 169.659 182.278 169.348C182.278 169.024 182.337 168.714 182.458 168.42C182.579 168.124 182.745 167.861 182.956 167.633C183.167 167.404 183.418 167.224 183.71 167.088C184.003 166.953 184.318 166.885 184.659 166.885C185.008 166.885 185.328 166.959 185.615 167.1C185.903 167.244 186.15 167.433 186.356 167.664C186.561 167.895 186.719 168.161 186.831 168.457C186.944 168.753 187 169.055 187 169.36C187 169.684 186.941 169.992 186.823 170.285C186.705 170.579 186.539 170.838 186.33 171.064C186.122 171.29 185.869 171.47 185.579 171.603C185.297 171.741 184.979 171.809 184.639 171.809ZM183.235 169.348C183.235 169.557 183.266 169.76 183.33 169.958C183.395 170.153 183.485 170.327 183.606 170.477C183.727 170.627 183.873 170.748 184.051 170.838C184.225 170.928 184.425 170.974 184.647 170.974C184.875 170.974 185.075 170.928 185.252 170.835C185.427 170.742 185.576 170.618 185.694 170.463C185.815 170.308 185.905 170.133 185.967 169.941C186.029 169.746 186.06 169.552 186.06 169.348C186.06 169.14 186.026 168.936 185.962 168.739C185.897 168.544 185.801 168.369 185.683 168.22C185.562 168.07 185.416 167.949 185.238 167.861C185.064 167.771 184.867 167.729 184.647 167.729C184.419 167.729 184.217 167.774 184.04 167.87C183.862 167.963 183.713 168.087 183.595 168.24C183.477 168.392 183.387 168.567 183.328 168.759C183.266 168.951 183.235 169.148 183.235 169.348Z" fill="#F9F8F4"/>
<path d="M139.317 151.634L142.29 152.039L140.166 154.197L140.707 157.201L138.038 155.812L135.399 157.262L135.871 154.246L133.701 152.14L136.663 151.665L137.96 148.912L139.317 151.634Z" fill="#F9F8F4"/>
</svg>
