<svg width="276" height="276" viewBox="0 0 276 276" fill="none" xmlns="http://www.w3.org/2000/svg">
<path d="M84.722 107.256H92.529V119.71C92.8491 119.423 93.2813 119.073 93.8256 118.657C94.37 118.242 95.0511 117.842 95.8663 117.459C96.6815 117.076 97.6498 116.74 98.7714 116.453C99.8902 116.165 101.187 116.02 102.661 116.02C104.806 116.02 106.669 116.373 108.253 117.073C109.836 117.776 111.149 118.709 112.189 119.875C113.228 121.04 113.997 122.375 114.492 123.874C114.987 125.376 115.236 126.924 115.236 128.521C115.236 130.245 114.949 131.916 114.372 133.527C113.795 135.141 112.938 136.569 111.803 137.814C110.668 139.059 109.267 140.057 107.601 140.809C105.938 141.559 104.032 141.933 101.89 141.933C100.642 141.933 99.5291 141.813 98.5525 141.575C97.576 141.334 96.7034 141.047 95.9347 140.713C95.166 140.377 94.5013 140.027 93.9433 139.66C93.3825 139.294 92.912 138.965 92.5263 138.678V141.075H84.722V107.256ZM99.499 121.53C98.6018 121.595 97.7292 121.778 96.8784 122.079C96.0304 122.383 95.2672 122.837 94.5943 123.444C93.9214 124.052 93.3852 124.809 92.9831 125.72C92.5837 126.631 92.384 127.709 92.384 128.954C92.384 129.689 92.4387 130.327 92.5509 130.868C92.6631 131.413 92.808 131.875 92.9831 132.258C93.1609 132.641 93.336 132.945 93.5111 133.169C93.6861 133.393 93.8229 133.552 93.9186 133.648C94.3344 134.159 94.8159 134.583 95.3602 134.917C95.9046 135.253 96.449 135.516 96.9933 135.708C97.5377 135.899 98.0656 136.036 98.5799 136.115C99.0914 136.194 99.5565 136.235 99.975 136.235C100.872 136.235 101.745 136.091 102.593 135.803C103.441 135.516 104.196 135.078 104.852 134.485C105.509 133.894 106.037 133.136 106.439 132.209C106.838 131.282 107.041 130.182 107.041 128.904C107.041 127.756 106.863 126.678 106.513 125.671C106.16 124.664 105.553 123.795 104.688 123.061C104.048 122.52 103.277 122.112 102.382 121.839C101.488 121.571 100.525 121.467 99.499 121.53Z" fill="#F9F8F4"/>
<path d="M127.502 116.836V141.075H119.692V116.836H127.502Z" fill="#F9F8F4"/>
<path d="M133.679 116.836H141.489V120.321C141.806 119.998 142.23 119.596 142.758 119.112C143.286 118.627 143.961 118.171 144.793 117.736C145.622 117.301 146.645 116.923 147.86 116.6C149.071 116.278 150.51 116.116 152.171 116.116C153.64 116.116 154.909 116.261 155.978 116.548C157.048 116.836 157.951 117.172 158.684 117.555C159.417 117.938 160.002 118.321 160.432 118.704C160.861 119.087 161.157 119.374 161.318 119.566C161.827 120.173 162.229 120.81 162.516 121.483C162.803 122.153 163.02 122.832 163.162 123.518C163.307 124.205 163.394 124.9 163.424 125.603C163.454 126.306 163.471 126.992 163.471 127.663V141.124L155.568 141.075V128.699C155.568 128.254 155.552 127.783 155.519 127.291C155.486 126.796 155.407 126.303 155.278 125.811C155.15 125.316 154.958 124.84 154.704 124.377C154.447 123.915 154.096 123.494 153.651 123.111C153.235 122.761 152.668 122.443 151.949 122.156C151.23 121.869 150.201 121.727 148.858 121.727C147.739 121.727 146.765 121.847 145.936 122.085C145.105 122.326 144.435 122.588 143.923 122.873C143.379 123.193 142.941 123.568 142.605 123.997C142.271 124.427 142.022 124.872 141.863 125.335C141.702 125.797 141.601 126.268 141.552 126.746C141.502 127.225 141.48 127.654 141.48 128.035V141.08H133.671V116.836H133.679Z" fill="#F9F8F4"/>
<path d="M169.656 124.788H183.213V130.68H169.656V124.788Z" fill="#F9F8F4"/>
<path d="M81.5899 158.933H95.1469V164.825H81.5899V158.933Z" fill="#F9F8F4"/>
<path d="M130.021 172.249C130.084 172.889 130.172 173.398 130.284 173.781C130.396 174.164 130.675 174.642 131.121 175.217H122.592C122.4 174.642 122.283 174.156 122.234 173.756C122.184 173.357 122.146 172.982 122.113 172.632C121.473 173.015 120.8 173.398 120.097 173.781C119.394 174.164 118.609 174.508 117.745 174.809C116.88 175.113 115.92 175.359 114.864 175.551C113.808 175.742 112.607 175.838 111.264 175.838C110.304 175.838 109.352 175.789 108.409 175.693C107.465 175.597 106.529 175.422 105.599 175.165C103.87 174.686 102.44 173.825 101.302 172.577C100.167 171.333 99.5975 169.735 99.5975 167.787C99.5975 165.873 100.022 164.387 100.87 163.331C101.718 162.278 102.845 161.504 104.253 161.009C105.662 160.514 107.262 160.218 109.054 160.123C110.846 160.027 112.703 159.964 114.624 159.931H122.113C122.113 159.42 122.089 158.903 122.042 158.375C121.993 157.847 121.763 157.376 121.347 156.96C120.932 156.545 120.253 156.211 119.312 155.954C118.371 155.699 117.036 155.571 115.313 155.571C114.643 155.571 113.964 155.595 113.278 155.642C112.591 155.691 111.943 155.787 111.338 155.929C110.731 156.074 110.211 156.296 109.782 156.599C109.35 156.903 109.054 157.294 108.895 157.773H100.894C100.957 157.423 101.045 157.015 101.157 156.55C101.269 156.088 101.452 155.617 101.707 155.136C101.961 154.657 102.306 154.162 102.738 153.65C103.17 153.139 103.736 152.66 104.439 152.214C105.268 151.703 106.204 151.303 107.24 151.016C108.277 150.729 109.317 150.521 110.353 150.392C111.39 150.264 112.372 150.185 113.3 150.152C114.227 150.122 114.976 150.103 115.551 150.103C117.977 150.103 120.021 150.248 121.676 150.535C123.331 150.822 124.693 151.23 125.757 151.755C126.821 152.283 127.647 152.89 128.232 153.577C128.818 154.263 129.239 155.007 129.494 155.803C129.748 156.602 129.898 157.431 129.945 158.295C129.994 159.157 130.016 160.005 130.016 160.834V172.249H130.021ZM122.116 164.01C119.487 164.01 117.244 164.026 115.387 164.059C113.529 164.092 112.038 164.234 110.917 164.491C110.756 164.524 110.518 164.587 110.195 164.683C109.875 164.778 109.546 164.94 109.21 165.161C108.874 165.386 108.575 165.689 108.321 166.072C108.064 166.455 107.938 166.934 107.938 167.508C107.938 168.274 108.162 168.865 108.611 169.281C109.06 169.697 109.587 170.009 110.198 170.214C110.805 170.422 111.398 170.542 111.976 170.572C112.553 170.605 112.969 170.621 113.226 170.621C114.057 170.621 114.875 170.542 115.677 170.381C116.478 170.222 117.239 169.981 117.961 169.661C118.68 169.341 119.331 168.958 119.908 168.512C120.486 168.066 120.967 167.555 121.35 166.98C121.733 166.439 121.949 165.944 121.998 165.495C122.045 165.049 122.086 164.554 122.116 164.01Z" fill="#F9F8F4"/>
<path d="M144.057 155.146C144.344 154.7 144.703 154.197 145.135 153.636C145.567 153.078 146.166 152.542 146.932 152.03C147.698 151.519 148.664 151.089 149.829 150.737C150.994 150.386 152.455 150.195 154.211 150.162V157.299C153.858 157.269 153.533 157.244 153.229 157.228C152.926 157.211 152.565 157.203 152.151 157.203C151.99 157.203 151.711 157.211 151.312 157.228C150.912 157.244 150.464 157.285 149.971 157.348C149.476 157.414 148.956 157.515 148.415 157.66C147.87 157.805 147.362 158.005 146.883 158.259C145.668 158.899 144.894 159.673 144.561 160.582C144.227 161.492 144.057 162.474 144.057 163.528V175.216H136.152V150.977H144.057V155.146Z" fill="#F9F8F4"/>
<path d="M156.452 150.979H164.882L170.63 166.068C170.758 166.484 170.87 166.826 170.966 167.097C171.062 167.368 171.141 167.633 171.207 167.887C171.27 168.145 171.335 168.415 171.398 168.703C171.461 168.99 171.527 169.343 171.59 169.756C171.62 169.31 171.661 168.935 171.71 168.632C171.759 168.328 171.814 168.041 171.877 167.77C171.94 167.499 172.022 167.22 172.118 166.933C172.213 166.646 172.342 166.279 172.501 165.83L178.007 150.979H186.342L174.941 176.8C174.238 178.269 173.6 179.497 173.023 180.487C172.449 181.477 171.784 182.268 171.034 182.859C170.285 183.45 169.39 183.874 168.351 184.128C167.312 184.382 165.979 184.511 164.352 184.511C163.394 184.511 162.429 184.486 161.455 184.44C160.481 184.391 159.499 184.336 158.509 184.273V178.526C159.05 178.589 159.69 178.646 160.424 178.693C161.157 178.742 161.843 178.764 162.483 178.764C163.249 178.764 163.824 178.714 164.209 178.619C164.592 178.523 164.88 178.427 165.071 178.332C165.263 178.236 165.421 178.132 165.55 178.02C165.676 177.908 165.821 177.749 165.982 177.541C166.141 177.333 166.324 177.046 166.532 176.679C166.74 176.313 166.986 175.823 167.273 175.219L156.452 150.979Z" fill="#F9F8F4"/>
<path d="M188.881 169.096H191.365C191.466 169.096 191.567 169.098 191.663 169.107C191.761 169.115 191.854 169.131 191.947 169.159C192.04 169.186 192.128 169.224 192.21 169.276C192.295 169.328 192.374 169.397 192.448 169.481C192.541 169.591 192.601 169.708 192.634 169.832C192.667 169.957 192.683 170.072 192.683 170.176C192.683 170.316 192.658 170.458 192.606 170.606C192.554 170.753 192.464 170.874 192.336 170.972C192.237 171.046 192.133 171.101 192.021 171.131C191.909 171.161 191.819 171.183 191.748 171.197L192.842 172.704H191.778L190.812 171.251H189.783V172.704H188.878V169.096H188.881ZM189.786 170.614H191.228C191.274 170.614 191.332 170.611 191.395 170.603C191.458 170.597 191.518 170.578 191.572 170.548C191.63 170.518 191.676 170.477 191.712 170.42C191.75 170.362 191.769 170.283 191.769 170.182C191.769 170.143 191.767 170.1 191.756 170.045C191.748 169.993 191.728 169.944 191.698 169.897C191.682 169.878 191.66 169.856 191.638 169.834C191.616 169.812 191.586 169.793 191.548 169.777C191.51 169.76 191.463 169.749 191.406 169.739C191.348 169.728 191.274 169.722 191.187 169.722H189.786V170.614Z" fill="#F9F8F4"/>
<path d="M190.694 166.612C188.323 166.612 186.391 168.541 186.391 170.915C186.391 173.29 188.323 175.218 190.694 175.218C193.069 175.218 195 173.29 195 170.915C195 168.541 193.069 166.612 190.694 166.612ZM190.694 174.614C188.656 174.614 186.999 172.953 186.999 170.915C186.999 168.877 188.656 167.217 190.694 167.217C192.735 167.217 194.393 168.877 194.393 170.915C194.393 172.953 192.735 174.614 190.694 174.614Z" fill="#F9F8F4"/>
<path d="M132.812 101.681C132.812 101.755 132.757 101.817 132.686 101.834C128.12 102.6 124.515 106.202 123.749 110.768C123.733 110.839 123.67 110.891 123.596 110.891C123.522 110.891 123.456 110.839 123.443 110.768C122.677 106.211 119.088 102.613 114.533 101.837C114.522 101.837 114.509 101.834 114.498 101.834C114.429 101.815 114.38 101.755 114.38 101.681C114.38 101.607 114.429 101.547 114.498 101.527C114.509 101.527 114.522 101.525 114.533 101.525C119.088 100.748 122.68 97.148 123.443 92.5907C123.459 92.5196 123.522 92.4648 123.596 92.4648C123.67 92.4648 123.733 92.5196 123.749 92.5907C124.515 97.1562 128.12 100.762 132.686 101.527C132.757 101.544 132.812 101.607 132.812 101.681Z" fill="#EF0000"/>
</svg>
