<svg width="276" height="276" viewBox="0 0 276 276" fill="none" xmlns="http://www.w3.org/2000/svg">
<g clip-path="url(#clip0)">
<path d="M162.2 116.357H168.602C174.081 116.357 178.637 112.214 178.983 106.915C179.161 104.088 178.202 101.394 176.275 99.3309C174.365 97.2949 171.684 96.1302 168.904 96.1302H163.372C163.141 95.2411 162.661 94.4321 161.942 93.703L156.836 88.5997C154.696 86.457 151.206 86.457 149.03 88.6352C147.991 89.6844 147.414 91.0713 147.423 92.5561C147.432 94.032 148.018 95.4189 149.066 96.4503C149.59 96.9571 150.14 97.5083 150.717 98.0773C149.27 99.4109 148.364 101.322 148.364 103.438V121.025H137.708C131.119 121.025 124.734 124.234 121.439 129.204C118.811 133.169 118.82 137.517 118.837 141.722V178.371H102.018C99.3453 178.371 97.1518 180.371 97.0098 182.932C96.9476 184.265 97.4094 185.537 98.324 186.506C99.2298 187.457 100.5 187.999 101.814 187.999H126.945C129.023 187.999 130.719 186.31 130.719 184.221V159.744C131.802 160.811 133.152 161.7 134.751 162.385V184.123C134.751 186.266 136.482 187.999 138.623 187.999H165.752C168.407 187.999 170.565 185.839 170.565 183.189C170.565 180.531 168.407 178.371 165.752 178.371H147.769V162.909C152.467 162.74 156.276 161.113 159.074 158.073C163.931 152.827 164.313 144.932 164.269 141.998H166.853L170.014 145.163C170.92 146.07 172.119 146.568 173.397 146.568C174.676 146.568 175.875 146.07 176.781 145.163C177.687 144.256 178.184 143.056 178.184 141.776C178.184 140.496 177.687 139.295 176.781 138.388L171.568 133.178C170.778 132.378 169.721 131.943 168.602 131.943H161.684V116.873C161.684 116.588 161.915 116.357 162.2 116.357ZM150.931 94.5476C150.389 94.0142 150.087 93.3029 150.087 92.5383C150.087 91.7826 150.38 91.0624 150.948 90.4845C152.023 89.4176 153.888 89.4176 154.953 90.4845L160.051 95.5968C160.228 95.7746 160.37 95.9435 160.495 96.1302H155.664C154.74 96.1302 153.852 96.2991 153.044 96.6192C152.316 95.9079 151.588 95.1967 150.931 94.5476ZM156.028 134.61H168.602C169.011 134.61 169.393 134.77 169.686 135.063L174.898 140.273C175.298 140.673 175.52 141.207 175.52 141.776C175.52 142.345 175.298 142.878 174.898 143.278C174.099 144.079 172.696 144.079 171.897 143.278L168.345 139.722C168.096 139.473 167.759 139.331 167.403 139.331H162.866C162.137 139.331 161.534 139.927 161.534 140.664C161.534 140.762 161.551 140.869 161.578 140.967C161.578 140.976 161.578 140.976 161.578 140.985V141.065C161.587 141.162 162.244 150.729 157.111 156.277C155.912 157.566 154.491 158.544 152.849 159.202C153.044 159.015 153.222 158.82 153.399 158.624C155.051 156.775 156.125 154.605 156.498 152.365C157.076 148.915 156.196 145.368 154.03 142.389C151.65 139.117 148.044 136.913 144.128 136.343C142.672 136.121 141.198 136.148 139.75 136.397C138.356 136.637 136.935 137.09 135.523 137.748C134.857 138.051 134.564 138.851 134.875 139.518C135.177 140.184 135.967 140.469 136.642 140.167C137.841 139.606 139.04 139.224 140.203 139.02C141.375 138.824 142.565 138.806 143.738 138.975C146.952 139.446 149.918 141.269 151.881 143.954C153.621 146.355 154.332 149.182 153.87 151.92C153.577 153.663 152.733 155.37 151.41 156.837C150.424 157.939 149.199 158.926 147.769 159.771C147.458 159.949 147.148 160.118 146.846 160.269C146.704 160.34 146.57 160.411 146.428 160.473C146.295 160.527 146.135 160.589 145.984 160.66C145.984 160.66 145.966 160.66 145.966 160.669C145.522 160.882 145.105 161.229 145.105 161.922V179.704C145.105 180.442 145.709 181.038 146.437 181.038H165.752C166.942 181.038 167.901 181.998 167.901 183.189C167.901 184.372 166.942 185.332 165.752 185.332H138.623C137.956 185.332 137.415 184.79 137.415 184.123V161.478C137.415 160.918 137.06 160.42 136.536 160.224C133.694 159.184 131.758 157.486 130.772 155.201C130.746 155.13 130.719 155.068 130.692 154.996C130.692 154.988 130.692 154.988 130.692 154.988C130.639 154.872 130.595 154.756 130.559 154.641C128.979 150.133 131.208 144.879 131.234 144.825C131.527 144.15 131.216 143.358 130.542 143.065C129.867 142.772 129.085 143.083 128.792 143.758C128.677 144.025 126.101 150.044 128.055 155.557V184.221C128.055 184.834 127.549 185.332 126.945 185.332H101.814C101.219 185.332 100.668 185.101 100.26 184.665C99.8514 184.238 99.6472 183.669 99.6738 183.074C99.736 181.954 100.784 181.038 102.018 181.038H120.169C120.906 181.038 121.501 180.442 121.501 179.704V141.714C121.484 137.73 121.475 133.97 123.659 130.68C126.474 126.439 131.989 123.692 137.708 123.692H149.696C150.433 123.692 151.028 123.096 151.028 122.358V103.438C151.028 100.878 153.106 98.7975 155.664 98.7975H168.904C170.982 98.7975 172.909 99.6332 174.33 101.154C175.751 102.674 176.452 104.657 176.319 106.746C176.07 110.64 172.678 113.69 168.602 113.69H162.2C160.45 113.69 159.02 115.121 159.02 116.873V131.943H156.028C155.291 131.943 154.696 132.538 154.696 133.276C154.696 134.014 155.291 134.61 156.028 134.61Z" fill="#F9F8F4"/>
</g>
<defs>
<clipPath id="clip0">
<rect width="82" height="101" fill="white" transform="translate(97 87)"/>
</clipPath>
</defs>
</svg>
