<svg width="276" height="276" viewBox="0 0 276 276" fill="none" xmlns="http://www.w3.org/2000/svg">
<path d="M191.5 115H174L163.5 125V162.5H153.5V145H144V171H156.5L163 165.5V171H173V141H181L191.5 132V115Z" fill="#6BB0FF"/>
<path d="M148.257 132.588V141.305H119.178L133.081 123.914H120.266V115.192H148.257V119.556L136.626 132.588H148.257Z" fill="#F9F8F4"/>
<path d="M160.482 113.015H150.92V104.244H160.482V113.015ZM150.922 141.307V115.192H160.484V141.307H150.922Z" fill="#F9F8F4"/>
<path d="M182 124H173V132.5H182V124Z" fill="black"/>
<path d="M83.6909 145.854H98.0333V154.577H82.5598V163.25H98.0333V171.97H72.9974V155.667L83.6909 145.854Z" fill="#F9F8F4"/>
<path d="M110.259 171.97H100.696V137.186H110.259V171.97Z" fill="#F9F8F4"/>
<path d="M123.663 145.854H141.505V162.21L130.906 171.97H112.917V155.619L123.663 145.854ZM122.479 154.579V163.252H131.94V154.579H122.479Z" fill="#F9F8F4"/>
<path d="M203.998 162.212L193.401 171.97H175.412V155.619L186.158 145.857H194.438V137.188H204V162.212H203.998ZM184.974 154.579V163.252H194.436V154.579H184.974Z" fill="#F9F8F4"/>
</svg>
