<svg width="276" height="276" viewBox="0 0 276 276" fill="none" xmlns="http://www.w3.org/2000/svg">
<path d="M120.701 113.495H126.52L123.665 124.506C123.441 125.343 123.281 126.001 123.183 126.476C123.085 126.95 123.017 127.367 122.982 127.727C122.887 128.667 123.072 129.398 123.542 129.923C124.011 130.449 124.716 130.71 125.652 130.71C127.883 130.71 129.775 127.704 131.325 121.69L131.376 121.479L133.436 113.495H139.255L136.045 125.945V125.96C135.345 128.656 134.618 130.566 133.862 131.683C132.906 133.112 131.654 134.198 130.101 134.947C128.548 135.696 126.771 136.072 124.766 136.072C122.179 136.072 120.172 135.445 118.739 134.191C117.306 132.937 116.696 131.271 116.91 129.195C116.972 128.575 117.118 127.748 117.341 126.707C117.565 125.668 117.876 124.379 118.27 122.84L120.701 113.495Z" fill="#F9F8F4"/>
<path d="M140.364 135.427L144.717 118.588H139.859L141.209 113.495H156.521L155.171 118.588H150.536L146.183 135.427H140.364Z" fill="#F9F8F4"/>
<path d="M164.859 136.011C163.308 136.011 161.921 135.795 160.696 135.366C159.472 134.937 158.41 134.292 157.509 133.434C156.566 132.515 155.873 131.383 155.429 130.032C154.985 128.684 154.84 127.25 154.995 125.732C155.163 124.094 155.567 122.563 156.212 121.139C156.857 119.715 157.73 118.425 158.837 117.265C160.132 115.887 161.65 114.83 163.389 114.097C165.128 113.363 166.967 113 168.912 113C172.169 113 174.705 113.949 176.522 115.846C178.336 117.745 179.089 120.21 178.78 123.246C178.615 124.874 178.203 126.404 177.548 127.839C176.893 129.273 176.02 130.563 174.924 131.713C173.586 133.122 172.066 134.191 170.362 134.919C168.658 135.648 166.824 136.011 164.859 136.011ZM167.993 118.364C166.227 118.364 164.678 119.009 163.354 120.296C162.029 121.583 161.268 123.183 161.073 125.089C160.899 126.778 161.238 128.126 162.089 129.134C162.94 130.141 164.159 130.647 165.747 130.647C167.484 130.647 169.029 129.979 170.379 128.646C171.729 127.313 172.502 125.686 172.698 123.769C172.859 122.19 172.497 120.895 171.614 119.882C170.731 118.87 169.524 118.364 167.993 118.364Z" fill="#F9F8F4"/>
<path d="M124.543 161.416L130.201 139.481H136.821L140.291 150.314C140.321 150.403 140.369 150.558 140.436 150.779C140.818 151.967 141.064 153.005 141.169 153.894L141.227 153.34C141.267 152.942 141.335 152.5 141.428 152.015C141.52 151.53 141.648 150.944 141.807 150.256L144.579 139.484H150.368L144.71 161.419H138.341L134.623 150.256C134.349 149.446 134.148 148.778 134.02 148.248C133.892 147.717 133.789 147.189 133.717 146.658L133.654 147.273C133.614 147.671 133.554 148.095 133.473 148.54C133.393 148.984 133.27 149.575 133.107 150.314L130.329 161.416H124.543Z" fill="#F9F8F4"/>
<path d="M160.257 162C158.706 162 157.319 161.784 156.094 161.355C154.87 160.926 153.808 160.281 152.907 159.423C151.964 158.504 151.271 157.372 150.827 156.021C150.383 154.673 150.238 153.239 150.393 151.721C150.561 150.083 150.965 148.552 151.61 147.128C152.255 145.704 153.128 144.414 154.235 143.254C155.53 141.875 157.048 140.819 158.787 140.086C160.526 139.352 162.367 138.984 164.312 138.984C167.569 138.984 170.106 139.933 171.923 141.83C173.737 143.729 174.49 146.194 174.181 149.23C174.015 150.858 173.604 152.388 172.949 153.823C172.294 155.257 171.421 156.547 170.324 157.697C168.987 159.106 167.466 160.175 165.762 160.903C164.056 161.637 162.222 162 160.257 162ZM163.391 144.353C161.625 144.353 160.076 144.998 158.752 146.285C157.427 147.575 156.666 149.172 156.471 151.078C156.297 152.767 156.636 154.115 157.487 155.123C158.338 156.13 159.557 156.636 161.145 156.636C162.882 156.636 164.427 155.968 165.777 154.635C167.127 153.302 167.9 151.675 168.096 149.758C168.257 148.179 167.895 146.884 167.012 145.871C166.129 144.859 164.922 144.353 163.391 144.353Z" fill="#F9F8F4"/>
<path d="M172.934 161.416L181.807 139.482H188.248L188.833 147.976C188.868 148.497 188.893 149.042 188.91 149.616C188.928 150.19 188.935 150.786 188.943 151.406C189.096 150.967 189.289 150.495 189.525 149.989C189.758 149.484 190.082 148.852 190.496 148.093L195.256 139.479H201.652L199.931 161.414H194.586L195.595 150.957C195.655 150.368 195.725 149.786 195.803 149.21C195.881 148.634 195.969 148.06 196.069 147.479C195.776 148.217 195.311 149.141 194.677 150.251C194.556 150.472 194.466 150.634 194.403 150.746L188.368 161.414H184.858L183.917 150.761C183.864 150.223 183.822 149.68 183.794 149.136C183.766 148.593 183.744 148.045 183.731 147.496C183.556 148.146 183.377 148.761 183.194 149.339C183.011 149.918 182.83 150.459 182.652 150.957L178.58 161.414H172.934V161.416Z" fill="#F9F8F4"/>
<path d="M208.887 156.532H215.594L214.339 161.416H201.841L207.499 139.481H219.998L218.695 144.546H211.988L211.075 148.126H217.295L216.083 152.891H209.835L208.887 156.532Z" fill="#F9F8F4"/>
<path d="M121.602 161.414H98.7101L95.2448 117.705C95.2448 117.694 95.2046 117.149 95.1996 117.138C94.9637 114.567 89.7018 113.49 89.7018 113.49H109.267C109.954 113.49 110.531 114.013 110.606 114.706L114.925 155.295C114.925 155.298 114.925 155.306 114.927 155.311C115.492 160.523 121.602 161.414 121.602 161.414Z" fill="#FBB040"/>
<path d="M96.6199 135.407C96.6199 135.407 92.3968 136.308 88.806 142.643L78.759 160.365C78.3901 161.015 77.7076 161.417 76.9674 161.417H56C56 161.417 60.9257 159.792 62.647 156.964L74.8646 136.534C75.2836 135.834 76.0314 135.407 76.8394 135.407H96.6199Z" fill="#FBB040"/>
</svg>
