<svg width="276" height="276" viewBox="0 0 276 276" fill="none" xmlns="http://www.w3.org/2000/svg">
<path d="M143.718 178.669V173.832H146.473V187.719H144.039L143.939 186.472C143.245 187.528 142.27 188.051 141.013 188.051C139.736 188.051 138.7 187.548 137.895 186.552C137.091 185.557 136.689 184.25 136.689 182.651C136.689 181.062 137.081 179.795 137.855 178.83C138.64 177.884 139.615 177.402 140.802 177.402C142.048 177.402 143.024 177.824 143.718 178.669ZM141.596 185.637C142.26 185.637 142.803 185.366 143.225 184.823C143.647 184.28 143.858 183.556 143.858 182.661C143.858 181.766 143.647 181.042 143.235 180.509C142.823 179.966 142.27 179.704 141.596 179.704C140.922 179.704 140.369 179.976 139.957 180.509C139.545 181.052 139.333 181.766 139.333 182.661C139.333 183.556 139.545 184.28 139.957 184.823C140.369 185.366 140.912 185.637 141.596 185.637Z" fill="#F9F8F4"/>
<path d="M158.017 183.043V183.515H150.726C150.777 184.269 151.008 184.863 151.43 185.295C151.852 185.727 152.395 185.939 153.089 185.939C154.065 185.939 154.718 185.506 155.04 184.631L157.775 184.822C157.433 185.888 156.87 186.703 156.076 187.256C155.281 187.809 154.306 188.091 153.15 188.091C151.521 188.091 150.244 187.588 149.308 186.572C148.373 185.557 147.901 184.259 147.901 182.671C147.901 181.152 148.353 179.895 149.248 178.91C150.143 177.924 151.35 177.432 152.858 177.432C154.376 177.432 155.623 177.934 156.589 178.95C157.534 179.956 158.017 181.323 158.017 183.043ZM154.467 179.996C154.075 179.604 153.572 179.413 152.949 179.413C152.325 179.413 151.812 179.604 151.41 179.996C151.008 180.408 150.777 180.961 150.706 181.635H155.171C155.09 180.931 154.859 180.388 154.467 179.996Z" fill="#F9F8F4"/>
<path d="M162.149 187.729H159.394V173.832H162.149V187.729Z" fill="#F9F8F4"/>
<path d="M169.208 179.684L167.338 179.623V184.56C167.338 184.902 167.419 185.144 167.559 185.295C167.7 185.445 167.952 185.516 168.293 185.516H169.208V187.718H167.409C166.393 187.718 165.669 187.497 165.237 187.064C164.804 186.632 164.583 185.908 164.583 184.892V179.623L163.215 179.684V177.652L164.583 177.693V174.555H167.328V177.713L169.198 177.652V179.684H169.208Z" fill="#F9F8F4"/>
<path d="M179.294 187.727H176.509C176.368 187.074 176.298 186.742 176.298 186.712C175.584 187.587 174.548 188.019 173.201 188.019C172.145 188.019 171.3 187.737 170.667 187.184C170.033 186.631 169.711 185.887 169.711 184.962C169.711 183.333 170.727 182.317 172.768 181.915L176.278 181.211V180.467C176.278 179.743 175.715 179.371 174.578 179.371C174.015 179.371 173.593 179.472 173.311 179.683C173.02 179.894 172.849 180.226 172.788 180.699L170.274 180.658C170.445 178.496 171.873 177.42 174.568 177.42C177.464 177.42 178.922 178.667 178.922 181.161V185.606C178.902 186.561 179.033 187.265 179.294 187.727ZM173.975 185.988C174.669 185.988 175.222 185.787 175.644 185.374C176.066 184.962 176.278 184.409 176.278 183.705V182.961L173.703 183.504C172.829 183.675 172.396 184.097 172.396 184.771C172.396 185.133 172.537 185.425 172.819 185.646C173.09 185.877 173.482 185.988 173.975 185.988Z" fill="#F9F8F4"/>
<path d="M182.703 188.282C183.673 188.282 184.46 187.495 184.46 186.524C184.46 185.554 183.673 184.767 182.703 184.767C181.732 184.767 180.945 185.554 180.945 186.524C180.945 187.495 181.732 188.282 182.703 188.282Z" fill="#F9F8F4"/>
<path d="M178.979 134.414L102.93 89.9469L100.266 88.3895C98.4253 87.3188 96.098 88.5753 95.9918 90.6991L95.8325 93.7786L91.3991 179.703L91.231 182.96C91.116 185.154 93.4256 186.641 95.3724 185.632L98.266 184.137L178.766 142.687L181.801 141.121C183.793 140.095 183.872 137.272 181.934 136.139L178.979 134.414ZM173.731 136.812L120.229 151.059C119.221 151.324 118.185 150.731 117.911 149.714L103.443 95.7165L173.731 136.812ZM96.3192 175.933L100.151 101.663L113.902 152.944C114.062 153.528 113.929 154.156 113.548 154.625L96.3192 175.933ZM101.31 177.27L117.699 156.996C117.955 156.687 118.3 156.457 118.681 156.359L166.811 143.537L101.31 177.27Z" fill="#F9F8F4"/>
</svg>
