<svg width="530" height="530" viewBox="0 0 530 530" fill="none" xmlns="http://www.w3.org/2000/svg">
<rect width="530" height="530" rx="5.3" fill="white"/>
<rect width="530" height="530" fill="black"/>
<path d="M235.606 169.931C236.772 170.823 236.834 172.532 235.709 173.49C235.229 173.903 234.722 174.312 234.159 174.752C232.707 175.884 215.167 189.284 206.202 184.14C197.357 179.066 197.998 156.564 207.306 141.398C216.071 127.067 235.458 114.567 253.309 120.162C269.041 125.104 280.148 142.974 276.402 150.136C274.965 152.853 271.82 153.199 267.531 153.663C264.384 154.021 260.629 154.421 256.504 155.903C255.604 156.228 254.596 155.687 254.446 154.749C253.949 151.642 252.337 148.892 249.708 147.17C244.236 143.575 236.425 145.781 232.281 152.086C231.91 152.738 228.705 158.632 231.533 164.857C232.622 167.241 234.23 168.865 235.606 169.931Z" fill="#F7941D"/>
<path d="M340.07 198.393C343.195 189.196 339.136 179.496 331.016 176.762C326.704 175.31 322.116 176.102 318.307 178.53C316.577 179.631 314.29 179.14 313.186 177.414C311.274 174.421 309.229 171.974 307.411 169.85C304.047 165.872 301.559 162.942 302.588 159.35C305.279 149.935 330.002 143.485 347.955 152.262C368.328 162.243 374.918 189.397 370.61 209.301C366.079 230.394 347.823 250.714 335.801 247.791C323.622 244.829 319.418 218.425 319.094 216.215C318.999 215.545 318.914 214.916 318.841 214.301C318.585 212.069 320.4 210.193 322.652 210.257C325.223 210.332 328.626 209.928 332.082 207.963C337.605 204.817 339.582 199.747 340.07 198.393Z" fill="#F7941D"/>
<path fill-rule="evenodd" clip-rule="evenodd" d="M168.131 206.451C170.762 203.372 173.678 201.394 176.792 200.266C191.728 194.862 212.477 207.086 222.956 216.928C230.834 224.344 239.223 231.229 248.342 237.05C258.6 243.593 269.715 248.728 281.582 251.518C287.661 252.939 293.829 253.864 299.996 254.789C305.721 255.647 311.445 256.506 317.096 257.761C329.976 260.612 344.75 266.122 349.894 279.398C358.741 302.303 337.765 323.551 317.54 329.702C272.082 343.496 222.196 324.313 189.426 292.02C173.648 276.452 156.69 254.309 158.95 230.898C159.778 222.366 162.473 213.089 168.131 206.451ZM323.804 317.79C256.809 338.538 211.018 297.034 200.02 285.613C198.549 284.13 198.785 281.703 200.508 280.454C224.274 262.945 244.834 269.297 254.914 274.573C257.302 275.834 257.308 279.091 255.005 280.507C254.979 280.529 254.946 280.548 254.914 280.566C254.882 280.585 254.849 280.603 254.823 280.625C251.61 282.729 254.013 287.676 257.756 286.748C309.592 273.737 323.046 303.383 326.085 313.544C326.609 315.318 325.599 317.221 323.804 317.79Z" fill="#F7941D"/>
<path d="M258.026 184.418C253.673 184.033 249.498 189.934 247.818 194.516C245.135 201.843 247.882 208.83 249.551 213.049C251.476 217.927 253.664 223.541 259.284 226.904C268.235 232.266 278.807 227.652 283.755 225.491C287.987 223.633 294.826 220.661 297.141 213.834C298.311 210.351 298.466 205.197 295.939 202.786C294.218 201.146 291.475 201.717 289.335 201.482C283.656 200.931 278.598 199.213 273.809 196.012C269.429 193.054 265.579 189.375 261.521 186.002C260.319 184.991 259.149 184.527 258.026 184.418Z" fill="#F7941D"/>
<path d="M124.626 377.457H129.188C129.712 377.457 130.064 377.558 130.245 377.76C130.447 377.961 130.548 378.354 130.548 378.939V379.694C130.548 380.238 130.437 380.631 130.215 380.873C130.014 381.115 129.671 381.236 129.188 381.236H124.686V397.437C124.686 400.137 124.767 401.901 124.928 402.727C125.089 403.553 125.381 404.067 125.804 404.268C126.106 404.409 126.519 404.571 127.043 404.752C128.272 405.175 128.886 405.8 128.886 406.626C128.886 407.432 128.372 407.996 127.345 408.319C126.318 408.621 124.274 408.772 121.212 408.772C118.151 408.772 116.106 408.611 115.079 408.289C114.052 407.966 113.538 407.382 113.538 406.535C113.538 405.87 114.032 405.357 115.019 404.994C115.381 404.853 115.653 404.732 115.834 404.631C116.338 404.349 116.69 403.875 116.892 403.21C117.093 402.525 117.194 401.286 117.194 399.493V396.47V381.236H113.659C113.176 381.236 112.833 381.125 112.632 380.903C112.45 380.682 112.36 380.279 112.36 379.694V378.939C112.36 378.415 112.461 378.042 112.662 377.82C112.884 377.578 113.236 377.457 113.719 377.457H117.043C116.902 376.571 116.791 375.745 116.71 374.979C116.65 374.193 116.62 373.447 116.62 372.742C116.62 369.558 117.576 367.08 119.49 365.306C121.424 363.533 124.122 362.646 127.587 362.646C129.963 362.646 131.897 363.191 133.388 364.279C134.878 365.347 135.623 366.707 135.623 368.359C135.623 369.347 135.351 370.102 134.807 370.626C134.284 371.13 133.508 371.382 132.481 371.382C131.816 371.382 131.212 371.231 130.668 370.929C130.145 370.626 129.712 370.203 129.369 369.659C129.208 369.377 129.007 368.994 128.765 368.51C128 366.999 127.003 366.243 125.774 366.243C124.989 366.243 124.344 366.505 123.84 367.029C123.357 367.533 123.115 368.198 123.115 369.024C123.115 369.508 123.357 370.677 123.84 372.531C124.324 374.364 124.586 376.007 124.626 377.457Z" fill="#F7941D"/>
<path d="M139.974 390.334C139.974 394.505 140.85 397.991 142.602 400.792C144.375 403.593 146.53 404.994 149.068 404.994C151.122 404.994 152.784 404.127 154.053 402.394C155.342 400.661 155.986 398.374 155.986 395.533C155.986 391.422 155.09 387.976 153.297 385.195C151.525 382.394 149.39 380.994 146.892 380.994C144.818 380.994 143.146 381.85 141.877 383.563C140.608 385.256 139.974 387.513 139.974 390.334ZM147.708 409.407C143.176 409.407 139.42 407.865 136.439 404.782C133.458 401.699 131.968 397.81 131.968 393.115C131.968 388.379 133.529 384.44 136.65 381.296C139.792 378.153 143.72 376.581 148.433 376.581C152.965 376.581 156.671 378.052 159.551 380.994C162.452 383.936 163.902 387.704 163.902 392.299C163.902 397.175 162.351 401.246 159.249 404.51C156.147 407.775 152.3 409.407 147.708 409.407Z" fill="#F7941D"/>
<path d="M175.382 390.334C175.382 394.505 176.259 397.991 178.011 400.792C179.783 403.593 181.938 404.994 184.476 404.994C186.531 404.994 188.192 404.127 189.461 402.394C190.75 400.661 191.395 398.374 191.395 395.533C191.395 391.422 190.499 387.976 188.706 385.195C186.934 382.394 184.799 380.994 182.301 380.994C180.226 380.994 178.555 381.85 177.286 383.563C176.017 385.256 175.382 387.513 175.382 390.334ZM183.117 409.407C178.585 409.407 174.829 407.865 171.848 404.782C168.867 401.699 167.376 397.81 167.376 393.115C167.376 388.379 168.937 384.44 172.059 381.296C175.201 378.153 179.129 376.581 183.842 376.581C188.374 376.581 192.08 378.052 194.96 380.994C197.86 383.936 199.31 387.704 199.31 392.299C199.31 397.175 197.76 401.246 194.658 404.51C191.556 407.775 187.709 409.407 183.117 409.407Z" fill="#F7941D"/>
<path d="M226.622 407.11V405.568C226.622 405.326 226.592 405.135 226.532 404.994C226.491 404.833 226.441 404.752 226.381 404.752C226.3 404.752 225.978 404.974 225.414 405.417C224.87 405.84 224.407 406.193 224.024 406.475C222.775 407.422 221.547 408.117 220.338 408.561C219.13 409.004 217.881 409.226 216.592 409.226C212.664 409.226 209.462 407.815 206.984 404.994C204.527 402.153 203.298 398.465 203.298 393.931C203.298 388.813 204.708 384.641 207.528 381.417C210.368 378.193 214.034 376.581 218.525 376.581C220.681 376.581 222.906 377.105 225.202 378.153C225.645 378.354 225.907 378.455 225.988 378.455C226.149 378.455 226.26 378.344 226.32 378.122C226.401 377.901 226.441 377.488 226.441 376.883V373.196C226.441 371.725 226.3 370.707 226.018 370.143C225.756 369.558 225.232 369.125 224.447 368.843C224.246 368.782 223.964 368.702 223.601 368.601C222.312 368.238 221.667 367.684 221.667 366.939C221.667 366.374 221.919 365.891 222.423 365.488C222.926 365.085 223.974 364.591 225.565 364.007C226.793 363.563 227.952 363.231 229.039 363.009C230.147 362.767 231.134 362.646 232 362.646C232.705 362.646 233.208 362.848 233.511 363.251C233.833 363.654 233.994 364.319 233.994 365.246C233.994 365.407 233.974 365.941 233.934 366.848C233.712 373.075 233.601 379.563 233.601 386.314C233.601 393.064 233.672 397.457 233.813 399.493C233.954 401.508 234.195 402.646 234.538 402.908C234.86 403.13 235.575 403.372 236.683 403.634C237.811 403.875 238.375 404.369 238.375 405.115C238.375 406.082 236.854 407.059 233.813 408.047L233.48 408.168C232.614 408.45 231.678 408.681 230.671 408.863C229.684 409.044 228.888 409.135 228.284 409.135C227.7 409.135 227.277 408.974 227.015 408.651C226.753 408.329 226.622 407.815 226.622 407.11ZM226.32 396.349V387.734C226.3 386.445 226.24 385.578 226.139 385.135C226.058 384.672 225.907 384.299 225.686 384.017C225.001 383.09 224.034 382.334 222.785 381.75C221.557 381.165 220.298 380.873 219.009 380.873C216.672 380.873 214.809 381.83 213.42 383.745C212.03 385.659 211.335 388.268 211.335 391.573C211.335 395.1 212.09 397.971 213.601 400.188C215.132 402.404 217.075 403.513 219.432 403.513C221.667 403.513 223.369 402.908 224.538 401.699C225.726 400.47 226.32 398.687 226.32 396.349Z" fill="#F7941D"/>
<path d="M250.339 378.818V380.359C250.339 380.621 250.349 380.823 250.369 380.964C250.409 381.085 250.46 381.155 250.52 381.175C250.621 381.175 251.034 380.893 251.759 380.329C252.242 379.966 252.645 379.664 252.967 379.422C254.276 378.455 255.525 377.74 256.714 377.276C257.922 376.813 259.141 376.581 260.369 376.581C264.277 376.581 267.469 378.012 269.946 380.873C272.424 383.735 273.663 387.442 273.663 391.996C273.663 397.034 272.263 401.175 269.463 404.42C266.684 407.664 263.159 409.286 258.889 409.286C256.552 409.286 254.186 408.621 251.789 407.291C251.386 407.09 251.154 406.989 251.094 406.989C250.832 406.989 250.641 407.291 250.52 407.896C250.399 408.48 250.339 409.457 250.339 410.828C250.339 412.077 250.409 413.115 250.55 413.941C250.691 414.787 250.893 415.362 251.154 415.664C251.416 415.946 252.011 416.218 252.937 416.48C253.481 416.641 253.894 416.772 254.176 416.873C254.458 417.014 254.679 417.215 254.84 417.477C255.022 417.739 255.112 418.042 255.112 418.384C255.112 419.15 254.498 419.694 253.269 420.016C252.041 420.359 249.936 420.53 246.955 420.53C243.914 420.53 241.859 420.359 240.792 420.016C239.744 419.674 239.221 419.059 239.221 418.173C239.221 417.487 239.664 416.953 240.55 416.571C241.456 416.208 242 415.946 242.181 415.785C242.604 415.362 242.896 414.324 243.058 412.671C243.219 411.019 243.299 407.573 243.299 402.334V399.674V397.195C243.299 391.493 243.199 387.815 242.997 386.163C242.816 384.51 242.484 383.543 242 383.261C241.678 383.1 241.195 382.918 240.55 382.717C239.281 382.314 238.647 381.76 238.647 381.054C238.647 380.551 238.838 380.117 239.221 379.755C239.603 379.392 240.218 379.059 241.064 378.757C242.635 378.133 244.105 377.649 245.475 377.306C246.864 376.944 247.932 376.762 248.677 376.762C249.261 376.762 249.684 376.923 249.946 377.246C250.208 377.568 250.339 378.092 250.339 378.818ZM250.641 389.518V398.132C250.641 399.382 250.691 400.238 250.792 400.702C250.893 401.165 251.054 401.548 251.275 401.85C251.98 402.777 252.947 403.543 254.176 404.147C255.424 404.752 256.683 405.054 257.952 405.054C260.289 405.054 262.152 404.087 263.541 402.153C264.931 400.218 265.626 397.598 265.626 394.294C265.626 390.747 264.861 387.876 263.33 385.679C261.819 383.462 259.886 382.354 257.529 382.354C255.294 382.354 253.582 382.969 252.393 384.198C251.225 385.407 250.641 387.18 250.641 389.518Z" fill="#F7941D"/>
<path d="M304.328 399.916C304.328 401.105 304.429 401.991 304.63 402.576C304.831 403.16 305.144 403.513 305.567 403.634C305.808 403.714 306.131 403.805 306.533 403.906C307.863 404.268 308.527 404.802 308.527 405.508C308.527 406.515 307.822 407.432 306.413 408.258C305.003 409.064 303.361 409.467 301.488 409.467C300.561 409.467 299.575 408.923 298.527 407.835C297.5 406.727 296.956 406.173 296.896 406.173C296.714 406.173 296.261 406.404 295.536 406.868C292.877 408.601 290.259 409.467 287.681 409.467C284.619 409.467 282.142 408.581 280.249 406.807C278.356 405.014 277.409 402.676 277.409 399.795C277.409 396.43 278.627 393.81 281.065 391.936C283.502 390.042 286.906 389.095 291.276 389.095C292.102 389.095 292.998 389.145 293.965 389.246C294.952 389.326 296.009 389.457 297.137 389.639L297.168 386.314C297.168 384.46 296.765 383.039 295.959 382.052C295.153 381.044 294.005 380.541 292.515 380.541C291.488 380.541 290.531 380.772 289.645 381.236C288.759 381.679 287.903 382.374 287.077 383.321C286.916 383.503 286.694 383.775 286.412 384.138C285.143 385.75 283.794 386.556 282.364 386.556C281.538 386.556 280.873 386.294 280.37 385.77C279.886 385.226 279.645 384.5 279.645 383.593C279.645 381.619 280.863 379.956 283.3 378.606C285.737 377.256 288.869 376.581 292.696 376.581C295.033 376.581 297.037 376.893 298.708 377.518C300.38 378.122 301.679 379.009 302.606 380.178C303.23 380.984 303.673 382.032 303.935 383.321C304.197 384.611 304.328 386.757 304.328 389.76V399.916ZM297.137 393.659C296.312 393.478 295.516 393.347 294.751 393.266C293.985 393.165 293.26 393.115 292.575 393.115C290.32 393.115 288.557 393.619 287.288 394.626C286.019 395.634 285.385 397.024 285.385 398.797C285.385 400.47 285.929 401.81 287.016 402.818C288.124 403.825 289.605 404.329 291.458 404.329C293.512 404.329 294.972 403.875 295.838 402.969C296.725 402.062 297.168 400.51 297.168 398.314L297.137 393.659Z" fill="#F7941D"/>
<path d="M323.543 380.389C323.704 380.248 323.925 380.047 324.207 379.785C326.483 377.649 328.951 376.581 331.609 376.581C333.12 376.581 334.57 376.913 335.96 377.578C337.37 378.223 338.558 379.11 339.525 380.238C340.492 381.387 341.177 382.757 341.579 384.349C341.982 385.941 342.184 388.43 342.184 391.815V396.077C342.184 396.601 342.174 397.286 342.153 398.132C342.133 398.979 342.123 399.573 342.123 399.916C342.123 401.407 342.224 402.465 342.425 403.09C342.647 403.694 343.02 404.147 343.543 404.45C343.745 404.551 344.017 404.661 344.359 404.782C345.386 405.165 345.9 405.709 345.9 406.414C345.9 407.321 345.416 407.946 344.45 408.289C343.483 408.611 341.388 408.772 338.166 408.772C335.225 408.772 333.251 408.621 332.244 408.319C331.257 407.996 330.764 407.432 330.764 406.626C330.764 405.82 331.287 405.226 332.335 404.843C332.878 404.641 333.271 404.47 333.513 404.329C333.996 404.067 334.339 403.483 334.54 402.576C334.741 401.649 334.842 400.047 334.842 397.77C334.842 391.08 334.409 386.888 333.543 385.195C332.697 383.503 331.166 382.656 328.951 382.656C327.823 382.656 326.745 382.999 325.718 383.684C324.711 384.349 323.936 385.246 323.392 386.374C322.929 387.281 322.606 388.551 322.425 390.183C322.244 391.815 322.153 394.717 322.153 398.888C322.153 400.923 322.234 402.284 322.395 402.969C322.576 403.634 322.888 404.087 323.331 404.329C323.593 404.47 323.986 404.641 324.51 404.843C325.577 405.226 326.111 405.82 326.111 406.626C326.111 407.432 325.597 408.006 324.57 408.349C323.543 408.671 321.66 408.833 318.92 408.833C315.718 408.833 313.593 408.661 312.546 408.319C311.518 407.976 311.005 407.341 311.005 406.414C311.005 405.709 311.518 405.165 312.546 404.782C312.928 404.641 313.2 404.53 313.361 404.45C313.905 404.147 314.288 403.644 314.509 402.938C314.731 402.233 314.842 401.085 314.842 399.493C314.842 399.11 314.832 398.404 314.812 397.377C314.791 396.349 314.781 395.503 314.781 394.838V391.573C314.781 388.268 314.701 386.112 314.54 385.105C314.378 384.097 314.086 383.483 313.663 383.261C313.341 383.1 312.848 382.918 312.183 382.717C310.914 382.314 310.28 381.76 310.28 381.054C310.28 380.591 310.471 380.178 310.854 379.815C311.257 379.432 311.911 379.059 312.818 378.697C314.368 378.092 315.879 377.609 317.349 377.246C318.82 376.883 319.907 376.702 320.612 376.702C321.196 376.702 321.619 376.863 321.881 377.185C322.143 377.488 322.274 377.991 322.274 378.697V380.782C322.274 380.944 322.284 381.044 322.304 381.085C322.344 381.125 322.415 381.155 322.516 381.175C322.556 381.175 322.606 381.165 322.667 381.145C322.747 381.105 322.798 381.075 322.818 381.054L323.543 380.389Z" fill="#F7941D"/>
<path d="M372.487 407.11V405.568C372.487 405.326 372.456 405.135 372.396 404.994C372.356 404.833 372.305 404.752 372.245 404.752C372.164 404.752 371.842 404.974 371.278 405.417C370.734 405.84 370.271 406.193 369.888 406.475C368.64 407.422 367.411 408.117 366.202 408.561C364.994 409.004 363.745 409.226 362.456 409.226C358.528 409.226 355.326 407.815 352.849 404.994C350.391 402.153 349.163 398.465 349.163 393.931C349.163 388.813 350.573 384.641 353.392 381.417C356.232 378.193 359.898 376.581 364.39 376.581C366.545 376.581 368.77 377.105 371.067 378.153C371.51 378.354 371.771 378.455 371.852 378.455C372.013 378.455 372.124 378.344 372.184 378.122C372.265 377.901 372.305 377.488 372.305 376.883V373.196C372.305 371.725 372.164 370.707 371.882 370.143C371.62 369.558 371.097 369.125 370.311 368.843C370.11 368.782 369.828 368.702 369.465 368.601C368.176 368.238 367.532 367.684 367.532 366.939C367.532 366.374 367.783 365.891 368.287 365.488C368.791 365.085 369.838 364.591 371.429 364.007C372.658 363.563 373.816 363.231 374.903 363.009C376.011 362.767 376.998 362.646 377.864 362.646C378.569 362.646 379.073 362.848 379.375 363.251C379.697 363.654 379.858 364.319 379.858 365.246C379.858 365.407 379.838 365.941 379.798 366.848C379.576 373.075 379.466 379.563 379.466 386.314C379.466 393.064 379.536 397.457 379.677 399.493C379.818 401.508 380.06 402.646 380.402 402.908C380.724 403.13 381.439 403.372 382.547 403.634C383.675 403.875 384.239 404.369 384.239 405.115C384.239 406.082 382.718 407.059 379.677 408.047L379.345 408.168C378.479 408.45 377.542 408.681 376.535 408.863C375.548 409.044 374.752 409.135 374.148 409.135C373.564 409.135 373.141 408.974 372.879 408.651C372.617 408.329 372.487 407.815 372.487 407.11ZM372.184 396.349V387.734C372.164 386.445 372.104 385.578 372.003 385.135C371.923 384.672 371.771 384.299 371.55 384.017C370.865 383.09 369.898 382.334 368.65 381.75C367.421 381.165 366.162 380.873 364.873 380.873C362.537 380.873 360.674 381.83 359.284 383.745C357.894 385.659 357.199 388.268 357.199 391.573C357.199 395.1 357.954 397.971 359.465 400.188C360.996 402.404 362.939 403.513 365.296 403.513C367.532 403.513 369.234 402.908 370.402 401.699C371.59 400.47 372.184 398.687 372.184 396.349Z" fill="#F7941D"/>
<path d="M412.91 399.916C412.91 401.105 413.011 401.991 413.213 402.576C413.414 403.16 413.726 403.513 414.149 403.634C414.391 403.714 414.713 403.805 415.116 403.906C416.445 404.268 417.11 404.802 417.11 405.508C417.11 406.515 416.405 407.432 414.995 408.258C413.585 409.064 411.944 409.467 410.07 409.467C409.144 409.467 408.157 408.923 407.11 407.835C406.082 406.727 405.539 406.173 405.478 406.173C405.297 406.173 404.844 406.404 404.119 406.868C401.46 408.601 398.842 409.467 396.263 409.467C393.202 409.467 390.725 408.581 388.831 406.807C386.938 405.014 385.991 402.676 385.991 399.795C385.991 396.43 387.21 393.81 389.647 391.936C392.084 390.042 395.488 389.095 399.859 389.095C400.685 389.095 401.581 389.145 402.548 389.246C403.535 389.326 404.592 389.457 405.72 389.639L405.75 386.314C405.75 384.46 405.347 383.039 404.542 382.052C403.736 381.044 402.588 380.541 401.097 380.541C400.07 380.541 399.114 380.772 398.227 381.236C397.341 381.679 396.485 382.374 395.659 383.321C395.498 383.503 395.277 383.775 394.995 384.138C393.726 385.75 392.376 386.556 390.946 386.556C390.12 386.556 389.456 386.294 388.952 385.77C388.469 385.226 388.227 384.5 388.227 383.593C388.227 381.619 389.446 379.956 391.883 378.606C394.32 377.256 397.452 376.581 401.279 376.581C403.615 376.581 405.619 376.893 407.291 377.518C408.963 378.122 410.262 379.009 411.188 380.178C411.813 380.984 412.256 382.032 412.518 383.321C412.779 384.611 412.91 386.757 412.91 389.76V399.916ZM405.72 393.659C404.894 393.478 404.098 393.347 403.333 393.266C402.568 393.165 401.843 393.115 401.158 393.115C398.902 393.115 397.14 393.619 395.871 394.626C394.602 395.634 393.967 397.024 393.967 398.797C393.967 400.47 394.511 401.81 395.599 402.818C396.707 403.825 398.187 404.329 400.04 404.329C402.094 404.329 403.555 403.875 404.421 402.969C405.307 402.062 405.75 400.51 405.75 398.314L405.72 393.659Z" fill="#F7941D"/>
<path fill-rule="evenodd" clip-rule="evenodd" d="M168.132 206.451C170.762 203.372 173.679 201.394 176.793 200.265C191.728 194.861 212.478 207.086 222.957 216.927C230.835 224.344 239.224 231.228 248.342 237.05C258.6 243.593 269.715 248.728 281.582 251.517C287.662 252.938 293.83 253.863 299.996 254.788C305.722 255.647 311.446 256.506 317.096 257.761C329.976 260.612 344.751 266.122 349.895 279.398C358.741 302.303 337.765 323.551 317.541 329.702C272.083 343.496 222.197 324.313 189.427 292.02C173.648 276.451 156.69 254.309 158.951 230.897C159.779 222.366 162.474 213.088 168.132 206.451ZM323.804 317.79C256.809 338.538 211.018 297.034 200.02 285.612C198.549 284.13 198.785 281.703 200.508 280.454C224.275 262.944 244.835 269.297 254.915 274.573C257.302 275.833 257.309 279.091 255.006 280.507C254.979 280.529 254.947 280.547 254.914 280.566C254.882 280.584 254.85 280.603 254.823 280.625C251.61 282.728 254.013 287.676 257.756 286.748C309.593 273.736 323.046 303.382 326.086 313.544C326.609 315.318 325.599 317.221 323.804 317.79Z" fill="#F7941D"/>
<path d="M258.026 184.418C253.673 184.033 249.499 189.934 247.818 194.516C245.135 201.843 247.882 208.829 249.551 213.049C251.477 217.927 253.664 223.541 259.285 226.904C268.235 232.266 278.807 227.652 283.755 225.491C287.987 223.633 294.827 220.66 297.142 213.834C298.311 210.351 298.466 205.197 295.939 202.786C294.219 201.146 291.476 201.716 289.336 201.481C283.657 200.931 278.598 199.213 273.809 196.012C269.43 193.053 265.58 189.374 261.522 186.002C260.32 184.991 259.149 184.527 258.026 184.418Z" fill="#F7941D"/>
</svg>
