<svg width="70" height="70" viewBox="0 0 70 70" fill="none" xmlns="http://www.w3.org/2000/svg">
<g clip-path="url(#clip0)">
<path d="M31.6114 54.9174C37.2652 54.9183 42.7303 52.9005 47.0067 49.2332C47.0067 49.2332 47.0067 49.2332 47.0067 49.2332L58.1073 60.2408C58.258 60.4512 58.4526 60.627 58.6777 60.7565C58.9029 60.886 59.1534 60.9661 59.4124 60.9913C59.6715 61.0166 59.933 60.9865 60.1792 60.903C60.4255 60.8195 60.6509 60.6846 60.8401 60.5074C61.0293 60.3302 61.178 60.1148 61.2761 59.8757C61.3743 59.6366 61.4195 59.3795 61.4089 59.1216C61.3982 58.8637 61.3319 58.6111 61.2144 58.3808C61.0969 58.1505 60.9309 57.9479 60.7277 57.7866L49.6271 46.779C53.1498 42.7284 55.1707 37.6056 55.3549 32.2599C55.5391 26.9142 53.8755 21.6667 50.6399 17.387C47.4043 13.1074 42.791 10.0527 37.5647 8.72934C32.3384 7.40598 26.813 7.89342 21.9044 10.1108C16.9957 12.3283 12.9986 16.1425 10.5757 20.9213C8.15277 25.7002 7.44948 31.1565 8.58242 36.386C9.71536 41.6155 12.6165 46.3041 16.8049 49.6745C20.9933 53.0449 26.2175 54.8947 31.6114 54.9174V54.9174ZM31.6114 11.6089C35.5705 11.6089 39.4407 12.773 42.7325 14.9541C46.0244 17.1353 48.5901 20.2354 50.1051 23.8624C51.6202 27.4895 52.0166 31.4806 51.2442 35.3311C50.4719 39.1816 48.5654 42.7185 45.7659 45.4945C42.9664 48.2706 39.3996 50.1611 35.5166 50.927C31.6336 51.6929 27.6088 51.2998 23.9511 49.7974C20.2934 48.295 17.1671 45.7508 14.9675 42.4866C12.768 39.2223 11.594 35.3845 11.594 31.4586C11.594 26.1941 13.7029 21.1453 17.4569 17.4227C21.2109 13.7002 26.3025 11.6089 31.6114 11.6089V11.6089Z" fill="#F7941D"/>
<path d="M44.2954 27C43.8723 25.1268 43.0294 23.3719 41.8292 21.8654C40.6289 20.3589 39.1021 19.1394 37.3619 18.2972C35.6216 17.455 33.7124 17.0118 31.7759 17.0002C29.8393 16.9887 27.9249 17.4092 26.1746 18.2306" stroke="#F7941D" stroke-width="3" stroke-linecap="round"/>
</g>
<defs>
<clipPath id="clip0">
<rect width="70" height="70" fill="white"/>
</clipPath>
</defs>
</svg>
