<svg width="70" height="70" viewBox="0 0 70 70" fill="none" xmlns="http://www.w3.org/2000/svg">
<path d="M18.4083 60.62V51.03H14.9083C10.8483 51.03 7.48828 47.67 7.48828 43.61V20.86C7.48828 16.8 10.8483 13.44 14.9083 13.44H37.7983C38.4983 13.44 39.0583 14 39.0583 14.7C39.0583 15.4 38.4983 15.96 37.7983 15.96H14.9083C12.2483 15.96 10.0783 18.13 10.0783 20.79V43.54C10.0783 46.2 12.2483 48.37 14.9083 48.37H19.7383C20.4383 48.37 20.9983 48.93 20.9983 49.63V57.47L30.1683 48.65C30.3783 48.44 30.7283 48.3 31.0783 48.3H52.2183C54.1783 48.3 55.9983 47.04 56.7683 45.22C57.0483 44.59 57.7483 44.24 58.4483 44.52C59.0783 44.8 59.4283 45.5 59.1483 46.2C58.0283 49 55.2283 50.89 52.2183 50.89H31.6383L20.6483 61.39C20.4383 61.6 20.0883 61.74 19.7383 61.74C19.5983 61.74 19.3883 61.74 19.2483 61.67C18.6883 61.6 18.4083 61.11 18.4083 60.62ZM62.5083 24.64C62.5083 24.78 62.5083 24.92 62.5083 24.99L60.4783 37.59C60.0583 40.81 57.7483 42.7 54.3183 42.7H53.7583H52.0083H44.5883H44.0983H39.3383C37.9383 42.7 36.6083 42.14 35.6983 41.23C35.2783 41.58 34.7183 41.79 34.0883 41.79H29.1883C27.7883 41.79 26.6683 40.67 26.6683 39.27V23.59C26.6683 22.19 27.7883 21.07 29.1883 21.07H34.0883C34.8583 21.07 35.4883 21.42 35.9783 21.91C35.9783 21.91 35.9783 21.91 36.0483 21.91C36.2583 21.84 41.5783 20.3 41.5783 15.82V9.72996C41.5783 9.16996 41.9283 8.67997 42.4883 8.53997C42.6283 8.46997 45.7083 7.55997 47.9483 9.23997C49.3483 10.29 50.1183 12.04 50.1183 14.49V19.53H52.0083H56.0683H57.1883C60.1983 19.39 62.5083 21.7 62.5083 24.64ZM34.1583 23.52H29.3283V39.2H34.1583V23.52ZM59.9883 24.64C59.9883 23.1 58.7983 21.91 57.2583 21.91H56.1383H52.0783H48.9283C48.2283 21.91 47.6683 21.35 47.6683 20.65V14.35C47.6683 12.81 47.3183 11.69 46.5483 11.2C45.8483 10.71 44.9383 10.64 44.3083 10.71V15.75C44.3083 22.19 37.2383 24.22 36.9583 24.29H36.8883V37.38C36.8883 38.85 38.0783 40.11 39.6183 40.11H44.3783H44.8683H52.2883H54.0383H54.5983C57.8883 40.11 58.1683 37.94 58.2383 37.24C58.2383 37.24 58.2383 37.24 58.2383 37.17L59.9883 24.64Z" fill="#F7941D" stroke="#F7941D" stroke-width="0.5"/>
</svg>
