<svg width="70" height="70" viewBox="0 0 70 70" fill="none" xmlns="http://www.w3.org/2000/svg">
<path d="M34.9998 61.2495C31.5526 61.2495 28.1391 60.5705 24.9543 59.2514C21.7695 57.9322 18.8757 55.9986 16.4382 53.5611C14.0007 51.1235 12.0671 48.2297 10.7479 45.045C9.42873 41.8602 8.74976 38.4467 8.74976 34.9995C8.74976 31.5523 9.42873 28.1389 10.7479 24.9541C12.0671 21.7693 14.0007 18.8755 16.4382 16.438C18.8757 14.0004 21.7695 12.0669 24.9543 10.7477C28.1391 9.42849 31.5526 8.74951 34.9998 8.74951C41.9617 8.74951 48.6385 11.2078 53.5613 15.5837C58.4841 19.9595 61.2498 25.8945 61.2498 32.0828C61.2498 35.177 59.867 38.1445 57.4055 40.3324C54.9441 42.5204 51.6057 43.7495 48.1248 43.7495H40.8331C39.5319 43.7285 38.261 44.1433 37.2226 44.9278C36.1843 45.7124 35.4381 46.8216 35.1027 48.0791C34.7674 49.3365 34.8622 50.67 35.3721 51.8674C35.8819 53.0648 36.7775 54.0573 37.9164 54.687C38.4988 55.2244 38.8981 55.9307 39.0584 56.7067C39.2187 57.4827 39.1318 58.2894 38.81 59.0135C38.4882 59.7376 37.9476 60.3427 37.2642 60.7438C36.5807 61.1448 35.7889 61.3217 34.9998 61.2495" stroke="#F7941D" stroke-width="3" stroke-linecap="round" stroke-linejoin="round"/>
<path d="M21.8748 32.0832C22.6803 32.0832 23.3332 31.4303 23.3332 30.6248C23.3332 29.8194 22.6803 29.1665 21.8748 29.1665C21.0694 29.1665 20.4165 29.8194 20.4165 30.6248C20.4165 31.4303 21.0694 32.0832 21.8748 32.0832Z" fill="#F7941D" stroke="#F7941D" stroke-width="3" stroke-linecap="round" stroke-linejoin="round"/>
<path d="M35.0008 23.3332C35.8062 23.3332 36.4591 22.6803 36.4591 21.8748C36.4591 21.0694 35.8062 20.4165 35.0008 20.4165C34.1954 20.4165 33.5425 21.0694 33.5425 21.8748C33.5425 22.6803 34.1954 23.3332 35.0008 23.3332Z" fill="#F7941D" stroke="#F7941D" stroke-width="3" stroke-linecap="round" stroke-linejoin="round"/>
<path d="M48.1253 32.0832C48.9307 32.0832 49.5837 31.4303 49.5837 30.6248C49.5837 29.8194 48.9307 29.1665 48.1253 29.1665C47.3199 29.1665 46.667 29.8194 46.667 30.6248C46.667 31.4303 47.3199 32.0832 48.1253 32.0832Z" fill="#F7941D" stroke="#F7941D" stroke-width="3" stroke-linecap="round" stroke-linejoin="round"/>
</svg>
