<svg width="70" height="70" viewBox="0 0 70 70" fill="none" xmlns="http://www.w3.org/2000/svg">
<g clip-path="url(#clip0)">
<path d="M61.5141 43.9425L57.3293 47.9896V16.1586C57.3293 14.5252 56.6554 12.9588 55.4559 11.8038C54.2564 10.6488 52.6295 10 50.9332 10H28.0223C27.0505 10 26.2627 10.7878 26.2627 11.7596V11.7596C26.2627 12.7314 27.0505 13.5192 28.0223 13.5192H50.9332C51.6602 13.5192 52.3574 13.7973 52.8715 14.2922C53.3856 14.7872 53.6744 15.4586 53.6744 16.1586V47.9896L49.4895 43.9425C49.1454 43.6112 48.6787 43.425 48.192 43.425C47.7054 43.425 47.2387 43.6112 46.8946 43.9425C46.5504 44.2739 46.3571 44.7233 46.3571 45.1918C46.3571 45.6604 46.5504 46.1098 46.8946 46.4411L54.2043 53.4795C54.3742 53.6444 54.5763 53.7753 54.799 53.8647C55.0217 53.954 55.2606 54 55.5018 54C55.7431 54 55.9819 53.954 56.2046 53.8647C56.4273 53.7753 56.6294 53.6444 56.7993 53.4795L64.1091 46.4411C64.4532 46.1098 64.6465 45.6604 64.6465 45.1918C64.6465 44.7233 64.4532 44.2739 64.1091 43.9425C63.765 43.6112 63.2983 43.425 62.8116 43.425C62.325 43.425 61.8582 43.6112 61.5141 43.9425Z" fill="#F7941D"/>
<path d="M13.9078 16.5205L6.59798 23.5589C6.25387 23.8902 6.06055 24.3396 6.06055 24.8082C6.06055 25.2767 6.25387 25.7261 6.59798 26.0575C6.9421 26.3888 7.40882 26.575 7.89547 26.575C8.38212 26.575 8.84884 26.3888 9.19296 26.0575L13.3778 22.0104V53.8414C13.3778 55.4748 14.0517 57.0412 15.2512 58.1962C16.4507 59.3512 18.0775 60 19.7739 60H42.6848C43.6566 60 44.4444 59.2122 44.4444 58.2404V58.2404C44.4444 57.2686 43.6566 56.4808 42.6848 56.4808H19.7739C19.0469 56.4808 18.3496 56.2027 17.8356 55.7078C17.3215 55.2128 17.0327 54.5414 17.0327 53.8414V22.0104L21.2175 26.0575C21.3874 26.2224 21.5895 26.3533 21.8122 26.4426C22.0349 26.532 22.2738 26.578 22.515 26.578C22.7563 26.578 22.9951 26.532 23.2178 26.4426C23.4405 26.3533 23.6426 26.2224 23.8125 26.0575C23.9838 25.8939 24.1198 25.6993 24.2125 25.4849C24.3053 25.2704 24.3531 25.0404 24.3531 24.8082C24.3531 24.5759 24.3053 24.3459 24.2125 24.1315C24.1198 23.917 23.9838 23.7224 23.8125 23.5589L16.5027 16.5205C16.3329 16.3556 16.1307 16.2247 15.908 16.1353C15.6854 16.046 15.4465 16 15.2053 16C14.964 16 14.7251 16.046 14.5025 16.1353C14.2798 16.2247 14.0777 16.3556 13.9078 16.5205Z" fill="#F7941D"/>
</g>
<defs>
<clipPath id="clip0">
<rect width="70" height="70" fill="white"/>
</clipPath>
</defs>
</svg>
