<svg width="1194" height="329" viewBox="0 0 1194 329" fill="none" xmlns="http://www.w3.org/2000/svg">
<g clip-path="url(#clip0)">
<path d="M353.138 239.02L353.369 238.824L353.138 239.02C352.579 238.36 351.947 238.123 351.352 238.148C350.746 238.174 350.143 238.473 349.666 238.952C348.71 239.913 348.344 241.502 349.437 242.792L349.206 242.988L349.437 242.792C357.672 252.517 365.967 262.191 375.179 270.987L374.97 271.206L375.179 270.987C375.804 271.583 376.494 271.784 377.14 271.729C377.794 271.673 378.422 271.354 378.899 270.878C379.376 270.401 379.686 269.784 379.728 269.15C379.768 268.525 379.55 267.859 378.924 267.262L378.924 267.262C369.687 258.44 361.372 248.743 353.138 239.02Z" fill="black" stroke="black" stroke-width="0.60586"/>
<path d="M354.679 215.205C354.521 214.512 354.34 213.823 354.137 213.14L354.679 215.205ZM354.679 215.205C355.172 215.541 355.774 215.712 356.375 215.713C357.05 215.714 357.694 215.499 358.151 215.085C358.6 214.679 358.892 214.061 358.837 213.198C358.779 212.279 358.644 211.371 358.441 210.479C358.275 210.337 358.094 210.223 357.903 210.135C357.309 209.86 356.605 209.827 355.955 210.005C355.304 210.184 354.728 210.567 354.378 211.098C354.032 211.622 353.89 212.31 354.137 213.14L354.679 215.205ZM353.796 214.163C353.725 213.898 353.651 213.634 353.573 213.371C353.611 213.662 353.688 213.926 353.796 214.163ZM358.157 209.585C358.179 209.595 358.201 209.606 358.223 209.617C356.304 202.732 350.409 196.792 344.562 193L344.724 192.75L344.562 193C336.561 187.813 326.977 188.422 318.326 191.934C311.241 194.809 305.238 200.929 301.921 208.149C298.604 215.367 297.987 223.651 301.617 230.865C305.867 239.311 311.66 246.518 320.919 249.29C328.691 251.618 336.564 251.96 344.05 248.563L344.175 248.839L344.05 248.563C358.417 242.044 363.588 226.962 359.346 212.13C359.388 212.472 359.42 212.815 359.442 213.16L359.442 213.16C359.507 214.194 359.153 214.996 358.557 215.535C357.969 216.067 357.171 216.321 356.374 216.319C355.858 216.318 355.33 216.208 354.848 215.99C356.982 226.521 353.858 237.743 343.598 242.941C337.688 245.936 331.413 246.625 324.992 244.945C317.295 242.93 312.5 238.97 308.406 232.211C304.484 225.735 303.532 219.171 306.139 211.933L306.424 212.036L306.139 211.933C308.271 206.012 312.339 200.799 318.035 197.884C324.742 194.45 334.06 192.48 340.896 196.913L340.896 196.913C343.543 198.63 346.59 200.961 349.032 203.72C351.204 206.173 352.917 208.986 353.422 212.025C353.471 211.555 353.63 211.132 353.872 210.764C354.316 210.092 355.025 209.632 355.795 209.421C356.565 209.21 357.417 209.243 358.157 209.585Z" fill="black" stroke="black" stroke-width="0.60586"/>
<path d="M319.772 209.416L319.772 209.416C320.899 208.151 320.55 206.583 319.595 205.624C319.118 205.146 318.509 204.843 317.891 204.811C317.283 204.779 316.636 205.009 316.061 205.655L316.061 205.655C308.291 214.379 309.122 226.784 315.139 236.342C316.04 237.773 317.622 237.846 318.791 237.166C319.374 236.827 319.829 236.311 320.026 235.712C320.22 235.122 320.174 234.426 319.712 233.693C315.108 226.379 313.526 216.431 319.772 209.416Z" fill="black" stroke="black" stroke-width="0.60586"/>
</g>
<path d="M624.564 223.124C623.412 216.909 620.281 211.264 615.663 207.075C611.045 202.886 605.201 200.391 599.051 199.982C592.988 199.659 586.978 201.295 581.867 204.659C576.756 208.024 572.801 212.948 570.558 218.739C565.302 231.748 569.19 246.108 579.05 255.493C580.329 262.057 580.035 268.895 580.444 275.616C580.458 275.793 580.501 275.966 580.572 276.128C580.572 276.128 580.572 276.128 580.572 276.207C580.588 276.253 580.609 276.297 580.636 276.338C580.745 276.591 580.925 276.804 581.152 276.952C581.38 277.099 581.646 277.173 581.915 277.165C585.112 277.165 588.309 277.165 591.506 277.047C591.422 277.325 591.422 277.622 591.506 277.9C591.947 279.803 593.052 281.473 594.612 282.595C596.173 283.718 598.079 284.214 599.972 283.991C601.886 283.831 603.715 283.104 605.235 281.9C606.756 280.696 607.904 279.065 608.54 277.204C608.642 276.951 608.673 276.674 608.63 276.404C610.011 276.325 611.405 276.246 612.799 276.141C612.95 276.132 613.098 276.091 613.234 276.023H613.4C613.66 275.927 613.883 275.747 614.035 275.511C614.187 275.274 614.26 274.993 614.244 274.71C614.244 268.397 613.63 262.096 613.579 255.782C620.293 246.764 626.854 234.609 624.564 223.124ZM582.963 264.222C583.112 264.243 583.262 264.243 583.411 264.222C592.286 263.347 601.174 262.691 610.075 262.253L609.934 266.441C600.982 266.966 592.03 267.622 583.078 267.753C583.117 266.625 583.066 265.417 582.963 264.222ZM590.099 227.232L590.214 227.376C590.786 228.969 591.214 230.613 591.493 232.286C590.364 232.541 589.191 232.505 588.079 232.181C582.759 229.989 588.258 224.16 590.138 227.232H590.099ZM594.831 234.504C596.946 233.606 598.968 232.494 600.867 231.183L600.944 231.118C601.057 231.091 601.164 231.047 601.264 230.986L601.519 230.842C603.169 240.201 601.519 250.348 600.88 259.786C598.391 259.952 595.897 260.136 593.399 260.337C593.399 260.337 593.399 260.258 593.399 260.219C594.115 252.33 595.752 242.971 594.869 234.504H594.831ZM602.811 224.436C602.722 223.662 603.489 219.737 605.177 221.325C606.302 222.388 604.576 224.659 603.898 225.421C603.681 225.657 603.438 225.867 603.195 226.09C603.023 225.553 602.907 224.998 602.849 224.436H602.811ZM609.819 271.875C600.995 272.269 592.171 272.575 583.347 272.794C583.347 272.164 583.347 271.481 583.283 270.917C592.235 270.759 601.033 270.103 609.896 269.604L609.819 271.875ZM572.732 221.378C574.556 215.787 578.121 210.968 582.877 207.664C587.634 204.359 593.317 202.753 599.051 203.093C605.065 203.557 610.71 206.249 614.935 210.666C614.977 210.851 615.046 211.028 615.139 211.192C617.787 215.453 619.361 220.324 619.718 225.365C620.075 230.406 619.205 235.46 617.185 240.07C614.257 247.106 608.54 250.873 609.487 259.051C609.487 259.142 609.487 259.195 609.487 259.274L604.947 259.549C604.941 259.523 604.941 259.497 604.947 259.471C607.057 248.969 608.783 238.534 605.471 228.112C606.493 227.187 607.312 226.05 607.875 224.777C608.847 222.441 608.694 219.645 606.187 218.477C605.094 218.06 603.887 218.088 602.813 218.554C601.739 219.02 600.878 219.889 600.407 220.984C599.307 223.229 599.857 225.644 600.675 227.902L599.793 228.387C599.665 228.438 599.541 228.499 599.422 228.571C597.845 229.644 596.191 230.592 594.473 231.406C594.188 229.709 593.76 228.04 593.194 226.418C593.147 226.281 593.078 226.152 592.989 226.038C592.947 225.911 592.896 225.789 592.836 225.67C589.166 219.684 581.915 225.25 583.245 231.144C583.846 234.242 586.8 235.423 589.716 235.515C590.452 235.531 591.189 235.474 591.915 235.344C592.644 243.535 591.084 252.606 590.47 260.284C590.457 260.407 590.457 260.53 590.47 260.652C588.117 260.849 585.751 261.02 583.398 261.243C583.178 261.262 582.965 261.33 582.771 261.44C582.606 259.161 582.307 256.895 581.876 254.653C581.82 254.345 581.667 254.064 581.441 253.853C581.363 253.695 581.26 253.553 581.135 253.432C572.605 245.15 568.806 232.981 572.732 221.378ZM594.473 277.126V277.034C597.517 276.955 600.56 276.85 603.604 276.693C603.058 277.413 602.436 278.069 601.75 278.648C600.761 279.573 599.587 280.263 598.31 280.67L598.118 280.749C597.229 280.582 596.409 280.15 595.76 279.505C595.111 278.86 594.663 278.032 594.473 277.126Z" fill="black" stroke="black" stroke-width="0.60586"/>
<path d="M595.292 190.129C594.495 186.36 594.043 182.535 593.94 178.696C593.908 178.37 593.746 178.068 593.486 177.848C593.226 177.627 592.886 177.505 592.534 177.505C592.182 177.505 591.843 177.627 591.583 177.848C591.323 178.068 591.161 178.37 591.129 178.696C591.239 182.771 591.724 186.83 592.576 190.829C592.923 192.473 595.639 191.773 595.292 190.129Z" fill="black" stroke="black" stroke-width="0.908791"/>
<path d="M624.531 196.233C626.864 192.937 629.086 189.567 631.194 186.123C632.059 184.717 629.908 183.42 629.086 184.816C626.977 188.266 624.756 191.636 622.422 194.925C621.431 196.266 623.592 197.585 624.531 196.233Z" fill="black" stroke="black" stroke-width="0.908791"/>
<path d="M646.218 211.217C644.406 212.336 641.911 212.785 639.917 213.466L633.161 215.775C631.532 216.334 632.227 219.105 633.879 218.534L641.592 215.897C643.647 215.384 645.648 214.647 647.562 213.697C647.85 213.496 648.056 213.186 648.136 212.828C648.216 212.471 648.164 212.095 647.992 211.777C647.82 211.459 647.539 211.224 647.209 211.12C646.879 211.016 646.524 211.051 646.218 211.217Z" fill="black" stroke="black" stroke-width="0.908791"/>
<path d="M558.996 192.145C557.747 190.917 555.89 192.968 557.161 194.184C560.06 196.979 562.824 199.942 565.441 203.062C566.546 204.425 568.425 202.375 567.287 201.024C564.672 197.898 561.904 194.933 558.996 192.145Z" fill="black" stroke="black" stroke-width="0.908791"/>
<path d="M561.54 219.136C556.954 218.434 552.347 217.98 547.718 217.773C546.318 217.701 546.318 220.522 547.718 220.582C552.341 220.789 556.948 221.247 561.54 221.957C562.967 222.148 562.958 219.327 561.54 219.136Z" fill="black" stroke="black" stroke-width="0.908791"/>
<g clip-path="url(#clip1)">
<path fill-rule="evenodd" clip-rule="evenodd" d="M825.399 229.808C826.841 223.653 833.422 221.734 834.355 221.48C834.848 221.344 838.639 220.367 842.273 221.505C844.756 219.834 846.945 217.955 848.791 215.909C849.141 215.52 849.457 215.153 849.79 214.764C850.677 213.728 851.596 212.655 853.073 211.351C854.463 210.126 855.974 209.029 857.583 208.072C857.087 206.968 856.773 205.753 856.692 204.445C856.375 199.203 859.95 194.266 864.902 192.943C871.051 191.302 875.86 196.157 876.527 196.852C877.023 197.373 882.106 202.846 879.826 208.701C877.884 213.693 871.815 215.825 866.943 215.022C864.866 214.679 862.753 213.763 860.989 212.366C859.441 213.228 858.001 214.244 856.692 215.398C855.5 216.449 854.779 217.292 853.942 218.269C853.602 218.666 853.25 219.077 852.852 219.519C851.124 221.434 849.148 223.215 846.952 224.839C849.17 227.944 849.09 232.114 847.646 235.548C849.5 237.871 851.555 239.847 853.76 241.422C854.127 241.686 854.475 241.921 854.842 242.168C855.84 242.843 856.873 243.542 858.167 244.711C859.086 245.542 859.947 246.439 860.745 247.396C865.927 242.667 873.176 244.902 874.197 245.234C874.966 245.486 882.899 248.214 883.775 255.189C884.523 261.135 879.671 266.43 874.435 268.2C869.221 269.96 862.146 268.728 858.68 263.152C856.643 259.874 856.324 255.847 857.521 252.36C856.61 251.057 855.563 249.869 854.401 248.82C853.397 247.911 852.607 247.377 851.692 246.758C851.31 246.5 850.917 246.234 850.491 245.929C848.269 244.34 846.183 242.423 844.28 240.219C841.061 243.011 836.218 244.465 831.741 242.42C826.935 240.225 824.237 234.768 825.399 229.808ZM868.006 210.546C870.442 210.928 873.311 209.886 874.524 207.643C876.267 204.426 873.586 200.617 871.584 198.95C870.83 198.323 868.729 196.573 866.353 197.15C863.691 197.795 862.259 200.982 862.268 203.488C862.281 206.606 864.527 210.001 868.006 210.546ZM863.671 259.276C865.345 262.347 869.373 264.516 873.096 263.224C875.703 262.32 877.977 259.784 877.979 256.933C877.981 252.844 873.305 250.494 870.44 249.902C869.363 249.68 866.356 249.057 864.319 250.876C862.036 252.912 862.324 256.809 863.671 259.276ZM833.521 237.089C836.297 238.55 840.372 238.185 842.498 235.397C843.986 233.447 844.413 230.443 842.994 228.323C840.959 225.28 836.311 225.828 833.885 226.794C832.975 227.157 830.428 228.171 829.82 230.522C829.136 233.159 831.291 235.914 833.521 237.089Z" fill="black"/>
</g>
<path d="M685.756 96.5992L653.825 98.6786L652.436 73.0337L647.577 70.9544V64.0233L651.048 58.4785L657.99 59.1716L659.378 56.3992L664.237 49.4681H670.485L676.732 53.6268L681.591 51.5475L687.144 52.9337L692.003 59.8647L689.227 66.1026L685.756 69.5682V96.5992Z" fill="#F7941D"/>
<path d="M683.756 95.0955C683.53 95.1452 683.292 95.2135 683.089 95.2727L683.039 95.2874C682.925 95.3207 682.823 95.3504 682.739 95.3727C682.691 95.3854 682.651 95.395 682.619 95.4012C682.603 95.4044 682.591 95.4064 682.582 95.4076C682.572 95.4089 682.568 95.4089 682.569 95.4089H682.552L682.535 95.4117C682.038 95.4946 681.54 95.558 681.048 95.6208L680.955 95.6327C680.519 95.6883 680.088 95.7443 679.669 95.8136C679.744 92.0639 679.547 88.2536 679.308 84.45C679.263 83.7294 679.216 83.0092 679.169 82.2896C678.964 79.1248 678.759 75.9731 678.687 72.8651C678.686 72.3848 678.494 72.0114 678.197 71.7612C677.905 71.5144 677.523 71.3963 677.149 71.3963C676.775 71.3963 676.393 71.5144 676.1 71.7612C675.804 72.0118 675.611 72.386 675.611 72.8675H675.611L675.611 72.8722C675.65 74.5538 675.667 76.2543 675.685 77.9649C675.748 84.028 675.811 90.2185 676.821 96.1445C676.097 96.2215 675.372 96.282 674.644 96.3426L674.643 96.3427C673.845 96.4091 673.045 96.4758 672.244 96.5647C671.536 96.609 670.805 96.6533 670.075 96.6976L670.073 96.6977L670.068 96.6979C669.413 96.7377 668.757 96.7774 668.118 96.8171C668.157 94.414 667.899 91.9658 667.646 89.5721C667.521 88.3947 667.398 87.2305 667.313 86.0913L667.313 86.0896C666.958 81.8305 666.781 77.575 666.958 73.3216C666.983 72.8642 666.822 72.5034 666.551 72.2597C666.285 72.0202 665.928 71.9072 665.576 71.9072C664.873 71.9072 664.112 72.3661 664.06 73.3004L664.06 73.3037C663.882 77.8457 664.06 82.3858 664.416 86.9224L664.416 86.9225C664.515 88.1801 664.578 89.4585 664.641 90.7436C664.741 92.8063 664.843 94.8863 665.099 96.9255C661.876 97.0104 658.645 97.1009 655.412 97.4297C655.588 89.2436 655.757 80.9606 655.14 72.7633L655.14 72.7632L655.14 72.7582C655.09 72.2675 654.869 71.815 654.51 71.5206C654.148 71.2228 653.658 71.0981 653.108 71.2471C652.269 71.4453 651.247 71.0273 650.342 70.3181C649.44 69.6123 648.716 68.6657 648.466 67.9157L648.466 67.9157L648.464 67.9105C647.779 66.0274 648.208 63.8878 649.576 62.4345L649.577 62.4338C651.986 59.8524 655.439 59.747 658.686 60.8874C659.111 61.0457 659.574 60.9617 659.946 60.7508C660.318 60.5398 660.627 60.1868 660.732 59.7669L660.732 59.7669L660.734 59.761C660.836 59.2914 660.925 58.809 661.014 58.3296C661.059 58.0807 661.105 57.8326 661.152 57.5876C661.292 56.8653 661.448 56.1597 661.672 55.4953C662.117 54.1714 662.824 53.0222 664.187 52.2551C667.809 50.2722 672.299 51.9093 673.94 55.624L673.94 55.624L673.944 55.6328C674.205 56.1532 674.699 56.4076 675.201 56.4453C675.698 56.4825 676.223 56.3108 676.58 55.9552C679.209 53.5008 682.769 53.6214 685.473 55.2502C688.178 56.8798 689.985 59.9946 689.123 63.4882L683.756 95.0955ZM683.756 95.0955C683.384 92.7768 683.365 90.2985 683.43 87.8228C683.451 87.0217 683.481 86.2218 683.51 85.4274C683.575 83.6896 683.638 81.9778 683.608 80.3355C683.519 76.6067 683.43 72.9667 683.342 69.3266L683.341 69.3184L683.341 69.3134H683.341C683.341 68.5037 683.942 67.8074 684.643 67.6062C686.649 66.9953 688.614 65.5236 689.123 63.4887L683.756 95.0955ZM692.544 60.5687L692.544 60.5673C691.777 56.5523 689.273 53.3448 686.095 51.6939C682.965 50.0677 679.182 49.9532 675.781 52.0657C673.394 48.8154 669.033 47.2521 665.108 48.144L665.107 48.1442C662.571 48.7331 660.948 49.9621 659.852 51.595C658.796 53.1678 658.236 55.104 657.798 57.1658C655.058 56.6349 652.076 56.9413 649.625 58.1448C647.109 59.3804 645.15 61.5639 644.604 64.7472H644.604L644.604 64.7481C644.237 66.9488 645.017 69.3154 646.432 71.1384C647.809 72.9117 649.81 74.1986 651.993 74.3099C652.685 82.2178 652.686 90.2993 652.599 98.2159C652.282 98.704 652.215 99.3068 652.425 99.8131C652.647 100.348 653.165 100.746 653.945 100.794L653.945 100.795H653.958H653.959H653.96H653.961H653.962H653.963H653.964H653.965H653.966H653.968H653.969H653.97H653.971H653.972H653.973H653.974H653.975H653.976H653.977H653.978H653.979H653.98H653.981H653.982H653.983H653.984H653.985H653.986H653.987H653.988H653.989H653.99H653.991H653.993H653.994H653.995H653.996H653.997H653.998H653.999H654H654.001H654.002H654.003H654.004H654.005H654.006H654.007H654.008H654.009H654.01H654.011H654.012H654.013H654.014H654.016H654.017H654.018H654.019H654.02H654.021H654.022H654.023H654.024H654.025H654.026H654.027H654.028H654.029H654.03H654.031H654.032H654.033H654.034H654.035H654.037H654.038H654.039H654.04H654.041H654.042H654.043H654.044H654.045H654.046H654.047H654.048H654.049H654.05H654.051H654.052H654.053H654.054H654.056H654.057H654.058H654.059H654.06H654.061H654.062H654.063H654.064H654.065H654.066H654.067H654.068H654.069H654.07H654.071H654.072H654.074H654.075H654.076H654.077H654.078H654.079H654.08H654.081H654.082H654.083H654.084H654.085H654.086H654.087H654.089H654.09H654.091H654.092H654.093H654.094H654.095H654.096H654.097H654.098H654.099H654.1H654.101H654.102H654.104H654.105H654.106H654.107H654.108H654.109H654.11H654.111H654.112H654.113H654.114H654.115H654.117H654.118H654.119H654.12H654.121H654.122H654.123H654.124H654.125H654.126H654.127H654.129H654.13H654.131H654.132H654.133H654.134H654.135H654.136H654.137H654.138H654.14H654.141H654.142H654.143H654.144H654.145H654.146H654.147H654.148H654.149H654.151H654.152H654.153H654.154H654.155H654.156H654.157H654.158H654.159H654.161H654.162H654.163H654.164H654.165H654.166H654.167H654.168H654.169H654.171H654.172H654.173H654.174H654.175H654.176H654.177H654.178H654.18H654.181H654.182H654.183H654.184H654.185H654.186H654.187H654.189H654.19H654.191H654.192H654.193H654.194H654.195H654.197H654.198H654.199H654.2H654.201H654.202H654.203H654.205H654.206H654.207H654.208H654.209H654.21H654.211H654.213H654.214H654.215H654.216H654.217H654.218H654.22H654.221H654.222H654.223H654.224H654.225H654.226H654.228H654.229H654.23H654.231H654.232H654.233H654.235H654.236H654.237H654.238H654.239H654.24H654.242H654.243H654.244H654.245H654.246H654.248H654.249H654.25H654.251H654.252H654.253H654.255H654.256H654.257H654.258H654.259H654.261H654.262H654.263H654.264H654.265H654.267H654.268H654.269H654.27H654.271H654.273H654.274H654.275H654.276H654.277H654.279H654.28H654.281H654.282H654.284H654.285H654.286H654.287H654.288H654.29H654.291H654.292H654.293H654.295H654.296H654.297H654.298H654.299H654.301H654.302H654.303H654.304H654.306H654.307H654.308H654.309H654.311H654.312H654.313H654.314H654.316H654.317H654.318H654.319H654.321H654.322H654.323H654.324H654.326H654.327H654.328H654.329H654.331H654.332H654.333H654.334H654.336H654.337H654.338H654.339H654.341H654.342H654.343H654.345H654.346H654.347H654.348H654.35H654.351H654.352H654.354H654.355H654.356H654.357H654.359H654.36H654.361H654.363H654.364H654.365H654.366H654.368H654.369H654.37H654.372H654.373H654.374H654.376H654.377H654.378H654.38H654.381H654.382H654.384H654.385H654.386H654.387H654.389H654.39L654.908 107.795C654.913 108.518 655.527 109.236 656.357 109.236C660.453 109.236 664.462 109.065 668.548 108.891L668.804 108.88C668.804 108.88 668.805 108.88 668.805 108.88C669.986 108.837 671.287 108.852 672.649 108.869L672.693 108.869C674.069 108.886 675.506 108.903 676.933 108.858C679.78 108.769 682.612 108.436 684.873 107.353C685.148 107.24 685.377 107.002 685.526 106.73C685.674 106.457 685.755 106.126 685.705 105.808C685.635 104.83 685.593 103.842 685.55 102.851C685.488 101.399 685.425 99.9402 685.276 98.4921C686.213 98.0394 686.927 97.4037 687.206 96.5673L687.206 96.5675L687.21 96.5553C687.396 95.8583 687.417 95.0109 687.394 94.1757C687.385 93.8129 687.367 93.4566 687.35 93.112C687.327 92.6464 687.305 92.2024 687.305 91.7933C687.305 90.2813 687.283 88.7696 687.261 87.2597L687.261 87.2587C687.239 85.748 687.217 84.239 687.217 82.7302L687.217 82.7259C687.172 80.644 687.128 78.5728 687.083 76.5016C687.04 74.4807 686.996 72.4598 686.953 70.4291C690.868 68.8518 693.355 64.9793 692.544 60.5687ZM657.521 106.325L657.026 100.88C662.822 100.788 668.704 100.521 674.413 99.9942L674.413 99.9943L674.418 99.9937C675.031 99.9217 675.942 99.894 677.011 99.8616C677.241 99.8546 677.479 99.8474 677.722 99.8395C679.017 99.7974 680.468 99.7352 681.834 99.5766C681.841 99.8059 681.856 100.045 681.871 100.29L681.876 100.358C681.898 100.714 681.92 101.086 681.92 101.478C681.92 101.632 681.962 101.913 682.015 102.235C682.031 102.329 682.048 102.429 682.065 102.532C682.109 102.792 682.156 103.075 682.2 103.364C682.26 103.767 682.312 104.173 682.332 104.526C682.343 104.707 682.344 104.866 682.337 105C682.238 104.964 682.124 104.939 682.004 104.92C681.678 104.869 681.248 104.855 680.811 104.861C679.946 104.872 679.011 104.96 678.722 105.007C677.75 105.095 676.777 105.161 675.802 105.228L675.801 105.228C674.825 105.294 673.846 105.361 672.868 105.45C670.294 105.627 667.697 105.761 665.099 105.894L665.098 105.894C662.567 106.024 660.034 106.154 657.521 106.325Z" fill="black" stroke="black" stroke-width="0.410087"/>
<path d="M669.528 75.3554L669.528 75.3574C669.562 76.532 669.583 77.7169 669.604 78.9078C669.693 83.9267 669.784 89.0499 670.862 93.9398C670.933 94.2913 671.122 94.5357 671.368 94.679C671.613 94.8215 671.91 94.8616 672.195 94.8151C672.764 94.7223 673.308 94.2785 673.308 93.5709C673.352 90.5466 673.152 87.5009 672.919 84.4576C672.882 83.9729 672.844 83.4882 672.806 83.0037C672.605 80.4454 672.405 77.8916 672.33 75.3534L672.33 75.3534L672.33 75.3518C672.284 74.4634 671.579 74.0209 670.896 74.0209C670.554 74.0209 670.213 74.1308 669.956 74.3542C669.697 74.5787 669.528 74.9144 669.528 75.3554Z" fill="black" stroke="black" stroke-width="0.136696"/>
<path d="M367.89 56.2836L378.672 65.7175L391.475 54.9359L402.931 58.3052L405.626 70.4345L394.844 88.6285L380.694 102.779L357.783 71.7822L359.13 60.3267L367.89 56.2836Z" fill="#F7941D"/>
<path d="M381.789 100.287C376.2 93.2396 370.13 86.6132 365.007 79.1961C362.901 76.1483 361.383 72.798 360.291 69.2658C358.371 63.1981 361.163 59.8979 368.668 59.3634C372.928 60.2692 375.254 64.4974 375.937 68.3489C376.444 71.2222 380.511 70.7841 381.272 68.3489C385.5 54.8103 408.146 54.6451 402.492 71.6138C398.808 82.6689 387.973 93.6554 379.107 100.905C376.337 103.17 380.276 107.086 383.019 104.842C394 95.8641 414.249 76.0537 407.803 60.0464C401.498 44.3863 379.616 55.0831 375.938 66.8677C377.716 66.8677 379.494 66.8677 381.274 66.8677C379.347 55.9945 360.802 46.0902 355.518 60.1652C349.422 76.4008 369.07 93.1226 377.875 104.224C380.101 107.031 383.989 103.064 381.789 100.287Z" fill="black"/>
<path d="M946.941 53.5691L934.638 61.7708L929.17 71.3395L927.803 83.6421L936.005 100.046L946.941 106.88L962.661 105.513L974.963 100.046L982.482 87.743L984.532 78.8578L982.482 67.2387L974.963 56.303L964.711 53.5691H946.941Z" fill="#F7941D"/>
<path d="M944.207 66.8969V92.5273L947.624 93.2108L971.546 78.8577L944.207 66.8969Z" fill="#FEF4E8"/>
<path d="M966.244 73.9548C963.631 72.8663 961.019 71.6689 958.515 70.4716C954.161 68.5122 949.916 66.444 945.453 64.8112C945.235 64.7024 945.018 64.5935 944.8 64.5935C943.929 64.3758 943.276 64.7024 942.841 65.3555C940.99 66.6617 941.099 68.6211 941.208 71.1247C941.317 77.3293 941.317 83.5338 941.643 89.7384C942.079 100.841 953.617 93.1129 958.951 89.9561C961.345 88.5411 963.74 87.126 966.135 85.602C968.094 84.4047 970.816 83.5338 972.34 81.7922C973.972 80.0506 973.864 78.0912 972.122 76.4584C970.598 75.1522 967.985 74.7168 966.244 73.9548ZM967.224 79.8329C965.808 80.7037 964.393 81.4657 963.087 82.3365C960.475 83.9693 957.862 85.602 955.141 87.0171C953.726 87.7791 952.42 88.6499 951.005 89.303C950.46 89.6296 949.807 89.8473 949.263 90.1738C946.868 91.5889 945.78 91.4801 946.106 89.6296C945.018 87.4525 945.997 81.7922 945.888 79.2886C945.888 78.4178 945.344 71.7778 945.453 69.383C950.243 71.3424 954.923 73.6283 959.713 75.8053C961.781 76.785 964.285 78.3089 966.57 78.7443C968.747 79.1798 969.618 78.3089 967.224 79.8329Z" fill="black"/>
<path d="M985.62 74.2813C984.313 65.1377 979.088 54.7968 969.618 52.2932C969.509 52.1843 969.292 52.0755 969.074 52.0755C960.475 49.7896 952.311 49.0276 944.038 52.6197C936.309 55.9941 929.887 60.8925 926.948 68.9476C922.812 80.4859 926.622 96.9226 936.636 104.542C946.977 112.38 965.917 108.57 975.605 100.841C983.66 94.5279 986.926 84.2958 985.62 74.2813ZM977.456 92.4597C971.251 101.603 959.168 104.325 948.719 103.998C936.854 103.671 930.54 91.6977 929.669 81.0302C928.907 71.1246 933.588 62.9607 942.187 58.28C950.678 53.5994 958.624 53.5994 967.985 55.8853C968.094 55.8853 968.203 55.8853 968.203 55.8853C981.701 61.1102 984.966 81.4656 977.456 92.4597Z" fill="black"/>
<path d="M509.36 73.7929H498.555L496.529 100.107L499.906 104.83L508.685 103.48L510.711 98.7574L515.438 100.107L524.218 103.48H541.777L547.855 98.7574L547.179 94.7091L551.907 89.3114L549.881 85.2631L553.257 77.8412L551.907 73.7929L535.699 71.7688L531.647 53.5515L528.27 52.202L521.516 69.0699L515.438 76.4918L509.36 78.5159V73.7929Z" fill="#F7941D"/>
<path d="M507.806 73.3899H496.87V104.83L507.806 102.779V73.3899Z" fill="#FEF4E8"/>
<path fill-rule="evenodd" clip-rule="evenodd" d="M555.114 76.4295C554.902 75.6518 554.826 74.7526 554.447 74.025C554.281 73.706 554.074 73.5634 553.907 73.31C553.787 73.1249 553.864 73.0093 553.686 72.8271C553.563 72.7019 553.2 72.5535 553.145 72.4108C552.97 71.9598 552.112 71.6003 551.736 71.504C550.765 71.2553 549.84 70.8968 548.809 70.7841C546.345 70.5152 543.807 70.9161 541.36 70.5316C539.57 70.2502 537.463 70.0671 535.893 69.2055C535.188 68.8172 534.991 68.2784 535.049 67.4439C535.149 66.0089 535.071 64.5768 535.054 63.1409C535.04 61.8891 535.325 60.7018 535.359 59.4615C535.397 58.0988 535.122 56.5858 535.373 55.2462C535.537 54.3673 535.01 53.4508 534.687 52.6211C534.545 52.2577 534.533 52.0351 534.297 51.6949C533.984 51.243 533.491 51.0425 533.16 50.6532C531.927 49.2057 529.836 49.4909 528.181 49.4909C525.869 49.4919 523.93 51.5504 523.347 53.9346C523.139 54.774 522.35 55.6269 522.301 56.4798C522.289 56.7168 522.05 56.9481 521.98 57.137C521.912 57.3172 521.776 58.278 521.618 58.3484C521.502 58.4004 521.182 60.1149 521.095 60.3394C520.575 61.6963 520.14 63.0773 519.647 64.4448C518.448 67.8428 517.389 72.0851 514.259 74.2149C513.766 74.5522 513.024 74.8962 512.652 75.3646C512.509 75.54 511.641 75.4465 511.433 75.4436C510.73 75.433 510.828 74.6698 510.641 74.1339C510.44 73.5037 509.951 72.5467 509.336 72.2142C508.531 71.7796 507.545 71.5281 506.662 71.3854C503.916 70.9421 501.135 71.1435 498.376 71.2785C497.184 71.3363 495.478 71.5117 495.12 72.9842C495.001 73.4699 494.866 73.9267 494.819 74.4317C494.756 75.1063 494.909 75.7626 494.878 76.4324C494.817 77.7488 494.387 79.0315 494.39 80.374C494.392 81.4051 494.348 82.5818 494.414 83.6766C494.499 85.0807 494.67 86.4501 494.435 87.8504C494.033 90.2356 494.215 92.7104 493.972 95.1216C493.868 96.1528 493.968 97.1656 493.842 98.2083C493.66 99.705 494.053 100.998 494.193 102.469C494.364 104.272 495.208 106.273 497.131 106.482C497.794 106.565 498.578 106.748 499.247 106.745C500.508 106.74 501.866 107.038 503.113 106.765C505.015 106.349 507.271 105.935 508.919 104.82C509.428 104.476 509.713 103.847 509.841 103.255C509.903 102.971 510.006 102.326 510.241 102.13C510.212 102.153 510.362 101.603 510.319 101.732C510.499 101.205 510.845 101.485 511.24 101.632C512.703 102.178 513.853 103.103 515.236 103.535C515.969 103.763 516.73 103.991 517.451 104.179C518.013 104.327 518.596 104.444 519.133 104.676C519.387 104.786 520.039 105.12 520.291 105.09C520.597 105.054 521.246 105.282 521.582 105.332C521.995 105.393 522.409 105.499 522.845 105.52C524.015 105.578 525.203 106.039 526.407 106.152C527.048 106.212 533.67 106.393 533.646 106.031C533.637 105.908 536.215 105.692 536.476 105.688C537.508 105.673 538.49 105.348 539.513 105.303C541.256 105.226 542.816 104.142 544.492 103.82C544.864 103.749 545.36 103.349 545.709 103.196C546.006 103.067 546.271 102.808 546.513 102.621C546.797 102.4 547.118 102.247 547.406 102.03C547.636 101.857 547.763 101.679 547.88 101.553C548.465 100.933 549.029 100.05 549.265 99.1894C549.495 98.3462 549.583 97.4769 549.216 96.6963C549.125 96.5045 549.095 96.3272 549.006 96.1344C548.936 95.9851 548.722 95.7509 548.684 95.642C548.428 94.9134 548.779 94.0345 549.532 93.8302C550.197 93.65 550.549 92.773 550.997 92.2931C551.353 91.9134 552.002 91.6966 552.142 91.126C552.364 90.224 552.875 89.3885 553.129 88.473C553.388 87.5382 553.539 86.5494 553.059 85.6734C552.738 85.0884 552.226 84.4186 552.076 83.7643C552.001 83.4385 551.791 83.1735 551.723 82.8719C551.63 82.4604 552.136 82.2127 552.383 82.0132C552.694 81.7617 552.977 81.5564 553.326 81.3492C553.727 81.1112 553.76 80.7729 554.057 80.4906C554.377 80.1851 554.569 79.7446 554.792 79.364C555.393 78.3309 555.424 77.5686 555.114 76.4295C555.038 76.151 555.207 76.7706 555.114 76.4295ZM507.181 94.5752C507.137 95.3731 507.121 96.2867 507.14 97.1531C507.158 97.9915 507.303 99.2752 506.939 100.076C506.823 100.329 505.577 101.136 505.574 101.104C505.6 101.307 504.154 101.744 504.044 101.883C503.641 102.386 501.799 102.144 501.256 102.134C500.67 102.124 500.084 102.16 499.499 102.15C498.681 102.136 498.192 102.064 498.08 101.156C497.83 99.1162 497.763 96.809 498.047 94.792C498.179 93.8524 498.237 92.8068 498.273 91.8604C498.294 91.3092 498.251 90.7627 498.286 90.2096C498.328 89.5475 498.566 88.9326 498.597 88.2754C498.714 85.7023 498.513 83.107 498.576 80.5349C498.601 79.4449 498.951 78.276 498.895 77.2091C498.869 76.7128 499.102 75.7616 499.459 75.3617C500.03 74.7266 501.21 74.6977 501.966 74.8143C502.773 74.9386 503.493 74.9926 504.293 75.0475C504.84 75.0851 505.518 75.0244 505.928 75.46C506.268 75.8204 506.333 76.2926 506.412 76.7523C506.49 77.2091 506.307 78.7173 506.653 78.9978C506.929 79.2204 506.912 81.0196 506.893 81.3791C506.659 85.7784 507.434 90.17 507.181 94.5752ZM550.691 78.4822C550.104 79.2339 549.23 79.5972 548.732 80.3942C548.401 80.9213 547.915 81.1488 547.554 81.6027C547.384 81.8166 547.273 82.1722 547.177 82.4064C546.925 83.0174 546.808 84.1228 546.964 84.7877C547.217 85.8594 547.881 86.4309 548.519 87.2683C548.859 87.7116 549.249 88.2166 549.155 88.8074C549.055 89.4396 548.517 90.4206 548.003 90.7897C547.409 91.2157 546.443 91.579 545.986 92.1514C545.878 92.2883 545.53 92.455 545.358 92.5475C544.915 92.7856 544.294 93.2684 544.097 93.7541C543.76 94.5713 543.73 96.384 544.097 97.2022C544.385 97.8585 545.132 98.351 545.235 99.1412C545.328 99.8582 543.79 100.082 543.319 100.275C542.244 100.714 541.117 100.753 539.983 100.943C538.726 101.154 537.482 101.177 536.229 101.417C535.014 101.652 533.821 101.463 532.649 101.608C530.802 101.838 528.965 101.658 527.027 101.449C526.498 101.392 525.965 101.369 525.437 101.308C524.862 101.242 524.415 101.041 523.866 100.893C523.574 100.815 520.601 100.225 520.611 100.116C520.626 99.9623 518.779 99.4737 518.601 99.4197C517.899 99.2048 517.181 98.9851 516.511 98.7018C515.805 98.4021 515.158 98.0937 514.418 97.8604C513.808 97.6667 513.267 97.208 512.77 97.0345C512.489 96.9362 512.358 96.7888 512.063 96.7175C511.784 96.65 511.508 96.5402 511.263 96.386C510.921 96.173 511.014 95.8694 511 95.4974C510.941 93.9516 511.056 92.4068 511.051 90.862C511.048 89.4588 510.832 88.0798 510.761 86.6824C510.729 86.0434 510.679 85.4035 510.663 84.7636C510.646 84.0177 510.95 83.4559 511.041 82.7533C511.135 82.0392 510.678 79.5596 511.763 79.5876C512.282 79.6011 513.032 79.2348 513.534 79.0585C514.047 78.8812 514.494 78.6479 514.982 78.4012C515.213 78.2846 516.242 77.9627 516.292 77.6939C516.329 77.4847 517.029 77.2583 517.154 77.1696C518.005 76.5808 518.902 75.5834 519.76 74.689C520.014 74.424 520.595 73.8371 520.613 73.4748C520.633 73.0806 521.085 72.9148 521.257 72.6537C521.454 72.3482 521.454 71.9714 521.739 71.6688C522.263 71.1098 522.368 70.175 522.541 69.4705C522.587 69.2817 522.64 69.006 522.789 68.874C522.97 68.715 522.878 68.4326 522.946 68.2206C523.022 67.9787 523.151 67.7002 523.262 67.441C523.614 66.618 524.102 65.8162 524.313 64.9363C524.523 64.0825 524.642 63.2392 524.954 62.4008C525.166 61.8332 525.528 61.1875 525.68 60.6671C525.816 60.2161 525.896 59.847 526.083 59.4355C526.177 59.2215 526.176 58.5498 526.36 58.4255C526.45 58.3648 526.666 57.6882 526.726 57.5466C526.821 57.3211 526.757 56.8729 526.923 56.6947C527.414 56.1617 527.395 55.2587 527.852 54.6853C528.151 54.3085 528.099 53.8893 528.69 53.9336C529.037 53.9597 529.271 54.0917 529.541 54.2623C530.287 54.7306 530.434 55.5295 530.545 56.367C530.699 57.5292 530.391 58.7088 530.531 59.873C530.697 61.253 530.624 62.6899 530.683 64.0805C530.745 65.5454 530.81 67.0189 530.712 68.4837C530.661 69.2431 530.608 70.7793 531.249 71.371C531.517 71.6187 531.607 71.848 531.793 72.1612C532.043 72.5853 532.259 72.6421 532.597 72.9004C532.794 73.0517 533.2 73.1654 533.321 73.3109C533.464 73.4931 534.177 73.7542 534.54 73.8708C535.006 74.0202 535.695 74.2746 536.136 74.2968C536.413 74.3122 537.569 74.3739 537.683 74.584C537.835 74.8635 539.634 74.8259 539.93 74.8461C540.879 74.9126 541.837 74.9637 542.789 74.9637C544.281 74.9637 545.824 74.8211 547.295 75.115C548.303 75.3164 549.615 75.6576 550.291 76.5133C550.367 76.6116 550.605 77.0231 550.613 77.1706C550.622 77.3595 550.895 77.4703 550.972 77.6332C551.127 77.9685 550.88 78.2413 550.691 78.4822C550.597 78.6027 550.907 78.2066 550.691 78.4822Z" fill="black"/>
<path d="M238.208 54.9359L232.364 71.3567L212.885 73.2514L225.871 85.8828L221.326 104.83L238.208 92.1984L255.739 102.935L249.246 85.2512L264.829 73.2514L244.701 71.9883L238.208 54.9359Z" fill="#F7941D"/>
<path d="M240.142 52.5342L240.142 52.5342C240.781 51.3516 240.196 50.2349 239.303 49.713C238.857 49.452 238.328 49.336 237.829 49.4348C237.328 49.534 236.862 49.8487 236.544 50.4369C234.84 53.5893 233.677 56.9287 232.615 60.3032C232.369 61.0834 232.129 61.8654 231.889 62.6474C231.09 65.2493 230.29 67.8512 229.291 70.3895C229.045 71.0122 229.11 71.5535 229.368 71.9737C229.625 72.3917 230.069 72.6825 230.568 72.8178C231.565 73.0881 232.815 72.7434 233.301 71.5095C234.261 69.0718 235.021 66.5644 235.78 64.0625C235.999 63.3405 236.218 62.6189 236.441 61.8996C237.439 58.6858 238.531 55.5144 240.142 52.5342Z" fill="black" stroke="black" stroke-width="0.136696"/>
<path d="M241.521 69.595C241.491 69.6705 241.467 69.7478 241.449 69.8264C241.34 70.3037 241.453 70.8211 241.715 71.2669C242.239 72.1574 243.373 72.7865 244.588 72.2469C244.625 72.2304 244.663 72.2138 244.7 72.1972C244.714 72.1908 244.729 72.1845 244.743 72.1781C244.766 72.1679 244.789 72.1577 244.812 72.1476L244.812 72.1476C245.27 71.9437 245.546 71.5634 245.689 71.1328C245.832 70.7032 245.844 70.2205 245.776 69.8003C245.255 66.5567 244.21 63.5266 243.077 60.5278C242.853 59.9345 242.625 59.3426 242.398 58.7504C241.474 56.3478 240.55 53.9424 239.846 51.4348C239.666 50.7922 239.279 50.3744 238.809 50.1534C238.34 49.9333 237.794 49.9104 237.295 50.0473C236.796 50.1843 236.339 50.4825 236.053 50.9108C235.765 51.3407 235.651 51.8975 235.832 52.5423C236.537 55.0573 237.465 57.4696 238.388 59.872C238.616 60.4634 238.843 61.0542 239.066 61.6459C240.045 64.2379 240.957 66.8466 241.521 69.595Z" fill="black" stroke="black" stroke-width="0.136696"/>
<path d="M210.148 73.7023L210.148 73.7023C213.792 73.9966 217.429 73.8862 221.064 73.6946C221.978 73.6464 222.893 73.593 223.807 73.5397C226.526 73.381 229.245 73.2224 231.967 73.1991C232.635 73.1934 233.141 72.9291 233.479 72.5335C233.815 72.1391 233.982 71.618 233.982 71.1007C233.983 70.5833 233.816 70.0647 233.479 69.6757C233.141 69.2853 232.635 69.0297 231.966 69.0354L231.967 69.1037L231.966 69.0354C229.24 69.0588 226.517 69.2176 223.796 69.3764C222.883 69.4296 221.969 69.4829 221.056 69.5311C217.424 69.7226 213.794 69.8326 210.159 69.539C209.492 69.4851 208.987 69.7043 208.649 70.0725C208.313 70.439 208.149 70.9471 208.15 71.4642C208.153 72.4975 208.819 73.5947 210.148 73.7023Z" fill="black" stroke="black" stroke-width="0.136696"/>
<path d="M244.936 68.7738L244.936 68.7738C248.349 69.6447 251.825 69.5098 255.314 69.3744C255.399 69.3712 255.484 69.3679 255.569 69.3646C259.14 69.2266 262.725 69.1138 266.247 70.1166L266.229 70.1823L266.247 70.1166C266.889 70.2994 267.306 70.6886 267.527 71.1599C267.747 71.6296 267.77 72.1766 267.633 72.6757C267.496 73.1747 267.198 73.6307 266.77 73.9164C266.34 74.203 265.784 74.3149 265.139 74.1315C261.67 73.1436 258.113 73.2561 254.534 73.3929C254.457 73.3958 254.379 73.3988 254.302 73.4018C250.803 73.536 247.286 73.671 243.831 72.7896M244.936 68.7738L243.831 72.7896M244.936 68.7738C244.287 68.6084 243.728 68.734 243.297 69.0291C242.867 69.3233 242.568 69.7831 242.43 70.2821C242.293 70.781 242.316 71.3239 242.539 71.7853C242.762 72.2485 243.184 72.6244 243.831 72.7896M244.936 68.7738L243.848 72.7234L243.831 72.7896" fill="black" stroke="black" stroke-width="0.136696"/>
<path d="M249.307 86.5457L249.281 86.4824L249.307 86.5457C253.242 84.945 256.798 82.7255 260.37 80.464C261.013 80.0568 261.683 79.6717 262.358 79.2841C262.437 79.2389 262.515 79.1936 262.594 79.1482C263.348 78.7148 264.103 78.2749 264.825 77.7961C266.269 76.8385 267.584 75.7226 268.497 74.1817C268.839 73.6052 268.872 73.0379 268.705 72.5485C268.539 72.0608 268.174 71.6553 267.727 71.3947C267.28 71.1341 266.746 71.0158 266.236 71.1082C265.725 71.2009 265.242 71.505 264.902 72.0798C264.228 73.2178 263.129 74.0832 261.916 74.8314C261.309 75.2052 260.675 75.5487 260.054 75.8822C259.996 75.9132 259.938 75.9441 259.88 75.9749C259.319 76.2755 258.77 76.5696 258.265 76.8709L258.3 76.9296L258.265 76.8709C257.44 77.3632 256.626 77.8694 255.813 78.3747C253.346 79.9088 250.893 81.4345 248.185 82.5356L248.185 82.5357C246.959 83.0344 246.618 84.2903 246.888 85.2874C247.023 85.7867 247.313 86.2287 247.729 86.4825C248.148 86.7377 248.687 86.7976 249.307 86.5457Z" fill="black" stroke="black" stroke-width="0.136696"/>
<path d="M209.769 73.5825C213.414 76.1855 216.637 79.2726 219.865 82.3642C221.326 83.7628 222.787 85.1624 224.289 86.5184C225.283 87.4165 226.519 87.1271 227.251 86.3973C227.618 86.0321 227.863 85.5528 227.89 85.0489C227.918 84.5428 227.725 84.0188 227.228 83.5699C225.722 82.2097 224.25 80.8127 222.779 79.416C219.295 76.1085 215.813 72.803 211.881 69.9946C211.335 69.6051 210.791 69.5346 210.315 69.6796C209.842 69.8239 209.446 70.1789 209.186 70.6264C208.668 71.5204 208.687 72.8097 209.769 73.5825ZM209.769 73.5825L209.809 73.5269L209.769 73.5825C209.769 73.5825 209.769 73.5825 209.769 73.5825Z" fill="black" stroke="black" stroke-width="0.136696"/>
<path d="M222.733 105.73C223.216 103.762 223.583 101.736 223.951 99.7072C224.177 98.4594 224.403 97.2101 224.657 95.9717C225.324 92.715 226.183 89.524 227.726 86.5955C228.351 85.4077 227.761 84.2879 226.869 83.7657C226.422 83.5044 225.895 83.3889 225.398 83.4893C224.9 83.5902 224.439 83.9077 224.127 84.4995C222.48 87.6269 221.541 90.9759 220.807 94.3834C220.509 95.7689 220.245 97.1621 219.981 98.5541C219.594 100.591 219.209 102.624 218.717 104.628C218.558 105.277 218.688 105.837 218.986 106.269C219.282 106.699 219.743 106.999 220.242 107.136C220.741 107.274 221.283 107.25 221.741 107.027C222.202 106.803 222.573 106.38 222.733 105.73Z" fill="black" stroke="black" stroke-width="0.136696"/>
<path d="M237.123 90.2941L237.159 90.3524L237.123 90.2941C234.663 91.8045 232.573 93.9233 230.492 96.0335C230.147 96.3834 229.802 96.7331 229.455 97.0797C227.017 99.5201 224.507 101.812 221.34 103.005L221.34 103.005C220.096 103.474 219.747 104.716 220.018 105.713C220.153 106.213 220.445 106.658 220.865 106.919C221.287 107.181 221.831 107.253 222.458 107.017C225.937 105.706 228.603 103.357 231.16 100.872C231.552 100.492 231.941 100.109 232.33 99.7251C234.484 97.6011 236.638 95.4778 239.227 93.8879C239.795 93.5389 240.095 93.0501 240.184 92.5345C240.274 92.0207 240.155 91.4845 239.894 91.0373C239.634 90.5902 239.23 90.2277 238.745 90.0654C238.258 89.9025 237.694 89.9434 237.123 90.2941Z" fill="black" stroke="black" stroke-width="0.136696"/>
<path d="M237.501 94.5087L237.501 94.5087C236.161 94.458 235.492 93.3874 235.49 92.3535C235.49 91.8362 235.656 91.3219 235.992 90.9421C236.331 90.5608 236.837 90.3199 237.506 90.3451L237.506 90.3451C241.311 90.489 244.485 92.7816 247.15 95.3117L247.103 95.3613L247.15 95.3117C248.767 96.8466 250.471 98.275 252.183 99.697C252.322 99.8121 252.46 99.927 252.599 100.042C254.173 101.348 255.749 102.656 257.263 104.041L237.501 94.5087ZM237.501 94.5087C239.083 94.5684 240.527 95.2686 241.846 96.2221M237.501 94.5087L241.846 96.2221M245.476 99.3876L245.428 99.4363C245.428 99.4363 245.428 99.4363 245.428 99.4363M245.476 99.3876L257.263 104.041C257.757 104.493 257.948 105.019 257.919 105.527C257.89 106.032 257.644 106.512 257.278 106.877C256.546 107.607 255.312 107.894 254.323 106.989C253.052 105.826 251.703 104.745 250.352 103.663C250.182 103.528 250.012 103.392 249.843 103.256C248.324 102.036 246.815 100.802 245.428 99.4363M245.476 99.3876L245.428 99.4363M245.476 99.3876L245.428 99.4363M245.428 99.4363C245.345 99.3544 245.261 99.2716 245.177 99.1882M245.428 99.4363L245.177 99.1882M241.846 96.2221C243.063 97.1021 244.169 98.1936 245.177 99.1882M241.846 96.2221L245.177 99.1882" fill="black" stroke="black" stroke-width="0.136696"/>
<path d="M250.376 83.9939L250.376 83.9939C254.008 90.4852 256.981 97.3104 258.473 104.63C258.74 105.941 257.867 106.873 256.871 107.149C256.372 107.287 255.837 107.263 255.39 107.037C254.942 106.81 254.589 106.383 254.456 105.728M250.376 83.9939L246.78 86.0936C250.249 92.2933 253.033 98.7493 254.456 105.728M250.376 83.9939C250.05 83.4106 249.578 83.0999 249.073 83.0031C248.569 82.9067 248.039 83.0236 247.592 83.2846C247.145 83.5455 246.778 83.9531 246.604 84.4442C246.43 84.937 246.453 85.5096 246.78 86.0936L250.376 83.9939ZM254.456 105.728L254.523 105.714L254.456 105.728C254.456 105.728 254.456 105.728 254.456 105.728Z" fill="black" stroke="black" stroke-width="0.136696"/>
<path d="M787.001 106.182C791.071 104.194 795.236 102.49 799.401 100.787C800.726 100.219 801.957 99.84 802.998 98.988C807.068 95.6751 810.57 91.1315 814.262 87.4399C822.497 79.0155 831.395 69.5498 839.251 61.504C839.914 60.7467 839.63 59.8948 839.062 59.4215C837.831 54.594 834.14 51.849 829.596 49.8612C829.123 49.6719 828.555 49.6719 828.177 50.0505C817.67 60.2734 807.636 71.0643 797.508 81.6659C795.236 84.0323 792.302 86.304 790.503 89.0491C787.663 93.214 786.338 99.7453 784.918 104.478C784.445 105.803 785.865 106.75 787.001 106.182ZM812.463 84.9789C808.867 88.6705 805.459 92.4567 801.767 96.0537C801.01 95.0125 799.969 94.1605 799.022 93.3086C803.85 88.9544 808.109 83.7483 812.653 79.1101C817.386 74.188 822.024 69.3605 826.662 64.533C827.514 65.4796 828.366 66.4261 829.123 67.4674C829.218 67.562 829.312 67.6567 829.407 67.7513C823.822 73.4307 817.954 79.2994 812.463 84.9789ZM831.489 53.1742C834.329 54.4994 836.222 56.8658 837.169 59.8002C835.181 61.8826 833.004 64.0597 830.922 66.2368C829.786 64.6277 828.555 63.2078 827.135 61.8826C826.094 60.8414 824.769 59.6109 823.349 58.9483C824.58 57.7177 825.715 56.3925 826.851 55.162C828.555 53.2689 828.839 51.9437 831.489 53.1742ZM802.714 80.53C808.109 74.8506 813.505 69.2658 818.9 63.5864C819.847 62.5452 820.793 61.5986 821.74 60.5574C822.781 61.504 824.012 62.1666 825.053 63.1132C820.131 68.13 815.209 73.0521 810.286 77.9743C805.932 82.4231 800.915 86.7773 797.224 91.8888C796.088 91.0369 794.857 90.3743 793.627 89.901C796.372 86.588 799.685 83.559 802.714 80.53ZM791.45 94.3499C791.734 93.498 792.018 92.646 792.302 91.7941C792.396 91.7941 792.396 91.8888 792.491 91.8888C794.195 92.4567 795.804 93.6873 797.129 94.8231C798.076 95.6751 798.833 96.6216 799.685 97.5682C798.738 97.9468 797.792 98.2308 796.94 98.6094C794.195 99.7453 791.45 100.881 788.705 102.112C789.557 99.556 790.503 96.9056 791.45 94.3499Z" fill="black" stroke="black" stroke-width="1.09356"/>
<path d="M823.634 64.8821C823.606 64.9052 819.425 68.2214 818.77 68.9825C818.138 69.7183 820.606 68.0937 821.478 67.5846C822.137 67.2001 821.496 67.7782 821.406 67.8766C820.643 68.7092 819.796 69.4846 818.96 70.2581C818.105 71.0487 816.626 72.3832 815.788 73.1719C814.892 74.0167 813.925 74.8818 813.232 75.8785C813.197 75.93 812.851 76.45 813.12 76.1146C813.632 75.4762 814.289 74.9534 814.95 74.4393C816.94 72.8922 819.013 71.4281 820.973 69.8522C821.115 69.7382 821.524 69.3822 821.397 69.5085C821.026 69.874 820.69 70.265 820.334 70.6412C818.196 72.8993 815.698 74.8099 813.317 76.856C812.655 77.4244 812.299 77.7463 811.723 78.3367C811.579 78.4844 811.441 78.6375 811.304 78.7902C811.217 78.8863 811.18 79.0452 811.046 79.0801C811.027 79.0853 811.049 79.0439 811.053 79.0263C811.1 78.8396 811.151 78.7551 811.269 78.5541C811.869 77.5324 812.626 76.5791 813.364 75.6342C814.881 73.6897 816.526 71.8009 817.843 69.7404C818.16 69.2449 817.29 70.7684 817.01 71.2812C816.054 73.0343 814.966 74.694 813.757 76.3196C813.258 76.9899 812.768 77.6593 812.301 78.3471C812.222 78.463 811.677 79.3599 812.107 78.432C812.933 76.6498 813.862 74.9071 814.665 73.116C815.116 72.1093 815.609 71.0522 815.77 69.9661C815.789 69.8367 815.879 69.4969 815.76 69.5747C815.416 69.8006 814.98 70.4785 814.789 70.722C813.661 72.158 812.549 73.6147 811.566 75.133C811.552 75.1545 811.544 75.1797 811.524 75.1972C811.481 75.2349 811.559 75.0951 811.582 75.046C811.742 74.714 811.94 74.3935 812.142 74.081C812.931 72.8599 813.829 71.6998 814.747 70.5522C814.939 70.3121 815.173 69.9516 815.419 69.728C815.531 69.6255 815.311 69.9979 815.243 70.1277C814.205 72.1155 812.972 74.0281 811.805 75.9572C811.368 76.6795 810.934 77.4035 810.496 78.1255C810.453 78.197 810.278 78.4523 810.471 78.2062C811.387 77.0323 812.422 75.9754 813.602 75.0005C814.11 74.5807 814.635 74.1655 815.182 73.7849C815.251 73.7367 815.367 73.6511 815.302 73.7952C814.816 74.8612 814.066 75.8692 813.429 76.8664C813.079 77.4148 812.716 77.9576 812.371 78.5086C812.327 78.5796 812.282 78.6505 812.242 78.724C812.195 78.8131 812.178 78.8496 812.28 78.7799C812.628 78.5413 812.943 78.2447 813.275 77.9909C814.071 77.3815 814.884 76.7875 815.714 76.214C816.218 75.8656 816.729 75.5238 817.272 75.2241C817.338 75.1879 817.521 75.0997 817.495 75.1641C817.213 75.8436 816.741 76.4947 816.317 77.1087C816.027 77.5297 815.715 77.9384 815.421 78.3574C815.358 78.4469 815.159 78.6745 815.273 78.6453C815.416 78.609 815.605 78.4489 815.718 78.3802C816.067 78.1691 816.416 77.9578 816.762 77.7423C817.494 77.2862 818.219 76.8236 818.915 76.3259" stroke="#FEF4E8" stroke-width="0.683478" stroke-linecap="round" stroke-linejoin="round"/>
<path d="M818.99 69.1008C818.718 69.4734 818.436 69.839 818.174 70.2187C818.043 70.4084 817.882 70.5882 817.811 70.8078C817.789 70.879 817.956 70.7605 818.015 70.7147C818.208 70.5647 818.558 70.2046 818.74 70.0072C818.784 69.9597 818.643 70.0926 818.6 70.1406C818.285 70.4878 818.01 70.8694 817.751 71.2585C817.742 71.2718 817.63 71.4358 817.608 71.4926C817.595 71.5246 817.658 71.4449 817.678 71.4171C818.026 70.94 818.375 70.429 818.602 69.8813C818.612 69.8569 818.84 69.3025 818.738 69.4634C818.411 69.9761 818.15 70.5283 817.847 71.0545C817.404 71.8226 816.901 72.5505 816.399 73.2802C816.236 73.5172 816.066 73.7495 815.908 73.9902C815.837 74.098 815.737 74.198 815.714 74.325C815.674 74.5554 816.112 74.0776 816.296 73.9323C816.598 73.6929 817.003 73.3663 817.31 73.1266C817.471 73.0017 817.613 72.7818 817.816 72.7867C817.951 72.79 817.801 73.0605 817.749 73.1845C817.56 73.6338 817.364 73.9805 817.107 74.4081C816.486 75.4368 816.643 75.1 816.016 76.1025C815.891 76.3026 815.523 76.8317 815.747 76.7571C815.928 76.6967 816.483 76.1595 816.54 76.105C816.94 75.7216 817.201 75.4373 817.57 75.0199C817.829 74.7271 818.602 73.8709 818.272 74.0808C817.787 74.3893 817.356 74.8706 816.935 75.2515C816.279 75.845 815.631 76.4469 814.972 77.0366C814.846 77.1484 814.723 77.2628 814.591 77.3664C814.543 77.4043 814.466 77.511 814.433 77.4596C814.395 77.4007 814.491 77.3313 814.531 77.2732C814.621 77.1411 814.719 77.0143 814.82 76.8906C815.569 75.9772 816.397 75.128 817.182 74.247C817.228 74.1956 817.551 73.8352 817.65 73.7032C817.675 73.6699 817.586 73.7569 817.56 73.7888C815.501 76.2475 813.51 78.7392 811.135 80.9138C810.019 81.9355 810.75 80.8904 811.029 80.4757C811.243 80.1576 811.569 79.8832 811.653 79.509C811.71 79.2573 811.232 79.8102 811.049 79.9924C810.499 80.5405 809.982 81.1217 809.453 81.6893C809.349 81.8004 809.248 81.9145 809.141 82.0216C809.108 82.054 809.065 82.1397 809.032 82.1072C808.997 82.0717 809.063 82.0112 809.085 81.9662C809.146 81.8423 809.215 81.722 809.282 81.6012C809.781 80.6992 810.37 79.8533 810.948 79.0004C811.402 78.3302 812.025 77.6225 812.363 76.878C812.548 76.4716 811.801 77.5727 811.545 77.9379C810.613 79.264 809.636 80.5236 808.504 81.6868C808.18 82.0189 807.278 83.0272 807.454 82.5982C807.726 81.9316 808.191 81.3371 808.627 80.7728C808.939 80.3698 809.299 79.9851 809.574 79.5543C809.922 79.0088 808.686 80.4964 808.249 80.9743C807.712 81.5618 807.047 82.2763 806.477 82.8273C806.251 83.0452 805.412 83.8373 805.037 84.0358C804.606 84.2636 804.928 83.6335 804.931 83.6279C805.14 83.2001 805.704 82.3863 805.963 82.0367C806.864 80.8239 807.896 79.7083 808.949 78.6278C809.37 78.196 809.798 77.7503 810.263 77.3639C810.336 77.3032 810.191 77.5094 810.188 77.5149C809.787 78.2078 809.359 78.8805 808.904 79.5392C808.379 80.2979 807.833 81.0431 807.252 81.7598C806.98 82.0959 806.89 82.1572 807.207 81.7623C807.95 80.8359 808.814 80.0071 809.652 79.1691C810.015 78.8056 810.499 78.3218 810.89 77.9505C810.941 77.9019 811.099 77.74 811.203 77.6861C811.322 77.6241 811.116 77.9483 811.029 78.0512C810.489 78.6903 809.857 79.264 809.231 79.8161C808.654 80.3256 808.054 80.8652 807.398 81.2764C807.281 81.3501 807.763 80.9012 807.766 80.8987C808.156 80.5911 808.582 80.3378 809.01 80.088C809.114 80.0269 809.594 79.6525 809.76 79.6751C809.812 79.6822 809.791 79.7814 809.775 79.8312C809.725 79.9874 809.589 80.2444 809.518 80.37C809.02 81.2572 808.437 82.1 807.806 82.8978C807.106 83.7842 806.36 84.665 805.555 85.4608C805.513 85.5025 805.375 85.5924 805.394 85.5363C805.434 85.4203 805.649 85.068 805.691 85.0026C806.421 83.8747 807.413 82.9243 808.043 81.7296C808.13 81.5638 808.085 81.6058 807.985 81.7421C807.375 82.5746 806.76 83.3983 806.112 84.2019C805.73 84.6757 804.652 86.1376 804.936 85.5993C805.286 84.9365 805.783 84.3078 806.21 83.6959C806.834 82.8006 807.503 81.938 808.126 81.0422C808.28 80.8202 808.744 80.1626 808.549 80.3499C807.849 81.0218 807.457 81.9835 806.771 82.6687C806.699 82.7412 806.706 82.6387 806.708 82.5805C806.73 82.1289 806.946 81.7156 807.167 81.3318C807.462 80.8191 807.798 80.2267 808.224 79.806C808.316 79.715 808.234 80.0706 808.194 80.1938C807.601 82.0047 806.605 83.7038 805.492 85.2417C805.331 85.4655 805.22 85.6078 805.049 85.7956C805.029 85.8182 804.977 85.8735 804.971 85.8435C804.93 85.6262 805.164 85.3002 805.268 85.1436C806.237 83.685 807.641 82.4865 808.899 81.2915C809.06 81.1385 809.534 80.6745 809.357 80.8081C808.914 81.1419 808.602 81.7387 808.295 82.1777C807.686 83.0483 807.045 83.8889 806.411 84.7407C806.337 84.8402 806.284 84.9137 806.431 84.8163C806.523 84.7561 807.025 84.3753 807.061 84.348C808.023 83.6159 808.989 82.8855 809.931 82.1274C810.294 81.8355 811.293 80.8645 810.994 81.221C810.216 82.1462 809.469 83.0798 808.614 83.9401C807.922 84.6372 807.198 85.3901 806.394 85.9618C806.117 86.1588 806.669 85.3371 806.852 85.0504C807.687 83.7403 808.583 82.47 809.46 81.1883C809.654 80.9058 810.258 80.1147 809.966 80.2945C809.296 80.7081 808.703 81.3209 808.113 81.8303C807.174 82.6415 806.21 83.5795 805.072 84.1138C804.718 84.2797 804.153 84.474 804.251 83.8545C804.333 83.3386 804.695 82.8053 804.946 82.359C805.244 81.8305 804.909 82.6635 804.901 82.6863C804.872 82.7641 804.518 83.4662 804.589 83.5574C804.621 83.5994 807.634 81.3151 807.942 81.1052C808.032 81.0442 808.21 80.8367 808.224 80.944C808.244 81.1022 808.039 81.2041 807.937 81.3267C807.425 81.9435 806.883 82.533 806.321 83.1042C806.26 83.1663 806.119 83.3574 806.119 83.2704C806.119 83.071 806.179 82.8971 806.28 82.724C806.549 82.2681 806.922 81.8712 807.275 81.4803C807.276 81.479 807.465 81.2117 807.496 81.3519C807.566 81.6557 807.264 82.2319 807.172 82.4798C807.043 82.8248 806.942 83.0801 806.794 83.4063C806.707 83.5975 806.663 83.6365 806.771 83.4894C808.335 81.3693 810.167 79.4777 811.658 77.2959C812.803 75.6213 813.964 73.9234 814.997 72.1774C815.721 70.9535 816.527 69.8707 817.529 68.8591C817.961 68.4241 818.378 67.8585 818.884 67.5147C819.022 67.421 819.69 66.9345 819.866 67.0262C819.924 67.0565 819.92 67.1526 819.911 67.2176C819.884 67.4201 819.821 67.6165 819.76 67.8118C819.595 68.3463 819.185 69.4654 818.995 69.9669C818.661 70.8469 818.29 71.7124 817.957 72.5929C817.94 72.6385 817.66 73.3645 817.625 73.5622C817.607 73.6613 817.799 73.4553 817.867 73.3809C818.618 72.5566 819.348 71.7097 820.035 70.8305C820.188 70.6336 820.605 70.208 820.684 69.9316C820.747 69.7128 820.409 70.2944 820.271 70.4755C819.727 71.1902 819.108 71.8352 818.469 72.4644C818.215 72.7135 817.772 73.1424 817.477 73.396C817.398 73.4636 817.269 73.6351 817.207 73.5521C817.095 73.4022 817.822 72.4998 817.852 72.4569C818.698 71.2263 819.695 70.133 820.742 69.0706C820.781 69.031 820.692 69.1703 820.661 69.2166C820.268 69.8118 819.841 70.3876 819.408 70.9538C819.171 71.2631 818.856 71.6644 818.592 71.9659C818.504 72.066 818.438 72.2489 818.305 72.2429C818.209 72.2385 818.402 72.0768 818.461 72.0012C818.638 71.7738 818.928 71.4299 819.106 71.2257C819.633 70.6185 820.229 70.0618 820.712 69.418" stroke="#F7941D" stroke-width="2.05043" stroke-linecap="round" stroke-linejoin="round"/>
<path d="M822.197 68.4364C822.171 68.4584 821.381 69.1439 821.182 69.2514C821.063 69.3151 821.33 69.0232 821.431 68.9348C821.508 68.8674 821.682 68.7261 821.717 68.8225C821.761 68.9449 821.645 69.1807 821.597 69.2892C821.535 69.4306 821.532 69.3898 821.564 69.2963C821.604 69.1774 821.639 69.0534 821.656 68.9287C821.663 68.8766 821.708 68.6601 821.607 68.7428C821.503 68.8273 821.45 68.8879 821.355 69.0042C821.089 69.3307 820.848 69.6766 820.588 70.0082C819.936 70.8417 819.571 71.2821 818.855 72.1029C818.572 72.4274 818.284 72.7478 817.993 73.065C814.369 77.0114 818.782 72.2107 817.288 73.7676" stroke="#F7941D" stroke-width="0.683478" stroke-linecap="round" stroke-linejoin="round"/>
<path d="M815.505 75.2935C815.279 75.7067 815.005 76.066 814.71 76.4343C814.512 76.6825 814.266 77.0478 814.014 77.2646C813.976 77.297 814.005 77.1645 814.013 77.1155C814.038 76.9608 814.084 76.8121 814.147 76.6681C814.258 76.4109 814.419 76.1834 814.549 75.9369C814.609 75.8242 814.638 75.689 814.678 75.5692" stroke="#F7941D" stroke-width="0.683478" stroke-linecap="round" stroke-linejoin="round"/>
<path d="M797.499 89.3244C798.498 90.2812 799.549 91.1832 800.644 92.03C800.707 92.0786 800.89 92.2251 800.842 92.1621C800.76 92.0555 800.643 91.9812 800.54 91.895C800.209 91.6171 799.886 91.3647 799.541 91.1051C799.255 90.8901 798.963 90.6845 798.676 90.4704C798.596 90.4106 798.59 90.4072 798.505 90.4072C798.401 90.4072 797.969 90.2644 797.964 90.4014C797.953 90.7317 798.206 90.9983 798.418 91.2286C798.822 91.6698 799.294 92.0821 799.779 92.435C800.019 92.6095 800.259 92.791 800.509 92.952C800.765 93.1174 800.455 92.6094 800.428 92.5671C800.129 92.0882 799.759 91.6436 799.409 91.2028C799.037 90.7356 798.601 90.2975 798.271 89.7983C798.167 89.6399 797.965 89.3798 797.942 89.1879C797.937 89.139 797.981 89.1759 798.026 89.1937C798.234 89.2757 798.525 89.4179 798.704 89.5053C799.507 89.8978 800.296 90.3184 801.06 90.782C801.54 91.073 801.995 91.4182 802.486 91.6896C802.629 91.7683 802.394 91.5349 802.373 91.5159C802.236 91.3919 802.084 91.2942 801.928 91.197C801.394 90.8653 800.868 90.5213 800.338 90.1831C799.998 89.9664 799.655 89.7539 799.321 89.5283C799.302 89.5156 799.205 89.3999 799.222 89.4823C799.261 89.6681 799.375 89.854 799.469 90.0137C799.755 90.4975 800.109 90.9194 800.497 91.3234C800.734 91.5703 800.974 91.8289 801.254 92.0285C801.329 92.0822 801.405 92.1273 801.484 92.175C801.534 92.2053 801.653 92.3059 801.643 92.2483C801.618 92.1009 801.335 91.8905 801.25 91.8117C800.717 91.3195 800.136 90.8787 799.634 90.3526C799.592 90.3087 799.45 90.1588 799.404 90.0783C799.363 90.0055 799.474 90.0717 799.479 90.074C800.101 90.3552 800.683 90.7457 801.279 91.0764C801.641 91.2778 802.016 91.5225 802.404 91.6767C802.502 91.7155 802.321 91.4799 802.252 91.401C801.326 90.3446 800.113 89.5586 799.04 88.6637C799.031 88.657 798.961 88.6053 798.978 88.5804C798.988 88.5658 799.012 88.5922 799.025 88.6034C799.154 88.7099 799.276 88.8173 799.412 88.9165C800.518 89.7289 801.689 90.4868 802.865 91.1927C802.9 91.2137 802.996 91.272 802.98 91.2344C802.938 91.1335 802.76 90.9472 802.722 90.9069C802.069 90.222 801.274 89.6552 800.492 89.129C800.046 88.8296 799.576 88.5744 799.119 88.2961C799.066 88.2644 798.924 88.1517 798.963 88.1984C799.059 88.3125 799.199 88.4273 799.308 88.5244C799.722 88.8935 800.2 89.1741 800.675 89.4565C800.971 89.6325 801.291 89.819 801.592 89.9878C801.77 90.0879 802.168 90.3804 802.404 90.3785C802.484 90.3778 802.023 89.8704 802.02 89.8672C801.415 89.2845 800.739 88.7819 800.062 88.2889C799.77 88.0761 798.914 87.4113 799.183 87.6527C799.58 88.0082 800.057 88.2878 800.506 88.569C801.227 89.0204 801.948 89.4713 802.672 89.9189C802.848 90.0282 803.362 90.3649 803.222 90.2119C802.166 89.0617 800.904 88.1978 799.633 87.3109C799.433 87.1715 800.025 87.6004 800.227 87.736C800.867 88.1644 801.545 88.5279 802.211 88.9122C802.443 89.0461 802.727 89.2203 802.921 89.4076C802.979 89.4635 803.098 89.5921 803.003 89.399C802.851 89.09 802.527 88.8448 802.277 88.6264C801.539 87.9834 800.757 87.3877 799.943 86.8456C799.819 86.7631 799.619 86.6406 799.811 86.8428C800.275 87.3319 800.896 87.7003 801.467 88.0462C802.418 88.6227 803.402 89.1452 804.398 89.6403C804.68 89.7809 804.822 89.8495 805.08 89.9634C805.149 89.9938 805.184 90.0201 805.14 89.9749C804.687 89.506 804.173 89.1219 803.654 88.7298C802.788 88.0759 801.909 87.4251 800.981 86.8614C800.853 86.7836 800.711 86.7187 800.604 86.6115C800.563 86.5715 800.442 86.4534 800.477 86.4981C800.712 86.8004 801.098 87.018 801.418 87.2147C802.376 87.804 803.474 88.147 804.495 88.6092C804.637 88.6735 804.778 88.7409 804.915 88.816C804.932 88.8254 805.053 88.914 804.972 88.8375C803.929 87.8492 802.563 87.2658 801.376 86.4809C801.108 86.3033 801.936 86.7978 802.223 86.9433C803.08 87.3774 803.957 87.7774 804.857 88.1123C804.863 88.1143 805.228 88.2437 805.302 88.2616C805.319 88.2656 805.301 88.2235 805.288 88.2128C804.856 87.8633 804.368 87.5722 803.911 87.2564C803.487 86.963 803.064 86.6681 802.624 86.399C802.435 86.2834 802.263 86.1757 802.12 86.0041C802.024 85.8894 802.389 86.1351 802.519 86.208C803.102 86.5337 803.719 86.7963 804.31 87.1056C804.793 87.358 805.265 87.6357 805.763 87.8566C805.92 87.9261 806.176 88.0181 805.897 87.8653C805.062 87.4075 804.238 86.9331 803.392 86.4938C802.909 86.2426 802.362 85.9786 801.948 85.6163C801.474 85.2014 803.013 86.2895 803.543 86.6302C803.989 86.9165 804.455 87.1531 804.941 87.3641C804.96 87.3725 805.238 87.4952 805.318 87.5149C805.342 87.5207 805.296 87.4697 805.277 87.4545C805.066 87.2877 804.821 87.1652 804.59 87.0294C803.977 86.6683 803.403 86.26 802.824 85.849C802.6 85.6905 802.344 85.5525 802.137 85.3722C802.093 85.3336 802.244 85.4206 802.295 85.4497C802.72 85.6923 803.136 85.9484 803.558 86.1965C804.258 86.6088 804.981 86.9576 805.713 87.3052C805.794 87.3433 805.853 87.3587 805.759 87.2621C805.336 86.8278 804.807 86.4714 804.319 86.1175C803.796 85.7389 803.275 85.3596 802.752 84.9816C802.585 84.8609 802.739 84.9777 802.827 85.0361C803.619 85.5645 804.45 86.0445 805.297 86.4809C805.582 86.6277 805.703 86.6822 805.973 86.8097C806.037 86.8398 806.1 86.8716 806.164 86.9002C806.185 86.9095 806.219 86.9441 806.229 86.9232C806.271 86.8283 804.99 86.1472 804.903 86.0988C804.313 85.771 803.721 85.4477 803.143 85.0993C802.793 84.8885 802.357 84.6676 802.071 84.3655C801.955 84.2425 802.374 84.518 802.522 84.5995C803.231 84.989 803.948 85.3645 804.642 85.78C804.894 85.9307 805.032 86.02 805.262 86.1764C805.339 86.2283 805.407 86.2948 805.492 86.3315C805.515 86.3415 805.494 86.2781 805.481 86.2568C805.36 86.0656 805.206 85.8904 805.058 85.7211C804.698 85.3088 804.302 84.9364 803.878 84.5895C803.59 84.354 803.359 84.18 803.064 83.959C802.983 83.8988 802.674 83.6154 802.531 83.5828C802.494 83.5744 802.563 83.6519 802.588 83.6804C802.669 83.773 802.791 83.8891 802.884 83.9619C803.456 84.41 804.136 84.7517 804.777 85.0864C805.191 85.3027 805.62 85.4937 806.029 85.7197C806.21 85.8194 806.124 85.7738 806.009 85.6766C805.473 85.2227 804.865 84.9355 804.268 84.5751C804.179 84.5214 804.07 84.4387 803.961 84.4387" stroke="#F7941D" stroke-width="2.05043" stroke-linecap="round" stroke-linejoin="round"/>
<path d="M821.812 63.8252C822.621 64.8268 823.468 65.7995 824.234 66.8351C824.769 67.5597 824.88 67.768 824.043 67.9941C823.77 68.0679 821.316 68.8673 821.166 68.5419C820.962 68.0985 822.275 66.4837 822.527 66.1316C822.926 65.5743 822.668 66.3908 822.631 66.5353C822.437 67.2947 822.203 68.0437 822.002 68.8013C821.85 69.3785 821.725 69.7889 822.112 69.0608C822.397 68.5248 822.816 67.9203 822.965 67.3252C823.003 67.176 822.776 67.5678 822.688 67.6943C821.824 68.943 820.97 70.1989 820.14 71.4711C819.575 72.3376 817.917 74.9612 818.491 74.1004" stroke="#F7941D" stroke-width="0.683478" stroke-linecap="round" stroke-linejoin="round"/>
<path d="M821.852 64.5823C821.913 64.7147 822.034 64.8447 822.072 64.984C822.133 65.2098 821.712 65.1525 821.62 65.3182C821.519 65.4997 821.75 65.829 821.952 65.829C822.047 65.829 822.07 65.6736 822.07 65.6056C822.07 64.829 822.083 67.1597 822.136 67.9345C822.171 68.4436 822.22 68.9533 822.281 69.46C822.295 69.5758 822.314 69.7598 822.408 69.5604C822.515 69.3333 822.597 69.0889 822.68 68.8522C822.728 68.7135 822.796 68.5075 822.839 68.3605C822.852 68.3142 822.905 68.1898 822.867 68.2185C822.744 68.3095 822.546 68.7844 822.51 68.8539C822.084 69.6819 821.685 70.5242 821.319 71.3802C821.267 71.502 821.216 71.6245 821.166 71.7473C821.134 71.8261 821.004 72.0308 821.076 71.9862C821.189 71.9166 821.234 71.7724 821.315 71.6676C821.63 71.2628 821.816 71.0393 822.157 70.6218C822.697 69.9596 823.247 69.3035 823.751 68.6133C823.892 68.421 824.038 68.2199 824.148 68.0055C824.164 67.9732 824.201 67.9029 824.165 67.8981C824.121 67.8923 824.068 67.9441 824.03 67.9588C823.94 67.9933 823.869 67.8451 823.829 67.7925C823.524 67.3865 823.236 66.943 823.154 66.4316C823.131 66.2871 823.131 66.1411 823.13 65.9952C823.129 65.8569 823.093 65.6554 823.13 65.5208C823.158 65.4191 823.322 65.6118 823.405 65.6766C823.885 66.0511 824.35 66.4427 824.799 66.8541C825.033 67.0684 825.249 67.3104 825.488 67.519C825.644 67.6552 825.322 67.1364 825.201 66.9683C824.349 65.7836 823.352 64.6939 822.423 63.5694C822.342 63.4705 822.145 63.2854 822.112 63.1435C822.069 62.96 822.418 63.3643 822.56 63.488C823.702 64.4817 824.943 65.3653 826.056 66.39C826.096 66.427 826.134 66.4665 826.172 66.506C826.183 66.5173 826.217 66.5424 826.202 66.5424C826.184 66.5424 826.176 66.5186 826.163 66.506C825.943 66.2792 825.725 66.0498 825.509 65.8186C824.941 65.2091 824.401 64.5731 823.798 63.9971C823.606 63.8139 823.459 63.6328 823.332 63.4015C823.299 63.3396 823.261 63.283 823.216 63.2283C823.184 63.189 823.062 63.1124 823.113 63.1175C823.394 63.1456 823.732 63.3579 823.982 63.4828C824.115 63.5496 824.254 63.7745 824.34 63.8949C824.618 64.2833 824.95 64.6281 825.234 65.0221C825.647 65.5961 826.11 66.1301 826.473 66.7415C826.51 66.8035 826.611 66.9947 826.579 66.9302C826.499 66.77 826.412 66.6133 826.326 66.4558C826.199 66.2205 826.086 65.9742 825.952 65.7424C825.717 65.335 825.316 65.1522 824.906 64.9563" stroke="#F7941D" stroke-width="2.05043" stroke-linecap="round" stroke-linejoin="round"/>
<path d="M794.184 89.7934C794.867 89.7934 799.993 93.6664 801.702 95.6029L829.041 67.9221C828.221 65.4615 823.915 62.3403 821.864 61.0873L794.184 89.7934Z" fill="#F7941D"/>
<defs>
<clipPath id="clip0">
<rect width="98.1494" height="98.1494" fill="white" transform="matrix(-1 0 0 1 388.584 181.281)"/>
</clipPath>
<clipPath id="clip1">
<rect width="58.7219" height="76.3384" fill="white" transform="matrix(-1 0 0 1 883.851 192.606)"/>
</clipPath>
</defs>
</svg>
