<svg width="70" height="70" viewBox="0 0 70 70" fill="none" xmlns="http://www.w3.org/2000/svg">
<path d="M14.9327 21.6667C18.1544 21.6667 20.766 19.055 20.766 15.8333C20.766 12.6117 18.1544 10 14.9327 10C11.711 10 9.09937 12.6117 9.09937 15.8333C9.09937 19.055 11.711 21.6667 14.9327 21.6667Z" stroke="#F7941D" stroke-width="3" stroke-linecap="round" stroke-linejoin="round"/>
<path d="M51.1002 20.6667C54.3218 20.6667 56.9335 18.055 56.9335 14.8333C56.9335 11.6117 54.3218 9 51.1002 9C47.8785 9 45.2668 11.6117 45.2668 14.8333C45.2668 18.055 47.8785 20.6667 51.1002 20.6667Z" stroke="#F7941D" stroke-width="3" stroke-linecap="round" stroke-linejoin="round"/>
<path d="M7.62136 60.4163V45.833L4 42.9163V31.2497C4 30.4761 4.38154 29.7343 5.06067 29.1873C5.73981 28.6403 6.66092 28.333 7.62136 28.333H22.1068C23.0673 28.333 23.9884 28.6403 24.6675 29.1873C25.3467 29.7343 25.7282 30.4761 25.7282 31.2497V42.9163L22.1068 45.833V60.4163" stroke="#F7941D" stroke-width="3" stroke-linecap="round" stroke-linejoin="round"/>
<path d="M43.835 60.4163V48.7497H36.5923L43.835 31.2497C43.835 30.4761 44.2166 29.7343 44.8957 29.1873C45.5748 28.6403 46.4959 28.333 47.4564 28.333H54.6991C55.6596 28.333 56.5807 28.6403 57.2598 29.1873C57.9389 29.7343 58.3205 30.4761 58.3205 31.2497L65.5632 48.7497H58.3205V60.4163" stroke="#F7941D" stroke-width="3" stroke-linecap="round" stroke-linejoin="round"/>
</svg>
