<svg width="530" height="530" viewBox="0 0 530 530" fill="none" xmlns="http://www.w3.org/2000/svg">
<rect width="530" height="530" rx="5.3" fill="white"/>
<rect width="530" height="530" fill="#F7941D"/>
<path d="M235.608 169.931C236.774 170.823 236.835 172.532 235.711 173.49C235.23 173.903 234.724 174.312 234.161 174.752C232.709 175.884 215.168 189.284 206.203 184.14C197.359 179.066 198 156.564 207.308 141.398C216.073 127.067 235.459 114.567 253.31 120.162C269.043 125.104 280.15 142.974 276.403 150.136C274.966 152.853 271.822 153.199 267.532 153.663C264.386 154.021 260.63 154.421 256.505 155.903C255.605 156.228 254.597 155.687 254.447 154.749C253.95 151.642 252.338 148.892 249.709 147.17C244.238 143.575 236.427 145.781 232.283 152.086C231.911 152.738 228.706 158.632 231.535 164.857C232.624 167.241 234.232 168.865 235.608 169.931Z" fill="black"/>
<path d="M340.072 198.393C343.197 189.196 339.138 179.496 331.018 176.762C326.706 175.31 322.118 176.102 318.309 178.53C316.579 179.631 314.292 179.14 313.188 177.414C311.276 174.421 309.231 171.974 307.413 169.85C304.049 165.872 301.561 162.942 302.59 159.35C305.281 149.935 330.004 143.485 347.957 152.262C368.33 162.243 374.92 189.397 370.612 209.301C366.081 230.394 347.825 250.714 335.803 247.791C323.624 244.829 319.42 218.425 319.096 216.215C319.001 215.545 318.916 214.916 318.843 214.301C318.587 212.069 320.402 210.193 322.654 210.257C325.225 210.332 328.628 209.928 332.084 207.963C337.607 204.817 339.584 199.747 340.072 198.393Z" fill="black"/>
<path fill-rule="evenodd" clip-rule="evenodd" d="M168.133 206.451C170.763 203.372 173.68 201.394 176.794 200.266C191.729 194.862 212.479 207.086 222.958 216.928C230.836 224.344 239.225 231.229 248.343 237.05C258.601 243.593 269.716 248.728 281.583 251.518C287.663 252.939 293.831 253.864 299.997 254.789C305.723 255.647 311.447 256.506 317.097 257.761C329.977 260.612 344.752 266.122 349.896 279.398C358.742 302.303 337.766 323.551 317.542 329.702C272.084 343.496 222.198 324.313 189.428 292.02C173.649 276.452 156.691 254.309 158.952 230.898C159.78 222.366 162.475 213.089 168.133 206.451ZM323.805 317.79C256.81 338.538 211.019 297.034 200.021 285.613C198.55 284.13 198.786 281.703 200.509 280.454C224.275 262.945 244.835 269.297 254.916 274.573C257.303 275.834 257.309 279.091 255.006 280.507C254.98 280.529 254.947 280.548 254.915 280.566C254.883 280.585 254.85 280.603 254.824 280.625C251.611 282.729 254.014 287.676 257.757 286.748C309.593 273.737 323.047 303.383 326.086 313.544C326.61 315.318 325.6 317.221 323.805 317.79Z" fill="black"/>
<path d="M258.027 184.418C253.674 184.033 249.5 189.934 247.819 194.516C245.136 201.843 247.883 208.83 249.552 213.049C251.478 217.927 253.665 223.541 259.286 226.904C268.236 232.266 278.808 227.652 283.756 225.491C287.988 223.633 294.828 220.661 297.142 213.834C298.312 210.351 298.467 205.197 295.94 202.786C294.22 201.146 291.477 201.717 289.337 201.482C283.658 200.931 278.599 199.213 273.81 196.012C269.431 193.054 265.581 189.375 261.523 186.002C260.321 184.991 259.15 184.527 258.027 184.418Z" fill="black"/>
<path d="M124.626 377.457H129.189C129.712 377.457 130.065 377.558 130.246 377.759C130.447 377.961 130.548 378.354 130.548 378.938V379.694C130.548 380.238 130.437 380.631 130.216 380.873C130.014 381.115 129.672 381.236 129.189 381.236H124.687V397.437C124.687 400.137 124.767 401.9 124.929 402.727C125.09 403.553 125.382 404.067 125.805 404.268C126.107 404.409 126.52 404.57 127.043 404.752C128.272 405.175 128.886 405.8 128.886 406.626C128.886 407.432 128.373 407.996 127.346 408.319C126.318 408.621 124.274 408.772 121.213 408.772C118.151 408.772 116.107 408.611 115.079 408.288C114.052 407.966 113.539 407.381 113.539 406.535C113.539 405.87 114.032 405.356 115.019 404.994C115.382 404.853 115.653 404.732 115.835 404.631C116.338 404.349 116.691 403.875 116.892 403.21C117.094 402.525 117.194 401.286 117.194 399.492V396.47V381.236H113.659C113.176 381.236 112.834 381.125 112.632 380.903C112.451 380.681 112.36 380.278 112.36 379.694V378.938C112.36 378.414 112.461 378.042 112.662 377.82C112.884 377.578 113.237 377.457 113.72 377.457H117.043C116.902 376.571 116.791 375.744 116.711 374.979C116.65 374.193 116.62 373.447 116.62 372.742C116.62 369.558 117.577 367.079 119.49 365.306C121.424 363.533 124.123 362.646 127.587 362.646C129.964 362.646 131.898 363.19 133.388 364.278C134.878 365.346 135.624 366.707 135.624 368.359C135.624 369.346 135.352 370.102 134.808 370.626C134.284 371.13 133.509 371.382 132.482 371.382C131.817 371.382 131.213 371.231 130.669 370.928C130.145 370.626 129.712 370.203 129.37 369.659C129.209 369.377 129.007 368.994 128.766 368.51C128 366.999 127.003 366.243 125.775 366.243C124.989 366.243 124.345 366.505 123.841 367.029C123.358 367.533 123.116 368.198 123.116 369.024C123.116 369.508 123.358 370.676 123.841 372.53C124.324 374.364 124.586 376.006 124.626 377.457Z" fill="black"/>
<path d="M139.974 390.334C139.974 394.505 140.85 397.991 142.603 400.792C144.375 403.593 146.53 404.994 149.068 404.994C151.123 404.994 152.784 404.127 154.053 402.394C155.342 400.661 155.987 398.374 155.987 395.533C155.987 391.422 155.09 387.976 153.298 385.195C151.525 382.394 149.39 380.994 146.893 380.994C144.818 380.994 143.147 381.85 141.878 383.563C140.609 385.256 139.974 387.513 139.974 390.334ZM147.709 409.407C143.177 409.407 139.42 407.865 136.439 404.782C133.459 401.699 131.968 397.81 131.968 393.115C131.968 388.379 133.529 384.44 136.651 381.296C139.793 378.152 143.721 376.581 148.434 376.581C152.965 376.581 156.672 378.052 159.552 380.994C162.452 383.936 163.902 387.704 163.902 392.298C163.902 397.175 162.351 401.246 159.25 404.51C156.148 407.774 152.301 409.407 147.709 409.407Z" fill="black"/>
<path d="M175.383 390.334C175.383 394.505 176.259 397.991 178.011 400.792C179.784 403.593 181.939 404.994 184.477 404.994C186.531 404.994 188.193 404.127 189.462 402.394C190.751 400.661 191.395 398.374 191.395 395.533C191.395 391.422 190.499 387.976 188.706 385.195C186.934 382.394 184.799 380.994 182.301 380.994C180.227 380.994 178.555 381.85 177.286 383.563C176.017 385.256 175.383 387.513 175.383 390.334ZM183.117 409.407C178.585 409.407 174.829 407.865 171.848 404.782C168.867 401.699 167.377 397.81 167.377 393.115C167.377 388.379 168.938 384.44 172.06 381.296C175.202 378.152 179.129 376.581 183.842 376.581C188.374 376.581 192.08 378.052 194.96 380.994C197.861 383.936 199.311 387.704 199.311 392.298C199.311 397.175 197.76 401.246 194.658 404.51C191.556 407.774 187.709 409.407 183.117 409.407Z" fill="black"/>
<path d="M226.623 407.109V405.568C226.623 405.326 226.593 405.135 226.532 404.994C226.492 404.832 226.441 404.752 226.381 404.752C226.3 404.752 225.978 404.973 225.414 405.417C224.87 405.84 224.407 406.193 224.024 406.475C222.776 407.422 221.547 408.117 220.339 408.56C219.13 409.004 217.881 409.225 216.592 409.225C212.665 409.225 209.462 407.815 206.985 404.994C204.528 402.152 203.299 398.465 203.299 393.931C203.299 388.812 204.709 384.641 207.529 381.417C210.369 378.193 214.034 376.581 218.526 376.581C220.681 376.581 222.907 377.105 225.203 378.152C225.646 378.354 225.908 378.455 225.988 378.455C226.149 378.455 226.26 378.344 226.321 378.122C226.401 377.901 226.441 377.487 226.441 376.883V373.195C226.441 371.724 226.3 370.707 226.018 370.142C225.757 369.558 225.233 369.125 224.447 368.843C224.246 368.782 223.964 368.702 223.602 368.601C222.312 368.238 221.668 367.684 221.668 366.938C221.668 366.374 221.92 365.891 222.423 365.488C222.927 365.085 223.974 364.591 225.565 364.006C226.794 363.563 227.952 363.231 229.04 363.009C230.147 362.767 231.134 362.646 232 362.646C232.705 362.646 233.209 362.848 233.511 363.251C233.833 363.654 233.994 364.319 233.994 365.246C233.994 365.407 233.974 365.941 233.934 366.848C233.713 373.074 233.602 379.563 233.602 386.314C233.602 393.064 233.672 397.457 233.813 399.492C233.954 401.507 234.196 402.646 234.538 402.908C234.861 403.13 235.576 403.371 236.683 403.633C237.811 403.875 238.375 404.369 238.375 405.115C238.375 406.082 236.855 407.059 233.813 408.046L233.481 408.167C232.615 408.449 231.678 408.681 230.671 408.863C229.684 409.044 228.889 409.135 228.284 409.135C227.7 409.135 227.277 408.973 227.015 408.651C226.754 408.329 226.623 407.815 226.623 407.109ZM226.321 396.349V387.734C226.3 386.445 226.24 385.578 226.139 385.135C226.059 384.671 225.908 384.299 225.686 384.016C225.001 383.089 224.035 382.334 222.786 381.749C221.557 381.165 220.298 380.873 219.009 380.873C216.673 380.873 214.81 381.83 213.42 383.744C212.03 385.659 211.335 388.268 211.335 391.573C211.335 395.099 212.091 397.971 213.601 400.188C215.132 402.404 217.076 403.512 219.432 403.512C221.668 403.512 223.37 402.908 224.538 401.699C225.726 400.47 226.321 398.686 226.321 396.349Z" fill="black"/>
<path d="M250.339 378.817V380.359C250.339 380.621 250.349 380.822 250.369 380.964C250.41 381.084 250.46 381.155 250.521 381.175C250.621 381.175 251.034 380.893 251.759 380.329C252.243 379.966 252.645 379.664 252.968 379.422C254.277 378.455 255.526 377.739 256.714 377.276C257.922 376.812 259.141 376.581 260.37 376.581C264.277 376.581 267.47 378.011 269.947 380.873C272.424 383.734 273.663 387.442 273.663 391.996C273.663 397.034 272.263 401.175 269.464 404.419C266.684 407.664 263.159 409.286 258.889 409.286C256.553 409.286 254.186 408.621 251.789 407.291C251.387 407.089 251.155 406.989 251.095 406.989C250.833 406.989 250.641 407.291 250.521 407.895C250.4 408.48 250.339 409.457 250.339 410.827C250.339 412.077 250.41 413.114 250.551 413.941C250.692 414.787 250.893 415.361 251.155 415.664C251.417 415.946 252.011 416.218 252.938 416.48C253.481 416.641 253.894 416.772 254.176 416.873C254.458 417.014 254.68 417.215 254.841 417.477C255.022 417.739 255.113 418.041 255.113 418.384C255.113 419.15 254.498 419.694 253.27 420.016C252.041 420.359 249.936 420.53 246.955 420.53C243.914 420.53 241.86 420.359 240.792 420.016C239.745 419.674 239.221 419.059 239.221 418.172C239.221 417.487 239.664 416.953 240.551 416.57C241.457 416.208 242.001 415.946 242.182 415.784C242.605 415.361 242.897 414.324 243.058 412.671C243.219 411.019 243.3 407.573 243.3 402.334V399.674V397.195C243.3 391.492 243.199 387.815 242.998 386.162C242.816 384.51 242.484 383.543 242.001 383.261C241.678 383.1 241.195 382.918 240.551 382.717C239.282 382.314 238.647 381.759 238.647 381.054C238.647 380.55 238.838 380.117 239.221 379.754C239.604 379.392 240.218 379.059 241.064 378.757C242.635 378.132 244.105 377.649 245.475 377.306C246.865 376.943 247.932 376.762 248.678 376.762C249.262 376.762 249.685 376.923 249.947 377.246C250.208 377.568 250.339 378.092 250.339 378.817ZM250.641 389.518V398.132C250.641 399.382 250.692 400.238 250.792 400.701C250.893 401.165 251.054 401.548 251.276 401.85C251.981 402.777 252.948 403.543 254.176 404.147C255.425 404.752 256.684 405.054 257.953 405.054C260.289 405.054 262.152 404.087 263.542 402.152C264.932 400.218 265.627 397.598 265.627 394.293C265.627 390.747 264.861 387.875 263.33 385.679C261.82 383.462 259.886 382.354 257.53 382.354C255.294 382.354 253.582 382.969 252.394 384.198C251.225 385.407 250.641 387.18 250.641 389.518Z" fill="black"/>
<path d="M304.328 399.916C304.328 401.104 304.429 401.991 304.63 402.575C304.832 403.16 305.144 403.512 305.567 403.633C305.809 403.714 306.131 403.805 306.534 403.905C307.863 404.268 308.528 404.802 308.528 405.507C308.528 406.515 307.823 407.432 306.413 408.258C305.003 409.064 303.362 409.467 301.488 409.467C300.562 409.467 299.575 408.923 298.528 407.835C297.5 406.727 296.957 406.172 296.896 406.172C296.715 406.172 296.262 406.404 295.537 406.868C292.878 408.601 290.26 409.467 287.681 409.467C284.62 409.467 282.143 408.58 280.249 406.807C278.356 405.014 277.409 402.676 277.409 399.795C277.409 396.429 278.628 393.81 281.065 391.936C283.502 390.042 286.906 389.094 291.277 389.094C292.103 389.094 292.999 389.145 293.966 389.246C294.953 389.326 296.01 389.457 297.138 389.639L297.168 386.314C297.168 384.46 296.765 383.039 295.96 382.052C295.154 381.044 294.006 380.54 292.515 380.54C291.488 380.54 290.531 380.772 289.645 381.236C288.759 381.679 287.903 382.374 287.077 383.321C286.916 383.503 286.695 383.775 286.413 384.137C285.144 385.749 283.794 386.555 282.364 386.555C281.538 386.555 280.874 386.293 280.37 385.77C279.887 385.225 279.645 384.5 279.645 383.593C279.645 381.618 280.864 379.956 283.301 378.606C285.738 377.256 288.87 376.581 292.697 376.581C295.033 376.581 297.037 376.893 298.709 377.518C300.381 378.122 301.68 379.009 302.606 380.178C303.231 380.984 303.674 382.032 303.936 383.321C304.197 384.611 304.328 386.757 304.328 389.759V399.916ZM297.138 393.659C296.312 393.477 295.516 393.346 294.751 393.266C293.986 393.165 293.261 393.115 292.576 393.115C290.32 393.115 288.558 393.618 287.289 394.626C286.02 395.633 285.385 397.024 285.385 398.797C285.385 400.47 285.929 401.81 287.017 402.817C288.125 403.825 289.605 404.329 291.458 404.329C293.512 404.329 294.973 403.875 295.839 402.968C296.725 402.062 297.168 400.51 297.168 398.314L297.138 393.659Z" fill="black"/>
<path d="M323.543 380.389C323.704 380.248 323.926 380.047 324.208 379.785C326.484 377.649 328.951 376.581 331.61 376.581C333.121 376.581 334.571 376.913 335.961 377.578C337.37 378.223 338.559 379.11 339.526 380.238C340.492 381.387 341.177 382.757 341.58 384.349C341.983 385.941 342.184 388.429 342.184 391.815V396.077C342.184 396.601 342.174 397.286 342.154 398.132C342.134 398.979 342.124 399.573 342.124 399.916C342.124 401.407 342.224 402.465 342.426 403.089C342.647 403.694 343.02 404.147 343.544 404.45C343.745 404.55 344.017 404.661 344.359 404.782C345.387 405.165 345.9 405.709 345.9 406.414C345.9 407.321 345.417 407.946 344.45 408.288C343.483 408.611 341.389 408.772 338.166 408.772C335.225 408.772 333.251 408.621 332.244 408.319C331.257 407.996 330.764 407.432 330.764 406.626C330.764 405.82 331.288 405.225 332.335 404.842C332.879 404.641 333.272 404.47 333.513 404.329C333.997 404.067 334.339 403.482 334.541 402.575C334.742 401.649 334.843 400.047 334.843 397.769C334.843 391.079 334.41 386.888 333.544 385.195C332.698 383.503 331.167 382.656 328.951 382.656C327.823 382.656 326.746 382.999 325.719 383.684C324.712 384.349 323.936 385.246 323.392 386.374C322.929 387.281 322.607 388.55 322.425 390.183C322.244 391.815 322.154 394.717 322.154 398.888C322.154 400.923 322.234 402.283 322.395 402.968C322.577 403.633 322.889 404.087 323.332 404.329C323.594 404.47 323.986 404.641 324.51 404.842C325.578 405.225 326.111 405.82 326.111 406.626C326.111 407.432 325.598 408.006 324.571 408.349C323.543 408.671 321.66 408.832 318.921 408.832C315.718 408.832 313.593 408.661 312.546 408.319C311.519 407.976 311.005 407.341 311.005 406.414C311.005 405.709 311.519 405.165 312.546 404.782C312.929 404.641 313.201 404.53 313.362 404.45C313.906 404.147 314.288 403.643 314.51 402.938C314.731 402.233 314.842 401.084 314.842 399.492C314.842 399.109 314.832 398.404 314.812 397.377C314.792 396.349 314.782 395.502 314.782 394.837V391.573C314.782 388.268 314.701 386.112 314.54 385.105C314.379 384.097 314.087 383.482 313.664 383.261C313.342 383.1 312.848 382.918 312.184 382.717C310.915 382.314 310.28 381.759 310.28 381.054C310.28 380.591 310.472 380.178 310.854 379.815C311.257 379.432 311.912 379.059 312.818 378.697C314.369 378.092 315.879 377.608 317.35 377.246C318.82 376.883 319.908 376.702 320.613 376.702C321.197 376.702 321.62 376.863 321.882 377.185C322.143 377.487 322.274 377.991 322.274 378.697V380.782C322.274 380.943 322.284 381.044 322.305 381.084C322.345 381.125 322.415 381.155 322.516 381.175C322.556 381.175 322.607 381.165 322.667 381.145C322.748 381.105 322.798 381.074 322.818 381.054L323.543 380.389Z" fill="black"/>
<path d="M372.487 407.109V405.568C372.487 405.326 372.457 405.135 372.396 404.994C372.356 404.832 372.306 404.752 372.245 404.752C372.165 404.752 371.842 404.973 371.279 405.417C370.735 405.84 370.271 406.193 369.889 406.475C368.64 407.422 367.411 408.117 366.203 408.56C364.994 409.004 363.746 409.225 362.457 409.225C358.529 409.225 355.326 407.815 352.849 404.994C350.392 402.152 349.163 398.465 349.163 393.931C349.163 388.812 350.573 384.641 353.393 381.417C356.233 378.193 359.899 376.581 364.39 376.581C366.545 376.581 368.771 377.105 371.067 378.152C371.51 378.354 371.772 378.455 371.853 378.455C372.014 378.455 372.124 378.344 372.185 378.122C372.265 377.901 372.306 377.487 372.306 376.883V373.195C372.306 371.724 372.165 370.707 371.883 370.142C371.621 369.558 371.097 369.125 370.312 368.843C370.11 368.782 369.828 368.702 369.466 368.601C368.177 368.238 367.532 367.684 367.532 366.938C367.532 366.374 367.784 365.891 368.288 365.488C368.791 365.085 369.838 364.591 371.43 364.006C372.658 363.563 373.816 363.231 374.904 363.009C376.012 362.767 376.999 362.646 377.865 362.646C378.57 362.646 379.073 362.848 379.375 363.251C379.698 363.654 379.859 364.319 379.859 365.246C379.859 365.407 379.839 365.941 379.798 366.848C379.577 373.074 379.466 379.563 379.466 386.314C379.466 393.064 379.536 397.457 379.677 399.492C379.818 401.507 380.06 402.646 380.403 402.908C380.725 403.13 381.44 403.371 382.548 403.633C383.676 403.875 384.24 404.369 384.24 405.115C384.24 406.082 382.719 407.059 379.677 408.046L379.345 408.167C378.479 408.449 377.543 408.681 376.535 408.863C375.549 409.044 374.753 409.135 374.149 409.135C373.565 409.135 373.142 408.973 372.88 408.651C372.618 408.329 372.487 407.815 372.487 407.109ZM372.185 396.349V387.734C372.165 386.445 372.104 385.578 372.004 385.135C371.923 384.671 371.772 384.299 371.55 384.016C370.866 383.089 369.899 382.334 368.65 381.749C367.421 381.165 366.163 380.873 364.874 380.873C362.537 380.873 360.674 381.83 359.284 383.744C357.895 385.659 357.2 388.268 357.2 391.573C357.2 395.099 357.955 397.971 359.466 400.188C360.996 402.404 362.94 403.512 365.297 403.512C367.532 403.512 369.234 402.908 370.402 401.699C371.591 400.47 372.185 398.686 372.185 396.349Z" fill="black"/>
<path d="M412.911 399.916C412.911 401.104 413.012 401.991 413.213 402.575C413.414 403.16 413.727 403.512 414.15 403.633C414.391 403.714 414.714 403.805 415.116 403.905C416.446 404.268 417.11 404.802 417.11 405.507C417.11 406.515 416.405 407.432 414.996 408.258C413.586 409.064 411.944 409.467 410.071 409.467C409.144 409.467 408.157 408.923 407.11 407.835C406.083 406.727 405.539 406.172 405.479 406.172C405.297 406.172 404.844 406.404 404.119 406.868C401.46 408.601 398.842 409.467 396.264 409.467C393.202 409.467 390.725 408.58 388.832 406.807C386.938 405.014 385.992 402.676 385.992 399.795C385.992 396.429 387.21 393.81 389.648 391.936C392.085 390.042 395.489 389.094 399.859 389.094C400.685 389.094 401.581 389.145 402.548 389.246C403.535 389.326 404.592 389.457 405.72 389.639L405.751 386.314C405.751 384.46 405.348 383.039 404.542 382.052C403.736 381.044 402.588 380.54 401.098 380.54C400.071 380.54 399.114 380.772 398.228 381.236C397.342 381.679 396.486 382.374 395.66 383.321C395.499 383.503 395.277 383.775 394.995 384.137C393.726 385.749 392.377 386.555 390.947 386.555C390.121 386.555 389.456 386.293 388.953 385.77C388.469 385.225 388.228 384.5 388.228 383.593C388.228 381.618 389.446 379.956 391.883 378.606C394.32 377.256 397.452 376.581 401.279 376.581C403.616 376.581 405.62 376.893 407.291 377.518C408.963 378.122 410.262 379.009 411.189 380.178C411.813 380.984 412.256 382.032 412.518 383.321C412.78 384.611 412.911 386.757 412.911 389.759V399.916ZM405.72 393.659C404.895 393.477 404.099 393.346 403.334 393.266C402.568 393.165 401.843 393.115 401.158 393.115C398.903 393.115 397.14 393.618 395.871 394.626C394.602 395.633 393.968 397.024 393.968 398.797C393.968 400.47 394.512 401.81 395.599 402.817C396.707 403.825 398.187 404.329 400.04 404.329C402.095 404.329 403.555 403.875 404.421 402.968C405.307 402.062 405.751 400.51 405.751 398.314L405.72 393.659Z" fill="black"/>
</svg>
