<svg width="20" height="20" viewBox="0 0 20 20" fill="none" xmlns="http://www.w3.org/2000/svg">
<path d="M10 4C13.9871 4 17.3042 6.58667 18 10C17.3049 13.4133 13.9871 16 10 16C6.01294 16 2.69581 13.4133 2 10C2.69507 6.58667 6.01294 4 10 4ZM10 14.6667C11.5081 14.6664 12.9714 14.2045 14.1504 13.3568C15.3294 12.509 16.1543 11.3255 16.4901 10C16.1531 8.67554 15.3276 7.49334 14.1487 6.64668C12.9698 5.80003 11.5072 5.33902 10 5.33902C8.4928 5.33902 7.03018 5.80003 5.85128 6.64668C4.67238 7.49334 3.84695 8.67554 3.50994 10C3.84571 11.3255 4.67062 12.509 5.84963 13.3568C7.02865 14.2045 8.49194 14.6664 10 14.6667V14.6667ZM10 13C9.1175 13 8.27114 12.6839 7.64712 12.1213C7.02309 11.5587 6.67252 10.7956 6.67252 10C6.67252 9.20435 7.02309 8.44129 7.64712 7.87868C8.27114 7.31607 9.1175 7 10 7C10.8825 7 11.7289 7.31607 12.3529 7.87868C12.9769 8.44129 13.3275 9.20435 13.3275 10C13.3275 10.7956 12.9769 11.5587 12.3529 12.1213C11.7289 12.6839 10.8825 13 10 13ZM10 11.6667C10.4903 11.6667 10.9605 11.4911 11.3072 11.1785C11.6538 10.866 11.8486 10.442 11.8486 10C11.8486 9.55797 11.6538 9.13405 11.3072 8.82149C10.9605 8.50893 10.4903 8.33333 10 8.33333C9.50972 8.33333 9.03952 8.50893 8.69284 8.82149C8.34616 9.13405 8.1514 9.55797 8.1514 10C8.1514 10.442 8.34616 10.866 8.69284 11.1785C9.03952 11.4911 9.50972 11.6667 10 11.6667Z" fill="black"/>
</svg>
